G75*
%MOIN*%
%OFA0B0*%
%FSLAX25Y25*%
%IPPOS*%
%LPD*%
%AMOC8*
5,1,8,0,0,1.08239X$1,22.5*
%
%ADD10C,0.00000*%
%ADD11C,0.01181*%
%ADD12C,0.12598*%
%ADD13C,0.07874*%
D10*
X0064310Y0057752D02*
X0064310Y0451453D01*
X0497381Y0451453D01*
X0497381Y0057752D01*
X0064310Y0057752D01*
X0076121Y0077437D02*
X0076123Y0077630D01*
X0076130Y0077823D01*
X0076142Y0078016D01*
X0076159Y0078209D01*
X0076180Y0078401D01*
X0076206Y0078592D01*
X0076237Y0078783D01*
X0076272Y0078973D01*
X0076312Y0079162D01*
X0076357Y0079350D01*
X0076406Y0079537D01*
X0076460Y0079723D01*
X0076518Y0079907D01*
X0076581Y0080090D01*
X0076649Y0080271D01*
X0076720Y0080450D01*
X0076797Y0080628D01*
X0076877Y0080804D01*
X0076962Y0080977D01*
X0077051Y0081149D01*
X0077144Y0081318D01*
X0077241Y0081485D01*
X0077343Y0081650D01*
X0077448Y0081812D01*
X0077557Y0081971D01*
X0077671Y0082128D01*
X0077788Y0082281D01*
X0077908Y0082432D01*
X0078033Y0082580D01*
X0078161Y0082725D01*
X0078292Y0082866D01*
X0078427Y0083005D01*
X0078566Y0083140D01*
X0078707Y0083271D01*
X0078852Y0083399D01*
X0079000Y0083524D01*
X0079151Y0083644D01*
X0079304Y0083761D01*
X0079461Y0083875D01*
X0079620Y0083984D01*
X0079782Y0084089D01*
X0079947Y0084191D01*
X0080114Y0084288D01*
X0080283Y0084381D01*
X0080455Y0084470D01*
X0080628Y0084555D01*
X0080804Y0084635D01*
X0080982Y0084712D01*
X0081161Y0084783D01*
X0081342Y0084851D01*
X0081525Y0084914D01*
X0081709Y0084972D01*
X0081895Y0085026D01*
X0082082Y0085075D01*
X0082270Y0085120D01*
X0082459Y0085160D01*
X0082649Y0085195D01*
X0082840Y0085226D01*
X0083031Y0085252D01*
X0083223Y0085273D01*
X0083416Y0085290D01*
X0083609Y0085302D01*
X0083802Y0085309D01*
X0083995Y0085311D01*
X0084188Y0085309D01*
X0084381Y0085302D01*
X0084574Y0085290D01*
X0084767Y0085273D01*
X0084959Y0085252D01*
X0085150Y0085226D01*
X0085341Y0085195D01*
X0085531Y0085160D01*
X0085720Y0085120D01*
X0085908Y0085075D01*
X0086095Y0085026D01*
X0086281Y0084972D01*
X0086465Y0084914D01*
X0086648Y0084851D01*
X0086829Y0084783D01*
X0087008Y0084712D01*
X0087186Y0084635D01*
X0087362Y0084555D01*
X0087535Y0084470D01*
X0087707Y0084381D01*
X0087876Y0084288D01*
X0088043Y0084191D01*
X0088208Y0084089D01*
X0088370Y0083984D01*
X0088529Y0083875D01*
X0088686Y0083761D01*
X0088839Y0083644D01*
X0088990Y0083524D01*
X0089138Y0083399D01*
X0089283Y0083271D01*
X0089424Y0083140D01*
X0089563Y0083005D01*
X0089698Y0082866D01*
X0089829Y0082725D01*
X0089957Y0082580D01*
X0090082Y0082432D01*
X0090202Y0082281D01*
X0090319Y0082128D01*
X0090433Y0081971D01*
X0090542Y0081812D01*
X0090647Y0081650D01*
X0090749Y0081485D01*
X0090846Y0081318D01*
X0090939Y0081149D01*
X0091028Y0080977D01*
X0091113Y0080804D01*
X0091193Y0080628D01*
X0091270Y0080450D01*
X0091341Y0080271D01*
X0091409Y0080090D01*
X0091472Y0079907D01*
X0091530Y0079723D01*
X0091584Y0079537D01*
X0091633Y0079350D01*
X0091678Y0079162D01*
X0091718Y0078973D01*
X0091753Y0078783D01*
X0091784Y0078592D01*
X0091810Y0078401D01*
X0091831Y0078209D01*
X0091848Y0078016D01*
X0091860Y0077823D01*
X0091867Y0077630D01*
X0091869Y0077437D01*
X0091867Y0077244D01*
X0091860Y0077051D01*
X0091848Y0076858D01*
X0091831Y0076665D01*
X0091810Y0076473D01*
X0091784Y0076282D01*
X0091753Y0076091D01*
X0091718Y0075901D01*
X0091678Y0075712D01*
X0091633Y0075524D01*
X0091584Y0075337D01*
X0091530Y0075151D01*
X0091472Y0074967D01*
X0091409Y0074784D01*
X0091341Y0074603D01*
X0091270Y0074424D01*
X0091193Y0074246D01*
X0091113Y0074070D01*
X0091028Y0073897D01*
X0090939Y0073725D01*
X0090846Y0073556D01*
X0090749Y0073389D01*
X0090647Y0073224D01*
X0090542Y0073062D01*
X0090433Y0072903D01*
X0090319Y0072746D01*
X0090202Y0072593D01*
X0090082Y0072442D01*
X0089957Y0072294D01*
X0089829Y0072149D01*
X0089698Y0072008D01*
X0089563Y0071869D01*
X0089424Y0071734D01*
X0089283Y0071603D01*
X0089138Y0071475D01*
X0088990Y0071350D01*
X0088839Y0071230D01*
X0088686Y0071113D01*
X0088529Y0070999D01*
X0088370Y0070890D01*
X0088208Y0070785D01*
X0088043Y0070683D01*
X0087876Y0070586D01*
X0087707Y0070493D01*
X0087535Y0070404D01*
X0087362Y0070319D01*
X0087186Y0070239D01*
X0087008Y0070162D01*
X0086829Y0070091D01*
X0086648Y0070023D01*
X0086465Y0069960D01*
X0086281Y0069902D01*
X0086095Y0069848D01*
X0085908Y0069799D01*
X0085720Y0069754D01*
X0085531Y0069714D01*
X0085341Y0069679D01*
X0085150Y0069648D01*
X0084959Y0069622D01*
X0084767Y0069601D01*
X0084574Y0069584D01*
X0084381Y0069572D01*
X0084188Y0069565D01*
X0083995Y0069563D01*
X0083802Y0069565D01*
X0083609Y0069572D01*
X0083416Y0069584D01*
X0083223Y0069601D01*
X0083031Y0069622D01*
X0082840Y0069648D01*
X0082649Y0069679D01*
X0082459Y0069714D01*
X0082270Y0069754D01*
X0082082Y0069799D01*
X0081895Y0069848D01*
X0081709Y0069902D01*
X0081525Y0069960D01*
X0081342Y0070023D01*
X0081161Y0070091D01*
X0080982Y0070162D01*
X0080804Y0070239D01*
X0080628Y0070319D01*
X0080455Y0070404D01*
X0080283Y0070493D01*
X0080114Y0070586D01*
X0079947Y0070683D01*
X0079782Y0070785D01*
X0079620Y0070890D01*
X0079461Y0070999D01*
X0079304Y0071113D01*
X0079151Y0071230D01*
X0079000Y0071350D01*
X0078852Y0071475D01*
X0078707Y0071603D01*
X0078566Y0071734D01*
X0078427Y0071869D01*
X0078292Y0072008D01*
X0078161Y0072149D01*
X0078033Y0072294D01*
X0077908Y0072442D01*
X0077788Y0072593D01*
X0077671Y0072746D01*
X0077557Y0072903D01*
X0077448Y0073062D01*
X0077343Y0073224D01*
X0077241Y0073389D01*
X0077144Y0073556D01*
X0077051Y0073725D01*
X0076962Y0073897D01*
X0076877Y0074070D01*
X0076797Y0074246D01*
X0076720Y0074424D01*
X0076649Y0074603D01*
X0076581Y0074784D01*
X0076518Y0074967D01*
X0076460Y0075151D01*
X0076406Y0075337D01*
X0076357Y0075524D01*
X0076312Y0075712D01*
X0076272Y0075901D01*
X0076237Y0076091D01*
X0076206Y0076282D01*
X0076180Y0076473D01*
X0076159Y0076665D01*
X0076142Y0076858D01*
X0076130Y0077051D01*
X0076123Y0077244D01*
X0076121Y0077437D01*
X0103680Y0112870D02*
X0103680Y0136886D01*
X0103680Y0112870D02*
X0103685Y0112489D01*
X0103698Y0112109D01*
X0103721Y0111729D01*
X0103754Y0111350D01*
X0103795Y0110972D01*
X0103845Y0110595D01*
X0103905Y0110219D01*
X0103973Y0109844D01*
X0104051Y0109472D01*
X0104138Y0109101D01*
X0104233Y0108733D01*
X0104338Y0108367D01*
X0104451Y0108004D01*
X0104573Y0107643D01*
X0104703Y0107286D01*
X0104843Y0106932D01*
X0104990Y0106581D01*
X0105147Y0106234D01*
X0105311Y0105891D01*
X0105484Y0105552D01*
X0105665Y0105217D01*
X0105854Y0104886D01*
X0106051Y0104561D01*
X0106255Y0104240D01*
X0106468Y0103924D01*
X0106688Y0103614D01*
X0106915Y0103308D01*
X0107150Y0103009D01*
X0107392Y0102715D01*
X0107640Y0102427D01*
X0107896Y0102145D01*
X0108159Y0101870D01*
X0108428Y0101601D01*
X0108703Y0101338D01*
X0108985Y0101082D01*
X0109273Y0100834D01*
X0109567Y0100592D01*
X0109866Y0100357D01*
X0110172Y0100130D01*
X0110482Y0099910D01*
X0110798Y0099697D01*
X0111119Y0099493D01*
X0111444Y0099296D01*
X0111775Y0099107D01*
X0112110Y0098926D01*
X0112449Y0098753D01*
X0112792Y0098589D01*
X0113139Y0098432D01*
X0113490Y0098285D01*
X0113844Y0098145D01*
X0114201Y0098015D01*
X0114562Y0097893D01*
X0114925Y0097780D01*
X0115291Y0097675D01*
X0115659Y0097580D01*
X0116030Y0097493D01*
X0116402Y0097415D01*
X0116777Y0097347D01*
X0117153Y0097287D01*
X0117530Y0097237D01*
X0117908Y0097196D01*
X0118287Y0097163D01*
X0118667Y0097140D01*
X0119047Y0097127D01*
X0119428Y0097122D01*
X0143444Y0097122D01*
X0113129Y0112870D02*
X0113131Y0113028D01*
X0113137Y0113186D01*
X0113147Y0113344D01*
X0113161Y0113502D01*
X0113179Y0113659D01*
X0113200Y0113816D01*
X0113226Y0113972D01*
X0113256Y0114128D01*
X0113289Y0114283D01*
X0113327Y0114436D01*
X0113368Y0114589D01*
X0113413Y0114741D01*
X0113462Y0114892D01*
X0113515Y0115041D01*
X0113571Y0115189D01*
X0113631Y0115335D01*
X0113695Y0115480D01*
X0113763Y0115623D01*
X0113834Y0115765D01*
X0113908Y0115905D01*
X0113986Y0116042D01*
X0114068Y0116178D01*
X0114152Y0116312D01*
X0114241Y0116443D01*
X0114332Y0116572D01*
X0114427Y0116699D01*
X0114524Y0116824D01*
X0114625Y0116946D01*
X0114729Y0117065D01*
X0114836Y0117182D01*
X0114946Y0117296D01*
X0115059Y0117407D01*
X0115174Y0117516D01*
X0115292Y0117621D01*
X0115413Y0117723D01*
X0115536Y0117823D01*
X0115662Y0117919D01*
X0115790Y0118012D01*
X0115920Y0118102D01*
X0116053Y0118188D01*
X0116188Y0118272D01*
X0116324Y0118351D01*
X0116463Y0118428D01*
X0116604Y0118500D01*
X0116746Y0118570D01*
X0116890Y0118635D01*
X0117036Y0118697D01*
X0117183Y0118755D01*
X0117332Y0118810D01*
X0117482Y0118861D01*
X0117633Y0118908D01*
X0117785Y0118951D01*
X0117938Y0118990D01*
X0118093Y0119026D01*
X0118248Y0119057D01*
X0118404Y0119085D01*
X0118560Y0119109D01*
X0118717Y0119129D01*
X0118875Y0119145D01*
X0119032Y0119157D01*
X0119191Y0119165D01*
X0119349Y0119169D01*
X0119507Y0119169D01*
X0119665Y0119165D01*
X0119824Y0119157D01*
X0119981Y0119145D01*
X0120139Y0119129D01*
X0120296Y0119109D01*
X0120452Y0119085D01*
X0120608Y0119057D01*
X0120763Y0119026D01*
X0120918Y0118990D01*
X0121071Y0118951D01*
X0121223Y0118908D01*
X0121374Y0118861D01*
X0121524Y0118810D01*
X0121673Y0118755D01*
X0121820Y0118697D01*
X0121966Y0118635D01*
X0122110Y0118570D01*
X0122252Y0118500D01*
X0122393Y0118428D01*
X0122532Y0118351D01*
X0122668Y0118272D01*
X0122803Y0118188D01*
X0122936Y0118102D01*
X0123066Y0118012D01*
X0123194Y0117919D01*
X0123320Y0117823D01*
X0123443Y0117723D01*
X0123564Y0117621D01*
X0123682Y0117516D01*
X0123797Y0117407D01*
X0123910Y0117296D01*
X0124020Y0117182D01*
X0124127Y0117065D01*
X0124231Y0116946D01*
X0124332Y0116824D01*
X0124429Y0116699D01*
X0124524Y0116572D01*
X0124615Y0116443D01*
X0124704Y0116312D01*
X0124788Y0116178D01*
X0124870Y0116042D01*
X0124948Y0115905D01*
X0125022Y0115765D01*
X0125093Y0115623D01*
X0125161Y0115480D01*
X0125225Y0115335D01*
X0125285Y0115189D01*
X0125341Y0115041D01*
X0125394Y0114892D01*
X0125443Y0114741D01*
X0125488Y0114589D01*
X0125529Y0114436D01*
X0125567Y0114283D01*
X0125600Y0114128D01*
X0125630Y0113972D01*
X0125656Y0113816D01*
X0125677Y0113659D01*
X0125695Y0113502D01*
X0125709Y0113344D01*
X0125719Y0113186D01*
X0125725Y0113028D01*
X0125727Y0112870D01*
X0125725Y0112712D01*
X0125719Y0112554D01*
X0125709Y0112396D01*
X0125695Y0112238D01*
X0125677Y0112081D01*
X0125656Y0111924D01*
X0125630Y0111768D01*
X0125600Y0111612D01*
X0125567Y0111457D01*
X0125529Y0111304D01*
X0125488Y0111151D01*
X0125443Y0110999D01*
X0125394Y0110848D01*
X0125341Y0110699D01*
X0125285Y0110551D01*
X0125225Y0110405D01*
X0125161Y0110260D01*
X0125093Y0110117D01*
X0125022Y0109975D01*
X0124948Y0109835D01*
X0124870Y0109698D01*
X0124788Y0109562D01*
X0124704Y0109428D01*
X0124615Y0109297D01*
X0124524Y0109168D01*
X0124429Y0109041D01*
X0124332Y0108916D01*
X0124231Y0108794D01*
X0124127Y0108675D01*
X0124020Y0108558D01*
X0123910Y0108444D01*
X0123797Y0108333D01*
X0123682Y0108224D01*
X0123564Y0108119D01*
X0123443Y0108017D01*
X0123320Y0107917D01*
X0123194Y0107821D01*
X0123066Y0107728D01*
X0122936Y0107638D01*
X0122803Y0107552D01*
X0122668Y0107468D01*
X0122532Y0107389D01*
X0122393Y0107312D01*
X0122252Y0107240D01*
X0122110Y0107170D01*
X0121966Y0107105D01*
X0121820Y0107043D01*
X0121673Y0106985D01*
X0121524Y0106930D01*
X0121374Y0106879D01*
X0121223Y0106832D01*
X0121071Y0106789D01*
X0120918Y0106750D01*
X0120763Y0106714D01*
X0120608Y0106683D01*
X0120452Y0106655D01*
X0120296Y0106631D01*
X0120139Y0106611D01*
X0119981Y0106595D01*
X0119824Y0106583D01*
X0119665Y0106575D01*
X0119507Y0106571D01*
X0119349Y0106571D01*
X0119191Y0106575D01*
X0119032Y0106583D01*
X0118875Y0106595D01*
X0118717Y0106611D01*
X0118560Y0106631D01*
X0118404Y0106655D01*
X0118248Y0106683D01*
X0118093Y0106714D01*
X0117938Y0106750D01*
X0117785Y0106789D01*
X0117633Y0106832D01*
X0117482Y0106879D01*
X0117332Y0106930D01*
X0117183Y0106985D01*
X0117036Y0107043D01*
X0116890Y0107105D01*
X0116746Y0107170D01*
X0116604Y0107240D01*
X0116463Y0107312D01*
X0116324Y0107389D01*
X0116188Y0107468D01*
X0116053Y0107552D01*
X0115920Y0107638D01*
X0115790Y0107728D01*
X0115662Y0107821D01*
X0115536Y0107917D01*
X0115413Y0108017D01*
X0115292Y0108119D01*
X0115174Y0108224D01*
X0115059Y0108333D01*
X0114946Y0108444D01*
X0114836Y0108558D01*
X0114729Y0108675D01*
X0114625Y0108794D01*
X0114524Y0108916D01*
X0114427Y0109041D01*
X0114332Y0109168D01*
X0114241Y0109297D01*
X0114152Y0109428D01*
X0114068Y0109562D01*
X0113986Y0109698D01*
X0113908Y0109835D01*
X0113834Y0109975D01*
X0113763Y0110117D01*
X0113695Y0110260D01*
X0113631Y0110405D01*
X0113571Y0110551D01*
X0113515Y0110699D01*
X0113462Y0110848D01*
X0113413Y0110999D01*
X0113368Y0111151D01*
X0113327Y0111304D01*
X0113289Y0111457D01*
X0113256Y0111612D01*
X0113226Y0111768D01*
X0113200Y0111924D01*
X0113179Y0112081D01*
X0113161Y0112238D01*
X0113147Y0112396D01*
X0113137Y0112554D01*
X0113131Y0112712D01*
X0113129Y0112870D01*
X0103680Y0195154D02*
X0103680Y0219169D01*
X0103685Y0219550D01*
X0103698Y0219930D01*
X0103721Y0220310D01*
X0103754Y0220689D01*
X0103795Y0221067D01*
X0103845Y0221444D01*
X0103905Y0221820D01*
X0103973Y0222195D01*
X0104051Y0222567D01*
X0104138Y0222938D01*
X0104233Y0223306D01*
X0104338Y0223672D01*
X0104451Y0224035D01*
X0104573Y0224396D01*
X0104703Y0224753D01*
X0104843Y0225107D01*
X0104990Y0225458D01*
X0105147Y0225805D01*
X0105311Y0226148D01*
X0105484Y0226487D01*
X0105665Y0226822D01*
X0105854Y0227153D01*
X0106051Y0227478D01*
X0106255Y0227799D01*
X0106468Y0228115D01*
X0106688Y0228425D01*
X0106915Y0228731D01*
X0107150Y0229030D01*
X0107392Y0229324D01*
X0107640Y0229612D01*
X0107896Y0229894D01*
X0108159Y0230169D01*
X0108428Y0230438D01*
X0108703Y0230701D01*
X0108985Y0230957D01*
X0109273Y0231205D01*
X0109567Y0231447D01*
X0109866Y0231682D01*
X0110172Y0231909D01*
X0110482Y0232129D01*
X0110798Y0232342D01*
X0111119Y0232546D01*
X0111444Y0232743D01*
X0111775Y0232932D01*
X0112110Y0233113D01*
X0112449Y0233286D01*
X0112792Y0233450D01*
X0113139Y0233607D01*
X0113490Y0233754D01*
X0113844Y0233894D01*
X0114201Y0234024D01*
X0114562Y0234146D01*
X0114925Y0234259D01*
X0115291Y0234364D01*
X0115659Y0234459D01*
X0116030Y0234546D01*
X0116402Y0234624D01*
X0116777Y0234692D01*
X0117153Y0234752D01*
X0117530Y0234802D01*
X0117908Y0234843D01*
X0118287Y0234876D01*
X0118667Y0234899D01*
X0119047Y0234912D01*
X0119428Y0234917D01*
X0143444Y0234917D01*
X0113129Y0219169D02*
X0113131Y0219327D01*
X0113137Y0219485D01*
X0113147Y0219643D01*
X0113161Y0219801D01*
X0113179Y0219958D01*
X0113200Y0220115D01*
X0113226Y0220271D01*
X0113256Y0220427D01*
X0113289Y0220582D01*
X0113327Y0220735D01*
X0113368Y0220888D01*
X0113413Y0221040D01*
X0113462Y0221191D01*
X0113515Y0221340D01*
X0113571Y0221488D01*
X0113631Y0221634D01*
X0113695Y0221779D01*
X0113763Y0221922D01*
X0113834Y0222064D01*
X0113908Y0222204D01*
X0113986Y0222341D01*
X0114068Y0222477D01*
X0114152Y0222611D01*
X0114241Y0222742D01*
X0114332Y0222871D01*
X0114427Y0222998D01*
X0114524Y0223123D01*
X0114625Y0223245D01*
X0114729Y0223364D01*
X0114836Y0223481D01*
X0114946Y0223595D01*
X0115059Y0223706D01*
X0115174Y0223815D01*
X0115292Y0223920D01*
X0115413Y0224022D01*
X0115536Y0224122D01*
X0115662Y0224218D01*
X0115790Y0224311D01*
X0115920Y0224401D01*
X0116053Y0224487D01*
X0116188Y0224571D01*
X0116324Y0224650D01*
X0116463Y0224727D01*
X0116604Y0224799D01*
X0116746Y0224869D01*
X0116890Y0224934D01*
X0117036Y0224996D01*
X0117183Y0225054D01*
X0117332Y0225109D01*
X0117482Y0225160D01*
X0117633Y0225207D01*
X0117785Y0225250D01*
X0117938Y0225289D01*
X0118093Y0225325D01*
X0118248Y0225356D01*
X0118404Y0225384D01*
X0118560Y0225408D01*
X0118717Y0225428D01*
X0118875Y0225444D01*
X0119032Y0225456D01*
X0119191Y0225464D01*
X0119349Y0225468D01*
X0119507Y0225468D01*
X0119665Y0225464D01*
X0119824Y0225456D01*
X0119981Y0225444D01*
X0120139Y0225428D01*
X0120296Y0225408D01*
X0120452Y0225384D01*
X0120608Y0225356D01*
X0120763Y0225325D01*
X0120918Y0225289D01*
X0121071Y0225250D01*
X0121223Y0225207D01*
X0121374Y0225160D01*
X0121524Y0225109D01*
X0121673Y0225054D01*
X0121820Y0224996D01*
X0121966Y0224934D01*
X0122110Y0224869D01*
X0122252Y0224799D01*
X0122393Y0224727D01*
X0122532Y0224650D01*
X0122668Y0224571D01*
X0122803Y0224487D01*
X0122936Y0224401D01*
X0123066Y0224311D01*
X0123194Y0224218D01*
X0123320Y0224122D01*
X0123443Y0224022D01*
X0123564Y0223920D01*
X0123682Y0223815D01*
X0123797Y0223706D01*
X0123910Y0223595D01*
X0124020Y0223481D01*
X0124127Y0223364D01*
X0124231Y0223245D01*
X0124332Y0223123D01*
X0124429Y0222998D01*
X0124524Y0222871D01*
X0124615Y0222742D01*
X0124704Y0222611D01*
X0124788Y0222477D01*
X0124870Y0222341D01*
X0124948Y0222204D01*
X0125022Y0222064D01*
X0125093Y0221922D01*
X0125161Y0221779D01*
X0125225Y0221634D01*
X0125285Y0221488D01*
X0125341Y0221340D01*
X0125394Y0221191D01*
X0125443Y0221040D01*
X0125488Y0220888D01*
X0125529Y0220735D01*
X0125567Y0220582D01*
X0125600Y0220427D01*
X0125630Y0220271D01*
X0125656Y0220115D01*
X0125677Y0219958D01*
X0125695Y0219801D01*
X0125709Y0219643D01*
X0125719Y0219485D01*
X0125725Y0219327D01*
X0125727Y0219169D01*
X0125725Y0219011D01*
X0125719Y0218853D01*
X0125709Y0218695D01*
X0125695Y0218537D01*
X0125677Y0218380D01*
X0125656Y0218223D01*
X0125630Y0218067D01*
X0125600Y0217911D01*
X0125567Y0217756D01*
X0125529Y0217603D01*
X0125488Y0217450D01*
X0125443Y0217298D01*
X0125394Y0217147D01*
X0125341Y0216998D01*
X0125285Y0216850D01*
X0125225Y0216704D01*
X0125161Y0216559D01*
X0125093Y0216416D01*
X0125022Y0216274D01*
X0124948Y0216134D01*
X0124870Y0215997D01*
X0124788Y0215861D01*
X0124704Y0215727D01*
X0124615Y0215596D01*
X0124524Y0215467D01*
X0124429Y0215340D01*
X0124332Y0215215D01*
X0124231Y0215093D01*
X0124127Y0214974D01*
X0124020Y0214857D01*
X0123910Y0214743D01*
X0123797Y0214632D01*
X0123682Y0214523D01*
X0123564Y0214418D01*
X0123443Y0214316D01*
X0123320Y0214216D01*
X0123194Y0214120D01*
X0123066Y0214027D01*
X0122936Y0213937D01*
X0122803Y0213851D01*
X0122668Y0213767D01*
X0122532Y0213688D01*
X0122393Y0213611D01*
X0122252Y0213539D01*
X0122110Y0213469D01*
X0121966Y0213404D01*
X0121820Y0213342D01*
X0121673Y0213284D01*
X0121524Y0213229D01*
X0121374Y0213178D01*
X0121223Y0213131D01*
X0121071Y0213088D01*
X0120918Y0213049D01*
X0120763Y0213013D01*
X0120608Y0212982D01*
X0120452Y0212954D01*
X0120296Y0212930D01*
X0120139Y0212910D01*
X0119981Y0212894D01*
X0119824Y0212882D01*
X0119665Y0212874D01*
X0119507Y0212870D01*
X0119349Y0212870D01*
X0119191Y0212874D01*
X0119032Y0212882D01*
X0118875Y0212894D01*
X0118717Y0212910D01*
X0118560Y0212930D01*
X0118404Y0212954D01*
X0118248Y0212982D01*
X0118093Y0213013D01*
X0117938Y0213049D01*
X0117785Y0213088D01*
X0117633Y0213131D01*
X0117482Y0213178D01*
X0117332Y0213229D01*
X0117183Y0213284D01*
X0117036Y0213342D01*
X0116890Y0213404D01*
X0116746Y0213469D01*
X0116604Y0213539D01*
X0116463Y0213611D01*
X0116324Y0213688D01*
X0116188Y0213767D01*
X0116053Y0213851D01*
X0115920Y0213937D01*
X0115790Y0214027D01*
X0115662Y0214120D01*
X0115536Y0214216D01*
X0115413Y0214316D01*
X0115292Y0214418D01*
X0115174Y0214523D01*
X0115059Y0214632D01*
X0114946Y0214743D01*
X0114836Y0214857D01*
X0114729Y0214974D01*
X0114625Y0215093D01*
X0114524Y0215215D01*
X0114427Y0215340D01*
X0114332Y0215467D01*
X0114241Y0215596D01*
X0114152Y0215727D01*
X0114068Y0215861D01*
X0113986Y0215997D01*
X0113908Y0216134D01*
X0113834Y0216274D01*
X0113763Y0216416D01*
X0113695Y0216559D01*
X0113631Y0216704D01*
X0113571Y0216850D01*
X0113515Y0216998D01*
X0113462Y0217147D01*
X0113413Y0217298D01*
X0113368Y0217450D01*
X0113327Y0217603D01*
X0113289Y0217756D01*
X0113256Y0217911D01*
X0113226Y0218067D01*
X0113200Y0218223D01*
X0113179Y0218380D01*
X0113161Y0218537D01*
X0113147Y0218695D01*
X0113137Y0218853D01*
X0113131Y0219011D01*
X0113129Y0219169D01*
X0119428Y0274287D02*
X0143444Y0274287D01*
X0119428Y0274287D02*
X0119047Y0274292D01*
X0118667Y0274305D01*
X0118287Y0274328D01*
X0117908Y0274361D01*
X0117530Y0274402D01*
X0117153Y0274452D01*
X0116777Y0274512D01*
X0116402Y0274580D01*
X0116030Y0274658D01*
X0115659Y0274745D01*
X0115291Y0274840D01*
X0114925Y0274945D01*
X0114562Y0275058D01*
X0114201Y0275180D01*
X0113844Y0275310D01*
X0113490Y0275450D01*
X0113139Y0275597D01*
X0112792Y0275754D01*
X0112449Y0275918D01*
X0112110Y0276091D01*
X0111775Y0276272D01*
X0111444Y0276461D01*
X0111119Y0276658D01*
X0110798Y0276862D01*
X0110482Y0277075D01*
X0110172Y0277295D01*
X0109866Y0277522D01*
X0109567Y0277757D01*
X0109273Y0277999D01*
X0108985Y0278247D01*
X0108703Y0278503D01*
X0108428Y0278766D01*
X0108159Y0279035D01*
X0107896Y0279310D01*
X0107640Y0279592D01*
X0107392Y0279880D01*
X0107150Y0280174D01*
X0106915Y0280473D01*
X0106688Y0280779D01*
X0106468Y0281089D01*
X0106255Y0281405D01*
X0106051Y0281726D01*
X0105854Y0282051D01*
X0105665Y0282382D01*
X0105484Y0282717D01*
X0105311Y0283056D01*
X0105147Y0283399D01*
X0104990Y0283746D01*
X0104843Y0284097D01*
X0104703Y0284451D01*
X0104573Y0284808D01*
X0104451Y0285169D01*
X0104338Y0285532D01*
X0104233Y0285898D01*
X0104138Y0286266D01*
X0104051Y0286637D01*
X0103973Y0287009D01*
X0103905Y0287384D01*
X0103845Y0287760D01*
X0103795Y0288137D01*
X0103754Y0288515D01*
X0103721Y0288894D01*
X0103698Y0289274D01*
X0103685Y0289654D01*
X0103680Y0290035D01*
X0103680Y0314051D01*
X0113129Y0290035D02*
X0113131Y0290193D01*
X0113137Y0290351D01*
X0113147Y0290509D01*
X0113161Y0290667D01*
X0113179Y0290824D01*
X0113200Y0290981D01*
X0113226Y0291137D01*
X0113256Y0291293D01*
X0113289Y0291448D01*
X0113327Y0291601D01*
X0113368Y0291754D01*
X0113413Y0291906D01*
X0113462Y0292057D01*
X0113515Y0292206D01*
X0113571Y0292354D01*
X0113631Y0292500D01*
X0113695Y0292645D01*
X0113763Y0292788D01*
X0113834Y0292930D01*
X0113908Y0293070D01*
X0113986Y0293207D01*
X0114068Y0293343D01*
X0114152Y0293477D01*
X0114241Y0293608D01*
X0114332Y0293737D01*
X0114427Y0293864D01*
X0114524Y0293989D01*
X0114625Y0294111D01*
X0114729Y0294230D01*
X0114836Y0294347D01*
X0114946Y0294461D01*
X0115059Y0294572D01*
X0115174Y0294681D01*
X0115292Y0294786D01*
X0115413Y0294888D01*
X0115536Y0294988D01*
X0115662Y0295084D01*
X0115790Y0295177D01*
X0115920Y0295267D01*
X0116053Y0295353D01*
X0116188Y0295437D01*
X0116324Y0295516D01*
X0116463Y0295593D01*
X0116604Y0295665D01*
X0116746Y0295735D01*
X0116890Y0295800D01*
X0117036Y0295862D01*
X0117183Y0295920D01*
X0117332Y0295975D01*
X0117482Y0296026D01*
X0117633Y0296073D01*
X0117785Y0296116D01*
X0117938Y0296155D01*
X0118093Y0296191D01*
X0118248Y0296222D01*
X0118404Y0296250D01*
X0118560Y0296274D01*
X0118717Y0296294D01*
X0118875Y0296310D01*
X0119032Y0296322D01*
X0119191Y0296330D01*
X0119349Y0296334D01*
X0119507Y0296334D01*
X0119665Y0296330D01*
X0119824Y0296322D01*
X0119981Y0296310D01*
X0120139Y0296294D01*
X0120296Y0296274D01*
X0120452Y0296250D01*
X0120608Y0296222D01*
X0120763Y0296191D01*
X0120918Y0296155D01*
X0121071Y0296116D01*
X0121223Y0296073D01*
X0121374Y0296026D01*
X0121524Y0295975D01*
X0121673Y0295920D01*
X0121820Y0295862D01*
X0121966Y0295800D01*
X0122110Y0295735D01*
X0122252Y0295665D01*
X0122393Y0295593D01*
X0122532Y0295516D01*
X0122668Y0295437D01*
X0122803Y0295353D01*
X0122936Y0295267D01*
X0123066Y0295177D01*
X0123194Y0295084D01*
X0123320Y0294988D01*
X0123443Y0294888D01*
X0123564Y0294786D01*
X0123682Y0294681D01*
X0123797Y0294572D01*
X0123910Y0294461D01*
X0124020Y0294347D01*
X0124127Y0294230D01*
X0124231Y0294111D01*
X0124332Y0293989D01*
X0124429Y0293864D01*
X0124524Y0293737D01*
X0124615Y0293608D01*
X0124704Y0293477D01*
X0124788Y0293343D01*
X0124870Y0293207D01*
X0124948Y0293070D01*
X0125022Y0292930D01*
X0125093Y0292788D01*
X0125161Y0292645D01*
X0125225Y0292500D01*
X0125285Y0292354D01*
X0125341Y0292206D01*
X0125394Y0292057D01*
X0125443Y0291906D01*
X0125488Y0291754D01*
X0125529Y0291601D01*
X0125567Y0291448D01*
X0125600Y0291293D01*
X0125630Y0291137D01*
X0125656Y0290981D01*
X0125677Y0290824D01*
X0125695Y0290667D01*
X0125709Y0290509D01*
X0125719Y0290351D01*
X0125725Y0290193D01*
X0125727Y0290035D01*
X0125725Y0289877D01*
X0125719Y0289719D01*
X0125709Y0289561D01*
X0125695Y0289403D01*
X0125677Y0289246D01*
X0125656Y0289089D01*
X0125630Y0288933D01*
X0125600Y0288777D01*
X0125567Y0288622D01*
X0125529Y0288469D01*
X0125488Y0288316D01*
X0125443Y0288164D01*
X0125394Y0288013D01*
X0125341Y0287864D01*
X0125285Y0287716D01*
X0125225Y0287570D01*
X0125161Y0287425D01*
X0125093Y0287282D01*
X0125022Y0287140D01*
X0124948Y0287000D01*
X0124870Y0286863D01*
X0124788Y0286727D01*
X0124704Y0286593D01*
X0124615Y0286462D01*
X0124524Y0286333D01*
X0124429Y0286206D01*
X0124332Y0286081D01*
X0124231Y0285959D01*
X0124127Y0285840D01*
X0124020Y0285723D01*
X0123910Y0285609D01*
X0123797Y0285498D01*
X0123682Y0285389D01*
X0123564Y0285284D01*
X0123443Y0285182D01*
X0123320Y0285082D01*
X0123194Y0284986D01*
X0123066Y0284893D01*
X0122936Y0284803D01*
X0122803Y0284717D01*
X0122668Y0284633D01*
X0122532Y0284554D01*
X0122393Y0284477D01*
X0122252Y0284405D01*
X0122110Y0284335D01*
X0121966Y0284270D01*
X0121820Y0284208D01*
X0121673Y0284150D01*
X0121524Y0284095D01*
X0121374Y0284044D01*
X0121223Y0283997D01*
X0121071Y0283954D01*
X0120918Y0283915D01*
X0120763Y0283879D01*
X0120608Y0283848D01*
X0120452Y0283820D01*
X0120296Y0283796D01*
X0120139Y0283776D01*
X0119981Y0283760D01*
X0119824Y0283748D01*
X0119665Y0283740D01*
X0119507Y0283736D01*
X0119349Y0283736D01*
X0119191Y0283740D01*
X0119032Y0283748D01*
X0118875Y0283760D01*
X0118717Y0283776D01*
X0118560Y0283796D01*
X0118404Y0283820D01*
X0118248Y0283848D01*
X0118093Y0283879D01*
X0117938Y0283915D01*
X0117785Y0283954D01*
X0117633Y0283997D01*
X0117482Y0284044D01*
X0117332Y0284095D01*
X0117183Y0284150D01*
X0117036Y0284208D01*
X0116890Y0284270D01*
X0116746Y0284335D01*
X0116604Y0284405D01*
X0116463Y0284477D01*
X0116324Y0284554D01*
X0116188Y0284633D01*
X0116053Y0284717D01*
X0115920Y0284803D01*
X0115790Y0284893D01*
X0115662Y0284986D01*
X0115536Y0285082D01*
X0115413Y0285182D01*
X0115292Y0285284D01*
X0115174Y0285389D01*
X0115059Y0285498D01*
X0114946Y0285609D01*
X0114836Y0285723D01*
X0114729Y0285840D01*
X0114625Y0285959D01*
X0114524Y0286081D01*
X0114427Y0286206D01*
X0114332Y0286333D01*
X0114241Y0286462D01*
X0114152Y0286593D01*
X0114068Y0286727D01*
X0113986Y0286863D01*
X0113908Y0287000D01*
X0113834Y0287140D01*
X0113763Y0287282D01*
X0113695Y0287425D01*
X0113631Y0287570D01*
X0113571Y0287716D01*
X0113515Y0287864D01*
X0113462Y0288013D01*
X0113413Y0288164D01*
X0113368Y0288316D01*
X0113327Y0288469D01*
X0113289Y0288622D01*
X0113256Y0288777D01*
X0113226Y0288933D01*
X0113200Y0289089D01*
X0113179Y0289246D01*
X0113161Y0289403D01*
X0113147Y0289561D01*
X0113137Y0289719D01*
X0113131Y0289877D01*
X0113129Y0290035D01*
X0103680Y0372319D02*
X0103680Y0396335D01*
X0103685Y0396716D01*
X0103698Y0397096D01*
X0103721Y0397476D01*
X0103754Y0397855D01*
X0103795Y0398233D01*
X0103845Y0398610D01*
X0103905Y0398986D01*
X0103973Y0399361D01*
X0104051Y0399733D01*
X0104138Y0400104D01*
X0104233Y0400472D01*
X0104338Y0400838D01*
X0104451Y0401201D01*
X0104573Y0401562D01*
X0104703Y0401919D01*
X0104843Y0402273D01*
X0104990Y0402624D01*
X0105147Y0402971D01*
X0105311Y0403314D01*
X0105484Y0403653D01*
X0105665Y0403988D01*
X0105854Y0404319D01*
X0106051Y0404644D01*
X0106255Y0404965D01*
X0106468Y0405281D01*
X0106688Y0405591D01*
X0106915Y0405897D01*
X0107150Y0406196D01*
X0107392Y0406490D01*
X0107640Y0406778D01*
X0107896Y0407060D01*
X0108159Y0407335D01*
X0108428Y0407604D01*
X0108703Y0407867D01*
X0108985Y0408123D01*
X0109273Y0408371D01*
X0109567Y0408613D01*
X0109866Y0408848D01*
X0110172Y0409075D01*
X0110482Y0409295D01*
X0110798Y0409508D01*
X0111119Y0409712D01*
X0111444Y0409909D01*
X0111775Y0410098D01*
X0112110Y0410279D01*
X0112449Y0410452D01*
X0112792Y0410616D01*
X0113139Y0410773D01*
X0113490Y0410920D01*
X0113844Y0411060D01*
X0114201Y0411190D01*
X0114562Y0411312D01*
X0114925Y0411425D01*
X0115291Y0411530D01*
X0115659Y0411625D01*
X0116030Y0411712D01*
X0116402Y0411790D01*
X0116777Y0411858D01*
X0117153Y0411918D01*
X0117530Y0411968D01*
X0117908Y0412009D01*
X0118287Y0412042D01*
X0118667Y0412065D01*
X0119047Y0412078D01*
X0119428Y0412083D01*
X0143444Y0412083D01*
X0113129Y0396335D02*
X0113131Y0396493D01*
X0113137Y0396651D01*
X0113147Y0396809D01*
X0113161Y0396967D01*
X0113179Y0397124D01*
X0113200Y0397281D01*
X0113226Y0397437D01*
X0113256Y0397593D01*
X0113289Y0397748D01*
X0113327Y0397901D01*
X0113368Y0398054D01*
X0113413Y0398206D01*
X0113462Y0398357D01*
X0113515Y0398506D01*
X0113571Y0398654D01*
X0113631Y0398800D01*
X0113695Y0398945D01*
X0113763Y0399088D01*
X0113834Y0399230D01*
X0113908Y0399370D01*
X0113986Y0399507D01*
X0114068Y0399643D01*
X0114152Y0399777D01*
X0114241Y0399908D01*
X0114332Y0400037D01*
X0114427Y0400164D01*
X0114524Y0400289D01*
X0114625Y0400411D01*
X0114729Y0400530D01*
X0114836Y0400647D01*
X0114946Y0400761D01*
X0115059Y0400872D01*
X0115174Y0400981D01*
X0115292Y0401086D01*
X0115413Y0401188D01*
X0115536Y0401288D01*
X0115662Y0401384D01*
X0115790Y0401477D01*
X0115920Y0401567D01*
X0116053Y0401653D01*
X0116188Y0401737D01*
X0116324Y0401816D01*
X0116463Y0401893D01*
X0116604Y0401965D01*
X0116746Y0402035D01*
X0116890Y0402100D01*
X0117036Y0402162D01*
X0117183Y0402220D01*
X0117332Y0402275D01*
X0117482Y0402326D01*
X0117633Y0402373D01*
X0117785Y0402416D01*
X0117938Y0402455D01*
X0118093Y0402491D01*
X0118248Y0402522D01*
X0118404Y0402550D01*
X0118560Y0402574D01*
X0118717Y0402594D01*
X0118875Y0402610D01*
X0119032Y0402622D01*
X0119191Y0402630D01*
X0119349Y0402634D01*
X0119507Y0402634D01*
X0119665Y0402630D01*
X0119824Y0402622D01*
X0119981Y0402610D01*
X0120139Y0402594D01*
X0120296Y0402574D01*
X0120452Y0402550D01*
X0120608Y0402522D01*
X0120763Y0402491D01*
X0120918Y0402455D01*
X0121071Y0402416D01*
X0121223Y0402373D01*
X0121374Y0402326D01*
X0121524Y0402275D01*
X0121673Y0402220D01*
X0121820Y0402162D01*
X0121966Y0402100D01*
X0122110Y0402035D01*
X0122252Y0401965D01*
X0122393Y0401893D01*
X0122532Y0401816D01*
X0122668Y0401737D01*
X0122803Y0401653D01*
X0122936Y0401567D01*
X0123066Y0401477D01*
X0123194Y0401384D01*
X0123320Y0401288D01*
X0123443Y0401188D01*
X0123564Y0401086D01*
X0123682Y0400981D01*
X0123797Y0400872D01*
X0123910Y0400761D01*
X0124020Y0400647D01*
X0124127Y0400530D01*
X0124231Y0400411D01*
X0124332Y0400289D01*
X0124429Y0400164D01*
X0124524Y0400037D01*
X0124615Y0399908D01*
X0124704Y0399777D01*
X0124788Y0399643D01*
X0124870Y0399507D01*
X0124948Y0399370D01*
X0125022Y0399230D01*
X0125093Y0399088D01*
X0125161Y0398945D01*
X0125225Y0398800D01*
X0125285Y0398654D01*
X0125341Y0398506D01*
X0125394Y0398357D01*
X0125443Y0398206D01*
X0125488Y0398054D01*
X0125529Y0397901D01*
X0125567Y0397748D01*
X0125600Y0397593D01*
X0125630Y0397437D01*
X0125656Y0397281D01*
X0125677Y0397124D01*
X0125695Y0396967D01*
X0125709Y0396809D01*
X0125719Y0396651D01*
X0125725Y0396493D01*
X0125727Y0396335D01*
X0125725Y0396177D01*
X0125719Y0396019D01*
X0125709Y0395861D01*
X0125695Y0395703D01*
X0125677Y0395546D01*
X0125656Y0395389D01*
X0125630Y0395233D01*
X0125600Y0395077D01*
X0125567Y0394922D01*
X0125529Y0394769D01*
X0125488Y0394616D01*
X0125443Y0394464D01*
X0125394Y0394313D01*
X0125341Y0394164D01*
X0125285Y0394016D01*
X0125225Y0393870D01*
X0125161Y0393725D01*
X0125093Y0393582D01*
X0125022Y0393440D01*
X0124948Y0393300D01*
X0124870Y0393163D01*
X0124788Y0393027D01*
X0124704Y0392893D01*
X0124615Y0392762D01*
X0124524Y0392633D01*
X0124429Y0392506D01*
X0124332Y0392381D01*
X0124231Y0392259D01*
X0124127Y0392140D01*
X0124020Y0392023D01*
X0123910Y0391909D01*
X0123797Y0391798D01*
X0123682Y0391689D01*
X0123564Y0391584D01*
X0123443Y0391482D01*
X0123320Y0391382D01*
X0123194Y0391286D01*
X0123066Y0391193D01*
X0122936Y0391103D01*
X0122803Y0391017D01*
X0122668Y0390933D01*
X0122532Y0390854D01*
X0122393Y0390777D01*
X0122252Y0390705D01*
X0122110Y0390635D01*
X0121966Y0390570D01*
X0121820Y0390508D01*
X0121673Y0390450D01*
X0121524Y0390395D01*
X0121374Y0390344D01*
X0121223Y0390297D01*
X0121071Y0390254D01*
X0120918Y0390215D01*
X0120763Y0390179D01*
X0120608Y0390148D01*
X0120452Y0390120D01*
X0120296Y0390096D01*
X0120139Y0390076D01*
X0119981Y0390060D01*
X0119824Y0390048D01*
X0119665Y0390040D01*
X0119507Y0390036D01*
X0119349Y0390036D01*
X0119191Y0390040D01*
X0119032Y0390048D01*
X0118875Y0390060D01*
X0118717Y0390076D01*
X0118560Y0390096D01*
X0118404Y0390120D01*
X0118248Y0390148D01*
X0118093Y0390179D01*
X0117938Y0390215D01*
X0117785Y0390254D01*
X0117633Y0390297D01*
X0117482Y0390344D01*
X0117332Y0390395D01*
X0117183Y0390450D01*
X0117036Y0390508D01*
X0116890Y0390570D01*
X0116746Y0390635D01*
X0116604Y0390705D01*
X0116463Y0390777D01*
X0116324Y0390854D01*
X0116188Y0390933D01*
X0116053Y0391017D01*
X0115920Y0391103D01*
X0115790Y0391193D01*
X0115662Y0391286D01*
X0115536Y0391382D01*
X0115413Y0391482D01*
X0115292Y0391584D01*
X0115174Y0391689D01*
X0115059Y0391798D01*
X0114946Y0391909D01*
X0114836Y0392023D01*
X0114729Y0392140D01*
X0114625Y0392259D01*
X0114524Y0392381D01*
X0114427Y0392506D01*
X0114332Y0392633D01*
X0114241Y0392762D01*
X0114152Y0392893D01*
X0114068Y0393027D01*
X0113986Y0393163D01*
X0113908Y0393300D01*
X0113834Y0393440D01*
X0113763Y0393582D01*
X0113695Y0393725D01*
X0113631Y0393870D01*
X0113571Y0394016D01*
X0113515Y0394164D01*
X0113462Y0394313D01*
X0113413Y0394464D01*
X0113368Y0394616D01*
X0113327Y0394769D01*
X0113289Y0394922D01*
X0113256Y0395077D01*
X0113226Y0395233D01*
X0113200Y0395389D01*
X0113179Y0395546D01*
X0113161Y0395703D01*
X0113147Y0395861D01*
X0113137Y0396019D01*
X0113131Y0396177D01*
X0113129Y0396335D01*
X0076121Y0431768D02*
X0076123Y0431961D01*
X0076130Y0432154D01*
X0076142Y0432347D01*
X0076159Y0432540D01*
X0076180Y0432732D01*
X0076206Y0432923D01*
X0076237Y0433114D01*
X0076272Y0433304D01*
X0076312Y0433493D01*
X0076357Y0433681D01*
X0076406Y0433868D01*
X0076460Y0434054D01*
X0076518Y0434238D01*
X0076581Y0434421D01*
X0076649Y0434602D01*
X0076720Y0434781D01*
X0076797Y0434959D01*
X0076877Y0435135D01*
X0076962Y0435308D01*
X0077051Y0435480D01*
X0077144Y0435649D01*
X0077241Y0435816D01*
X0077343Y0435981D01*
X0077448Y0436143D01*
X0077557Y0436302D01*
X0077671Y0436459D01*
X0077788Y0436612D01*
X0077908Y0436763D01*
X0078033Y0436911D01*
X0078161Y0437056D01*
X0078292Y0437197D01*
X0078427Y0437336D01*
X0078566Y0437471D01*
X0078707Y0437602D01*
X0078852Y0437730D01*
X0079000Y0437855D01*
X0079151Y0437975D01*
X0079304Y0438092D01*
X0079461Y0438206D01*
X0079620Y0438315D01*
X0079782Y0438420D01*
X0079947Y0438522D01*
X0080114Y0438619D01*
X0080283Y0438712D01*
X0080455Y0438801D01*
X0080628Y0438886D01*
X0080804Y0438966D01*
X0080982Y0439043D01*
X0081161Y0439114D01*
X0081342Y0439182D01*
X0081525Y0439245D01*
X0081709Y0439303D01*
X0081895Y0439357D01*
X0082082Y0439406D01*
X0082270Y0439451D01*
X0082459Y0439491D01*
X0082649Y0439526D01*
X0082840Y0439557D01*
X0083031Y0439583D01*
X0083223Y0439604D01*
X0083416Y0439621D01*
X0083609Y0439633D01*
X0083802Y0439640D01*
X0083995Y0439642D01*
X0084188Y0439640D01*
X0084381Y0439633D01*
X0084574Y0439621D01*
X0084767Y0439604D01*
X0084959Y0439583D01*
X0085150Y0439557D01*
X0085341Y0439526D01*
X0085531Y0439491D01*
X0085720Y0439451D01*
X0085908Y0439406D01*
X0086095Y0439357D01*
X0086281Y0439303D01*
X0086465Y0439245D01*
X0086648Y0439182D01*
X0086829Y0439114D01*
X0087008Y0439043D01*
X0087186Y0438966D01*
X0087362Y0438886D01*
X0087535Y0438801D01*
X0087707Y0438712D01*
X0087876Y0438619D01*
X0088043Y0438522D01*
X0088208Y0438420D01*
X0088370Y0438315D01*
X0088529Y0438206D01*
X0088686Y0438092D01*
X0088839Y0437975D01*
X0088990Y0437855D01*
X0089138Y0437730D01*
X0089283Y0437602D01*
X0089424Y0437471D01*
X0089563Y0437336D01*
X0089698Y0437197D01*
X0089829Y0437056D01*
X0089957Y0436911D01*
X0090082Y0436763D01*
X0090202Y0436612D01*
X0090319Y0436459D01*
X0090433Y0436302D01*
X0090542Y0436143D01*
X0090647Y0435981D01*
X0090749Y0435816D01*
X0090846Y0435649D01*
X0090939Y0435480D01*
X0091028Y0435308D01*
X0091113Y0435135D01*
X0091193Y0434959D01*
X0091270Y0434781D01*
X0091341Y0434602D01*
X0091409Y0434421D01*
X0091472Y0434238D01*
X0091530Y0434054D01*
X0091584Y0433868D01*
X0091633Y0433681D01*
X0091678Y0433493D01*
X0091718Y0433304D01*
X0091753Y0433114D01*
X0091784Y0432923D01*
X0091810Y0432732D01*
X0091831Y0432540D01*
X0091848Y0432347D01*
X0091860Y0432154D01*
X0091867Y0431961D01*
X0091869Y0431768D01*
X0091867Y0431575D01*
X0091860Y0431382D01*
X0091848Y0431189D01*
X0091831Y0430996D01*
X0091810Y0430804D01*
X0091784Y0430613D01*
X0091753Y0430422D01*
X0091718Y0430232D01*
X0091678Y0430043D01*
X0091633Y0429855D01*
X0091584Y0429668D01*
X0091530Y0429482D01*
X0091472Y0429298D01*
X0091409Y0429115D01*
X0091341Y0428934D01*
X0091270Y0428755D01*
X0091193Y0428577D01*
X0091113Y0428401D01*
X0091028Y0428228D01*
X0090939Y0428056D01*
X0090846Y0427887D01*
X0090749Y0427720D01*
X0090647Y0427555D01*
X0090542Y0427393D01*
X0090433Y0427234D01*
X0090319Y0427077D01*
X0090202Y0426924D01*
X0090082Y0426773D01*
X0089957Y0426625D01*
X0089829Y0426480D01*
X0089698Y0426339D01*
X0089563Y0426200D01*
X0089424Y0426065D01*
X0089283Y0425934D01*
X0089138Y0425806D01*
X0088990Y0425681D01*
X0088839Y0425561D01*
X0088686Y0425444D01*
X0088529Y0425330D01*
X0088370Y0425221D01*
X0088208Y0425116D01*
X0088043Y0425014D01*
X0087876Y0424917D01*
X0087707Y0424824D01*
X0087535Y0424735D01*
X0087362Y0424650D01*
X0087186Y0424570D01*
X0087008Y0424493D01*
X0086829Y0424422D01*
X0086648Y0424354D01*
X0086465Y0424291D01*
X0086281Y0424233D01*
X0086095Y0424179D01*
X0085908Y0424130D01*
X0085720Y0424085D01*
X0085531Y0424045D01*
X0085341Y0424010D01*
X0085150Y0423979D01*
X0084959Y0423953D01*
X0084767Y0423932D01*
X0084574Y0423915D01*
X0084381Y0423903D01*
X0084188Y0423896D01*
X0083995Y0423894D01*
X0083802Y0423896D01*
X0083609Y0423903D01*
X0083416Y0423915D01*
X0083223Y0423932D01*
X0083031Y0423953D01*
X0082840Y0423979D01*
X0082649Y0424010D01*
X0082459Y0424045D01*
X0082270Y0424085D01*
X0082082Y0424130D01*
X0081895Y0424179D01*
X0081709Y0424233D01*
X0081525Y0424291D01*
X0081342Y0424354D01*
X0081161Y0424422D01*
X0080982Y0424493D01*
X0080804Y0424570D01*
X0080628Y0424650D01*
X0080455Y0424735D01*
X0080283Y0424824D01*
X0080114Y0424917D01*
X0079947Y0425014D01*
X0079782Y0425116D01*
X0079620Y0425221D01*
X0079461Y0425330D01*
X0079304Y0425444D01*
X0079151Y0425561D01*
X0079000Y0425681D01*
X0078852Y0425806D01*
X0078707Y0425934D01*
X0078566Y0426065D01*
X0078427Y0426200D01*
X0078292Y0426339D01*
X0078161Y0426480D01*
X0078033Y0426625D01*
X0077908Y0426773D01*
X0077788Y0426924D01*
X0077671Y0427077D01*
X0077557Y0427234D01*
X0077448Y0427393D01*
X0077343Y0427555D01*
X0077241Y0427720D01*
X0077144Y0427887D01*
X0077051Y0428056D01*
X0076962Y0428228D01*
X0076877Y0428401D01*
X0076797Y0428577D01*
X0076720Y0428755D01*
X0076649Y0428934D01*
X0076581Y0429115D01*
X0076518Y0429298D01*
X0076460Y0429482D01*
X0076406Y0429668D01*
X0076357Y0429855D01*
X0076312Y0430043D01*
X0076272Y0430232D01*
X0076237Y0430422D01*
X0076206Y0430613D01*
X0076180Y0430804D01*
X0076159Y0430996D01*
X0076142Y0431189D01*
X0076130Y0431382D01*
X0076123Y0431575D01*
X0076121Y0431768D01*
X0221397Y0412083D02*
X0245413Y0412083D01*
X0245794Y0412078D01*
X0246174Y0412065D01*
X0246554Y0412042D01*
X0246933Y0412009D01*
X0247311Y0411968D01*
X0247688Y0411918D01*
X0248064Y0411858D01*
X0248439Y0411790D01*
X0248811Y0411712D01*
X0249182Y0411625D01*
X0249550Y0411530D01*
X0249916Y0411425D01*
X0250279Y0411312D01*
X0250640Y0411190D01*
X0250997Y0411060D01*
X0251351Y0410920D01*
X0251702Y0410773D01*
X0252049Y0410616D01*
X0252392Y0410452D01*
X0252731Y0410279D01*
X0253066Y0410098D01*
X0253397Y0409909D01*
X0253722Y0409712D01*
X0254043Y0409508D01*
X0254359Y0409295D01*
X0254669Y0409075D01*
X0254975Y0408848D01*
X0255274Y0408613D01*
X0255568Y0408371D01*
X0255856Y0408123D01*
X0256138Y0407867D01*
X0256413Y0407604D01*
X0256682Y0407335D01*
X0256945Y0407060D01*
X0257201Y0406778D01*
X0257449Y0406490D01*
X0257691Y0406196D01*
X0257926Y0405897D01*
X0258153Y0405591D01*
X0258373Y0405281D01*
X0258586Y0404965D01*
X0258790Y0404644D01*
X0258987Y0404319D01*
X0259176Y0403988D01*
X0259357Y0403653D01*
X0259530Y0403314D01*
X0259694Y0402971D01*
X0259851Y0402624D01*
X0259998Y0402273D01*
X0260138Y0401919D01*
X0260268Y0401562D01*
X0260390Y0401201D01*
X0260503Y0400838D01*
X0260608Y0400472D01*
X0260703Y0400104D01*
X0260790Y0399733D01*
X0260868Y0399361D01*
X0260936Y0398986D01*
X0260996Y0398610D01*
X0261046Y0398233D01*
X0261087Y0397855D01*
X0261120Y0397476D01*
X0261143Y0397096D01*
X0261156Y0396716D01*
X0261161Y0396335D01*
X0261161Y0372319D01*
X0239114Y0396335D02*
X0239116Y0396493D01*
X0239122Y0396651D01*
X0239132Y0396809D01*
X0239146Y0396967D01*
X0239164Y0397124D01*
X0239185Y0397281D01*
X0239211Y0397437D01*
X0239241Y0397593D01*
X0239274Y0397748D01*
X0239312Y0397901D01*
X0239353Y0398054D01*
X0239398Y0398206D01*
X0239447Y0398357D01*
X0239500Y0398506D01*
X0239556Y0398654D01*
X0239616Y0398800D01*
X0239680Y0398945D01*
X0239748Y0399088D01*
X0239819Y0399230D01*
X0239893Y0399370D01*
X0239971Y0399507D01*
X0240053Y0399643D01*
X0240137Y0399777D01*
X0240226Y0399908D01*
X0240317Y0400037D01*
X0240412Y0400164D01*
X0240509Y0400289D01*
X0240610Y0400411D01*
X0240714Y0400530D01*
X0240821Y0400647D01*
X0240931Y0400761D01*
X0241044Y0400872D01*
X0241159Y0400981D01*
X0241277Y0401086D01*
X0241398Y0401188D01*
X0241521Y0401288D01*
X0241647Y0401384D01*
X0241775Y0401477D01*
X0241905Y0401567D01*
X0242038Y0401653D01*
X0242173Y0401737D01*
X0242309Y0401816D01*
X0242448Y0401893D01*
X0242589Y0401965D01*
X0242731Y0402035D01*
X0242875Y0402100D01*
X0243021Y0402162D01*
X0243168Y0402220D01*
X0243317Y0402275D01*
X0243467Y0402326D01*
X0243618Y0402373D01*
X0243770Y0402416D01*
X0243923Y0402455D01*
X0244078Y0402491D01*
X0244233Y0402522D01*
X0244389Y0402550D01*
X0244545Y0402574D01*
X0244702Y0402594D01*
X0244860Y0402610D01*
X0245017Y0402622D01*
X0245176Y0402630D01*
X0245334Y0402634D01*
X0245492Y0402634D01*
X0245650Y0402630D01*
X0245809Y0402622D01*
X0245966Y0402610D01*
X0246124Y0402594D01*
X0246281Y0402574D01*
X0246437Y0402550D01*
X0246593Y0402522D01*
X0246748Y0402491D01*
X0246903Y0402455D01*
X0247056Y0402416D01*
X0247208Y0402373D01*
X0247359Y0402326D01*
X0247509Y0402275D01*
X0247658Y0402220D01*
X0247805Y0402162D01*
X0247951Y0402100D01*
X0248095Y0402035D01*
X0248237Y0401965D01*
X0248378Y0401893D01*
X0248517Y0401816D01*
X0248653Y0401737D01*
X0248788Y0401653D01*
X0248921Y0401567D01*
X0249051Y0401477D01*
X0249179Y0401384D01*
X0249305Y0401288D01*
X0249428Y0401188D01*
X0249549Y0401086D01*
X0249667Y0400981D01*
X0249782Y0400872D01*
X0249895Y0400761D01*
X0250005Y0400647D01*
X0250112Y0400530D01*
X0250216Y0400411D01*
X0250317Y0400289D01*
X0250414Y0400164D01*
X0250509Y0400037D01*
X0250600Y0399908D01*
X0250689Y0399777D01*
X0250773Y0399643D01*
X0250855Y0399507D01*
X0250933Y0399370D01*
X0251007Y0399230D01*
X0251078Y0399088D01*
X0251146Y0398945D01*
X0251210Y0398800D01*
X0251270Y0398654D01*
X0251326Y0398506D01*
X0251379Y0398357D01*
X0251428Y0398206D01*
X0251473Y0398054D01*
X0251514Y0397901D01*
X0251552Y0397748D01*
X0251585Y0397593D01*
X0251615Y0397437D01*
X0251641Y0397281D01*
X0251662Y0397124D01*
X0251680Y0396967D01*
X0251694Y0396809D01*
X0251704Y0396651D01*
X0251710Y0396493D01*
X0251712Y0396335D01*
X0251710Y0396177D01*
X0251704Y0396019D01*
X0251694Y0395861D01*
X0251680Y0395703D01*
X0251662Y0395546D01*
X0251641Y0395389D01*
X0251615Y0395233D01*
X0251585Y0395077D01*
X0251552Y0394922D01*
X0251514Y0394769D01*
X0251473Y0394616D01*
X0251428Y0394464D01*
X0251379Y0394313D01*
X0251326Y0394164D01*
X0251270Y0394016D01*
X0251210Y0393870D01*
X0251146Y0393725D01*
X0251078Y0393582D01*
X0251007Y0393440D01*
X0250933Y0393300D01*
X0250855Y0393163D01*
X0250773Y0393027D01*
X0250689Y0392893D01*
X0250600Y0392762D01*
X0250509Y0392633D01*
X0250414Y0392506D01*
X0250317Y0392381D01*
X0250216Y0392259D01*
X0250112Y0392140D01*
X0250005Y0392023D01*
X0249895Y0391909D01*
X0249782Y0391798D01*
X0249667Y0391689D01*
X0249549Y0391584D01*
X0249428Y0391482D01*
X0249305Y0391382D01*
X0249179Y0391286D01*
X0249051Y0391193D01*
X0248921Y0391103D01*
X0248788Y0391017D01*
X0248653Y0390933D01*
X0248517Y0390854D01*
X0248378Y0390777D01*
X0248237Y0390705D01*
X0248095Y0390635D01*
X0247951Y0390570D01*
X0247805Y0390508D01*
X0247658Y0390450D01*
X0247509Y0390395D01*
X0247359Y0390344D01*
X0247208Y0390297D01*
X0247056Y0390254D01*
X0246903Y0390215D01*
X0246748Y0390179D01*
X0246593Y0390148D01*
X0246437Y0390120D01*
X0246281Y0390096D01*
X0246124Y0390076D01*
X0245966Y0390060D01*
X0245809Y0390048D01*
X0245650Y0390040D01*
X0245492Y0390036D01*
X0245334Y0390036D01*
X0245176Y0390040D01*
X0245017Y0390048D01*
X0244860Y0390060D01*
X0244702Y0390076D01*
X0244545Y0390096D01*
X0244389Y0390120D01*
X0244233Y0390148D01*
X0244078Y0390179D01*
X0243923Y0390215D01*
X0243770Y0390254D01*
X0243618Y0390297D01*
X0243467Y0390344D01*
X0243317Y0390395D01*
X0243168Y0390450D01*
X0243021Y0390508D01*
X0242875Y0390570D01*
X0242731Y0390635D01*
X0242589Y0390705D01*
X0242448Y0390777D01*
X0242309Y0390854D01*
X0242173Y0390933D01*
X0242038Y0391017D01*
X0241905Y0391103D01*
X0241775Y0391193D01*
X0241647Y0391286D01*
X0241521Y0391382D01*
X0241398Y0391482D01*
X0241277Y0391584D01*
X0241159Y0391689D01*
X0241044Y0391798D01*
X0240931Y0391909D01*
X0240821Y0392023D01*
X0240714Y0392140D01*
X0240610Y0392259D01*
X0240509Y0392381D01*
X0240412Y0392506D01*
X0240317Y0392633D01*
X0240226Y0392762D01*
X0240137Y0392893D01*
X0240053Y0393027D01*
X0239971Y0393163D01*
X0239893Y0393300D01*
X0239819Y0393440D01*
X0239748Y0393582D01*
X0239680Y0393725D01*
X0239616Y0393870D01*
X0239556Y0394016D01*
X0239500Y0394164D01*
X0239447Y0394313D01*
X0239398Y0394464D01*
X0239353Y0394616D01*
X0239312Y0394769D01*
X0239274Y0394922D01*
X0239241Y0395077D01*
X0239211Y0395233D01*
X0239185Y0395389D01*
X0239164Y0395546D01*
X0239146Y0395703D01*
X0239132Y0395861D01*
X0239122Y0396019D01*
X0239116Y0396177D01*
X0239114Y0396335D01*
X0300531Y0396335D02*
X0300531Y0372319D01*
X0300531Y0396335D02*
X0300536Y0396716D01*
X0300549Y0397096D01*
X0300572Y0397476D01*
X0300605Y0397855D01*
X0300646Y0398233D01*
X0300696Y0398610D01*
X0300756Y0398986D01*
X0300824Y0399361D01*
X0300902Y0399733D01*
X0300989Y0400104D01*
X0301084Y0400472D01*
X0301189Y0400838D01*
X0301302Y0401201D01*
X0301424Y0401562D01*
X0301554Y0401919D01*
X0301694Y0402273D01*
X0301841Y0402624D01*
X0301998Y0402971D01*
X0302162Y0403314D01*
X0302335Y0403653D01*
X0302516Y0403988D01*
X0302705Y0404319D01*
X0302902Y0404644D01*
X0303106Y0404965D01*
X0303319Y0405281D01*
X0303539Y0405591D01*
X0303766Y0405897D01*
X0304001Y0406196D01*
X0304243Y0406490D01*
X0304491Y0406778D01*
X0304747Y0407060D01*
X0305010Y0407335D01*
X0305279Y0407604D01*
X0305554Y0407867D01*
X0305836Y0408123D01*
X0306124Y0408371D01*
X0306418Y0408613D01*
X0306717Y0408848D01*
X0307023Y0409075D01*
X0307333Y0409295D01*
X0307649Y0409508D01*
X0307970Y0409712D01*
X0308295Y0409909D01*
X0308626Y0410098D01*
X0308961Y0410279D01*
X0309300Y0410452D01*
X0309643Y0410616D01*
X0309990Y0410773D01*
X0310341Y0410920D01*
X0310695Y0411060D01*
X0311052Y0411190D01*
X0311413Y0411312D01*
X0311776Y0411425D01*
X0312142Y0411530D01*
X0312510Y0411625D01*
X0312881Y0411712D01*
X0313253Y0411790D01*
X0313628Y0411858D01*
X0314004Y0411918D01*
X0314381Y0411968D01*
X0314759Y0412009D01*
X0315138Y0412042D01*
X0315518Y0412065D01*
X0315898Y0412078D01*
X0316279Y0412083D01*
X0340294Y0412083D01*
X0309980Y0396335D02*
X0309982Y0396493D01*
X0309988Y0396651D01*
X0309998Y0396809D01*
X0310012Y0396967D01*
X0310030Y0397124D01*
X0310051Y0397281D01*
X0310077Y0397437D01*
X0310107Y0397593D01*
X0310140Y0397748D01*
X0310178Y0397901D01*
X0310219Y0398054D01*
X0310264Y0398206D01*
X0310313Y0398357D01*
X0310366Y0398506D01*
X0310422Y0398654D01*
X0310482Y0398800D01*
X0310546Y0398945D01*
X0310614Y0399088D01*
X0310685Y0399230D01*
X0310759Y0399370D01*
X0310837Y0399507D01*
X0310919Y0399643D01*
X0311003Y0399777D01*
X0311092Y0399908D01*
X0311183Y0400037D01*
X0311278Y0400164D01*
X0311375Y0400289D01*
X0311476Y0400411D01*
X0311580Y0400530D01*
X0311687Y0400647D01*
X0311797Y0400761D01*
X0311910Y0400872D01*
X0312025Y0400981D01*
X0312143Y0401086D01*
X0312264Y0401188D01*
X0312387Y0401288D01*
X0312513Y0401384D01*
X0312641Y0401477D01*
X0312771Y0401567D01*
X0312904Y0401653D01*
X0313039Y0401737D01*
X0313175Y0401816D01*
X0313314Y0401893D01*
X0313455Y0401965D01*
X0313597Y0402035D01*
X0313741Y0402100D01*
X0313887Y0402162D01*
X0314034Y0402220D01*
X0314183Y0402275D01*
X0314333Y0402326D01*
X0314484Y0402373D01*
X0314636Y0402416D01*
X0314789Y0402455D01*
X0314944Y0402491D01*
X0315099Y0402522D01*
X0315255Y0402550D01*
X0315411Y0402574D01*
X0315568Y0402594D01*
X0315726Y0402610D01*
X0315883Y0402622D01*
X0316042Y0402630D01*
X0316200Y0402634D01*
X0316358Y0402634D01*
X0316516Y0402630D01*
X0316675Y0402622D01*
X0316832Y0402610D01*
X0316990Y0402594D01*
X0317147Y0402574D01*
X0317303Y0402550D01*
X0317459Y0402522D01*
X0317614Y0402491D01*
X0317769Y0402455D01*
X0317922Y0402416D01*
X0318074Y0402373D01*
X0318225Y0402326D01*
X0318375Y0402275D01*
X0318524Y0402220D01*
X0318671Y0402162D01*
X0318817Y0402100D01*
X0318961Y0402035D01*
X0319103Y0401965D01*
X0319244Y0401893D01*
X0319383Y0401816D01*
X0319519Y0401737D01*
X0319654Y0401653D01*
X0319787Y0401567D01*
X0319917Y0401477D01*
X0320045Y0401384D01*
X0320171Y0401288D01*
X0320294Y0401188D01*
X0320415Y0401086D01*
X0320533Y0400981D01*
X0320648Y0400872D01*
X0320761Y0400761D01*
X0320871Y0400647D01*
X0320978Y0400530D01*
X0321082Y0400411D01*
X0321183Y0400289D01*
X0321280Y0400164D01*
X0321375Y0400037D01*
X0321466Y0399908D01*
X0321555Y0399777D01*
X0321639Y0399643D01*
X0321721Y0399507D01*
X0321799Y0399370D01*
X0321873Y0399230D01*
X0321944Y0399088D01*
X0322012Y0398945D01*
X0322076Y0398800D01*
X0322136Y0398654D01*
X0322192Y0398506D01*
X0322245Y0398357D01*
X0322294Y0398206D01*
X0322339Y0398054D01*
X0322380Y0397901D01*
X0322418Y0397748D01*
X0322451Y0397593D01*
X0322481Y0397437D01*
X0322507Y0397281D01*
X0322528Y0397124D01*
X0322546Y0396967D01*
X0322560Y0396809D01*
X0322570Y0396651D01*
X0322576Y0396493D01*
X0322578Y0396335D01*
X0322576Y0396177D01*
X0322570Y0396019D01*
X0322560Y0395861D01*
X0322546Y0395703D01*
X0322528Y0395546D01*
X0322507Y0395389D01*
X0322481Y0395233D01*
X0322451Y0395077D01*
X0322418Y0394922D01*
X0322380Y0394769D01*
X0322339Y0394616D01*
X0322294Y0394464D01*
X0322245Y0394313D01*
X0322192Y0394164D01*
X0322136Y0394016D01*
X0322076Y0393870D01*
X0322012Y0393725D01*
X0321944Y0393582D01*
X0321873Y0393440D01*
X0321799Y0393300D01*
X0321721Y0393163D01*
X0321639Y0393027D01*
X0321555Y0392893D01*
X0321466Y0392762D01*
X0321375Y0392633D01*
X0321280Y0392506D01*
X0321183Y0392381D01*
X0321082Y0392259D01*
X0320978Y0392140D01*
X0320871Y0392023D01*
X0320761Y0391909D01*
X0320648Y0391798D01*
X0320533Y0391689D01*
X0320415Y0391584D01*
X0320294Y0391482D01*
X0320171Y0391382D01*
X0320045Y0391286D01*
X0319917Y0391193D01*
X0319787Y0391103D01*
X0319654Y0391017D01*
X0319519Y0390933D01*
X0319383Y0390854D01*
X0319244Y0390777D01*
X0319103Y0390705D01*
X0318961Y0390635D01*
X0318817Y0390570D01*
X0318671Y0390508D01*
X0318524Y0390450D01*
X0318375Y0390395D01*
X0318225Y0390344D01*
X0318074Y0390297D01*
X0317922Y0390254D01*
X0317769Y0390215D01*
X0317614Y0390179D01*
X0317459Y0390148D01*
X0317303Y0390120D01*
X0317147Y0390096D01*
X0316990Y0390076D01*
X0316832Y0390060D01*
X0316675Y0390048D01*
X0316516Y0390040D01*
X0316358Y0390036D01*
X0316200Y0390036D01*
X0316042Y0390040D01*
X0315883Y0390048D01*
X0315726Y0390060D01*
X0315568Y0390076D01*
X0315411Y0390096D01*
X0315255Y0390120D01*
X0315099Y0390148D01*
X0314944Y0390179D01*
X0314789Y0390215D01*
X0314636Y0390254D01*
X0314484Y0390297D01*
X0314333Y0390344D01*
X0314183Y0390395D01*
X0314034Y0390450D01*
X0313887Y0390508D01*
X0313741Y0390570D01*
X0313597Y0390635D01*
X0313455Y0390705D01*
X0313314Y0390777D01*
X0313175Y0390854D01*
X0313039Y0390933D01*
X0312904Y0391017D01*
X0312771Y0391103D01*
X0312641Y0391193D01*
X0312513Y0391286D01*
X0312387Y0391382D01*
X0312264Y0391482D01*
X0312143Y0391584D01*
X0312025Y0391689D01*
X0311910Y0391798D01*
X0311797Y0391909D01*
X0311687Y0392023D01*
X0311580Y0392140D01*
X0311476Y0392259D01*
X0311375Y0392381D01*
X0311278Y0392506D01*
X0311183Y0392633D01*
X0311092Y0392762D01*
X0311003Y0392893D01*
X0310919Y0393027D01*
X0310837Y0393163D01*
X0310759Y0393300D01*
X0310685Y0393440D01*
X0310614Y0393582D01*
X0310546Y0393725D01*
X0310482Y0393870D01*
X0310422Y0394016D01*
X0310366Y0394164D01*
X0310313Y0394313D01*
X0310264Y0394464D01*
X0310219Y0394616D01*
X0310178Y0394769D01*
X0310140Y0394922D01*
X0310107Y0395077D01*
X0310077Y0395233D01*
X0310051Y0395389D01*
X0310030Y0395546D01*
X0310012Y0395703D01*
X0309998Y0395861D01*
X0309988Y0396019D01*
X0309982Y0396177D01*
X0309980Y0396335D01*
X0300531Y0314051D02*
X0300531Y0290035D01*
X0300536Y0289654D01*
X0300549Y0289274D01*
X0300572Y0288894D01*
X0300605Y0288515D01*
X0300646Y0288137D01*
X0300696Y0287760D01*
X0300756Y0287384D01*
X0300824Y0287009D01*
X0300902Y0286637D01*
X0300989Y0286266D01*
X0301084Y0285898D01*
X0301189Y0285532D01*
X0301302Y0285169D01*
X0301424Y0284808D01*
X0301554Y0284451D01*
X0301694Y0284097D01*
X0301841Y0283746D01*
X0301998Y0283399D01*
X0302162Y0283056D01*
X0302335Y0282717D01*
X0302516Y0282382D01*
X0302705Y0282051D01*
X0302902Y0281726D01*
X0303106Y0281405D01*
X0303319Y0281089D01*
X0303539Y0280779D01*
X0303766Y0280473D01*
X0304001Y0280174D01*
X0304243Y0279880D01*
X0304491Y0279592D01*
X0304747Y0279310D01*
X0305010Y0279035D01*
X0305279Y0278766D01*
X0305554Y0278503D01*
X0305836Y0278247D01*
X0306124Y0277999D01*
X0306418Y0277757D01*
X0306717Y0277522D01*
X0307023Y0277295D01*
X0307333Y0277075D01*
X0307649Y0276862D01*
X0307970Y0276658D01*
X0308295Y0276461D01*
X0308626Y0276272D01*
X0308961Y0276091D01*
X0309300Y0275918D01*
X0309643Y0275754D01*
X0309990Y0275597D01*
X0310341Y0275450D01*
X0310695Y0275310D01*
X0311052Y0275180D01*
X0311413Y0275058D01*
X0311776Y0274945D01*
X0312142Y0274840D01*
X0312510Y0274745D01*
X0312881Y0274658D01*
X0313253Y0274580D01*
X0313628Y0274512D01*
X0314004Y0274452D01*
X0314381Y0274402D01*
X0314759Y0274361D01*
X0315138Y0274328D01*
X0315518Y0274305D01*
X0315898Y0274292D01*
X0316279Y0274287D01*
X0340294Y0274287D01*
X0309980Y0290035D02*
X0309982Y0290193D01*
X0309988Y0290351D01*
X0309998Y0290509D01*
X0310012Y0290667D01*
X0310030Y0290824D01*
X0310051Y0290981D01*
X0310077Y0291137D01*
X0310107Y0291293D01*
X0310140Y0291448D01*
X0310178Y0291601D01*
X0310219Y0291754D01*
X0310264Y0291906D01*
X0310313Y0292057D01*
X0310366Y0292206D01*
X0310422Y0292354D01*
X0310482Y0292500D01*
X0310546Y0292645D01*
X0310614Y0292788D01*
X0310685Y0292930D01*
X0310759Y0293070D01*
X0310837Y0293207D01*
X0310919Y0293343D01*
X0311003Y0293477D01*
X0311092Y0293608D01*
X0311183Y0293737D01*
X0311278Y0293864D01*
X0311375Y0293989D01*
X0311476Y0294111D01*
X0311580Y0294230D01*
X0311687Y0294347D01*
X0311797Y0294461D01*
X0311910Y0294572D01*
X0312025Y0294681D01*
X0312143Y0294786D01*
X0312264Y0294888D01*
X0312387Y0294988D01*
X0312513Y0295084D01*
X0312641Y0295177D01*
X0312771Y0295267D01*
X0312904Y0295353D01*
X0313039Y0295437D01*
X0313175Y0295516D01*
X0313314Y0295593D01*
X0313455Y0295665D01*
X0313597Y0295735D01*
X0313741Y0295800D01*
X0313887Y0295862D01*
X0314034Y0295920D01*
X0314183Y0295975D01*
X0314333Y0296026D01*
X0314484Y0296073D01*
X0314636Y0296116D01*
X0314789Y0296155D01*
X0314944Y0296191D01*
X0315099Y0296222D01*
X0315255Y0296250D01*
X0315411Y0296274D01*
X0315568Y0296294D01*
X0315726Y0296310D01*
X0315883Y0296322D01*
X0316042Y0296330D01*
X0316200Y0296334D01*
X0316358Y0296334D01*
X0316516Y0296330D01*
X0316675Y0296322D01*
X0316832Y0296310D01*
X0316990Y0296294D01*
X0317147Y0296274D01*
X0317303Y0296250D01*
X0317459Y0296222D01*
X0317614Y0296191D01*
X0317769Y0296155D01*
X0317922Y0296116D01*
X0318074Y0296073D01*
X0318225Y0296026D01*
X0318375Y0295975D01*
X0318524Y0295920D01*
X0318671Y0295862D01*
X0318817Y0295800D01*
X0318961Y0295735D01*
X0319103Y0295665D01*
X0319244Y0295593D01*
X0319383Y0295516D01*
X0319519Y0295437D01*
X0319654Y0295353D01*
X0319787Y0295267D01*
X0319917Y0295177D01*
X0320045Y0295084D01*
X0320171Y0294988D01*
X0320294Y0294888D01*
X0320415Y0294786D01*
X0320533Y0294681D01*
X0320648Y0294572D01*
X0320761Y0294461D01*
X0320871Y0294347D01*
X0320978Y0294230D01*
X0321082Y0294111D01*
X0321183Y0293989D01*
X0321280Y0293864D01*
X0321375Y0293737D01*
X0321466Y0293608D01*
X0321555Y0293477D01*
X0321639Y0293343D01*
X0321721Y0293207D01*
X0321799Y0293070D01*
X0321873Y0292930D01*
X0321944Y0292788D01*
X0322012Y0292645D01*
X0322076Y0292500D01*
X0322136Y0292354D01*
X0322192Y0292206D01*
X0322245Y0292057D01*
X0322294Y0291906D01*
X0322339Y0291754D01*
X0322380Y0291601D01*
X0322418Y0291448D01*
X0322451Y0291293D01*
X0322481Y0291137D01*
X0322507Y0290981D01*
X0322528Y0290824D01*
X0322546Y0290667D01*
X0322560Y0290509D01*
X0322570Y0290351D01*
X0322576Y0290193D01*
X0322578Y0290035D01*
X0322576Y0289877D01*
X0322570Y0289719D01*
X0322560Y0289561D01*
X0322546Y0289403D01*
X0322528Y0289246D01*
X0322507Y0289089D01*
X0322481Y0288933D01*
X0322451Y0288777D01*
X0322418Y0288622D01*
X0322380Y0288469D01*
X0322339Y0288316D01*
X0322294Y0288164D01*
X0322245Y0288013D01*
X0322192Y0287864D01*
X0322136Y0287716D01*
X0322076Y0287570D01*
X0322012Y0287425D01*
X0321944Y0287282D01*
X0321873Y0287140D01*
X0321799Y0287000D01*
X0321721Y0286863D01*
X0321639Y0286727D01*
X0321555Y0286593D01*
X0321466Y0286462D01*
X0321375Y0286333D01*
X0321280Y0286206D01*
X0321183Y0286081D01*
X0321082Y0285959D01*
X0320978Y0285840D01*
X0320871Y0285723D01*
X0320761Y0285609D01*
X0320648Y0285498D01*
X0320533Y0285389D01*
X0320415Y0285284D01*
X0320294Y0285182D01*
X0320171Y0285082D01*
X0320045Y0284986D01*
X0319917Y0284893D01*
X0319787Y0284803D01*
X0319654Y0284717D01*
X0319519Y0284633D01*
X0319383Y0284554D01*
X0319244Y0284477D01*
X0319103Y0284405D01*
X0318961Y0284335D01*
X0318817Y0284270D01*
X0318671Y0284208D01*
X0318524Y0284150D01*
X0318375Y0284095D01*
X0318225Y0284044D01*
X0318074Y0283997D01*
X0317922Y0283954D01*
X0317769Y0283915D01*
X0317614Y0283879D01*
X0317459Y0283848D01*
X0317303Y0283820D01*
X0317147Y0283796D01*
X0316990Y0283776D01*
X0316832Y0283760D01*
X0316675Y0283748D01*
X0316516Y0283740D01*
X0316358Y0283736D01*
X0316200Y0283736D01*
X0316042Y0283740D01*
X0315883Y0283748D01*
X0315726Y0283760D01*
X0315568Y0283776D01*
X0315411Y0283796D01*
X0315255Y0283820D01*
X0315099Y0283848D01*
X0314944Y0283879D01*
X0314789Y0283915D01*
X0314636Y0283954D01*
X0314484Y0283997D01*
X0314333Y0284044D01*
X0314183Y0284095D01*
X0314034Y0284150D01*
X0313887Y0284208D01*
X0313741Y0284270D01*
X0313597Y0284335D01*
X0313455Y0284405D01*
X0313314Y0284477D01*
X0313175Y0284554D01*
X0313039Y0284633D01*
X0312904Y0284717D01*
X0312771Y0284803D01*
X0312641Y0284893D01*
X0312513Y0284986D01*
X0312387Y0285082D01*
X0312264Y0285182D01*
X0312143Y0285284D01*
X0312025Y0285389D01*
X0311910Y0285498D01*
X0311797Y0285609D01*
X0311687Y0285723D01*
X0311580Y0285840D01*
X0311476Y0285959D01*
X0311375Y0286081D01*
X0311278Y0286206D01*
X0311183Y0286333D01*
X0311092Y0286462D01*
X0311003Y0286593D01*
X0310919Y0286727D01*
X0310837Y0286863D01*
X0310759Y0287000D01*
X0310685Y0287140D01*
X0310614Y0287282D01*
X0310546Y0287425D01*
X0310482Y0287570D01*
X0310422Y0287716D01*
X0310366Y0287864D01*
X0310313Y0288013D01*
X0310264Y0288164D01*
X0310219Y0288316D01*
X0310178Y0288469D01*
X0310140Y0288622D01*
X0310107Y0288777D01*
X0310077Y0288933D01*
X0310051Y0289089D01*
X0310030Y0289246D01*
X0310012Y0289403D01*
X0309998Y0289561D01*
X0309988Y0289719D01*
X0309982Y0289877D01*
X0309980Y0290035D01*
X0261161Y0290035D02*
X0261161Y0314051D01*
X0261161Y0290035D02*
X0261156Y0289654D01*
X0261143Y0289274D01*
X0261120Y0288894D01*
X0261087Y0288515D01*
X0261046Y0288137D01*
X0260996Y0287760D01*
X0260936Y0287384D01*
X0260868Y0287009D01*
X0260790Y0286637D01*
X0260703Y0286266D01*
X0260608Y0285898D01*
X0260503Y0285532D01*
X0260390Y0285169D01*
X0260268Y0284808D01*
X0260138Y0284451D01*
X0259998Y0284097D01*
X0259851Y0283746D01*
X0259694Y0283399D01*
X0259530Y0283056D01*
X0259357Y0282717D01*
X0259176Y0282382D01*
X0258987Y0282051D01*
X0258790Y0281726D01*
X0258586Y0281405D01*
X0258373Y0281089D01*
X0258153Y0280779D01*
X0257926Y0280473D01*
X0257691Y0280174D01*
X0257449Y0279880D01*
X0257201Y0279592D01*
X0256945Y0279310D01*
X0256682Y0279035D01*
X0256413Y0278766D01*
X0256138Y0278503D01*
X0255856Y0278247D01*
X0255568Y0277999D01*
X0255274Y0277757D01*
X0254975Y0277522D01*
X0254669Y0277295D01*
X0254359Y0277075D01*
X0254043Y0276862D01*
X0253722Y0276658D01*
X0253397Y0276461D01*
X0253066Y0276272D01*
X0252731Y0276091D01*
X0252392Y0275918D01*
X0252049Y0275754D01*
X0251702Y0275597D01*
X0251351Y0275450D01*
X0250997Y0275310D01*
X0250640Y0275180D01*
X0250279Y0275058D01*
X0249916Y0274945D01*
X0249550Y0274840D01*
X0249182Y0274745D01*
X0248811Y0274658D01*
X0248439Y0274580D01*
X0248064Y0274512D01*
X0247688Y0274452D01*
X0247311Y0274402D01*
X0246933Y0274361D01*
X0246554Y0274328D01*
X0246174Y0274305D01*
X0245794Y0274292D01*
X0245413Y0274287D01*
X0221397Y0274287D01*
X0239114Y0290035D02*
X0239116Y0290193D01*
X0239122Y0290351D01*
X0239132Y0290509D01*
X0239146Y0290667D01*
X0239164Y0290824D01*
X0239185Y0290981D01*
X0239211Y0291137D01*
X0239241Y0291293D01*
X0239274Y0291448D01*
X0239312Y0291601D01*
X0239353Y0291754D01*
X0239398Y0291906D01*
X0239447Y0292057D01*
X0239500Y0292206D01*
X0239556Y0292354D01*
X0239616Y0292500D01*
X0239680Y0292645D01*
X0239748Y0292788D01*
X0239819Y0292930D01*
X0239893Y0293070D01*
X0239971Y0293207D01*
X0240053Y0293343D01*
X0240137Y0293477D01*
X0240226Y0293608D01*
X0240317Y0293737D01*
X0240412Y0293864D01*
X0240509Y0293989D01*
X0240610Y0294111D01*
X0240714Y0294230D01*
X0240821Y0294347D01*
X0240931Y0294461D01*
X0241044Y0294572D01*
X0241159Y0294681D01*
X0241277Y0294786D01*
X0241398Y0294888D01*
X0241521Y0294988D01*
X0241647Y0295084D01*
X0241775Y0295177D01*
X0241905Y0295267D01*
X0242038Y0295353D01*
X0242173Y0295437D01*
X0242309Y0295516D01*
X0242448Y0295593D01*
X0242589Y0295665D01*
X0242731Y0295735D01*
X0242875Y0295800D01*
X0243021Y0295862D01*
X0243168Y0295920D01*
X0243317Y0295975D01*
X0243467Y0296026D01*
X0243618Y0296073D01*
X0243770Y0296116D01*
X0243923Y0296155D01*
X0244078Y0296191D01*
X0244233Y0296222D01*
X0244389Y0296250D01*
X0244545Y0296274D01*
X0244702Y0296294D01*
X0244860Y0296310D01*
X0245017Y0296322D01*
X0245176Y0296330D01*
X0245334Y0296334D01*
X0245492Y0296334D01*
X0245650Y0296330D01*
X0245809Y0296322D01*
X0245966Y0296310D01*
X0246124Y0296294D01*
X0246281Y0296274D01*
X0246437Y0296250D01*
X0246593Y0296222D01*
X0246748Y0296191D01*
X0246903Y0296155D01*
X0247056Y0296116D01*
X0247208Y0296073D01*
X0247359Y0296026D01*
X0247509Y0295975D01*
X0247658Y0295920D01*
X0247805Y0295862D01*
X0247951Y0295800D01*
X0248095Y0295735D01*
X0248237Y0295665D01*
X0248378Y0295593D01*
X0248517Y0295516D01*
X0248653Y0295437D01*
X0248788Y0295353D01*
X0248921Y0295267D01*
X0249051Y0295177D01*
X0249179Y0295084D01*
X0249305Y0294988D01*
X0249428Y0294888D01*
X0249549Y0294786D01*
X0249667Y0294681D01*
X0249782Y0294572D01*
X0249895Y0294461D01*
X0250005Y0294347D01*
X0250112Y0294230D01*
X0250216Y0294111D01*
X0250317Y0293989D01*
X0250414Y0293864D01*
X0250509Y0293737D01*
X0250600Y0293608D01*
X0250689Y0293477D01*
X0250773Y0293343D01*
X0250855Y0293207D01*
X0250933Y0293070D01*
X0251007Y0292930D01*
X0251078Y0292788D01*
X0251146Y0292645D01*
X0251210Y0292500D01*
X0251270Y0292354D01*
X0251326Y0292206D01*
X0251379Y0292057D01*
X0251428Y0291906D01*
X0251473Y0291754D01*
X0251514Y0291601D01*
X0251552Y0291448D01*
X0251585Y0291293D01*
X0251615Y0291137D01*
X0251641Y0290981D01*
X0251662Y0290824D01*
X0251680Y0290667D01*
X0251694Y0290509D01*
X0251704Y0290351D01*
X0251710Y0290193D01*
X0251712Y0290035D01*
X0251710Y0289877D01*
X0251704Y0289719D01*
X0251694Y0289561D01*
X0251680Y0289403D01*
X0251662Y0289246D01*
X0251641Y0289089D01*
X0251615Y0288933D01*
X0251585Y0288777D01*
X0251552Y0288622D01*
X0251514Y0288469D01*
X0251473Y0288316D01*
X0251428Y0288164D01*
X0251379Y0288013D01*
X0251326Y0287864D01*
X0251270Y0287716D01*
X0251210Y0287570D01*
X0251146Y0287425D01*
X0251078Y0287282D01*
X0251007Y0287140D01*
X0250933Y0287000D01*
X0250855Y0286863D01*
X0250773Y0286727D01*
X0250689Y0286593D01*
X0250600Y0286462D01*
X0250509Y0286333D01*
X0250414Y0286206D01*
X0250317Y0286081D01*
X0250216Y0285959D01*
X0250112Y0285840D01*
X0250005Y0285723D01*
X0249895Y0285609D01*
X0249782Y0285498D01*
X0249667Y0285389D01*
X0249549Y0285284D01*
X0249428Y0285182D01*
X0249305Y0285082D01*
X0249179Y0284986D01*
X0249051Y0284893D01*
X0248921Y0284803D01*
X0248788Y0284717D01*
X0248653Y0284633D01*
X0248517Y0284554D01*
X0248378Y0284477D01*
X0248237Y0284405D01*
X0248095Y0284335D01*
X0247951Y0284270D01*
X0247805Y0284208D01*
X0247658Y0284150D01*
X0247509Y0284095D01*
X0247359Y0284044D01*
X0247208Y0283997D01*
X0247056Y0283954D01*
X0246903Y0283915D01*
X0246748Y0283879D01*
X0246593Y0283848D01*
X0246437Y0283820D01*
X0246281Y0283796D01*
X0246124Y0283776D01*
X0245966Y0283760D01*
X0245809Y0283748D01*
X0245650Y0283740D01*
X0245492Y0283736D01*
X0245334Y0283736D01*
X0245176Y0283740D01*
X0245017Y0283748D01*
X0244860Y0283760D01*
X0244702Y0283776D01*
X0244545Y0283796D01*
X0244389Y0283820D01*
X0244233Y0283848D01*
X0244078Y0283879D01*
X0243923Y0283915D01*
X0243770Y0283954D01*
X0243618Y0283997D01*
X0243467Y0284044D01*
X0243317Y0284095D01*
X0243168Y0284150D01*
X0243021Y0284208D01*
X0242875Y0284270D01*
X0242731Y0284335D01*
X0242589Y0284405D01*
X0242448Y0284477D01*
X0242309Y0284554D01*
X0242173Y0284633D01*
X0242038Y0284717D01*
X0241905Y0284803D01*
X0241775Y0284893D01*
X0241647Y0284986D01*
X0241521Y0285082D01*
X0241398Y0285182D01*
X0241277Y0285284D01*
X0241159Y0285389D01*
X0241044Y0285498D01*
X0240931Y0285609D01*
X0240821Y0285723D01*
X0240714Y0285840D01*
X0240610Y0285959D01*
X0240509Y0286081D01*
X0240412Y0286206D01*
X0240317Y0286333D01*
X0240226Y0286462D01*
X0240137Y0286593D01*
X0240053Y0286727D01*
X0239971Y0286863D01*
X0239893Y0287000D01*
X0239819Y0287140D01*
X0239748Y0287282D01*
X0239680Y0287425D01*
X0239616Y0287570D01*
X0239556Y0287716D01*
X0239500Y0287864D01*
X0239447Y0288013D01*
X0239398Y0288164D01*
X0239353Y0288316D01*
X0239312Y0288469D01*
X0239274Y0288622D01*
X0239241Y0288777D01*
X0239211Y0288933D01*
X0239185Y0289089D01*
X0239164Y0289246D01*
X0239146Y0289403D01*
X0239132Y0289561D01*
X0239122Y0289719D01*
X0239116Y0289877D01*
X0239114Y0290035D01*
X0245413Y0234917D02*
X0221397Y0234917D01*
X0245413Y0234917D02*
X0245794Y0234912D01*
X0246174Y0234899D01*
X0246554Y0234876D01*
X0246933Y0234843D01*
X0247311Y0234802D01*
X0247688Y0234752D01*
X0248064Y0234692D01*
X0248439Y0234624D01*
X0248811Y0234546D01*
X0249182Y0234459D01*
X0249550Y0234364D01*
X0249916Y0234259D01*
X0250279Y0234146D01*
X0250640Y0234024D01*
X0250997Y0233894D01*
X0251351Y0233754D01*
X0251702Y0233607D01*
X0252049Y0233450D01*
X0252392Y0233286D01*
X0252731Y0233113D01*
X0253066Y0232932D01*
X0253397Y0232743D01*
X0253722Y0232546D01*
X0254043Y0232342D01*
X0254359Y0232129D01*
X0254669Y0231909D01*
X0254975Y0231682D01*
X0255274Y0231447D01*
X0255568Y0231205D01*
X0255856Y0230957D01*
X0256138Y0230701D01*
X0256413Y0230438D01*
X0256682Y0230169D01*
X0256945Y0229894D01*
X0257201Y0229612D01*
X0257449Y0229324D01*
X0257691Y0229030D01*
X0257926Y0228731D01*
X0258153Y0228425D01*
X0258373Y0228115D01*
X0258586Y0227799D01*
X0258790Y0227478D01*
X0258987Y0227153D01*
X0259176Y0226822D01*
X0259357Y0226487D01*
X0259530Y0226148D01*
X0259694Y0225805D01*
X0259851Y0225458D01*
X0259998Y0225107D01*
X0260138Y0224753D01*
X0260268Y0224396D01*
X0260390Y0224035D01*
X0260503Y0223672D01*
X0260608Y0223306D01*
X0260703Y0222938D01*
X0260790Y0222567D01*
X0260868Y0222195D01*
X0260936Y0221820D01*
X0260996Y0221444D01*
X0261046Y0221067D01*
X0261087Y0220689D01*
X0261120Y0220310D01*
X0261143Y0219930D01*
X0261156Y0219550D01*
X0261161Y0219169D01*
X0261161Y0195154D01*
X0239114Y0219169D02*
X0239116Y0219327D01*
X0239122Y0219485D01*
X0239132Y0219643D01*
X0239146Y0219801D01*
X0239164Y0219958D01*
X0239185Y0220115D01*
X0239211Y0220271D01*
X0239241Y0220427D01*
X0239274Y0220582D01*
X0239312Y0220735D01*
X0239353Y0220888D01*
X0239398Y0221040D01*
X0239447Y0221191D01*
X0239500Y0221340D01*
X0239556Y0221488D01*
X0239616Y0221634D01*
X0239680Y0221779D01*
X0239748Y0221922D01*
X0239819Y0222064D01*
X0239893Y0222204D01*
X0239971Y0222341D01*
X0240053Y0222477D01*
X0240137Y0222611D01*
X0240226Y0222742D01*
X0240317Y0222871D01*
X0240412Y0222998D01*
X0240509Y0223123D01*
X0240610Y0223245D01*
X0240714Y0223364D01*
X0240821Y0223481D01*
X0240931Y0223595D01*
X0241044Y0223706D01*
X0241159Y0223815D01*
X0241277Y0223920D01*
X0241398Y0224022D01*
X0241521Y0224122D01*
X0241647Y0224218D01*
X0241775Y0224311D01*
X0241905Y0224401D01*
X0242038Y0224487D01*
X0242173Y0224571D01*
X0242309Y0224650D01*
X0242448Y0224727D01*
X0242589Y0224799D01*
X0242731Y0224869D01*
X0242875Y0224934D01*
X0243021Y0224996D01*
X0243168Y0225054D01*
X0243317Y0225109D01*
X0243467Y0225160D01*
X0243618Y0225207D01*
X0243770Y0225250D01*
X0243923Y0225289D01*
X0244078Y0225325D01*
X0244233Y0225356D01*
X0244389Y0225384D01*
X0244545Y0225408D01*
X0244702Y0225428D01*
X0244860Y0225444D01*
X0245017Y0225456D01*
X0245176Y0225464D01*
X0245334Y0225468D01*
X0245492Y0225468D01*
X0245650Y0225464D01*
X0245809Y0225456D01*
X0245966Y0225444D01*
X0246124Y0225428D01*
X0246281Y0225408D01*
X0246437Y0225384D01*
X0246593Y0225356D01*
X0246748Y0225325D01*
X0246903Y0225289D01*
X0247056Y0225250D01*
X0247208Y0225207D01*
X0247359Y0225160D01*
X0247509Y0225109D01*
X0247658Y0225054D01*
X0247805Y0224996D01*
X0247951Y0224934D01*
X0248095Y0224869D01*
X0248237Y0224799D01*
X0248378Y0224727D01*
X0248517Y0224650D01*
X0248653Y0224571D01*
X0248788Y0224487D01*
X0248921Y0224401D01*
X0249051Y0224311D01*
X0249179Y0224218D01*
X0249305Y0224122D01*
X0249428Y0224022D01*
X0249549Y0223920D01*
X0249667Y0223815D01*
X0249782Y0223706D01*
X0249895Y0223595D01*
X0250005Y0223481D01*
X0250112Y0223364D01*
X0250216Y0223245D01*
X0250317Y0223123D01*
X0250414Y0222998D01*
X0250509Y0222871D01*
X0250600Y0222742D01*
X0250689Y0222611D01*
X0250773Y0222477D01*
X0250855Y0222341D01*
X0250933Y0222204D01*
X0251007Y0222064D01*
X0251078Y0221922D01*
X0251146Y0221779D01*
X0251210Y0221634D01*
X0251270Y0221488D01*
X0251326Y0221340D01*
X0251379Y0221191D01*
X0251428Y0221040D01*
X0251473Y0220888D01*
X0251514Y0220735D01*
X0251552Y0220582D01*
X0251585Y0220427D01*
X0251615Y0220271D01*
X0251641Y0220115D01*
X0251662Y0219958D01*
X0251680Y0219801D01*
X0251694Y0219643D01*
X0251704Y0219485D01*
X0251710Y0219327D01*
X0251712Y0219169D01*
X0251710Y0219011D01*
X0251704Y0218853D01*
X0251694Y0218695D01*
X0251680Y0218537D01*
X0251662Y0218380D01*
X0251641Y0218223D01*
X0251615Y0218067D01*
X0251585Y0217911D01*
X0251552Y0217756D01*
X0251514Y0217603D01*
X0251473Y0217450D01*
X0251428Y0217298D01*
X0251379Y0217147D01*
X0251326Y0216998D01*
X0251270Y0216850D01*
X0251210Y0216704D01*
X0251146Y0216559D01*
X0251078Y0216416D01*
X0251007Y0216274D01*
X0250933Y0216134D01*
X0250855Y0215997D01*
X0250773Y0215861D01*
X0250689Y0215727D01*
X0250600Y0215596D01*
X0250509Y0215467D01*
X0250414Y0215340D01*
X0250317Y0215215D01*
X0250216Y0215093D01*
X0250112Y0214974D01*
X0250005Y0214857D01*
X0249895Y0214743D01*
X0249782Y0214632D01*
X0249667Y0214523D01*
X0249549Y0214418D01*
X0249428Y0214316D01*
X0249305Y0214216D01*
X0249179Y0214120D01*
X0249051Y0214027D01*
X0248921Y0213937D01*
X0248788Y0213851D01*
X0248653Y0213767D01*
X0248517Y0213688D01*
X0248378Y0213611D01*
X0248237Y0213539D01*
X0248095Y0213469D01*
X0247951Y0213404D01*
X0247805Y0213342D01*
X0247658Y0213284D01*
X0247509Y0213229D01*
X0247359Y0213178D01*
X0247208Y0213131D01*
X0247056Y0213088D01*
X0246903Y0213049D01*
X0246748Y0213013D01*
X0246593Y0212982D01*
X0246437Y0212954D01*
X0246281Y0212930D01*
X0246124Y0212910D01*
X0245966Y0212894D01*
X0245809Y0212882D01*
X0245650Y0212874D01*
X0245492Y0212870D01*
X0245334Y0212870D01*
X0245176Y0212874D01*
X0245017Y0212882D01*
X0244860Y0212894D01*
X0244702Y0212910D01*
X0244545Y0212930D01*
X0244389Y0212954D01*
X0244233Y0212982D01*
X0244078Y0213013D01*
X0243923Y0213049D01*
X0243770Y0213088D01*
X0243618Y0213131D01*
X0243467Y0213178D01*
X0243317Y0213229D01*
X0243168Y0213284D01*
X0243021Y0213342D01*
X0242875Y0213404D01*
X0242731Y0213469D01*
X0242589Y0213539D01*
X0242448Y0213611D01*
X0242309Y0213688D01*
X0242173Y0213767D01*
X0242038Y0213851D01*
X0241905Y0213937D01*
X0241775Y0214027D01*
X0241647Y0214120D01*
X0241521Y0214216D01*
X0241398Y0214316D01*
X0241277Y0214418D01*
X0241159Y0214523D01*
X0241044Y0214632D01*
X0240931Y0214743D01*
X0240821Y0214857D01*
X0240714Y0214974D01*
X0240610Y0215093D01*
X0240509Y0215215D01*
X0240412Y0215340D01*
X0240317Y0215467D01*
X0240226Y0215596D01*
X0240137Y0215727D01*
X0240053Y0215861D01*
X0239971Y0215997D01*
X0239893Y0216134D01*
X0239819Y0216274D01*
X0239748Y0216416D01*
X0239680Y0216559D01*
X0239616Y0216704D01*
X0239556Y0216850D01*
X0239500Y0216998D01*
X0239447Y0217147D01*
X0239398Y0217298D01*
X0239353Y0217450D01*
X0239312Y0217603D01*
X0239274Y0217756D01*
X0239241Y0217911D01*
X0239211Y0218067D01*
X0239185Y0218223D01*
X0239164Y0218380D01*
X0239146Y0218537D01*
X0239132Y0218695D01*
X0239122Y0218853D01*
X0239116Y0219011D01*
X0239114Y0219169D01*
X0300531Y0219169D02*
X0300531Y0195154D01*
X0300531Y0219169D02*
X0300536Y0219550D01*
X0300549Y0219930D01*
X0300572Y0220310D01*
X0300605Y0220689D01*
X0300646Y0221067D01*
X0300696Y0221444D01*
X0300756Y0221820D01*
X0300824Y0222195D01*
X0300902Y0222567D01*
X0300989Y0222938D01*
X0301084Y0223306D01*
X0301189Y0223672D01*
X0301302Y0224035D01*
X0301424Y0224396D01*
X0301554Y0224753D01*
X0301694Y0225107D01*
X0301841Y0225458D01*
X0301998Y0225805D01*
X0302162Y0226148D01*
X0302335Y0226487D01*
X0302516Y0226822D01*
X0302705Y0227153D01*
X0302902Y0227478D01*
X0303106Y0227799D01*
X0303319Y0228115D01*
X0303539Y0228425D01*
X0303766Y0228731D01*
X0304001Y0229030D01*
X0304243Y0229324D01*
X0304491Y0229612D01*
X0304747Y0229894D01*
X0305010Y0230169D01*
X0305279Y0230438D01*
X0305554Y0230701D01*
X0305836Y0230957D01*
X0306124Y0231205D01*
X0306418Y0231447D01*
X0306717Y0231682D01*
X0307023Y0231909D01*
X0307333Y0232129D01*
X0307649Y0232342D01*
X0307970Y0232546D01*
X0308295Y0232743D01*
X0308626Y0232932D01*
X0308961Y0233113D01*
X0309300Y0233286D01*
X0309643Y0233450D01*
X0309990Y0233607D01*
X0310341Y0233754D01*
X0310695Y0233894D01*
X0311052Y0234024D01*
X0311413Y0234146D01*
X0311776Y0234259D01*
X0312142Y0234364D01*
X0312510Y0234459D01*
X0312881Y0234546D01*
X0313253Y0234624D01*
X0313628Y0234692D01*
X0314004Y0234752D01*
X0314381Y0234802D01*
X0314759Y0234843D01*
X0315138Y0234876D01*
X0315518Y0234899D01*
X0315898Y0234912D01*
X0316279Y0234917D01*
X0340294Y0234917D01*
X0309980Y0219169D02*
X0309982Y0219327D01*
X0309988Y0219485D01*
X0309998Y0219643D01*
X0310012Y0219801D01*
X0310030Y0219958D01*
X0310051Y0220115D01*
X0310077Y0220271D01*
X0310107Y0220427D01*
X0310140Y0220582D01*
X0310178Y0220735D01*
X0310219Y0220888D01*
X0310264Y0221040D01*
X0310313Y0221191D01*
X0310366Y0221340D01*
X0310422Y0221488D01*
X0310482Y0221634D01*
X0310546Y0221779D01*
X0310614Y0221922D01*
X0310685Y0222064D01*
X0310759Y0222204D01*
X0310837Y0222341D01*
X0310919Y0222477D01*
X0311003Y0222611D01*
X0311092Y0222742D01*
X0311183Y0222871D01*
X0311278Y0222998D01*
X0311375Y0223123D01*
X0311476Y0223245D01*
X0311580Y0223364D01*
X0311687Y0223481D01*
X0311797Y0223595D01*
X0311910Y0223706D01*
X0312025Y0223815D01*
X0312143Y0223920D01*
X0312264Y0224022D01*
X0312387Y0224122D01*
X0312513Y0224218D01*
X0312641Y0224311D01*
X0312771Y0224401D01*
X0312904Y0224487D01*
X0313039Y0224571D01*
X0313175Y0224650D01*
X0313314Y0224727D01*
X0313455Y0224799D01*
X0313597Y0224869D01*
X0313741Y0224934D01*
X0313887Y0224996D01*
X0314034Y0225054D01*
X0314183Y0225109D01*
X0314333Y0225160D01*
X0314484Y0225207D01*
X0314636Y0225250D01*
X0314789Y0225289D01*
X0314944Y0225325D01*
X0315099Y0225356D01*
X0315255Y0225384D01*
X0315411Y0225408D01*
X0315568Y0225428D01*
X0315726Y0225444D01*
X0315883Y0225456D01*
X0316042Y0225464D01*
X0316200Y0225468D01*
X0316358Y0225468D01*
X0316516Y0225464D01*
X0316675Y0225456D01*
X0316832Y0225444D01*
X0316990Y0225428D01*
X0317147Y0225408D01*
X0317303Y0225384D01*
X0317459Y0225356D01*
X0317614Y0225325D01*
X0317769Y0225289D01*
X0317922Y0225250D01*
X0318074Y0225207D01*
X0318225Y0225160D01*
X0318375Y0225109D01*
X0318524Y0225054D01*
X0318671Y0224996D01*
X0318817Y0224934D01*
X0318961Y0224869D01*
X0319103Y0224799D01*
X0319244Y0224727D01*
X0319383Y0224650D01*
X0319519Y0224571D01*
X0319654Y0224487D01*
X0319787Y0224401D01*
X0319917Y0224311D01*
X0320045Y0224218D01*
X0320171Y0224122D01*
X0320294Y0224022D01*
X0320415Y0223920D01*
X0320533Y0223815D01*
X0320648Y0223706D01*
X0320761Y0223595D01*
X0320871Y0223481D01*
X0320978Y0223364D01*
X0321082Y0223245D01*
X0321183Y0223123D01*
X0321280Y0222998D01*
X0321375Y0222871D01*
X0321466Y0222742D01*
X0321555Y0222611D01*
X0321639Y0222477D01*
X0321721Y0222341D01*
X0321799Y0222204D01*
X0321873Y0222064D01*
X0321944Y0221922D01*
X0322012Y0221779D01*
X0322076Y0221634D01*
X0322136Y0221488D01*
X0322192Y0221340D01*
X0322245Y0221191D01*
X0322294Y0221040D01*
X0322339Y0220888D01*
X0322380Y0220735D01*
X0322418Y0220582D01*
X0322451Y0220427D01*
X0322481Y0220271D01*
X0322507Y0220115D01*
X0322528Y0219958D01*
X0322546Y0219801D01*
X0322560Y0219643D01*
X0322570Y0219485D01*
X0322576Y0219327D01*
X0322578Y0219169D01*
X0322576Y0219011D01*
X0322570Y0218853D01*
X0322560Y0218695D01*
X0322546Y0218537D01*
X0322528Y0218380D01*
X0322507Y0218223D01*
X0322481Y0218067D01*
X0322451Y0217911D01*
X0322418Y0217756D01*
X0322380Y0217603D01*
X0322339Y0217450D01*
X0322294Y0217298D01*
X0322245Y0217147D01*
X0322192Y0216998D01*
X0322136Y0216850D01*
X0322076Y0216704D01*
X0322012Y0216559D01*
X0321944Y0216416D01*
X0321873Y0216274D01*
X0321799Y0216134D01*
X0321721Y0215997D01*
X0321639Y0215861D01*
X0321555Y0215727D01*
X0321466Y0215596D01*
X0321375Y0215467D01*
X0321280Y0215340D01*
X0321183Y0215215D01*
X0321082Y0215093D01*
X0320978Y0214974D01*
X0320871Y0214857D01*
X0320761Y0214743D01*
X0320648Y0214632D01*
X0320533Y0214523D01*
X0320415Y0214418D01*
X0320294Y0214316D01*
X0320171Y0214216D01*
X0320045Y0214120D01*
X0319917Y0214027D01*
X0319787Y0213937D01*
X0319654Y0213851D01*
X0319519Y0213767D01*
X0319383Y0213688D01*
X0319244Y0213611D01*
X0319103Y0213539D01*
X0318961Y0213469D01*
X0318817Y0213404D01*
X0318671Y0213342D01*
X0318524Y0213284D01*
X0318375Y0213229D01*
X0318225Y0213178D01*
X0318074Y0213131D01*
X0317922Y0213088D01*
X0317769Y0213049D01*
X0317614Y0213013D01*
X0317459Y0212982D01*
X0317303Y0212954D01*
X0317147Y0212930D01*
X0316990Y0212910D01*
X0316832Y0212894D01*
X0316675Y0212882D01*
X0316516Y0212874D01*
X0316358Y0212870D01*
X0316200Y0212870D01*
X0316042Y0212874D01*
X0315883Y0212882D01*
X0315726Y0212894D01*
X0315568Y0212910D01*
X0315411Y0212930D01*
X0315255Y0212954D01*
X0315099Y0212982D01*
X0314944Y0213013D01*
X0314789Y0213049D01*
X0314636Y0213088D01*
X0314484Y0213131D01*
X0314333Y0213178D01*
X0314183Y0213229D01*
X0314034Y0213284D01*
X0313887Y0213342D01*
X0313741Y0213404D01*
X0313597Y0213469D01*
X0313455Y0213539D01*
X0313314Y0213611D01*
X0313175Y0213688D01*
X0313039Y0213767D01*
X0312904Y0213851D01*
X0312771Y0213937D01*
X0312641Y0214027D01*
X0312513Y0214120D01*
X0312387Y0214216D01*
X0312264Y0214316D01*
X0312143Y0214418D01*
X0312025Y0214523D01*
X0311910Y0214632D01*
X0311797Y0214743D01*
X0311687Y0214857D01*
X0311580Y0214974D01*
X0311476Y0215093D01*
X0311375Y0215215D01*
X0311278Y0215340D01*
X0311183Y0215467D01*
X0311092Y0215596D01*
X0311003Y0215727D01*
X0310919Y0215861D01*
X0310837Y0215997D01*
X0310759Y0216134D01*
X0310685Y0216274D01*
X0310614Y0216416D01*
X0310546Y0216559D01*
X0310482Y0216704D01*
X0310422Y0216850D01*
X0310366Y0216998D01*
X0310313Y0217147D01*
X0310264Y0217298D01*
X0310219Y0217450D01*
X0310178Y0217603D01*
X0310140Y0217756D01*
X0310107Y0217911D01*
X0310077Y0218067D01*
X0310051Y0218223D01*
X0310030Y0218380D01*
X0310012Y0218537D01*
X0309998Y0218695D01*
X0309988Y0218853D01*
X0309982Y0219011D01*
X0309980Y0219169D01*
X0300531Y0136886D02*
X0300531Y0112870D01*
X0300536Y0112489D01*
X0300549Y0112109D01*
X0300572Y0111729D01*
X0300605Y0111350D01*
X0300646Y0110972D01*
X0300696Y0110595D01*
X0300756Y0110219D01*
X0300824Y0109844D01*
X0300902Y0109472D01*
X0300989Y0109101D01*
X0301084Y0108733D01*
X0301189Y0108367D01*
X0301302Y0108004D01*
X0301424Y0107643D01*
X0301554Y0107286D01*
X0301694Y0106932D01*
X0301841Y0106581D01*
X0301998Y0106234D01*
X0302162Y0105891D01*
X0302335Y0105552D01*
X0302516Y0105217D01*
X0302705Y0104886D01*
X0302902Y0104561D01*
X0303106Y0104240D01*
X0303319Y0103924D01*
X0303539Y0103614D01*
X0303766Y0103308D01*
X0304001Y0103009D01*
X0304243Y0102715D01*
X0304491Y0102427D01*
X0304747Y0102145D01*
X0305010Y0101870D01*
X0305279Y0101601D01*
X0305554Y0101338D01*
X0305836Y0101082D01*
X0306124Y0100834D01*
X0306418Y0100592D01*
X0306717Y0100357D01*
X0307023Y0100130D01*
X0307333Y0099910D01*
X0307649Y0099697D01*
X0307970Y0099493D01*
X0308295Y0099296D01*
X0308626Y0099107D01*
X0308961Y0098926D01*
X0309300Y0098753D01*
X0309643Y0098589D01*
X0309990Y0098432D01*
X0310341Y0098285D01*
X0310695Y0098145D01*
X0311052Y0098015D01*
X0311413Y0097893D01*
X0311776Y0097780D01*
X0312142Y0097675D01*
X0312510Y0097580D01*
X0312881Y0097493D01*
X0313253Y0097415D01*
X0313628Y0097347D01*
X0314004Y0097287D01*
X0314381Y0097237D01*
X0314759Y0097196D01*
X0315138Y0097163D01*
X0315518Y0097140D01*
X0315898Y0097127D01*
X0316279Y0097122D01*
X0340294Y0097122D01*
X0309980Y0112870D02*
X0309982Y0113028D01*
X0309988Y0113186D01*
X0309998Y0113344D01*
X0310012Y0113502D01*
X0310030Y0113659D01*
X0310051Y0113816D01*
X0310077Y0113972D01*
X0310107Y0114128D01*
X0310140Y0114283D01*
X0310178Y0114436D01*
X0310219Y0114589D01*
X0310264Y0114741D01*
X0310313Y0114892D01*
X0310366Y0115041D01*
X0310422Y0115189D01*
X0310482Y0115335D01*
X0310546Y0115480D01*
X0310614Y0115623D01*
X0310685Y0115765D01*
X0310759Y0115905D01*
X0310837Y0116042D01*
X0310919Y0116178D01*
X0311003Y0116312D01*
X0311092Y0116443D01*
X0311183Y0116572D01*
X0311278Y0116699D01*
X0311375Y0116824D01*
X0311476Y0116946D01*
X0311580Y0117065D01*
X0311687Y0117182D01*
X0311797Y0117296D01*
X0311910Y0117407D01*
X0312025Y0117516D01*
X0312143Y0117621D01*
X0312264Y0117723D01*
X0312387Y0117823D01*
X0312513Y0117919D01*
X0312641Y0118012D01*
X0312771Y0118102D01*
X0312904Y0118188D01*
X0313039Y0118272D01*
X0313175Y0118351D01*
X0313314Y0118428D01*
X0313455Y0118500D01*
X0313597Y0118570D01*
X0313741Y0118635D01*
X0313887Y0118697D01*
X0314034Y0118755D01*
X0314183Y0118810D01*
X0314333Y0118861D01*
X0314484Y0118908D01*
X0314636Y0118951D01*
X0314789Y0118990D01*
X0314944Y0119026D01*
X0315099Y0119057D01*
X0315255Y0119085D01*
X0315411Y0119109D01*
X0315568Y0119129D01*
X0315726Y0119145D01*
X0315883Y0119157D01*
X0316042Y0119165D01*
X0316200Y0119169D01*
X0316358Y0119169D01*
X0316516Y0119165D01*
X0316675Y0119157D01*
X0316832Y0119145D01*
X0316990Y0119129D01*
X0317147Y0119109D01*
X0317303Y0119085D01*
X0317459Y0119057D01*
X0317614Y0119026D01*
X0317769Y0118990D01*
X0317922Y0118951D01*
X0318074Y0118908D01*
X0318225Y0118861D01*
X0318375Y0118810D01*
X0318524Y0118755D01*
X0318671Y0118697D01*
X0318817Y0118635D01*
X0318961Y0118570D01*
X0319103Y0118500D01*
X0319244Y0118428D01*
X0319383Y0118351D01*
X0319519Y0118272D01*
X0319654Y0118188D01*
X0319787Y0118102D01*
X0319917Y0118012D01*
X0320045Y0117919D01*
X0320171Y0117823D01*
X0320294Y0117723D01*
X0320415Y0117621D01*
X0320533Y0117516D01*
X0320648Y0117407D01*
X0320761Y0117296D01*
X0320871Y0117182D01*
X0320978Y0117065D01*
X0321082Y0116946D01*
X0321183Y0116824D01*
X0321280Y0116699D01*
X0321375Y0116572D01*
X0321466Y0116443D01*
X0321555Y0116312D01*
X0321639Y0116178D01*
X0321721Y0116042D01*
X0321799Y0115905D01*
X0321873Y0115765D01*
X0321944Y0115623D01*
X0322012Y0115480D01*
X0322076Y0115335D01*
X0322136Y0115189D01*
X0322192Y0115041D01*
X0322245Y0114892D01*
X0322294Y0114741D01*
X0322339Y0114589D01*
X0322380Y0114436D01*
X0322418Y0114283D01*
X0322451Y0114128D01*
X0322481Y0113972D01*
X0322507Y0113816D01*
X0322528Y0113659D01*
X0322546Y0113502D01*
X0322560Y0113344D01*
X0322570Y0113186D01*
X0322576Y0113028D01*
X0322578Y0112870D01*
X0322576Y0112712D01*
X0322570Y0112554D01*
X0322560Y0112396D01*
X0322546Y0112238D01*
X0322528Y0112081D01*
X0322507Y0111924D01*
X0322481Y0111768D01*
X0322451Y0111612D01*
X0322418Y0111457D01*
X0322380Y0111304D01*
X0322339Y0111151D01*
X0322294Y0110999D01*
X0322245Y0110848D01*
X0322192Y0110699D01*
X0322136Y0110551D01*
X0322076Y0110405D01*
X0322012Y0110260D01*
X0321944Y0110117D01*
X0321873Y0109975D01*
X0321799Y0109835D01*
X0321721Y0109698D01*
X0321639Y0109562D01*
X0321555Y0109428D01*
X0321466Y0109297D01*
X0321375Y0109168D01*
X0321280Y0109041D01*
X0321183Y0108916D01*
X0321082Y0108794D01*
X0320978Y0108675D01*
X0320871Y0108558D01*
X0320761Y0108444D01*
X0320648Y0108333D01*
X0320533Y0108224D01*
X0320415Y0108119D01*
X0320294Y0108017D01*
X0320171Y0107917D01*
X0320045Y0107821D01*
X0319917Y0107728D01*
X0319787Y0107638D01*
X0319654Y0107552D01*
X0319519Y0107468D01*
X0319383Y0107389D01*
X0319244Y0107312D01*
X0319103Y0107240D01*
X0318961Y0107170D01*
X0318817Y0107105D01*
X0318671Y0107043D01*
X0318524Y0106985D01*
X0318375Y0106930D01*
X0318225Y0106879D01*
X0318074Y0106832D01*
X0317922Y0106789D01*
X0317769Y0106750D01*
X0317614Y0106714D01*
X0317459Y0106683D01*
X0317303Y0106655D01*
X0317147Y0106631D01*
X0316990Y0106611D01*
X0316832Y0106595D01*
X0316675Y0106583D01*
X0316516Y0106575D01*
X0316358Y0106571D01*
X0316200Y0106571D01*
X0316042Y0106575D01*
X0315883Y0106583D01*
X0315726Y0106595D01*
X0315568Y0106611D01*
X0315411Y0106631D01*
X0315255Y0106655D01*
X0315099Y0106683D01*
X0314944Y0106714D01*
X0314789Y0106750D01*
X0314636Y0106789D01*
X0314484Y0106832D01*
X0314333Y0106879D01*
X0314183Y0106930D01*
X0314034Y0106985D01*
X0313887Y0107043D01*
X0313741Y0107105D01*
X0313597Y0107170D01*
X0313455Y0107240D01*
X0313314Y0107312D01*
X0313175Y0107389D01*
X0313039Y0107468D01*
X0312904Y0107552D01*
X0312771Y0107638D01*
X0312641Y0107728D01*
X0312513Y0107821D01*
X0312387Y0107917D01*
X0312264Y0108017D01*
X0312143Y0108119D01*
X0312025Y0108224D01*
X0311910Y0108333D01*
X0311797Y0108444D01*
X0311687Y0108558D01*
X0311580Y0108675D01*
X0311476Y0108794D01*
X0311375Y0108916D01*
X0311278Y0109041D01*
X0311183Y0109168D01*
X0311092Y0109297D01*
X0311003Y0109428D01*
X0310919Y0109562D01*
X0310837Y0109698D01*
X0310759Y0109835D01*
X0310685Y0109975D01*
X0310614Y0110117D01*
X0310546Y0110260D01*
X0310482Y0110405D01*
X0310422Y0110551D01*
X0310366Y0110699D01*
X0310313Y0110848D01*
X0310264Y0110999D01*
X0310219Y0111151D01*
X0310178Y0111304D01*
X0310140Y0111457D01*
X0310107Y0111612D01*
X0310077Y0111768D01*
X0310051Y0111924D01*
X0310030Y0112081D01*
X0310012Y0112238D01*
X0309998Y0112396D01*
X0309988Y0112554D01*
X0309982Y0112712D01*
X0309980Y0112870D01*
X0261161Y0112870D02*
X0261161Y0136886D01*
X0261161Y0112870D02*
X0261156Y0112489D01*
X0261143Y0112109D01*
X0261120Y0111729D01*
X0261087Y0111350D01*
X0261046Y0110972D01*
X0260996Y0110595D01*
X0260936Y0110219D01*
X0260868Y0109844D01*
X0260790Y0109472D01*
X0260703Y0109101D01*
X0260608Y0108733D01*
X0260503Y0108367D01*
X0260390Y0108004D01*
X0260268Y0107643D01*
X0260138Y0107286D01*
X0259998Y0106932D01*
X0259851Y0106581D01*
X0259694Y0106234D01*
X0259530Y0105891D01*
X0259357Y0105552D01*
X0259176Y0105217D01*
X0258987Y0104886D01*
X0258790Y0104561D01*
X0258586Y0104240D01*
X0258373Y0103924D01*
X0258153Y0103614D01*
X0257926Y0103308D01*
X0257691Y0103009D01*
X0257449Y0102715D01*
X0257201Y0102427D01*
X0256945Y0102145D01*
X0256682Y0101870D01*
X0256413Y0101601D01*
X0256138Y0101338D01*
X0255856Y0101082D01*
X0255568Y0100834D01*
X0255274Y0100592D01*
X0254975Y0100357D01*
X0254669Y0100130D01*
X0254359Y0099910D01*
X0254043Y0099697D01*
X0253722Y0099493D01*
X0253397Y0099296D01*
X0253066Y0099107D01*
X0252731Y0098926D01*
X0252392Y0098753D01*
X0252049Y0098589D01*
X0251702Y0098432D01*
X0251351Y0098285D01*
X0250997Y0098145D01*
X0250640Y0098015D01*
X0250279Y0097893D01*
X0249916Y0097780D01*
X0249550Y0097675D01*
X0249182Y0097580D01*
X0248811Y0097493D01*
X0248439Y0097415D01*
X0248064Y0097347D01*
X0247688Y0097287D01*
X0247311Y0097237D01*
X0246933Y0097196D01*
X0246554Y0097163D01*
X0246174Y0097140D01*
X0245794Y0097127D01*
X0245413Y0097122D01*
X0221397Y0097122D01*
X0239114Y0112870D02*
X0239116Y0113028D01*
X0239122Y0113186D01*
X0239132Y0113344D01*
X0239146Y0113502D01*
X0239164Y0113659D01*
X0239185Y0113816D01*
X0239211Y0113972D01*
X0239241Y0114128D01*
X0239274Y0114283D01*
X0239312Y0114436D01*
X0239353Y0114589D01*
X0239398Y0114741D01*
X0239447Y0114892D01*
X0239500Y0115041D01*
X0239556Y0115189D01*
X0239616Y0115335D01*
X0239680Y0115480D01*
X0239748Y0115623D01*
X0239819Y0115765D01*
X0239893Y0115905D01*
X0239971Y0116042D01*
X0240053Y0116178D01*
X0240137Y0116312D01*
X0240226Y0116443D01*
X0240317Y0116572D01*
X0240412Y0116699D01*
X0240509Y0116824D01*
X0240610Y0116946D01*
X0240714Y0117065D01*
X0240821Y0117182D01*
X0240931Y0117296D01*
X0241044Y0117407D01*
X0241159Y0117516D01*
X0241277Y0117621D01*
X0241398Y0117723D01*
X0241521Y0117823D01*
X0241647Y0117919D01*
X0241775Y0118012D01*
X0241905Y0118102D01*
X0242038Y0118188D01*
X0242173Y0118272D01*
X0242309Y0118351D01*
X0242448Y0118428D01*
X0242589Y0118500D01*
X0242731Y0118570D01*
X0242875Y0118635D01*
X0243021Y0118697D01*
X0243168Y0118755D01*
X0243317Y0118810D01*
X0243467Y0118861D01*
X0243618Y0118908D01*
X0243770Y0118951D01*
X0243923Y0118990D01*
X0244078Y0119026D01*
X0244233Y0119057D01*
X0244389Y0119085D01*
X0244545Y0119109D01*
X0244702Y0119129D01*
X0244860Y0119145D01*
X0245017Y0119157D01*
X0245176Y0119165D01*
X0245334Y0119169D01*
X0245492Y0119169D01*
X0245650Y0119165D01*
X0245809Y0119157D01*
X0245966Y0119145D01*
X0246124Y0119129D01*
X0246281Y0119109D01*
X0246437Y0119085D01*
X0246593Y0119057D01*
X0246748Y0119026D01*
X0246903Y0118990D01*
X0247056Y0118951D01*
X0247208Y0118908D01*
X0247359Y0118861D01*
X0247509Y0118810D01*
X0247658Y0118755D01*
X0247805Y0118697D01*
X0247951Y0118635D01*
X0248095Y0118570D01*
X0248237Y0118500D01*
X0248378Y0118428D01*
X0248517Y0118351D01*
X0248653Y0118272D01*
X0248788Y0118188D01*
X0248921Y0118102D01*
X0249051Y0118012D01*
X0249179Y0117919D01*
X0249305Y0117823D01*
X0249428Y0117723D01*
X0249549Y0117621D01*
X0249667Y0117516D01*
X0249782Y0117407D01*
X0249895Y0117296D01*
X0250005Y0117182D01*
X0250112Y0117065D01*
X0250216Y0116946D01*
X0250317Y0116824D01*
X0250414Y0116699D01*
X0250509Y0116572D01*
X0250600Y0116443D01*
X0250689Y0116312D01*
X0250773Y0116178D01*
X0250855Y0116042D01*
X0250933Y0115905D01*
X0251007Y0115765D01*
X0251078Y0115623D01*
X0251146Y0115480D01*
X0251210Y0115335D01*
X0251270Y0115189D01*
X0251326Y0115041D01*
X0251379Y0114892D01*
X0251428Y0114741D01*
X0251473Y0114589D01*
X0251514Y0114436D01*
X0251552Y0114283D01*
X0251585Y0114128D01*
X0251615Y0113972D01*
X0251641Y0113816D01*
X0251662Y0113659D01*
X0251680Y0113502D01*
X0251694Y0113344D01*
X0251704Y0113186D01*
X0251710Y0113028D01*
X0251712Y0112870D01*
X0251710Y0112712D01*
X0251704Y0112554D01*
X0251694Y0112396D01*
X0251680Y0112238D01*
X0251662Y0112081D01*
X0251641Y0111924D01*
X0251615Y0111768D01*
X0251585Y0111612D01*
X0251552Y0111457D01*
X0251514Y0111304D01*
X0251473Y0111151D01*
X0251428Y0110999D01*
X0251379Y0110848D01*
X0251326Y0110699D01*
X0251270Y0110551D01*
X0251210Y0110405D01*
X0251146Y0110260D01*
X0251078Y0110117D01*
X0251007Y0109975D01*
X0250933Y0109835D01*
X0250855Y0109698D01*
X0250773Y0109562D01*
X0250689Y0109428D01*
X0250600Y0109297D01*
X0250509Y0109168D01*
X0250414Y0109041D01*
X0250317Y0108916D01*
X0250216Y0108794D01*
X0250112Y0108675D01*
X0250005Y0108558D01*
X0249895Y0108444D01*
X0249782Y0108333D01*
X0249667Y0108224D01*
X0249549Y0108119D01*
X0249428Y0108017D01*
X0249305Y0107917D01*
X0249179Y0107821D01*
X0249051Y0107728D01*
X0248921Y0107638D01*
X0248788Y0107552D01*
X0248653Y0107468D01*
X0248517Y0107389D01*
X0248378Y0107312D01*
X0248237Y0107240D01*
X0248095Y0107170D01*
X0247951Y0107105D01*
X0247805Y0107043D01*
X0247658Y0106985D01*
X0247509Y0106930D01*
X0247359Y0106879D01*
X0247208Y0106832D01*
X0247056Y0106789D01*
X0246903Y0106750D01*
X0246748Y0106714D01*
X0246593Y0106683D01*
X0246437Y0106655D01*
X0246281Y0106631D01*
X0246124Y0106611D01*
X0245966Y0106595D01*
X0245809Y0106583D01*
X0245650Y0106575D01*
X0245492Y0106571D01*
X0245334Y0106571D01*
X0245176Y0106575D01*
X0245017Y0106583D01*
X0244860Y0106595D01*
X0244702Y0106611D01*
X0244545Y0106631D01*
X0244389Y0106655D01*
X0244233Y0106683D01*
X0244078Y0106714D01*
X0243923Y0106750D01*
X0243770Y0106789D01*
X0243618Y0106832D01*
X0243467Y0106879D01*
X0243317Y0106930D01*
X0243168Y0106985D01*
X0243021Y0107043D01*
X0242875Y0107105D01*
X0242731Y0107170D01*
X0242589Y0107240D01*
X0242448Y0107312D01*
X0242309Y0107389D01*
X0242173Y0107468D01*
X0242038Y0107552D01*
X0241905Y0107638D01*
X0241775Y0107728D01*
X0241647Y0107821D01*
X0241521Y0107917D01*
X0241398Y0108017D01*
X0241277Y0108119D01*
X0241159Y0108224D01*
X0241044Y0108333D01*
X0240931Y0108444D01*
X0240821Y0108558D01*
X0240714Y0108675D01*
X0240610Y0108794D01*
X0240509Y0108916D01*
X0240412Y0109041D01*
X0240317Y0109168D01*
X0240226Y0109297D01*
X0240137Y0109428D01*
X0240053Y0109562D01*
X0239971Y0109698D01*
X0239893Y0109835D01*
X0239819Y0109975D01*
X0239748Y0110117D01*
X0239680Y0110260D01*
X0239616Y0110405D01*
X0239556Y0110551D01*
X0239500Y0110699D01*
X0239447Y0110848D01*
X0239398Y0110999D01*
X0239353Y0111151D01*
X0239312Y0111304D01*
X0239274Y0111457D01*
X0239241Y0111612D01*
X0239211Y0111768D01*
X0239185Y0111924D01*
X0239164Y0112081D01*
X0239146Y0112238D01*
X0239132Y0112396D01*
X0239122Y0112554D01*
X0239116Y0112712D01*
X0239114Y0112870D01*
X0418247Y0097122D02*
X0442263Y0097122D01*
X0442644Y0097127D01*
X0443024Y0097140D01*
X0443404Y0097163D01*
X0443783Y0097196D01*
X0444161Y0097237D01*
X0444538Y0097287D01*
X0444914Y0097347D01*
X0445289Y0097415D01*
X0445661Y0097493D01*
X0446032Y0097580D01*
X0446400Y0097675D01*
X0446766Y0097780D01*
X0447129Y0097893D01*
X0447490Y0098015D01*
X0447847Y0098145D01*
X0448201Y0098285D01*
X0448552Y0098432D01*
X0448899Y0098589D01*
X0449242Y0098753D01*
X0449581Y0098926D01*
X0449916Y0099107D01*
X0450247Y0099296D01*
X0450572Y0099493D01*
X0450893Y0099697D01*
X0451209Y0099910D01*
X0451519Y0100130D01*
X0451825Y0100357D01*
X0452124Y0100592D01*
X0452418Y0100834D01*
X0452706Y0101082D01*
X0452988Y0101338D01*
X0453263Y0101601D01*
X0453532Y0101870D01*
X0453795Y0102145D01*
X0454051Y0102427D01*
X0454299Y0102715D01*
X0454541Y0103009D01*
X0454776Y0103308D01*
X0455003Y0103614D01*
X0455223Y0103924D01*
X0455436Y0104240D01*
X0455640Y0104561D01*
X0455837Y0104886D01*
X0456026Y0105217D01*
X0456207Y0105552D01*
X0456380Y0105891D01*
X0456544Y0106234D01*
X0456701Y0106581D01*
X0456848Y0106932D01*
X0456988Y0107286D01*
X0457118Y0107643D01*
X0457240Y0108004D01*
X0457353Y0108367D01*
X0457458Y0108733D01*
X0457553Y0109101D01*
X0457640Y0109472D01*
X0457718Y0109844D01*
X0457786Y0110219D01*
X0457846Y0110595D01*
X0457896Y0110972D01*
X0457937Y0111350D01*
X0457970Y0111729D01*
X0457993Y0112109D01*
X0458006Y0112489D01*
X0458011Y0112870D01*
X0458011Y0136886D01*
X0435964Y0112870D02*
X0435966Y0113028D01*
X0435972Y0113186D01*
X0435982Y0113344D01*
X0435996Y0113502D01*
X0436014Y0113659D01*
X0436035Y0113816D01*
X0436061Y0113972D01*
X0436091Y0114128D01*
X0436124Y0114283D01*
X0436162Y0114436D01*
X0436203Y0114589D01*
X0436248Y0114741D01*
X0436297Y0114892D01*
X0436350Y0115041D01*
X0436406Y0115189D01*
X0436466Y0115335D01*
X0436530Y0115480D01*
X0436598Y0115623D01*
X0436669Y0115765D01*
X0436743Y0115905D01*
X0436821Y0116042D01*
X0436903Y0116178D01*
X0436987Y0116312D01*
X0437076Y0116443D01*
X0437167Y0116572D01*
X0437262Y0116699D01*
X0437359Y0116824D01*
X0437460Y0116946D01*
X0437564Y0117065D01*
X0437671Y0117182D01*
X0437781Y0117296D01*
X0437894Y0117407D01*
X0438009Y0117516D01*
X0438127Y0117621D01*
X0438248Y0117723D01*
X0438371Y0117823D01*
X0438497Y0117919D01*
X0438625Y0118012D01*
X0438755Y0118102D01*
X0438888Y0118188D01*
X0439023Y0118272D01*
X0439159Y0118351D01*
X0439298Y0118428D01*
X0439439Y0118500D01*
X0439581Y0118570D01*
X0439725Y0118635D01*
X0439871Y0118697D01*
X0440018Y0118755D01*
X0440167Y0118810D01*
X0440317Y0118861D01*
X0440468Y0118908D01*
X0440620Y0118951D01*
X0440773Y0118990D01*
X0440928Y0119026D01*
X0441083Y0119057D01*
X0441239Y0119085D01*
X0441395Y0119109D01*
X0441552Y0119129D01*
X0441710Y0119145D01*
X0441867Y0119157D01*
X0442026Y0119165D01*
X0442184Y0119169D01*
X0442342Y0119169D01*
X0442500Y0119165D01*
X0442659Y0119157D01*
X0442816Y0119145D01*
X0442974Y0119129D01*
X0443131Y0119109D01*
X0443287Y0119085D01*
X0443443Y0119057D01*
X0443598Y0119026D01*
X0443753Y0118990D01*
X0443906Y0118951D01*
X0444058Y0118908D01*
X0444209Y0118861D01*
X0444359Y0118810D01*
X0444508Y0118755D01*
X0444655Y0118697D01*
X0444801Y0118635D01*
X0444945Y0118570D01*
X0445087Y0118500D01*
X0445228Y0118428D01*
X0445367Y0118351D01*
X0445503Y0118272D01*
X0445638Y0118188D01*
X0445771Y0118102D01*
X0445901Y0118012D01*
X0446029Y0117919D01*
X0446155Y0117823D01*
X0446278Y0117723D01*
X0446399Y0117621D01*
X0446517Y0117516D01*
X0446632Y0117407D01*
X0446745Y0117296D01*
X0446855Y0117182D01*
X0446962Y0117065D01*
X0447066Y0116946D01*
X0447167Y0116824D01*
X0447264Y0116699D01*
X0447359Y0116572D01*
X0447450Y0116443D01*
X0447539Y0116312D01*
X0447623Y0116178D01*
X0447705Y0116042D01*
X0447783Y0115905D01*
X0447857Y0115765D01*
X0447928Y0115623D01*
X0447996Y0115480D01*
X0448060Y0115335D01*
X0448120Y0115189D01*
X0448176Y0115041D01*
X0448229Y0114892D01*
X0448278Y0114741D01*
X0448323Y0114589D01*
X0448364Y0114436D01*
X0448402Y0114283D01*
X0448435Y0114128D01*
X0448465Y0113972D01*
X0448491Y0113816D01*
X0448512Y0113659D01*
X0448530Y0113502D01*
X0448544Y0113344D01*
X0448554Y0113186D01*
X0448560Y0113028D01*
X0448562Y0112870D01*
X0448560Y0112712D01*
X0448554Y0112554D01*
X0448544Y0112396D01*
X0448530Y0112238D01*
X0448512Y0112081D01*
X0448491Y0111924D01*
X0448465Y0111768D01*
X0448435Y0111612D01*
X0448402Y0111457D01*
X0448364Y0111304D01*
X0448323Y0111151D01*
X0448278Y0110999D01*
X0448229Y0110848D01*
X0448176Y0110699D01*
X0448120Y0110551D01*
X0448060Y0110405D01*
X0447996Y0110260D01*
X0447928Y0110117D01*
X0447857Y0109975D01*
X0447783Y0109835D01*
X0447705Y0109698D01*
X0447623Y0109562D01*
X0447539Y0109428D01*
X0447450Y0109297D01*
X0447359Y0109168D01*
X0447264Y0109041D01*
X0447167Y0108916D01*
X0447066Y0108794D01*
X0446962Y0108675D01*
X0446855Y0108558D01*
X0446745Y0108444D01*
X0446632Y0108333D01*
X0446517Y0108224D01*
X0446399Y0108119D01*
X0446278Y0108017D01*
X0446155Y0107917D01*
X0446029Y0107821D01*
X0445901Y0107728D01*
X0445771Y0107638D01*
X0445638Y0107552D01*
X0445503Y0107468D01*
X0445367Y0107389D01*
X0445228Y0107312D01*
X0445087Y0107240D01*
X0444945Y0107170D01*
X0444801Y0107105D01*
X0444655Y0107043D01*
X0444508Y0106985D01*
X0444359Y0106930D01*
X0444209Y0106879D01*
X0444058Y0106832D01*
X0443906Y0106789D01*
X0443753Y0106750D01*
X0443598Y0106714D01*
X0443443Y0106683D01*
X0443287Y0106655D01*
X0443131Y0106631D01*
X0442974Y0106611D01*
X0442816Y0106595D01*
X0442659Y0106583D01*
X0442500Y0106575D01*
X0442342Y0106571D01*
X0442184Y0106571D01*
X0442026Y0106575D01*
X0441867Y0106583D01*
X0441710Y0106595D01*
X0441552Y0106611D01*
X0441395Y0106631D01*
X0441239Y0106655D01*
X0441083Y0106683D01*
X0440928Y0106714D01*
X0440773Y0106750D01*
X0440620Y0106789D01*
X0440468Y0106832D01*
X0440317Y0106879D01*
X0440167Y0106930D01*
X0440018Y0106985D01*
X0439871Y0107043D01*
X0439725Y0107105D01*
X0439581Y0107170D01*
X0439439Y0107240D01*
X0439298Y0107312D01*
X0439159Y0107389D01*
X0439023Y0107468D01*
X0438888Y0107552D01*
X0438755Y0107638D01*
X0438625Y0107728D01*
X0438497Y0107821D01*
X0438371Y0107917D01*
X0438248Y0108017D01*
X0438127Y0108119D01*
X0438009Y0108224D01*
X0437894Y0108333D01*
X0437781Y0108444D01*
X0437671Y0108558D01*
X0437564Y0108675D01*
X0437460Y0108794D01*
X0437359Y0108916D01*
X0437262Y0109041D01*
X0437167Y0109168D01*
X0437076Y0109297D01*
X0436987Y0109428D01*
X0436903Y0109562D01*
X0436821Y0109698D01*
X0436743Y0109835D01*
X0436669Y0109975D01*
X0436598Y0110117D01*
X0436530Y0110260D01*
X0436466Y0110405D01*
X0436406Y0110551D01*
X0436350Y0110699D01*
X0436297Y0110848D01*
X0436248Y0110999D01*
X0436203Y0111151D01*
X0436162Y0111304D01*
X0436124Y0111457D01*
X0436091Y0111612D01*
X0436061Y0111768D01*
X0436035Y0111924D01*
X0436014Y0112081D01*
X0435996Y0112238D01*
X0435982Y0112396D01*
X0435972Y0112554D01*
X0435966Y0112712D01*
X0435964Y0112870D01*
X0469822Y0077437D02*
X0469824Y0077630D01*
X0469831Y0077823D01*
X0469843Y0078016D01*
X0469860Y0078209D01*
X0469881Y0078401D01*
X0469907Y0078592D01*
X0469938Y0078783D01*
X0469973Y0078973D01*
X0470013Y0079162D01*
X0470058Y0079350D01*
X0470107Y0079537D01*
X0470161Y0079723D01*
X0470219Y0079907D01*
X0470282Y0080090D01*
X0470350Y0080271D01*
X0470421Y0080450D01*
X0470498Y0080628D01*
X0470578Y0080804D01*
X0470663Y0080977D01*
X0470752Y0081149D01*
X0470845Y0081318D01*
X0470942Y0081485D01*
X0471044Y0081650D01*
X0471149Y0081812D01*
X0471258Y0081971D01*
X0471372Y0082128D01*
X0471489Y0082281D01*
X0471609Y0082432D01*
X0471734Y0082580D01*
X0471862Y0082725D01*
X0471993Y0082866D01*
X0472128Y0083005D01*
X0472267Y0083140D01*
X0472408Y0083271D01*
X0472553Y0083399D01*
X0472701Y0083524D01*
X0472852Y0083644D01*
X0473005Y0083761D01*
X0473162Y0083875D01*
X0473321Y0083984D01*
X0473483Y0084089D01*
X0473648Y0084191D01*
X0473815Y0084288D01*
X0473984Y0084381D01*
X0474156Y0084470D01*
X0474329Y0084555D01*
X0474505Y0084635D01*
X0474683Y0084712D01*
X0474862Y0084783D01*
X0475043Y0084851D01*
X0475226Y0084914D01*
X0475410Y0084972D01*
X0475596Y0085026D01*
X0475783Y0085075D01*
X0475971Y0085120D01*
X0476160Y0085160D01*
X0476350Y0085195D01*
X0476541Y0085226D01*
X0476732Y0085252D01*
X0476924Y0085273D01*
X0477117Y0085290D01*
X0477310Y0085302D01*
X0477503Y0085309D01*
X0477696Y0085311D01*
X0477889Y0085309D01*
X0478082Y0085302D01*
X0478275Y0085290D01*
X0478468Y0085273D01*
X0478660Y0085252D01*
X0478851Y0085226D01*
X0479042Y0085195D01*
X0479232Y0085160D01*
X0479421Y0085120D01*
X0479609Y0085075D01*
X0479796Y0085026D01*
X0479982Y0084972D01*
X0480166Y0084914D01*
X0480349Y0084851D01*
X0480530Y0084783D01*
X0480709Y0084712D01*
X0480887Y0084635D01*
X0481063Y0084555D01*
X0481236Y0084470D01*
X0481408Y0084381D01*
X0481577Y0084288D01*
X0481744Y0084191D01*
X0481909Y0084089D01*
X0482071Y0083984D01*
X0482230Y0083875D01*
X0482387Y0083761D01*
X0482540Y0083644D01*
X0482691Y0083524D01*
X0482839Y0083399D01*
X0482984Y0083271D01*
X0483125Y0083140D01*
X0483264Y0083005D01*
X0483399Y0082866D01*
X0483530Y0082725D01*
X0483658Y0082580D01*
X0483783Y0082432D01*
X0483903Y0082281D01*
X0484020Y0082128D01*
X0484134Y0081971D01*
X0484243Y0081812D01*
X0484348Y0081650D01*
X0484450Y0081485D01*
X0484547Y0081318D01*
X0484640Y0081149D01*
X0484729Y0080977D01*
X0484814Y0080804D01*
X0484894Y0080628D01*
X0484971Y0080450D01*
X0485042Y0080271D01*
X0485110Y0080090D01*
X0485173Y0079907D01*
X0485231Y0079723D01*
X0485285Y0079537D01*
X0485334Y0079350D01*
X0485379Y0079162D01*
X0485419Y0078973D01*
X0485454Y0078783D01*
X0485485Y0078592D01*
X0485511Y0078401D01*
X0485532Y0078209D01*
X0485549Y0078016D01*
X0485561Y0077823D01*
X0485568Y0077630D01*
X0485570Y0077437D01*
X0485568Y0077244D01*
X0485561Y0077051D01*
X0485549Y0076858D01*
X0485532Y0076665D01*
X0485511Y0076473D01*
X0485485Y0076282D01*
X0485454Y0076091D01*
X0485419Y0075901D01*
X0485379Y0075712D01*
X0485334Y0075524D01*
X0485285Y0075337D01*
X0485231Y0075151D01*
X0485173Y0074967D01*
X0485110Y0074784D01*
X0485042Y0074603D01*
X0484971Y0074424D01*
X0484894Y0074246D01*
X0484814Y0074070D01*
X0484729Y0073897D01*
X0484640Y0073725D01*
X0484547Y0073556D01*
X0484450Y0073389D01*
X0484348Y0073224D01*
X0484243Y0073062D01*
X0484134Y0072903D01*
X0484020Y0072746D01*
X0483903Y0072593D01*
X0483783Y0072442D01*
X0483658Y0072294D01*
X0483530Y0072149D01*
X0483399Y0072008D01*
X0483264Y0071869D01*
X0483125Y0071734D01*
X0482984Y0071603D01*
X0482839Y0071475D01*
X0482691Y0071350D01*
X0482540Y0071230D01*
X0482387Y0071113D01*
X0482230Y0070999D01*
X0482071Y0070890D01*
X0481909Y0070785D01*
X0481744Y0070683D01*
X0481577Y0070586D01*
X0481408Y0070493D01*
X0481236Y0070404D01*
X0481063Y0070319D01*
X0480887Y0070239D01*
X0480709Y0070162D01*
X0480530Y0070091D01*
X0480349Y0070023D01*
X0480166Y0069960D01*
X0479982Y0069902D01*
X0479796Y0069848D01*
X0479609Y0069799D01*
X0479421Y0069754D01*
X0479232Y0069714D01*
X0479042Y0069679D01*
X0478851Y0069648D01*
X0478660Y0069622D01*
X0478468Y0069601D01*
X0478275Y0069584D01*
X0478082Y0069572D01*
X0477889Y0069565D01*
X0477696Y0069563D01*
X0477503Y0069565D01*
X0477310Y0069572D01*
X0477117Y0069584D01*
X0476924Y0069601D01*
X0476732Y0069622D01*
X0476541Y0069648D01*
X0476350Y0069679D01*
X0476160Y0069714D01*
X0475971Y0069754D01*
X0475783Y0069799D01*
X0475596Y0069848D01*
X0475410Y0069902D01*
X0475226Y0069960D01*
X0475043Y0070023D01*
X0474862Y0070091D01*
X0474683Y0070162D01*
X0474505Y0070239D01*
X0474329Y0070319D01*
X0474156Y0070404D01*
X0473984Y0070493D01*
X0473815Y0070586D01*
X0473648Y0070683D01*
X0473483Y0070785D01*
X0473321Y0070890D01*
X0473162Y0070999D01*
X0473005Y0071113D01*
X0472852Y0071230D01*
X0472701Y0071350D01*
X0472553Y0071475D01*
X0472408Y0071603D01*
X0472267Y0071734D01*
X0472128Y0071869D01*
X0471993Y0072008D01*
X0471862Y0072149D01*
X0471734Y0072294D01*
X0471609Y0072442D01*
X0471489Y0072593D01*
X0471372Y0072746D01*
X0471258Y0072903D01*
X0471149Y0073062D01*
X0471044Y0073224D01*
X0470942Y0073389D01*
X0470845Y0073556D01*
X0470752Y0073725D01*
X0470663Y0073897D01*
X0470578Y0074070D01*
X0470498Y0074246D01*
X0470421Y0074424D01*
X0470350Y0074603D01*
X0470282Y0074784D01*
X0470219Y0074967D01*
X0470161Y0075151D01*
X0470107Y0075337D01*
X0470058Y0075524D01*
X0470013Y0075712D01*
X0469973Y0075901D01*
X0469938Y0076091D01*
X0469907Y0076282D01*
X0469881Y0076473D01*
X0469860Y0076665D01*
X0469843Y0076858D01*
X0469831Y0077051D01*
X0469824Y0077244D01*
X0469822Y0077437D01*
X0458011Y0195154D02*
X0458011Y0219169D01*
X0458006Y0219550D01*
X0457993Y0219930D01*
X0457970Y0220310D01*
X0457937Y0220689D01*
X0457896Y0221067D01*
X0457846Y0221444D01*
X0457786Y0221820D01*
X0457718Y0222195D01*
X0457640Y0222567D01*
X0457553Y0222938D01*
X0457458Y0223306D01*
X0457353Y0223672D01*
X0457240Y0224035D01*
X0457118Y0224396D01*
X0456988Y0224753D01*
X0456848Y0225107D01*
X0456701Y0225458D01*
X0456544Y0225805D01*
X0456380Y0226148D01*
X0456207Y0226487D01*
X0456026Y0226822D01*
X0455837Y0227153D01*
X0455640Y0227478D01*
X0455436Y0227799D01*
X0455223Y0228115D01*
X0455003Y0228425D01*
X0454776Y0228731D01*
X0454541Y0229030D01*
X0454299Y0229324D01*
X0454051Y0229612D01*
X0453795Y0229894D01*
X0453532Y0230169D01*
X0453263Y0230438D01*
X0452988Y0230701D01*
X0452706Y0230957D01*
X0452418Y0231205D01*
X0452124Y0231447D01*
X0451825Y0231682D01*
X0451519Y0231909D01*
X0451209Y0232129D01*
X0450893Y0232342D01*
X0450572Y0232546D01*
X0450247Y0232743D01*
X0449916Y0232932D01*
X0449581Y0233113D01*
X0449242Y0233286D01*
X0448899Y0233450D01*
X0448552Y0233607D01*
X0448201Y0233754D01*
X0447847Y0233894D01*
X0447490Y0234024D01*
X0447129Y0234146D01*
X0446766Y0234259D01*
X0446400Y0234364D01*
X0446032Y0234459D01*
X0445661Y0234546D01*
X0445289Y0234624D01*
X0444914Y0234692D01*
X0444538Y0234752D01*
X0444161Y0234802D01*
X0443783Y0234843D01*
X0443404Y0234876D01*
X0443024Y0234899D01*
X0442644Y0234912D01*
X0442263Y0234917D01*
X0418247Y0234917D01*
X0435964Y0219169D02*
X0435966Y0219327D01*
X0435972Y0219485D01*
X0435982Y0219643D01*
X0435996Y0219801D01*
X0436014Y0219958D01*
X0436035Y0220115D01*
X0436061Y0220271D01*
X0436091Y0220427D01*
X0436124Y0220582D01*
X0436162Y0220735D01*
X0436203Y0220888D01*
X0436248Y0221040D01*
X0436297Y0221191D01*
X0436350Y0221340D01*
X0436406Y0221488D01*
X0436466Y0221634D01*
X0436530Y0221779D01*
X0436598Y0221922D01*
X0436669Y0222064D01*
X0436743Y0222204D01*
X0436821Y0222341D01*
X0436903Y0222477D01*
X0436987Y0222611D01*
X0437076Y0222742D01*
X0437167Y0222871D01*
X0437262Y0222998D01*
X0437359Y0223123D01*
X0437460Y0223245D01*
X0437564Y0223364D01*
X0437671Y0223481D01*
X0437781Y0223595D01*
X0437894Y0223706D01*
X0438009Y0223815D01*
X0438127Y0223920D01*
X0438248Y0224022D01*
X0438371Y0224122D01*
X0438497Y0224218D01*
X0438625Y0224311D01*
X0438755Y0224401D01*
X0438888Y0224487D01*
X0439023Y0224571D01*
X0439159Y0224650D01*
X0439298Y0224727D01*
X0439439Y0224799D01*
X0439581Y0224869D01*
X0439725Y0224934D01*
X0439871Y0224996D01*
X0440018Y0225054D01*
X0440167Y0225109D01*
X0440317Y0225160D01*
X0440468Y0225207D01*
X0440620Y0225250D01*
X0440773Y0225289D01*
X0440928Y0225325D01*
X0441083Y0225356D01*
X0441239Y0225384D01*
X0441395Y0225408D01*
X0441552Y0225428D01*
X0441710Y0225444D01*
X0441867Y0225456D01*
X0442026Y0225464D01*
X0442184Y0225468D01*
X0442342Y0225468D01*
X0442500Y0225464D01*
X0442659Y0225456D01*
X0442816Y0225444D01*
X0442974Y0225428D01*
X0443131Y0225408D01*
X0443287Y0225384D01*
X0443443Y0225356D01*
X0443598Y0225325D01*
X0443753Y0225289D01*
X0443906Y0225250D01*
X0444058Y0225207D01*
X0444209Y0225160D01*
X0444359Y0225109D01*
X0444508Y0225054D01*
X0444655Y0224996D01*
X0444801Y0224934D01*
X0444945Y0224869D01*
X0445087Y0224799D01*
X0445228Y0224727D01*
X0445367Y0224650D01*
X0445503Y0224571D01*
X0445638Y0224487D01*
X0445771Y0224401D01*
X0445901Y0224311D01*
X0446029Y0224218D01*
X0446155Y0224122D01*
X0446278Y0224022D01*
X0446399Y0223920D01*
X0446517Y0223815D01*
X0446632Y0223706D01*
X0446745Y0223595D01*
X0446855Y0223481D01*
X0446962Y0223364D01*
X0447066Y0223245D01*
X0447167Y0223123D01*
X0447264Y0222998D01*
X0447359Y0222871D01*
X0447450Y0222742D01*
X0447539Y0222611D01*
X0447623Y0222477D01*
X0447705Y0222341D01*
X0447783Y0222204D01*
X0447857Y0222064D01*
X0447928Y0221922D01*
X0447996Y0221779D01*
X0448060Y0221634D01*
X0448120Y0221488D01*
X0448176Y0221340D01*
X0448229Y0221191D01*
X0448278Y0221040D01*
X0448323Y0220888D01*
X0448364Y0220735D01*
X0448402Y0220582D01*
X0448435Y0220427D01*
X0448465Y0220271D01*
X0448491Y0220115D01*
X0448512Y0219958D01*
X0448530Y0219801D01*
X0448544Y0219643D01*
X0448554Y0219485D01*
X0448560Y0219327D01*
X0448562Y0219169D01*
X0448560Y0219011D01*
X0448554Y0218853D01*
X0448544Y0218695D01*
X0448530Y0218537D01*
X0448512Y0218380D01*
X0448491Y0218223D01*
X0448465Y0218067D01*
X0448435Y0217911D01*
X0448402Y0217756D01*
X0448364Y0217603D01*
X0448323Y0217450D01*
X0448278Y0217298D01*
X0448229Y0217147D01*
X0448176Y0216998D01*
X0448120Y0216850D01*
X0448060Y0216704D01*
X0447996Y0216559D01*
X0447928Y0216416D01*
X0447857Y0216274D01*
X0447783Y0216134D01*
X0447705Y0215997D01*
X0447623Y0215861D01*
X0447539Y0215727D01*
X0447450Y0215596D01*
X0447359Y0215467D01*
X0447264Y0215340D01*
X0447167Y0215215D01*
X0447066Y0215093D01*
X0446962Y0214974D01*
X0446855Y0214857D01*
X0446745Y0214743D01*
X0446632Y0214632D01*
X0446517Y0214523D01*
X0446399Y0214418D01*
X0446278Y0214316D01*
X0446155Y0214216D01*
X0446029Y0214120D01*
X0445901Y0214027D01*
X0445771Y0213937D01*
X0445638Y0213851D01*
X0445503Y0213767D01*
X0445367Y0213688D01*
X0445228Y0213611D01*
X0445087Y0213539D01*
X0444945Y0213469D01*
X0444801Y0213404D01*
X0444655Y0213342D01*
X0444508Y0213284D01*
X0444359Y0213229D01*
X0444209Y0213178D01*
X0444058Y0213131D01*
X0443906Y0213088D01*
X0443753Y0213049D01*
X0443598Y0213013D01*
X0443443Y0212982D01*
X0443287Y0212954D01*
X0443131Y0212930D01*
X0442974Y0212910D01*
X0442816Y0212894D01*
X0442659Y0212882D01*
X0442500Y0212874D01*
X0442342Y0212870D01*
X0442184Y0212870D01*
X0442026Y0212874D01*
X0441867Y0212882D01*
X0441710Y0212894D01*
X0441552Y0212910D01*
X0441395Y0212930D01*
X0441239Y0212954D01*
X0441083Y0212982D01*
X0440928Y0213013D01*
X0440773Y0213049D01*
X0440620Y0213088D01*
X0440468Y0213131D01*
X0440317Y0213178D01*
X0440167Y0213229D01*
X0440018Y0213284D01*
X0439871Y0213342D01*
X0439725Y0213404D01*
X0439581Y0213469D01*
X0439439Y0213539D01*
X0439298Y0213611D01*
X0439159Y0213688D01*
X0439023Y0213767D01*
X0438888Y0213851D01*
X0438755Y0213937D01*
X0438625Y0214027D01*
X0438497Y0214120D01*
X0438371Y0214216D01*
X0438248Y0214316D01*
X0438127Y0214418D01*
X0438009Y0214523D01*
X0437894Y0214632D01*
X0437781Y0214743D01*
X0437671Y0214857D01*
X0437564Y0214974D01*
X0437460Y0215093D01*
X0437359Y0215215D01*
X0437262Y0215340D01*
X0437167Y0215467D01*
X0437076Y0215596D01*
X0436987Y0215727D01*
X0436903Y0215861D01*
X0436821Y0215997D01*
X0436743Y0216134D01*
X0436669Y0216274D01*
X0436598Y0216416D01*
X0436530Y0216559D01*
X0436466Y0216704D01*
X0436406Y0216850D01*
X0436350Y0216998D01*
X0436297Y0217147D01*
X0436248Y0217298D01*
X0436203Y0217450D01*
X0436162Y0217603D01*
X0436124Y0217756D01*
X0436091Y0217911D01*
X0436061Y0218067D01*
X0436035Y0218223D01*
X0436014Y0218380D01*
X0435996Y0218537D01*
X0435982Y0218695D01*
X0435972Y0218853D01*
X0435966Y0219011D01*
X0435964Y0219169D01*
X0442263Y0274287D02*
X0418247Y0274287D01*
X0442263Y0274287D02*
X0442644Y0274292D01*
X0443024Y0274305D01*
X0443404Y0274328D01*
X0443783Y0274361D01*
X0444161Y0274402D01*
X0444538Y0274452D01*
X0444914Y0274512D01*
X0445289Y0274580D01*
X0445661Y0274658D01*
X0446032Y0274745D01*
X0446400Y0274840D01*
X0446766Y0274945D01*
X0447129Y0275058D01*
X0447490Y0275180D01*
X0447847Y0275310D01*
X0448201Y0275450D01*
X0448552Y0275597D01*
X0448899Y0275754D01*
X0449242Y0275918D01*
X0449581Y0276091D01*
X0449916Y0276272D01*
X0450247Y0276461D01*
X0450572Y0276658D01*
X0450893Y0276862D01*
X0451209Y0277075D01*
X0451519Y0277295D01*
X0451825Y0277522D01*
X0452124Y0277757D01*
X0452418Y0277999D01*
X0452706Y0278247D01*
X0452988Y0278503D01*
X0453263Y0278766D01*
X0453532Y0279035D01*
X0453795Y0279310D01*
X0454051Y0279592D01*
X0454299Y0279880D01*
X0454541Y0280174D01*
X0454776Y0280473D01*
X0455003Y0280779D01*
X0455223Y0281089D01*
X0455436Y0281405D01*
X0455640Y0281726D01*
X0455837Y0282051D01*
X0456026Y0282382D01*
X0456207Y0282717D01*
X0456380Y0283056D01*
X0456544Y0283399D01*
X0456701Y0283746D01*
X0456848Y0284097D01*
X0456988Y0284451D01*
X0457118Y0284808D01*
X0457240Y0285169D01*
X0457353Y0285532D01*
X0457458Y0285898D01*
X0457553Y0286266D01*
X0457640Y0286637D01*
X0457718Y0287009D01*
X0457786Y0287384D01*
X0457846Y0287760D01*
X0457896Y0288137D01*
X0457937Y0288515D01*
X0457970Y0288894D01*
X0457993Y0289274D01*
X0458006Y0289654D01*
X0458011Y0290035D01*
X0458011Y0314051D01*
X0435964Y0290035D02*
X0435966Y0290193D01*
X0435972Y0290351D01*
X0435982Y0290509D01*
X0435996Y0290667D01*
X0436014Y0290824D01*
X0436035Y0290981D01*
X0436061Y0291137D01*
X0436091Y0291293D01*
X0436124Y0291448D01*
X0436162Y0291601D01*
X0436203Y0291754D01*
X0436248Y0291906D01*
X0436297Y0292057D01*
X0436350Y0292206D01*
X0436406Y0292354D01*
X0436466Y0292500D01*
X0436530Y0292645D01*
X0436598Y0292788D01*
X0436669Y0292930D01*
X0436743Y0293070D01*
X0436821Y0293207D01*
X0436903Y0293343D01*
X0436987Y0293477D01*
X0437076Y0293608D01*
X0437167Y0293737D01*
X0437262Y0293864D01*
X0437359Y0293989D01*
X0437460Y0294111D01*
X0437564Y0294230D01*
X0437671Y0294347D01*
X0437781Y0294461D01*
X0437894Y0294572D01*
X0438009Y0294681D01*
X0438127Y0294786D01*
X0438248Y0294888D01*
X0438371Y0294988D01*
X0438497Y0295084D01*
X0438625Y0295177D01*
X0438755Y0295267D01*
X0438888Y0295353D01*
X0439023Y0295437D01*
X0439159Y0295516D01*
X0439298Y0295593D01*
X0439439Y0295665D01*
X0439581Y0295735D01*
X0439725Y0295800D01*
X0439871Y0295862D01*
X0440018Y0295920D01*
X0440167Y0295975D01*
X0440317Y0296026D01*
X0440468Y0296073D01*
X0440620Y0296116D01*
X0440773Y0296155D01*
X0440928Y0296191D01*
X0441083Y0296222D01*
X0441239Y0296250D01*
X0441395Y0296274D01*
X0441552Y0296294D01*
X0441710Y0296310D01*
X0441867Y0296322D01*
X0442026Y0296330D01*
X0442184Y0296334D01*
X0442342Y0296334D01*
X0442500Y0296330D01*
X0442659Y0296322D01*
X0442816Y0296310D01*
X0442974Y0296294D01*
X0443131Y0296274D01*
X0443287Y0296250D01*
X0443443Y0296222D01*
X0443598Y0296191D01*
X0443753Y0296155D01*
X0443906Y0296116D01*
X0444058Y0296073D01*
X0444209Y0296026D01*
X0444359Y0295975D01*
X0444508Y0295920D01*
X0444655Y0295862D01*
X0444801Y0295800D01*
X0444945Y0295735D01*
X0445087Y0295665D01*
X0445228Y0295593D01*
X0445367Y0295516D01*
X0445503Y0295437D01*
X0445638Y0295353D01*
X0445771Y0295267D01*
X0445901Y0295177D01*
X0446029Y0295084D01*
X0446155Y0294988D01*
X0446278Y0294888D01*
X0446399Y0294786D01*
X0446517Y0294681D01*
X0446632Y0294572D01*
X0446745Y0294461D01*
X0446855Y0294347D01*
X0446962Y0294230D01*
X0447066Y0294111D01*
X0447167Y0293989D01*
X0447264Y0293864D01*
X0447359Y0293737D01*
X0447450Y0293608D01*
X0447539Y0293477D01*
X0447623Y0293343D01*
X0447705Y0293207D01*
X0447783Y0293070D01*
X0447857Y0292930D01*
X0447928Y0292788D01*
X0447996Y0292645D01*
X0448060Y0292500D01*
X0448120Y0292354D01*
X0448176Y0292206D01*
X0448229Y0292057D01*
X0448278Y0291906D01*
X0448323Y0291754D01*
X0448364Y0291601D01*
X0448402Y0291448D01*
X0448435Y0291293D01*
X0448465Y0291137D01*
X0448491Y0290981D01*
X0448512Y0290824D01*
X0448530Y0290667D01*
X0448544Y0290509D01*
X0448554Y0290351D01*
X0448560Y0290193D01*
X0448562Y0290035D01*
X0448560Y0289877D01*
X0448554Y0289719D01*
X0448544Y0289561D01*
X0448530Y0289403D01*
X0448512Y0289246D01*
X0448491Y0289089D01*
X0448465Y0288933D01*
X0448435Y0288777D01*
X0448402Y0288622D01*
X0448364Y0288469D01*
X0448323Y0288316D01*
X0448278Y0288164D01*
X0448229Y0288013D01*
X0448176Y0287864D01*
X0448120Y0287716D01*
X0448060Y0287570D01*
X0447996Y0287425D01*
X0447928Y0287282D01*
X0447857Y0287140D01*
X0447783Y0287000D01*
X0447705Y0286863D01*
X0447623Y0286727D01*
X0447539Y0286593D01*
X0447450Y0286462D01*
X0447359Y0286333D01*
X0447264Y0286206D01*
X0447167Y0286081D01*
X0447066Y0285959D01*
X0446962Y0285840D01*
X0446855Y0285723D01*
X0446745Y0285609D01*
X0446632Y0285498D01*
X0446517Y0285389D01*
X0446399Y0285284D01*
X0446278Y0285182D01*
X0446155Y0285082D01*
X0446029Y0284986D01*
X0445901Y0284893D01*
X0445771Y0284803D01*
X0445638Y0284717D01*
X0445503Y0284633D01*
X0445367Y0284554D01*
X0445228Y0284477D01*
X0445087Y0284405D01*
X0444945Y0284335D01*
X0444801Y0284270D01*
X0444655Y0284208D01*
X0444508Y0284150D01*
X0444359Y0284095D01*
X0444209Y0284044D01*
X0444058Y0283997D01*
X0443906Y0283954D01*
X0443753Y0283915D01*
X0443598Y0283879D01*
X0443443Y0283848D01*
X0443287Y0283820D01*
X0443131Y0283796D01*
X0442974Y0283776D01*
X0442816Y0283760D01*
X0442659Y0283748D01*
X0442500Y0283740D01*
X0442342Y0283736D01*
X0442184Y0283736D01*
X0442026Y0283740D01*
X0441867Y0283748D01*
X0441710Y0283760D01*
X0441552Y0283776D01*
X0441395Y0283796D01*
X0441239Y0283820D01*
X0441083Y0283848D01*
X0440928Y0283879D01*
X0440773Y0283915D01*
X0440620Y0283954D01*
X0440468Y0283997D01*
X0440317Y0284044D01*
X0440167Y0284095D01*
X0440018Y0284150D01*
X0439871Y0284208D01*
X0439725Y0284270D01*
X0439581Y0284335D01*
X0439439Y0284405D01*
X0439298Y0284477D01*
X0439159Y0284554D01*
X0439023Y0284633D01*
X0438888Y0284717D01*
X0438755Y0284803D01*
X0438625Y0284893D01*
X0438497Y0284986D01*
X0438371Y0285082D01*
X0438248Y0285182D01*
X0438127Y0285284D01*
X0438009Y0285389D01*
X0437894Y0285498D01*
X0437781Y0285609D01*
X0437671Y0285723D01*
X0437564Y0285840D01*
X0437460Y0285959D01*
X0437359Y0286081D01*
X0437262Y0286206D01*
X0437167Y0286333D01*
X0437076Y0286462D01*
X0436987Y0286593D01*
X0436903Y0286727D01*
X0436821Y0286863D01*
X0436743Y0287000D01*
X0436669Y0287140D01*
X0436598Y0287282D01*
X0436530Y0287425D01*
X0436466Y0287570D01*
X0436406Y0287716D01*
X0436350Y0287864D01*
X0436297Y0288013D01*
X0436248Y0288164D01*
X0436203Y0288316D01*
X0436162Y0288469D01*
X0436124Y0288622D01*
X0436091Y0288777D01*
X0436061Y0288933D01*
X0436035Y0289089D01*
X0436014Y0289246D01*
X0435996Y0289403D01*
X0435982Y0289561D01*
X0435972Y0289719D01*
X0435966Y0289877D01*
X0435964Y0290035D01*
X0458011Y0372319D02*
X0458011Y0396335D01*
X0458006Y0396716D01*
X0457993Y0397096D01*
X0457970Y0397476D01*
X0457937Y0397855D01*
X0457896Y0398233D01*
X0457846Y0398610D01*
X0457786Y0398986D01*
X0457718Y0399361D01*
X0457640Y0399733D01*
X0457553Y0400104D01*
X0457458Y0400472D01*
X0457353Y0400838D01*
X0457240Y0401201D01*
X0457118Y0401562D01*
X0456988Y0401919D01*
X0456848Y0402273D01*
X0456701Y0402624D01*
X0456544Y0402971D01*
X0456380Y0403314D01*
X0456207Y0403653D01*
X0456026Y0403988D01*
X0455837Y0404319D01*
X0455640Y0404644D01*
X0455436Y0404965D01*
X0455223Y0405281D01*
X0455003Y0405591D01*
X0454776Y0405897D01*
X0454541Y0406196D01*
X0454299Y0406490D01*
X0454051Y0406778D01*
X0453795Y0407060D01*
X0453532Y0407335D01*
X0453263Y0407604D01*
X0452988Y0407867D01*
X0452706Y0408123D01*
X0452418Y0408371D01*
X0452124Y0408613D01*
X0451825Y0408848D01*
X0451519Y0409075D01*
X0451209Y0409295D01*
X0450893Y0409508D01*
X0450572Y0409712D01*
X0450247Y0409909D01*
X0449916Y0410098D01*
X0449581Y0410279D01*
X0449242Y0410452D01*
X0448899Y0410616D01*
X0448552Y0410773D01*
X0448201Y0410920D01*
X0447847Y0411060D01*
X0447490Y0411190D01*
X0447129Y0411312D01*
X0446766Y0411425D01*
X0446400Y0411530D01*
X0446032Y0411625D01*
X0445661Y0411712D01*
X0445289Y0411790D01*
X0444914Y0411858D01*
X0444538Y0411918D01*
X0444161Y0411968D01*
X0443783Y0412009D01*
X0443404Y0412042D01*
X0443024Y0412065D01*
X0442644Y0412078D01*
X0442263Y0412083D01*
X0418247Y0412083D01*
X0435964Y0396335D02*
X0435966Y0396493D01*
X0435972Y0396651D01*
X0435982Y0396809D01*
X0435996Y0396967D01*
X0436014Y0397124D01*
X0436035Y0397281D01*
X0436061Y0397437D01*
X0436091Y0397593D01*
X0436124Y0397748D01*
X0436162Y0397901D01*
X0436203Y0398054D01*
X0436248Y0398206D01*
X0436297Y0398357D01*
X0436350Y0398506D01*
X0436406Y0398654D01*
X0436466Y0398800D01*
X0436530Y0398945D01*
X0436598Y0399088D01*
X0436669Y0399230D01*
X0436743Y0399370D01*
X0436821Y0399507D01*
X0436903Y0399643D01*
X0436987Y0399777D01*
X0437076Y0399908D01*
X0437167Y0400037D01*
X0437262Y0400164D01*
X0437359Y0400289D01*
X0437460Y0400411D01*
X0437564Y0400530D01*
X0437671Y0400647D01*
X0437781Y0400761D01*
X0437894Y0400872D01*
X0438009Y0400981D01*
X0438127Y0401086D01*
X0438248Y0401188D01*
X0438371Y0401288D01*
X0438497Y0401384D01*
X0438625Y0401477D01*
X0438755Y0401567D01*
X0438888Y0401653D01*
X0439023Y0401737D01*
X0439159Y0401816D01*
X0439298Y0401893D01*
X0439439Y0401965D01*
X0439581Y0402035D01*
X0439725Y0402100D01*
X0439871Y0402162D01*
X0440018Y0402220D01*
X0440167Y0402275D01*
X0440317Y0402326D01*
X0440468Y0402373D01*
X0440620Y0402416D01*
X0440773Y0402455D01*
X0440928Y0402491D01*
X0441083Y0402522D01*
X0441239Y0402550D01*
X0441395Y0402574D01*
X0441552Y0402594D01*
X0441710Y0402610D01*
X0441867Y0402622D01*
X0442026Y0402630D01*
X0442184Y0402634D01*
X0442342Y0402634D01*
X0442500Y0402630D01*
X0442659Y0402622D01*
X0442816Y0402610D01*
X0442974Y0402594D01*
X0443131Y0402574D01*
X0443287Y0402550D01*
X0443443Y0402522D01*
X0443598Y0402491D01*
X0443753Y0402455D01*
X0443906Y0402416D01*
X0444058Y0402373D01*
X0444209Y0402326D01*
X0444359Y0402275D01*
X0444508Y0402220D01*
X0444655Y0402162D01*
X0444801Y0402100D01*
X0444945Y0402035D01*
X0445087Y0401965D01*
X0445228Y0401893D01*
X0445367Y0401816D01*
X0445503Y0401737D01*
X0445638Y0401653D01*
X0445771Y0401567D01*
X0445901Y0401477D01*
X0446029Y0401384D01*
X0446155Y0401288D01*
X0446278Y0401188D01*
X0446399Y0401086D01*
X0446517Y0400981D01*
X0446632Y0400872D01*
X0446745Y0400761D01*
X0446855Y0400647D01*
X0446962Y0400530D01*
X0447066Y0400411D01*
X0447167Y0400289D01*
X0447264Y0400164D01*
X0447359Y0400037D01*
X0447450Y0399908D01*
X0447539Y0399777D01*
X0447623Y0399643D01*
X0447705Y0399507D01*
X0447783Y0399370D01*
X0447857Y0399230D01*
X0447928Y0399088D01*
X0447996Y0398945D01*
X0448060Y0398800D01*
X0448120Y0398654D01*
X0448176Y0398506D01*
X0448229Y0398357D01*
X0448278Y0398206D01*
X0448323Y0398054D01*
X0448364Y0397901D01*
X0448402Y0397748D01*
X0448435Y0397593D01*
X0448465Y0397437D01*
X0448491Y0397281D01*
X0448512Y0397124D01*
X0448530Y0396967D01*
X0448544Y0396809D01*
X0448554Y0396651D01*
X0448560Y0396493D01*
X0448562Y0396335D01*
X0448560Y0396177D01*
X0448554Y0396019D01*
X0448544Y0395861D01*
X0448530Y0395703D01*
X0448512Y0395546D01*
X0448491Y0395389D01*
X0448465Y0395233D01*
X0448435Y0395077D01*
X0448402Y0394922D01*
X0448364Y0394769D01*
X0448323Y0394616D01*
X0448278Y0394464D01*
X0448229Y0394313D01*
X0448176Y0394164D01*
X0448120Y0394016D01*
X0448060Y0393870D01*
X0447996Y0393725D01*
X0447928Y0393582D01*
X0447857Y0393440D01*
X0447783Y0393300D01*
X0447705Y0393163D01*
X0447623Y0393027D01*
X0447539Y0392893D01*
X0447450Y0392762D01*
X0447359Y0392633D01*
X0447264Y0392506D01*
X0447167Y0392381D01*
X0447066Y0392259D01*
X0446962Y0392140D01*
X0446855Y0392023D01*
X0446745Y0391909D01*
X0446632Y0391798D01*
X0446517Y0391689D01*
X0446399Y0391584D01*
X0446278Y0391482D01*
X0446155Y0391382D01*
X0446029Y0391286D01*
X0445901Y0391193D01*
X0445771Y0391103D01*
X0445638Y0391017D01*
X0445503Y0390933D01*
X0445367Y0390854D01*
X0445228Y0390777D01*
X0445087Y0390705D01*
X0444945Y0390635D01*
X0444801Y0390570D01*
X0444655Y0390508D01*
X0444508Y0390450D01*
X0444359Y0390395D01*
X0444209Y0390344D01*
X0444058Y0390297D01*
X0443906Y0390254D01*
X0443753Y0390215D01*
X0443598Y0390179D01*
X0443443Y0390148D01*
X0443287Y0390120D01*
X0443131Y0390096D01*
X0442974Y0390076D01*
X0442816Y0390060D01*
X0442659Y0390048D01*
X0442500Y0390040D01*
X0442342Y0390036D01*
X0442184Y0390036D01*
X0442026Y0390040D01*
X0441867Y0390048D01*
X0441710Y0390060D01*
X0441552Y0390076D01*
X0441395Y0390096D01*
X0441239Y0390120D01*
X0441083Y0390148D01*
X0440928Y0390179D01*
X0440773Y0390215D01*
X0440620Y0390254D01*
X0440468Y0390297D01*
X0440317Y0390344D01*
X0440167Y0390395D01*
X0440018Y0390450D01*
X0439871Y0390508D01*
X0439725Y0390570D01*
X0439581Y0390635D01*
X0439439Y0390705D01*
X0439298Y0390777D01*
X0439159Y0390854D01*
X0439023Y0390933D01*
X0438888Y0391017D01*
X0438755Y0391103D01*
X0438625Y0391193D01*
X0438497Y0391286D01*
X0438371Y0391382D01*
X0438248Y0391482D01*
X0438127Y0391584D01*
X0438009Y0391689D01*
X0437894Y0391798D01*
X0437781Y0391909D01*
X0437671Y0392023D01*
X0437564Y0392140D01*
X0437460Y0392259D01*
X0437359Y0392381D01*
X0437262Y0392506D01*
X0437167Y0392633D01*
X0437076Y0392762D01*
X0436987Y0392893D01*
X0436903Y0393027D01*
X0436821Y0393163D01*
X0436743Y0393300D01*
X0436669Y0393440D01*
X0436598Y0393582D01*
X0436530Y0393725D01*
X0436466Y0393870D01*
X0436406Y0394016D01*
X0436350Y0394164D01*
X0436297Y0394313D01*
X0436248Y0394464D01*
X0436203Y0394616D01*
X0436162Y0394769D01*
X0436124Y0394922D01*
X0436091Y0395077D01*
X0436061Y0395233D01*
X0436035Y0395389D01*
X0436014Y0395546D01*
X0435996Y0395703D01*
X0435982Y0395861D01*
X0435972Y0396019D01*
X0435966Y0396177D01*
X0435964Y0396335D01*
X0469822Y0431768D02*
X0469824Y0431961D01*
X0469831Y0432154D01*
X0469843Y0432347D01*
X0469860Y0432540D01*
X0469881Y0432732D01*
X0469907Y0432923D01*
X0469938Y0433114D01*
X0469973Y0433304D01*
X0470013Y0433493D01*
X0470058Y0433681D01*
X0470107Y0433868D01*
X0470161Y0434054D01*
X0470219Y0434238D01*
X0470282Y0434421D01*
X0470350Y0434602D01*
X0470421Y0434781D01*
X0470498Y0434959D01*
X0470578Y0435135D01*
X0470663Y0435308D01*
X0470752Y0435480D01*
X0470845Y0435649D01*
X0470942Y0435816D01*
X0471044Y0435981D01*
X0471149Y0436143D01*
X0471258Y0436302D01*
X0471372Y0436459D01*
X0471489Y0436612D01*
X0471609Y0436763D01*
X0471734Y0436911D01*
X0471862Y0437056D01*
X0471993Y0437197D01*
X0472128Y0437336D01*
X0472267Y0437471D01*
X0472408Y0437602D01*
X0472553Y0437730D01*
X0472701Y0437855D01*
X0472852Y0437975D01*
X0473005Y0438092D01*
X0473162Y0438206D01*
X0473321Y0438315D01*
X0473483Y0438420D01*
X0473648Y0438522D01*
X0473815Y0438619D01*
X0473984Y0438712D01*
X0474156Y0438801D01*
X0474329Y0438886D01*
X0474505Y0438966D01*
X0474683Y0439043D01*
X0474862Y0439114D01*
X0475043Y0439182D01*
X0475226Y0439245D01*
X0475410Y0439303D01*
X0475596Y0439357D01*
X0475783Y0439406D01*
X0475971Y0439451D01*
X0476160Y0439491D01*
X0476350Y0439526D01*
X0476541Y0439557D01*
X0476732Y0439583D01*
X0476924Y0439604D01*
X0477117Y0439621D01*
X0477310Y0439633D01*
X0477503Y0439640D01*
X0477696Y0439642D01*
X0477889Y0439640D01*
X0478082Y0439633D01*
X0478275Y0439621D01*
X0478468Y0439604D01*
X0478660Y0439583D01*
X0478851Y0439557D01*
X0479042Y0439526D01*
X0479232Y0439491D01*
X0479421Y0439451D01*
X0479609Y0439406D01*
X0479796Y0439357D01*
X0479982Y0439303D01*
X0480166Y0439245D01*
X0480349Y0439182D01*
X0480530Y0439114D01*
X0480709Y0439043D01*
X0480887Y0438966D01*
X0481063Y0438886D01*
X0481236Y0438801D01*
X0481408Y0438712D01*
X0481577Y0438619D01*
X0481744Y0438522D01*
X0481909Y0438420D01*
X0482071Y0438315D01*
X0482230Y0438206D01*
X0482387Y0438092D01*
X0482540Y0437975D01*
X0482691Y0437855D01*
X0482839Y0437730D01*
X0482984Y0437602D01*
X0483125Y0437471D01*
X0483264Y0437336D01*
X0483399Y0437197D01*
X0483530Y0437056D01*
X0483658Y0436911D01*
X0483783Y0436763D01*
X0483903Y0436612D01*
X0484020Y0436459D01*
X0484134Y0436302D01*
X0484243Y0436143D01*
X0484348Y0435981D01*
X0484450Y0435816D01*
X0484547Y0435649D01*
X0484640Y0435480D01*
X0484729Y0435308D01*
X0484814Y0435135D01*
X0484894Y0434959D01*
X0484971Y0434781D01*
X0485042Y0434602D01*
X0485110Y0434421D01*
X0485173Y0434238D01*
X0485231Y0434054D01*
X0485285Y0433868D01*
X0485334Y0433681D01*
X0485379Y0433493D01*
X0485419Y0433304D01*
X0485454Y0433114D01*
X0485485Y0432923D01*
X0485511Y0432732D01*
X0485532Y0432540D01*
X0485549Y0432347D01*
X0485561Y0432154D01*
X0485568Y0431961D01*
X0485570Y0431768D01*
X0485568Y0431575D01*
X0485561Y0431382D01*
X0485549Y0431189D01*
X0485532Y0430996D01*
X0485511Y0430804D01*
X0485485Y0430613D01*
X0485454Y0430422D01*
X0485419Y0430232D01*
X0485379Y0430043D01*
X0485334Y0429855D01*
X0485285Y0429668D01*
X0485231Y0429482D01*
X0485173Y0429298D01*
X0485110Y0429115D01*
X0485042Y0428934D01*
X0484971Y0428755D01*
X0484894Y0428577D01*
X0484814Y0428401D01*
X0484729Y0428228D01*
X0484640Y0428056D01*
X0484547Y0427887D01*
X0484450Y0427720D01*
X0484348Y0427555D01*
X0484243Y0427393D01*
X0484134Y0427234D01*
X0484020Y0427077D01*
X0483903Y0426924D01*
X0483783Y0426773D01*
X0483658Y0426625D01*
X0483530Y0426480D01*
X0483399Y0426339D01*
X0483264Y0426200D01*
X0483125Y0426065D01*
X0482984Y0425934D01*
X0482839Y0425806D01*
X0482691Y0425681D01*
X0482540Y0425561D01*
X0482387Y0425444D01*
X0482230Y0425330D01*
X0482071Y0425221D01*
X0481909Y0425116D01*
X0481744Y0425014D01*
X0481577Y0424917D01*
X0481408Y0424824D01*
X0481236Y0424735D01*
X0481063Y0424650D01*
X0480887Y0424570D01*
X0480709Y0424493D01*
X0480530Y0424422D01*
X0480349Y0424354D01*
X0480166Y0424291D01*
X0479982Y0424233D01*
X0479796Y0424179D01*
X0479609Y0424130D01*
X0479421Y0424085D01*
X0479232Y0424045D01*
X0479042Y0424010D01*
X0478851Y0423979D01*
X0478660Y0423953D01*
X0478468Y0423932D01*
X0478275Y0423915D01*
X0478082Y0423903D01*
X0477889Y0423896D01*
X0477696Y0423894D01*
X0477503Y0423896D01*
X0477310Y0423903D01*
X0477117Y0423915D01*
X0476924Y0423932D01*
X0476732Y0423953D01*
X0476541Y0423979D01*
X0476350Y0424010D01*
X0476160Y0424045D01*
X0475971Y0424085D01*
X0475783Y0424130D01*
X0475596Y0424179D01*
X0475410Y0424233D01*
X0475226Y0424291D01*
X0475043Y0424354D01*
X0474862Y0424422D01*
X0474683Y0424493D01*
X0474505Y0424570D01*
X0474329Y0424650D01*
X0474156Y0424735D01*
X0473984Y0424824D01*
X0473815Y0424917D01*
X0473648Y0425014D01*
X0473483Y0425116D01*
X0473321Y0425221D01*
X0473162Y0425330D01*
X0473005Y0425444D01*
X0472852Y0425561D01*
X0472701Y0425681D01*
X0472553Y0425806D01*
X0472408Y0425934D01*
X0472267Y0426065D01*
X0472128Y0426200D01*
X0471993Y0426339D01*
X0471862Y0426480D01*
X0471734Y0426625D01*
X0471609Y0426773D01*
X0471489Y0426924D01*
X0471372Y0427077D01*
X0471258Y0427234D01*
X0471149Y0427393D01*
X0471044Y0427555D01*
X0470942Y0427720D01*
X0470845Y0427887D01*
X0470752Y0428056D01*
X0470663Y0428228D01*
X0470578Y0428401D01*
X0470498Y0428577D01*
X0470421Y0428755D01*
X0470350Y0428934D01*
X0470282Y0429115D01*
X0470219Y0429298D01*
X0470161Y0429482D01*
X0470107Y0429668D01*
X0470058Y0429855D01*
X0470013Y0430043D01*
X0469973Y0430232D01*
X0469938Y0430422D01*
X0469907Y0430613D01*
X0469881Y0430804D01*
X0469860Y0430996D01*
X0469843Y0431189D01*
X0469831Y0431382D01*
X0469824Y0431575D01*
X0469822Y0431768D01*
D11*
X0458011Y0451453D02*
X0458011Y0057752D01*
X0505255Y0097122D02*
X0064310Y0097122D01*
X0103680Y0057752D02*
X0103680Y0451453D01*
X0064310Y0412083D02*
X0505255Y0412083D01*
X0505255Y0274287D02*
X0064310Y0274287D01*
X0064310Y0234917D02*
X0505255Y0234917D01*
X0300531Y0057752D02*
X0300531Y0451453D01*
X0261161Y0451453D02*
X0261161Y0057752D01*
D12*
X0201318Y0110902D02*
X0163917Y0110902D01*
X0163917Y0288067D02*
X0201318Y0288067D01*
X0360767Y0288067D02*
X0398169Y0288067D01*
X0398169Y0110902D02*
X0360767Y0110902D01*
D13*
X0336357Y0093185D02*
X0316279Y0093185D01*
X0315803Y0093191D01*
X0315328Y0093208D01*
X0314853Y0093237D01*
X0314379Y0093277D01*
X0313906Y0093329D01*
X0313435Y0093392D01*
X0312965Y0093466D01*
X0312497Y0093552D01*
X0312031Y0093649D01*
X0311568Y0093757D01*
X0311108Y0093876D01*
X0310650Y0094007D01*
X0310196Y0094148D01*
X0309745Y0094301D01*
X0309299Y0094464D01*
X0308856Y0094638D01*
X0308418Y0094823D01*
X0307984Y0095018D01*
X0307555Y0095224D01*
X0307131Y0095440D01*
X0306712Y0095666D01*
X0306299Y0095902D01*
X0305892Y0096148D01*
X0305491Y0096404D01*
X0305097Y0096670D01*
X0304708Y0096945D01*
X0304327Y0097229D01*
X0303953Y0097522D01*
X0303585Y0097824D01*
X0303225Y0098136D01*
X0302873Y0098455D01*
X0302529Y0098783D01*
X0302192Y0099120D01*
X0301864Y0099464D01*
X0301545Y0099816D01*
X0301233Y0100176D01*
X0300931Y0100544D01*
X0300638Y0100918D01*
X0300354Y0101299D01*
X0300079Y0101688D01*
X0299813Y0102082D01*
X0299557Y0102483D01*
X0299311Y0102890D01*
X0299075Y0103303D01*
X0298849Y0103722D01*
X0298633Y0104146D01*
X0298427Y0104575D01*
X0298232Y0105009D01*
X0298047Y0105447D01*
X0297873Y0105890D01*
X0297710Y0106336D01*
X0297557Y0106787D01*
X0297416Y0107241D01*
X0297285Y0107699D01*
X0297166Y0108159D01*
X0297058Y0108622D01*
X0296961Y0109088D01*
X0296875Y0109556D01*
X0296801Y0110026D01*
X0296738Y0110497D01*
X0296686Y0110970D01*
X0296646Y0111444D01*
X0296617Y0111919D01*
X0296600Y0112394D01*
X0296594Y0112870D01*
X0296594Y0132949D01*
X0265098Y0132949D02*
X0265098Y0112870D01*
X0265092Y0112394D01*
X0265075Y0111919D01*
X0265046Y0111444D01*
X0265006Y0110970D01*
X0264954Y0110497D01*
X0264891Y0110026D01*
X0264817Y0109556D01*
X0264731Y0109088D01*
X0264634Y0108622D01*
X0264526Y0108159D01*
X0264407Y0107699D01*
X0264276Y0107241D01*
X0264135Y0106787D01*
X0263982Y0106336D01*
X0263819Y0105890D01*
X0263645Y0105447D01*
X0263460Y0105009D01*
X0263265Y0104575D01*
X0263059Y0104146D01*
X0262843Y0103722D01*
X0262617Y0103303D01*
X0262381Y0102890D01*
X0262135Y0102483D01*
X0261879Y0102082D01*
X0261613Y0101688D01*
X0261338Y0101299D01*
X0261054Y0100918D01*
X0260761Y0100544D01*
X0260459Y0100176D01*
X0260147Y0099816D01*
X0259828Y0099464D01*
X0259500Y0099120D01*
X0259163Y0098783D01*
X0258819Y0098455D01*
X0258467Y0098136D01*
X0258107Y0097824D01*
X0257739Y0097522D01*
X0257365Y0097229D01*
X0256984Y0096945D01*
X0256595Y0096670D01*
X0256201Y0096404D01*
X0255800Y0096148D01*
X0255393Y0095902D01*
X0254980Y0095666D01*
X0254561Y0095440D01*
X0254137Y0095224D01*
X0253708Y0095018D01*
X0253274Y0094823D01*
X0252836Y0094638D01*
X0252393Y0094464D01*
X0251947Y0094301D01*
X0251496Y0094148D01*
X0251042Y0094007D01*
X0250584Y0093876D01*
X0250124Y0093757D01*
X0249661Y0093649D01*
X0249195Y0093552D01*
X0248727Y0093466D01*
X0248257Y0093392D01*
X0247786Y0093329D01*
X0247313Y0093277D01*
X0246839Y0093237D01*
X0246364Y0093208D01*
X0245889Y0093191D01*
X0245413Y0093185D01*
X0225334Y0093185D01*
X0139507Y0093185D02*
X0119428Y0093185D01*
X0118952Y0093191D01*
X0118477Y0093208D01*
X0118002Y0093237D01*
X0117528Y0093277D01*
X0117055Y0093329D01*
X0116584Y0093392D01*
X0116114Y0093466D01*
X0115646Y0093552D01*
X0115180Y0093649D01*
X0114717Y0093757D01*
X0114257Y0093876D01*
X0113799Y0094007D01*
X0113345Y0094148D01*
X0112894Y0094301D01*
X0112448Y0094464D01*
X0112005Y0094638D01*
X0111567Y0094823D01*
X0111133Y0095018D01*
X0110704Y0095224D01*
X0110280Y0095440D01*
X0109861Y0095666D01*
X0109448Y0095902D01*
X0109041Y0096148D01*
X0108640Y0096404D01*
X0108246Y0096670D01*
X0107857Y0096945D01*
X0107476Y0097229D01*
X0107102Y0097522D01*
X0106734Y0097824D01*
X0106374Y0098136D01*
X0106022Y0098455D01*
X0105678Y0098783D01*
X0105341Y0099120D01*
X0105013Y0099464D01*
X0104694Y0099816D01*
X0104382Y0100176D01*
X0104080Y0100544D01*
X0103787Y0100918D01*
X0103503Y0101299D01*
X0103228Y0101688D01*
X0102962Y0102082D01*
X0102706Y0102483D01*
X0102460Y0102890D01*
X0102224Y0103303D01*
X0101998Y0103722D01*
X0101782Y0104146D01*
X0101576Y0104575D01*
X0101381Y0105009D01*
X0101196Y0105447D01*
X0101022Y0105890D01*
X0100859Y0106336D01*
X0100706Y0106787D01*
X0100565Y0107241D01*
X0100434Y0107699D01*
X0100315Y0108159D01*
X0100207Y0108622D01*
X0100110Y0109088D01*
X0100024Y0109556D01*
X0099950Y0110026D01*
X0099887Y0110497D01*
X0099835Y0110970D01*
X0099795Y0111444D01*
X0099766Y0111919D01*
X0099749Y0112394D01*
X0099743Y0112870D01*
X0099743Y0132949D01*
X0099743Y0199091D02*
X0099743Y0219169D01*
X0099749Y0219645D01*
X0099766Y0220120D01*
X0099795Y0220595D01*
X0099835Y0221069D01*
X0099887Y0221542D01*
X0099950Y0222013D01*
X0100024Y0222483D01*
X0100110Y0222951D01*
X0100207Y0223417D01*
X0100315Y0223880D01*
X0100434Y0224340D01*
X0100565Y0224798D01*
X0100706Y0225252D01*
X0100859Y0225703D01*
X0101022Y0226149D01*
X0101196Y0226592D01*
X0101381Y0227030D01*
X0101576Y0227464D01*
X0101782Y0227893D01*
X0101998Y0228317D01*
X0102224Y0228736D01*
X0102460Y0229149D01*
X0102706Y0229556D01*
X0102962Y0229957D01*
X0103228Y0230351D01*
X0103503Y0230740D01*
X0103787Y0231121D01*
X0104080Y0231495D01*
X0104382Y0231863D01*
X0104694Y0232223D01*
X0105013Y0232575D01*
X0105341Y0232919D01*
X0105678Y0233256D01*
X0106022Y0233584D01*
X0106374Y0233903D01*
X0106734Y0234215D01*
X0107102Y0234517D01*
X0107476Y0234810D01*
X0107857Y0235094D01*
X0108246Y0235369D01*
X0108640Y0235635D01*
X0109041Y0235891D01*
X0109448Y0236137D01*
X0109861Y0236373D01*
X0110280Y0236599D01*
X0110704Y0236815D01*
X0111133Y0237021D01*
X0111567Y0237216D01*
X0112005Y0237401D01*
X0112448Y0237575D01*
X0112894Y0237738D01*
X0113345Y0237891D01*
X0113799Y0238032D01*
X0114257Y0238163D01*
X0114717Y0238282D01*
X0115180Y0238390D01*
X0115646Y0238487D01*
X0116114Y0238573D01*
X0116584Y0238647D01*
X0117055Y0238710D01*
X0117528Y0238762D01*
X0118002Y0238802D01*
X0118477Y0238831D01*
X0118952Y0238848D01*
X0119428Y0238854D01*
X0139507Y0238854D01*
X0139507Y0270350D02*
X0119428Y0270350D01*
X0118952Y0270356D01*
X0118477Y0270373D01*
X0118002Y0270402D01*
X0117528Y0270442D01*
X0117055Y0270494D01*
X0116584Y0270557D01*
X0116114Y0270631D01*
X0115646Y0270717D01*
X0115180Y0270814D01*
X0114717Y0270922D01*
X0114257Y0271041D01*
X0113799Y0271172D01*
X0113345Y0271313D01*
X0112894Y0271466D01*
X0112448Y0271629D01*
X0112005Y0271803D01*
X0111567Y0271988D01*
X0111133Y0272183D01*
X0110704Y0272389D01*
X0110280Y0272605D01*
X0109861Y0272831D01*
X0109448Y0273067D01*
X0109041Y0273313D01*
X0108640Y0273569D01*
X0108246Y0273835D01*
X0107857Y0274110D01*
X0107476Y0274394D01*
X0107102Y0274687D01*
X0106734Y0274989D01*
X0106374Y0275301D01*
X0106022Y0275620D01*
X0105678Y0275948D01*
X0105341Y0276285D01*
X0105013Y0276629D01*
X0104694Y0276981D01*
X0104382Y0277341D01*
X0104080Y0277709D01*
X0103787Y0278083D01*
X0103503Y0278464D01*
X0103228Y0278853D01*
X0102962Y0279247D01*
X0102706Y0279648D01*
X0102460Y0280055D01*
X0102224Y0280468D01*
X0101998Y0280887D01*
X0101782Y0281311D01*
X0101576Y0281740D01*
X0101381Y0282174D01*
X0101196Y0282612D01*
X0101022Y0283055D01*
X0100859Y0283501D01*
X0100706Y0283952D01*
X0100565Y0284406D01*
X0100434Y0284864D01*
X0100315Y0285324D01*
X0100207Y0285787D01*
X0100110Y0286253D01*
X0100024Y0286721D01*
X0099950Y0287191D01*
X0099887Y0287662D01*
X0099835Y0288135D01*
X0099795Y0288609D01*
X0099766Y0289084D01*
X0099749Y0289559D01*
X0099743Y0290035D01*
X0099743Y0310114D01*
X0099743Y0376256D02*
X0099743Y0396335D01*
X0099749Y0396811D01*
X0099766Y0397286D01*
X0099795Y0397761D01*
X0099835Y0398235D01*
X0099887Y0398708D01*
X0099950Y0399179D01*
X0100024Y0399649D01*
X0100110Y0400117D01*
X0100207Y0400583D01*
X0100315Y0401046D01*
X0100434Y0401506D01*
X0100565Y0401964D01*
X0100706Y0402418D01*
X0100859Y0402869D01*
X0101022Y0403315D01*
X0101196Y0403758D01*
X0101381Y0404196D01*
X0101576Y0404630D01*
X0101782Y0405059D01*
X0101998Y0405483D01*
X0102224Y0405902D01*
X0102460Y0406315D01*
X0102706Y0406722D01*
X0102962Y0407123D01*
X0103228Y0407517D01*
X0103503Y0407906D01*
X0103787Y0408287D01*
X0104080Y0408661D01*
X0104382Y0409029D01*
X0104694Y0409389D01*
X0105013Y0409741D01*
X0105341Y0410085D01*
X0105678Y0410422D01*
X0106022Y0410750D01*
X0106374Y0411069D01*
X0106734Y0411381D01*
X0107102Y0411683D01*
X0107476Y0411976D01*
X0107857Y0412260D01*
X0108246Y0412535D01*
X0108640Y0412801D01*
X0109041Y0413057D01*
X0109448Y0413303D01*
X0109861Y0413539D01*
X0110280Y0413765D01*
X0110704Y0413981D01*
X0111133Y0414187D01*
X0111567Y0414382D01*
X0112005Y0414567D01*
X0112448Y0414741D01*
X0112894Y0414904D01*
X0113345Y0415057D01*
X0113799Y0415198D01*
X0114257Y0415329D01*
X0114717Y0415448D01*
X0115180Y0415556D01*
X0115646Y0415653D01*
X0116114Y0415739D01*
X0116584Y0415813D01*
X0117055Y0415876D01*
X0117528Y0415928D01*
X0118002Y0415968D01*
X0118477Y0415997D01*
X0118952Y0416014D01*
X0119428Y0416020D01*
X0139507Y0416020D01*
X0225334Y0416020D02*
X0245413Y0416020D01*
X0245889Y0416014D01*
X0246364Y0415997D01*
X0246839Y0415968D01*
X0247313Y0415928D01*
X0247786Y0415876D01*
X0248257Y0415813D01*
X0248727Y0415739D01*
X0249195Y0415653D01*
X0249661Y0415556D01*
X0250124Y0415448D01*
X0250584Y0415329D01*
X0251042Y0415198D01*
X0251496Y0415057D01*
X0251947Y0414904D01*
X0252393Y0414741D01*
X0252836Y0414567D01*
X0253274Y0414382D01*
X0253708Y0414187D01*
X0254137Y0413981D01*
X0254561Y0413765D01*
X0254980Y0413539D01*
X0255393Y0413303D01*
X0255800Y0413057D01*
X0256201Y0412801D01*
X0256595Y0412535D01*
X0256984Y0412260D01*
X0257365Y0411976D01*
X0257739Y0411683D01*
X0258107Y0411381D01*
X0258467Y0411069D01*
X0258819Y0410750D01*
X0259163Y0410422D01*
X0259500Y0410085D01*
X0259828Y0409741D01*
X0260147Y0409389D01*
X0260459Y0409029D01*
X0260761Y0408661D01*
X0261054Y0408287D01*
X0261338Y0407906D01*
X0261613Y0407517D01*
X0261879Y0407123D01*
X0262135Y0406722D01*
X0262381Y0406315D01*
X0262617Y0405902D01*
X0262843Y0405483D01*
X0263059Y0405059D01*
X0263265Y0404630D01*
X0263460Y0404196D01*
X0263645Y0403758D01*
X0263819Y0403315D01*
X0263982Y0402869D01*
X0264135Y0402418D01*
X0264276Y0401964D01*
X0264407Y0401506D01*
X0264526Y0401046D01*
X0264634Y0400583D01*
X0264731Y0400117D01*
X0264817Y0399649D01*
X0264891Y0399179D01*
X0264954Y0398708D01*
X0265006Y0398235D01*
X0265046Y0397761D01*
X0265075Y0397286D01*
X0265092Y0396811D01*
X0265098Y0396335D01*
X0265098Y0376256D01*
X0296594Y0376256D02*
X0296594Y0396335D01*
X0296600Y0396811D01*
X0296617Y0397286D01*
X0296646Y0397761D01*
X0296686Y0398235D01*
X0296738Y0398708D01*
X0296801Y0399179D01*
X0296875Y0399649D01*
X0296961Y0400117D01*
X0297058Y0400583D01*
X0297166Y0401046D01*
X0297285Y0401506D01*
X0297416Y0401964D01*
X0297557Y0402418D01*
X0297710Y0402869D01*
X0297873Y0403315D01*
X0298047Y0403758D01*
X0298232Y0404196D01*
X0298427Y0404630D01*
X0298633Y0405059D01*
X0298849Y0405483D01*
X0299075Y0405902D01*
X0299311Y0406315D01*
X0299557Y0406722D01*
X0299813Y0407123D01*
X0300079Y0407517D01*
X0300354Y0407906D01*
X0300638Y0408287D01*
X0300931Y0408661D01*
X0301233Y0409029D01*
X0301545Y0409389D01*
X0301864Y0409741D01*
X0302192Y0410085D01*
X0302529Y0410422D01*
X0302873Y0410750D01*
X0303225Y0411069D01*
X0303585Y0411381D01*
X0303953Y0411683D01*
X0304327Y0411976D01*
X0304708Y0412260D01*
X0305097Y0412535D01*
X0305491Y0412801D01*
X0305892Y0413057D01*
X0306299Y0413303D01*
X0306712Y0413539D01*
X0307131Y0413765D01*
X0307555Y0413981D01*
X0307984Y0414187D01*
X0308418Y0414382D01*
X0308856Y0414567D01*
X0309299Y0414741D01*
X0309745Y0414904D01*
X0310196Y0415057D01*
X0310650Y0415198D01*
X0311108Y0415329D01*
X0311568Y0415448D01*
X0312031Y0415556D01*
X0312497Y0415653D01*
X0312965Y0415739D01*
X0313435Y0415813D01*
X0313906Y0415876D01*
X0314379Y0415928D01*
X0314853Y0415968D01*
X0315328Y0415997D01*
X0315803Y0416014D01*
X0316279Y0416020D01*
X0336357Y0416020D01*
X0422184Y0416020D02*
X0442263Y0416020D01*
X0442739Y0416014D01*
X0443214Y0415997D01*
X0443689Y0415968D01*
X0444163Y0415928D01*
X0444636Y0415876D01*
X0445107Y0415813D01*
X0445577Y0415739D01*
X0446045Y0415653D01*
X0446511Y0415556D01*
X0446974Y0415448D01*
X0447434Y0415329D01*
X0447892Y0415198D01*
X0448346Y0415057D01*
X0448797Y0414904D01*
X0449243Y0414741D01*
X0449686Y0414567D01*
X0450124Y0414382D01*
X0450558Y0414187D01*
X0450987Y0413981D01*
X0451411Y0413765D01*
X0451830Y0413539D01*
X0452243Y0413303D01*
X0452650Y0413057D01*
X0453051Y0412801D01*
X0453445Y0412535D01*
X0453834Y0412260D01*
X0454215Y0411976D01*
X0454589Y0411683D01*
X0454957Y0411381D01*
X0455317Y0411069D01*
X0455669Y0410750D01*
X0456013Y0410422D01*
X0456350Y0410085D01*
X0456678Y0409741D01*
X0456997Y0409389D01*
X0457309Y0409029D01*
X0457611Y0408661D01*
X0457904Y0408287D01*
X0458188Y0407906D01*
X0458463Y0407517D01*
X0458729Y0407123D01*
X0458985Y0406722D01*
X0459231Y0406315D01*
X0459467Y0405902D01*
X0459693Y0405483D01*
X0459909Y0405059D01*
X0460115Y0404630D01*
X0460310Y0404196D01*
X0460495Y0403758D01*
X0460669Y0403315D01*
X0460832Y0402869D01*
X0460985Y0402418D01*
X0461126Y0401964D01*
X0461257Y0401506D01*
X0461376Y0401046D01*
X0461484Y0400583D01*
X0461581Y0400117D01*
X0461667Y0399649D01*
X0461741Y0399179D01*
X0461804Y0398708D01*
X0461856Y0398235D01*
X0461896Y0397761D01*
X0461925Y0397286D01*
X0461942Y0396811D01*
X0461948Y0396335D01*
X0461948Y0376256D01*
X0461948Y0310114D02*
X0461948Y0290035D01*
X0461942Y0289559D01*
X0461925Y0289084D01*
X0461896Y0288609D01*
X0461856Y0288135D01*
X0461804Y0287662D01*
X0461741Y0287191D01*
X0461667Y0286721D01*
X0461581Y0286253D01*
X0461484Y0285787D01*
X0461376Y0285324D01*
X0461257Y0284864D01*
X0461126Y0284406D01*
X0460985Y0283952D01*
X0460832Y0283501D01*
X0460669Y0283055D01*
X0460495Y0282612D01*
X0460310Y0282174D01*
X0460115Y0281740D01*
X0459909Y0281311D01*
X0459693Y0280887D01*
X0459467Y0280468D01*
X0459231Y0280055D01*
X0458985Y0279648D01*
X0458729Y0279247D01*
X0458463Y0278853D01*
X0458188Y0278464D01*
X0457904Y0278083D01*
X0457611Y0277709D01*
X0457309Y0277341D01*
X0456997Y0276981D01*
X0456678Y0276629D01*
X0456350Y0276285D01*
X0456013Y0275948D01*
X0455669Y0275620D01*
X0455317Y0275301D01*
X0454957Y0274989D01*
X0454589Y0274687D01*
X0454215Y0274394D01*
X0453834Y0274110D01*
X0453445Y0273835D01*
X0453051Y0273569D01*
X0452650Y0273313D01*
X0452243Y0273067D01*
X0451830Y0272831D01*
X0451411Y0272605D01*
X0450987Y0272389D01*
X0450558Y0272183D01*
X0450124Y0271988D01*
X0449686Y0271803D01*
X0449243Y0271629D01*
X0448797Y0271466D01*
X0448346Y0271313D01*
X0447892Y0271172D01*
X0447434Y0271041D01*
X0446974Y0270922D01*
X0446511Y0270814D01*
X0446045Y0270717D01*
X0445577Y0270631D01*
X0445107Y0270557D01*
X0444636Y0270494D01*
X0444163Y0270442D01*
X0443689Y0270402D01*
X0443214Y0270373D01*
X0442739Y0270356D01*
X0442263Y0270350D01*
X0422184Y0270350D01*
X0422184Y0238854D02*
X0442263Y0238854D01*
X0442739Y0238848D01*
X0443214Y0238831D01*
X0443689Y0238802D01*
X0444163Y0238762D01*
X0444636Y0238710D01*
X0445107Y0238647D01*
X0445577Y0238573D01*
X0446045Y0238487D01*
X0446511Y0238390D01*
X0446974Y0238282D01*
X0447434Y0238163D01*
X0447892Y0238032D01*
X0448346Y0237891D01*
X0448797Y0237738D01*
X0449243Y0237575D01*
X0449686Y0237401D01*
X0450124Y0237216D01*
X0450558Y0237021D01*
X0450987Y0236815D01*
X0451411Y0236599D01*
X0451830Y0236373D01*
X0452243Y0236137D01*
X0452650Y0235891D01*
X0453051Y0235635D01*
X0453445Y0235369D01*
X0453834Y0235094D01*
X0454215Y0234810D01*
X0454589Y0234517D01*
X0454957Y0234215D01*
X0455317Y0233903D01*
X0455669Y0233584D01*
X0456013Y0233256D01*
X0456350Y0232919D01*
X0456678Y0232575D01*
X0456997Y0232223D01*
X0457309Y0231863D01*
X0457611Y0231495D01*
X0457904Y0231121D01*
X0458188Y0230740D01*
X0458463Y0230351D01*
X0458729Y0229957D01*
X0458985Y0229556D01*
X0459231Y0229149D01*
X0459467Y0228736D01*
X0459693Y0228317D01*
X0459909Y0227893D01*
X0460115Y0227464D01*
X0460310Y0227030D01*
X0460495Y0226592D01*
X0460669Y0226149D01*
X0460832Y0225703D01*
X0460985Y0225252D01*
X0461126Y0224798D01*
X0461257Y0224340D01*
X0461376Y0223880D01*
X0461484Y0223417D01*
X0461581Y0222951D01*
X0461667Y0222483D01*
X0461741Y0222013D01*
X0461804Y0221542D01*
X0461856Y0221069D01*
X0461896Y0220595D01*
X0461925Y0220120D01*
X0461942Y0219645D01*
X0461948Y0219169D01*
X0461948Y0199091D01*
X0461948Y0132949D02*
X0461948Y0112870D01*
X0461942Y0112394D01*
X0461925Y0111919D01*
X0461896Y0111444D01*
X0461856Y0110970D01*
X0461804Y0110497D01*
X0461741Y0110026D01*
X0461667Y0109556D01*
X0461581Y0109088D01*
X0461484Y0108622D01*
X0461376Y0108159D01*
X0461257Y0107699D01*
X0461126Y0107241D01*
X0460985Y0106787D01*
X0460832Y0106336D01*
X0460669Y0105890D01*
X0460495Y0105447D01*
X0460310Y0105009D01*
X0460115Y0104575D01*
X0459909Y0104146D01*
X0459693Y0103722D01*
X0459467Y0103303D01*
X0459231Y0102890D01*
X0458985Y0102483D01*
X0458729Y0102082D01*
X0458463Y0101688D01*
X0458188Y0101299D01*
X0457904Y0100918D01*
X0457611Y0100544D01*
X0457309Y0100176D01*
X0456997Y0099816D01*
X0456678Y0099464D01*
X0456350Y0099120D01*
X0456013Y0098783D01*
X0455669Y0098455D01*
X0455317Y0098136D01*
X0454957Y0097824D01*
X0454589Y0097522D01*
X0454215Y0097229D01*
X0453834Y0096945D01*
X0453445Y0096670D01*
X0453051Y0096404D01*
X0452650Y0096148D01*
X0452243Y0095902D01*
X0451830Y0095666D01*
X0451411Y0095440D01*
X0450987Y0095224D01*
X0450558Y0095018D01*
X0450124Y0094823D01*
X0449686Y0094638D01*
X0449243Y0094464D01*
X0448797Y0094301D01*
X0448346Y0094148D01*
X0447892Y0094007D01*
X0447434Y0093876D01*
X0446974Y0093757D01*
X0446511Y0093649D01*
X0446045Y0093552D01*
X0445577Y0093466D01*
X0445107Y0093392D01*
X0444636Y0093329D01*
X0444163Y0093277D01*
X0443689Y0093237D01*
X0443214Y0093208D01*
X0442739Y0093191D01*
X0442263Y0093185D01*
X0422184Y0093185D01*
X0296594Y0199091D02*
X0296594Y0219169D01*
X0296600Y0219645D01*
X0296617Y0220120D01*
X0296646Y0220595D01*
X0296686Y0221069D01*
X0296738Y0221542D01*
X0296801Y0222013D01*
X0296875Y0222483D01*
X0296961Y0222951D01*
X0297058Y0223417D01*
X0297166Y0223880D01*
X0297285Y0224340D01*
X0297416Y0224798D01*
X0297557Y0225252D01*
X0297710Y0225703D01*
X0297873Y0226149D01*
X0298047Y0226592D01*
X0298232Y0227030D01*
X0298427Y0227464D01*
X0298633Y0227893D01*
X0298849Y0228317D01*
X0299075Y0228736D01*
X0299311Y0229149D01*
X0299557Y0229556D01*
X0299813Y0229957D01*
X0300079Y0230351D01*
X0300354Y0230740D01*
X0300638Y0231121D01*
X0300931Y0231495D01*
X0301233Y0231863D01*
X0301545Y0232223D01*
X0301864Y0232575D01*
X0302192Y0232919D01*
X0302529Y0233256D01*
X0302873Y0233584D01*
X0303225Y0233903D01*
X0303585Y0234215D01*
X0303953Y0234517D01*
X0304327Y0234810D01*
X0304708Y0235094D01*
X0305097Y0235369D01*
X0305491Y0235635D01*
X0305892Y0235891D01*
X0306299Y0236137D01*
X0306712Y0236373D01*
X0307131Y0236599D01*
X0307555Y0236815D01*
X0307984Y0237021D01*
X0308418Y0237216D01*
X0308856Y0237401D01*
X0309299Y0237575D01*
X0309745Y0237738D01*
X0310196Y0237891D01*
X0310650Y0238032D01*
X0311108Y0238163D01*
X0311568Y0238282D01*
X0312031Y0238390D01*
X0312497Y0238487D01*
X0312965Y0238573D01*
X0313435Y0238647D01*
X0313906Y0238710D01*
X0314379Y0238762D01*
X0314853Y0238802D01*
X0315328Y0238831D01*
X0315803Y0238848D01*
X0316279Y0238854D01*
X0336357Y0238854D01*
X0336357Y0270350D02*
X0316279Y0270350D01*
X0315803Y0270356D01*
X0315328Y0270373D01*
X0314853Y0270402D01*
X0314379Y0270442D01*
X0313906Y0270494D01*
X0313435Y0270557D01*
X0312965Y0270631D01*
X0312497Y0270717D01*
X0312031Y0270814D01*
X0311568Y0270922D01*
X0311108Y0271041D01*
X0310650Y0271172D01*
X0310196Y0271313D01*
X0309745Y0271466D01*
X0309299Y0271629D01*
X0308856Y0271803D01*
X0308418Y0271988D01*
X0307984Y0272183D01*
X0307555Y0272389D01*
X0307131Y0272605D01*
X0306712Y0272831D01*
X0306299Y0273067D01*
X0305892Y0273313D01*
X0305491Y0273569D01*
X0305097Y0273835D01*
X0304708Y0274110D01*
X0304327Y0274394D01*
X0303953Y0274687D01*
X0303585Y0274989D01*
X0303225Y0275301D01*
X0302873Y0275620D01*
X0302529Y0275948D01*
X0302192Y0276285D01*
X0301864Y0276629D01*
X0301545Y0276981D01*
X0301233Y0277341D01*
X0300931Y0277709D01*
X0300638Y0278083D01*
X0300354Y0278464D01*
X0300079Y0278853D01*
X0299813Y0279247D01*
X0299557Y0279648D01*
X0299311Y0280055D01*
X0299075Y0280468D01*
X0298849Y0280887D01*
X0298633Y0281311D01*
X0298427Y0281740D01*
X0298232Y0282174D01*
X0298047Y0282612D01*
X0297873Y0283055D01*
X0297710Y0283501D01*
X0297557Y0283952D01*
X0297416Y0284406D01*
X0297285Y0284864D01*
X0297166Y0285324D01*
X0297058Y0285787D01*
X0296961Y0286253D01*
X0296875Y0286721D01*
X0296801Y0287191D01*
X0296738Y0287662D01*
X0296686Y0288135D01*
X0296646Y0288609D01*
X0296617Y0289084D01*
X0296600Y0289559D01*
X0296594Y0290035D01*
X0296594Y0310114D01*
X0265098Y0310114D02*
X0265098Y0290035D01*
X0265092Y0289559D01*
X0265075Y0289084D01*
X0265046Y0288609D01*
X0265006Y0288135D01*
X0264954Y0287662D01*
X0264891Y0287191D01*
X0264817Y0286721D01*
X0264731Y0286253D01*
X0264634Y0285787D01*
X0264526Y0285324D01*
X0264407Y0284864D01*
X0264276Y0284406D01*
X0264135Y0283952D01*
X0263982Y0283501D01*
X0263819Y0283055D01*
X0263645Y0282612D01*
X0263460Y0282174D01*
X0263265Y0281740D01*
X0263059Y0281311D01*
X0262843Y0280887D01*
X0262617Y0280468D01*
X0262381Y0280055D01*
X0262135Y0279648D01*
X0261879Y0279247D01*
X0261613Y0278853D01*
X0261338Y0278464D01*
X0261054Y0278083D01*
X0260761Y0277709D01*
X0260459Y0277341D01*
X0260147Y0276981D01*
X0259828Y0276629D01*
X0259500Y0276285D01*
X0259163Y0275948D01*
X0258819Y0275620D01*
X0258467Y0275301D01*
X0258107Y0274989D01*
X0257739Y0274687D01*
X0257365Y0274394D01*
X0256984Y0274110D01*
X0256595Y0273835D01*
X0256201Y0273569D01*
X0255800Y0273313D01*
X0255393Y0273067D01*
X0254980Y0272831D01*
X0254561Y0272605D01*
X0254137Y0272389D01*
X0253708Y0272183D01*
X0253274Y0271988D01*
X0252836Y0271803D01*
X0252393Y0271629D01*
X0251947Y0271466D01*
X0251496Y0271313D01*
X0251042Y0271172D01*
X0250584Y0271041D01*
X0250124Y0270922D01*
X0249661Y0270814D01*
X0249195Y0270717D01*
X0248727Y0270631D01*
X0248257Y0270557D01*
X0247786Y0270494D01*
X0247313Y0270442D01*
X0246839Y0270402D01*
X0246364Y0270373D01*
X0245889Y0270356D01*
X0245413Y0270350D01*
X0225334Y0270350D01*
X0225334Y0238854D02*
X0245413Y0238854D01*
X0245889Y0238848D01*
X0246364Y0238831D01*
X0246839Y0238802D01*
X0247313Y0238762D01*
X0247786Y0238710D01*
X0248257Y0238647D01*
X0248727Y0238573D01*
X0249195Y0238487D01*
X0249661Y0238390D01*
X0250124Y0238282D01*
X0250584Y0238163D01*
X0251042Y0238032D01*
X0251496Y0237891D01*
X0251947Y0237738D01*
X0252393Y0237575D01*
X0252836Y0237401D01*
X0253274Y0237216D01*
X0253708Y0237021D01*
X0254137Y0236815D01*
X0254561Y0236599D01*
X0254980Y0236373D01*
X0255393Y0236137D01*
X0255800Y0235891D01*
X0256201Y0235635D01*
X0256595Y0235369D01*
X0256984Y0235094D01*
X0257365Y0234810D01*
X0257739Y0234517D01*
X0258107Y0234215D01*
X0258467Y0233903D01*
X0258819Y0233584D01*
X0259163Y0233256D01*
X0259500Y0232919D01*
X0259828Y0232575D01*
X0260147Y0232223D01*
X0260459Y0231863D01*
X0260761Y0231495D01*
X0261054Y0231121D01*
X0261338Y0230740D01*
X0261613Y0230351D01*
X0261879Y0229957D01*
X0262135Y0229556D01*
X0262381Y0229149D01*
X0262617Y0228736D01*
X0262843Y0228317D01*
X0263059Y0227893D01*
X0263265Y0227464D01*
X0263460Y0227030D01*
X0263645Y0226592D01*
X0263819Y0226149D01*
X0263982Y0225703D01*
X0264135Y0225252D01*
X0264276Y0224798D01*
X0264407Y0224340D01*
X0264526Y0223880D01*
X0264634Y0223417D01*
X0264731Y0222951D01*
X0264817Y0222483D01*
X0264891Y0222013D01*
X0264954Y0221542D01*
X0265006Y0221069D01*
X0265046Y0220595D01*
X0265075Y0220120D01*
X0265092Y0219645D01*
X0265098Y0219169D01*
X0265098Y0199091D01*
M02*
