G75*
%MOIN*%
%OFA0B0*%
%FSLAX25Y25*%
%IPPOS*%
%LPD*%
%AMOC8*
5,1,8,0,0,1.08239X$1,22.5*
%
%ADD10C,0.00900*%
D10*
X0227661Y0151061D02*
X0228299Y0150423D01*
X0230213Y0150423D01*
X0230213Y0149147D02*
X0230213Y0152975D01*
X0228299Y0152975D01*
X0227661Y0152337D01*
X0227661Y0151061D01*
X0232011Y0150423D02*
X0232011Y0149785D01*
X0232649Y0149147D01*
X0233925Y0149147D01*
X0234563Y0149785D01*
X0233925Y0151061D02*
X0232649Y0151061D01*
X0232011Y0150423D01*
X0232011Y0152337D02*
X0232649Y0152975D01*
X0233925Y0152975D01*
X0234563Y0152337D01*
X0234563Y0151699D01*
X0233925Y0151061D01*
X0236187Y0152975D02*
X0237463Y0152975D01*
X0236825Y0152975D02*
X0236825Y0149147D01*
X0237463Y0149147D02*
X0236187Y0149147D01*
X0239261Y0149785D02*
X0239261Y0152337D01*
X0239899Y0152975D01*
X0241813Y0152975D01*
X0241813Y0149147D01*
X0239899Y0149147D01*
X0239261Y0149785D01*
X0239899Y0143132D02*
X0241175Y0143132D01*
X0241813Y0142494D01*
X0241813Y0139942D01*
X0241175Y0139304D01*
X0239899Y0139304D01*
X0239261Y0139942D01*
X0237463Y0139942D02*
X0236825Y0139304D01*
X0235549Y0139304D01*
X0234911Y0139942D01*
X0234911Y0140580D01*
X0235549Y0141218D01*
X0236825Y0141218D01*
X0237463Y0141856D01*
X0237463Y0142494D01*
X0236825Y0143132D01*
X0235549Y0143132D01*
X0234911Y0142494D01*
X0233113Y0143132D02*
X0233113Y0139304D01*
X0230561Y0139304D01*
X0230561Y0132896D02*
X0233113Y0130344D01*
X0232475Y0130982D02*
X0230561Y0129068D01*
X0233113Y0129068D02*
X0233113Y0132896D01*
X0234911Y0132258D02*
X0235549Y0132896D01*
X0236825Y0132896D01*
X0237463Y0132258D01*
X0237463Y0129706D01*
X0236825Y0129068D01*
X0235549Y0129068D01*
X0234911Y0129706D01*
X0239261Y0129706D02*
X0239899Y0129068D01*
X0241175Y0129068D01*
X0241813Y0129706D01*
X0241175Y0130982D02*
X0239899Y0130982D01*
X0239261Y0130344D01*
X0239261Y0129706D01*
X0241175Y0130982D02*
X0241813Y0131620D01*
X0241813Y0132258D01*
X0241175Y0132896D01*
X0239899Y0132896D01*
X0239261Y0132258D01*
X0239261Y0142494D02*
X0239899Y0143132D01*
X0239261Y0158989D02*
X0239261Y0162817D01*
X0240537Y0161541D01*
X0241813Y0162817D01*
X0241813Y0158989D01*
X0237463Y0158989D02*
X0236187Y0158989D01*
X0236825Y0158989D02*
X0236825Y0162817D01*
X0237463Y0162817D02*
X0236187Y0162817D01*
X0234563Y0162179D02*
X0234563Y0161541D01*
X0233925Y0160903D01*
X0232649Y0160903D01*
X0232011Y0160265D01*
X0232011Y0159627D01*
X0232649Y0158989D01*
X0233925Y0158989D01*
X0234563Y0159627D01*
X0234563Y0162179D02*
X0233925Y0162817D01*
X0232649Y0162817D01*
X0232011Y0162179D01*
X0230213Y0162179D02*
X0230213Y0159627D01*
X0229575Y0158989D01*
X0228299Y0158989D01*
X0227661Y0159627D01*
X0227661Y0162179D01*
X0228299Y0162817D01*
X0229575Y0162817D01*
X0230213Y0162179D01*
X0230561Y0169226D02*
X0231837Y0170501D01*
X0231199Y0170501D02*
X0233113Y0170501D01*
X0233113Y0169226D02*
X0233113Y0173053D01*
X0231199Y0173053D01*
X0230561Y0172415D01*
X0230561Y0171139D01*
X0231199Y0170501D01*
X0234911Y0170501D02*
X0234911Y0169864D01*
X0235549Y0169226D01*
X0236825Y0169226D01*
X0237463Y0169864D01*
X0236825Y0171139D02*
X0235549Y0171139D01*
X0234911Y0170501D01*
X0234911Y0172415D02*
X0235549Y0173053D01*
X0236825Y0173053D01*
X0237463Y0172415D01*
X0237463Y0171777D01*
X0236825Y0171139D01*
X0239261Y0169864D02*
X0239899Y0169226D01*
X0241175Y0169226D01*
X0241813Y0169864D01*
X0241813Y0172415D01*
X0241175Y0173053D01*
X0239899Y0173053D01*
X0239261Y0172415D01*
X0242263Y0174850D02*
X0229212Y0174850D01*
X0228762Y0179068D02*
X0227487Y0179068D01*
X0228125Y0179068D02*
X0228125Y0182896D01*
X0228762Y0182896D02*
X0227487Y0182896D01*
X0230561Y0182258D02*
X0231199Y0182896D01*
X0232475Y0182896D01*
X0233113Y0182258D01*
X0233113Y0181620D01*
X0232475Y0180982D01*
X0231199Y0180982D01*
X0230561Y0180344D01*
X0230561Y0179706D01*
X0231199Y0179068D01*
X0232475Y0179068D01*
X0233113Y0179706D01*
X0234911Y0179706D02*
X0234911Y0182258D01*
X0235549Y0182896D01*
X0236825Y0182896D01*
X0237463Y0182258D01*
X0237463Y0179706D01*
X0236825Y0179068D01*
X0235549Y0179068D01*
X0234911Y0179706D01*
X0239261Y0179068D02*
X0239261Y0182896D01*
X0240537Y0181620D01*
X0241813Y0182896D01*
X0241813Y0179068D01*
X0241175Y0189304D02*
X0239899Y0189304D01*
X0239261Y0189942D01*
X0239261Y0191218D01*
X0240537Y0191218D01*
X0241813Y0192494D02*
X0241813Y0189942D01*
X0241175Y0189304D01*
X0241813Y0192494D02*
X0241175Y0193132D01*
X0239899Y0193132D01*
X0239261Y0192494D01*
X0237463Y0193132D02*
X0234911Y0189304D01*
X0234911Y0193132D01*
X0233113Y0193132D02*
X0233113Y0189304D01*
X0231199Y0189304D01*
X0230561Y0189942D01*
X0230561Y0192494D01*
X0231199Y0193132D01*
X0233113Y0193132D01*
X0237463Y0193132D02*
X0237463Y0189304D01*
X0236187Y0199147D02*
X0234911Y0200423D01*
X0234911Y0202975D01*
X0237463Y0202975D02*
X0237463Y0200423D01*
X0236187Y0199147D01*
X0239261Y0199785D02*
X0239261Y0201061D01*
X0239899Y0201699D01*
X0240537Y0201699D01*
X0241813Y0201061D01*
X0241813Y0202975D01*
X0239261Y0202975D01*
X0239261Y0199785D02*
X0239899Y0199147D01*
X0241175Y0199147D01*
X0241813Y0199785D01*
X0241175Y0306233D02*
X0241813Y0306871D01*
X0241175Y0306233D02*
X0239899Y0306233D01*
X0239261Y0306871D01*
X0239261Y0307509D01*
X0239899Y0308147D01*
X0241175Y0308147D01*
X0241813Y0308785D01*
X0241813Y0309423D01*
X0241175Y0310061D01*
X0239899Y0310061D01*
X0239261Y0309423D01*
X0237463Y0309423D02*
X0237463Y0306871D01*
X0236825Y0306233D01*
X0235549Y0306233D01*
X0234911Y0306871D01*
X0233113Y0306233D02*
X0233113Y0310061D01*
X0234911Y0309423D02*
X0235549Y0310061D01*
X0236825Y0310061D01*
X0237463Y0309423D01*
X0233113Y0307509D02*
X0230561Y0310061D01*
X0232475Y0308147D02*
X0230561Y0306233D01*
X0230561Y0316470D02*
X0233113Y0316470D01*
X0233113Y0320297D01*
X0234911Y0319659D02*
X0235549Y0320297D01*
X0236825Y0320297D01*
X0237463Y0319659D01*
X0237463Y0319021D01*
X0236825Y0318384D01*
X0235549Y0318384D01*
X0234911Y0317746D01*
X0234911Y0317108D01*
X0235549Y0316470D01*
X0236825Y0316470D01*
X0237463Y0317108D01*
X0239261Y0317108D02*
X0239899Y0316470D01*
X0241175Y0316470D01*
X0241813Y0317108D01*
X0241813Y0319659D01*
X0241175Y0320297D01*
X0239899Y0320297D01*
X0239261Y0319659D01*
X0239899Y0326312D02*
X0239261Y0326950D01*
X0239261Y0329502D01*
X0239899Y0330140D01*
X0241813Y0330140D01*
X0241813Y0326312D01*
X0239899Y0326312D01*
X0237463Y0326312D02*
X0236187Y0326312D01*
X0236825Y0326312D02*
X0236825Y0330140D01*
X0237463Y0330140D02*
X0236187Y0330140D01*
X0234563Y0329502D02*
X0234563Y0328864D01*
X0233925Y0328226D01*
X0232649Y0328226D01*
X0232011Y0327588D01*
X0232011Y0326950D01*
X0232649Y0326312D01*
X0233925Y0326312D01*
X0234563Y0326950D01*
X0234563Y0329502D02*
X0233925Y0330140D01*
X0232649Y0330140D01*
X0232011Y0329502D01*
X0230213Y0330140D02*
X0228299Y0330140D01*
X0227661Y0329502D01*
X0227661Y0328226D01*
X0228299Y0327588D01*
X0230213Y0327588D01*
X0230213Y0326312D02*
X0230213Y0330140D01*
X0229575Y0336155D02*
X0228299Y0336155D01*
X0227661Y0336793D01*
X0227661Y0339344D01*
X0228299Y0339982D01*
X0229575Y0339982D01*
X0230213Y0339344D01*
X0230213Y0336793D01*
X0229575Y0336155D01*
X0232011Y0336793D02*
X0232649Y0336155D01*
X0233925Y0336155D01*
X0234563Y0336793D01*
X0233925Y0338069D02*
X0232649Y0338069D01*
X0232011Y0337431D01*
X0232011Y0336793D01*
X0233925Y0338069D02*
X0234563Y0338707D01*
X0234563Y0339344D01*
X0233925Y0339982D01*
X0232649Y0339982D01*
X0232011Y0339344D01*
X0236187Y0339982D02*
X0237463Y0339982D01*
X0236825Y0339982D02*
X0236825Y0336155D01*
X0237463Y0336155D02*
X0236187Y0336155D01*
X0239261Y0336155D02*
X0239261Y0339982D01*
X0240537Y0338707D01*
X0241813Y0339982D01*
X0241813Y0336155D01*
X0241175Y0346391D02*
X0239899Y0346391D01*
X0239261Y0347029D01*
X0237463Y0347029D02*
X0236825Y0346391D01*
X0235549Y0346391D01*
X0234911Y0347029D01*
X0234911Y0347667D01*
X0235549Y0348305D01*
X0236825Y0348305D01*
X0237463Y0348943D01*
X0237463Y0349581D01*
X0236825Y0350219D01*
X0235549Y0350219D01*
X0234911Y0349581D01*
X0233113Y0350219D02*
X0233113Y0346391D01*
X0233113Y0347667D02*
X0231199Y0347667D01*
X0230561Y0348305D01*
X0230561Y0349581D01*
X0231199Y0350219D01*
X0233113Y0350219D01*
X0231837Y0347667D02*
X0230561Y0346391D01*
X0229212Y0352015D02*
X0242263Y0352015D01*
X0241175Y0350219D02*
X0241813Y0349581D01*
X0241813Y0347029D01*
X0241175Y0346391D01*
X0239261Y0349581D02*
X0239899Y0350219D01*
X0241175Y0350219D01*
X0241813Y0356233D02*
X0241813Y0360061D01*
X0240537Y0358785D01*
X0239261Y0360061D01*
X0239261Y0356233D01*
X0237463Y0356871D02*
X0237463Y0359423D01*
X0236825Y0360061D01*
X0235549Y0360061D01*
X0234911Y0359423D01*
X0234911Y0356871D01*
X0235549Y0356233D01*
X0236825Y0356233D01*
X0237463Y0356871D01*
X0233113Y0356871D02*
X0232475Y0356233D01*
X0231199Y0356233D01*
X0230561Y0356871D01*
X0230561Y0357509D01*
X0231199Y0358147D01*
X0232475Y0358147D01*
X0233113Y0358785D01*
X0233113Y0359423D01*
X0232475Y0360061D01*
X0231199Y0360061D01*
X0230561Y0359423D01*
X0228762Y0360061D02*
X0227487Y0360061D01*
X0228125Y0360061D02*
X0228125Y0356233D01*
X0228762Y0356233D02*
X0227487Y0356233D01*
X0231199Y0366470D02*
X0230561Y0367108D01*
X0230561Y0369659D01*
X0231199Y0370297D01*
X0233113Y0370297D01*
X0233113Y0366470D01*
X0231199Y0366470D01*
X0234911Y0366470D02*
X0234911Y0370297D01*
X0237463Y0370297D02*
X0234911Y0366470D01*
X0237463Y0366470D02*
X0237463Y0370297D01*
X0239261Y0369659D02*
X0239899Y0370297D01*
X0241175Y0370297D01*
X0241813Y0369659D01*
X0241813Y0367108D01*
X0241175Y0366470D01*
X0239899Y0366470D01*
X0239261Y0367108D01*
X0239261Y0368384D01*
X0240537Y0368384D01*
X0239899Y0376312D02*
X0241175Y0376312D01*
X0241813Y0376950D01*
X0241813Y0378226D02*
X0240537Y0378864D01*
X0239899Y0378864D01*
X0239261Y0378226D01*
X0239261Y0376950D01*
X0239899Y0376312D01*
X0241813Y0378226D02*
X0241813Y0380140D01*
X0239261Y0380140D01*
X0237463Y0380140D02*
X0237463Y0377588D01*
X0236187Y0376312D01*
X0234911Y0377588D01*
X0234911Y0380140D01*
X0424337Y0360061D02*
X0425613Y0360061D01*
X0424975Y0360061D02*
X0424975Y0356233D01*
X0425613Y0356233D02*
X0424337Y0356233D01*
X0427411Y0356871D02*
X0428049Y0356233D01*
X0429325Y0356233D01*
X0429963Y0356871D01*
X0429325Y0358147D02*
X0428049Y0358147D01*
X0427411Y0357509D01*
X0427411Y0356871D01*
X0429325Y0358147D02*
X0429963Y0358785D01*
X0429963Y0359423D01*
X0429325Y0360061D01*
X0428049Y0360061D01*
X0427411Y0359423D01*
X0431761Y0359423D02*
X0431761Y0356871D01*
X0432399Y0356233D01*
X0433675Y0356233D01*
X0434313Y0356871D01*
X0434313Y0359423D01*
X0433675Y0360061D01*
X0432399Y0360061D01*
X0431761Y0359423D01*
X0436112Y0360061D02*
X0436112Y0356233D01*
X0438663Y0356233D02*
X0438663Y0360061D01*
X0437387Y0358785D01*
X0436112Y0360061D01*
X0436750Y0366470D02*
X0436112Y0367108D01*
X0436112Y0368384D01*
X0437387Y0368384D01*
X0436112Y0369659D02*
X0436750Y0370297D01*
X0438025Y0370297D01*
X0438663Y0369659D01*
X0438663Y0367108D01*
X0438025Y0366470D01*
X0436750Y0366470D01*
X0434313Y0366470D02*
X0434313Y0370297D01*
X0431761Y0366470D01*
X0431761Y0370297D01*
X0429963Y0370297D02*
X0429963Y0366470D01*
X0428049Y0366470D01*
X0427411Y0367108D01*
X0427411Y0369659D01*
X0428049Y0370297D01*
X0429963Y0370297D01*
X0433037Y0376312D02*
X0431761Y0377588D01*
X0431761Y0380140D01*
X0434313Y0380140D02*
X0434313Y0377588D01*
X0433037Y0376312D01*
X0436112Y0376950D02*
X0436112Y0378226D01*
X0436750Y0378864D01*
X0437387Y0378864D01*
X0438663Y0378226D01*
X0438663Y0380140D01*
X0436112Y0380140D01*
X0436112Y0376950D02*
X0436750Y0376312D01*
X0438025Y0376312D01*
X0438663Y0376950D01*
X0439113Y0352015D02*
X0426063Y0352015D01*
X0428049Y0350219D02*
X0427411Y0349581D01*
X0427411Y0348305D01*
X0428049Y0347667D01*
X0429963Y0347667D01*
X0428687Y0347667D02*
X0427411Y0346391D01*
X0429963Y0346391D02*
X0429963Y0350219D01*
X0428049Y0350219D01*
X0431761Y0349581D02*
X0432399Y0350219D01*
X0433675Y0350219D01*
X0434313Y0349581D01*
X0434313Y0348943D01*
X0433675Y0348305D01*
X0432399Y0348305D01*
X0431761Y0347667D01*
X0431761Y0347029D01*
X0432399Y0346391D01*
X0433675Y0346391D01*
X0434313Y0347029D01*
X0436112Y0347029D02*
X0436750Y0346391D01*
X0438025Y0346391D01*
X0438663Y0347029D01*
X0438663Y0349581D01*
X0438025Y0350219D01*
X0436750Y0350219D01*
X0436112Y0349581D01*
X0436112Y0339982D02*
X0436112Y0336155D01*
X0434313Y0336155D02*
X0433037Y0336155D01*
X0433675Y0336155D02*
X0433675Y0339982D01*
X0434313Y0339982D02*
X0433037Y0339982D01*
X0431413Y0339344D02*
X0431413Y0338707D01*
X0430775Y0338069D01*
X0429499Y0338069D01*
X0428861Y0337431D01*
X0428861Y0336793D01*
X0429499Y0336155D01*
X0430775Y0336155D01*
X0431413Y0336793D01*
X0431413Y0339344D02*
X0430775Y0339982D01*
X0429499Y0339982D01*
X0428861Y0339344D01*
X0427063Y0339344D02*
X0427063Y0336793D01*
X0426425Y0336155D01*
X0425149Y0336155D01*
X0424511Y0336793D01*
X0424511Y0339344D01*
X0425149Y0339982D01*
X0426425Y0339982D01*
X0427063Y0339344D01*
X0436112Y0339982D02*
X0437387Y0338707D01*
X0438663Y0339982D01*
X0438663Y0336155D01*
X0438663Y0330140D02*
X0436750Y0330140D01*
X0436112Y0329502D01*
X0436112Y0326950D01*
X0436750Y0326312D01*
X0438663Y0326312D01*
X0438663Y0330140D01*
X0434313Y0330140D02*
X0433037Y0330140D01*
X0433675Y0330140D02*
X0433675Y0326312D01*
X0434313Y0326312D02*
X0433037Y0326312D01*
X0431413Y0326950D02*
X0430775Y0326312D01*
X0429499Y0326312D01*
X0428861Y0326950D01*
X0428861Y0327588D01*
X0429499Y0328226D01*
X0430775Y0328226D01*
X0431413Y0328864D01*
X0431413Y0329502D01*
X0430775Y0330140D01*
X0429499Y0330140D01*
X0428861Y0329502D01*
X0427063Y0330140D02*
X0425149Y0330140D01*
X0424511Y0329502D01*
X0424511Y0328226D01*
X0425149Y0327588D01*
X0427063Y0327588D01*
X0427063Y0326312D02*
X0427063Y0330140D01*
X0429963Y0320297D02*
X0429963Y0316470D01*
X0427411Y0316470D01*
X0431761Y0317108D02*
X0432399Y0316470D01*
X0433675Y0316470D01*
X0434313Y0317108D01*
X0433675Y0318384D02*
X0432399Y0318384D01*
X0431761Y0317746D01*
X0431761Y0317108D01*
X0433675Y0318384D02*
X0434313Y0319021D01*
X0434313Y0319659D01*
X0433675Y0320297D01*
X0432399Y0320297D01*
X0431761Y0319659D01*
X0436112Y0319659D02*
X0436750Y0320297D01*
X0438025Y0320297D01*
X0438663Y0319659D01*
X0438663Y0317108D01*
X0438025Y0316470D01*
X0436750Y0316470D01*
X0436112Y0317108D01*
X0436750Y0310061D02*
X0438025Y0310061D01*
X0438663Y0309423D01*
X0438663Y0308785D01*
X0438025Y0308147D01*
X0436750Y0308147D01*
X0436112Y0307509D01*
X0436112Y0306871D01*
X0436750Y0306233D01*
X0438025Y0306233D01*
X0438663Y0306871D01*
X0436112Y0309423D02*
X0436750Y0310061D01*
X0434313Y0309423D02*
X0434313Y0306871D01*
X0433675Y0306233D01*
X0432399Y0306233D01*
X0431761Y0306871D01*
X0429963Y0306233D02*
X0429963Y0310061D01*
X0431761Y0309423D02*
X0432399Y0310061D01*
X0433675Y0310061D01*
X0434313Y0309423D01*
X0429963Y0307509D02*
X0427411Y0310061D01*
X0429325Y0308147D02*
X0427411Y0306233D01*
X0431761Y0202975D02*
X0431761Y0200423D01*
X0433037Y0199147D01*
X0434313Y0200423D01*
X0434313Y0202975D01*
X0436112Y0202975D02*
X0438663Y0202975D01*
X0438663Y0201061D01*
X0437387Y0201699D01*
X0436750Y0201699D01*
X0436112Y0201061D01*
X0436112Y0199785D01*
X0436750Y0199147D01*
X0438025Y0199147D01*
X0438663Y0199785D01*
X0438025Y0193132D02*
X0438663Y0192494D01*
X0438663Y0189942D01*
X0438025Y0189304D01*
X0436750Y0189304D01*
X0436112Y0189942D01*
X0436112Y0191218D01*
X0437387Y0191218D01*
X0436112Y0192494D02*
X0436750Y0193132D01*
X0438025Y0193132D01*
X0434313Y0193132D02*
X0431761Y0189304D01*
X0431761Y0193132D01*
X0429963Y0193132D02*
X0429963Y0189304D01*
X0428049Y0189304D01*
X0427411Y0189942D01*
X0427411Y0192494D01*
X0428049Y0193132D01*
X0429963Y0193132D01*
X0434313Y0193132D02*
X0434313Y0189304D01*
X0433675Y0182896D02*
X0434313Y0182258D01*
X0434313Y0179706D01*
X0433675Y0179068D01*
X0432399Y0179068D01*
X0431761Y0179706D01*
X0431761Y0182258D01*
X0432399Y0182896D01*
X0433675Y0182896D01*
X0436112Y0182896D02*
X0436112Y0179068D01*
X0438663Y0179068D02*
X0438663Y0182896D01*
X0437387Y0181620D01*
X0436112Y0182896D01*
X0429963Y0182258D02*
X0429963Y0181620D01*
X0429325Y0180982D01*
X0428049Y0180982D01*
X0427411Y0180344D01*
X0427411Y0179706D01*
X0428049Y0179068D01*
X0429325Y0179068D01*
X0429963Y0179706D01*
X0429963Y0182258D02*
X0429325Y0182896D01*
X0428049Y0182896D01*
X0427411Y0182258D01*
X0425613Y0182896D02*
X0424337Y0182896D01*
X0424975Y0182896D02*
X0424975Y0179068D01*
X0425613Y0179068D02*
X0424337Y0179068D01*
X0426063Y0174850D02*
X0439113Y0174850D01*
X0438025Y0173053D02*
X0438663Y0172415D01*
X0438663Y0169864D01*
X0438025Y0169226D01*
X0436750Y0169226D01*
X0436112Y0169864D01*
X0434313Y0169864D02*
X0433675Y0169226D01*
X0432399Y0169226D01*
X0431761Y0169864D01*
X0431761Y0170501D01*
X0432399Y0171139D01*
X0433675Y0171139D01*
X0434313Y0171777D01*
X0434313Y0172415D01*
X0433675Y0173053D01*
X0432399Y0173053D01*
X0431761Y0172415D01*
X0429963Y0173053D02*
X0429963Y0169226D01*
X0429963Y0170501D02*
X0428049Y0170501D01*
X0427411Y0171139D01*
X0427411Y0172415D01*
X0428049Y0173053D01*
X0429963Y0173053D01*
X0428687Y0170501D02*
X0427411Y0169226D01*
X0426425Y0162817D02*
X0425149Y0162817D01*
X0424511Y0162179D01*
X0424511Y0159627D01*
X0425149Y0158989D01*
X0426425Y0158989D01*
X0427063Y0159627D01*
X0427063Y0162179D01*
X0426425Y0162817D01*
X0428861Y0162179D02*
X0429499Y0162817D01*
X0430775Y0162817D01*
X0431413Y0162179D01*
X0431413Y0161541D01*
X0430775Y0160903D01*
X0429499Y0160903D01*
X0428861Y0160265D01*
X0428861Y0159627D01*
X0429499Y0158989D01*
X0430775Y0158989D01*
X0431413Y0159627D01*
X0433037Y0158989D02*
X0434313Y0158989D01*
X0433675Y0158989D02*
X0433675Y0162817D01*
X0434313Y0162817D02*
X0433037Y0162817D01*
X0436112Y0162817D02*
X0436112Y0158989D01*
X0438663Y0158989D02*
X0438663Y0162817D01*
X0437387Y0161541D01*
X0436112Y0162817D01*
X0436750Y0152975D02*
X0438663Y0152975D01*
X0438663Y0149147D01*
X0436750Y0149147D01*
X0436112Y0149785D01*
X0436112Y0152337D01*
X0436750Y0152975D01*
X0434313Y0152975D02*
X0433037Y0152975D01*
X0433675Y0152975D02*
X0433675Y0149147D01*
X0434313Y0149147D02*
X0433037Y0149147D01*
X0431413Y0149785D02*
X0430775Y0149147D01*
X0429499Y0149147D01*
X0428861Y0149785D01*
X0428861Y0150423D01*
X0429499Y0151061D01*
X0430775Y0151061D01*
X0431413Y0151699D01*
X0431413Y0152337D01*
X0430775Y0152975D01*
X0429499Y0152975D01*
X0428861Y0152337D01*
X0427063Y0152975D02*
X0425149Y0152975D01*
X0424511Y0152337D01*
X0424511Y0151061D01*
X0425149Y0150423D01*
X0427063Y0150423D01*
X0427063Y0149147D02*
X0427063Y0152975D01*
X0429963Y0143132D02*
X0429963Y0139304D01*
X0427411Y0139304D01*
X0431761Y0139942D02*
X0432399Y0139304D01*
X0433675Y0139304D01*
X0434313Y0139942D01*
X0433675Y0141218D02*
X0432399Y0141218D01*
X0431761Y0140580D01*
X0431761Y0139942D01*
X0433675Y0141218D02*
X0434313Y0141856D01*
X0434313Y0142494D01*
X0433675Y0143132D01*
X0432399Y0143132D01*
X0431761Y0142494D01*
X0436112Y0142494D02*
X0436750Y0143132D01*
X0438025Y0143132D01*
X0438663Y0142494D01*
X0438663Y0139942D01*
X0438025Y0139304D01*
X0436750Y0139304D01*
X0436112Y0139942D01*
X0436750Y0132896D02*
X0438025Y0132896D01*
X0438663Y0132258D01*
X0438663Y0131620D01*
X0438025Y0130982D01*
X0436750Y0130982D01*
X0436112Y0130344D01*
X0436112Y0129706D01*
X0436750Y0129068D01*
X0438025Y0129068D01*
X0438663Y0129706D01*
X0436112Y0132258D02*
X0436750Y0132896D01*
X0434313Y0132258D02*
X0434313Y0129706D01*
X0433675Y0129068D01*
X0432399Y0129068D01*
X0431761Y0129706D01*
X0429963Y0129068D02*
X0429963Y0132896D01*
X0431761Y0132258D02*
X0432399Y0132896D01*
X0433675Y0132896D01*
X0434313Y0132258D01*
X0429963Y0130344D02*
X0427411Y0132896D01*
X0429325Y0130982D02*
X0427411Y0129068D01*
X0436112Y0172415D02*
X0436750Y0173053D01*
X0438025Y0173053D01*
M02*
