G75*
%MOIN*%
%OFA0B0*%
%FSLAX25Y25*%
%IPPOS*%
%LPD*%
%AMOC8*
5,1,8,0,0,1.08239X$1,22.5*
%
%ADD10C,0.00800*%
%ADD11C,0.00787*%
%ADD12C,0.01575*%
%ADD13C,0.01181*%
%ADD14R,0.01575X0.01575*%
D10*
X0132731Y0103428D02*
X0134824Y0103428D01*
X0133777Y0103428D02*
X0133777Y0106567D01*
X0132731Y0105521D01*
X0136356Y0105521D02*
X0137403Y0106567D01*
X0137403Y0103428D01*
X0138449Y0103428D02*
X0136356Y0103428D01*
X0139981Y0103951D02*
X0140504Y0103428D01*
X0141551Y0103428D01*
X0142074Y0103951D01*
X0142074Y0104474D01*
X0141551Y0104997D01*
X0139981Y0104997D01*
X0139981Y0103951D01*
X0139981Y0104997D02*
X0141028Y0106044D01*
X0142074Y0106567D01*
X0143606Y0104997D02*
X0145699Y0104997D01*
X0145176Y0103428D02*
X0145176Y0106567D01*
X0143606Y0104997D01*
X0147231Y0106044D02*
X0147755Y0106567D01*
X0148801Y0106567D01*
X0149325Y0106044D01*
X0149325Y0105521D01*
X0147231Y0103428D01*
X0149325Y0103428D01*
X0150857Y0103951D02*
X0150857Y0104997D01*
X0151380Y0105521D01*
X0152426Y0105521D01*
X0152950Y0104997D01*
X0152950Y0104474D01*
X0150857Y0104474D01*
X0150857Y0103951D02*
X0151380Y0103428D01*
X0152426Y0103428D01*
X0154482Y0103951D02*
X0154482Y0104474D01*
X0155005Y0104997D01*
X0156052Y0104997D01*
X0156575Y0104474D01*
X0156575Y0103951D01*
X0156052Y0103428D01*
X0155005Y0103428D01*
X0154482Y0103951D01*
X0155005Y0104997D02*
X0154482Y0105521D01*
X0154482Y0106044D01*
X0155005Y0106567D01*
X0156052Y0106567D01*
X0156575Y0106044D01*
X0156575Y0105521D01*
X0156052Y0104997D01*
X0156154Y0111302D02*
X0151434Y0111302D01*
X0153794Y0111302D02*
X0153794Y0118382D01*
X0151434Y0116022D01*
X0148988Y0112482D02*
X0148988Y0111302D01*
X0147808Y0111302D01*
X0147808Y0112482D01*
X0148988Y0112482D01*
X0145278Y0112482D02*
X0144098Y0111302D01*
X0141738Y0111302D01*
X0140558Y0112482D01*
X0145278Y0117202D01*
X0145278Y0112482D01*
X0145278Y0117202D02*
X0144098Y0118382D01*
X0141738Y0118382D01*
X0140558Y0117202D01*
X0140558Y0112482D01*
X0138056Y0116022D02*
X0136876Y0116022D01*
X0134516Y0113662D01*
X0134516Y0111302D02*
X0134516Y0116022D01*
X0134516Y0121015D02*
X0136609Y0121015D01*
X0138141Y0121538D02*
X0138141Y0124677D01*
X0138665Y0123108D02*
X0140234Y0121538D01*
X0141766Y0123108D02*
X0143860Y0123108D01*
X0143336Y0124677D02*
X0141766Y0123108D01*
X0140234Y0124677D02*
X0138141Y0122584D01*
X0132984Y0122061D02*
X0132461Y0121538D01*
X0131414Y0121538D01*
X0130891Y0122061D01*
X0130891Y0124154D01*
X0131414Y0124677D01*
X0132461Y0124677D01*
X0132984Y0124154D01*
X0132984Y0123108D01*
X0132461Y0122584D01*
X0132461Y0123631D01*
X0131414Y0123631D01*
X0131414Y0122584D01*
X0132461Y0122584D01*
X0127827Y0125869D02*
X0125734Y0125869D01*
X0127827Y0125869D01*
X0126780Y0125869D02*
X0126780Y0129008D01*
X0125734Y0127962D01*
X0126780Y0129008D01*
X0126780Y0125869D01*
X0124202Y0125869D02*
X0122109Y0129008D01*
X0124202Y0125869D01*
X0122109Y0125869D02*
X0124202Y0129008D01*
X0122109Y0125869D01*
X0120905Y0125514D02*
X0111810Y0125514D01*
X0111810Y0206530D01*
X0120905Y0206530D01*
X0120905Y0125514D01*
X0143336Y0124677D02*
X0143336Y0121538D01*
X0145392Y0121538D02*
X0147485Y0121538D01*
X0149017Y0122061D02*
X0149540Y0121538D01*
X0150587Y0121538D01*
X0151110Y0122061D01*
X0151110Y0124677D01*
X0152642Y0124677D02*
X0152642Y0121538D01*
X0152642Y0122584D02*
X0154735Y0124677D01*
X0156267Y0124677D02*
X0157314Y0124677D01*
X0156790Y0124677D02*
X0156790Y0121538D01*
X0156267Y0121538D02*
X0157314Y0121538D01*
X0158684Y0121015D02*
X0160777Y0121015D01*
X0154735Y0121538D02*
X0153165Y0123108D01*
X0149017Y0122061D02*
X0149017Y0124677D01*
X0147485Y0124677D02*
X0147485Y0124154D01*
X0145392Y0122061D01*
X0145392Y0121538D01*
X0145392Y0124677D02*
X0147485Y0124677D01*
X0170806Y0125862D02*
X0170806Y0123106D01*
X0201909Y0123106D01*
X0201909Y0125862D01*
X0200728Y0125862D01*
X0200728Y0127043D01*
X0171987Y0127043D01*
X0171987Y0125862D01*
X0170806Y0125862D01*
X0170806Y0127043D02*
X0170806Y0128618D01*
X0170806Y0127043D02*
X0171987Y0127043D01*
X0170806Y0123106D02*
X0201909Y0123106D01*
X0201909Y0127043D02*
X0200728Y0127043D01*
X0201909Y0127043D02*
X0201909Y0128618D01*
X0201909Y0140429D02*
X0201909Y0144366D01*
X0197184Y0144366D01*
X0203293Y0145554D02*
X0203293Y0149481D01*
X0203293Y0145554D01*
X0205911Y0145554D01*
X0203293Y0145554D01*
X0207643Y0146208D02*
X0208298Y0145554D01*
X0209607Y0145554D01*
X0210262Y0146208D01*
X0209607Y0145554D01*
X0208298Y0145554D01*
X0207643Y0146208D01*
X0207643Y0148827D01*
X0208298Y0149481D01*
X0209607Y0149481D01*
X0210262Y0148827D01*
X0209607Y0149481D01*
X0208298Y0149481D01*
X0207643Y0148827D01*
X0207643Y0146208D01*
X0211993Y0145554D02*
X0213957Y0145554D01*
X0214612Y0146208D01*
X0214612Y0148827D01*
X0213957Y0149481D01*
X0211993Y0149481D01*
X0211993Y0145554D01*
X0213957Y0145554D01*
X0214612Y0146208D01*
X0214612Y0148827D01*
X0213957Y0149481D01*
X0211993Y0149481D01*
X0211993Y0145554D01*
X0216343Y0145554D02*
X0218962Y0145554D01*
X0216343Y0145554D01*
X0217653Y0145554D02*
X0217653Y0149481D01*
X0216343Y0148172D01*
X0217653Y0149481D01*
X0217653Y0145554D01*
X0205780Y0155257D02*
X0203687Y0153163D01*
X0203687Y0152640D01*
X0203687Y0153163D01*
X0205780Y0155257D01*
X0205780Y0155780D01*
X0203687Y0155780D01*
X0205780Y0155780D01*
X0205780Y0155257D01*
X0202155Y0155257D02*
X0201631Y0155780D01*
X0200585Y0155780D01*
X0200061Y0155257D01*
X0200061Y0153163D01*
X0200585Y0152640D01*
X0201631Y0152640D01*
X0202155Y0153163D01*
X0201631Y0152640D01*
X0200585Y0152640D01*
X0200061Y0153163D01*
X0200061Y0155257D01*
X0200585Y0155780D01*
X0201631Y0155780D01*
X0202155Y0155257D01*
X0201631Y0159727D02*
X0202155Y0160250D01*
X0201631Y0159727D01*
X0200585Y0159727D01*
X0200061Y0160250D01*
X0200061Y0162343D01*
X0200585Y0162866D01*
X0201631Y0162866D01*
X0202155Y0162343D01*
X0201631Y0162866D01*
X0200585Y0162866D01*
X0200061Y0162343D01*
X0200061Y0160250D01*
X0200585Y0159727D01*
X0201631Y0159727D01*
X0203687Y0160250D02*
X0203687Y0160773D01*
X0204210Y0161297D01*
X0205256Y0161297D01*
X0205780Y0160773D01*
X0205780Y0160250D01*
X0205256Y0159727D01*
X0204210Y0159727D01*
X0203687Y0160250D01*
X0203687Y0160773D01*
X0204210Y0161297D01*
X0203687Y0161820D01*
X0203687Y0162343D01*
X0204210Y0162866D01*
X0205256Y0162866D01*
X0205780Y0162343D01*
X0205780Y0161820D01*
X0205256Y0161297D01*
X0204210Y0161297D01*
X0203687Y0161820D01*
X0203687Y0162343D01*
X0204210Y0162866D01*
X0205256Y0162866D01*
X0205780Y0162343D01*
X0205780Y0161820D01*
X0205256Y0161297D01*
X0205780Y0160773D01*
X0205780Y0160250D01*
X0205256Y0159727D01*
X0204210Y0159727D01*
X0203687Y0160250D01*
X0204579Y0168782D02*
X0205889Y0168782D01*
X0204579Y0168782D01*
X0205234Y0168782D02*
X0205234Y0172710D01*
X0205234Y0168782D01*
X0207479Y0169437D02*
X0208134Y0168782D01*
X0209443Y0168782D01*
X0210098Y0169437D01*
X0209443Y0168782D01*
X0208134Y0168782D01*
X0207479Y0169437D01*
X0207479Y0172055D01*
X0208134Y0172710D01*
X0209443Y0172710D01*
X0210098Y0172055D01*
X0209443Y0172710D01*
X0208134Y0172710D01*
X0207479Y0172055D01*
X0207479Y0169437D01*
X0205889Y0172710D02*
X0204579Y0172710D01*
X0205889Y0172710D01*
X0211830Y0170746D02*
X0214448Y0170746D01*
X0211830Y0170746D01*
X0213793Y0172710D01*
X0213793Y0168782D01*
X0213793Y0172710D01*
X0211830Y0170746D01*
X0188987Y0169823D02*
X0188464Y0170347D01*
X0187417Y0170347D01*
X0186894Y0169823D01*
X0187417Y0170347D01*
X0188464Y0170347D01*
X0188987Y0169823D01*
X0188987Y0169300D01*
X0186894Y0167207D01*
X0188987Y0167207D01*
X0186894Y0167207D01*
X0188987Y0169300D01*
X0188987Y0169823D01*
X0185362Y0169823D02*
X0184839Y0170347D01*
X0183792Y0170347D01*
X0183269Y0169823D01*
X0183269Y0167730D01*
X0183792Y0167207D01*
X0184839Y0167207D01*
X0185362Y0167730D01*
X0184839Y0167207D01*
X0183792Y0167207D01*
X0183269Y0167730D01*
X0183269Y0169823D01*
X0183792Y0170347D01*
X0184839Y0170347D01*
X0185362Y0169823D01*
X0181899Y0170347D02*
X0180852Y0170347D01*
X0181899Y0170347D01*
X0181375Y0170347D02*
X0181375Y0167207D01*
X0181375Y0170347D01*
X0180852Y0167207D02*
X0181899Y0167207D01*
X0180852Y0167207D01*
X0172186Y0180199D02*
X0171139Y0180199D01*
X0170616Y0180722D01*
X0171139Y0180199D01*
X0172186Y0180199D01*
X0172709Y0180722D01*
X0172709Y0181246D01*
X0172186Y0181769D01*
X0171662Y0181769D01*
X0172186Y0181769D01*
X0172709Y0182292D01*
X0172709Y0182816D01*
X0172186Y0183339D01*
X0171139Y0183339D01*
X0170616Y0182816D01*
X0171139Y0183339D01*
X0172186Y0183339D01*
X0172709Y0182816D01*
X0172709Y0182292D01*
X0172186Y0181769D01*
X0172709Y0181246D01*
X0172709Y0180722D01*
X0172186Y0180199D01*
X0169084Y0180722D02*
X0168560Y0180199D01*
X0167514Y0180199D01*
X0166991Y0180722D01*
X0166991Y0182816D01*
X0167514Y0183339D01*
X0168560Y0183339D01*
X0169084Y0182816D01*
X0168560Y0183339D01*
X0167514Y0183339D01*
X0166991Y0182816D01*
X0166991Y0180722D01*
X0167514Y0180199D01*
X0168560Y0180199D01*
X0169084Y0180722D01*
X0168613Y0188073D02*
X0169660Y0188073D01*
X0170183Y0188597D01*
X0169660Y0188073D01*
X0168613Y0188073D01*
X0168090Y0188597D01*
X0168090Y0190690D01*
X0168613Y0191213D01*
X0169660Y0191213D01*
X0170183Y0190690D01*
X0169660Y0191213D01*
X0168613Y0191213D01*
X0168090Y0190690D01*
X0168090Y0188597D01*
X0168613Y0188073D01*
X0166720Y0188073D02*
X0165673Y0188073D01*
X0166720Y0188073D01*
X0166196Y0188073D02*
X0166196Y0191213D01*
X0166196Y0188073D01*
X0165673Y0191213D02*
X0166720Y0191213D01*
X0165673Y0191213D01*
X0171715Y0191213D02*
X0171715Y0189643D01*
X0172762Y0190166D01*
X0173285Y0190166D01*
X0173808Y0189643D01*
X0173808Y0188597D01*
X0173285Y0188073D01*
X0172238Y0188073D01*
X0171715Y0188597D01*
X0172238Y0188073D01*
X0173285Y0188073D01*
X0173808Y0188597D01*
X0173808Y0189643D01*
X0173285Y0190166D01*
X0172762Y0190166D01*
X0171715Y0189643D01*
X0171715Y0191213D01*
X0173808Y0191213D01*
X0171715Y0191213D01*
X0177750Y0199097D02*
X0178797Y0199097D01*
X0179320Y0199620D01*
X0178797Y0199097D01*
X0177750Y0199097D01*
X0177227Y0199620D01*
X0177227Y0201713D01*
X0177750Y0202237D01*
X0178797Y0202237D01*
X0179320Y0201713D01*
X0178797Y0202237D01*
X0177750Y0202237D01*
X0177227Y0201713D01*
X0177227Y0199620D01*
X0177750Y0199097D01*
X0180852Y0199620D02*
X0181375Y0199097D01*
X0182422Y0199097D01*
X0182945Y0199620D01*
X0182945Y0200143D01*
X0182422Y0200667D01*
X0180852Y0200667D01*
X0180852Y0199620D01*
X0181375Y0199097D01*
X0182422Y0199097D01*
X0182945Y0199620D01*
X0182945Y0200143D01*
X0182422Y0200667D01*
X0180852Y0200667D01*
X0181899Y0201713D01*
X0182945Y0202237D01*
X0181899Y0201713D01*
X0180852Y0200667D01*
X0180852Y0199620D01*
X0156044Y0187670D02*
X0156044Y0184530D01*
X0156044Y0187670D01*
X0154474Y0186100D01*
X0156567Y0186100D01*
X0154474Y0186100D01*
X0156044Y0187670D01*
X0152942Y0187146D02*
X0152419Y0187670D01*
X0151372Y0187670D01*
X0150849Y0187146D01*
X0150849Y0185053D01*
X0151372Y0184530D01*
X0152419Y0184530D01*
X0152942Y0185053D01*
X0152419Y0184530D01*
X0151372Y0184530D01*
X0150849Y0185053D01*
X0150849Y0187146D01*
X0151372Y0187670D01*
X0152419Y0187670D01*
X0152942Y0187146D01*
X0152901Y0199491D02*
X0152901Y0202630D01*
X0151854Y0201584D01*
X0152901Y0202630D01*
X0152901Y0199491D01*
X0151854Y0199491D02*
X0153948Y0199491D01*
X0151854Y0199491D01*
X0150322Y0200014D02*
X0149799Y0199491D01*
X0148753Y0199491D01*
X0148229Y0200014D01*
X0148229Y0202107D01*
X0148753Y0202630D01*
X0149799Y0202630D01*
X0150322Y0202107D01*
X0149799Y0202630D01*
X0148753Y0202630D01*
X0148229Y0202107D01*
X0148229Y0200014D01*
X0148753Y0199491D01*
X0149799Y0199491D01*
X0150322Y0200014D01*
X0146859Y0199491D02*
X0145813Y0199491D01*
X0146859Y0199491D01*
X0146336Y0199491D02*
X0146336Y0202630D01*
X0146336Y0199491D01*
X0145813Y0202630D02*
X0146859Y0202630D01*
X0145813Y0202630D01*
X0143103Y0214707D02*
X0140301Y0214707D01*
X0143103Y0214707D01*
X0141702Y0214707D02*
X0141702Y0218911D01*
X0140301Y0217509D01*
X0141702Y0218911D01*
X0141702Y0214707D01*
X0138499Y0215408D02*
X0137799Y0214707D01*
X0136397Y0214707D01*
X0135697Y0215408D01*
X0135697Y0218210D01*
X0136397Y0218911D01*
X0137799Y0218911D01*
X0138499Y0218210D01*
X0137799Y0218911D01*
X0136397Y0218911D01*
X0135697Y0218210D01*
X0135697Y0215408D01*
X0136397Y0214707D01*
X0137799Y0214707D01*
X0138499Y0215408D01*
X0132166Y0192533D02*
X0130765Y0192533D01*
X0130065Y0191832D01*
X0130765Y0192533D01*
X0132166Y0192533D01*
X0132867Y0191832D01*
X0132867Y0191132D01*
X0130065Y0188329D01*
X0132867Y0188329D01*
X0130065Y0188329D01*
X0132867Y0191132D01*
X0132867Y0191832D01*
X0132166Y0192533D01*
X0128263Y0191832D02*
X0127562Y0192533D01*
X0126161Y0192533D01*
X0125461Y0191832D01*
X0125461Y0189030D01*
X0126161Y0188329D01*
X0127562Y0188329D01*
X0128263Y0189030D01*
X0127562Y0188329D01*
X0126161Y0188329D01*
X0125461Y0189030D01*
X0125461Y0191832D01*
X0126161Y0192533D01*
X0127562Y0192533D01*
X0128263Y0191832D01*
X0128797Y0181370D02*
X0129320Y0180847D01*
X0129320Y0179801D01*
X0128797Y0179277D01*
X0127227Y0179277D01*
X0128797Y0179277D01*
X0129320Y0179801D01*
X0129320Y0180847D01*
X0128797Y0181370D01*
X0127227Y0181370D01*
X0127227Y0178231D01*
X0127227Y0181370D01*
X0128797Y0181370D01*
X0128273Y0179277D02*
X0129320Y0178231D01*
X0128273Y0179277D01*
X0128226Y0176646D02*
X0127702Y0176123D01*
X0128226Y0176646D01*
X0129272Y0176646D01*
X0129795Y0176123D01*
X0129795Y0175599D01*
X0127702Y0173506D01*
X0129795Y0173506D01*
X0127702Y0173506D01*
X0129795Y0175599D01*
X0129795Y0176123D01*
X0129272Y0176646D01*
X0128226Y0176646D01*
X0126170Y0176123D02*
X0126170Y0175076D01*
X0125647Y0174553D01*
X0124077Y0174553D01*
X0125647Y0174553D01*
X0126170Y0175076D01*
X0126170Y0176123D01*
X0125647Y0176646D01*
X0124077Y0176646D01*
X0124077Y0173506D01*
X0124077Y0176646D01*
X0125647Y0176646D01*
X0126170Y0176123D01*
X0125124Y0174553D02*
X0126170Y0173506D01*
X0125124Y0174553D01*
X0125647Y0171922D02*
X0124077Y0171922D01*
X0124077Y0168782D01*
X0124077Y0171922D01*
X0125647Y0171922D01*
X0126170Y0171398D01*
X0126170Y0170352D01*
X0125647Y0169828D01*
X0124077Y0169828D01*
X0125647Y0169828D01*
X0126170Y0170352D01*
X0126170Y0171398D01*
X0125647Y0171922D01*
X0127702Y0171398D02*
X0128226Y0171922D01*
X0129272Y0171922D01*
X0129795Y0171398D01*
X0129795Y0170875D01*
X0129272Y0170352D01*
X0129795Y0169828D01*
X0129795Y0169305D01*
X0129272Y0168782D01*
X0128226Y0168782D01*
X0127702Y0169305D01*
X0128226Y0168782D01*
X0129272Y0168782D01*
X0129795Y0169305D01*
X0129795Y0169828D01*
X0129272Y0170352D01*
X0128749Y0170352D01*
X0129272Y0170352D01*
X0129795Y0170875D01*
X0129795Y0171398D01*
X0129272Y0171922D01*
X0128226Y0171922D01*
X0127702Y0171398D01*
X0125124Y0169828D02*
X0126170Y0168782D01*
X0125124Y0169828D01*
X0125647Y0167197D02*
X0124077Y0167197D01*
X0124077Y0164057D01*
X0124077Y0167197D01*
X0125647Y0167197D01*
X0126170Y0166674D01*
X0126170Y0165627D01*
X0125647Y0165104D01*
X0124077Y0165104D01*
X0125647Y0165104D01*
X0126170Y0165627D01*
X0126170Y0166674D01*
X0125647Y0167197D01*
X0125124Y0165104D02*
X0126170Y0164057D01*
X0125124Y0165104D01*
X0127702Y0165627D02*
X0129795Y0165627D01*
X0127702Y0165627D01*
X0129272Y0167197D01*
X0129272Y0164057D01*
X0129272Y0167197D01*
X0127702Y0165627D01*
X0127702Y0162473D02*
X0127702Y0160903D01*
X0128749Y0161426D01*
X0129272Y0161426D01*
X0129795Y0160903D01*
X0129795Y0159856D01*
X0129272Y0159333D01*
X0128226Y0159333D01*
X0127702Y0159856D01*
X0128226Y0159333D01*
X0129272Y0159333D01*
X0129795Y0159856D01*
X0129795Y0160903D01*
X0129272Y0161426D01*
X0128749Y0161426D01*
X0127702Y0160903D01*
X0127702Y0162473D01*
X0129795Y0162473D01*
X0127702Y0162473D01*
X0126170Y0161949D02*
X0126170Y0160903D01*
X0125647Y0160380D01*
X0124077Y0160380D01*
X0125647Y0160380D01*
X0126170Y0160903D01*
X0126170Y0161949D01*
X0125647Y0162473D01*
X0124077Y0162473D01*
X0124077Y0159333D01*
X0124077Y0162473D01*
X0125647Y0162473D01*
X0126170Y0161949D01*
X0125124Y0160380D02*
X0126170Y0159333D01*
X0125124Y0160380D01*
X0126833Y0157748D02*
X0128403Y0157748D01*
X0128926Y0157225D01*
X0128926Y0156179D01*
X0128403Y0155655D01*
X0126833Y0155655D01*
X0128403Y0155655D01*
X0128926Y0156179D01*
X0128926Y0157225D01*
X0128403Y0157748D01*
X0126833Y0157748D01*
X0126833Y0154609D01*
X0126833Y0157748D01*
X0127880Y0155655D02*
X0128926Y0154609D01*
X0127880Y0155655D01*
X0130458Y0155132D02*
X0130982Y0154609D01*
X0132028Y0154609D01*
X0132551Y0155132D01*
X0132551Y0155655D01*
X0132028Y0156179D01*
X0130458Y0156179D01*
X0130458Y0155132D01*
X0130982Y0154609D01*
X0132028Y0154609D01*
X0132551Y0155132D01*
X0132551Y0155655D01*
X0132028Y0156179D01*
X0130458Y0156179D01*
X0131505Y0157225D01*
X0132551Y0157748D01*
X0131505Y0157225D01*
X0130458Y0156179D01*
X0130458Y0155132D01*
X0153687Y0154992D02*
X0154733Y0154992D01*
X0153687Y0154992D01*
X0154210Y0154992D02*
X0154210Y0151853D01*
X0154210Y0154992D01*
X0156103Y0154469D02*
X0156103Y0152376D01*
X0156627Y0151853D01*
X0157673Y0151853D01*
X0158196Y0152376D01*
X0157673Y0151853D01*
X0156627Y0151853D01*
X0156103Y0152376D01*
X0156103Y0154469D01*
X0156627Y0154992D01*
X0157673Y0154992D01*
X0158196Y0154469D01*
X0157673Y0154992D01*
X0156627Y0154992D01*
X0156103Y0154469D01*
X0154733Y0151853D02*
X0153687Y0151853D01*
X0154733Y0151853D01*
X0159729Y0152376D02*
X0160252Y0151853D01*
X0161298Y0151853D01*
X0161822Y0152376D01*
X0161822Y0152899D01*
X0161298Y0153423D01*
X0160775Y0153423D01*
X0161298Y0153423D01*
X0161822Y0153946D01*
X0161822Y0154469D01*
X0161298Y0154992D01*
X0160252Y0154992D01*
X0159729Y0154469D01*
X0160252Y0154992D01*
X0161298Y0154992D01*
X0161822Y0154469D01*
X0161822Y0153946D01*
X0161298Y0153423D01*
X0161822Y0152899D01*
X0161822Y0152376D01*
X0161298Y0151853D01*
X0160252Y0151853D01*
X0159729Y0152376D01*
X0170806Y0144366D02*
X0170806Y0140429D01*
X0170806Y0144366D02*
X0175531Y0144366D01*
X0176712Y0125862D02*
X0178287Y0125862D01*
X0177499Y0124287D01*
X0176712Y0125862D01*
X0176830Y0125625D02*
X0178168Y0125625D01*
X0177769Y0124827D02*
X0177229Y0124827D01*
X0132945Y0178231D02*
X0130852Y0178231D01*
X0132945Y0178231D01*
X0131899Y0178231D02*
X0131899Y0181370D01*
X0130852Y0180324D01*
X0131899Y0181370D01*
X0131899Y0178231D01*
X0215416Y0200408D02*
X0215939Y0199884D01*
X0216986Y0199884D01*
X0217509Y0200408D01*
X0216986Y0199884D01*
X0215939Y0199884D01*
X0215416Y0200408D01*
X0215416Y0202501D01*
X0215939Y0203024D01*
X0216986Y0203024D01*
X0217509Y0202501D01*
X0216986Y0203024D01*
X0215939Y0203024D01*
X0215416Y0202501D01*
X0215416Y0200408D01*
X0219041Y0200408D02*
X0219564Y0199884D01*
X0220611Y0199884D01*
X0221134Y0200408D01*
X0221134Y0201454D01*
X0220611Y0201977D01*
X0220087Y0201977D01*
X0219041Y0201454D01*
X0219041Y0203024D01*
X0221134Y0203024D01*
X0219041Y0203024D01*
X0219041Y0201454D01*
X0220087Y0201977D01*
X0220611Y0201977D01*
X0221134Y0201454D01*
X0221134Y0200408D01*
X0220611Y0199884D01*
X0219564Y0199884D01*
X0219041Y0200408D01*
X0251810Y0206528D02*
X0260905Y0206528D01*
X0260905Y0125512D01*
X0251810Y0125512D01*
X0251810Y0206528D01*
X0316535Y0206530D02*
X0325629Y0206530D01*
X0325629Y0125514D01*
X0316535Y0125514D01*
X0316535Y0206530D01*
X0328584Y0192533D02*
X0327883Y0191832D01*
X0327883Y0189030D01*
X0328584Y0188329D01*
X0329985Y0188329D01*
X0330685Y0189030D01*
X0330185Y0189030D02*
X0330886Y0188329D01*
X0332287Y0188329D01*
X0332987Y0189030D01*
X0332487Y0188329D02*
X0335289Y0188329D01*
X0334789Y0188329D02*
X0337591Y0191132D01*
X0337591Y0191832D01*
X0336891Y0192533D01*
X0335490Y0192533D01*
X0334789Y0191832D01*
X0333888Y0192533D02*
X0333888Y0188329D01*
X0334789Y0188329D02*
X0337591Y0188329D01*
X0337792Y0188329D02*
X0337091Y0189030D01*
X0339893Y0191832D01*
X0339893Y0189030D01*
X0339193Y0188329D01*
X0337792Y0188329D01*
X0337091Y0189030D02*
X0337091Y0191832D01*
X0337792Y0192533D01*
X0339193Y0192533D01*
X0339893Y0191832D01*
X0333888Y0192533D02*
X0332487Y0191132D01*
X0332987Y0191832D02*
X0332287Y0192533D01*
X0330886Y0192533D01*
X0330185Y0191832D01*
X0330185Y0189030D01*
X0330685Y0191832D02*
X0329985Y0192533D01*
X0328584Y0192533D01*
X0331951Y0181370D02*
X0333521Y0181370D01*
X0334044Y0180847D01*
X0334044Y0179801D01*
X0333521Y0179277D01*
X0331951Y0179277D01*
X0333521Y0179277D01*
X0334044Y0179801D01*
X0334044Y0180847D01*
X0333521Y0181370D01*
X0331951Y0181370D01*
X0331951Y0178231D01*
X0331951Y0181370D01*
X0332998Y0179277D02*
X0334044Y0178231D01*
X0332998Y0179277D01*
X0335576Y0179277D02*
X0336100Y0179801D01*
X0337146Y0179801D01*
X0337670Y0179277D01*
X0337670Y0178754D01*
X0337146Y0178231D01*
X0336100Y0178231D01*
X0335576Y0178754D01*
X0335576Y0179277D01*
X0336100Y0179801D02*
X0335576Y0180324D01*
X0335576Y0180847D01*
X0336100Y0181370D01*
X0337146Y0181370D01*
X0337670Y0180847D01*
X0337670Y0180324D01*
X0337146Y0179801D01*
X0336623Y0181370D02*
X0336623Y0178231D01*
X0335576Y0178231D02*
X0337670Y0178231D01*
X0335576Y0180324D02*
X0336623Y0181370D01*
X0334520Y0176646D02*
X0334520Y0176123D01*
X0332427Y0174030D01*
X0332427Y0173506D01*
X0334520Y0175599D01*
X0334520Y0176123D01*
X0333997Y0176646D01*
X0332950Y0176646D01*
X0332427Y0176123D01*
X0332427Y0176646D02*
X0334520Y0176646D01*
X0334520Y0173506D02*
X0332427Y0173506D01*
X0330895Y0173506D02*
X0329848Y0174553D01*
X0330895Y0173506D01*
X0330371Y0174553D02*
X0328802Y0174553D01*
X0330371Y0174553D01*
X0330895Y0175076D01*
X0330895Y0176123D01*
X0330371Y0176646D01*
X0328802Y0176646D01*
X0328802Y0173506D01*
X0328802Y0176646D01*
X0330371Y0176646D01*
X0330895Y0176123D01*
X0330895Y0175076D01*
X0330371Y0174553D01*
X0330371Y0171922D02*
X0330895Y0171398D01*
X0330895Y0170352D01*
X0330371Y0169828D01*
X0328802Y0169828D01*
X0328559Y0169828D02*
X0326989Y0169828D01*
X0326989Y0168782D02*
X0326989Y0171922D01*
X0328559Y0171922D01*
X0329082Y0171398D01*
X0329082Y0170352D01*
X0328559Y0169828D01*
X0328036Y0169828D02*
X0329082Y0168782D01*
X0328802Y0168782D02*
X0328802Y0171922D01*
X0330371Y0171922D01*
X0330614Y0170875D02*
X0331661Y0171922D01*
X0331661Y0168782D01*
X0330895Y0168782D02*
X0329848Y0169828D01*
X0330614Y0168782D02*
X0332707Y0168782D01*
X0332950Y0168782D02*
X0332427Y0169305D01*
X0332950Y0168782D02*
X0333997Y0168782D01*
X0334520Y0169305D01*
X0334520Y0169828D01*
X0333997Y0170352D01*
X0333473Y0170352D01*
X0333997Y0170352D02*
X0334520Y0170875D01*
X0334520Y0171398D01*
X0333997Y0171922D01*
X0332950Y0171922D01*
X0332427Y0171398D01*
X0334239Y0171398D02*
X0334763Y0171922D01*
X0335809Y0171922D01*
X0336332Y0171398D01*
X0334239Y0169305D01*
X0334763Y0168782D01*
X0335809Y0168782D01*
X0336332Y0169305D01*
X0336332Y0171398D01*
X0334239Y0171398D02*
X0334239Y0169305D01*
X0333997Y0167197D02*
X0332427Y0165627D01*
X0334520Y0165627D01*
X0334239Y0166151D02*
X0335286Y0167197D01*
X0335286Y0164057D01*
X0336332Y0164057D02*
X0334239Y0164057D01*
X0333997Y0164057D02*
X0333997Y0167197D01*
X0331661Y0167197D02*
X0331661Y0164057D01*
X0330895Y0164057D02*
X0329848Y0165104D01*
X0330371Y0165104D02*
X0328802Y0165104D01*
X0328559Y0165104D02*
X0326989Y0165104D01*
X0326989Y0164057D02*
X0326989Y0167197D01*
X0328559Y0167197D01*
X0329082Y0166674D01*
X0329082Y0165627D01*
X0328559Y0165104D01*
X0328036Y0165104D02*
X0329082Y0164057D01*
X0328802Y0164057D02*
X0328802Y0167197D01*
X0330371Y0167197D01*
X0330895Y0166674D01*
X0330895Y0165627D01*
X0330371Y0165104D01*
X0330614Y0164057D02*
X0332707Y0164057D01*
X0332950Y0162473D02*
X0332427Y0161949D01*
X0332427Y0161426D01*
X0332950Y0160903D01*
X0334520Y0160903D01*
X0334520Y0159856D01*
X0334520Y0161949D01*
X0333997Y0162473D01*
X0332950Y0162473D01*
X0332427Y0162473D02*
X0332427Y0160903D01*
X0333473Y0161426D01*
X0333997Y0161426D01*
X0334520Y0160903D01*
X0334520Y0159856D02*
X0333997Y0159333D01*
X0332950Y0159333D01*
X0332427Y0159856D01*
X0332950Y0159333D01*
X0333997Y0159333D01*
X0334520Y0159856D01*
X0334417Y0157748D02*
X0334417Y0154609D01*
X0333651Y0154609D02*
X0332604Y0155655D01*
X0333127Y0155655D02*
X0331558Y0155655D01*
X0331315Y0155655D02*
X0329745Y0155655D01*
X0329745Y0154609D02*
X0329745Y0157748D01*
X0331315Y0157748D01*
X0331838Y0157225D01*
X0331838Y0156179D01*
X0331315Y0155655D01*
X0330792Y0155655D02*
X0331838Y0154609D01*
X0331558Y0154609D02*
X0331558Y0157748D01*
X0333127Y0157748D01*
X0333651Y0157225D01*
X0333651Y0156179D01*
X0333127Y0155655D01*
X0333370Y0154609D02*
X0335463Y0154609D01*
X0335706Y0154609D02*
X0336753Y0154609D01*
X0337276Y0155132D01*
X0337276Y0155655D01*
X0336753Y0156179D01*
X0335183Y0156179D01*
X0335183Y0155132D01*
X0335706Y0154609D01*
X0336995Y0154609D02*
X0339088Y0156702D01*
X0339088Y0157225D01*
X0338565Y0157748D01*
X0337519Y0157748D01*
X0336995Y0157225D01*
X0337276Y0157748D02*
X0336229Y0157225D01*
X0335183Y0156179D01*
X0334417Y0157748D02*
X0333370Y0156702D01*
X0330895Y0159333D02*
X0329848Y0160380D01*
X0330895Y0159333D01*
X0330371Y0160380D02*
X0328802Y0160380D01*
X0330371Y0160380D01*
X0330895Y0160903D01*
X0330895Y0161949D01*
X0330371Y0162473D01*
X0328802Y0162473D01*
X0328802Y0159333D01*
X0328802Y0162473D01*
X0330371Y0162473D01*
X0330895Y0161949D01*
X0330895Y0160903D01*
X0330371Y0160380D01*
X0332427Y0162473D02*
X0334520Y0162473D01*
X0330614Y0166151D02*
X0331661Y0167197D01*
X0336995Y0154609D02*
X0339088Y0154609D01*
X0358411Y0154992D02*
X0359458Y0154992D01*
X0358411Y0154992D01*
X0358934Y0154992D02*
X0358934Y0151853D01*
X0358934Y0154992D01*
X0360828Y0154469D02*
X0360828Y0152376D01*
X0361351Y0151853D01*
X0362398Y0151853D01*
X0362921Y0152376D01*
X0362398Y0151853D01*
X0361351Y0151853D01*
X0360828Y0152376D01*
X0360828Y0154469D01*
X0361351Y0154992D01*
X0362398Y0154992D01*
X0362921Y0154469D01*
X0362398Y0154992D01*
X0361351Y0154992D01*
X0360828Y0154469D01*
X0359458Y0151853D02*
X0358411Y0151853D01*
X0359458Y0151853D01*
X0364453Y0152376D02*
X0364453Y0152899D01*
X0364976Y0153423D01*
X0366023Y0153423D01*
X0366546Y0152899D01*
X0366546Y0152376D01*
X0366023Y0151853D01*
X0364976Y0151853D01*
X0364453Y0152376D01*
X0364976Y0151853D01*
X0366023Y0151853D01*
X0366546Y0152376D01*
X0366546Y0152899D01*
X0366023Y0153423D01*
X0366546Y0153946D01*
X0366546Y0154469D01*
X0366023Y0154992D01*
X0364976Y0154992D01*
X0364453Y0154469D01*
X0364453Y0153946D01*
X0364976Y0153423D01*
X0365499Y0153423D02*
X0366023Y0153423D01*
X0366546Y0153946D01*
X0366546Y0154469D01*
X0366023Y0154992D01*
X0364976Y0154992D01*
X0364453Y0154469D01*
X0375531Y0144366D02*
X0380255Y0144366D01*
X0375531Y0144366D02*
X0375531Y0140429D01*
X0375531Y0128618D02*
X0375531Y0127043D01*
X0376712Y0127043D01*
X0405452Y0127043D01*
X0406633Y0127043D01*
X0406633Y0128618D01*
X0405452Y0127043D02*
X0405452Y0125862D01*
X0406633Y0125862D01*
X0406633Y0123106D01*
X0375531Y0123106D01*
X0406633Y0123106D01*
X0406633Y0140429D02*
X0406633Y0144366D01*
X0401909Y0144366D01*
X0408017Y0145554D02*
X0408017Y0149481D01*
X0408017Y0145554D01*
X0410636Y0145554D01*
X0408017Y0145554D01*
X0412367Y0146208D02*
X0413022Y0145554D01*
X0414331Y0145554D01*
X0414986Y0146208D01*
X0414331Y0145554D01*
X0413022Y0145554D01*
X0412367Y0146208D01*
X0412367Y0148827D01*
X0413022Y0149481D01*
X0414331Y0149481D01*
X0414986Y0148827D01*
X0414331Y0149481D01*
X0413022Y0149481D01*
X0412367Y0148827D01*
X0412367Y0146208D01*
X0416718Y0145554D02*
X0416718Y0149481D01*
X0418682Y0149481D01*
X0419336Y0148827D01*
X0419336Y0146208D01*
X0418682Y0145554D01*
X0416718Y0145554D01*
X0418682Y0145554D01*
X0419336Y0146208D01*
X0419336Y0148827D01*
X0418682Y0149481D01*
X0416718Y0149481D01*
X0416718Y0145554D01*
X0421068Y0145554D02*
X0423686Y0148172D01*
X0423686Y0148827D01*
X0423032Y0149481D01*
X0421722Y0149481D01*
X0421068Y0148827D01*
X0421068Y0148172D02*
X0422377Y0149481D01*
X0422377Y0145554D01*
X0423686Y0145554D02*
X0421068Y0145554D01*
X0423686Y0145554D01*
X0412317Y0153163D02*
X0412317Y0154210D01*
X0411793Y0154733D01*
X0411270Y0154733D01*
X0410224Y0154210D01*
X0410224Y0155780D01*
X0412317Y0155780D01*
X0410504Y0155780D02*
X0410504Y0155257D01*
X0408411Y0153163D01*
X0408411Y0152640D01*
X0408692Y0152640D02*
X0406598Y0152640D01*
X0406356Y0152640D02*
X0406879Y0153163D01*
X0406356Y0152640D02*
X0405309Y0152640D01*
X0404786Y0153163D01*
X0404786Y0155257D01*
X0405309Y0155780D01*
X0406356Y0155780D01*
X0406879Y0155257D01*
X0406598Y0154733D02*
X0407645Y0155780D01*
X0407645Y0152640D01*
X0405066Y0153163D02*
X0404543Y0152640D01*
X0403497Y0152640D01*
X0402973Y0153163D01*
X0402973Y0155257D01*
X0403497Y0155780D01*
X0404543Y0155780D01*
X0405066Y0155257D01*
X0408411Y0155780D02*
X0410504Y0155780D01*
X0410224Y0153163D02*
X0410747Y0152640D01*
X0411793Y0152640D01*
X0412317Y0153163D01*
X0411793Y0159727D02*
X0412317Y0160250D01*
X0412317Y0160773D01*
X0411793Y0161297D01*
X0410224Y0161297D01*
X0410224Y0160250D01*
X0410747Y0159727D01*
X0411793Y0159727D01*
X0410504Y0160250D02*
X0409981Y0159727D01*
X0408934Y0159727D01*
X0408411Y0160250D01*
X0408411Y0160773D01*
X0408934Y0161297D01*
X0409981Y0161297D01*
X0410504Y0160773D01*
X0410504Y0160250D01*
X0410224Y0161297D02*
X0411270Y0162343D01*
X0412317Y0162866D01*
X0410504Y0162343D02*
X0410504Y0161820D01*
X0409981Y0161297D01*
X0408934Y0161297D02*
X0408411Y0161820D01*
X0408411Y0162343D01*
X0408934Y0162866D01*
X0409981Y0162866D01*
X0410504Y0162343D01*
X0407645Y0162866D02*
X0407645Y0159727D01*
X0406879Y0160250D02*
X0406356Y0159727D01*
X0405309Y0159727D01*
X0404786Y0160250D01*
X0404786Y0162343D01*
X0405309Y0162866D01*
X0406356Y0162866D01*
X0406879Y0162343D01*
X0406598Y0161820D02*
X0407645Y0162866D01*
X0405066Y0162343D02*
X0404543Y0162866D01*
X0403497Y0162866D01*
X0402973Y0162343D01*
X0402973Y0160250D01*
X0403497Y0159727D01*
X0404543Y0159727D01*
X0405066Y0160250D01*
X0406598Y0159727D02*
X0408692Y0159727D01*
X0409304Y0168782D02*
X0410613Y0168782D01*
X0409304Y0168782D01*
X0409958Y0168782D02*
X0409958Y0172710D01*
X0409958Y0168782D01*
X0412204Y0169437D02*
X0412858Y0168782D01*
X0414168Y0168782D01*
X0414822Y0169437D01*
X0414168Y0168782D01*
X0412858Y0168782D01*
X0412204Y0169437D01*
X0412204Y0172055D01*
X0412858Y0172710D01*
X0414168Y0172710D01*
X0414822Y0172055D01*
X0414168Y0172710D01*
X0412858Y0172710D01*
X0412204Y0172055D01*
X0412204Y0169437D01*
X0410613Y0172710D02*
X0409304Y0172710D01*
X0410613Y0172710D01*
X0416554Y0170746D02*
X0418518Y0170746D01*
X0419173Y0170091D01*
X0419173Y0169437D01*
X0418518Y0168782D01*
X0417209Y0168782D01*
X0416554Y0169437D01*
X0416554Y0170746D01*
X0417863Y0172055D01*
X0419173Y0172710D01*
X0418518Y0172710D02*
X0416554Y0170746D01*
X0419173Y0170746D01*
X0418518Y0168782D02*
X0418518Y0172710D01*
X0393711Y0170347D02*
X0393711Y0169823D01*
X0391618Y0167730D01*
X0391618Y0167207D01*
X0393711Y0169300D01*
X0393711Y0169823D01*
X0393188Y0170347D01*
X0392142Y0170347D01*
X0391618Y0169823D01*
X0391618Y0170347D02*
X0393711Y0170347D01*
X0393711Y0167207D02*
X0391618Y0167207D01*
X0390086Y0167730D02*
X0389563Y0167207D01*
X0388516Y0167207D01*
X0387993Y0167730D01*
X0387993Y0169823D01*
X0388516Y0170347D01*
X0389563Y0170347D01*
X0390086Y0169823D01*
X0389563Y0170347D01*
X0388516Y0170347D01*
X0387993Y0169823D01*
X0387993Y0167730D01*
X0388516Y0167207D01*
X0389563Y0167207D01*
X0390086Y0167730D01*
X0386623Y0167207D02*
X0385576Y0167207D01*
X0386623Y0167207D01*
X0386100Y0167207D02*
X0386100Y0170347D01*
X0386100Y0167207D01*
X0385576Y0170347D02*
X0386623Y0170347D01*
X0385576Y0170347D01*
X0379246Y0180199D02*
X0377153Y0180199D01*
X0376910Y0180199D02*
X0375863Y0180199D01*
X0375340Y0180722D01*
X0375621Y0180199D02*
X0373528Y0180199D01*
X0373285Y0180199D02*
X0373808Y0180722D01*
X0373285Y0180199D02*
X0372238Y0180199D01*
X0371715Y0180722D01*
X0371715Y0182816D01*
X0372238Y0183339D01*
X0373285Y0183339D01*
X0373808Y0182816D01*
X0373528Y0182292D02*
X0374574Y0183339D01*
X0374574Y0180199D01*
X0376910Y0180199D02*
X0377433Y0180722D01*
X0377433Y0181246D01*
X0376910Y0181769D01*
X0376387Y0181769D01*
X0376910Y0181769D02*
X0377433Y0182292D01*
X0377433Y0182816D01*
X0376910Y0183339D01*
X0375863Y0183339D01*
X0375340Y0182816D01*
X0377153Y0182292D02*
X0378199Y0183339D01*
X0378199Y0180199D01*
X0371996Y0180722D02*
X0371472Y0180199D01*
X0370426Y0180199D01*
X0369902Y0180722D01*
X0369902Y0182816D01*
X0370426Y0183339D01*
X0371472Y0183339D01*
X0371996Y0182816D01*
X0371444Y0188073D02*
X0370398Y0188073D01*
X0370759Y0188073D02*
X0371282Y0188597D01*
X0370921Y0188073D02*
X0370921Y0191213D01*
X0370759Y0191213D02*
X0369712Y0191213D01*
X0369189Y0190690D01*
X0369189Y0188597D01*
X0369712Y0188073D01*
X0370759Y0188073D01*
X0372814Y0188073D02*
X0374907Y0188073D01*
X0374384Y0188073D02*
X0374907Y0188597D01*
X0374384Y0188073D02*
X0373338Y0188073D01*
X0372814Y0188597D01*
X0372814Y0190690D01*
X0373338Y0191213D01*
X0374384Y0191213D01*
X0374907Y0190690D01*
X0373861Y0191213D02*
X0373861Y0188073D01*
X0372814Y0190166D02*
X0373861Y0191213D01*
X0371444Y0191213D02*
X0370398Y0191213D01*
X0370759Y0191213D02*
X0371282Y0190690D01*
X0367819Y0191213D02*
X0366772Y0191213D01*
X0367296Y0191213D02*
X0367296Y0188073D01*
X0367819Y0188073D02*
X0366772Y0188073D01*
X0363104Y0187146D02*
X0362581Y0187670D01*
X0361534Y0187670D01*
X0361011Y0187146D01*
X0360768Y0187670D02*
X0359198Y0186100D01*
X0361292Y0186100D01*
X0361011Y0184530D02*
X0363104Y0186623D01*
X0363104Y0187146D01*
X0360768Y0187670D02*
X0360768Y0184530D01*
X0361011Y0184530D02*
X0363104Y0184530D01*
X0359479Y0184530D02*
X0357386Y0184530D01*
X0357143Y0184530D02*
X0357666Y0185053D01*
X0357143Y0184530D02*
X0356097Y0184530D01*
X0355573Y0185053D01*
X0355573Y0187146D01*
X0356097Y0187670D01*
X0357143Y0187670D01*
X0357666Y0187146D01*
X0357386Y0186623D02*
X0358432Y0187670D01*
X0358432Y0184530D01*
X0355854Y0185053D02*
X0355331Y0184530D01*
X0354284Y0184530D01*
X0353761Y0185053D01*
X0353761Y0187146D01*
X0354284Y0187670D01*
X0355331Y0187670D01*
X0355854Y0187146D01*
X0356579Y0199491D02*
X0358672Y0199491D01*
X0358672Y0200014D02*
X0358672Y0202107D01*
X0358149Y0202630D01*
X0357102Y0202630D01*
X0356579Y0202107D01*
X0356579Y0201584D01*
X0357102Y0201060D01*
X0358672Y0201060D01*
X0358672Y0200014D02*
X0358149Y0199491D01*
X0357102Y0199491D01*
X0356579Y0200014D01*
X0357625Y0199491D02*
X0357625Y0202630D01*
X0356579Y0201584D01*
X0355047Y0202107D02*
X0354524Y0202630D01*
X0353477Y0202630D01*
X0352954Y0202107D01*
X0352954Y0200014D01*
X0353477Y0199491D01*
X0354524Y0199491D01*
X0355047Y0200014D01*
X0354524Y0199491D01*
X0353477Y0199491D01*
X0352954Y0200014D01*
X0352954Y0202107D01*
X0353477Y0202630D01*
X0354524Y0202630D01*
X0355047Y0202107D01*
X0351584Y0202630D02*
X0350537Y0202630D01*
X0351584Y0202630D01*
X0351060Y0202630D02*
X0351060Y0199491D01*
X0351060Y0202630D01*
X0350537Y0199491D02*
X0351584Y0199491D01*
X0350537Y0199491D01*
X0347828Y0214707D02*
X0345025Y0214707D01*
X0345025Y0215408D02*
X0345726Y0214707D01*
X0347127Y0214707D01*
X0347828Y0215408D01*
X0347828Y0218210D01*
X0347127Y0218911D01*
X0345726Y0218911D01*
X0345025Y0218210D01*
X0345025Y0217509D01*
X0345726Y0216809D01*
X0347828Y0216809D01*
X0346426Y0218911D02*
X0346426Y0214707D01*
X0345025Y0217509D02*
X0346426Y0218911D01*
X0343224Y0218210D02*
X0342523Y0218911D01*
X0341122Y0218911D01*
X0340421Y0218210D01*
X0340421Y0215408D01*
X0341122Y0214707D01*
X0342523Y0214707D01*
X0343224Y0215408D01*
X0342523Y0214707D01*
X0341122Y0214707D01*
X0340421Y0215408D01*
X0340421Y0218210D01*
X0341122Y0218911D01*
X0342523Y0218911D01*
X0343224Y0218210D01*
X0376439Y0191213D02*
X0376439Y0189643D01*
X0377486Y0190166D01*
X0378009Y0190166D01*
X0378533Y0189643D01*
X0378533Y0188597D01*
X0378009Y0188073D01*
X0376963Y0188073D01*
X0376439Y0188597D01*
X0378533Y0190690D01*
X0378533Y0188597D01*
X0378009Y0188073D01*
X0376963Y0188073D01*
X0376439Y0188597D01*
X0376439Y0190690D01*
X0376963Y0191213D01*
X0378009Y0191213D01*
X0378533Y0190690D01*
X0378533Y0191213D02*
X0376439Y0191213D01*
X0380662Y0199097D02*
X0381709Y0199097D01*
X0382232Y0199620D01*
X0381951Y0199620D02*
X0382475Y0199097D01*
X0383521Y0199097D01*
X0384044Y0199620D01*
X0383764Y0199097D02*
X0385857Y0199097D01*
X0386100Y0199097D02*
X0387146Y0199097D01*
X0387669Y0199620D01*
X0387669Y0200143D01*
X0387146Y0200667D01*
X0385576Y0200667D01*
X0385576Y0199620D01*
X0386100Y0199097D01*
X0384810Y0199097D02*
X0384810Y0202237D01*
X0383764Y0201190D01*
X0384044Y0201713D02*
X0383521Y0202237D01*
X0382475Y0202237D01*
X0381951Y0201713D01*
X0381951Y0199620D01*
X0380662Y0199097D02*
X0380139Y0199620D01*
X0380139Y0201713D01*
X0380662Y0202237D01*
X0381709Y0202237D01*
X0382232Y0201713D01*
X0385576Y0200667D02*
X0386623Y0201713D01*
X0387669Y0202237D01*
X0388959Y0202237D02*
X0387389Y0200667D01*
X0389482Y0200667D01*
X0388959Y0199097D02*
X0388959Y0202237D01*
X0418328Y0202501D02*
X0418328Y0200408D01*
X0418851Y0199884D01*
X0419897Y0199884D01*
X0420421Y0200408D01*
X0420140Y0200408D02*
X0420663Y0199884D01*
X0421710Y0199884D01*
X0422233Y0200408D01*
X0421953Y0199884D02*
X0424046Y0199884D01*
X0424289Y0199884D02*
X0423765Y0200408D01*
X0424289Y0199884D02*
X0425335Y0199884D01*
X0425858Y0200408D01*
X0425858Y0201454D01*
X0425335Y0201977D01*
X0424812Y0201977D01*
X0423765Y0201454D01*
X0423765Y0203024D01*
X0425858Y0203024D01*
X0426101Y0203024D02*
X0427148Y0203024D01*
X0427671Y0202501D01*
X0427671Y0201977D01*
X0427148Y0201454D01*
X0427671Y0200931D01*
X0427671Y0200408D01*
X0427148Y0199884D01*
X0426101Y0199884D01*
X0425578Y0200408D01*
X0426624Y0201454D02*
X0427148Y0201454D01*
X0425578Y0202501D02*
X0426101Y0203024D01*
X0422999Y0203024D02*
X0422999Y0199884D01*
X0421953Y0201977D02*
X0422999Y0203024D01*
X0422233Y0202501D02*
X0421710Y0203024D01*
X0420663Y0203024D01*
X0420140Y0202501D01*
X0420140Y0200408D01*
X0420421Y0202501D02*
X0419897Y0203024D01*
X0418851Y0203024D01*
X0418328Y0202501D01*
X0456535Y0206528D02*
X0465629Y0206528D01*
X0465629Y0125512D01*
X0456535Y0125512D01*
X0456535Y0206528D01*
X0454863Y0129008D02*
X0453293Y0127438D01*
X0455386Y0127438D01*
X0455386Y0127962D02*
X0455386Y0128485D01*
X0454863Y0129008D01*
X0454863Y0125869D01*
X0455386Y0125869D02*
X0453293Y0125869D01*
X0455386Y0127962D01*
X0454863Y0129008D02*
X0453816Y0129008D01*
X0453293Y0128485D01*
X0451761Y0129008D02*
X0449668Y0125869D01*
X0451761Y0129008D01*
X0449668Y0129008D02*
X0451761Y0125869D01*
X0449668Y0129008D01*
X0383011Y0125862D02*
X0381436Y0125862D01*
X0382224Y0124287D01*
X0383011Y0125862D01*
X0382893Y0125625D02*
X0381555Y0125625D01*
X0381954Y0124827D02*
X0382493Y0124827D01*
X0376712Y0125862D02*
X0375531Y0125862D01*
X0375531Y0123106D01*
X0376712Y0125862D02*
X0376712Y0127043D01*
X0365501Y0121015D02*
X0363408Y0121015D01*
X0362038Y0121538D02*
X0360991Y0121538D01*
X0361515Y0121538D02*
X0361515Y0124677D01*
X0362038Y0124677D02*
X0360991Y0124677D01*
X0359459Y0124677D02*
X0357366Y0122584D01*
X0357890Y0123108D02*
X0359459Y0121538D01*
X0357366Y0121538D02*
X0357366Y0124677D01*
X0355834Y0124677D02*
X0355834Y0122061D01*
X0355311Y0121538D01*
X0354264Y0121538D01*
X0353741Y0122061D01*
X0353741Y0124677D01*
X0352209Y0124677D02*
X0352209Y0124154D01*
X0350116Y0122061D01*
X0350116Y0121538D01*
X0352209Y0121538D01*
X0352209Y0124677D02*
X0350116Y0124677D01*
X0348061Y0124677D02*
X0346491Y0123108D01*
X0348584Y0123108D01*
X0348061Y0124677D02*
X0348061Y0121538D01*
X0344959Y0121538D02*
X0343389Y0123108D01*
X0342866Y0122584D02*
X0344959Y0124677D01*
X0342866Y0124677D02*
X0342866Y0121538D01*
X0341334Y0121015D02*
X0339241Y0121015D01*
X0337709Y0122061D02*
X0337185Y0121538D01*
X0336139Y0121538D01*
X0335615Y0122061D01*
X0335615Y0124154D01*
X0336139Y0124677D01*
X0337185Y0124677D01*
X0337709Y0124154D01*
X0337709Y0123108D01*
X0337185Y0122584D01*
X0337185Y0123631D01*
X0336139Y0123631D01*
X0336139Y0122584D01*
X0337185Y0122584D01*
X0332551Y0125869D02*
X0330458Y0125869D01*
X0330458Y0126392D02*
X0330982Y0125869D01*
X0332028Y0125869D01*
X0332551Y0126392D01*
X0332551Y0126915D01*
X0332028Y0127438D01*
X0331505Y0127438D01*
X0332028Y0127438D02*
X0332551Y0127962D01*
X0332551Y0128485D01*
X0332028Y0129008D01*
X0330982Y0129008D01*
X0330458Y0128485D01*
X0330458Y0127962D02*
X0331505Y0129008D01*
X0331505Y0125869D01*
X0328926Y0125869D02*
X0326833Y0129008D01*
X0328926Y0125869D01*
X0326833Y0125869D02*
X0328926Y0129008D01*
X0326833Y0125869D01*
X0339241Y0116022D02*
X0339241Y0111302D01*
X0339241Y0113662D02*
X0341601Y0116022D01*
X0342781Y0116022D01*
X0345283Y0117202D02*
X0345283Y0112482D01*
X0350003Y0117202D01*
X0350003Y0112482D01*
X0348823Y0111302D01*
X0346463Y0111302D01*
X0345283Y0112482D01*
X0345283Y0117202D02*
X0346463Y0118382D01*
X0348823Y0118382D01*
X0350003Y0117202D01*
X0352533Y0112482D02*
X0353713Y0112482D01*
X0353713Y0111302D01*
X0352533Y0111302D01*
X0352533Y0112482D01*
X0356158Y0111302D02*
X0360878Y0111302D01*
X0358518Y0111302D02*
X0358518Y0118382D01*
X0356158Y0116022D01*
X0353526Y0106567D02*
X0352479Y0106567D01*
X0351956Y0106044D01*
X0353526Y0106567D02*
X0354049Y0106044D01*
X0354049Y0105521D01*
X0351956Y0103428D01*
X0354049Y0103428D01*
X0355581Y0103951D02*
X0355581Y0104997D01*
X0356104Y0105521D01*
X0357151Y0105521D01*
X0357674Y0104997D01*
X0357674Y0104474D01*
X0355581Y0104474D01*
X0355581Y0103951D02*
X0356104Y0103428D01*
X0357151Y0103428D01*
X0359206Y0103951D02*
X0359206Y0104474D01*
X0359729Y0104997D01*
X0360776Y0104997D01*
X0361299Y0104474D01*
X0361299Y0103951D01*
X0360776Y0103428D01*
X0359729Y0103428D01*
X0359206Y0103951D01*
X0359729Y0104997D02*
X0359206Y0105521D01*
X0359206Y0106044D01*
X0359729Y0106567D01*
X0360776Y0106567D01*
X0361299Y0106044D01*
X0361299Y0105521D01*
X0360776Y0104997D01*
X0350424Y0104997D02*
X0348331Y0104997D01*
X0349901Y0106567D01*
X0349901Y0103428D01*
X0346799Y0103951D02*
X0346799Y0104474D01*
X0346275Y0104997D01*
X0344706Y0104997D01*
X0344706Y0103951D01*
X0345229Y0103428D01*
X0346275Y0103428D01*
X0346799Y0103951D01*
X0345752Y0106044D02*
X0346799Y0106567D01*
X0345752Y0106044D02*
X0344706Y0104997D01*
X0343174Y0103428D02*
X0341080Y0103428D01*
X0342127Y0103428D02*
X0342127Y0106567D01*
X0341080Y0105521D01*
X0339548Y0103428D02*
X0337455Y0103428D01*
X0338502Y0103428D02*
X0338502Y0106567D01*
X0337455Y0105521D01*
X0250662Y0125869D02*
X0248569Y0125869D01*
X0250662Y0127962D01*
X0250662Y0128485D01*
X0250138Y0129008D01*
X0249092Y0129008D01*
X0248569Y0128485D01*
X0249092Y0129008D01*
X0250138Y0129008D01*
X0250662Y0128485D01*
X0250662Y0127962D01*
X0248569Y0125869D01*
X0250662Y0125869D01*
X0247036Y0125869D02*
X0244943Y0129008D01*
X0247036Y0125869D01*
X0244943Y0125869D02*
X0247036Y0129008D01*
X0244943Y0125869D01*
X0156052Y0280593D02*
X0155005Y0280593D01*
X0154482Y0281116D01*
X0154482Y0281639D01*
X0155005Y0282163D01*
X0156052Y0282163D01*
X0156575Y0281639D01*
X0156575Y0281116D01*
X0156052Y0280593D01*
X0156052Y0282163D02*
X0156575Y0282686D01*
X0156575Y0283209D01*
X0156052Y0283733D01*
X0155005Y0283733D01*
X0154482Y0283209D01*
X0154482Y0282686D01*
X0155005Y0282163D01*
X0152950Y0282163D02*
X0152950Y0281639D01*
X0150857Y0281639D01*
X0150857Y0281116D02*
X0150857Y0282163D01*
X0151380Y0282686D01*
X0152426Y0282686D01*
X0152950Y0282163D01*
X0152426Y0280593D02*
X0151380Y0280593D01*
X0150857Y0281116D01*
X0149325Y0280593D02*
X0147231Y0280593D01*
X0149325Y0282686D01*
X0149325Y0283209D01*
X0148801Y0283733D01*
X0147755Y0283733D01*
X0147231Y0283209D01*
X0145699Y0282163D02*
X0143606Y0282163D01*
X0145176Y0283733D01*
X0145176Y0280593D01*
X0142074Y0281116D02*
X0142074Y0281639D01*
X0141551Y0282163D01*
X0139981Y0282163D01*
X0139981Y0281116D01*
X0140504Y0280593D01*
X0141551Y0280593D01*
X0142074Y0281116D01*
X0141028Y0283209D02*
X0139981Y0282163D01*
X0141028Y0283209D02*
X0142074Y0283733D01*
X0137403Y0283733D02*
X0137403Y0280593D01*
X0138449Y0280593D02*
X0136356Y0280593D01*
X0134824Y0280593D02*
X0132731Y0280593D01*
X0133777Y0280593D02*
X0133777Y0283733D01*
X0132731Y0282686D01*
X0136356Y0282686D02*
X0137403Y0283733D01*
X0134516Y0288467D02*
X0134516Y0293187D01*
X0134516Y0290827D02*
X0136876Y0293187D01*
X0138056Y0293187D01*
X0140558Y0294367D02*
X0141738Y0295547D01*
X0144098Y0295547D01*
X0145278Y0294367D01*
X0140558Y0289647D01*
X0141738Y0288467D01*
X0144098Y0288467D01*
X0145278Y0289647D01*
X0145278Y0294367D01*
X0145392Y0298703D02*
X0147485Y0298703D01*
X0149017Y0299226D02*
X0149540Y0298703D01*
X0150587Y0298703D01*
X0151110Y0299226D01*
X0151110Y0301843D01*
X0152642Y0301843D02*
X0152642Y0298703D01*
X0152642Y0299750D02*
X0154735Y0301843D01*
X0156267Y0301843D02*
X0157314Y0301843D01*
X0156790Y0301843D02*
X0156790Y0298703D01*
X0156267Y0298703D02*
X0157314Y0298703D01*
X0158684Y0298180D02*
X0160777Y0298180D01*
X0154735Y0298703D02*
X0153165Y0300273D01*
X0149017Y0299226D02*
X0149017Y0301843D01*
X0147485Y0301843D02*
X0147485Y0301320D01*
X0145392Y0299226D01*
X0145392Y0298703D01*
X0143336Y0298703D02*
X0143336Y0301843D01*
X0141766Y0300273D01*
X0143860Y0300273D01*
X0145392Y0301843D02*
X0147485Y0301843D01*
X0140234Y0301843D02*
X0138141Y0299750D01*
X0138665Y0300273D02*
X0140234Y0298703D01*
X0138141Y0298703D02*
X0138141Y0301843D01*
X0136609Y0298180D02*
X0134516Y0298180D01*
X0132984Y0299226D02*
X0132461Y0298703D01*
X0131414Y0298703D01*
X0130891Y0299226D01*
X0130891Y0301320D01*
X0131414Y0301843D01*
X0132461Y0301843D01*
X0132984Y0301320D01*
X0132984Y0300273D01*
X0132461Y0299750D01*
X0132461Y0300796D01*
X0131414Y0300796D01*
X0131414Y0299750D01*
X0132461Y0299750D01*
X0127827Y0303034D02*
X0125734Y0303034D01*
X0125734Y0303557D01*
X0127827Y0305650D01*
X0127827Y0306174D01*
X0125734Y0306174D01*
X0126780Y0306174D02*
X0126780Y0303034D01*
X0125734Y0305127D02*
X0126780Y0306174D01*
X0124202Y0306174D02*
X0122109Y0303034D01*
X0124202Y0306174D01*
X0122109Y0306174D02*
X0124202Y0303034D01*
X0122109Y0306174D01*
X0120905Y0302680D02*
X0111810Y0302680D01*
X0111810Y0383695D01*
X0120905Y0383695D01*
X0120905Y0302680D01*
X0140558Y0294367D02*
X0140558Y0289647D01*
X0147808Y0289647D02*
X0147808Y0288467D01*
X0148988Y0288467D01*
X0148988Y0289647D01*
X0147808Y0289647D01*
X0151434Y0288467D02*
X0156154Y0288467D01*
X0153794Y0288467D02*
X0153794Y0295547D01*
X0151434Y0293187D01*
X0170806Y0300272D02*
X0201909Y0300272D01*
X0201909Y0303028D01*
X0200728Y0303028D01*
X0200728Y0304209D01*
X0171987Y0304209D01*
X0171987Y0303028D01*
X0170806Y0303028D01*
X0170806Y0300272D01*
X0201909Y0300272D01*
X0201909Y0304209D02*
X0200728Y0304209D01*
X0201909Y0304209D02*
X0201909Y0305783D01*
X0201909Y0317594D02*
X0201909Y0321531D01*
X0197184Y0321531D01*
X0203293Y0322719D02*
X0203293Y0326647D01*
X0203293Y0322719D01*
X0205911Y0322719D01*
X0203293Y0322719D01*
X0207643Y0323374D02*
X0207643Y0325992D01*
X0208298Y0326647D01*
X0209607Y0326647D01*
X0210262Y0325992D01*
X0209607Y0326647D01*
X0208298Y0326647D01*
X0207643Y0325992D01*
X0207643Y0323374D01*
X0208298Y0322719D01*
X0209607Y0322719D01*
X0210262Y0323374D01*
X0209607Y0322719D01*
X0208298Y0322719D01*
X0207643Y0323374D01*
X0211993Y0322719D02*
X0213957Y0322719D01*
X0214612Y0323374D01*
X0214612Y0325992D01*
X0213957Y0326647D01*
X0211993Y0326647D01*
X0211993Y0322719D01*
X0213957Y0322719D01*
X0214612Y0323374D01*
X0214612Y0325992D01*
X0213957Y0326647D01*
X0211993Y0326647D01*
X0211993Y0322719D01*
X0216343Y0322719D02*
X0218962Y0322719D01*
X0218307Y0322719D02*
X0218307Y0326647D01*
X0216343Y0324683D01*
X0218962Y0324683D01*
X0217653Y0326647D02*
X0217653Y0322719D01*
X0216343Y0325337D02*
X0217653Y0326647D01*
X0207592Y0329806D02*
X0205499Y0329806D01*
X0206546Y0329806D02*
X0206546Y0332945D01*
X0205499Y0331899D01*
X0205780Y0332422D02*
X0203687Y0330329D01*
X0203687Y0329806D01*
X0203444Y0329806D02*
X0202397Y0329806D01*
X0201874Y0330329D01*
X0202155Y0330329D02*
X0201631Y0329806D01*
X0200585Y0329806D01*
X0200061Y0330329D01*
X0200061Y0332422D01*
X0200585Y0332945D01*
X0201631Y0332945D01*
X0202155Y0332422D01*
X0201874Y0332422D02*
X0202397Y0332945D01*
X0203444Y0332945D01*
X0203967Y0332422D01*
X0203967Y0331899D01*
X0203444Y0331375D01*
X0203967Y0330852D01*
X0203967Y0330329D01*
X0203444Y0329806D01*
X0203444Y0331375D02*
X0202921Y0331375D01*
X0203687Y0332945D02*
X0205780Y0332945D01*
X0205780Y0332422D01*
X0205499Y0336892D02*
X0207592Y0338985D01*
X0207592Y0339509D01*
X0207069Y0340032D01*
X0206022Y0340032D01*
X0205499Y0339509D01*
X0205780Y0339509D02*
X0205780Y0338985D01*
X0205256Y0338462D01*
X0204210Y0338462D01*
X0203687Y0338985D01*
X0203687Y0339509D01*
X0204210Y0340032D01*
X0205256Y0340032D01*
X0205780Y0339509D01*
X0205256Y0338462D02*
X0205780Y0337939D01*
X0205780Y0337415D01*
X0205256Y0336892D01*
X0204210Y0336892D01*
X0203687Y0337415D01*
X0203687Y0337939D01*
X0204210Y0338462D01*
X0203967Y0338985D02*
X0203444Y0338462D01*
X0203967Y0337939D01*
X0203967Y0337415D01*
X0203444Y0336892D01*
X0202397Y0336892D01*
X0201874Y0337415D01*
X0202155Y0337415D02*
X0201631Y0336892D01*
X0200585Y0336892D01*
X0200061Y0337415D01*
X0200061Y0339509D01*
X0200585Y0340032D01*
X0201631Y0340032D01*
X0202155Y0339509D01*
X0201874Y0339509D02*
X0202397Y0340032D01*
X0203444Y0340032D01*
X0203967Y0339509D01*
X0203967Y0338985D01*
X0203444Y0338462D02*
X0202921Y0338462D01*
X0200342Y0339509D02*
X0199819Y0340032D01*
X0198772Y0340032D01*
X0198249Y0339509D01*
X0198249Y0337415D01*
X0198772Y0336892D01*
X0199819Y0336892D01*
X0200342Y0337415D01*
X0199819Y0332945D02*
X0198772Y0332945D01*
X0198249Y0332422D01*
X0198249Y0330329D01*
X0198772Y0329806D01*
X0199819Y0329806D01*
X0200342Y0330329D01*
X0200342Y0332422D02*
X0199819Y0332945D01*
X0205499Y0336892D02*
X0207592Y0336892D01*
X0207268Y0345947D02*
X0205959Y0345947D01*
X0205304Y0346602D01*
X0205304Y0349220D01*
X0205959Y0349875D01*
X0207268Y0349875D01*
X0207923Y0349220D01*
X0207479Y0349220D02*
X0207479Y0346602D01*
X0208134Y0345947D01*
X0209443Y0345947D01*
X0210098Y0346602D01*
X0209654Y0345947D02*
X0212273Y0345947D01*
X0210964Y0345947D02*
X0210964Y0349875D01*
X0209654Y0348566D01*
X0210098Y0349220D02*
X0209443Y0349875D01*
X0208134Y0349875D01*
X0207479Y0349220D01*
X0205889Y0349875D02*
X0204579Y0349875D01*
X0205234Y0349875D02*
X0205234Y0345947D01*
X0204579Y0345947D02*
X0205889Y0345947D01*
X0207268Y0345947D02*
X0207923Y0346602D01*
X0211830Y0347911D02*
X0214448Y0347911D01*
X0214005Y0347911D02*
X0215969Y0347911D01*
X0216623Y0347256D01*
X0216623Y0346602D01*
X0215969Y0345947D01*
X0214659Y0345947D01*
X0214005Y0346602D01*
X0214005Y0347911D01*
X0215314Y0349220D01*
X0216623Y0349875D01*
X0213793Y0349875D02*
X0211830Y0347911D01*
X0213793Y0345947D02*
X0213793Y0349875D01*
X0203713Y0349875D02*
X0202404Y0349875D01*
X0203059Y0349875D02*
X0203059Y0345947D01*
X0203713Y0345947D02*
X0202404Y0345947D01*
X0192612Y0346989D02*
X0190519Y0344896D01*
X0190519Y0344372D01*
X0188987Y0344372D02*
X0186894Y0344372D01*
X0188987Y0346466D01*
X0188987Y0346989D01*
X0188464Y0347512D01*
X0187417Y0347512D01*
X0186894Y0346989D01*
X0186894Y0346466D02*
X0187940Y0347512D01*
X0187940Y0344372D01*
X0186894Y0344372D02*
X0188987Y0344372D01*
X0190519Y0347512D02*
X0192612Y0347512D01*
X0192612Y0346989D01*
X0185362Y0346989D02*
X0184839Y0347512D01*
X0183792Y0347512D01*
X0183269Y0346989D01*
X0183269Y0344896D01*
X0183792Y0344372D01*
X0184839Y0344372D01*
X0185362Y0344896D01*
X0184839Y0344372D01*
X0183792Y0344372D01*
X0183269Y0344896D01*
X0183269Y0346989D01*
X0183792Y0347512D01*
X0184839Y0347512D01*
X0185362Y0346989D01*
X0181899Y0347512D02*
X0180852Y0347512D01*
X0181899Y0347512D01*
X0181375Y0347512D02*
X0181375Y0344372D01*
X0181375Y0347512D01*
X0180852Y0344372D02*
X0181899Y0344372D01*
X0180852Y0344372D01*
X0172428Y0357365D02*
X0172428Y0357888D01*
X0174521Y0359981D01*
X0174521Y0360504D01*
X0172428Y0360504D01*
X0172186Y0360504D02*
X0172709Y0359981D01*
X0172709Y0359458D01*
X0172186Y0358934D01*
X0172709Y0358411D01*
X0172709Y0357888D01*
X0172186Y0357365D01*
X0171139Y0357365D01*
X0170616Y0357888D01*
X0170896Y0357365D02*
X0168803Y0357365D01*
X0170896Y0359458D01*
X0170896Y0359981D01*
X0170373Y0360504D01*
X0169326Y0360504D01*
X0168803Y0359981D01*
X0169084Y0359981D02*
X0168560Y0360504D01*
X0167514Y0360504D01*
X0166991Y0359981D01*
X0166991Y0357888D01*
X0167514Y0357365D01*
X0168560Y0357365D01*
X0169084Y0357888D01*
X0167271Y0357888D02*
X0166748Y0357365D01*
X0165701Y0357365D01*
X0165178Y0357888D01*
X0165178Y0359981D01*
X0165701Y0360504D01*
X0166748Y0360504D01*
X0167271Y0359981D01*
X0170616Y0359981D02*
X0171139Y0360504D01*
X0172186Y0360504D01*
X0172186Y0358934D02*
X0171662Y0358934D01*
X0172238Y0365239D02*
X0171715Y0365762D01*
X0173808Y0367855D01*
X0173808Y0365762D01*
X0173285Y0365239D01*
X0172238Y0365239D01*
X0171715Y0365762D01*
X0171715Y0367855D01*
X0172238Y0368378D01*
X0173285Y0368378D01*
X0173808Y0367855D01*
X0173808Y0368378D02*
X0171715Y0368378D01*
X0171715Y0366808D01*
X0172762Y0367332D01*
X0173285Y0367332D01*
X0173808Y0366808D01*
X0173808Y0365762D01*
X0173285Y0365239D01*
X0172238Y0365239D01*
X0170183Y0365239D02*
X0168090Y0365239D01*
X0170183Y0367332D01*
X0170183Y0367855D01*
X0169660Y0368378D01*
X0168613Y0368378D01*
X0168090Y0367855D01*
X0168090Y0365762D01*
X0168613Y0365239D01*
X0169660Y0365239D01*
X0170183Y0365762D01*
X0170183Y0367855D02*
X0169660Y0368378D01*
X0168613Y0368378D01*
X0168090Y0367855D01*
X0166720Y0368378D02*
X0165673Y0368378D01*
X0166035Y0368378D02*
X0164988Y0368378D01*
X0164465Y0367855D01*
X0164465Y0365762D01*
X0164988Y0365239D01*
X0166035Y0365239D01*
X0166558Y0365762D01*
X0166720Y0365239D02*
X0165673Y0365239D01*
X0166196Y0365239D02*
X0166196Y0368378D01*
X0166035Y0368378D02*
X0166558Y0367855D01*
X0163095Y0368378D02*
X0162048Y0368378D01*
X0162571Y0368378D02*
X0162571Y0365239D01*
X0162048Y0365239D02*
X0163095Y0365239D01*
X0158380Y0364312D02*
X0158380Y0363788D01*
X0157856Y0363265D01*
X0156810Y0363265D01*
X0156287Y0363788D01*
X0156287Y0364312D01*
X0156810Y0364835D01*
X0157856Y0364835D01*
X0158380Y0364312D01*
X0157856Y0363265D02*
X0158380Y0362742D01*
X0158380Y0362219D01*
X0157856Y0361695D01*
X0156810Y0361695D01*
X0156287Y0362219D01*
X0156287Y0362742D01*
X0156810Y0363265D01*
X0156567Y0363265D02*
X0154474Y0363265D01*
X0156044Y0364835D01*
X0156044Y0361695D01*
X0154755Y0361695D02*
X0152661Y0361695D01*
X0154755Y0363788D01*
X0154755Y0364312D01*
X0154231Y0364835D01*
X0153185Y0364835D01*
X0152661Y0364312D01*
X0152942Y0364312D02*
X0152419Y0364835D01*
X0151372Y0364835D01*
X0150849Y0364312D01*
X0150849Y0362219D01*
X0151372Y0361695D01*
X0152419Y0361695D01*
X0152942Y0362219D01*
X0151129Y0362219D02*
X0150606Y0361695D01*
X0149560Y0361695D01*
X0149036Y0362219D01*
X0149036Y0364312D01*
X0149560Y0364835D01*
X0150606Y0364835D01*
X0151129Y0364312D01*
X0151854Y0376656D02*
X0153948Y0376656D01*
X0151854Y0376656D01*
X0152901Y0376656D02*
X0152901Y0379796D01*
X0151854Y0378749D01*
X0152901Y0379796D01*
X0152901Y0376656D01*
X0150322Y0377179D02*
X0149799Y0376656D01*
X0148753Y0376656D01*
X0148229Y0377179D01*
X0148229Y0379272D01*
X0148753Y0379796D01*
X0149799Y0379796D01*
X0150322Y0379272D01*
X0149799Y0379796D01*
X0148753Y0379796D01*
X0148229Y0379272D01*
X0148229Y0377179D01*
X0148753Y0376656D01*
X0149799Y0376656D01*
X0150322Y0377179D01*
X0146859Y0376656D02*
X0145813Y0376656D01*
X0146859Y0376656D01*
X0146336Y0376656D02*
X0146336Y0379796D01*
X0146336Y0376656D01*
X0145813Y0379796D02*
X0146859Y0379796D01*
X0145813Y0379796D01*
X0155480Y0379272D02*
X0155480Y0378749D01*
X0156003Y0378226D01*
X0157573Y0378226D01*
X0157573Y0379272D02*
X0157049Y0379796D01*
X0156003Y0379796D01*
X0155480Y0379272D01*
X0157573Y0379272D02*
X0157573Y0377179D01*
X0157049Y0376656D01*
X0156003Y0376656D01*
X0155480Y0377179D01*
X0144705Y0391872D02*
X0143303Y0391872D01*
X0142603Y0392573D01*
X0143103Y0391872D02*
X0140301Y0391872D01*
X0140801Y0391872D02*
X0137999Y0391872D01*
X0140801Y0394675D01*
X0140801Y0395375D01*
X0140101Y0396076D01*
X0138699Y0396076D01*
X0137999Y0395375D01*
X0138499Y0395375D02*
X0137799Y0396076D01*
X0136397Y0396076D01*
X0135697Y0395375D01*
X0135697Y0392573D01*
X0136397Y0391872D01*
X0137799Y0391872D01*
X0138499Y0392573D01*
X0136197Y0392573D02*
X0135497Y0391872D01*
X0134095Y0391872D01*
X0133395Y0392573D01*
X0133395Y0395375D01*
X0134095Y0396076D01*
X0135497Y0396076D01*
X0136197Y0395375D01*
X0140301Y0394675D02*
X0141702Y0396076D01*
X0141702Y0391872D01*
X0142603Y0393974D02*
X0144004Y0394675D01*
X0144705Y0394675D01*
X0145405Y0393974D01*
X0145405Y0392573D01*
X0144705Y0391872D01*
X0142603Y0393974D02*
X0142603Y0396076D01*
X0145405Y0396076D01*
X0175414Y0378879D02*
X0175414Y0376785D01*
X0175938Y0376262D01*
X0176984Y0376262D01*
X0177507Y0376785D01*
X0177227Y0376785D02*
X0177750Y0376262D01*
X0178797Y0376262D01*
X0179320Y0376785D01*
X0179039Y0376785D02*
X0179563Y0376262D01*
X0180609Y0376262D01*
X0181133Y0376785D01*
X0181133Y0377309D01*
X0180609Y0377832D01*
X0180086Y0377832D01*
X0180609Y0377832D02*
X0181133Y0378355D01*
X0181133Y0378879D01*
X0180609Y0379402D01*
X0179563Y0379402D01*
X0179039Y0378879D01*
X0179320Y0378879D02*
X0178797Y0379402D01*
X0177750Y0379402D01*
X0177227Y0378879D01*
X0177227Y0376785D01*
X0177507Y0378879D02*
X0176984Y0379402D01*
X0175938Y0379402D01*
X0175414Y0378879D01*
X0180852Y0377832D02*
X0180852Y0376785D01*
X0181375Y0376262D01*
X0182422Y0376262D01*
X0182945Y0376785D01*
X0182945Y0377309D01*
X0182422Y0377832D01*
X0180852Y0377832D01*
X0181899Y0378879D01*
X0182945Y0379402D01*
X0183188Y0379402D02*
X0184234Y0379402D01*
X0184758Y0378879D01*
X0182665Y0376785D01*
X0183188Y0376262D01*
X0184234Y0376262D01*
X0184758Y0376785D01*
X0184758Y0378879D01*
X0183188Y0379402D02*
X0182665Y0378879D01*
X0182665Y0376785D01*
X0213603Y0377573D02*
X0214127Y0377050D01*
X0215173Y0377050D01*
X0215696Y0377573D01*
X0215416Y0377573D02*
X0215939Y0377050D01*
X0216986Y0377050D01*
X0217509Y0377573D01*
X0217228Y0377050D02*
X0219321Y0379143D01*
X0219321Y0379666D01*
X0218798Y0380189D01*
X0217752Y0380189D01*
X0217228Y0379666D01*
X0217509Y0379666D02*
X0216986Y0380189D01*
X0215939Y0380189D01*
X0215416Y0379666D01*
X0215416Y0377573D01*
X0213603Y0377573D02*
X0213603Y0379666D01*
X0214127Y0380189D01*
X0215173Y0380189D01*
X0215696Y0379666D01*
X0217228Y0377050D02*
X0219321Y0377050D01*
X0219564Y0377050D02*
X0219041Y0377573D01*
X0219564Y0377050D02*
X0220611Y0377050D01*
X0221134Y0377573D01*
X0221134Y0378619D01*
X0220611Y0379143D01*
X0220087Y0379143D01*
X0219041Y0378619D01*
X0219041Y0380189D01*
X0221134Y0380189D01*
X0221377Y0380189D02*
X0220853Y0379666D01*
X0220853Y0379143D01*
X0221377Y0378619D01*
X0222947Y0378619D01*
X0222947Y0377573D02*
X0222947Y0379666D01*
X0222423Y0380189D01*
X0221377Y0380189D01*
X0220853Y0377573D02*
X0221377Y0377050D01*
X0222423Y0377050D01*
X0222947Y0377573D01*
X0251810Y0383693D02*
X0260905Y0383693D01*
X0260905Y0302677D01*
X0251810Y0302677D01*
X0251810Y0383693D01*
X0316535Y0383695D02*
X0325629Y0383695D01*
X0325629Y0302680D01*
X0316535Y0302680D01*
X0316535Y0383695D01*
X0328584Y0369698D02*
X0327883Y0368997D01*
X0327883Y0366195D01*
X0328584Y0365494D01*
X0329985Y0365494D01*
X0330685Y0366195D01*
X0330185Y0366195D02*
X0330886Y0365494D01*
X0332287Y0365494D01*
X0332987Y0366195D01*
X0332487Y0365494D02*
X0335289Y0365494D01*
X0334789Y0365494D02*
X0337591Y0368297D01*
X0337591Y0368997D01*
X0336891Y0369698D01*
X0335490Y0369698D01*
X0334789Y0368997D01*
X0333888Y0369698D02*
X0333888Y0365494D01*
X0334789Y0365494D02*
X0337591Y0365494D01*
X0337792Y0365494D02*
X0337091Y0366195D01*
X0337091Y0366896D01*
X0337792Y0367596D01*
X0339193Y0367596D01*
X0339893Y0366896D01*
X0339893Y0366195D01*
X0339193Y0365494D01*
X0337792Y0365494D01*
X0337792Y0367596D02*
X0337091Y0368297D01*
X0337091Y0368997D01*
X0337792Y0369698D01*
X0339193Y0369698D01*
X0339893Y0368997D01*
X0339893Y0368297D01*
X0339193Y0367596D01*
X0333888Y0369698D02*
X0332487Y0368297D01*
X0332987Y0368997D02*
X0332287Y0369698D01*
X0330886Y0369698D01*
X0330185Y0368997D01*
X0330185Y0366195D01*
X0330685Y0368997D02*
X0329985Y0369698D01*
X0328584Y0369698D01*
X0330139Y0358536D02*
X0331709Y0358536D01*
X0332232Y0358012D01*
X0332232Y0356966D01*
X0331709Y0356443D01*
X0330139Y0356443D01*
X0331185Y0356443D02*
X0332232Y0355396D01*
X0331951Y0355396D02*
X0331951Y0358536D01*
X0333521Y0358536D01*
X0334044Y0358012D01*
X0334044Y0356966D01*
X0333521Y0356443D01*
X0331951Y0356443D01*
X0332998Y0356443D02*
X0334044Y0355396D01*
X0333764Y0355396D02*
X0335857Y0355396D01*
X0335576Y0355396D02*
X0337670Y0355396D01*
X0336623Y0355396D02*
X0336623Y0358536D01*
X0335576Y0357489D01*
X0334810Y0358536D02*
X0334810Y0355396D01*
X0334763Y0353811D02*
X0335809Y0353811D01*
X0336332Y0353288D01*
X0336332Y0352765D01*
X0335809Y0352241D01*
X0336332Y0351718D01*
X0336332Y0351195D01*
X0335809Y0350672D01*
X0334763Y0350672D01*
X0334239Y0351195D01*
X0334520Y0350672D02*
X0332427Y0350672D01*
X0334520Y0352765D01*
X0334520Y0353288D01*
X0333997Y0353811D01*
X0332950Y0353811D01*
X0332427Y0353288D01*
X0331661Y0353811D02*
X0331661Y0350672D01*
X0330895Y0350672D02*
X0329848Y0351718D01*
X0330371Y0351718D02*
X0328802Y0351718D01*
X0328559Y0351718D02*
X0326989Y0351718D01*
X0326989Y0350672D02*
X0326989Y0353811D01*
X0328559Y0353811D01*
X0329082Y0353288D01*
X0329082Y0352241D01*
X0328559Y0351718D01*
X0328036Y0351718D02*
X0329082Y0350672D01*
X0328802Y0350672D02*
X0328802Y0353811D01*
X0330371Y0353811D01*
X0330895Y0353288D01*
X0330895Y0352241D01*
X0330371Y0351718D01*
X0330614Y0350672D02*
X0332707Y0350672D01*
X0332950Y0349087D02*
X0333997Y0349087D01*
X0334520Y0348564D01*
X0334520Y0348040D01*
X0333997Y0347517D01*
X0334520Y0346994D01*
X0334520Y0346471D01*
X0333997Y0345947D01*
X0332950Y0345947D01*
X0332427Y0346471D01*
X0332707Y0345947D02*
X0330614Y0345947D01*
X0330895Y0345947D02*
X0329848Y0346994D01*
X0330371Y0346994D02*
X0328802Y0346994D01*
X0328559Y0346994D02*
X0326989Y0346994D01*
X0328036Y0346994D02*
X0329082Y0345947D01*
X0328802Y0345947D02*
X0328802Y0349087D01*
X0330371Y0349087D01*
X0330895Y0348564D01*
X0330895Y0347517D01*
X0330371Y0346994D01*
X0330614Y0348040D02*
X0331661Y0349087D01*
X0331661Y0345947D01*
X0331661Y0344363D02*
X0330614Y0343316D01*
X0330895Y0343839D02*
X0330895Y0342793D01*
X0330371Y0342269D01*
X0328802Y0342269D01*
X0328559Y0342269D02*
X0326989Y0342269D01*
X0326989Y0341223D02*
X0326989Y0344363D01*
X0328559Y0344363D01*
X0329082Y0343839D01*
X0329082Y0342793D01*
X0328559Y0342269D01*
X0328036Y0342269D02*
X0329082Y0341223D01*
X0328802Y0341223D02*
X0328802Y0344363D01*
X0330371Y0344363D01*
X0330895Y0343839D01*
X0331661Y0344363D02*
X0331661Y0341223D01*
X0330895Y0341223D02*
X0329848Y0342269D01*
X0330614Y0341223D02*
X0332707Y0341223D01*
X0333997Y0341223D02*
X0333997Y0344363D01*
X0332427Y0342793D01*
X0334520Y0342793D01*
X0334239Y0341746D02*
X0334239Y0341223D01*
X0334239Y0341746D02*
X0336332Y0343839D01*
X0336332Y0344363D01*
X0334239Y0344363D01*
X0334763Y0345947D02*
X0335809Y0345947D01*
X0336332Y0346471D01*
X0336332Y0346994D01*
X0335809Y0347517D01*
X0334239Y0347517D01*
X0334239Y0346471D01*
X0334763Y0345947D01*
X0334239Y0347517D02*
X0335286Y0348564D01*
X0336332Y0349087D01*
X0333997Y0347517D02*
X0333473Y0347517D01*
X0332427Y0348564D02*
X0332950Y0349087D01*
X0329082Y0348564D02*
X0329082Y0347517D01*
X0328559Y0346994D01*
X0329082Y0348564D02*
X0328559Y0349087D01*
X0326989Y0349087D01*
X0326989Y0345947D01*
X0330614Y0352765D02*
X0331661Y0353811D01*
X0330139Y0355396D02*
X0330139Y0358536D01*
X0333764Y0357489D02*
X0334810Y0358536D01*
X0337389Y0356966D02*
X0339482Y0356966D01*
X0338959Y0358536D02*
X0337389Y0356966D01*
X0338959Y0355396D02*
X0338959Y0358536D01*
X0334763Y0353811D02*
X0334239Y0353288D01*
X0335286Y0352241D02*
X0335809Y0352241D01*
X0336332Y0339638D02*
X0334239Y0339638D01*
X0334239Y0338068D01*
X0335286Y0338592D01*
X0335809Y0338592D01*
X0336332Y0338068D01*
X0336332Y0337022D01*
X0335809Y0336498D01*
X0334763Y0336498D01*
X0334239Y0337022D01*
X0334520Y0337022D02*
X0333997Y0336498D01*
X0332950Y0336498D01*
X0332427Y0337022D01*
X0332707Y0336498D02*
X0330614Y0336498D01*
X0330895Y0336498D02*
X0329848Y0337545D01*
X0330371Y0337545D02*
X0328802Y0337545D01*
X0328559Y0337545D02*
X0326989Y0337545D01*
X0326989Y0336498D02*
X0326989Y0339638D01*
X0328559Y0339638D01*
X0329082Y0339115D01*
X0329082Y0338068D01*
X0328559Y0337545D01*
X0328036Y0337545D02*
X0329082Y0336498D01*
X0328802Y0336498D02*
X0328802Y0339638D01*
X0330371Y0339638D01*
X0330895Y0339115D01*
X0330895Y0338068D01*
X0330371Y0337545D01*
X0330614Y0338592D02*
X0331661Y0339638D01*
X0331661Y0336498D01*
X0331558Y0334914D02*
X0333127Y0334914D01*
X0333651Y0334390D01*
X0333651Y0333344D01*
X0333127Y0332821D01*
X0331558Y0332821D01*
X0331315Y0332821D02*
X0329745Y0332821D01*
X0330792Y0332821D02*
X0331838Y0331774D01*
X0331558Y0331774D02*
X0331558Y0334914D01*
X0331315Y0334914D02*
X0331838Y0334390D01*
X0331838Y0333344D01*
X0331315Y0332821D01*
X0332604Y0332821D02*
X0333651Y0331774D01*
X0333370Y0331774D02*
X0335463Y0331774D01*
X0335706Y0331774D02*
X0336753Y0331774D01*
X0337276Y0332297D01*
X0337276Y0332821D01*
X0336753Y0333344D01*
X0335183Y0333344D01*
X0335183Y0332297D01*
X0335706Y0331774D01*
X0334417Y0331774D02*
X0334417Y0334914D01*
X0333370Y0333867D01*
X0335183Y0333344D02*
X0336229Y0334390D01*
X0337276Y0334914D01*
X0337519Y0334914D02*
X0338565Y0334914D01*
X0339088Y0334390D01*
X0339088Y0333867D01*
X0338565Y0333344D01*
X0337519Y0333344D01*
X0336995Y0333867D01*
X0336995Y0334390D01*
X0337519Y0334914D01*
X0337519Y0333344D02*
X0336995Y0332821D01*
X0336995Y0332297D01*
X0337519Y0331774D01*
X0338565Y0331774D01*
X0339088Y0332297D01*
X0339088Y0332821D01*
X0338565Y0333344D01*
X0334520Y0337022D02*
X0334520Y0338068D01*
X0333997Y0338592D01*
X0333473Y0338592D01*
X0332427Y0338068D01*
X0332427Y0339638D01*
X0334520Y0339638D01*
X0331315Y0334914D02*
X0329745Y0334914D01*
X0329745Y0331774D01*
X0330458Y0306174D02*
X0330458Y0304604D01*
X0331505Y0305127D01*
X0332028Y0305127D01*
X0332551Y0304604D01*
X0332551Y0303557D01*
X0332028Y0303034D01*
X0330982Y0303034D01*
X0330458Y0303557D01*
X0330458Y0303034D02*
X0332551Y0303034D01*
X0331505Y0303034D02*
X0331505Y0306174D01*
X0330458Y0305127D01*
X0330458Y0306174D02*
X0332551Y0306174D01*
X0328926Y0306174D02*
X0326833Y0303034D01*
X0328926Y0306174D01*
X0326833Y0306174D02*
X0328926Y0303034D01*
X0326833Y0306174D01*
X0335615Y0301320D02*
X0336139Y0301843D01*
X0337185Y0301843D01*
X0337709Y0301320D01*
X0337709Y0300273D01*
X0337185Y0299750D01*
X0337185Y0300796D01*
X0336139Y0300796D01*
X0336139Y0299750D01*
X0337185Y0299750D01*
X0337709Y0299226D02*
X0337185Y0298703D01*
X0336139Y0298703D01*
X0335615Y0299226D01*
X0335615Y0301320D01*
X0339241Y0298180D02*
X0341334Y0298180D01*
X0342866Y0298703D02*
X0342866Y0301843D01*
X0343389Y0300273D02*
X0344959Y0298703D01*
X0346491Y0300273D02*
X0348584Y0300273D01*
X0348061Y0301843D02*
X0346491Y0300273D01*
X0344959Y0301843D02*
X0342866Y0299750D01*
X0348061Y0298703D02*
X0348061Y0301843D01*
X0350116Y0301843D02*
X0352209Y0301843D01*
X0352209Y0301320D01*
X0350116Y0299226D01*
X0350116Y0298703D01*
X0352209Y0298703D01*
X0353741Y0299226D02*
X0354264Y0298703D01*
X0355311Y0298703D01*
X0355834Y0299226D01*
X0355834Y0301843D01*
X0357366Y0301843D02*
X0357366Y0298703D01*
X0357366Y0299750D02*
X0359459Y0301843D01*
X0360991Y0301843D02*
X0362038Y0301843D01*
X0361515Y0301843D02*
X0361515Y0298703D01*
X0362038Y0298703D02*
X0360991Y0298703D01*
X0359459Y0298703D02*
X0357890Y0300273D01*
X0353741Y0299226D02*
X0353741Y0301843D01*
X0358518Y0295547D02*
X0358518Y0288467D01*
X0356158Y0288467D02*
X0360878Y0288467D01*
X0360776Y0283733D02*
X0361299Y0283209D01*
X0361299Y0282686D01*
X0360776Y0282163D01*
X0359729Y0282163D01*
X0359206Y0282686D01*
X0359206Y0283209D01*
X0359729Y0283733D01*
X0360776Y0283733D01*
X0360776Y0282163D02*
X0361299Y0281639D01*
X0361299Y0281116D01*
X0360776Y0280593D01*
X0359729Y0280593D01*
X0359206Y0281116D01*
X0359206Y0281639D01*
X0359729Y0282163D01*
X0357674Y0282163D02*
X0357674Y0281639D01*
X0355581Y0281639D01*
X0355581Y0281116D02*
X0355581Y0282163D01*
X0356104Y0282686D01*
X0357151Y0282686D01*
X0357674Y0282163D01*
X0357151Y0280593D02*
X0356104Y0280593D01*
X0355581Y0281116D01*
X0354049Y0280593D02*
X0351956Y0280593D01*
X0354049Y0282686D01*
X0354049Y0283209D01*
X0353526Y0283733D01*
X0352479Y0283733D01*
X0351956Y0283209D01*
X0350424Y0282163D02*
X0348331Y0282163D01*
X0349901Y0283733D01*
X0349901Y0280593D01*
X0346799Y0281116D02*
X0346799Y0281639D01*
X0346275Y0282163D01*
X0344706Y0282163D01*
X0344706Y0281116D01*
X0345229Y0280593D01*
X0346275Y0280593D01*
X0346799Y0281116D01*
X0345752Y0283209D02*
X0346799Y0283733D01*
X0345752Y0283209D02*
X0344706Y0282163D01*
X0343174Y0280593D02*
X0341080Y0280593D01*
X0342127Y0280593D02*
X0342127Y0283733D01*
X0341080Y0282686D01*
X0339548Y0280593D02*
X0337455Y0280593D01*
X0338502Y0280593D02*
X0338502Y0283733D01*
X0337455Y0282686D01*
X0339241Y0288467D02*
X0339241Y0293187D01*
X0339241Y0290827D02*
X0341601Y0293187D01*
X0342781Y0293187D01*
X0345283Y0294367D02*
X0345283Y0289647D01*
X0350003Y0294367D01*
X0350003Y0289647D01*
X0348823Y0288467D01*
X0346463Y0288467D01*
X0345283Y0289647D01*
X0345283Y0294367D02*
X0346463Y0295547D01*
X0348823Y0295547D01*
X0350003Y0294367D01*
X0352533Y0289647D02*
X0353713Y0289647D01*
X0353713Y0288467D01*
X0352533Y0288467D01*
X0352533Y0289647D01*
X0356158Y0293187D02*
X0358518Y0295547D01*
X0363408Y0298180D02*
X0365501Y0298180D01*
X0375531Y0300272D02*
X0406633Y0300272D01*
X0406633Y0303028D01*
X0405452Y0303028D01*
X0405452Y0304209D01*
X0376712Y0304209D01*
X0376712Y0303028D01*
X0375531Y0303028D01*
X0375531Y0300272D01*
X0406633Y0300272D01*
X0406633Y0304209D02*
X0406633Y0305783D01*
X0406633Y0304209D02*
X0405452Y0304209D01*
X0406633Y0317594D02*
X0406633Y0321531D01*
X0401909Y0321531D01*
X0408017Y0322719D02*
X0408017Y0326647D01*
X0408017Y0322719D01*
X0410636Y0322719D01*
X0408017Y0322719D01*
X0412367Y0323374D02*
X0412367Y0325992D01*
X0413022Y0326647D01*
X0414331Y0326647D01*
X0414986Y0325992D01*
X0414331Y0326647D01*
X0413022Y0326647D01*
X0412367Y0325992D01*
X0412367Y0323374D01*
X0413022Y0322719D01*
X0414331Y0322719D01*
X0414986Y0323374D01*
X0414331Y0322719D01*
X0413022Y0322719D01*
X0412367Y0323374D01*
X0416718Y0322719D02*
X0416718Y0326647D01*
X0418682Y0326647D01*
X0419336Y0325992D01*
X0419336Y0323374D01*
X0418682Y0322719D01*
X0416718Y0322719D01*
X0418682Y0322719D01*
X0419336Y0323374D01*
X0419336Y0325992D01*
X0418682Y0326647D01*
X0416718Y0326647D01*
X0416718Y0322719D01*
X0421068Y0322719D02*
X0423686Y0322719D01*
X0423032Y0322719D02*
X0421722Y0322719D01*
X0421068Y0323374D01*
X0422377Y0322719D02*
X0422377Y0326647D01*
X0421068Y0325337D01*
X0421068Y0325992D02*
X0421722Y0326647D01*
X0423032Y0326647D01*
X0423686Y0325992D01*
X0423686Y0325337D01*
X0423032Y0324683D01*
X0423686Y0324028D01*
X0423686Y0323374D01*
X0423032Y0322719D01*
X0423032Y0324683D02*
X0422377Y0324683D01*
X0412317Y0330329D02*
X0412317Y0330852D01*
X0411793Y0331375D01*
X0411270Y0331375D01*
X0411793Y0331375D02*
X0412317Y0331899D01*
X0412317Y0332422D01*
X0411793Y0332945D01*
X0410747Y0332945D01*
X0410224Y0332422D01*
X0410504Y0332422D02*
X0408411Y0330329D01*
X0408411Y0329806D01*
X0408692Y0329806D02*
X0406598Y0329806D01*
X0408692Y0331899D01*
X0408692Y0332422D01*
X0408168Y0332945D01*
X0407122Y0332945D01*
X0406598Y0332422D01*
X0406879Y0332422D02*
X0406356Y0332945D01*
X0405309Y0332945D01*
X0404786Y0332422D01*
X0404786Y0330329D01*
X0405309Y0329806D01*
X0406356Y0329806D01*
X0406879Y0330329D01*
X0405066Y0330329D02*
X0404543Y0329806D01*
X0403497Y0329806D01*
X0402973Y0330329D01*
X0402973Y0332422D01*
X0403497Y0332945D01*
X0404543Y0332945D01*
X0405066Y0332422D01*
X0408411Y0332945D02*
X0410504Y0332945D01*
X0410504Y0332422D01*
X0410224Y0330329D02*
X0410747Y0329806D01*
X0411793Y0329806D01*
X0412317Y0330329D01*
X0411793Y0336892D02*
X0411793Y0340032D01*
X0410224Y0338462D01*
X0412317Y0338462D01*
X0410504Y0338985D02*
X0409981Y0338462D01*
X0408934Y0338462D01*
X0408411Y0338985D01*
X0408411Y0339509D01*
X0408934Y0340032D01*
X0409981Y0340032D01*
X0410504Y0339509D01*
X0410504Y0338985D01*
X0409981Y0338462D02*
X0410504Y0337939D01*
X0410504Y0337415D01*
X0409981Y0336892D01*
X0408934Y0336892D01*
X0408411Y0337415D01*
X0408411Y0337939D01*
X0408934Y0338462D01*
X0408692Y0338985D02*
X0408692Y0339509D01*
X0408168Y0340032D01*
X0407122Y0340032D01*
X0406598Y0339509D01*
X0406879Y0339509D02*
X0406356Y0340032D01*
X0405309Y0340032D01*
X0404786Y0339509D01*
X0404786Y0337415D01*
X0405309Y0336892D01*
X0406356Y0336892D01*
X0406879Y0337415D01*
X0406598Y0336892D02*
X0408692Y0338985D01*
X0408692Y0336892D02*
X0406598Y0336892D01*
X0405066Y0337415D02*
X0404543Y0336892D01*
X0403497Y0336892D01*
X0402973Y0337415D01*
X0402973Y0339509D01*
X0403497Y0340032D01*
X0404543Y0340032D01*
X0405066Y0339509D01*
X0407129Y0345947D02*
X0408438Y0345947D01*
X0407783Y0345947D02*
X0407783Y0349875D01*
X0407129Y0349875D02*
X0408438Y0349875D01*
X0409304Y0349875D02*
X0410613Y0349875D01*
X0410683Y0349875D02*
X0410029Y0349220D01*
X0410029Y0346602D01*
X0410683Y0345947D01*
X0411993Y0345947D01*
X0412647Y0346602D01*
X0412204Y0346602D02*
X0412858Y0345947D01*
X0414168Y0345947D01*
X0414822Y0346602D01*
X0414379Y0345947D02*
X0416997Y0345947D01*
X0415688Y0345947D02*
X0415688Y0349875D01*
X0414379Y0348566D01*
X0414822Y0349220D02*
X0414168Y0349875D01*
X0412858Y0349875D01*
X0412204Y0349220D01*
X0412204Y0346602D01*
X0410613Y0345947D02*
X0409304Y0345947D01*
X0409958Y0345947D02*
X0409958Y0349875D01*
X0410683Y0349875D02*
X0411993Y0349875D01*
X0412647Y0349220D01*
X0416554Y0347911D02*
X0419173Y0347911D01*
X0418729Y0348566D02*
X0420038Y0349875D01*
X0420038Y0345947D01*
X0418729Y0345947D02*
X0421348Y0345947D01*
X0418518Y0345947D02*
X0418518Y0349875D01*
X0416554Y0347911D01*
X0397337Y0346989D02*
X0396813Y0347512D01*
X0395767Y0347512D01*
X0395243Y0346989D01*
X0393711Y0346989D02*
X0393188Y0347512D01*
X0392142Y0347512D01*
X0391618Y0346989D01*
X0391618Y0346466D02*
X0392665Y0347512D01*
X0392665Y0344372D01*
X0393711Y0344372D02*
X0391618Y0344372D01*
X0393711Y0346466D01*
X0393711Y0346989D01*
X0393711Y0344372D02*
X0391618Y0344372D01*
X0390086Y0344896D02*
X0389563Y0344372D01*
X0388516Y0344372D01*
X0387993Y0344896D01*
X0387993Y0346989D01*
X0388516Y0347512D01*
X0389563Y0347512D01*
X0390086Y0346989D01*
X0389563Y0347512D01*
X0388516Y0347512D01*
X0387993Y0346989D01*
X0387993Y0344896D01*
X0388516Y0344372D01*
X0389563Y0344372D01*
X0390086Y0344896D01*
X0386623Y0344372D02*
X0385576Y0344372D01*
X0386623Y0344372D01*
X0386100Y0344372D02*
X0386100Y0347512D01*
X0386100Y0344372D01*
X0385576Y0347512D02*
X0386623Y0347512D01*
X0385576Y0347512D01*
X0395243Y0344372D02*
X0397337Y0346466D01*
X0397337Y0346989D01*
X0397337Y0344372D02*
X0395243Y0344372D01*
X0379246Y0357888D02*
X0379246Y0359981D01*
X0378723Y0360504D01*
X0377676Y0360504D01*
X0377153Y0359981D01*
X0377153Y0359458D01*
X0377676Y0358934D01*
X0379246Y0358934D01*
X0379246Y0357888D02*
X0378723Y0357365D01*
X0377676Y0357365D01*
X0377153Y0357888D01*
X0377433Y0357888D02*
X0376910Y0357365D01*
X0375863Y0357365D01*
X0375340Y0357888D01*
X0375621Y0357365D02*
X0373528Y0357365D01*
X0373285Y0357365D02*
X0373808Y0357888D01*
X0373285Y0357365D02*
X0372238Y0357365D01*
X0371715Y0357888D01*
X0371715Y0359981D01*
X0372238Y0360504D01*
X0373285Y0360504D01*
X0373808Y0359981D01*
X0373528Y0359458D02*
X0374574Y0360504D01*
X0374574Y0357365D01*
X0376387Y0358934D02*
X0376910Y0358934D01*
X0377433Y0358411D01*
X0377433Y0357888D01*
X0376910Y0358934D02*
X0377433Y0359458D01*
X0377433Y0359981D01*
X0376910Y0360504D01*
X0375863Y0360504D01*
X0375340Y0359981D01*
X0371996Y0359981D02*
X0371472Y0360504D01*
X0370426Y0360504D01*
X0369902Y0359981D01*
X0369902Y0357888D01*
X0370426Y0357365D01*
X0371472Y0357365D01*
X0371996Y0357888D01*
X0363104Y0362219D02*
X0362581Y0361695D01*
X0361534Y0361695D01*
X0361011Y0362219D01*
X0363104Y0364312D01*
X0363104Y0362219D01*
X0363104Y0364312D02*
X0362581Y0364835D01*
X0361534Y0364835D01*
X0361011Y0364312D01*
X0361011Y0362219D01*
X0360768Y0361695D02*
X0360768Y0364835D01*
X0359198Y0363265D01*
X0361292Y0363265D01*
X0359479Y0363788D02*
X0359479Y0364312D01*
X0358956Y0364835D01*
X0357909Y0364835D01*
X0357386Y0364312D01*
X0357666Y0364312D02*
X0357143Y0364835D01*
X0356097Y0364835D01*
X0355573Y0364312D01*
X0355573Y0362219D01*
X0356097Y0361695D01*
X0357143Y0361695D01*
X0357666Y0362219D01*
X0357386Y0361695D02*
X0359479Y0363788D01*
X0359479Y0361695D02*
X0357386Y0361695D01*
X0355854Y0362219D02*
X0355331Y0361695D01*
X0354284Y0361695D01*
X0353761Y0362219D01*
X0353761Y0364312D01*
X0354284Y0364835D01*
X0355331Y0364835D01*
X0355854Y0364312D01*
X0366772Y0365239D02*
X0367819Y0365239D01*
X0367296Y0365239D02*
X0367296Y0368378D01*
X0367819Y0368378D02*
X0366772Y0368378D01*
X0369189Y0367855D02*
X0369189Y0365762D01*
X0369712Y0365239D01*
X0370759Y0365239D01*
X0371282Y0365762D01*
X0371444Y0365239D02*
X0370398Y0365239D01*
X0370921Y0365239D02*
X0370921Y0368378D01*
X0370759Y0368378D02*
X0369712Y0368378D01*
X0369189Y0367855D01*
X0370398Y0368378D02*
X0371444Y0368378D01*
X0371282Y0367855D02*
X0370759Y0368378D01*
X0372814Y0367855D02*
X0372814Y0365762D01*
X0373338Y0365239D01*
X0374384Y0365239D01*
X0374907Y0365762D01*
X0374907Y0365239D02*
X0372814Y0365239D01*
X0373861Y0365239D02*
X0373861Y0368378D01*
X0372814Y0367332D01*
X0372814Y0367855D02*
X0373338Y0368378D01*
X0374384Y0368378D01*
X0374907Y0367855D01*
X0376439Y0368378D02*
X0376439Y0366808D01*
X0377486Y0367332D01*
X0378009Y0367332D01*
X0378533Y0366808D01*
X0378533Y0365762D01*
X0378009Y0365239D01*
X0376963Y0365239D01*
X0376439Y0365762D01*
X0376963Y0365239D01*
X0378009Y0365239D01*
X0378533Y0365762D01*
X0378533Y0366808D01*
X0378009Y0367332D01*
X0377486Y0367332D01*
X0376439Y0366808D01*
X0376439Y0368378D01*
X0378533Y0368378D01*
X0376439Y0368378D01*
X0380662Y0376262D02*
X0381709Y0376262D01*
X0382232Y0376785D01*
X0381951Y0376785D02*
X0382475Y0376262D01*
X0383521Y0376262D01*
X0384044Y0376785D01*
X0383764Y0376262D02*
X0385857Y0378355D01*
X0385857Y0378879D01*
X0385334Y0379402D01*
X0384287Y0379402D01*
X0383764Y0378879D01*
X0384044Y0378879D02*
X0383521Y0379402D01*
X0382475Y0379402D01*
X0381951Y0378879D01*
X0381951Y0376785D01*
X0380662Y0376262D02*
X0380139Y0376785D01*
X0380139Y0378879D01*
X0380662Y0379402D01*
X0381709Y0379402D01*
X0382232Y0378879D01*
X0383764Y0376262D02*
X0385857Y0376262D01*
X0386100Y0376262D02*
X0387146Y0376262D01*
X0387669Y0376785D01*
X0387669Y0377309D01*
X0387146Y0377832D01*
X0385576Y0377832D01*
X0385576Y0376785D01*
X0386100Y0376262D01*
X0387389Y0376262D02*
X0389482Y0378355D01*
X0389482Y0378879D01*
X0388959Y0379402D01*
X0387912Y0379402D01*
X0387389Y0378879D01*
X0387669Y0379402D02*
X0386623Y0378879D01*
X0385576Y0377832D01*
X0387389Y0376262D02*
X0389482Y0376262D01*
X0362297Y0378226D02*
X0360204Y0378226D01*
X0361774Y0379796D01*
X0361774Y0376656D01*
X0358672Y0376656D02*
X0356579Y0376656D01*
X0358672Y0376656D01*
X0357625Y0376656D02*
X0357625Y0379796D01*
X0356579Y0378749D01*
X0357625Y0379796D01*
X0357625Y0376656D01*
X0355047Y0377179D02*
X0354524Y0376656D01*
X0353477Y0376656D01*
X0352954Y0377179D01*
X0352954Y0379272D01*
X0353477Y0379796D01*
X0354524Y0379796D01*
X0355047Y0379272D01*
X0354524Y0379796D01*
X0353477Y0379796D01*
X0352954Y0379272D01*
X0352954Y0377179D01*
X0353477Y0376656D01*
X0354524Y0376656D01*
X0355047Y0377179D01*
X0351584Y0376656D02*
X0350537Y0376656D01*
X0351584Y0376656D01*
X0351060Y0376656D02*
X0351060Y0379796D01*
X0351060Y0376656D01*
X0350537Y0379796D02*
X0351584Y0379796D01*
X0350537Y0379796D01*
X0347828Y0391872D02*
X0345025Y0391872D01*
X0345526Y0391872D02*
X0342723Y0391872D01*
X0342523Y0391872D02*
X0343224Y0392573D01*
X0342523Y0391872D02*
X0341122Y0391872D01*
X0340421Y0392573D01*
X0340421Y0395375D01*
X0341122Y0396076D01*
X0342523Y0396076D01*
X0343224Y0395375D01*
X0342723Y0394675D02*
X0344124Y0396076D01*
X0344124Y0391872D01*
X0346426Y0391872D02*
X0346426Y0396076D01*
X0345025Y0394675D01*
X0347327Y0396076D02*
X0350130Y0396076D01*
X0350130Y0395375D01*
X0347327Y0392573D01*
X0347327Y0391872D01*
X0340922Y0392573D02*
X0340221Y0391872D01*
X0338820Y0391872D01*
X0338119Y0392573D01*
X0338119Y0395375D01*
X0338820Y0396076D01*
X0340221Y0396076D01*
X0340922Y0395375D01*
X0358411Y0332158D02*
X0359458Y0332158D01*
X0358411Y0332158D01*
X0358934Y0332158D02*
X0358934Y0329018D01*
X0358934Y0332158D01*
X0360828Y0331635D02*
X0360828Y0329541D01*
X0361351Y0329018D01*
X0362398Y0329018D01*
X0362921Y0329541D01*
X0362398Y0329018D01*
X0361351Y0329018D01*
X0360828Y0329541D01*
X0360828Y0331635D01*
X0361351Y0332158D01*
X0362398Y0332158D01*
X0362921Y0331635D01*
X0362398Y0332158D01*
X0361351Y0332158D01*
X0360828Y0331635D01*
X0359458Y0329018D02*
X0358411Y0329018D01*
X0359458Y0329018D01*
X0364453Y0329018D02*
X0366546Y0329018D01*
X0366023Y0329018D02*
X0364976Y0329018D01*
X0364453Y0329541D01*
X0365499Y0329018D02*
X0365499Y0332158D01*
X0364453Y0331111D01*
X0364453Y0331635D02*
X0364976Y0332158D01*
X0366023Y0332158D01*
X0366546Y0331635D01*
X0366546Y0331111D01*
X0366023Y0330588D01*
X0366546Y0330065D01*
X0366546Y0329541D01*
X0366023Y0329018D01*
X0366023Y0330588D02*
X0365499Y0330588D01*
X0368078Y0331635D02*
X0368601Y0332158D01*
X0369648Y0332158D01*
X0370171Y0331635D01*
X0370171Y0331111D01*
X0369648Y0330588D01*
X0370171Y0330065D01*
X0370171Y0329541D01*
X0369648Y0329018D01*
X0368601Y0329018D01*
X0368078Y0329541D01*
X0369125Y0330588D02*
X0369648Y0330588D01*
X0375531Y0321531D02*
X0380255Y0321531D01*
X0375531Y0321531D02*
X0375531Y0317594D01*
X0375531Y0305783D02*
X0375531Y0304209D01*
X0376712Y0304209D01*
X0381436Y0303028D02*
X0382224Y0301453D01*
X0383011Y0303028D01*
X0381436Y0303028D01*
X0381503Y0302895D02*
X0382945Y0302895D01*
X0382545Y0302096D02*
X0381902Y0302096D01*
X0449668Y0303034D02*
X0451761Y0306174D01*
X0449668Y0303034D01*
X0451761Y0303034D02*
X0449668Y0306174D01*
X0451761Y0303034D01*
X0453293Y0303034D02*
X0455386Y0305127D01*
X0455386Y0305650D01*
X0454863Y0306174D01*
X0453816Y0306174D01*
X0453293Y0305650D01*
X0453293Y0304604D02*
X0454863Y0304604D01*
X0455386Y0304080D01*
X0455386Y0303557D01*
X0454863Y0303034D01*
X0453816Y0303034D01*
X0453293Y0303557D01*
X0453293Y0304604D01*
X0454339Y0305650D01*
X0455386Y0306174D01*
X0455386Y0303034D02*
X0453293Y0303034D01*
X0456535Y0302677D02*
X0465629Y0302677D01*
X0465629Y0383693D01*
X0456535Y0383693D01*
X0456535Y0302677D01*
X0427671Y0377050D02*
X0425578Y0377050D01*
X0425335Y0377050D02*
X0424289Y0377050D01*
X0423765Y0377573D01*
X0424046Y0377050D02*
X0421953Y0377050D01*
X0424046Y0379143D01*
X0424046Y0379666D01*
X0423523Y0380189D01*
X0422476Y0380189D01*
X0421953Y0379666D01*
X0422233Y0379666D02*
X0421710Y0380189D01*
X0420663Y0380189D01*
X0420140Y0379666D01*
X0420140Y0377573D01*
X0420663Y0377050D01*
X0421710Y0377050D01*
X0422233Y0377573D01*
X0420421Y0377573D02*
X0419897Y0377050D01*
X0418851Y0377050D01*
X0418328Y0377573D01*
X0418328Y0379666D01*
X0418851Y0380189D01*
X0419897Y0380189D01*
X0420421Y0379666D01*
X0423765Y0380189D02*
X0423765Y0378619D01*
X0424812Y0379143D01*
X0425335Y0379143D01*
X0425858Y0378619D01*
X0425858Y0377573D01*
X0425335Y0377050D01*
X0426624Y0377050D02*
X0426624Y0380189D01*
X0425578Y0379143D01*
X0425858Y0380189D02*
X0423765Y0380189D01*
X0250662Y0305650D02*
X0250662Y0305127D01*
X0250138Y0304604D01*
X0249092Y0304604D01*
X0248569Y0305127D01*
X0248569Y0305650D01*
X0249092Y0306174D01*
X0250138Y0306174D01*
X0250662Y0305650D01*
X0250138Y0306174D01*
X0249092Y0306174D01*
X0248569Y0305650D01*
X0249092Y0304604D02*
X0248569Y0304080D01*
X0248569Y0303557D01*
X0249092Y0303034D01*
X0250138Y0303034D01*
X0250662Y0303557D01*
X0250662Y0304080D01*
X0250138Y0304604D01*
X0250662Y0305127D02*
X0250662Y0305650D01*
X0250662Y0305127D02*
X0248569Y0303034D01*
X0250662Y0303034D01*
X0247036Y0303034D02*
X0244943Y0306174D01*
X0247036Y0303034D01*
X0244943Y0303034D02*
X0247036Y0306174D01*
X0244943Y0303034D01*
X0178287Y0303028D02*
X0177499Y0301453D01*
X0176712Y0303028D01*
X0178287Y0303028D01*
X0178220Y0302895D02*
X0176778Y0302895D01*
X0177177Y0302096D02*
X0177821Y0302096D01*
X0171987Y0304209D02*
X0170806Y0304209D01*
X0170806Y0305783D01*
X0170806Y0317594D02*
X0170806Y0321531D01*
X0175531Y0321531D01*
X0165447Y0329541D02*
X0164923Y0329018D01*
X0163877Y0329018D01*
X0163354Y0329541D01*
X0163354Y0330065D01*
X0163877Y0330588D01*
X0164923Y0330588D01*
X0165447Y0330065D01*
X0165447Y0329541D01*
X0164923Y0330588D02*
X0165447Y0331111D01*
X0165447Y0331635D01*
X0164923Y0332158D01*
X0163877Y0332158D01*
X0163354Y0331635D01*
X0163354Y0331111D01*
X0163877Y0330588D01*
X0161822Y0331111D02*
X0161298Y0330588D01*
X0161822Y0330065D01*
X0161822Y0329541D01*
X0161298Y0329018D01*
X0160252Y0329018D01*
X0159729Y0329541D01*
X0159729Y0329018D02*
X0161822Y0329018D01*
X0160775Y0329018D02*
X0160775Y0332158D01*
X0159729Y0331111D01*
X0159729Y0331635D02*
X0160252Y0332158D01*
X0161298Y0332158D01*
X0161822Y0331635D01*
X0161822Y0331111D01*
X0161298Y0330588D02*
X0160775Y0330588D01*
X0158196Y0331635D02*
X0157673Y0332158D01*
X0156627Y0332158D01*
X0156103Y0331635D01*
X0156103Y0329541D01*
X0156627Y0329018D01*
X0157673Y0329018D01*
X0158196Y0329541D01*
X0157673Y0329018D01*
X0156627Y0329018D01*
X0156103Y0329541D01*
X0156103Y0331635D01*
X0156627Y0332158D01*
X0157673Y0332158D01*
X0158196Y0331635D01*
X0154733Y0332158D02*
X0153687Y0332158D01*
X0154733Y0332158D01*
X0154210Y0332158D02*
X0154210Y0329018D01*
X0154210Y0332158D01*
X0153687Y0329018D02*
X0154733Y0329018D01*
X0153687Y0329018D01*
X0134364Y0333344D02*
X0132271Y0333344D01*
X0133841Y0334914D01*
X0133841Y0331774D01*
X0132551Y0332297D02*
X0132551Y0332821D01*
X0132028Y0333344D01*
X0130458Y0333344D01*
X0130458Y0332297D01*
X0130982Y0331774D01*
X0132028Y0331774D01*
X0132551Y0332297D01*
X0130739Y0331774D02*
X0128646Y0331774D01*
X0130739Y0333867D01*
X0130739Y0334390D01*
X0130216Y0334914D01*
X0129169Y0334914D01*
X0128646Y0334390D01*
X0128926Y0334390D02*
X0128926Y0333344D01*
X0128403Y0332821D01*
X0126833Y0332821D01*
X0126590Y0332821D02*
X0125021Y0332821D01*
X0126067Y0332821D02*
X0127114Y0331774D01*
X0126833Y0331774D02*
X0126833Y0334914D01*
X0128403Y0334914D01*
X0128926Y0334390D01*
X0127114Y0334390D02*
X0127114Y0333344D01*
X0126590Y0332821D01*
X0127880Y0332821D02*
X0128926Y0331774D01*
X0130458Y0333344D02*
X0131505Y0334390D01*
X0132551Y0334914D01*
X0131608Y0336498D02*
X0129515Y0336498D01*
X0129272Y0336498D02*
X0129795Y0337022D01*
X0129795Y0338068D01*
X0129272Y0338592D01*
X0128749Y0338592D01*
X0127702Y0338068D01*
X0127702Y0339638D01*
X0129795Y0339638D01*
X0130561Y0339638D02*
X0130561Y0336498D01*
X0129272Y0336498D02*
X0128226Y0336498D01*
X0127702Y0337022D01*
X0127983Y0336498D02*
X0125890Y0336498D01*
X0127983Y0338592D01*
X0127983Y0339115D01*
X0127460Y0339638D01*
X0126413Y0339638D01*
X0125890Y0339115D01*
X0126170Y0339115D02*
X0126170Y0338068D01*
X0125647Y0337545D01*
X0124077Y0337545D01*
X0123834Y0337545D02*
X0122265Y0337545D01*
X0123311Y0337545D02*
X0124358Y0336498D01*
X0124077Y0336498D02*
X0124077Y0339638D01*
X0125647Y0339638D01*
X0126170Y0339115D01*
X0124358Y0339115D02*
X0124358Y0338068D01*
X0123834Y0337545D01*
X0125124Y0337545D02*
X0126170Y0336498D01*
X0126590Y0334914D02*
X0127114Y0334390D01*
X0126590Y0334914D02*
X0125021Y0334914D01*
X0125021Y0331774D01*
X0122265Y0336498D02*
X0122265Y0339638D01*
X0123834Y0339638D01*
X0124358Y0339115D01*
X0124358Y0341223D02*
X0123311Y0342269D01*
X0123834Y0342269D02*
X0122265Y0342269D01*
X0122265Y0341223D02*
X0122265Y0344363D01*
X0123834Y0344363D01*
X0124358Y0343839D01*
X0124358Y0342793D01*
X0123834Y0342269D01*
X0124077Y0342269D02*
X0125647Y0342269D01*
X0126170Y0342793D01*
X0126170Y0343839D01*
X0125647Y0344363D01*
X0124077Y0344363D01*
X0124077Y0341223D01*
X0125124Y0342269D02*
X0126170Y0341223D01*
X0125890Y0341223D02*
X0127983Y0343316D01*
X0127983Y0343839D01*
X0127460Y0344363D01*
X0126413Y0344363D01*
X0125890Y0343839D01*
X0127702Y0342793D02*
X0129795Y0342793D01*
X0130561Y0342793D02*
X0131085Y0342793D01*
X0131608Y0342269D01*
X0131608Y0341746D01*
X0131085Y0341223D01*
X0130038Y0341223D01*
X0129515Y0341746D01*
X0129272Y0341223D02*
X0129272Y0344363D01*
X0127702Y0342793D01*
X0127983Y0341223D02*
X0125890Y0341223D01*
X0129515Y0343839D02*
X0130038Y0344363D01*
X0131085Y0344363D01*
X0131608Y0343839D01*
X0131608Y0343316D01*
X0131085Y0342793D01*
X0131608Y0345947D02*
X0129515Y0345947D01*
X0131608Y0348040D01*
X0131608Y0348564D01*
X0131085Y0349087D01*
X0130038Y0349087D01*
X0129515Y0348564D01*
X0129795Y0348564D02*
X0129795Y0348040D01*
X0129272Y0347517D01*
X0129795Y0346994D01*
X0129795Y0346471D01*
X0129272Y0345947D01*
X0128226Y0345947D01*
X0127702Y0346471D01*
X0127983Y0345947D02*
X0125890Y0345947D01*
X0127983Y0348040D01*
X0127983Y0348564D01*
X0127460Y0349087D01*
X0126413Y0349087D01*
X0125890Y0348564D01*
X0126170Y0348564D02*
X0126170Y0347517D01*
X0125647Y0346994D01*
X0124077Y0346994D01*
X0123834Y0346994D02*
X0122265Y0346994D01*
X0123311Y0346994D02*
X0124358Y0345947D01*
X0124077Y0345947D02*
X0124077Y0349087D01*
X0125647Y0349087D01*
X0126170Y0348564D01*
X0127702Y0348564D02*
X0128226Y0349087D01*
X0129272Y0349087D01*
X0129795Y0348564D01*
X0129272Y0347517D02*
X0128749Y0347517D01*
X0126170Y0345947D02*
X0125124Y0346994D01*
X0124358Y0347517D02*
X0123834Y0346994D01*
X0124358Y0347517D02*
X0124358Y0348564D01*
X0123834Y0349087D01*
X0122265Y0349087D01*
X0122265Y0345947D01*
X0122265Y0350672D02*
X0122265Y0353811D01*
X0123834Y0353811D01*
X0124358Y0353288D01*
X0124358Y0352241D01*
X0123834Y0351718D01*
X0122265Y0351718D01*
X0123311Y0351718D02*
X0124358Y0350672D01*
X0124077Y0350672D02*
X0124077Y0353811D01*
X0125647Y0353811D01*
X0126170Y0353288D01*
X0126170Y0352241D01*
X0125647Y0351718D01*
X0124077Y0351718D01*
X0125124Y0351718D02*
X0126170Y0350672D01*
X0125890Y0350672D02*
X0127983Y0350672D01*
X0127702Y0350672D02*
X0129795Y0352765D01*
X0129795Y0353288D01*
X0129272Y0353811D01*
X0128226Y0353811D01*
X0127702Y0353288D01*
X0126936Y0353811D02*
X0126936Y0350672D01*
X0127702Y0350672D02*
X0129795Y0350672D01*
X0130038Y0350672D02*
X0131085Y0350672D01*
X0131608Y0351195D01*
X0131608Y0353288D01*
X0131085Y0353811D01*
X0130038Y0353811D01*
X0129515Y0353288D01*
X0129515Y0352765D01*
X0130038Y0352241D01*
X0131608Y0352241D01*
X0130038Y0350672D02*
X0129515Y0351195D01*
X0126936Y0353811D02*
X0125890Y0352765D01*
X0125414Y0355396D02*
X0125414Y0358536D01*
X0126984Y0358536D01*
X0127507Y0358012D01*
X0127507Y0356966D01*
X0126984Y0356443D01*
X0125414Y0356443D01*
X0126461Y0356443D02*
X0127507Y0355396D01*
X0127227Y0355396D02*
X0127227Y0358536D01*
X0128797Y0358536D01*
X0129320Y0358012D01*
X0129320Y0356966D01*
X0128797Y0356443D01*
X0127227Y0356443D01*
X0128273Y0356443D02*
X0129320Y0355396D01*
X0129039Y0355396D02*
X0131133Y0357489D01*
X0131133Y0358012D01*
X0130609Y0358536D01*
X0129563Y0358536D01*
X0129039Y0358012D01*
X0130852Y0357489D02*
X0131899Y0358536D01*
X0131899Y0355396D01*
X0131133Y0355396D02*
X0129039Y0355396D01*
X0130852Y0355396D02*
X0132945Y0355396D01*
X0133188Y0355396D02*
X0132665Y0355919D01*
X0134758Y0358012D01*
X0134758Y0355919D01*
X0134234Y0355396D01*
X0133188Y0355396D01*
X0132665Y0355919D02*
X0132665Y0358012D01*
X0133188Y0358536D01*
X0134234Y0358536D01*
X0134758Y0358012D01*
X0134468Y0365494D02*
X0135169Y0366195D01*
X0135169Y0366896D01*
X0134468Y0367596D01*
X0132367Y0367596D01*
X0132367Y0366195D01*
X0133067Y0365494D01*
X0134468Y0365494D01*
X0132867Y0365494D02*
X0130065Y0365494D01*
X0132867Y0368297D01*
X0132867Y0368997D01*
X0132166Y0369698D01*
X0130765Y0369698D01*
X0130065Y0368997D01*
X0130565Y0368997D02*
X0129864Y0369698D01*
X0128463Y0369698D01*
X0127763Y0368997D01*
X0128263Y0368997D02*
X0127562Y0369698D01*
X0126161Y0369698D01*
X0125461Y0368997D01*
X0125461Y0366195D01*
X0126161Y0365494D01*
X0127562Y0365494D01*
X0128263Y0366195D01*
X0127763Y0365494D02*
X0130565Y0368297D01*
X0130565Y0368997D01*
X0132367Y0367596D02*
X0133768Y0368997D01*
X0135169Y0369698D01*
X0130565Y0365494D02*
X0127763Y0365494D01*
X0125961Y0366195D02*
X0125260Y0365494D01*
X0123859Y0365494D01*
X0123159Y0366195D01*
X0123159Y0368997D01*
X0123859Y0369698D01*
X0125260Y0369698D01*
X0125961Y0368997D01*
X0130561Y0339638D02*
X0129515Y0338592D01*
D11*
X0137145Y0340035D02*
X0137539Y0340035D01*
X0137539Y0336098D01*
X0137932Y0336098D01*
X0137539Y0336098D02*
X0137145Y0336098D01*
X0137145Y0335311D02*
X0137539Y0335311D01*
X0137539Y0331374D01*
X0137932Y0331374D01*
X0137539Y0331374D02*
X0137145Y0331374D01*
X0137539Y0335311D02*
X0137932Y0335311D01*
X0137932Y0340035D02*
X0137539Y0340035D01*
X0137539Y0340823D02*
X0137539Y0344760D01*
X0137932Y0344760D01*
X0137539Y0344760D02*
X0137145Y0344760D01*
X0137145Y0345547D02*
X0137539Y0345547D01*
X0137539Y0349484D01*
X0137932Y0349484D01*
X0137539Y0349484D02*
X0137145Y0349484D01*
X0137145Y0350272D02*
X0137539Y0350272D01*
X0137539Y0354209D01*
X0137932Y0354209D01*
X0137539Y0354209D02*
X0137145Y0354209D01*
X0137145Y0354996D02*
X0137539Y0354996D01*
X0137539Y0358933D01*
X0137932Y0358933D01*
X0137539Y0358933D02*
X0137145Y0358933D01*
X0137539Y0354996D02*
X0137932Y0354996D01*
X0137932Y0350272D02*
X0137539Y0350272D01*
X0137539Y0345547D02*
X0137932Y0345547D01*
X0137932Y0340823D02*
X0137539Y0340823D01*
X0137145Y0340823D01*
X0146987Y0336689D02*
X0146987Y0336098D01*
X0149546Y0336098D01*
X0152696Y0336098D02*
X0155452Y0336098D01*
X0158602Y0336098D02*
X0161161Y0336098D01*
X0161161Y0336689D01*
X0161161Y0353618D02*
X0161161Y0354209D01*
X0158602Y0354209D01*
X0155452Y0354209D02*
X0152696Y0354209D01*
X0153680Y0356571D02*
X0154074Y0356571D01*
X0154074Y0360508D01*
X0153680Y0360508D01*
X0154074Y0360508D02*
X0154468Y0360508D01*
X0154468Y0356571D02*
X0154074Y0356571D01*
X0149546Y0354209D02*
X0146987Y0354209D01*
X0146987Y0353618D01*
X0139901Y0365232D02*
X0139901Y0369957D01*
X0139901Y0375469D02*
X0139113Y0375469D01*
X0135176Y0377437D02*
X0135176Y0379012D01*
X0139113Y0380980D02*
X0139901Y0380980D01*
X0143838Y0379012D02*
X0143838Y0377437D01*
X0144428Y0381965D02*
X0144430Y0382004D01*
X0144436Y0382043D01*
X0144446Y0382081D01*
X0144459Y0382118D01*
X0144476Y0382153D01*
X0144496Y0382187D01*
X0144520Y0382218D01*
X0144547Y0382247D01*
X0144576Y0382273D01*
X0144608Y0382296D01*
X0144642Y0382316D01*
X0144678Y0382332D01*
X0144715Y0382344D01*
X0144754Y0382353D01*
X0144793Y0382358D01*
X0144832Y0382359D01*
X0144871Y0382356D01*
X0144910Y0382349D01*
X0144947Y0382338D01*
X0144984Y0382324D01*
X0145019Y0382306D01*
X0145052Y0382285D01*
X0145083Y0382260D01*
X0145111Y0382233D01*
X0145136Y0382203D01*
X0145158Y0382170D01*
X0145177Y0382136D01*
X0145192Y0382100D01*
X0145204Y0382062D01*
X0145212Y0382024D01*
X0145216Y0381985D01*
X0145216Y0381945D01*
X0145212Y0381906D01*
X0145204Y0381868D01*
X0145192Y0381830D01*
X0145177Y0381794D01*
X0145158Y0381760D01*
X0145136Y0381727D01*
X0145111Y0381697D01*
X0145083Y0381670D01*
X0145052Y0381645D01*
X0145019Y0381624D01*
X0144984Y0381606D01*
X0144947Y0381592D01*
X0144910Y0381581D01*
X0144871Y0381574D01*
X0144832Y0381571D01*
X0144793Y0381572D01*
X0144754Y0381577D01*
X0144715Y0381586D01*
X0144678Y0381598D01*
X0144642Y0381614D01*
X0144608Y0381634D01*
X0144576Y0381657D01*
X0144547Y0381683D01*
X0144520Y0381712D01*
X0144496Y0381743D01*
X0144476Y0381777D01*
X0144459Y0381812D01*
X0144446Y0381849D01*
X0144436Y0381887D01*
X0144430Y0381926D01*
X0144428Y0381965D01*
X0139901Y0386098D02*
X0139901Y0390823D01*
X0115176Y0383345D02*
X0112027Y0383345D01*
X0112027Y0380195D01*
X0115176Y0383345D01*
X0114951Y0383120D02*
X0112027Y0383120D01*
X0112027Y0382334D02*
X0114165Y0382334D01*
X0113380Y0381548D02*
X0112027Y0381548D01*
X0112027Y0380762D02*
X0112594Y0380762D01*
X0180058Y0375075D02*
X0180452Y0375075D01*
X0180452Y0371138D01*
X0180058Y0371138D01*
X0180452Y0371138D02*
X0180846Y0371138D01*
X0181239Y0369169D02*
X0179665Y0369169D01*
X0182814Y0366413D02*
X0182814Y0365626D01*
X0181239Y0362870D02*
X0179665Y0362870D01*
X0180058Y0360902D02*
X0180452Y0360902D01*
X0180452Y0356965D01*
X0180058Y0356965D01*
X0180452Y0356965D02*
X0180846Y0356965D01*
X0181239Y0354996D02*
X0179665Y0354996D01*
X0182814Y0352240D02*
X0182814Y0351453D01*
X0181239Y0348697D02*
X0179665Y0348697D01*
X0180452Y0360902D02*
X0180846Y0360902D01*
X0180846Y0375075D02*
X0180452Y0375075D01*
X0202499Y0370350D02*
X0207617Y0370350D01*
X0207618Y0370350D02*
X0207620Y0370254D01*
X0207626Y0370157D01*
X0207636Y0370062D01*
X0207649Y0369966D01*
X0207667Y0369871D01*
X0207688Y0369778D01*
X0207714Y0369685D01*
X0207743Y0369593D01*
X0207775Y0369502D01*
X0207812Y0369413D01*
X0207852Y0369325D01*
X0207895Y0369239D01*
X0207943Y0369155D01*
X0207993Y0369073D01*
X0208047Y0368993D01*
X0208104Y0368915D01*
X0208164Y0368840D01*
X0208227Y0368767D01*
X0208293Y0368697D01*
X0208362Y0368629D01*
X0208433Y0368565D01*
X0208507Y0368503D01*
X0208584Y0368445D01*
X0208663Y0368389D01*
X0208744Y0368337D01*
X0208827Y0368289D01*
X0208912Y0368243D01*
X0208999Y0368201D01*
X0209087Y0368163D01*
X0209177Y0368129D01*
X0209268Y0368098D01*
X0209361Y0368071D01*
X0209454Y0368047D01*
X0209549Y0368028D01*
X0209644Y0368012D01*
X0209739Y0368000D01*
X0209836Y0367992D01*
X0209932Y0367988D01*
X0210028Y0367988D01*
X0210124Y0367992D01*
X0210221Y0368000D01*
X0210316Y0368012D01*
X0210411Y0368028D01*
X0210506Y0368047D01*
X0210599Y0368071D01*
X0210692Y0368098D01*
X0210783Y0368129D01*
X0210873Y0368163D01*
X0210961Y0368201D01*
X0211048Y0368243D01*
X0211133Y0368289D01*
X0211216Y0368337D01*
X0211297Y0368389D01*
X0211376Y0368445D01*
X0211453Y0368503D01*
X0211527Y0368565D01*
X0211598Y0368629D01*
X0211667Y0368697D01*
X0211733Y0368767D01*
X0211796Y0368840D01*
X0211856Y0368915D01*
X0211913Y0368993D01*
X0211967Y0369073D01*
X0212017Y0369155D01*
X0212065Y0369239D01*
X0212108Y0369325D01*
X0212148Y0369413D01*
X0212185Y0369502D01*
X0212217Y0369593D01*
X0212246Y0369685D01*
X0212272Y0369778D01*
X0212293Y0369871D01*
X0212311Y0369966D01*
X0212324Y0370062D01*
X0212334Y0370157D01*
X0212340Y0370254D01*
X0212342Y0370350D01*
X0217460Y0370350D01*
X0218247Y0371925D02*
X0218641Y0371925D01*
X0218641Y0375862D01*
X0218247Y0375862D01*
X0218641Y0375862D02*
X0219035Y0375862D01*
X0219035Y0371925D02*
X0218641Y0371925D01*
X0217460Y0351453D02*
X0202499Y0351453D01*
X0193050Y0340429D02*
X0192657Y0340429D01*
X0192657Y0336492D01*
X0193050Y0336492D01*
X0192657Y0336492D02*
X0192263Y0336492D01*
X0192263Y0333343D02*
X0192657Y0333343D01*
X0192657Y0329406D01*
X0193050Y0329406D01*
X0192657Y0329406D02*
X0192263Y0329406D01*
X0192657Y0333343D02*
X0193050Y0333343D01*
X0192657Y0340429D02*
X0192263Y0340429D01*
X0213917Y0296728D02*
X0158798Y0296728D01*
X0158798Y0279012D01*
X0213917Y0279012D01*
X0213917Y0296728D01*
X0221586Y0292488D02*
X0223168Y0294069D01*
X0223317Y0294083D01*
X0225168Y0292831D01*
X0225280Y0292820D01*
X0227118Y0293581D01*
X0227189Y0293668D01*
X0227612Y0295862D01*
X0227728Y0295958D01*
X0229964Y0295958D01*
X0230080Y0295862D01*
X0230504Y0293668D01*
X0230575Y0293581D01*
X0232413Y0292820D01*
X0232524Y0292831D01*
X0234375Y0294083D01*
X0234525Y0294069D01*
X0236106Y0292488D01*
X0236120Y0292338D01*
X0234868Y0290487D01*
X0234857Y0290376D01*
X0235618Y0288538D01*
X0235705Y0288467D01*
X0237899Y0288043D01*
X0237995Y0287927D01*
X0237995Y0285691D01*
X0237899Y0285575D01*
X0235705Y0285152D01*
X0235618Y0285081D01*
X0234857Y0283243D01*
X0234868Y0283131D01*
X0236120Y0281280D01*
X0236106Y0281131D01*
X0234525Y0279549D01*
X0234375Y0279535D01*
X0232524Y0280787D01*
X0232413Y0280798D01*
X0231571Y0280450D01*
X0231416Y0280514D01*
X0229867Y0284309D01*
X0230255Y0284130D02*
X0232027Y0286295D01*
X0231239Y0288854D01*
X0228877Y0290035D01*
X0226121Y0288657D01*
X0225924Y0286098D01*
X0227499Y0284130D01*
X0225924Y0280783D01*
X0225137Y0281374D01*
X0223365Y0279799D01*
X0222184Y0281177D01*
X0223169Y0283146D01*
X0222184Y0285508D01*
X0220019Y0285902D01*
X0220019Y0287673D01*
X0222381Y0288264D01*
X0223169Y0290429D01*
X0221987Y0292004D01*
X0223365Y0293579D01*
X0225137Y0292398D01*
X0227499Y0293382D01*
X0227893Y0295547D01*
X0229861Y0295547D01*
X0230255Y0293185D01*
X0232617Y0292398D01*
X0234389Y0293579D01*
X0235570Y0292398D01*
X0234389Y0290429D01*
X0235373Y0288264D01*
X0237539Y0287673D01*
X0237539Y0285902D01*
X0235373Y0285508D01*
X0234389Y0283146D01*
X0235570Y0281177D01*
X0234389Y0279996D01*
X0232617Y0281177D01*
X0231633Y0280980D01*
X0230255Y0284130D01*
X0230270Y0284095D02*
X0234784Y0284095D01*
X0234457Y0283309D02*
X0230614Y0283309D01*
X0230958Y0282523D02*
X0234763Y0282523D01*
X0235234Y0281737D02*
X0231302Y0281737D01*
X0232956Y0280951D02*
X0235344Y0280951D01*
X0234558Y0280165D02*
X0234135Y0280165D01*
X0235112Y0284881D02*
X0230869Y0284881D01*
X0231512Y0285667D02*
X0236247Y0285667D01*
X0237539Y0286453D02*
X0231978Y0286453D01*
X0231737Y0287239D02*
X0237539Y0287239D01*
X0236251Y0288024D02*
X0231495Y0288024D01*
X0231253Y0288810D02*
X0235125Y0288810D01*
X0234768Y0289596D02*
X0229755Y0289596D01*
X0227999Y0289596D02*
X0222866Y0289596D01*
X0222836Y0290376D02*
X0222824Y0290487D01*
X0221572Y0292338D01*
X0221586Y0292488D01*
X0222025Y0291954D02*
X0235304Y0291954D01*
X0235228Y0292740D02*
X0233131Y0292740D01*
X0234310Y0293526D02*
X0234442Y0293526D01*
X0234832Y0291168D02*
X0222614Y0291168D01*
X0222836Y0290376D02*
X0222074Y0288538D01*
X0221987Y0288467D01*
X0219793Y0288043D01*
X0219697Y0287927D01*
X0219697Y0285691D01*
X0219793Y0285575D01*
X0221987Y0285152D01*
X0222074Y0285081D01*
X0222836Y0283243D01*
X0222824Y0283131D01*
X0221572Y0281280D01*
X0221586Y0281131D01*
X0223168Y0279549D01*
X0223317Y0279535D01*
X0225168Y0280787D01*
X0225280Y0280798D01*
X0226121Y0280450D01*
X0226276Y0280514D01*
X0227825Y0284309D01*
X0227483Y0284095D02*
X0222773Y0284095D01*
X0222446Y0284881D02*
X0226899Y0284881D01*
X0226270Y0285667D02*
X0221311Y0285667D01*
X0220019Y0286453D02*
X0225952Y0286453D01*
X0226012Y0287239D02*
X0220019Y0287239D01*
X0221424Y0288024D02*
X0226073Y0288024D01*
X0226427Y0288810D02*
X0222580Y0288810D01*
X0223151Y0290382D02*
X0234410Y0290382D01*
X0231590Y0292740D02*
X0225958Y0292740D01*
X0224624Y0292740D02*
X0222631Y0292740D01*
X0223319Y0293526D02*
X0223445Y0293526D01*
X0227525Y0293526D02*
X0230198Y0293526D01*
X0230067Y0294312D02*
X0227668Y0294312D01*
X0227811Y0295098D02*
X0229936Y0295098D01*
X0230058Y0284524D02*
X0230148Y0284571D01*
X0230236Y0284622D01*
X0230323Y0284676D01*
X0230407Y0284733D01*
X0230489Y0284794D01*
X0230568Y0284857D01*
X0230645Y0284924D01*
X0230719Y0284993D01*
X0230791Y0285066D01*
X0230859Y0285141D01*
X0230925Y0285219D01*
X0230988Y0285299D01*
X0231047Y0285381D01*
X0231104Y0285466D01*
X0231157Y0285553D01*
X0231206Y0285642D01*
X0231253Y0285732D01*
X0231295Y0285825D01*
X0231334Y0285919D01*
X0231370Y0286014D01*
X0231402Y0286111D01*
X0231430Y0286208D01*
X0231454Y0286307D01*
X0231474Y0286407D01*
X0231491Y0286507D01*
X0231503Y0286608D01*
X0231512Y0286710D01*
X0231517Y0286811D01*
X0231518Y0286913D01*
X0231515Y0287015D01*
X0231508Y0287116D01*
X0231497Y0287218D01*
X0231482Y0287318D01*
X0231464Y0287418D01*
X0231441Y0287518D01*
X0231415Y0287616D01*
X0231385Y0287713D01*
X0231351Y0287809D01*
X0231314Y0287904D01*
X0231273Y0287997D01*
X0231228Y0288088D01*
X0231180Y0288178D01*
X0231129Y0288266D01*
X0231074Y0288351D01*
X0231016Y0288435D01*
X0230955Y0288516D01*
X0230890Y0288595D01*
X0230823Y0288671D01*
X0230753Y0288745D01*
X0230680Y0288816D01*
X0230604Y0288884D01*
X0230526Y0288949D01*
X0230445Y0289011D01*
X0230362Y0289070D01*
X0230277Y0289125D01*
X0230190Y0289178D01*
X0230100Y0289227D01*
X0230009Y0289272D01*
X0229917Y0289314D01*
X0229822Y0289352D01*
X0229727Y0289387D01*
X0229630Y0289417D01*
X0229532Y0289445D01*
X0229433Y0289468D01*
X0229333Y0289487D01*
X0229232Y0289503D01*
X0229131Y0289515D01*
X0229030Y0289523D01*
X0228928Y0289527D01*
X0228826Y0289527D01*
X0228724Y0289523D01*
X0228623Y0289515D01*
X0228522Y0289503D01*
X0228421Y0289487D01*
X0228321Y0289468D01*
X0228222Y0289445D01*
X0228124Y0289417D01*
X0228027Y0289387D01*
X0227932Y0289352D01*
X0227837Y0289314D01*
X0227745Y0289272D01*
X0227654Y0289227D01*
X0227564Y0289178D01*
X0227477Y0289125D01*
X0227392Y0289070D01*
X0227309Y0289011D01*
X0227228Y0288949D01*
X0227150Y0288884D01*
X0227074Y0288816D01*
X0227001Y0288745D01*
X0226931Y0288671D01*
X0226864Y0288595D01*
X0226799Y0288516D01*
X0226738Y0288435D01*
X0226680Y0288351D01*
X0226625Y0288266D01*
X0226574Y0288178D01*
X0226526Y0288088D01*
X0226481Y0287997D01*
X0226440Y0287904D01*
X0226403Y0287809D01*
X0226369Y0287713D01*
X0226339Y0287616D01*
X0226313Y0287518D01*
X0226290Y0287418D01*
X0226272Y0287318D01*
X0226257Y0287218D01*
X0226246Y0287116D01*
X0226239Y0287015D01*
X0226236Y0286913D01*
X0226237Y0286811D01*
X0226242Y0286710D01*
X0226251Y0286608D01*
X0226263Y0286507D01*
X0226280Y0286407D01*
X0226300Y0286307D01*
X0226324Y0286208D01*
X0226352Y0286111D01*
X0226384Y0286014D01*
X0226420Y0285919D01*
X0226459Y0285825D01*
X0226501Y0285732D01*
X0226548Y0285642D01*
X0226597Y0285553D01*
X0226650Y0285466D01*
X0226707Y0285381D01*
X0226766Y0285299D01*
X0226829Y0285219D01*
X0226895Y0285141D01*
X0226963Y0285066D01*
X0227035Y0284993D01*
X0227109Y0284924D01*
X0227186Y0284857D01*
X0227265Y0284794D01*
X0227347Y0284733D01*
X0227431Y0284676D01*
X0227518Y0284622D01*
X0227606Y0284571D01*
X0227696Y0284524D01*
X0227113Y0283309D02*
X0223100Y0283309D01*
X0222857Y0282523D02*
X0226743Y0282523D01*
X0226373Y0281737D02*
X0222464Y0281737D01*
X0222378Y0280951D02*
X0224661Y0280951D01*
X0225701Y0280951D02*
X0226003Y0280951D01*
X0223777Y0280165D02*
X0223052Y0280165D01*
X0157224Y0287280D02*
X0133208Y0287280D01*
X0133208Y0296728D01*
X0157224Y0296728D01*
X0157224Y0287280D01*
X0139901Y0213657D02*
X0139901Y0208933D01*
X0139901Y0203815D02*
X0139113Y0203815D01*
X0135176Y0201846D02*
X0135176Y0200272D01*
X0139113Y0198303D02*
X0139901Y0198303D01*
X0143838Y0200272D02*
X0143838Y0201846D01*
X0144428Y0204799D02*
X0144430Y0204838D01*
X0144436Y0204877D01*
X0144446Y0204915D01*
X0144459Y0204952D01*
X0144476Y0204987D01*
X0144496Y0205021D01*
X0144520Y0205052D01*
X0144547Y0205081D01*
X0144576Y0205107D01*
X0144608Y0205130D01*
X0144642Y0205150D01*
X0144678Y0205166D01*
X0144715Y0205178D01*
X0144754Y0205187D01*
X0144793Y0205192D01*
X0144832Y0205193D01*
X0144871Y0205190D01*
X0144910Y0205183D01*
X0144947Y0205172D01*
X0144984Y0205158D01*
X0145019Y0205140D01*
X0145052Y0205119D01*
X0145083Y0205094D01*
X0145111Y0205067D01*
X0145136Y0205037D01*
X0145158Y0205004D01*
X0145177Y0204970D01*
X0145192Y0204934D01*
X0145204Y0204896D01*
X0145212Y0204858D01*
X0145216Y0204819D01*
X0145216Y0204779D01*
X0145212Y0204740D01*
X0145204Y0204702D01*
X0145192Y0204664D01*
X0145177Y0204628D01*
X0145158Y0204594D01*
X0145136Y0204561D01*
X0145111Y0204531D01*
X0145083Y0204504D01*
X0145052Y0204479D01*
X0145019Y0204458D01*
X0144984Y0204440D01*
X0144947Y0204426D01*
X0144910Y0204415D01*
X0144871Y0204408D01*
X0144832Y0204405D01*
X0144793Y0204406D01*
X0144754Y0204411D01*
X0144715Y0204420D01*
X0144678Y0204432D01*
X0144642Y0204448D01*
X0144608Y0204468D01*
X0144576Y0204491D01*
X0144547Y0204517D01*
X0144520Y0204546D01*
X0144496Y0204577D01*
X0144476Y0204611D01*
X0144459Y0204646D01*
X0144446Y0204683D01*
X0144436Y0204721D01*
X0144430Y0204760D01*
X0144428Y0204799D01*
X0139901Y0192791D02*
X0139901Y0188067D01*
X0137932Y0181768D02*
X0137539Y0181768D01*
X0137539Y0177831D01*
X0137932Y0177831D01*
X0137539Y0177831D02*
X0137145Y0177831D01*
X0137145Y0177043D02*
X0137539Y0177043D01*
X0137539Y0173106D01*
X0137932Y0173106D01*
X0137539Y0173106D02*
X0137145Y0173106D01*
X0137145Y0172319D02*
X0137539Y0172319D01*
X0137539Y0168382D01*
X0137932Y0168382D01*
X0137539Y0168382D02*
X0137145Y0168382D01*
X0137145Y0167594D02*
X0137539Y0167594D01*
X0137539Y0163657D01*
X0137932Y0163657D01*
X0137539Y0163657D02*
X0137145Y0163657D01*
X0137145Y0162870D02*
X0137539Y0162870D01*
X0137539Y0158933D01*
X0137932Y0158933D01*
X0137539Y0158933D02*
X0137145Y0158933D01*
X0137145Y0158146D02*
X0137539Y0158146D01*
X0137539Y0154209D01*
X0137932Y0154209D01*
X0137539Y0154209D02*
X0137145Y0154209D01*
X0137539Y0158146D02*
X0137932Y0158146D01*
X0137932Y0162870D02*
X0137539Y0162870D01*
X0137539Y0167594D02*
X0137932Y0167594D01*
X0137932Y0172319D02*
X0137539Y0172319D01*
X0137539Y0177043D02*
X0137932Y0177043D01*
X0137539Y0181768D02*
X0137145Y0181768D01*
X0146987Y0177043D02*
X0146987Y0176453D01*
X0146987Y0177043D02*
X0149546Y0177043D01*
X0152696Y0177043D02*
X0155452Y0177043D01*
X0154468Y0179406D02*
X0154074Y0179406D01*
X0154074Y0183343D01*
X0153680Y0183343D01*
X0154074Y0183343D02*
X0154468Y0183343D01*
X0154074Y0179406D02*
X0153680Y0179406D01*
X0158602Y0177043D02*
X0161161Y0177043D01*
X0161161Y0176453D01*
X0161161Y0159524D02*
X0161161Y0158933D01*
X0158602Y0158933D01*
X0155452Y0158933D02*
X0152696Y0158933D01*
X0149546Y0158933D02*
X0146987Y0158933D01*
X0146987Y0159524D01*
X0179665Y0171531D02*
X0181239Y0171531D01*
X0182814Y0174287D02*
X0182814Y0175075D01*
X0181239Y0177831D02*
X0179665Y0177831D01*
X0180058Y0179799D02*
X0180452Y0179799D01*
X0180452Y0183736D01*
X0180058Y0183736D01*
X0180452Y0183736D02*
X0180846Y0183736D01*
X0181239Y0185705D02*
X0179665Y0185705D01*
X0182814Y0188461D02*
X0182814Y0189248D01*
X0181239Y0192004D02*
X0179665Y0192004D01*
X0180058Y0193972D02*
X0180452Y0193972D01*
X0180452Y0197909D01*
X0180058Y0197909D01*
X0180452Y0197909D02*
X0180846Y0197909D01*
X0180846Y0193972D02*
X0180452Y0193972D01*
X0180452Y0179799D02*
X0180846Y0179799D01*
X0192263Y0163264D02*
X0192657Y0163264D01*
X0192657Y0159327D01*
X0193050Y0159327D01*
X0192657Y0159327D02*
X0192263Y0159327D01*
X0192263Y0156177D02*
X0192657Y0156177D01*
X0192657Y0152240D01*
X0193050Y0152240D01*
X0192657Y0152240D02*
X0192263Y0152240D01*
X0192657Y0156177D02*
X0193050Y0156177D01*
X0193050Y0163264D02*
X0192657Y0163264D01*
X0202499Y0174287D02*
X0217460Y0174287D01*
X0217460Y0193185D02*
X0212342Y0193185D01*
X0212340Y0193089D01*
X0212334Y0192992D01*
X0212324Y0192897D01*
X0212311Y0192801D01*
X0212293Y0192706D01*
X0212272Y0192613D01*
X0212246Y0192520D01*
X0212217Y0192428D01*
X0212185Y0192337D01*
X0212148Y0192248D01*
X0212108Y0192160D01*
X0212065Y0192074D01*
X0212017Y0191990D01*
X0211967Y0191908D01*
X0211913Y0191828D01*
X0211856Y0191750D01*
X0211796Y0191675D01*
X0211733Y0191602D01*
X0211667Y0191532D01*
X0211598Y0191464D01*
X0211527Y0191400D01*
X0211453Y0191338D01*
X0211376Y0191280D01*
X0211297Y0191224D01*
X0211216Y0191172D01*
X0211133Y0191124D01*
X0211048Y0191078D01*
X0210961Y0191036D01*
X0210873Y0190998D01*
X0210783Y0190964D01*
X0210692Y0190933D01*
X0210599Y0190906D01*
X0210506Y0190882D01*
X0210411Y0190863D01*
X0210316Y0190847D01*
X0210221Y0190835D01*
X0210124Y0190827D01*
X0210028Y0190823D01*
X0209932Y0190823D01*
X0209836Y0190827D01*
X0209739Y0190835D01*
X0209644Y0190847D01*
X0209549Y0190863D01*
X0209454Y0190882D01*
X0209361Y0190906D01*
X0209268Y0190933D01*
X0209177Y0190964D01*
X0209087Y0190998D01*
X0208999Y0191036D01*
X0208912Y0191078D01*
X0208827Y0191124D01*
X0208744Y0191172D01*
X0208663Y0191224D01*
X0208584Y0191280D01*
X0208507Y0191338D01*
X0208433Y0191400D01*
X0208362Y0191464D01*
X0208293Y0191532D01*
X0208227Y0191602D01*
X0208164Y0191675D01*
X0208104Y0191750D01*
X0208047Y0191828D01*
X0207993Y0191908D01*
X0207943Y0191990D01*
X0207895Y0192074D01*
X0207852Y0192160D01*
X0207812Y0192248D01*
X0207775Y0192337D01*
X0207743Y0192428D01*
X0207714Y0192520D01*
X0207688Y0192613D01*
X0207667Y0192706D01*
X0207649Y0192801D01*
X0207636Y0192897D01*
X0207626Y0192992D01*
X0207620Y0193089D01*
X0207618Y0193185D01*
X0207617Y0193185D02*
X0202499Y0193185D01*
X0218247Y0194760D02*
X0218641Y0194760D01*
X0218641Y0198697D01*
X0218247Y0198697D01*
X0218641Y0198697D02*
X0219035Y0198697D01*
X0219035Y0194760D02*
X0218641Y0194760D01*
X0252027Y0203028D02*
X0252027Y0206177D01*
X0255176Y0206177D01*
X0252027Y0203028D01*
X0252027Y0203146D02*
X0252145Y0203146D01*
X0252027Y0203932D02*
X0252931Y0203932D01*
X0253717Y0204718D02*
X0252027Y0204718D01*
X0252027Y0205504D02*
X0254503Y0205504D01*
X0316751Y0205504D02*
X0319225Y0205504D01*
X0319901Y0206180D02*
X0316751Y0206180D01*
X0316751Y0203030D01*
X0319901Y0206180D01*
X0318439Y0204718D02*
X0316751Y0204718D01*
X0316751Y0203932D02*
X0317653Y0203932D01*
X0316867Y0203146D02*
X0316751Y0203146D01*
X0339901Y0201846D02*
X0339901Y0200272D01*
X0343838Y0198303D02*
X0344625Y0198303D01*
X0348562Y0200272D02*
X0348562Y0201846D01*
X0349152Y0204799D02*
X0349154Y0204838D01*
X0349160Y0204877D01*
X0349170Y0204915D01*
X0349183Y0204952D01*
X0349200Y0204987D01*
X0349220Y0205021D01*
X0349244Y0205052D01*
X0349271Y0205081D01*
X0349300Y0205107D01*
X0349332Y0205130D01*
X0349366Y0205150D01*
X0349402Y0205166D01*
X0349439Y0205178D01*
X0349478Y0205187D01*
X0349517Y0205192D01*
X0349556Y0205193D01*
X0349595Y0205190D01*
X0349634Y0205183D01*
X0349671Y0205172D01*
X0349708Y0205158D01*
X0349743Y0205140D01*
X0349776Y0205119D01*
X0349807Y0205094D01*
X0349835Y0205067D01*
X0349860Y0205037D01*
X0349882Y0205004D01*
X0349901Y0204970D01*
X0349916Y0204934D01*
X0349928Y0204896D01*
X0349936Y0204858D01*
X0349940Y0204819D01*
X0349940Y0204779D01*
X0349936Y0204740D01*
X0349928Y0204702D01*
X0349916Y0204664D01*
X0349901Y0204628D01*
X0349882Y0204594D01*
X0349860Y0204561D01*
X0349835Y0204531D01*
X0349807Y0204504D01*
X0349776Y0204479D01*
X0349743Y0204458D01*
X0349708Y0204440D01*
X0349671Y0204426D01*
X0349634Y0204415D01*
X0349595Y0204408D01*
X0349556Y0204405D01*
X0349517Y0204406D01*
X0349478Y0204411D01*
X0349439Y0204420D01*
X0349402Y0204432D01*
X0349366Y0204448D01*
X0349332Y0204468D01*
X0349300Y0204491D01*
X0349271Y0204517D01*
X0349244Y0204546D01*
X0349220Y0204577D01*
X0349200Y0204611D01*
X0349183Y0204646D01*
X0349170Y0204683D01*
X0349160Y0204721D01*
X0349154Y0204760D01*
X0349152Y0204799D01*
X0344625Y0203815D02*
X0343838Y0203815D01*
X0344625Y0208933D02*
X0344625Y0213657D01*
X0344625Y0192791D02*
X0344625Y0188067D01*
X0342657Y0181768D02*
X0342263Y0181768D01*
X0342263Y0177831D01*
X0342657Y0177831D01*
X0342263Y0177831D02*
X0341869Y0177831D01*
X0341869Y0177043D02*
X0342263Y0177043D01*
X0342263Y0173106D01*
X0342657Y0173106D01*
X0342263Y0173106D02*
X0341869Y0173106D01*
X0341869Y0172319D02*
X0342263Y0172319D01*
X0342263Y0168382D01*
X0342657Y0168382D01*
X0342263Y0168382D02*
X0341869Y0168382D01*
X0341869Y0167594D02*
X0342263Y0167594D01*
X0342263Y0163657D01*
X0342657Y0163657D01*
X0342263Y0163657D02*
X0341869Y0163657D01*
X0341869Y0162870D02*
X0342263Y0162870D01*
X0342263Y0158933D01*
X0342657Y0158933D01*
X0342263Y0158933D02*
X0341869Y0158933D01*
X0341869Y0158146D02*
X0342263Y0158146D01*
X0342263Y0154209D01*
X0342657Y0154209D01*
X0342263Y0154209D02*
X0341869Y0154209D01*
X0342263Y0158146D02*
X0342657Y0158146D01*
X0342657Y0162870D02*
X0342263Y0162870D01*
X0342263Y0167594D02*
X0342657Y0167594D01*
X0351712Y0159524D02*
X0351712Y0158933D01*
X0354271Y0158933D01*
X0357420Y0158933D02*
X0360176Y0158933D01*
X0363326Y0158933D02*
X0365885Y0158933D01*
X0365885Y0159524D01*
X0365885Y0176453D02*
X0365885Y0177043D01*
X0363326Y0177043D01*
X0360176Y0177043D02*
X0357420Y0177043D01*
X0358405Y0179406D02*
X0358798Y0179406D01*
X0358798Y0183343D01*
X0358405Y0183343D01*
X0358798Y0183343D02*
X0359192Y0183343D01*
X0359192Y0179406D02*
X0358798Y0179406D01*
X0354271Y0177043D02*
X0351712Y0177043D01*
X0351712Y0176453D01*
X0342657Y0177043D02*
X0342263Y0177043D01*
X0342263Y0172319D02*
X0342657Y0172319D01*
X0342263Y0181768D02*
X0341869Y0181768D01*
X0384389Y0185705D02*
X0385964Y0185705D01*
X0385570Y0183736D02*
X0385176Y0183736D01*
X0385176Y0179799D01*
X0384783Y0179799D01*
X0385176Y0179799D02*
X0385570Y0179799D01*
X0385964Y0177831D02*
X0384389Y0177831D01*
X0387539Y0175075D02*
X0387539Y0174287D01*
X0385964Y0171531D02*
X0384389Y0171531D01*
X0396987Y0163264D02*
X0397381Y0163264D01*
X0397381Y0159327D01*
X0397775Y0159327D01*
X0397381Y0159327D02*
X0396987Y0159327D01*
X0396987Y0156177D02*
X0397381Y0156177D01*
X0397381Y0152240D01*
X0397775Y0152240D01*
X0397381Y0152240D02*
X0396987Y0152240D01*
X0397381Y0156177D02*
X0397775Y0156177D01*
X0397775Y0163264D02*
X0397381Y0163264D01*
X0407224Y0174287D02*
X0422184Y0174287D01*
X0422184Y0193185D02*
X0417066Y0193185D01*
X0417064Y0193089D01*
X0417058Y0192992D01*
X0417048Y0192897D01*
X0417035Y0192801D01*
X0417017Y0192706D01*
X0416996Y0192613D01*
X0416970Y0192520D01*
X0416941Y0192428D01*
X0416909Y0192337D01*
X0416872Y0192248D01*
X0416832Y0192160D01*
X0416789Y0192074D01*
X0416741Y0191990D01*
X0416691Y0191908D01*
X0416637Y0191828D01*
X0416580Y0191750D01*
X0416520Y0191675D01*
X0416457Y0191602D01*
X0416391Y0191532D01*
X0416322Y0191464D01*
X0416251Y0191400D01*
X0416177Y0191338D01*
X0416100Y0191280D01*
X0416021Y0191224D01*
X0415940Y0191172D01*
X0415857Y0191124D01*
X0415772Y0191078D01*
X0415685Y0191036D01*
X0415597Y0190998D01*
X0415507Y0190964D01*
X0415416Y0190933D01*
X0415323Y0190906D01*
X0415230Y0190882D01*
X0415135Y0190863D01*
X0415040Y0190847D01*
X0414945Y0190835D01*
X0414848Y0190827D01*
X0414752Y0190823D01*
X0414656Y0190823D01*
X0414560Y0190827D01*
X0414463Y0190835D01*
X0414368Y0190847D01*
X0414273Y0190863D01*
X0414178Y0190882D01*
X0414085Y0190906D01*
X0413992Y0190933D01*
X0413901Y0190964D01*
X0413811Y0190998D01*
X0413723Y0191036D01*
X0413636Y0191078D01*
X0413551Y0191124D01*
X0413468Y0191172D01*
X0413387Y0191224D01*
X0413308Y0191280D01*
X0413231Y0191338D01*
X0413157Y0191400D01*
X0413086Y0191464D01*
X0413017Y0191532D01*
X0412951Y0191602D01*
X0412888Y0191675D01*
X0412828Y0191750D01*
X0412771Y0191828D01*
X0412717Y0191908D01*
X0412667Y0191990D01*
X0412619Y0192074D01*
X0412576Y0192160D01*
X0412536Y0192248D01*
X0412499Y0192337D01*
X0412467Y0192428D01*
X0412438Y0192520D01*
X0412412Y0192613D01*
X0412391Y0192706D01*
X0412373Y0192801D01*
X0412360Y0192897D01*
X0412350Y0192992D01*
X0412344Y0193089D01*
X0412342Y0193185D01*
X0407224Y0193185D01*
X0422972Y0194760D02*
X0423365Y0194760D01*
X0423365Y0198697D01*
X0422972Y0198697D01*
X0423365Y0198697D02*
X0423759Y0198697D01*
X0423759Y0194760D02*
X0423365Y0194760D01*
X0456751Y0203028D02*
X0456751Y0206177D01*
X0459901Y0206177D01*
X0456751Y0203028D01*
X0456751Y0203146D02*
X0456869Y0203146D01*
X0456751Y0203932D02*
X0457655Y0203932D01*
X0458441Y0204718D02*
X0456751Y0204718D01*
X0456751Y0205504D02*
X0459227Y0205504D01*
X0387539Y0189248D02*
X0387539Y0188461D01*
X0385964Y0192004D02*
X0384389Y0192004D01*
X0384783Y0193972D02*
X0385176Y0193972D01*
X0385176Y0197909D01*
X0384783Y0197909D01*
X0385176Y0197909D02*
X0385570Y0197909D01*
X0385570Y0193972D02*
X0385176Y0193972D01*
X0385176Y0183736D02*
X0384783Y0183736D01*
X0363523Y0119563D02*
X0363523Y0101846D01*
X0418641Y0101846D01*
X0418641Y0119563D01*
X0363523Y0119563D01*
X0361948Y0119563D02*
X0361948Y0110114D01*
X0337932Y0110114D01*
X0337932Y0119563D01*
X0361948Y0119563D01*
X0424422Y0110762D02*
X0424517Y0110878D01*
X0426712Y0111301D01*
X0426799Y0111372D01*
X0427560Y0113210D01*
X0427549Y0113322D01*
X0426296Y0115173D01*
X0426311Y0115322D01*
X0427892Y0116904D01*
X0428042Y0116918D01*
X0429893Y0115666D01*
X0430004Y0115655D01*
X0431842Y0116416D01*
X0431913Y0116503D01*
X0432336Y0118697D01*
X0432452Y0118793D01*
X0434689Y0118793D01*
X0434805Y0118697D01*
X0435228Y0116503D01*
X0435299Y0116416D01*
X0437137Y0115655D01*
X0437248Y0115666D01*
X0439099Y0116918D01*
X0439249Y0116904D01*
X0440831Y0115322D01*
X0440845Y0115173D01*
X0439593Y0113322D01*
X0439581Y0113210D01*
X0440343Y0111372D01*
X0440429Y0111301D01*
X0442624Y0110878D01*
X0442719Y0110762D01*
X0442719Y0108526D01*
X0442624Y0108410D01*
X0440429Y0107986D01*
X0440343Y0107915D01*
X0439581Y0106077D01*
X0439593Y0105966D01*
X0440845Y0104115D01*
X0440831Y0103965D01*
X0439249Y0102384D01*
X0439099Y0102370D01*
X0437248Y0103622D01*
X0437137Y0103633D01*
X0436295Y0103285D01*
X0436141Y0103349D01*
X0434591Y0107144D01*
X0434980Y0106965D02*
X0436751Y0109130D01*
X0435964Y0111689D01*
X0433602Y0112870D01*
X0430846Y0111492D01*
X0430649Y0108933D01*
X0432224Y0106965D01*
X0430649Y0103618D01*
X0429861Y0104209D01*
X0428090Y0102634D01*
X0426909Y0104012D01*
X0427893Y0105980D01*
X0426909Y0108343D01*
X0424743Y0108736D01*
X0424743Y0110508D01*
X0427106Y0111098D01*
X0427893Y0113264D01*
X0426712Y0114839D01*
X0428090Y0116413D01*
X0429861Y0115232D01*
X0432224Y0116217D01*
X0432617Y0118382D01*
X0434586Y0118382D01*
X0434980Y0116020D01*
X0437342Y0115232D01*
X0439113Y0116413D01*
X0440294Y0115232D01*
X0439113Y0113264D01*
X0440098Y0111098D01*
X0442263Y0110508D01*
X0442263Y0108736D01*
X0440098Y0108343D01*
X0439113Y0105980D01*
X0440294Y0104012D01*
X0439113Y0102831D01*
X0437342Y0104012D01*
X0436357Y0103815D01*
X0434980Y0106965D01*
X0435225Y0107264D02*
X0439648Y0107264D01*
X0439321Y0106479D02*
X0435192Y0106479D01*
X0435536Y0105693D02*
X0439286Y0105693D01*
X0439758Y0104907D02*
X0435880Y0104907D01*
X0436224Y0104121D02*
X0440229Y0104121D01*
X0439618Y0103335D02*
X0438357Y0103335D01*
X0439976Y0108050D02*
X0435868Y0108050D01*
X0436511Y0108836D02*
X0442263Y0108836D01*
X0442263Y0109622D02*
X0436600Y0109622D01*
X0436358Y0110408D02*
X0442263Y0110408D01*
X0440054Y0111194D02*
X0436116Y0111194D01*
X0435382Y0111980D02*
X0439697Y0111980D01*
X0439340Y0112766D02*
X0433810Y0112766D01*
X0433393Y0112766D02*
X0427712Y0112766D01*
X0427677Y0113552D02*
X0439286Y0113552D01*
X0439758Y0114338D02*
X0427087Y0114338D01*
X0426961Y0115124D02*
X0440229Y0115124D01*
X0439617Y0115910D02*
X0438358Y0115910D01*
X0435310Y0115910D02*
X0431487Y0115910D01*
X0432311Y0116695D02*
X0434867Y0116695D01*
X0434736Y0117481D02*
X0432454Y0117481D01*
X0432596Y0118267D02*
X0434605Y0118267D01*
X0428846Y0115910D02*
X0427649Y0115910D01*
X0427426Y0111980D02*
X0431821Y0111980D01*
X0430823Y0111194D02*
X0427140Y0111194D01*
X0424743Y0110408D02*
X0430762Y0110408D01*
X0430702Y0109622D02*
X0424743Y0109622D01*
X0424743Y0108836D02*
X0430726Y0108836D01*
X0431355Y0108050D02*
X0427030Y0108050D01*
X0426799Y0107915D02*
X0426712Y0107986D01*
X0424517Y0108410D01*
X0424422Y0108526D01*
X0424422Y0110762D01*
X0426799Y0107915D02*
X0427560Y0106077D01*
X0427549Y0105966D01*
X0426296Y0104115D01*
X0426311Y0103965D01*
X0427892Y0102384D01*
X0428042Y0102370D01*
X0429893Y0103622D01*
X0430004Y0103633D01*
X0430846Y0103285D01*
X0431000Y0103349D01*
X0432550Y0107144D01*
X0431984Y0107264D02*
X0427358Y0107264D01*
X0427685Y0106479D02*
X0431995Y0106479D01*
X0431625Y0105693D02*
X0427749Y0105693D01*
X0427356Y0104907D02*
X0431255Y0104907D01*
X0430885Y0104121D02*
X0429979Y0104121D01*
X0429763Y0104121D02*
X0426963Y0104121D01*
X0427489Y0103335D02*
X0428878Y0103335D01*
X0432421Y0107358D02*
X0432331Y0107405D01*
X0432243Y0107456D01*
X0432156Y0107510D01*
X0432072Y0107567D01*
X0431990Y0107628D01*
X0431911Y0107691D01*
X0431834Y0107758D01*
X0431760Y0107827D01*
X0431688Y0107900D01*
X0431620Y0107975D01*
X0431554Y0108053D01*
X0431491Y0108133D01*
X0431432Y0108215D01*
X0431375Y0108300D01*
X0431322Y0108387D01*
X0431273Y0108476D01*
X0431226Y0108566D01*
X0431184Y0108659D01*
X0431145Y0108753D01*
X0431109Y0108848D01*
X0431077Y0108945D01*
X0431049Y0109042D01*
X0431025Y0109141D01*
X0431005Y0109241D01*
X0430988Y0109341D01*
X0430976Y0109442D01*
X0430967Y0109544D01*
X0430962Y0109645D01*
X0430961Y0109747D01*
X0430964Y0109849D01*
X0430971Y0109950D01*
X0430982Y0110052D01*
X0430997Y0110152D01*
X0431015Y0110252D01*
X0431038Y0110352D01*
X0431064Y0110450D01*
X0431094Y0110547D01*
X0431128Y0110643D01*
X0431165Y0110738D01*
X0431206Y0110831D01*
X0431251Y0110922D01*
X0431299Y0111012D01*
X0431350Y0111100D01*
X0431405Y0111185D01*
X0431463Y0111269D01*
X0431524Y0111350D01*
X0431589Y0111429D01*
X0431656Y0111505D01*
X0431726Y0111579D01*
X0431799Y0111650D01*
X0431875Y0111718D01*
X0431953Y0111783D01*
X0432034Y0111845D01*
X0432117Y0111904D01*
X0432202Y0111959D01*
X0432289Y0112012D01*
X0432379Y0112061D01*
X0432470Y0112106D01*
X0432562Y0112148D01*
X0432657Y0112186D01*
X0432752Y0112221D01*
X0432849Y0112251D01*
X0432947Y0112279D01*
X0433046Y0112302D01*
X0433146Y0112321D01*
X0433247Y0112337D01*
X0433348Y0112349D01*
X0433449Y0112357D01*
X0433551Y0112361D01*
X0433653Y0112361D01*
X0433755Y0112357D01*
X0433856Y0112349D01*
X0433957Y0112337D01*
X0434058Y0112321D01*
X0434158Y0112302D01*
X0434257Y0112279D01*
X0434355Y0112251D01*
X0434452Y0112221D01*
X0434547Y0112186D01*
X0434642Y0112148D01*
X0434734Y0112106D01*
X0434825Y0112061D01*
X0434915Y0112012D01*
X0435002Y0111959D01*
X0435087Y0111904D01*
X0435170Y0111845D01*
X0435251Y0111783D01*
X0435329Y0111718D01*
X0435405Y0111650D01*
X0435478Y0111579D01*
X0435548Y0111505D01*
X0435615Y0111429D01*
X0435680Y0111350D01*
X0435741Y0111269D01*
X0435799Y0111185D01*
X0435854Y0111100D01*
X0435905Y0111012D01*
X0435953Y0110922D01*
X0435998Y0110831D01*
X0436039Y0110738D01*
X0436076Y0110643D01*
X0436110Y0110547D01*
X0436140Y0110450D01*
X0436166Y0110352D01*
X0436189Y0110252D01*
X0436207Y0110152D01*
X0436222Y0110052D01*
X0436233Y0109950D01*
X0436240Y0109849D01*
X0436243Y0109747D01*
X0436242Y0109645D01*
X0436237Y0109544D01*
X0436228Y0109442D01*
X0436216Y0109341D01*
X0436199Y0109241D01*
X0436179Y0109141D01*
X0436155Y0109042D01*
X0436127Y0108945D01*
X0436095Y0108848D01*
X0436059Y0108753D01*
X0436020Y0108659D01*
X0435978Y0108566D01*
X0435931Y0108476D01*
X0435882Y0108387D01*
X0435829Y0108300D01*
X0435772Y0108215D01*
X0435713Y0108133D01*
X0435650Y0108053D01*
X0435584Y0107975D01*
X0435516Y0107900D01*
X0435444Y0107827D01*
X0435370Y0107758D01*
X0435293Y0107691D01*
X0435214Y0107628D01*
X0435132Y0107567D01*
X0435048Y0107510D01*
X0434961Y0107456D01*
X0434873Y0107405D01*
X0434783Y0107358D01*
X0418641Y0279012D02*
X0363523Y0279012D01*
X0363523Y0296728D01*
X0418641Y0296728D01*
X0418641Y0279012D01*
X0426311Y0281131D02*
X0426296Y0281280D01*
X0427549Y0283131D01*
X0427560Y0283243D01*
X0426799Y0285081D01*
X0426712Y0285152D01*
X0424517Y0285575D01*
X0424422Y0285691D01*
X0424422Y0287927D01*
X0424517Y0288043D01*
X0426712Y0288467D01*
X0426799Y0288538D01*
X0427560Y0290376D01*
X0427549Y0290487D01*
X0426296Y0292338D01*
X0426311Y0292488D01*
X0427892Y0294069D01*
X0428042Y0294083D01*
X0429893Y0292831D01*
X0430004Y0292820D01*
X0431842Y0293581D01*
X0431913Y0293668D01*
X0432336Y0295862D01*
X0432452Y0295958D01*
X0434689Y0295958D01*
X0434805Y0295862D01*
X0435228Y0293668D01*
X0435299Y0293581D01*
X0437137Y0292820D01*
X0437248Y0292831D01*
X0439099Y0294083D01*
X0439249Y0294069D01*
X0440831Y0292488D01*
X0440845Y0292338D01*
X0439593Y0290487D01*
X0439581Y0290376D01*
X0440343Y0288538D01*
X0440429Y0288467D01*
X0442624Y0288043D01*
X0442719Y0287927D01*
X0442719Y0285691D01*
X0442624Y0285575D01*
X0440429Y0285152D01*
X0440343Y0285081D01*
X0439581Y0283243D01*
X0439593Y0283131D01*
X0440845Y0281280D01*
X0440831Y0281131D01*
X0439249Y0279549D01*
X0439099Y0279535D01*
X0437248Y0280787D01*
X0437137Y0280798D01*
X0436295Y0280450D01*
X0436141Y0280514D01*
X0434591Y0284309D01*
X0434980Y0284130D02*
X0436357Y0280980D01*
X0437342Y0281177D01*
X0439113Y0279996D01*
X0440294Y0281177D01*
X0439113Y0283146D01*
X0440098Y0285508D01*
X0442263Y0285902D01*
X0442263Y0287673D01*
X0440098Y0288264D01*
X0439113Y0290429D01*
X0440294Y0292398D01*
X0439113Y0293579D01*
X0437342Y0292398D01*
X0434980Y0293185D01*
X0434586Y0295547D01*
X0432617Y0295547D01*
X0432224Y0293382D01*
X0429861Y0292398D01*
X0428090Y0293579D01*
X0426712Y0292004D01*
X0427893Y0290429D01*
X0427106Y0288264D01*
X0424743Y0287673D01*
X0424743Y0285902D01*
X0426909Y0285508D01*
X0427893Y0283146D01*
X0426909Y0281177D01*
X0428090Y0279799D01*
X0429861Y0281374D01*
X0430649Y0280783D01*
X0432224Y0284130D01*
X0430649Y0286098D01*
X0430846Y0288657D01*
X0433602Y0290035D01*
X0435964Y0288854D01*
X0436751Y0286295D01*
X0434980Y0284130D01*
X0434995Y0284095D02*
X0439509Y0284095D01*
X0439836Y0284881D02*
X0435594Y0284881D01*
X0436237Y0285667D02*
X0440971Y0285667D01*
X0442263Y0286453D02*
X0436703Y0286453D01*
X0436461Y0287239D02*
X0442263Y0287239D01*
X0440975Y0288024D02*
X0436219Y0288024D01*
X0435977Y0288810D02*
X0439849Y0288810D01*
X0439492Y0289596D02*
X0434480Y0289596D01*
X0432723Y0289596D02*
X0427590Y0289596D01*
X0427304Y0288810D02*
X0431151Y0288810D01*
X0430797Y0288024D02*
X0426148Y0288024D01*
X0424743Y0287239D02*
X0430737Y0287239D01*
X0430676Y0286453D02*
X0424743Y0286453D01*
X0426035Y0285667D02*
X0430994Y0285667D01*
X0431623Y0284881D02*
X0427170Y0284881D01*
X0427497Y0284095D02*
X0432207Y0284095D01*
X0432550Y0284309D02*
X0431000Y0280514D01*
X0430846Y0280450D01*
X0430004Y0280798D01*
X0429893Y0280787D01*
X0428042Y0279535D01*
X0427892Y0279549D01*
X0426311Y0281131D01*
X0427102Y0280951D02*
X0429386Y0280951D01*
X0430425Y0280951D02*
X0430728Y0280951D01*
X0431098Y0281737D02*
X0427189Y0281737D01*
X0427582Y0282523D02*
X0431467Y0282523D01*
X0431837Y0283309D02*
X0427825Y0283309D01*
X0427776Y0280165D02*
X0428502Y0280165D01*
X0432421Y0284524D02*
X0432331Y0284571D01*
X0432243Y0284622D01*
X0432156Y0284676D01*
X0432072Y0284733D01*
X0431990Y0284794D01*
X0431911Y0284857D01*
X0431834Y0284924D01*
X0431760Y0284993D01*
X0431688Y0285066D01*
X0431620Y0285141D01*
X0431554Y0285219D01*
X0431491Y0285299D01*
X0431432Y0285381D01*
X0431375Y0285466D01*
X0431322Y0285553D01*
X0431273Y0285642D01*
X0431226Y0285732D01*
X0431184Y0285825D01*
X0431145Y0285919D01*
X0431109Y0286014D01*
X0431077Y0286111D01*
X0431049Y0286208D01*
X0431025Y0286307D01*
X0431005Y0286407D01*
X0430988Y0286507D01*
X0430976Y0286608D01*
X0430967Y0286710D01*
X0430962Y0286811D01*
X0430961Y0286913D01*
X0430964Y0287015D01*
X0430971Y0287116D01*
X0430982Y0287218D01*
X0430997Y0287318D01*
X0431015Y0287418D01*
X0431038Y0287518D01*
X0431064Y0287616D01*
X0431094Y0287713D01*
X0431128Y0287809D01*
X0431165Y0287904D01*
X0431206Y0287997D01*
X0431251Y0288088D01*
X0431299Y0288178D01*
X0431350Y0288266D01*
X0431405Y0288351D01*
X0431463Y0288435D01*
X0431524Y0288516D01*
X0431589Y0288595D01*
X0431656Y0288671D01*
X0431726Y0288745D01*
X0431799Y0288816D01*
X0431875Y0288884D01*
X0431953Y0288949D01*
X0432034Y0289011D01*
X0432117Y0289070D01*
X0432202Y0289125D01*
X0432289Y0289178D01*
X0432379Y0289227D01*
X0432470Y0289272D01*
X0432562Y0289314D01*
X0432657Y0289352D01*
X0432752Y0289387D01*
X0432849Y0289417D01*
X0432947Y0289445D01*
X0433046Y0289468D01*
X0433146Y0289487D01*
X0433247Y0289503D01*
X0433348Y0289515D01*
X0433449Y0289523D01*
X0433551Y0289527D01*
X0433653Y0289527D01*
X0433755Y0289523D01*
X0433856Y0289515D01*
X0433957Y0289503D01*
X0434058Y0289487D01*
X0434158Y0289468D01*
X0434257Y0289445D01*
X0434355Y0289417D01*
X0434452Y0289387D01*
X0434547Y0289352D01*
X0434642Y0289314D01*
X0434734Y0289272D01*
X0434825Y0289227D01*
X0434915Y0289178D01*
X0435002Y0289125D01*
X0435087Y0289070D01*
X0435170Y0289011D01*
X0435251Y0288949D01*
X0435329Y0288884D01*
X0435405Y0288816D01*
X0435478Y0288745D01*
X0435548Y0288671D01*
X0435615Y0288595D01*
X0435680Y0288516D01*
X0435741Y0288435D01*
X0435799Y0288351D01*
X0435854Y0288266D01*
X0435905Y0288178D01*
X0435953Y0288088D01*
X0435998Y0287997D01*
X0436039Y0287904D01*
X0436076Y0287809D01*
X0436110Y0287713D01*
X0436140Y0287616D01*
X0436166Y0287518D01*
X0436189Y0287418D01*
X0436207Y0287318D01*
X0436222Y0287218D01*
X0436233Y0287116D01*
X0436240Y0287015D01*
X0436243Y0286913D01*
X0436242Y0286811D01*
X0436237Y0286710D01*
X0436228Y0286608D01*
X0436216Y0286507D01*
X0436199Y0286407D01*
X0436179Y0286307D01*
X0436155Y0286208D01*
X0436127Y0286111D01*
X0436095Y0286014D01*
X0436059Y0285919D01*
X0436020Y0285825D01*
X0435978Y0285732D01*
X0435931Y0285642D01*
X0435882Y0285553D01*
X0435829Y0285466D01*
X0435772Y0285381D01*
X0435713Y0285299D01*
X0435650Y0285219D01*
X0435584Y0285141D01*
X0435516Y0285066D01*
X0435444Y0284993D01*
X0435370Y0284924D01*
X0435293Y0284857D01*
X0435214Y0284794D01*
X0435132Y0284733D01*
X0435048Y0284676D01*
X0434961Y0284622D01*
X0434873Y0284571D01*
X0434783Y0284524D01*
X0435339Y0283309D02*
X0439181Y0283309D01*
X0439487Y0282523D02*
X0435683Y0282523D01*
X0436026Y0281737D02*
X0439959Y0281737D01*
X0440069Y0280951D02*
X0437681Y0280951D01*
X0438860Y0280165D02*
X0439283Y0280165D01*
X0439135Y0290382D02*
X0427876Y0290382D01*
X0427339Y0291168D02*
X0439557Y0291168D01*
X0440028Y0291954D02*
X0426749Y0291954D01*
X0427356Y0292740D02*
X0429348Y0292740D01*
X0430683Y0292740D02*
X0436315Y0292740D01*
X0437855Y0292740D02*
X0439952Y0292740D01*
X0439166Y0293526D02*
X0439034Y0293526D01*
X0434923Y0293526D02*
X0432250Y0293526D01*
X0432393Y0294312D02*
X0434792Y0294312D01*
X0434661Y0295098D02*
X0432536Y0295098D01*
X0428169Y0293526D02*
X0428043Y0293526D01*
X0397775Y0329406D02*
X0397381Y0329406D01*
X0397381Y0333343D01*
X0397775Y0333343D01*
X0397381Y0333343D02*
X0396987Y0333343D01*
X0396987Y0336492D02*
X0397381Y0336492D01*
X0397381Y0340429D01*
X0397775Y0340429D01*
X0397381Y0340429D02*
X0396987Y0340429D01*
X0397381Y0336492D02*
X0397775Y0336492D01*
X0397381Y0329406D02*
X0396987Y0329406D01*
X0385964Y0348697D02*
X0384389Y0348697D01*
X0387539Y0351453D02*
X0387539Y0352240D01*
X0385964Y0354996D02*
X0384389Y0354996D01*
X0384783Y0356965D02*
X0385176Y0356965D01*
X0385176Y0360902D01*
X0384783Y0360902D01*
X0385176Y0360902D02*
X0385570Y0360902D01*
X0385964Y0362870D02*
X0384389Y0362870D01*
X0387539Y0365626D02*
X0387539Y0366413D01*
X0385964Y0369169D02*
X0384389Y0369169D01*
X0384783Y0371138D02*
X0385176Y0371138D01*
X0385176Y0375075D01*
X0384783Y0375075D01*
X0385176Y0375075D02*
X0385570Y0375075D01*
X0385570Y0371138D02*
X0385176Y0371138D01*
X0385176Y0356965D02*
X0385570Y0356965D01*
X0365885Y0354209D02*
X0365885Y0353618D01*
X0365885Y0354209D02*
X0363326Y0354209D01*
X0360176Y0354209D02*
X0357420Y0354209D01*
X0358405Y0356571D02*
X0358798Y0356571D01*
X0358798Y0360508D01*
X0358405Y0360508D01*
X0358798Y0360508D02*
X0359192Y0360508D01*
X0359192Y0356571D02*
X0358798Y0356571D01*
X0354271Y0354209D02*
X0351712Y0354209D01*
X0351712Y0353618D01*
X0342657Y0354209D02*
X0342263Y0354209D01*
X0342263Y0350272D01*
X0342657Y0350272D01*
X0342263Y0350272D02*
X0341869Y0350272D01*
X0341869Y0349484D02*
X0342263Y0349484D01*
X0342263Y0345547D01*
X0342657Y0345547D01*
X0342263Y0345547D02*
X0341869Y0345547D01*
X0341869Y0344760D02*
X0342263Y0344760D01*
X0342263Y0340823D01*
X0342657Y0340823D01*
X0342263Y0340823D02*
X0341869Y0340823D01*
X0341869Y0340035D02*
X0342263Y0340035D01*
X0342263Y0336098D01*
X0342657Y0336098D01*
X0342263Y0336098D02*
X0341869Y0336098D01*
X0341869Y0335311D02*
X0342263Y0335311D01*
X0342263Y0331374D01*
X0342657Y0331374D01*
X0342263Y0331374D02*
X0341869Y0331374D01*
X0342263Y0335311D02*
X0342657Y0335311D01*
X0342657Y0340035D02*
X0342263Y0340035D01*
X0342263Y0344760D02*
X0342657Y0344760D01*
X0342657Y0349484D02*
X0342263Y0349484D01*
X0342263Y0354209D02*
X0341869Y0354209D01*
X0341869Y0354996D02*
X0342263Y0354996D01*
X0342263Y0358933D01*
X0342657Y0358933D01*
X0342263Y0358933D02*
X0341869Y0358933D01*
X0342263Y0354996D02*
X0342657Y0354996D01*
X0344625Y0365232D02*
X0344625Y0369957D01*
X0344625Y0375469D02*
X0343838Y0375469D01*
X0339901Y0377437D02*
X0339901Y0379012D01*
X0343838Y0380980D02*
X0344625Y0380980D01*
X0348562Y0379012D02*
X0348562Y0377437D01*
X0349152Y0381965D02*
X0349154Y0382004D01*
X0349160Y0382043D01*
X0349170Y0382081D01*
X0349183Y0382118D01*
X0349200Y0382153D01*
X0349220Y0382187D01*
X0349244Y0382218D01*
X0349271Y0382247D01*
X0349300Y0382273D01*
X0349332Y0382296D01*
X0349366Y0382316D01*
X0349402Y0382332D01*
X0349439Y0382344D01*
X0349478Y0382353D01*
X0349517Y0382358D01*
X0349556Y0382359D01*
X0349595Y0382356D01*
X0349634Y0382349D01*
X0349671Y0382338D01*
X0349708Y0382324D01*
X0349743Y0382306D01*
X0349776Y0382285D01*
X0349807Y0382260D01*
X0349835Y0382233D01*
X0349860Y0382203D01*
X0349882Y0382170D01*
X0349901Y0382136D01*
X0349916Y0382100D01*
X0349928Y0382062D01*
X0349936Y0382024D01*
X0349940Y0381985D01*
X0349940Y0381945D01*
X0349936Y0381906D01*
X0349928Y0381868D01*
X0349916Y0381830D01*
X0349901Y0381794D01*
X0349882Y0381760D01*
X0349860Y0381727D01*
X0349835Y0381697D01*
X0349807Y0381670D01*
X0349776Y0381645D01*
X0349743Y0381624D01*
X0349708Y0381606D01*
X0349671Y0381592D01*
X0349634Y0381581D01*
X0349595Y0381574D01*
X0349556Y0381571D01*
X0349517Y0381572D01*
X0349478Y0381577D01*
X0349439Y0381586D01*
X0349402Y0381598D01*
X0349366Y0381614D01*
X0349332Y0381634D01*
X0349300Y0381657D01*
X0349271Y0381683D01*
X0349244Y0381712D01*
X0349220Y0381743D01*
X0349200Y0381777D01*
X0349183Y0381812D01*
X0349170Y0381849D01*
X0349160Y0381887D01*
X0349154Y0381926D01*
X0349152Y0381965D01*
X0344625Y0386098D02*
X0344625Y0390823D01*
X0319901Y0383345D02*
X0316751Y0380195D01*
X0316751Y0383345D01*
X0319901Y0383345D01*
X0319676Y0383120D02*
X0316751Y0383120D01*
X0316751Y0382334D02*
X0318890Y0382334D01*
X0318104Y0381548D02*
X0316751Y0381548D01*
X0316751Y0380762D02*
X0317318Y0380762D01*
X0351712Y0336689D02*
X0351712Y0336098D01*
X0354271Y0336098D01*
X0357420Y0336098D02*
X0360176Y0336098D01*
X0363326Y0336098D02*
X0365885Y0336098D01*
X0365885Y0336689D01*
X0407224Y0351453D02*
X0422184Y0351453D01*
X0422184Y0370350D02*
X0417066Y0370350D01*
X0417064Y0370254D01*
X0417058Y0370157D01*
X0417048Y0370062D01*
X0417035Y0369966D01*
X0417017Y0369871D01*
X0416996Y0369778D01*
X0416970Y0369685D01*
X0416941Y0369593D01*
X0416909Y0369502D01*
X0416872Y0369413D01*
X0416832Y0369325D01*
X0416789Y0369239D01*
X0416741Y0369155D01*
X0416691Y0369073D01*
X0416637Y0368993D01*
X0416580Y0368915D01*
X0416520Y0368840D01*
X0416457Y0368767D01*
X0416391Y0368697D01*
X0416322Y0368629D01*
X0416251Y0368565D01*
X0416177Y0368503D01*
X0416100Y0368445D01*
X0416021Y0368389D01*
X0415940Y0368337D01*
X0415857Y0368289D01*
X0415772Y0368243D01*
X0415685Y0368201D01*
X0415597Y0368163D01*
X0415507Y0368129D01*
X0415416Y0368098D01*
X0415323Y0368071D01*
X0415230Y0368047D01*
X0415135Y0368028D01*
X0415040Y0368012D01*
X0414945Y0368000D01*
X0414848Y0367992D01*
X0414752Y0367988D01*
X0414656Y0367988D01*
X0414560Y0367992D01*
X0414463Y0368000D01*
X0414368Y0368012D01*
X0414273Y0368028D01*
X0414178Y0368047D01*
X0414085Y0368071D01*
X0413992Y0368098D01*
X0413901Y0368129D01*
X0413811Y0368163D01*
X0413723Y0368201D01*
X0413636Y0368243D01*
X0413551Y0368289D01*
X0413468Y0368337D01*
X0413387Y0368389D01*
X0413308Y0368445D01*
X0413231Y0368503D01*
X0413157Y0368565D01*
X0413086Y0368629D01*
X0413017Y0368697D01*
X0412951Y0368767D01*
X0412888Y0368840D01*
X0412828Y0368915D01*
X0412771Y0368993D01*
X0412717Y0369073D01*
X0412667Y0369155D01*
X0412619Y0369239D01*
X0412576Y0369325D01*
X0412536Y0369413D01*
X0412499Y0369502D01*
X0412467Y0369593D01*
X0412438Y0369685D01*
X0412412Y0369778D01*
X0412391Y0369871D01*
X0412373Y0369966D01*
X0412360Y0370062D01*
X0412350Y0370157D01*
X0412344Y0370254D01*
X0412342Y0370350D01*
X0407224Y0370350D01*
X0422972Y0371925D02*
X0423365Y0371925D01*
X0423365Y0375862D01*
X0422972Y0375862D01*
X0423365Y0375862D02*
X0423759Y0375862D01*
X0423759Y0371925D02*
X0423365Y0371925D01*
X0456751Y0380193D02*
X0456751Y0383343D01*
X0459901Y0383343D01*
X0456751Y0380193D01*
X0456751Y0380762D02*
X0457320Y0380762D01*
X0456751Y0381548D02*
X0458106Y0381548D01*
X0458892Y0382334D02*
X0456751Y0382334D01*
X0456751Y0383120D02*
X0459678Y0383120D01*
X0361948Y0296728D02*
X0361948Y0287280D01*
X0337932Y0287280D01*
X0337932Y0296728D01*
X0361948Y0296728D01*
X0255176Y0383343D02*
X0252027Y0383343D01*
X0252027Y0380193D01*
X0255176Y0383343D01*
X0254954Y0383120D02*
X0252027Y0383120D01*
X0252027Y0382334D02*
X0254168Y0382334D01*
X0253382Y0381548D02*
X0252027Y0381548D01*
X0252027Y0380762D02*
X0252596Y0380762D01*
X0115176Y0206180D02*
X0112027Y0206180D01*
X0112027Y0203030D01*
X0115176Y0206180D01*
X0114500Y0205504D02*
X0112027Y0205504D01*
X0112027Y0204718D02*
X0113715Y0204718D01*
X0112929Y0203932D02*
X0112027Y0203932D01*
X0112027Y0203146D02*
X0112143Y0203146D01*
X0133208Y0119563D02*
X0133208Y0110114D01*
X0157224Y0110114D01*
X0157224Y0119563D01*
X0133208Y0119563D01*
X0158798Y0119563D02*
X0158798Y0101846D01*
X0213917Y0101846D01*
X0213917Y0119563D01*
X0158798Y0119563D01*
X0219697Y0110762D02*
X0219793Y0110878D01*
X0221987Y0111301D01*
X0222074Y0111372D01*
X0222836Y0113210D01*
X0222824Y0113322D01*
X0221572Y0115173D01*
X0221586Y0115322D01*
X0223168Y0116904D01*
X0223317Y0116918D01*
X0225168Y0115666D01*
X0225280Y0115655D01*
X0227118Y0116416D01*
X0227189Y0116503D01*
X0227612Y0118697D01*
X0227728Y0118793D01*
X0229964Y0118793D01*
X0230080Y0118697D01*
X0230504Y0116503D01*
X0230575Y0116416D01*
X0232413Y0115655D01*
X0232524Y0115666D01*
X0234375Y0116918D01*
X0234525Y0116904D01*
X0236106Y0115322D01*
X0236120Y0115173D01*
X0234868Y0113322D01*
X0234857Y0113210D01*
X0235618Y0111372D01*
X0235705Y0111301D01*
X0237899Y0110878D01*
X0237995Y0110762D01*
X0237995Y0108526D01*
X0237899Y0108410D01*
X0235705Y0107986D01*
X0235618Y0107915D01*
X0234857Y0106077D01*
X0234868Y0105966D01*
X0236120Y0104115D01*
X0236106Y0103965D01*
X0234525Y0102384D01*
X0234375Y0102370D01*
X0232524Y0103622D01*
X0232413Y0103633D01*
X0231571Y0103285D01*
X0231416Y0103349D01*
X0229867Y0107144D01*
X0230255Y0106965D02*
X0232027Y0109130D01*
X0231239Y0111689D01*
X0228877Y0112870D01*
X0226121Y0111492D01*
X0225924Y0108933D01*
X0227499Y0106965D01*
X0225924Y0103618D01*
X0225137Y0104209D01*
X0223365Y0102634D01*
X0222184Y0104012D01*
X0223169Y0105980D01*
X0222184Y0108343D01*
X0220019Y0108736D01*
X0220019Y0110508D01*
X0222381Y0111098D01*
X0223169Y0113264D01*
X0221987Y0114839D01*
X0223365Y0116413D01*
X0225137Y0115232D01*
X0227499Y0116217D01*
X0227893Y0118382D01*
X0229861Y0118382D01*
X0230255Y0116020D01*
X0232617Y0115232D01*
X0234389Y0116413D01*
X0235570Y0115232D01*
X0234389Y0113264D01*
X0235373Y0111098D01*
X0237539Y0110508D01*
X0237539Y0108736D01*
X0235373Y0108343D01*
X0234389Y0105980D01*
X0235570Y0104012D01*
X0234389Y0102831D01*
X0232617Y0104012D01*
X0231633Y0103815D01*
X0230255Y0106965D01*
X0230500Y0107264D02*
X0234924Y0107264D01*
X0234597Y0106479D02*
X0230468Y0106479D01*
X0230812Y0105693D02*
X0234562Y0105693D01*
X0235033Y0104907D02*
X0231155Y0104907D01*
X0231499Y0104121D02*
X0235505Y0104121D01*
X0234893Y0103335D02*
X0233633Y0103335D01*
X0235252Y0108050D02*
X0231144Y0108050D01*
X0231787Y0108836D02*
X0237539Y0108836D01*
X0237539Y0109622D02*
X0231875Y0109622D01*
X0231633Y0110408D02*
X0237539Y0110408D01*
X0235330Y0111194D02*
X0231392Y0111194D01*
X0230657Y0111980D02*
X0234973Y0111980D01*
X0234615Y0112766D02*
X0229086Y0112766D01*
X0228669Y0112766D02*
X0222987Y0112766D01*
X0222953Y0113552D02*
X0234562Y0113552D01*
X0235033Y0114338D02*
X0222363Y0114338D01*
X0222237Y0115124D02*
X0235505Y0115124D01*
X0234893Y0115910D02*
X0233633Y0115910D01*
X0230586Y0115910D02*
X0226762Y0115910D01*
X0227586Y0116695D02*
X0230142Y0116695D01*
X0230012Y0117481D02*
X0227729Y0117481D01*
X0227872Y0118267D02*
X0229881Y0118267D01*
X0224121Y0115910D02*
X0222924Y0115910D01*
X0222702Y0111980D02*
X0227097Y0111980D01*
X0226098Y0111194D02*
X0222416Y0111194D01*
X0220019Y0110408D02*
X0226038Y0110408D01*
X0225977Y0109622D02*
X0220019Y0109622D01*
X0220019Y0108836D02*
X0226002Y0108836D01*
X0226631Y0108050D02*
X0222306Y0108050D01*
X0222074Y0107915D02*
X0221987Y0107986D01*
X0219793Y0108410D01*
X0219697Y0108526D01*
X0219697Y0110762D01*
X0222074Y0107915D02*
X0222836Y0106077D01*
X0222824Y0105966D01*
X0221572Y0104115D01*
X0221586Y0103965D01*
X0223168Y0102384D01*
X0223317Y0102370D01*
X0225168Y0103622D01*
X0225280Y0103633D01*
X0226121Y0103285D01*
X0226276Y0103349D01*
X0227825Y0107144D01*
X0227259Y0107264D02*
X0222633Y0107264D01*
X0222961Y0106479D02*
X0227271Y0106479D01*
X0226901Y0105693D02*
X0223025Y0105693D01*
X0222632Y0104907D02*
X0226531Y0104907D01*
X0226161Y0104121D02*
X0225254Y0104121D01*
X0225038Y0104121D02*
X0222239Y0104121D01*
X0222764Y0103335D02*
X0224154Y0103335D01*
X0227696Y0107358D02*
X0227606Y0107405D01*
X0227518Y0107456D01*
X0227431Y0107510D01*
X0227347Y0107567D01*
X0227265Y0107628D01*
X0227186Y0107691D01*
X0227109Y0107758D01*
X0227035Y0107827D01*
X0226963Y0107900D01*
X0226895Y0107975D01*
X0226829Y0108053D01*
X0226766Y0108133D01*
X0226707Y0108215D01*
X0226650Y0108300D01*
X0226597Y0108387D01*
X0226548Y0108476D01*
X0226501Y0108566D01*
X0226459Y0108659D01*
X0226420Y0108753D01*
X0226384Y0108848D01*
X0226352Y0108945D01*
X0226324Y0109042D01*
X0226300Y0109141D01*
X0226280Y0109241D01*
X0226263Y0109341D01*
X0226251Y0109442D01*
X0226242Y0109544D01*
X0226237Y0109645D01*
X0226236Y0109747D01*
X0226239Y0109849D01*
X0226246Y0109950D01*
X0226257Y0110052D01*
X0226272Y0110152D01*
X0226290Y0110252D01*
X0226313Y0110352D01*
X0226339Y0110450D01*
X0226369Y0110547D01*
X0226403Y0110643D01*
X0226440Y0110738D01*
X0226481Y0110831D01*
X0226526Y0110922D01*
X0226574Y0111012D01*
X0226625Y0111100D01*
X0226680Y0111185D01*
X0226738Y0111269D01*
X0226799Y0111350D01*
X0226864Y0111429D01*
X0226931Y0111505D01*
X0227001Y0111579D01*
X0227074Y0111650D01*
X0227150Y0111718D01*
X0227228Y0111783D01*
X0227309Y0111845D01*
X0227392Y0111904D01*
X0227477Y0111959D01*
X0227564Y0112012D01*
X0227654Y0112061D01*
X0227745Y0112106D01*
X0227837Y0112148D01*
X0227932Y0112186D01*
X0228027Y0112221D01*
X0228124Y0112251D01*
X0228222Y0112279D01*
X0228321Y0112302D01*
X0228421Y0112321D01*
X0228522Y0112337D01*
X0228623Y0112349D01*
X0228724Y0112357D01*
X0228826Y0112361D01*
X0228928Y0112361D01*
X0229030Y0112357D01*
X0229131Y0112349D01*
X0229232Y0112337D01*
X0229333Y0112321D01*
X0229433Y0112302D01*
X0229532Y0112279D01*
X0229630Y0112251D01*
X0229727Y0112221D01*
X0229822Y0112186D01*
X0229917Y0112148D01*
X0230009Y0112106D01*
X0230100Y0112061D01*
X0230190Y0112012D01*
X0230277Y0111959D01*
X0230362Y0111904D01*
X0230445Y0111845D01*
X0230526Y0111783D01*
X0230604Y0111718D01*
X0230680Y0111650D01*
X0230753Y0111579D01*
X0230823Y0111505D01*
X0230890Y0111429D01*
X0230955Y0111350D01*
X0231016Y0111269D01*
X0231074Y0111185D01*
X0231129Y0111100D01*
X0231180Y0111012D01*
X0231228Y0110922D01*
X0231273Y0110831D01*
X0231314Y0110738D01*
X0231351Y0110643D01*
X0231385Y0110547D01*
X0231415Y0110450D01*
X0231441Y0110352D01*
X0231464Y0110252D01*
X0231482Y0110152D01*
X0231497Y0110052D01*
X0231508Y0109950D01*
X0231515Y0109849D01*
X0231518Y0109747D01*
X0231517Y0109645D01*
X0231512Y0109544D01*
X0231503Y0109442D01*
X0231491Y0109341D01*
X0231474Y0109241D01*
X0231454Y0109141D01*
X0231430Y0109042D01*
X0231402Y0108945D01*
X0231370Y0108848D01*
X0231334Y0108753D01*
X0231295Y0108659D01*
X0231253Y0108566D01*
X0231206Y0108476D01*
X0231157Y0108387D01*
X0231104Y0108300D01*
X0231047Y0108215D01*
X0230988Y0108133D01*
X0230925Y0108053D01*
X0230859Y0107975D01*
X0230791Y0107900D01*
X0230719Y0107827D01*
X0230645Y0107758D01*
X0230568Y0107691D01*
X0230489Y0107628D01*
X0230407Y0107567D01*
X0230323Y0107510D01*
X0230236Y0107456D01*
X0230148Y0107405D01*
X0230058Y0107358D01*
D12*
X0178090Y0178618D02*
X0177302Y0178618D01*
X0177302Y0192791D02*
X0178090Y0192791D01*
X0196594Y0194366D02*
X0201712Y0194366D01*
X0178090Y0355783D02*
X0177302Y0355783D01*
X0177302Y0369957D02*
X0178090Y0369957D01*
X0196594Y0371531D02*
X0201712Y0371531D01*
X0382027Y0369957D02*
X0382814Y0369957D01*
X0382814Y0355783D02*
X0382027Y0355783D01*
X0401318Y0371531D02*
X0406436Y0371531D01*
X0406436Y0194366D02*
X0401318Y0194366D01*
X0382814Y0192791D02*
X0382027Y0192791D01*
X0382027Y0178618D02*
X0382814Y0178618D01*
D13*
X0352106Y0179012D02*
X0352108Y0179068D01*
X0352114Y0179123D01*
X0352124Y0179177D01*
X0352137Y0179231D01*
X0352155Y0179284D01*
X0352176Y0179335D01*
X0352200Y0179385D01*
X0352228Y0179433D01*
X0352260Y0179479D01*
X0352294Y0179523D01*
X0352332Y0179564D01*
X0352372Y0179602D01*
X0352415Y0179637D01*
X0352460Y0179669D01*
X0352508Y0179698D01*
X0352557Y0179724D01*
X0352608Y0179746D01*
X0352660Y0179764D01*
X0352714Y0179778D01*
X0352769Y0179789D01*
X0352824Y0179796D01*
X0352879Y0179799D01*
X0352935Y0179798D01*
X0352990Y0179793D01*
X0353045Y0179784D01*
X0353099Y0179772D01*
X0353152Y0179755D01*
X0353204Y0179735D01*
X0353254Y0179711D01*
X0353302Y0179684D01*
X0353349Y0179654D01*
X0353393Y0179620D01*
X0353435Y0179583D01*
X0353473Y0179543D01*
X0353510Y0179501D01*
X0353543Y0179456D01*
X0353572Y0179410D01*
X0353599Y0179361D01*
X0353621Y0179310D01*
X0353641Y0179258D01*
X0353656Y0179204D01*
X0353668Y0179150D01*
X0353676Y0179095D01*
X0353680Y0179040D01*
X0353680Y0178984D01*
X0353676Y0178929D01*
X0353668Y0178874D01*
X0353656Y0178820D01*
X0353641Y0178766D01*
X0353621Y0178714D01*
X0353599Y0178663D01*
X0353572Y0178614D01*
X0353543Y0178568D01*
X0353510Y0178523D01*
X0353473Y0178481D01*
X0353435Y0178441D01*
X0353393Y0178404D01*
X0353349Y0178370D01*
X0353302Y0178340D01*
X0353254Y0178313D01*
X0353204Y0178289D01*
X0353152Y0178269D01*
X0353099Y0178252D01*
X0353045Y0178240D01*
X0352990Y0178231D01*
X0352935Y0178226D01*
X0352879Y0178225D01*
X0352824Y0178228D01*
X0352769Y0178235D01*
X0352714Y0178246D01*
X0352660Y0178260D01*
X0352608Y0178278D01*
X0352557Y0178300D01*
X0352508Y0178326D01*
X0352460Y0178355D01*
X0352415Y0178387D01*
X0352372Y0178422D01*
X0352332Y0178460D01*
X0352294Y0178501D01*
X0352260Y0178545D01*
X0352228Y0178591D01*
X0352200Y0178639D01*
X0352176Y0178689D01*
X0352155Y0178740D01*
X0352137Y0178793D01*
X0352124Y0178847D01*
X0352114Y0178901D01*
X0352108Y0178956D01*
X0352106Y0179012D01*
X0352106Y0356177D02*
X0352108Y0356233D01*
X0352114Y0356288D01*
X0352124Y0356342D01*
X0352137Y0356396D01*
X0352155Y0356449D01*
X0352176Y0356500D01*
X0352200Y0356550D01*
X0352228Y0356598D01*
X0352260Y0356644D01*
X0352294Y0356688D01*
X0352332Y0356729D01*
X0352372Y0356767D01*
X0352415Y0356802D01*
X0352460Y0356834D01*
X0352508Y0356863D01*
X0352557Y0356889D01*
X0352608Y0356911D01*
X0352660Y0356929D01*
X0352714Y0356943D01*
X0352769Y0356954D01*
X0352824Y0356961D01*
X0352879Y0356964D01*
X0352935Y0356963D01*
X0352990Y0356958D01*
X0353045Y0356949D01*
X0353099Y0356937D01*
X0353152Y0356920D01*
X0353204Y0356900D01*
X0353254Y0356876D01*
X0353302Y0356849D01*
X0353349Y0356819D01*
X0353393Y0356785D01*
X0353435Y0356748D01*
X0353473Y0356708D01*
X0353510Y0356666D01*
X0353543Y0356621D01*
X0353572Y0356575D01*
X0353599Y0356526D01*
X0353621Y0356475D01*
X0353641Y0356423D01*
X0353656Y0356369D01*
X0353668Y0356315D01*
X0353676Y0356260D01*
X0353680Y0356205D01*
X0353680Y0356149D01*
X0353676Y0356094D01*
X0353668Y0356039D01*
X0353656Y0355985D01*
X0353641Y0355931D01*
X0353621Y0355879D01*
X0353599Y0355828D01*
X0353572Y0355779D01*
X0353543Y0355733D01*
X0353510Y0355688D01*
X0353473Y0355646D01*
X0353435Y0355606D01*
X0353393Y0355569D01*
X0353349Y0355535D01*
X0353302Y0355505D01*
X0353254Y0355478D01*
X0353204Y0355454D01*
X0353152Y0355434D01*
X0353099Y0355417D01*
X0353045Y0355405D01*
X0352990Y0355396D01*
X0352935Y0355391D01*
X0352879Y0355390D01*
X0352824Y0355393D01*
X0352769Y0355400D01*
X0352714Y0355411D01*
X0352660Y0355425D01*
X0352608Y0355443D01*
X0352557Y0355465D01*
X0352508Y0355491D01*
X0352460Y0355520D01*
X0352415Y0355552D01*
X0352372Y0355587D01*
X0352332Y0355625D01*
X0352294Y0355666D01*
X0352260Y0355710D01*
X0352228Y0355756D01*
X0352200Y0355804D01*
X0352176Y0355854D01*
X0352155Y0355905D01*
X0352137Y0355958D01*
X0352124Y0356012D01*
X0352114Y0356066D01*
X0352108Y0356121D01*
X0352106Y0356177D01*
X0147382Y0356177D02*
X0147384Y0356233D01*
X0147390Y0356288D01*
X0147400Y0356342D01*
X0147413Y0356396D01*
X0147431Y0356449D01*
X0147452Y0356500D01*
X0147476Y0356550D01*
X0147504Y0356598D01*
X0147536Y0356644D01*
X0147570Y0356688D01*
X0147608Y0356729D01*
X0147648Y0356767D01*
X0147691Y0356802D01*
X0147736Y0356834D01*
X0147784Y0356863D01*
X0147833Y0356889D01*
X0147884Y0356911D01*
X0147936Y0356929D01*
X0147990Y0356943D01*
X0148045Y0356954D01*
X0148100Y0356961D01*
X0148155Y0356964D01*
X0148211Y0356963D01*
X0148266Y0356958D01*
X0148321Y0356949D01*
X0148375Y0356937D01*
X0148428Y0356920D01*
X0148480Y0356900D01*
X0148530Y0356876D01*
X0148578Y0356849D01*
X0148625Y0356819D01*
X0148669Y0356785D01*
X0148711Y0356748D01*
X0148749Y0356708D01*
X0148786Y0356666D01*
X0148819Y0356621D01*
X0148848Y0356575D01*
X0148875Y0356526D01*
X0148897Y0356475D01*
X0148917Y0356423D01*
X0148932Y0356369D01*
X0148944Y0356315D01*
X0148952Y0356260D01*
X0148956Y0356205D01*
X0148956Y0356149D01*
X0148952Y0356094D01*
X0148944Y0356039D01*
X0148932Y0355985D01*
X0148917Y0355931D01*
X0148897Y0355879D01*
X0148875Y0355828D01*
X0148848Y0355779D01*
X0148819Y0355733D01*
X0148786Y0355688D01*
X0148749Y0355646D01*
X0148711Y0355606D01*
X0148669Y0355569D01*
X0148625Y0355535D01*
X0148578Y0355505D01*
X0148530Y0355478D01*
X0148480Y0355454D01*
X0148428Y0355434D01*
X0148375Y0355417D01*
X0148321Y0355405D01*
X0148266Y0355396D01*
X0148211Y0355391D01*
X0148155Y0355390D01*
X0148100Y0355393D01*
X0148045Y0355400D01*
X0147990Y0355411D01*
X0147936Y0355425D01*
X0147884Y0355443D01*
X0147833Y0355465D01*
X0147784Y0355491D01*
X0147736Y0355520D01*
X0147691Y0355552D01*
X0147648Y0355587D01*
X0147608Y0355625D01*
X0147570Y0355666D01*
X0147536Y0355710D01*
X0147504Y0355756D01*
X0147476Y0355804D01*
X0147452Y0355854D01*
X0147431Y0355905D01*
X0147413Y0355958D01*
X0147400Y0356012D01*
X0147390Y0356066D01*
X0147384Y0356121D01*
X0147382Y0356177D01*
X0147382Y0179012D02*
X0147384Y0179068D01*
X0147390Y0179123D01*
X0147400Y0179177D01*
X0147413Y0179231D01*
X0147431Y0179284D01*
X0147452Y0179335D01*
X0147476Y0179385D01*
X0147504Y0179433D01*
X0147536Y0179479D01*
X0147570Y0179523D01*
X0147608Y0179564D01*
X0147648Y0179602D01*
X0147691Y0179637D01*
X0147736Y0179669D01*
X0147784Y0179698D01*
X0147833Y0179724D01*
X0147884Y0179746D01*
X0147936Y0179764D01*
X0147990Y0179778D01*
X0148045Y0179789D01*
X0148100Y0179796D01*
X0148155Y0179799D01*
X0148211Y0179798D01*
X0148266Y0179793D01*
X0148321Y0179784D01*
X0148375Y0179772D01*
X0148428Y0179755D01*
X0148480Y0179735D01*
X0148530Y0179711D01*
X0148578Y0179684D01*
X0148625Y0179654D01*
X0148669Y0179620D01*
X0148711Y0179583D01*
X0148749Y0179543D01*
X0148786Y0179501D01*
X0148819Y0179456D01*
X0148848Y0179410D01*
X0148875Y0179361D01*
X0148897Y0179310D01*
X0148917Y0179258D01*
X0148932Y0179204D01*
X0148944Y0179150D01*
X0148952Y0179095D01*
X0148956Y0179040D01*
X0148956Y0178984D01*
X0148952Y0178929D01*
X0148944Y0178874D01*
X0148932Y0178820D01*
X0148917Y0178766D01*
X0148897Y0178714D01*
X0148875Y0178663D01*
X0148848Y0178614D01*
X0148819Y0178568D01*
X0148786Y0178523D01*
X0148749Y0178481D01*
X0148711Y0178441D01*
X0148669Y0178404D01*
X0148625Y0178370D01*
X0148578Y0178340D01*
X0148530Y0178313D01*
X0148480Y0178289D01*
X0148428Y0178269D01*
X0148375Y0178252D01*
X0148321Y0178240D01*
X0148266Y0178231D01*
X0148211Y0178226D01*
X0148155Y0178225D01*
X0148100Y0178228D01*
X0148045Y0178235D01*
X0147990Y0178246D01*
X0147936Y0178260D01*
X0147884Y0178278D01*
X0147833Y0178300D01*
X0147784Y0178326D01*
X0147736Y0178355D01*
X0147691Y0178387D01*
X0147648Y0178422D01*
X0147608Y0178460D01*
X0147570Y0178501D01*
X0147536Y0178545D01*
X0147504Y0178591D01*
X0147476Y0178639D01*
X0147452Y0178689D01*
X0147431Y0178740D01*
X0147413Y0178793D01*
X0147400Y0178847D01*
X0147390Y0178901D01*
X0147384Y0178956D01*
X0147382Y0179012D01*
D14*
X0148169Y0179012D03*
X0148169Y0356177D03*
X0352893Y0356177D03*
X0352893Y0179012D03*
M02*
