G75*
%MOIN*%
%OFA0B0*%
%FSLAX25Y25*%
%IPPOS*%
%LPD*%
%AMOC8*
5,1,8,0,0,1.08239X$1,22.5*
%
%ADD10C,0.00787*%
%ADD11C,0.01575*%
%ADD12R,0.05118X0.06693*%
%ADD13C,0.01969*%
%ADD14C,0.01181*%
%ADD15R,0.06299X0.10236*%
%ADD16R,0.02362X0.02362*%
%ADD17R,0.01181X0.01181*%
D10*
X0138129Y0146138D02*
X0138129Y0150075D01*
X0140098Y0150075D02*
X0140098Y0146138D01*
X0142066Y0146138D02*
X0142066Y0150075D01*
X0144035Y0150075D02*
X0144035Y0146138D01*
X0146003Y0146138D02*
X0146003Y0150075D01*
X0147972Y0150075D02*
X0147972Y0146138D01*
X0149940Y0146138D02*
X0149940Y0150075D01*
X0151909Y0150075D02*
X0151909Y0146138D01*
X0153877Y0146138D02*
X0153877Y0150075D01*
X0155846Y0150075D02*
X0155846Y0146138D01*
X0144231Y0166020D02*
X0143444Y0166020D01*
X0143444Y0169957D02*
X0144231Y0169957D01*
X0138720Y0169957D02*
X0137932Y0169957D01*
X0137932Y0167988D02*
X0138720Y0167988D01*
X0138720Y0166020D02*
X0137932Y0166020D01*
X0126909Y0162870D02*
X0126909Y0173106D01*
X0120609Y0173106D01*
X0120609Y0162870D01*
X0126909Y0162870D01*
X0137932Y0180193D02*
X0138720Y0180193D01*
X0138720Y0182161D02*
X0137932Y0182161D01*
X0137932Y0184130D02*
X0138720Y0184130D01*
X0143444Y0184130D02*
X0144231Y0184130D01*
X0144231Y0180193D02*
X0143444Y0180193D01*
X0254468Y0173106D02*
X0254468Y0162870D01*
X0260767Y0162870D01*
X0260767Y0173106D01*
X0254468Y0173106D01*
X0271791Y0169957D02*
X0272578Y0169957D01*
X0272578Y0167988D02*
X0271791Y0167988D01*
X0271791Y0166020D02*
X0272578Y0166020D01*
X0277302Y0166020D02*
X0278090Y0166020D01*
X0278090Y0169957D02*
X0277302Y0169957D01*
X0277302Y0180193D02*
X0278090Y0180193D01*
X0278090Y0184130D02*
X0277302Y0184130D01*
X0272578Y0184130D02*
X0271791Y0184130D01*
X0271791Y0182161D02*
X0272578Y0182161D01*
X0272578Y0180193D02*
X0271791Y0180193D01*
X0271987Y0150075D02*
X0271987Y0146138D01*
X0273956Y0146138D02*
X0273956Y0150075D01*
X0275924Y0150075D02*
X0275924Y0146138D01*
X0277893Y0146138D02*
X0277893Y0150075D01*
X0279861Y0150075D02*
X0279861Y0146138D01*
X0281830Y0146138D02*
X0281830Y0150075D01*
X0283798Y0150075D02*
X0283798Y0146138D01*
X0285767Y0146138D02*
X0285767Y0150075D01*
X0287735Y0150075D02*
X0287735Y0146138D01*
X0289704Y0146138D02*
X0289704Y0150075D01*
X0388326Y0162870D02*
X0388326Y0173106D01*
X0394625Y0173106D01*
X0394625Y0162870D01*
X0388326Y0162870D01*
X0405649Y0166020D02*
X0406436Y0166020D01*
X0406436Y0167988D02*
X0405649Y0167988D01*
X0405649Y0169957D02*
X0406436Y0169957D01*
X0411161Y0169957D02*
X0411948Y0169957D01*
X0411948Y0166020D02*
X0411161Y0166020D01*
X0411161Y0180193D02*
X0411948Y0180193D01*
X0411948Y0184130D02*
X0411161Y0184130D01*
X0406436Y0184130D02*
X0405649Y0184130D01*
X0405649Y0182161D02*
X0406436Y0182161D01*
X0406436Y0180193D02*
X0405649Y0180193D01*
X0405846Y0150075D02*
X0405846Y0146138D01*
X0407814Y0146138D02*
X0407814Y0150075D01*
X0409783Y0150075D02*
X0409783Y0146138D01*
X0411751Y0146138D02*
X0411751Y0150075D01*
X0413720Y0150075D02*
X0413720Y0146138D01*
X0415688Y0146138D02*
X0415688Y0150075D01*
X0417657Y0150075D02*
X0417657Y0146138D01*
X0419625Y0146138D02*
X0419625Y0150075D01*
X0421594Y0150075D02*
X0421594Y0146138D01*
X0423562Y0146138D02*
X0423562Y0150075D01*
X0423562Y0323303D02*
X0423562Y0327240D01*
X0421594Y0327240D02*
X0421594Y0323303D01*
X0419625Y0323303D02*
X0419625Y0327240D01*
X0417657Y0327240D02*
X0417657Y0323303D01*
X0415688Y0323303D02*
X0415688Y0327240D01*
X0413720Y0327240D02*
X0413720Y0323303D01*
X0411751Y0323303D02*
X0411751Y0327240D01*
X0409783Y0327240D02*
X0409783Y0323303D01*
X0407814Y0323303D02*
X0407814Y0327240D01*
X0405846Y0327240D02*
X0405846Y0323303D01*
X0405649Y0343185D02*
X0406436Y0343185D01*
X0406436Y0345154D02*
X0405649Y0345154D01*
X0405649Y0347122D02*
X0406436Y0347122D01*
X0411161Y0347122D02*
X0411948Y0347122D01*
X0411948Y0343185D02*
X0411161Y0343185D01*
X0411161Y0357358D02*
X0411948Y0357358D01*
X0411948Y0361295D02*
X0411161Y0361295D01*
X0406436Y0361295D02*
X0405649Y0361295D01*
X0405649Y0359327D02*
X0406436Y0359327D01*
X0406436Y0357358D02*
X0405649Y0357358D01*
X0394625Y0350272D02*
X0388326Y0350272D01*
X0388326Y0340035D01*
X0394625Y0340035D01*
X0394625Y0350272D01*
X0289704Y0327240D02*
X0289704Y0323303D01*
X0287735Y0323303D02*
X0287735Y0327240D01*
X0285767Y0327240D02*
X0285767Y0323303D01*
X0283798Y0323303D02*
X0283798Y0327240D01*
X0281830Y0327240D02*
X0281830Y0323303D01*
X0279861Y0323303D02*
X0279861Y0327240D01*
X0277893Y0327240D02*
X0277893Y0323303D01*
X0275924Y0323303D02*
X0275924Y0327240D01*
X0273956Y0327240D02*
X0273956Y0323303D01*
X0271987Y0323303D02*
X0271987Y0327240D01*
X0271791Y0343185D02*
X0272578Y0343185D01*
X0272578Y0345154D02*
X0271791Y0345154D01*
X0271791Y0347122D02*
X0272578Y0347122D01*
X0277302Y0347122D02*
X0278090Y0347122D01*
X0278090Y0343185D02*
X0277302Y0343185D01*
X0277302Y0357358D02*
X0278090Y0357358D01*
X0278090Y0361295D02*
X0277302Y0361295D01*
X0272578Y0361295D02*
X0271791Y0361295D01*
X0271791Y0359327D02*
X0272578Y0359327D01*
X0272578Y0357358D02*
X0271791Y0357358D01*
X0260767Y0350272D02*
X0254468Y0350272D01*
X0254468Y0340035D01*
X0260767Y0340035D01*
X0260767Y0350272D01*
X0155846Y0327240D02*
X0155846Y0323303D01*
X0153877Y0323303D02*
X0153877Y0327240D01*
X0151909Y0327240D02*
X0151909Y0323303D01*
X0149940Y0323303D02*
X0149940Y0327240D01*
X0147972Y0327240D02*
X0147972Y0323303D01*
X0146003Y0323303D02*
X0146003Y0327240D01*
X0144035Y0327240D02*
X0144035Y0323303D01*
X0142066Y0323303D02*
X0142066Y0327240D01*
X0140098Y0327240D02*
X0140098Y0323303D01*
X0138129Y0323303D02*
X0138129Y0327240D01*
X0137932Y0343185D02*
X0138720Y0343185D01*
X0138720Y0345154D02*
X0137932Y0345154D01*
X0137932Y0347122D02*
X0138720Y0347122D01*
X0143444Y0347122D02*
X0144231Y0347122D01*
X0144231Y0343185D02*
X0143444Y0343185D01*
X0143444Y0357358D02*
X0144231Y0357358D01*
X0144231Y0361295D02*
X0143444Y0361295D01*
X0138720Y0361295D02*
X0137932Y0361295D01*
X0137932Y0359327D02*
X0138720Y0359327D01*
X0138720Y0357358D02*
X0137932Y0357358D01*
X0126909Y0350272D02*
X0120609Y0350272D01*
X0120609Y0340035D01*
X0126909Y0340035D01*
X0126909Y0350272D01*
D11*
X0127893Y0137870D02*
X0127893Y0131177D01*
X0133011Y0131177D01*
X0133011Y0137870D01*
X0127893Y0137870D01*
X0109980Y0155783D02*
X0109192Y0155783D01*
X0109192Y0156571D01*
X0109980Y0156571D01*
X0109980Y0155783D01*
X0109980Y0160508D02*
X0109192Y0160508D01*
X0109192Y0161295D01*
X0109980Y0161295D01*
X0109980Y0160508D01*
X0109980Y0165232D02*
X0109192Y0165232D01*
X0109192Y0166020D01*
X0109980Y0166020D01*
X0109980Y0165232D01*
X0109980Y0169957D02*
X0109192Y0169957D01*
X0109192Y0170744D01*
X0109980Y0170744D01*
X0109980Y0169957D01*
X0109980Y0174681D02*
X0109192Y0174681D01*
X0109192Y0175469D01*
X0109980Y0175469D01*
X0109980Y0174681D01*
X0109980Y0179406D02*
X0109192Y0179406D01*
X0109192Y0180193D01*
X0109980Y0180193D01*
X0109980Y0179406D01*
X0105255Y0179406D02*
X0104468Y0179406D01*
X0104468Y0180193D01*
X0105255Y0180193D01*
X0105255Y0179406D01*
X0105255Y0175469D02*
X0105255Y0174681D01*
X0104468Y0174681D01*
X0104468Y0175469D01*
X0105255Y0175469D01*
X0105255Y0170744D02*
X0105255Y0169957D01*
X0104468Y0169957D01*
X0104468Y0170744D01*
X0105255Y0170744D01*
X0105255Y0166020D02*
X0105255Y0165232D01*
X0104468Y0165232D01*
X0104468Y0166020D01*
X0105255Y0166020D01*
X0105255Y0161295D02*
X0105255Y0160508D01*
X0104468Y0160508D01*
X0104468Y0161295D01*
X0105255Y0161295D01*
X0105255Y0156571D02*
X0105255Y0155783D01*
X0104468Y0155783D01*
X0104468Y0156571D01*
X0105255Y0156571D01*
X0121003Y0180980D02*
X0121003Y0181768D01*
X0121791Y0181768D01*
X0121791Y0180980D01*
X0121003Y0180980D01*
X0125728Y0180980D02*
X0125728Y0181768D01*
X0126515Y0181768D01*
X0126515Y0180980D01*
X0125728Y0180980D01*
X0138326Y0175469D02*
X0139113Y0175469D01*
X0139113Y0174681D01*
X0138326Y0174681D01*
X0138326Y0175469D01*
X0143050Y0175469D02*
X0143838Y0175469D01*
X0143838Y0174681D01*
X0143050Y0174681D01*
X0143050Y0175469D01*
X0143050Y0188854D02*
X0143050Y0189642D01*
X0143838Y0189642D01*
X0143838Y0188854D01*
X0143050Y0188854D01*
X0139113Y0188854D02*
X0139113Y0189642D01*
X0138326Y0189642D01*
X0138326Y0188854D01*
X0139113Y0188854D01*
X0110176Y0189445D02*
X0108208Y0189445D01*
X0108208Y0191413D01*
X0110176Y0191413D01*
X0110176Y0189445D01*
X0103090Y0189445D02*
X0103090Y0191413D01*
X0101121Y0191413D01*
X0101121Y0189445D01*
X0103090Y0189445D01*
X0103090Y0196138D02*
X0102302Y0196138D01*
X0102302Y0198500D01*
X0103090Y0198500D01*
X0103090Y0196138D01*
X0107420Y0196138D02*
X0107420Y0198500D01*
X0108208Y0198500D01*
X0108208Y0196138D01*
X0107420Y0196138D01*
X0107420Y0203618D02*
X0107420Y0205980D01*
X0108208Y0205980D01*
X0108208Y0203618D01*
X0107420Y0203618D01*
X0103090Y0203618D02*
X0103090Y0205980D01*
X0102302Y0205980D01*
X0102302Y0203618D01*
X0103090Y0203618D01*
X0103090Y0210311D02*
X0101121Y0210311D01*
X0101121Y0212280D01*
X0103090Y0212280D01*
X0103090Y0210311D01*
X0108208Y0210311D02*
X0108208Y0212280D01*
X0110176Y0212280D01*
X0110176Y0210311D01*
X0108208Y0210311D01*
X0150531Y0161689D02*
X0150531Y0160902D01*
X0151318Y0160902D01*
X0151318Y0161689D01*
X0150531Y0161689D01*
X0155255Y0161689D02*
X0155255Y0160902D01*
X0156043Y0160902D01*
X0156043Y0161689D01*
X0155255Y0161689D01*
X0155255Y0154602D02*
X0155255Y0153815D01*
X0156043Y0153815D01*
X0156043Y0154602D01*
X0155255Y0154602D01*
X0151318Y0154602D02*
X0151318Y0153815D01*
X0150531Y0153815D01*
X0150531Y0154602D01*
X0151318Y0154602D01*
X0160964Y0137870D02*
X0160964Y0131177D01*
X0166082Y0131177D01*
X0166082Y0137870D01*
X0160964Y0137870D01*
X0176515Y0196335D02*
X0176515Y0197122D01*
X0177302Y0197122D01*
X0177302Y0196335D01*
X0176515Y0196335D01*
X0181239Y0196335D02*
X0181239Y0197122D01*
X0182027Y0197122D01*
X0182027Y0196335D01*
X0181239Y0196335D01*
X0234980Y0191413D02*
X0234980Y0189445D01*
X0236948Y0189445D01*
X0236948Y0191413D01*
X0234980Y0191413D01*
X0236161Y0196138D02*
X0236161Y0198500D01*
X0236948Y0198500D01*
X0236948Y0196138D01*
X0236161Y0196138D01*
X0241279Y0196138D02*
X0241279Y0198500D01*
X0242066Y0198500D01*
X0242066Y0196138D01*
X0241279Y0196138D01*
X0242066Y0191413D02*
X0242066Y0189445D01*
X0244035Y0189445D01*
X0244035Y0191413D01*
X0242066Y0191413D01*
X0242066Y0203618D02*
X0242066Y0205980D01*
X0241279Y0205980D01*
X0241279Y0203618D01*
X0242066Y0203618D01*
X0236948Y0203618D02*
X0236948Y0205980D01*
X0236161Y0205980D01*
X0236161Y0203618D01*
X0236948Y0203618D01*
X0236948Y0210311D02*
X0234980Y0210311D01*
X0234980Y0212280D01*
X0236948Y0212280D01*
X0236948Y0210311D01*
X0242066Y0210311D02*
X0242066Y0212280D01*
X0244035Y0212280D01*
X0244035Y0210311D01*
X0242066Y0210311D01*
X0254861Y0181768D02*
X0255649Y0181768D01*
X0255649Y0180980D01*
X0254861Y0180980D01*
X0254861Y0181768D01*
X0259586Y0181768D02*
X0260373Y0181768D01*
X0260373Y0180980D01*
X0259586Y0180980D01*
X0259586Y0181768D01*
X0243838Y0180193D02*
X0243838Y0179406D01*
X0243050Y0179406D01*
X0243050Y0180193D01*
X0243838Y0180193D01*
X0243838Y0175469D02*
X0243050Y0175469D01*
X0243050Y0174681D01*
X0243838Y0174681D01*
X0243838Y0175469D01*
X0239113Y0175469D02*
X0239113Y0174681D01*
X0238326Y0174681D01*
X0238326Y0175469D01*
X0239113Y0175469D01*
X0239113Y0179406D02*
X0238326Y0179406D01*
X0238326Y0180193D01*
X0239113Y0180193D01*
X0239113Y0179406D01*
X0239113Y0170744D02*
X0239113Y0169957D01*
X0238326Y0169957D01*
X0238326Y0170744D01*
X0239113Y0170744D01*
X0243050Y0170744D02*
X0243050Y0169957D01*
X0243838Y0169957D01*
X0243838Y0170744D01*
X0243050Y0170744D01*
X0243050Y0166020D02*
X0243050Y0165232D01*
X0243838Y0165232D01*
X0243838Y0166020D01*
X0243050Y0166020D01*
X0239113Y0166020D02*
X0239113Y0165232D01*
X0238326Y0165232D01*
X0238326Y0166020D01*
X0239113Y0166020D01*
X0239113Y0161295D02*
X0239113Y0160508D01*
X0238326Y0160508D01*
X0238326Y0161295D01*
X0239113Y0161295D01*
X0243050Y0161295D02*
X0243050Y0160508D01*
X0243838Y0160508D01*
X0243838Y0161295D01*
X0243050Y0161295D01*
X0243050Y0156571D02*
X0243050Y0155783D01*
X0243838Y0155783D01*
X0243838Y0156571D01*
X0243050Y0156571D01*
X0239113Y0156571D02*
X0239113Y0155783D01*
X0238326Y0155783D01*
X0238326Y0156571D01*
X0239113Y0156571D01*
X0261751Y0137870D02*
X0261751Y0131177D01*
X0266869Y0131177D01*
X0266869Y0137870D01*
X0261751Y0137870D01*
X0284389Y0153815D02*
X0284389Y0154602D01*
X0285176Y0154602D01*
X0285176Y0153815D01*
X0284389Y0153815D01*
X0289113Y0153815D02*
X0289113Y0154602D01*
X0289901Y0154602D01*
X0289901Y0153815D01*
X0289113Y0153815D01*
X0289113Y0160902D02*
X0289113Y0161689D01*
X0289901Y0161689D01*
X0289901Y0160902D01*
X0289113Y0160902D01*
X0285176Y0160902D02*
X0284389Y0160902D01*
X0284389Y0161689D01*
X0285176Y0161689D01*
X0285176Y0160902D01*
X0277696Y0174681D02*
X0277696Y0175469D01*
X0276909Y0175469D01*
X0276909Y0174681D01*
X0277696Y0174681D01*
X0272972Y0174681D02*
X0272972Y0175469D01*
X0272184Y0175469D01*
X0272184Y0174681D01*
X0272972Y0174681D01*
X0272972Y0188854D02*
X0272972Y0189642D01*
X0272184Y0189642D01*
X0272184Y0188854D01*
X0272972Y0188854D01*
X0276909Y0188854D02*
X0276909Y0189642D01*
X0277696Y0189642D01*
X0277696Y0188854D01*
X0276909Y0188854D01*
X0310373Y0196335D02*
X0310373Y0197122D01*
X0311161Y0197122D01*
X0311161Y0196335D01*
X0310373Y0196335D01*
X0315098Y0196335D02*
X0315098Y0197122D01*
X0315885Y0197122D01*
X0315885Y0196335D01*
X0315098Y0196335D01*
X0368838Y0191413D02*
X0368838Y0189445D01*
X0370806Y0189445D01*
X0370806Y0191413D01*
X0368838Y0191413D01*
X0370019Y0196138D02*
X0370019Y0198500D01*
X0370806Y0198500D01*
X0370806Y0196138D01*
X0370019Y0196138D01*
X0375137Y0196138D02*
X0375137Y0198500D01*
X0375924Y0198500D01*
X0375924Y0196138D01*
X0375137Y0196138D01*
X0375924Y0191413D02*
X0375924Y0189445D01*
X0377893Y0189445D01*
X0377893Y0191413D01*
X0375924Y0191413D01*
X0375924Y0203618D02*
X0375924Y0205980D01*
X0375137Y0205980D01*
X0375137Y0203618D01*
X0375924Y0203618D01*
X0370806Y0203618D02*
X0370806Y0205980D01*
X0370019Y0205980D01*
X0370019Y0203618D01*
X0370806Y0203618D01*
X0370806Y0210311D02*
X0368838Y0210311D01*
X0368838Y0212280D01*
X0370806Y0212280D01*
X0370806Y0210311D01*
X0375924Y0210311D02*
X0375924Y0212280D01*
X0377893Y0212280D01*
X0377893Y0210311D01*
X0375924Y0210311D01*
X0388720Y0181768D02*
X0389507Y0181768D01*
X0389507Y0180980D01*
X0388720Y0180980D01*
X0388720Y0181768D01*
X0393444Y0181768D02*
X0393444Y0180980D01*
X0394231Y0180980D01*
X0394231Y0181768D01*
X0393444Y0181768D01*
X0406043Y0175469D02*
X0406830Y0175469D01*
X0406830Y0174681D01*
X0406043Y0174681D01*
X0406043Y0175469D01*
X0410767Y0175469D02*
X0411554Y0175469D01*
X0411554Y0174681D01*
X0410767Y0174681D01*
X0410767Y0175469D01*
X0410767Y0188854D02*
X0410767Y0189642D01*
X0411554Y0189642D01*
X0411554Y0188854D01*
X0410767Y0188854D01*
X0406830Y0188854D02*
X0406830Y0189642D01*
X0406043Y0189642D01*
X0406043Y0188854D01*
X0406830Y0188854D01*
X0418247Y0161689D02*
X0418247Y0160902D01*
X0419035Y0160902D01*
X0419035Y0161689D01*
X0418247Y0161689D01*
X0422972Y0161689D02*
X0422972Y0160902D01*
X0423759Y0160902D01*
X0423759Y0161689D01*
X0422972Y0161689D01*
X0422972Y0154602D02*
X0422972Y0153815D01*
X0423759Y0153815D01*
X0423759Y0154602D01*
X0422972Y0154602D01*
X0419035Y0154602D02*
X0419035Y0153815D01*
X0418247Y0153815D01*
X0418247Y0154602D01*
X0419035Y0154602D01*
X0428680Y0137870D02*
X0428680Y0131177D01*
X0433798Y0131177D01*
X0433798Y0137870D01*
X0428680Y0137870D01*
X0400728Y0137870D02*
X0400728Y0131177D01*
X0395609Y0131177D01*
X0395609Y0137870D01*
X0400728Y0137870D01*
X0377696Y0155783D02*
X0376909Y0155783D01*
X0376909Y0156571D01*
X0377696Y0156571D01*
X0377696Y0155783D01*
X0372972Y0155783D02*
X0372184Y0155783D01*
X0372184Y0156571D01*
X0372972Y0156571D01*
X0372972Y0155783D01*
X0372972Y0160508D02*
X0372184Y0160508D01*
X0372184Y0161295D01*
X0372972Y0161295D01*
X0372972Y0160508D01*
X0376909Y0160508D02*
X0376909Y0161295D01*
X0377696Y0161295D01*
X0377696Y0160508D01*
X0376909Y0160508D01*
X0376909Y0165232D02*
X0376909Y0166020D01*
X0377696Y0166020D01*
X0377696Y0165232D01*
X0376909Y0165232D01*
X0372972Y0165232D02*
X0372184Y0165232D01*
X0372184Y0166020D01*
X0372972Y0166020D01*
X0372972Y0165232D01*
X0372972Y0169957D02*
X0372184Y0169957D01*
X0372184Y0170744D01*
X0372972Y0170744D01*
X0372972Y0169957D01*
X0376909Y0169957D02*
X0376909Y0170744D01*
X0377696Y0170744D01*
X0377696Y0169957D01*
X0376909Y0169957D01*
X0376909Y0174681D02*
X0376909Y0175469D01*
X0377696Y0175469D01*
X0377696Y0174681D01*
X0376909Y0174681D01*
X0372972Y0174681D02*
X0372184Y0174681D01*
X0372184Y0175469D01*
X0372972Y0175469D01*
X0372972Y0174681D01*
X0372972Y0179406D02*
X0372184Y0179406D01*
X0372184Y0180193D01*
X0372972Y0180193D01*
X0372972Y0179406D01*
X0376909Y0179406D02*
X0376909Y0180193D01*
X0377696Y0180193D01*
X0377696Y0179406D01*
X0376909Y0179406D01*
X0444231Y0196335D02*
X0444231Y0197122D01*
X0445019Y0197122D01*
X0445019Y0196335D01*
X0444231Y0196335D01*
X0448956Y0196335D02*
X0448956Y0197122D01*
X0449743Y0197122D01*
X0449743Y0196335D01*
X0448956Y0196335D01*
X0433798Y0308343D02*
X0428680Y0308343D01*
X0428680Y0315035D01*
X0433798Y0315035D01*
X0433798Y0308343D01*
X0423759Y0330980D02*
X0422972Y0330980D01*
X0422972Y0331768D01*
X0423759Y0331768D01*
X0423759Y0330980D01*
X0419035Y0330980D02*
X0418247Y0330980D01*
X0418247Y0331768D01*
X0419035Y0331768D01*
X0419035Y0330980D01*
X0419035Y0338067D02*
X0418247Y0338067D01*
X0418247Y0338854D01*
X0419035Y0338854D01*
X0419035Y0338067D01*
X0422972Y0338067D02*
X0422972Y0338854D01*
X0423759Y0338854D01*
X0423759Y0338067D01*
X0422972Y0338067D01*
X0411554Y0351846D02*
X0410767Y0351846D01*
X0410767Y0352634D01*
X0411554Y0352634D01*
X0411554Y0351846D01*
X0406830Y0351846D02*
X0406830Y0352634D01*
X0406043Y0352634D01*
X0406043Y0351846D01*
X0406830Y0351846D01*
X0394231Y0358146D02*
X0394231Y0358933D01*
X0393444Y0358933D01*
X0393444Y0358146D01*
X0394231Y0358146D01*
X0389507Y0358146D02*
X0389507Y0358933D01*
X0388720Y0358933D01*
X0388720Y0358146D01*
X0389507Y0358146D01*
X0377696Y0357358D02*
X0377696Y0356571D01*
X0376909Y0356571D01*
X0376909Y0357358D01*
X0377696Y0357358D01*
X0377696Y0352634D02*
X0377696Y0351846D01*
X0376909Y0351846D01*
X0376909Y0352634D01*
X0377696Y0352634D01*
X0372972Y0352634D02*
X0372972Y0351846D01*
X0372184Y0351846D01*
X0372184Y0352634D01*
X0372972Y0352634D01*
X0372972Y0356571D02*
X0372184Y0356571D01*
X0372184Y0357358D01*
X0372972Y0357358D01*
X0372972Y0356571D01*
X0372972Y0347909D02*
X0372972Y0347122D01*
X0372184Y0347122D01*
X0372184Y0347909D01*
X0372972Y0347909D01*
X0376909Y0347909D02*
X0376909Y0347122D01*
X0377696Y0347122D01*
X0377696Y0347909D01*
X0376909Y0347909D01*
X0376909Y0343185D02*
X0376909Y0342398D01*
X0377696Y0342398D01*
X0377696Y0343185D01*
X0376909Y0343185D01*
X0372972Y0343185D02*
X0372972Y0342398D01*
X0372184Y0342398D01*
X0372184Y0343185D01*
X0372972Y0343185D01*
X0372972Y0338461D02*
X0372972Y0337673D01*
X0372184Y0337673D01*
X0372184Y0338461D01*
X0372972Y0338461D01*
X0376909Y0338461D02*
X0376909Y0337673D01*
X0377696Y0337673D01*
X0377696Y0338461D01*
X0376909Y0338461D01*
X0376909Y0333736D02*
X0376909Y0332949D01*
X0377696Y0332949D01*
X0377696Y0333736D01*
X0376909Y0333736D01*
X0372972Y0333736D02*
X0372972Y0332949D01*
X0372184Y0332949D01*
X0372184Y0333736D01*
X0372972Y0333736D01*
X0395609Y0315035D02*
X0395609Y0308343D01*
X0400728Y0308343D01*
X0400728Y0315035D01*
X0395609Y0315035D01*
X0406043Y0366020D02*
X0406043Y0366807D01*
X0406830Y0366807D01*
X0406830Y0366020D01*
X0406043Y0366020D01*
X0410767Y0366020D02*
X0410767Y0366807D01*
X0411554Y0366807D01*
X0411554Y0366020D01*
X0410767Y0366020D01*
X0377893Y0366610D02*
X0375924Y0366610D01*
X0375924Y0368579D01*
X0377893Y0368579D01*
X0377893Y0366610D01*
X0370806Y0366610D02*
X0370806Y0368579D01*
X0368838Y0368579D01*
X0368838Y0366610D01*
X0370806Y0366610D01*
X0370806Y0373303D02*
X0370806Y0375665D01*
X0370019Y0375665D01*
X0370019Y0373303D01*
X0370806Y0373303D01*
X0375137Y0373303D02*
X0375137Y0375665D01*
X0375924Y0375665D01*
X0375924Y0373303D01*
X0375137Y0373303D01*
X0375137Y0380783D02*
X0375137Y0383146D01*
X0375924Y0383146D01*
X0375924Y0380783D01*
X0375137Y0380783D01*
X0370806Y0380783D02*
X0370806Y0383146D01*
X0370019Y0383146D01*
X0370019Y0380783D01*
X0370806Y0380783D01*
X0370806Y0387476D02*
X0368838Y0387476D01*
X0368838Y0389445D01*
X0370806Y0389445D01*
X0370806Y0387476D01*
X0375924Y0387476D02*
X0375924Y0389445D01*
X0377893Y0389445D01*
X0377893Y0387476D01*
X0375924Y0387476D01*
X0315885Y0374287D02*
X0315885Y0373500D01*
X0315098Y0373500D01*
X0315098Y0374287D01*
X0315885Y0374287D01*
X0311161Y0374287D02*
X0311161Y0373500D01*
X0310373Y0373500D01*
X0310373Y0374287D01*
X0311161Y0374287D01*
X0277696Y0366807D02*
X0277696Y0366020D01*
X0276909Y0366020D01*
X0276909Y0366807D01*
X0277696Y0366807D01*
X0272972Y0366807D02*
X0272972Y0366020D01*
X0272184Y0366020D01*
X0272184Y0366807D01*
X0272972Y0366807D01*
X0260373Y0358933D02*
X0260373Y0358146D01*
X0259586Y0358146D01*
X0259586Y0358933D01*
X0260373Y0358933D01*
X0255649Y0358933D02*
X0255649Y0358146D01*
X0254861Y0358146D01*
X0254861Y0358933D01*
X0255649Y0358933D01*
X0243838Y0357358D02*
X0243838Y0356571D01*
X0243050Y0356571D01*
X0243050Y0357358D01*
X0243838Y0357358D01*
X0243838Y0352634D02*
X0243050Y0352634D01*
X0243050Y0351846D01*
X0243838Y0351846D01*
X0243838Y0352634D01*
X0243838Y0347909D02*
X0243050Y0347909D01*
X0243050Y0347122D01*
X0243838Y0347122D01*
X0243838Y0347909D01*
X0243838Y0343185D02*
X0243050Y0343185D01*
X0243050Y0342398D01*
X0243838Y0342398D01*
X0243838Y0343185D01*
X0243838Y0338461D02*
X0243050Y0338461D01*
X0243050Y0337673D01*
X0243838Y0337673D01*
X0243838Y0338461D01*
X0239113Y0338461D02*
X0239113Y0337673D01*
X0238326Y0337673D01*
X0238326Y0338461D01*
X0239113Y0338461D01*
X0239113Y0342398D02*
X0238326Y0342398D01*
X0238326Y0343185D01*
X0239113Y0343185D01*
X0239113Y0342398D01*
X0239113Y0347122D02*
X0238326Y0347122D01*
X0238326Y0347909D01*
X0239113Y0347909D01*
X0239113Y0347122D01*
X0239113Y0351846D02*
X0238326Y0351846D01*
X0238326Y0352634D01*
X0239113Y0352634D01*
X0239113Y0351846D01*
X0239113Y0356571D02*
X0238326Y0356571D01*
X0238326Y0357358D01*
X0239113Y0357358D01*
X0239113Y0356571D01*
X0236948Y0366610D02*
X0234980Y0366610D01*
X0234980Y0368579D01*
X0236948Y0368579D01*
X0236948Y0366610D01*
X0242066Y0366610D02*
X0242066Y0368579D01*
X0244035Y0368579D01*
X0244035Y0366610D01*
X0242066Y0366610D01*
X0242066Y0373303D02*
X0242066Y0375665D01*
X0241279Y0375665D01*
X0241279Y0373303D01*
X0242066Y0373303D01*
X0236948Y0373303D02*
X0236948Y0375665D01*
X0236161Y0375665D01*
X0236161Y0373303D01*
X0236948Y0373303D01*
X0236948Y0380783D02*
X0236948Y0383146D01*
X0236161Y0383146D01*
X0236161Y0380783D01*
X0236948Y0380783D01*
X0241279Y0380783D02*
X0241279Y0383146D01*
X0242066Y0383146D01*
X0242066Y0380783D01*
X0241279Y0380783D01*
X0242066Y0387476D02*
X0242066Y0389445D01*
X0244035Y0389445D01*
X0244035Y0387476D01*
X0242066Y0387476D01*
X0236948Y0387476D02*
X0234980Y0387476D01*
X0234980Y0389445D01*
X0236948Y0389445D01*
X0236948Y0387476D01*
X0272184Y0352634D02*
X0272972Y0352634D01*
X0272972Y0351846D01*
X0272184Y0351846D01*
X0272184Y0352634D01*
X0276909Y0352634D02*
X0277696Y0352634D01*
X0277696Y0351846D01*
X0276909Y0351846D01*
X0276909Y0352634D01*
X0284389Y0338854D02*
X0284389Y0338067D01*
X0285176Y0338067D01*
X0285176Y0338854D01*
X0284389Y0338854D01*
X0289113Y0338854D02*
X0289113Y0338067D01*
X0289901Y0338067D01*
X0289901Y0338854D01*
X0289113Y0338854D01*
X0289113Y0331768D02*
X0289113Y0330980D01*
X0289901Y0330980D01*
X0289901Y0331768D01*
X0289113Y0331768D01*
X0285176Y0331768D02*
X0285176Y0330980D01*
X0284389Y0330980D01*
X0284389Y0331768D01*
X0285176Y0331768D01*
X0294822Y0315035D02*
X0294822Y0308343D01*
X0299940Y0308343D01*
X0299940Y0315035D01*
X0294822Y0315035D01*
X0266869Y0315035D02*
X0266869Y0308343D01*
X0261751Y0308343D01*
X0261751Y0315035D01*
X0266869Y0315035D01*
X0243838Y0332949D02*
X0243050Y0332949D01*
X0243050Y0333736D01*
X0243838Y0333736D01*
X0243838Y0332949D01*
X0239113Y0332949D02*
X0238326Y0332949D01*
X0238326Y0333736D01*
X0239113Y0333736D01*
X0239113Y0332949D01*
X0182027Y0373500D02*
X0182027Y0374287D01*
X0181239Y0374287D01*
X0181239Y0373500D01*
X0182027Y0373500D01*
X0177302Y0373500D02*
X0177302Y0374287D01*
X0176515Y0374287D01*
X0176515Y0373500D01*
X0177302Y0373500D01*
X0143838Y0366807D02*
X0143838Y0366020D01*
X0143050Y0366020D01*
X0143050Y0366807D01*
X0143838Y0366807D01*
X0139113Y0366807D02*
X0139113Y0366020D01*
X0138326Y0366020D01*
X0138326Y0366807D01*
X0139113Y0366807D01*
X0126515Y0358933D02*
X0126515Y0358146D01*
X0125728Y0358146D01*
X0125728Y0358933D01*
X0126515Y0358933D01*
X0121791Y0358933D02*
X0121791Y0358146D01*
X0121003Y0358146D01*
X0121003Y0358933D01*
X0121791Y0358933D01*
X0109980Y0357358D02*
X0109980Y0356571D01*
X0109192Y0356571D01*
X0109192Y0357358D01*
X0109980Y0357358D01*
X0109980Y0352634D02*
X0109980Y0351846D01*
X0109192Y0351846D01*
X0109192Y0352634D01*
X0109980Y0352634D01*
X0109980Y0347909D02*
X0109980Y0347122D01*
X0109192Y0347122D01*
X0109192Y0347909D01*
X0109980Y0347909D01*
X0109980Y0343185D02*
X0109980Y0342398D01*
X0109192Y0342398D01*
X0109192Y0343185D01*
X0109980Y0343185D01*
X0109980Y0338461D02*
X0109980Y0337673D01*
X0109192Y0337673D01*
X0109192Y0338461D01*
X0109980Y0338461D01*
X0109980Y0333736D02*
X0109980Y0332949D01*
X0109192Y0332949D01*
X0109192Y0333736D01*
X0109980Y0333736D01*
X0105255Y0333736D02*
X0105255Y0332949D01*
X0104468Y0332949D01*
X0104468Y0333736D01*
X0105255Y0333736D01*
X0105255Y0337673D02*
X0104468Y0337673D01*
X0104468Y0338461D01*
X0105255Y0338461D01*
X0105255Y0337673D01*
X0105255Y0342398D02*
X0104468Y0342398D01*
X0104468Y0343185D01*
X0105255Y0343185D01*
X0105255Y0342398D01*
X0105255Y0347122D02*
X0104468Y0347122D01*
X0104468Y0347909D01*
X0105255Y0347909D01*
X0105255Y0347122D01*
X0105255Y0351846D02*
X0104468Y0351846D01*
X0104468Y0352634D01*
X0105255Y0352634D01*
X0105255Y0351846D01*
X0105255Y0356571D02*
X0104468Y0356571D01*
X0104468Y0357358D01*
X0105255Y0357358D01*
X0105255Y0356571D01*
X0103090Y0366610D02*
X0101121Y0366610D01*
X0101121Y0368579D01*
X0103090Y0368579D01*
X0103090Y0366610D01*
X0108208Y0366610D02*
X0108208Y0368579D01*
X0110176Y0368579D01*
X0110176Y0366610D01*
X0108208Y0366610D01*
X0108208Y0373303D02*
X0108208Y0375665D01*
X0107420Y0375665D01*
X0107420Y0373303D01*
X0108208Y0373303D01*
X0103090Y0373303D02*
X0103090Y0375665D01*
X0102302Y0375665D01*
X0102302Y0373303D01*
X0103090Y0373303D01*
X0103090Y0380783D02*
X0102302Y0380783D01*
X0102302Y0383146D01*
X0103090Y0383146D01*
X0103090Y0380783D01*
X0107420Y0380783D02*
X0107420Y0383146D01*
X0108208Y0383146D01*
X0108208Y0380783D01*
X0107420Y0380783D01*
X0108208Y0387476D02*
X0108208Y0389445D01*
X0110176Y0389445D01*
X0110176Y0387476D01*
X0108208Y0387476D01*
X0103090Y0387476D02*
X0101121Y0387476D01*
X0101121Y0389445D01*
X0103090Y0389445D01*
X0103090Y0387476D01*
X0138326Y0352634D02*
X0139113Y0352634D01*
X0139113Y0351846D01*
X0138326Y0351846D01*
X0138326Y0352634D01*
X0143050Y0352634D02*
X0143838Y0352634D01*
X0143838Y0351846D01*
X0143050Y0351846D01*
X0143050Y0352634D01*
X0150531Y0338854D02*
X0150531Y0338067D01*
X0151318Y0338067D01*
X0151318Y0338854D01*
X0150531Y0338854D01*
X0155255Y0338854D02*
X0155255Y0338067D01*
X0156043Y0338067D01*
X0156043Y0338854D01*
X0155255Y0338854D01*
X0155255Y0331768D02*
X0155255Y0330980D01*
X0156043Y0330980D01*
X0156043Y0331768D01*
X0155255Y0331768D01*
X0151318Y0331768D02*
X0151318Y0330980D01*
X0150531Y0330980D01*
X0150531Y0331768D01*
X0151318Y0331768D01*
X0160964Y0315035D02*
X0160964Y0308343D01*
X0166082Y0308343D01*
X0166082Y0315035D01*
X0160964Y0315035D01*
X0133011Y0315035D02*
X0133011Y0308343D01*
X0127893Y0308343D01*
X0127893Y0315035D01*
X0133011Y0315035D01*
X0294822Y0137870D02*
X0294822Y0131177D01*
X0299940Y0131177D01*
X0299940Y0137870D01*
X0294822Y0137870D01*
X0444231Y0373500D02*
X0444231Y0374287D01*
X0445019Y0374287D01*
X0445019Y0373500D01*
X0444231Y0373500D01*
X0448956Y0373500D02*
X0448956Y0374287D01*
X0449743Y0374287D01*
X0449743Y0373500D01*
X0448956Y0373500D01*
D12*
X0431239Y0311689D03*
X0398169Y0311689D03*
X0297381Y0311689D03*
X0264310Y0311689D03*
X0163523Y0311689D03*
X0130452Y0311689D03*
X0130452Y0134524D03*
X0163523Y0134524D03*
X0264310Y0134524D03*
X0297381Y0134524D03*
X0398169Y0134524D03*
X0431239Y0134524D03*
D13*
X0430452Y0176236D02*
X0424153Y0176236D01*
X0424153Y0181236D02*
X0430452Y0181236D01*
X0430452Y0186236D02*
X0424153Y0186236D01*
X0424153Y0191236D02*
X0430452Y0191236D01*
X0446200Y0191236D02*
X0452499Y0191236D01*
X0452499Y0186236D02*
X0446200Y0186236D01*
X0446200Y0181236D02*
X0452499Y0181236D01*
X0452499Y0176236D02*
X0446200Y0176236D01*
X0318641Y0176236D02*
X0312342Y0176236D01*
X0312342Y0181236D02*
X0318641Y0181236D01*
X0318641Y0186236D02*
X0312342Y0186236D01*
X0312342Y0191236D02*
X0318641Y0191236D01*
X0296594Y0191236D02*
X0290294Y0191236D01*
X0290294Y0186236D02*
X0296594Y0186236D01*
X0296594Y0181236D02*
X0290294Y0181236D01*
X0290294Y0176236D02*
X0296594Y0176236D01*
X0184783Y0176236D02*
X0178483Y0176236D01*
X0178483Y0181236D02*
X0184783Y0181236D01*
X0184783Y0186236D02*
X0178483Y0186236D01*
X0178483Y0191236D02*
X0184783Y0191236D01*
X0162735Y0191236D02*
X0156436Y0191236D01*
X0156436Y0186236D02*
X0162735Y0186236D01*
X0162735Y0181236D02*
X0156436Y0181236D01*
X0156436Y0176236D02*
X0162735Y0176236D01*
X0162735Y0353402D02*
X0156436Y0353402D01*
X0156436Y0358402D02*
X0162735Y0358402D01*
X0162735Y0363402D02*
X0156436Y0363402D01*
X0156436Y0368402D02*
X0162735Y0368402D01*
X0178483Y0368402D02*
X0184783Y0368402D01*
X0184783Y0363402D02*
X0178483Y0363402D01*
X0178483Y0358402D02*
X0184783Y0358402D01*
X0184783Y0353402D02*
X0178483Y0353402D01*
X0290294Y0353402D02*
X0296594Y0353402D01*
X0296594Y0358402D02*
X0290294Y0358402D01*
X0290294Y0363402D02*
X0296594Y0363402D01*
X0296594Y0368402D02*
X0290294Y0368402D01*
X0312342Y0368402D02*
X0318641Y0368402D01*
X0318641Y0363402D02*
X0312342Y0363402D01*
X0312342Y0358402D02*
X0318641Y0358402D01*
X0318641Y0353402D02*
X0312342Y0353402D01*
X0424153Y0353402D02*
X0430452Y0353402D01*
X0430452Y0358402D02*
X0424153Y0358402D01*
X0424153Y0363402D02*
X0430452Y0363402D01*
X0430452Y0368402D02*
X0424153Y0368402D01*
X0446200Y0368402D02*
X0452499Y0368402D01*
X0452499Y0363402D02*
X0446200Y0363402D01*
X0446200Y0358402D02*
X0452499Y0358402D01*
X0452499Y0353402D02*
X0446200Y0353402D01*
D14*
X0399153Y0352043D02*
X0397578Y0352043D01*
X0397578Y0350075D02*
X0399153Y0350075D01*
X0399153Y0348106D02*
X0397578Y0348106D01*
X0397578Y0346138D02*
X0399153Y0346138D01*
X0399153Y0344169D02*
X0397578Y0344169D01*
X0397578Y0342201D02*
X0399153Y0342201D01*
X0399153Y0340232D02*
X0397578Y0340232D01*
X0397578Y0338264D02*
X0399153Y0338264D01*
X0394428Y0337083D02*
X0394428Y0335508D01*
X0388523Y0335508D02*
X0388523Y0337083D01*
X0385373Y0338264D02*
X0383798Y0338264D01*
X0383798Y0340232D02*
X0385373Y0340232D01*
X0385373Y0342201D02*
X0383798Y0342201D01*
X0383798Y0344169D02*
X0385373Y0344169D01*
X0385373Y0346138D02*
X0383798Y0346138D01*
X0383798Y0348106D02*
X0385373Y0348106D01*
X0385373Y0350075D02*
X0383798Y0350075D01*
X0383798Y0352043D02*
X0385373Y0352043D01*
X0388523Y0353224D02*
X0388523Y0354799D01*
X0394428Y0354799D02*
X0394428Y0353224D01*
X0265294Y0352043D02*
X0263720Y0352043D01*
X0263720Y0350075D02*
X0265294Y0350075D01*
X0265294Y0348106D02*
X0263720Y0348106D01*
X0263720Y0346138D02*
X0265294Y0346138D01*
X0265294Y0344169D02*
X0263720Y0344169D01*
X0263720Y0342201D02*
X0265294Y0342201D01*
X0265294Y0340232D02*
X0263720Y0340232D01*
X0263720Y0338264D02*
X0265294Y0338264D01*
X0260570Y0337083D02*
X0260570Y0335508D01*
X0254665Y0335508D02*
X0254665Y0337083D01*
X0251515Y0338264D02*
X0249940Y0338264D01*
X0249940Y0340232D02*
X0251515Y0340232D01*
X0251515Y0342201D02*
X0249940Y0342201D01*
X0249940Y0344169D02*
X0251515Y0344169D01*
X0251515Y0346138D02*
X0249940Y0346138D01*
X0249940Y0348106D02*
X0251515Y0348106D01*
X0251515Y0350075D02*
X0249940Y0350075D01*
X0249940Y0352043D02*
X0251515Y0352043D01*
X0254665Y0353224D02*
X0254665Y0354799D01*
X0260570Y0354799D02*
X0260570Y0353224D01*
X0131436Y0352043D02*
X0129861Y0352043D01*
X0129861Y0350075D02*
X0131436Y0350075D01*
X0131436Y0348106D02*
X0129861Y0348106D01*
X0129861Y0346138D02*
X0131436Y0346138D01*
X0131436Y0344169D02*
X0129861Y0344169D01*
X0129861Y0342201D02*
X0131436Y0342201D01*
X0131436Y0340232D02*
X0129861Y0340232D01*
X0129861Y0338264D02*
X0131436Y0338264D01*
X0126712Y0337083D02*
X0126712Y0335508D01*
X0120806Y0335508D02*
X0120806Y0337083D01*
X0117657Y0338264D02*
X0116082Y0338264D01*
X0116082Y0340232D02*
X0117657Y0340232D01*
X0117657Y0342201D02*
X0116082Y0342201D01*
X0116082Y0344169D02*
X0117657Y0344169D01*
X0117657Y0346138D02*
X0116082Y0346138D01*
X0116082Y0348106D02*
X0117657Y0348106D01*
X0117657Y0350075D02*
X0116082Y0350075D01*
X0116082Y0352043D02*
X0117657Y0352043D01*
X0120806Y0353224D02*
X0120806Y0354799D01*
X0126712Y0354799D02*
X0126712Y0353224D01*
X0126712Y0177634D02*
X0126712Y0176059D01*
X0129861Y0174878D02*
X0131436Y0174878D01*
X0131436Y0172909D02*
X0129861Y0172909D01*
X0129861Y0170941D02*
X0131436Y0170941D01*
X0131436Y0168972D02*
X0129861Y0168972D01*
X0129861Y0167004D02*
X0131436Y0167004D01*
X0131436Y0165035D02*
X0129861Y0165035D01*
X0129861Y0163067D02*
X0131436Y0163067D01*
X0131436Y0161098D02*
X0129861Y0161098D01*
X0126712Y0159917D02*
X0126712Y0158343D01*
X0120806Y0158343D02*
X0120806Y0159917D01*
X0117657Y0161098D02*
X0116082Y0161098D01*
X0116082Y0163067D02*
X0117657Y0163067D01*
X0117657Y0165035D02*
X0116082Y0165035D01*
X0116082Y0167004D02*
X0117657Y0167004D01*
X0117657Y0168972D02*
X0116082Y0168972D01*
X0116082Y0170941D02*
X0117657Y0170941D01*
X0117657Y0172909D02*
X0116082Y0172909D01*
X0116082Y0174878D02*
X0117657Y0174878D01*
X0120806Y0176059D02*
X0120806Y0177634D01*
X0249940Y0174878D02*
X0251515Y0174878D01*
X0251515Y0172909D02*
X0249940Y0172909D01*
X0249940Y0170941D02*
X0251515Y0170941D01*
X0251515Y0168972D02*
X0249940Y0168972D01*
X0249940Y0167004D02*
X0251515Y0167004D01*
X0251515Y0165035D02*
X0249940Y0165035D01*
X0249940Y0163067D02*
X0251515Y0163067D01*
X0251515Y0161098D02*
X0249940Y0161098D01*
X0254665Y0159917D02*
X0254665Y0158343D01*
X0260570Y0158343D02*
X0260570Y0159917D01*
X0263720Y0161098D02*
X0265294Y0161098D01*
X0265294Y0163067D02*
X0263720Y0163067D01*
X0263720Y0165035D02*
X0265294Y0165035D01*
X0265294Y0167004D02*
X0263720Y0167004D01*
X0263720Y0168972D02*
X0265294Y0168972D01*
X0265294Y0170941D02*
X0263720Y0170941D01*
X0263720Y0172909D02*
X0265294Y0172909D01*
X0265294Y0174878D02*
X0263720Y0174878D01*
X0260570Y0176059D02*
X0260570Y0177634D01*
X0254665Y0177634D02*
X0254665Y0176059D01*
X0383798Y0174878D02*
X0385373Y0174878D01*
X0385373Y0172909D02*
X0383798Y0172909D01*
X0383798Y0170941D02*
X0385373Y0170941D01*
X0385373Y0168972D02*
X0383798Y0168972D01*
X0383798Y0167004D02*
X0385373Y0167004D01*
X0385373Y0165035D02*
X0383798Y0165035D01*
X0383798Y0163067D02*
X0385373Y0163067D01*
X0385373Y0161098D02*
X0383798Y0161098D01*
X0388523Y0159917D02*
X0388523Y0158343D01*
X0394428Y0158343D02*
X0394428Y0159917D01*
X0397578Y0161098D02*
X0399153Y0161098D01*
X0399153Y0163067D02*
X0397578Y0163067D01*
X0397578Y0165035D02*
X0399153Y0165035D01*
X0399153Y0167004D02*
X0397578Y0167004D01*
X0397578Y0168972D02*
X0399153Y0168972D01*
X0399153Y0170941D02*
X0397578Y0170941D01*
X0397578Y0172909D02*
X0399153Y0172909D01*
X0399153Y0174878D02*
X0397578Y0174878D01*
X0394428Y0176059D02*
X0394428Y0177634D01*
X0388523Y0177634D02*
X0388523Y0176059D01*
D15*
X0391476Y0167988D03*
X0257617Y0167988D03*
X0123759Y0167988D03*
X0123759Y0345154D03*
X0257617Y0345154D03*
X0391476Y0345154D03*
D16*
X0376909Y0367594D03*
X0369822Y0367594D03*
X0369822Y0388461D03*
X0376909Y0388461D03*
X0243050Y0388461D03*
X0235964Y0388461D03*
X0235964Y0367594D03*
X0243050Y0367594D03*
X0109192Y0367594D03*
X0102106Y0367594D03*
X0102106Y0388461D03*
X0109192Y0388461D03*
X0109192Y0211295D03*
X0102106Y0211295D03*
X0102106Y0190429D03*
X0109192Y0190429D03*
X0235964Y0190429D03*
X0243050Y0190429D03*
X0243050Y0211295D03*
X0235964Y0211295D03*
X0369822Y0211295D03*
X0376909Y0211295D03*
X0376909Y0190429D03*
X0369822Y0190429D03*
D17*
X0372578Y0179799D03*
X0372578Y0175075D03*
X0377302Y0175075D03*
X0377302Y0179799D03*
X0377302Y0170350D03*
X0377302Y0165626D03*
X0372578Y0165626D03*
X0372578Y0170350D03*
X0372578Y0160902D03*
X0377302Y0160902D03*
X0377302Y0156177D03*
X0372578Y0156177D03*
X0389113Y0181374D03*
X0393838Y0181374D03*
X0406436Y0175075D03*
X0411161Y0175075D03*
X0411161Y0189248D03*
X0406436Y0189248D03*
X0418641Y0161295D03*
X0423365Y0161295D03*
X0423365Y0154209D03*
X0418641Y0154209D03*
X0444625Y0196728D03*
X0449350Y0196728D03*
X0315491Y0196728D03*
X0310767Y0196728D03*
X0277302Y0189248D03*
X0272578Y0189248D03*
X0259980Y0181374D03*
X0255255Y0181374D03*
X0243444Y0179799D03*
X0243444Y0175075D03*
X0238720Y0175075D03*
X0238720Y0179799D03*
X0238720Y0170350D03*
X0238720Y0165626D03*
X0243444Y0165626D03*
X0243444Y0170350D03*
X0243444Y0160902D03*
X0238720Y0160902D03*
X0238720Y0156177D03*
X0243444Y0156177D03*
X0272578Y0175075D03*
X0277302Y0175075D03*
X0284783Y0161295D03*
X0289507Y0161295D03*
X0289507Y0154209D03*
X0284783Y0154209D03*
X0181633Y0196728D03*
X0176909Y0196728D03*
X0143444Y0189248D03*
X0138720Y0189248D03*
X0126121Y0181374D03*
X0121397Y0181374D03*
X0109586Y0179799D03*
X0109586Y0175075D03*
X0104861Y0175075D03*
X0104861Y0179799D03*
X0104861Y0170350D03*
X0104861Y0165626D03*
X0104861Y0160902D03*
X0109586Y0160902D03*
X0109586Y0165626D03*
X0109586Y0170350D03*
X0109586Y0156177D03*
X0104861Y0156177D03*
X0138720Y0175075D03*
X0143444Y0175075D03*
X0150924Y0161295D03*
X0155649Y0161295D03*
X0155649Y0154209D03*
X0150924Y0154209D03*
X0150924Y0331374D03*
X0155649Y0331374D03*
X0155649Y0338461D03*
X0150924Y0338461D03*
X0143444Y0352240D03*
X0138720Y0352240D03*
X0126121Y0358539D03*
X0121397Y0358539D03*
X0109586Y0356965D03*
X0104861Y0356965D03*
X0104861Y0352240D03*
X0104861Y0347516D03*
X0104861Y0342791D03*
X0104861Y0338067D03*
X0104861Y0333343D03*
X0109586Y0333343D03*
X0109586Y0338067D03*
X0109586Y0342791D03*
X0109586Y0347516D03*
X0109586Y0352240D03*
X0138720Y0366413D03*
X0143444Y0366413D03*
X0176909Y0373894D03*
X0181633Y0373894D03*
X0238720Y0356965D03*
X0243444Y0356965D03*
X0243444Y0352240D03*
X0243444Y0347516D03*
X0238720Y0347516D03*
X0238720Y0352240D03*
X0238720Y0342791D03*
X0238720Y0338067D03*
X0243444Y0338067D03*
X0243444Y0342791D03*
X0243444Y0333343D03*
X0238720Y0333343D03*
X0255255Y0358539D03*
X0259980Y0358539D03*
X0272578Y0352240D03*
X0277302Y0352240D03*
X0277302Y0366413D03*
X0272578Y0366413D03*
X0284783Y0338461D03*
X0289507Y0338461D03*
X0289507Y0331374D03*
X0284783Y0331374D03*
X0310767Y0373894D03*
X0315491Y0373894D03*
X0372578Y0356965D03*
X0377302Y0356965D03*
X0377302Y0352240D03*
X0372578Y0352240D03*
X0372578Y0347516D03*
X0377302Y0347516D03*
X0377302Y0342791D03*
X0372578Y0342791D03*
X0372578Y0338067D03*
X0377302Y0338067D03*
X0377302Y0333343D03*
X0372578Y0333343D03*
X0389113Y0358539D03*
X0393838Y0358539D03*
X0406436Y0352240D03*
X0411161Y0352240D03*
X0411161Y0366413D03*
X0406436Y0366413D03*
X0418641Y0338461D03*
X0423365Y0338461D03*
X0423365Y0331374D03*
X0418641Y0331374D03*
X0444625Y0373894D03*
X0449350Y0373894D03*
M02*
