%
M48
M72
T01C0.01181
T02C0.03937
T03C0.12598
%
T01
X163129Y138067
X174940Y152634
X175334Y155783
X174940Y160114
X174940Y166807
X177696Y168776
X174546Y176650
X167854Y173894
X159586Y181374
X154074Y171925
X154074Y167988
X154074Y164051
X158798Y156571
X143050Y160902
X143444Y169957
X132027Y170350
X132027Y165626
X132027Y160902
X132027Y175075
X133995Y186886
X136357Y186886
X148169Y181374
X175334Y188854
X185964Y181768
X190294Y179799
X192657Y190823
X185964Y195941
X215098Y178618
X224153Y196728
X190294Y164839
X181239Y161689
X190294Y157752
X198169Y154996
X198169Y161295
X336751Y160902
X336751Y165626
X336751Y170350
X336751Y175075
X348169Y169957
X347775Y160902
X358798Y164051
X358798Y167988
X358798Y171925
X364310Y181374
X372578Y173894
X379271Y176650
X382420Y168776
X379665Y166807
X379665Y160114
X380058Y155783
X379665Y152634
X385964Y161689
X395019Y164839
X402893Y161295
X402893Y154996
X395019Y157752
X395019Y179799
X390688Y181768
X397381Y190823
X390688Y195941
X380058Y188854
X352893Y181374
X341082Y186886
X338720Y186886
X363523Y156571
X367854Y138067
X419822Y178618
X428877Y196728
X367854Y315232
X379665Y329799
X380058Y332949
X379665Y337280
X385964Y338854
X379665Y343972
X382420Y345941
X379271Y353815
X372578Y351059
X364310Y358539
X352893Y358539
X358798Y349091
X358798Y345154
X358798Y341217
X363523Y333736
X347775Y338067
X348169Y347122
X336751Y347516
X336751Y352240
X336751Y342791
X336751Y338067
X338720Y364051
X341082Y364051
X380058Y366020
X390688Y373106
X397381Y367988
X390688Y358933
X395019Y356965
X395019Y342004
X402893Y338461
X402893Y332161
X395019Y334917
X419822Y355783
X428877Y373894
X224153Y373894
X215098Y355783
X198169Y338461
X198169Y332161
X190294Y334917
X181239Y338854
X190294Y342004
X177696Y345941
X174940Y343972
X174940Y337280
X175334Y332949
X174940Y329799
X158798Y333736
X154074Y341217
X154074Y345154
X154074Y349091
X143444Y347122
X143050Y338067
X132027Y338067
X132027Y342791
X132027Y347516
X132027Y352240
X133995Y364051
X136357Y364051
X148169Y358539
X159586Y358539
X167854Y351059
X174546Y353815
X185964Y358933
X190294Y356965
X192657Y367988
X185964Y373106
X175334Y366020
X163129Y315232
T02
X116357Y318187
X116357Y308187
X116357Y328187
X116357Y338187
X116357Y348187
X116357Y358187
X116357Y368187
X116357Y378187
X256357Y378185
X256357Y368185
X256357Y358185
X256357Y348185
X256357Y338185
X256357Y328185
X256357Y318185
X256357Y308185
X321082Y308187
X321082Y318187
X321082Y328187
X321082Y338187
X321082Y348187
X321082Y358187
X321082Y368187
X321082Y378187
X461082Y378185
X461082Y368185
X461082Y358185
X461082Y348185
X461082Y338185
X461082Y328185
X461082Y318185
X461082Y308185
X461082Y201020
X461082Y191020
X461082Y181020
X461082Y171020
X461082Y161020
X461082Y151020
X461082Y141020
X461082Y131020
X321082Y131022
X321082Y141022
X321082Y151022
X321082Y161022
X321082Y171022
X321082Y181022
X321082Y191022
X321082Y201022
X256357Y201020
X256357Y191020
X256357Y181020
X256357Y171020
X256357Y161020
X256357Y151020
X256357Y141020
X256357Y131020
X116357Y131022
X116357Y141022
X116357Y151022
X116357Y161022
X116357Y171022
X116357Y181022
X116357Y191022
X116357Y201022
T03
X119428Y112870
X119428Y219169
X119428Y290035
X119428Y396335
X253287Y396335
X324153Y396335
X324153Y290035
X253287Y290035
X253287Y219169
X324153Y219169
X324153Y112870
X253287Y112870
X458011Y112870
X458011Y219169
X458011Y290035
X458011Y396335
M30
