%
M48
M72
T01C0.01181
T02C0.03150
T03C0.12598
T04C0.15748
%
T01
X159192Y138067
X173365Y152634
X171003Y158933
X170216Y162870
X176515Y163264
X180058Y161689
X186357Y164839
X186357Y157752
X194231Y161295
X194231Y154209
X182027Y175075
X186357Y180193
X182027Y189248
X189113Y190823
X171003Y182161
X169428Y175075
X171003Y171138
X170216Y167988
X160767Y181374
X155255Y171925
X155255Y167988
X155255Y164051
X159980Y156571
X144231Y160902
X144625Y169957
X133208Y170350
X133208Y165626
X133208Y160902
X133208Y175075
X135176Y186886
X137539Y186886
X149350Y181374
X208798Y196728
X220216Y196728
X211161Y178618
X330058Y175075
X330058Y170350
X330058Y165626
X330058Y160902
X341082Y160902
X341476Y169957
X352106Y171925
X352106Y167988
X352106Y164051
X356830Y156571
X367854Y158933
X367066Y162870
X373365Y163264
X376909Y161689
X383208Y164839
X383208Y157752
X391082Y161295
X391082Y154209
X370216Y152634
X356043Y138067
X367066Y167988
X367854Y171138
X366279Y175075
X367854Y182161
X357617Y181374
X346200Y181374
X334389Y186886
X332027Y186886
X378877Y189248
X385964Y190823
X383208Y180193
X378877Y175075
X408011Y178618
X405649Y196728
X417066Y196728
X356043Y315232
X370216Y329799
X367854Y336098
X367066Y340035
X367066Y345154
X367854Y348303
X366279Y352240
X367854Y359327
X357617Y358539
X346200Y358539
X352106Y349091
X352106Y345154
X352106Y341217
X356830Y333736
X341082Y338067
X341476Y347122
X330058Y347516
X330058Y352240
X330058Y342791
X330058Y338067
X332027Y364051
X334389Y364051
X373365Y340429
X376909Y338854
X383208Y342004
X383208Y334917
X391082Y331374
X391082Y338461
X378877Y352240
X383208Y357358
X378877Y366413
X385964Y367988
X405649Y373894
X417066Y373894
X408011Y355783
X220216Y373894
X208798Y373894
X211161Y355783
X194231Y338461
X194231Y331374
X186357Y334917
X180058Y338854
X176515Y340429
X170216Y340035
X171003Y336098
X173365Y329799
X159980Y333736
X155255Y341217
X155255Y345154
X155255Y349091
X144625Y347122
X144231Y338067
X133208Y338067
X133208Y342791
X133208Y347516
X133208Y352240
X135176Y364051
X137539Y364051
X149350Y358539
X160767Y358539
X171003Y359327
X169428Y352240
X171003Y348303
X170216Y345154
X182027Y352240
X186357Y357358
X182027Y366413
X189113Y367988
X186357Y342004
X159192Y315232
T02
X117420Y318185
X117420Y308185
X117420Y328185
X117420Y338185
X117420Y348185
X117420Y358185
X117420Y368185
X117420Y378185
X247420Y378185
X247420Y368185
X247420Y358185
X247420Y348185
X247420Y338185
X247420Y328185
X247420Y318185
X247420Y308185
X314271Y308185
X314271Y318185
X314271Y328185
X314271Y338185
X314271Y348185
X314271Y358185
X314271Y368185
X314271Y378185
X444271Y378185
X444271Y368185
X444271Y358185
X444271Y348185
X444271Y338185
X444271Y328185
X444271Y318185
X444271Y308185
X444271Y201020
X444271Y191020
X444271Y181020
X444271Y171020
X444271Y161020
X444271Y151020
X444271Y141020
X444271Y131020
X314271Y131020
X314271Y141020
X314271Y151020
X314271Y161020
X314271Y171020
X314271Y181020
X314271Y191020
X314271Y201020
X247420Y201020
X247420Y191020
X247420Y181020
X247420Y171020
X247420Y161020
X247420Y151020
X247420Y141020
X247420Y131020
X117420Y131020
X117420Y141020
X117420Y151020
X117420Y161020
X117420Y171020
X117420Y181020
X117420Y191020
X117420Y201020
T03
X119428Y219169
X119428Y290035
X119428Y396335
X245413Y396335
X316279Y396335
X316279Y290035
X245413Y290035
X245413Y219169
X316279Y219169
X316279Y112870
X245413Y112870
X119428Y112870
X442263Y112870
X442263Y219169
X442263Y290035
X442263Y396335
T04
X83995Y77437
X83995Y431768
X477696Y431768
X477696Y77437
M30
