G75*
%MOIN*%
%OFA0B0*%
%FSLAX25Y25*%
%IPPOS*%
%LPD*%
%AMOC8*
5,1,8,0,0,1.08239X$1,22.5*
%
%ADD10R,0.01575X0.05512*%
%ADD11R,0.07480X0.09055*%
%ADD12C,0.13398*%
%ADD13OC8,0.06706*%
%ADD14R,0.09055X0.02756*%
%ADD15R,0.09055X0.02559*%
%ADD16R,0.02362X0.01575*%
%ADD17R,0.01575X0.03150*%
%ADD18R,0.03150X0.01575*%
%ADD19R,0.08674X0.12611*%
%ADD20R,0.03150X0.04724*%
%ADD21R,0.04331X0.04331*%
%ADD22R,0.03150X0.03150*%
D10*
X0177499Y0148106D03*
X0179468Y0148106D03*
X0181436Y0148106D03*
X0183405Y0148106D03*
X0185373Y0148106D03*
X0187342Y0148106D03*
X0189310Y0148106D03*
X0191279Y0148106D03*
X0193247Y0148106D03*
X0195216Y0148106D03*
X0382224Y0148106D03*
X0384192Y0148106D03*
X0386161Y0148106D03*
X0388129Y0148106D03*
X0390098Y0148106D03*
X0392066Y0148106D03*
X0394035Y0148106D03*
X0396003Y0148106D03*
X0397972Y0148106D03*
X0399940Y0148106D03*
X0399940Y0325272D03*
X0397972Y0325272D03*
X0396003Y0325272D03*
X0394035Y0325272D03*
X0392066Y0325272D03*
X0390098Y0325272D03*
X0388129Y0325272D03*
X0386161Y0325272D03*
X0384192Y0325272D03*
X0382224Y0325272D03*
X0195216Y0325272D03*
X0193247Y0325272D03*
X0191279Y0325272D03*
X0189310Y0325272D03*
X0187342Y0325272D03*
X0185373Y0325272D03*
X0183405Y0325272D03*
X0181436Y0325272D03*
X0179468Y0325272D03*
X0177499Y0325272D03*
D11*
X0169822Y0311689D03*
X0202893Y0311689D03*
X0374546Y0311689D03*
X0407617Y0311689D03*
X0407617Y0134524D03*
X0374546Y0134524D03*
X0202893Y0134524D03*
X0169822Y0134524D03*
D12*
X0119428Y0112870D03*
X0119428Y0219169D03*
X0119428Y0290035D03*
X0119428Y0396335D03*
X0253287Y0396335D03*
X0324153Y0396335D03*
X0324153Y0290035D03*
X0253287Y0290035D03*
X0253287Y0219169D03*
X0324153Y0219169D03*
X0324153Y0112870D03*
X0253287Y0112870D03*
X0458011Y0112870D03*
X0458011Y0219169D03*
X0458011Y0290035D03*
X0458011Y0396335D03*
D13*
X0461082Y0378185D03*
X0461082Y0368185D03*
X0461082Y0358185D03*
X0461082Y0348185D03*
X0461082Y0338185D03*
X0461082Y0328185D03*
X0461082Y0318185D03*
X0461082Y0308185D03*
X0461082Y0201020D03*
X0461082Y0191020D03*
X0461082Y0181020D03*
X0461082Y0171020D03*
X0461082Y0161020D03*
X0461082Y0151020D03*
X0461082Y0141020D03*
X0461082Y0131020D03*
X0321082Y0131022D03*
X0321082Y0141022D03*
X0321082Y0151022D03*
X0321082Y0161022D03*
X0321082Y0171022D03*
X0321082Y0181022D03*
X0321082Y0191022D03*
X0321082Y0201022D03*
X0256357Y0201020D03*
X0256357Y0191020D03*
X0256357Y0181020D03*
X0256357Y0171020D03*
X0256357Y0161020D03*
X0256357Y0151020D03*
X0256357Y0141020D03*
X0256357Y0131020D03*
X0116357Y0131022D03*
X0116357Y0141022D03*
X0116357Y0151022D03*
X0116357Y0161022D03*
X0116357Y0171022D03*
X0116357Y0181022D03*
X0116357Y0191022D03*
X0116357Y0201022D03*
X0116357Y0308187D03*
X0116357Y0318187D03*
X0116357Y0328187D03*
X0116357Y0338187D03*
X0116357Y0348187D03*
X0116357Y0358187D03*
X0116357Y0368187D03*
X0116357Y0378187D03*
X0256357Y0378185D03*
X0256357Y0368185D03*
X0256357Y0358185D03*
X0256357Y0348185D03*
X0256357Y0338185D03*
X0256357Y0328185D03*
X0256357Y0318185D03*
X0256357Y0308185D03*
X0321082Y0308187D03*
X0321082Y0318187D03*
X0321082Y0328187D03*
X0321082Y0338187D03*
X0321082Y0348187D03*
X0321082Y0358187D03*
X0321082Y0368187D03*
X0321082Y0378187D03*
D14*
X0403680Y0368382D03*
X0403680Y0353421D03*
X0425728Y0353421D03*
X0425728Y0368382D03*
X0425728Y0191217D03*
X0425728Y0176256D03*
X0403680Y0176256D03*
X0403680Y0191217D03*
X0221003Y0191217D03*
X0221003Y0176256D03*
X0198956Y0176256D03*
X0198956Y0191217D03*
X0198956Y0353421D03*
X0198956Y0368382D03*
X0221003Y0368382D03*
X0221003Y0353421D03*
D15*
X0221003Y0358441D03*
X0221003Y0363362D03*
X0198956Y0363362D03*
X0198956Y0358441D03*
X0198956Y0186197D03*
X0198956Y0181276D03*
X0221003Y0181276D03*
X0221003Y0186197D03*
X0403680Y0186197D03*
X0403680Y0181276D03*
X0425728Y0181276D03*
X0425728Y0186197D03*
X0425728Y0358441D03*
X0425728Y0363362D03*
X0403680Y0363362D03*
X0403680Y0358441D03*
D16*
X0387932Y0353815D03*
X0387932Y0349878D03*
X0382420Y0349878D03*
X0382420Y0351846D03*
X0382420Y0353815D03*
X0382420Y0364051D03*
X0382420Y0366020D03*
X0382420Y0367988D03*
X0387932Y0367988D03*
X0387932Y0364051D03*
X0387932Y0190823D03*
X0387932Y0186886D03*
X0382420Y0186886D03*
X0382420Y0188854D03*
X0382420Y0190823D03*
X0382420Y0176650D03*
X0382420Y0174681D03*
X0382420Y0172713D03*
X0387932Y0172713D03*
X0387932Y0176650D03*
X0183208Y0176650D03*
X0183208Y0172713D03*
X0177696Y0172713D03*
X0177696Y0174681D03*
X0177696Y0176650D03*
X0177696Y0186886D03*
X0177696Y0188854D03*
X0177696Y0190823D03*
X0183208Y0190823D03*
X0183208Y0186886D03*
X0183208Y0349878D03*
X0183208Y0353815D03*
X0177696Y0353815D03*
X0177696Y0351846D03*
X0177696Y0349878D03*
X0177696Y0364051D03*
X0177696Y0366020D03*
X0177696Y0367988D03*
X0183208Y0367988D03*
X0183208Y0364051D03*
D17*
X0157027Y0354012D03*
X0151121Y0354012D03*
X0151121Y0336295D03*
X0157027Y0336295D03*
X0157027Y0176846D03*
X0151121Y0176846D03*
X0151121Y0159130D03*
X0157027Y0159130D03*
X0355846Y0159130D03*
X0361751Y0159130D03*
X0361751Y0176846D03*
X0355846Y0176846D03*
X0355846Y0336295D03*
X0361751Y0336295D03*
X0361751Y0354012D03*
X0355846Y0354012D03*
D18*
X0351909Y0352043D03*
X0351909Y0350075D03*
X0351909Y0348106D03*
X0351909Y0346138D03*
X0351909Y0344169D03*
X0351909Y0342201D03*
X0351909Y0340232D03*
X0351909Y0338264D03*
X0365688Y0338264D03*
X0365688Y0340232D03*
X0365688Y0342201D03*
X0365688Y0344169D03*
X0365688Y0346138D03*
X0365688Y0348106D03*
X0365688Y0350075D03*
X0365688Y0352043D03*
X0365688Y0174878D03*
X0365688Y0172909D03*
X0365688Y0170941D03*
X0365688Y0168972D03*
X0365688Y0167004D03*
X0365688Y0165035D03*
X0365688Y0163067D03*
X0365688Y0161098D03*
X0351909Y0161098D03*
X0351909Y0163067D03*
X0351909Y0165035D03*
X0351909Y0167004D03*
X0351909Y0168972D03*
X0351909Y0170941D03*
X0351909Y0172909D03*
X0351909Y0174878D03*
X0160964Y0174878D03*
X0160964Y0172909D03*
X0160964Y0170941D03*
X0160964Y0168972D03*
X0160964Y0167004D03*
X0160964Y0165035D03*
X0160964Y0163067D03*
X0160964Y0161098D03*
X0147184Y0161098D03*
X0147184Y0163067D03*
X0147184Y0165035D03*
X0147184Y0167004D03*
X0147184Y0168972D03*
X0147184Y0170941D03*
X0147184Y0172909D03*
X0147184Y0174878D03*
X0147184Y0338264D03*
X0147184Y0340232D03*
X0147184Y0342201D03*
X0147184Y0344169D03*
X0147184Y0346138D03*
X0147184Y0348106D03*
X0147184Y0350075D03*
X0147184Y0352043D03*
X0160964Y0352043D03*
X0160964Y0350075D03*
X0160964Y0348106D03*
X0160964Y0346138D03*
X0160964Y0344169D03*
X0160964Y0342201D03*
X0160964Y0340232D03*
X0160964Y0338264D03*
D19*
X0154074Y0345154D03*
X0154074Y0167988D03*
X0358798Y0167988D03*
X0358798Y0345154D03*
D20*
X0346791Y0374484D03*
X0341672Y0374484D03*
X0341672Y0381965D03*
X0346791Y0381965D03*
X0346791Y0204799D03*
X0341672Y0204799D03*
X0341672Y0197319D03*
X0346791Y0197319D03*
X0142066Y0197319D03*
X0136948Y0197319D03*
X0136948Y0204799D03*
X0142066Y0204799D03*
X0142066Y0374484D03*
X0136948Y0374484D03*
X0136948Y0381965D03*
X0142066Y0381965D03*
D21*
X0143444Y0388461D03*
X0136357Y0388461D03*
X0136357Y0367594D03*
X0143444Y0367594D03*
X0143444Y0211295D03*
X0136357Y0211295D03*
X0136357Y0190429D03*
X0143444Y0190429D03*
X0341082Y0190429D03*
X0348169Y0190429D03*
X0348169Y0211295D03*
X0341082Y0211295D03*
X0341082Y0367594D03*
X0348169Y0367594D03*
X0348169Y0388461D03*
X0341082Y0388461D03*
D22*
X0356436Y0358539D03*
X0361161Y0358539D03*
X0344625Y0356965D03*
X0339901Y0356965D03*
X0339901Y0352240D03*
X0344625Y0352240D03*
X0344625Y0347516D03*
X0339901Y0347516D03*
X0339901Y0342791D03*
X0339901Y0338067D03*
X0344625Y0338067D03*
X0344625Y0342791D03*
X0344625Y0333343D03*
X0339901Y0333343D03*
X0382814Y0358933D03*
X0387539Y0358933D03*
X0387539Y0373106D03*
X0382814Y0373106D03*
X0395019Y0338461D03*
X0399743Y0338461D03*
X0399743Y0331374D03*
X0395019Y0331374D03*
X0421003Y0373894D03*
X0425728Y0373894D03*
X0425728Y0196728D03*
X0421003Y0196728D03*
X0387539Y0195941D03*
X0382814Y0195941D03*
X0382814Y0181768D03*
X0387539Y0181768D03*
X0395019Y0161295D03*
X0399743Y0161295D03*
X0399743Y0154209D03*
X0395019Y0154209D03*
X0361161Y0181374D03*
X0356436Y0181374D03*
X0344625Y0179799D03*
X0344625Y0175075D03*
X0339901Y0175075D03*
X0339901Y0179799D03*
X0339901Y0170350D03*
X0339901Y0165626D03*
X0344625Y0165626D03*
X0344625Y0170350D03*
X0344625Y0160902D03*
X0339901Y0160902D03*
X0339901Y0156177D03*
X0344625Y0156177D03*
X0221003Y0196728D03*
X0216279Y0196728D03*
X0182814Y0195941D03*
X0178090Y0195941D03*
X0178090Y0181768D03*
X0182814Y0181768D03*
X0190294Y0161295D03*
X0195019Y0161295D03*
X0195019Y0154209D03*
X0190294Y0154209D03*
X0156436Y0181374D03*
X0151712Y0181374D03*
X0139901Y0179799D03*
X0139901Y0175075D03*
X0139901Y0170350D03*
X0139901Y0165626D03*
X0139901Y0160902D03*
X0135176Y0160902D03*
X0135176Y0165626D03*
X0135176Y0170350D03*
X0135176Y0175075D03*
X0135176Y0179799D03*
X0135176Y0156177D03*
X0139901Y0156177D03*
X0139901Y0333343D03*
X0139901Y0338067D03*
X0139901Y0342791D03*
X0135176Y0342791D03*
X0135176Y0338067D03*
X0135176Y0333343D03*
X0135176Y0347516D03*
X0135176Y0352240D03*
X0135176Y0356965D03*
X0139901Y0356965D03*
X0139901Y0352240D03*
X0139901Y0347516D03*
X0151712Y0358539D03*
X0156436Y0358539D03*
X0178090Y0358933D03*
X0182814Y0358933D03*
X0182814Y0373106D03*
X0178090Y0373106D03*
X0216279Y0373894D03*
X0221003Y0373894D03*
X0195019Y0338461D03*
X0190294Y0338461D03*
X0190294Y0331374D03*
X0195019Y0331374D03*
M02*
