G75*
%MOIN*%
%OFA0B0*%
%FSLAX25Y25*%
%IPPOS*%
%LPD*%
%AMOC8*
5,1,8,0,0,1.08239X$1,22.5*
%
%ADD10C,0.00000*%
%ADD11C,0.07874*%
%ADD12C,0.01181*%
%ADD13C,0.05512*%
%ADD14C,0.12598*%
D10*
X0064310Y0057752D02*
X0064310Y0451453D01*
X0497381Y0451453D01*
X0497381Y0057752D01*
X0064310Y0057752D01*
X0076121Y0077437D02*
X0076123Y0077630D01*
X0076130Y0077823D01*
X0076142Y0078016D01*
X0076159Y0078209D01*
X0076180Y0078401D01*
X0076206Y0078592D01*
X0076237Y0078783D01*
X0076272Y0078973D01*
X0076312Y0079162D01*
X0076357Y0079350D01*
X0076406Y0079537D01*
X0076460Y0079723D01*
X0076518Y0079907D01*
X0076581Y0080090D01*
X0076649Y0080271D01*
X0076720Y0080450D01*
X0076797Y0080628D01*
X0076877Y0080804D01*
X0076962Y0080977D01*
X0077051Y0081149D01*
X0077144Y0081318D01*
X0077241Y0081485D01*
X0077343Y0081650D01*
X0077448Y0081812D01*
X0077557Y0081971D01*
X0077671Y0082128D01*
X0077788Y0082281D01*
X0077908Y0082432D01*
X0078033Y0082580D01*
X0078161Y0082725D01*
X0078292Y0082866D01*
X0078427Y0083005D01*
X0078566Y0083140D01*
X0078707Y0083271D01*
X0078852Y0083399D01*
X0079000Y0083524D01*
X0079151Y0083644D01*
X0079304Y0083761D01*
X0079461Y0083875D01*
X0079620Y0083984D01*
X0079782Y0084089D01*
X0079947Y0084191D01*
X0080114Y0084288D01*
X0080283Y0084381D01*
X0080455Y0084470D01*
X0080628Y0084555D01*
X0080804Y0084635D01*
X0080982Y0084712D01*
X0081161Y0084783D01*
X0081342Y0084851D01*
X0081525Y0084914D01*
X0081709Y0084972D01*
X0081895Y0085026D01*
X0082082Y0085075D01*
X0082270Y0085120D01*
X0082459Y0085160D01*
X0082649Y0085195D01*
X0082840Y0085226D01*
X0083031Y0085252D01*
X0083223Y0085273D01*
X0083416Y0085290D01*
X0083609Y0085302D01*
X0083802Y0085309D01*
X0083995Y0085311D01*
X0084188Y0085309D01*
X0084381Y0085302D01*
X0084574Y0085290D01*
X0084767Y0085273D01*
X0084959Y0085252D01*
X0085150Y0085226D01*
X0085341Y0085195D01*
X0085531Y0085160D01*
X0085720Y0085120D01*
X0085908Y0085075D01*
X0086095Y0085026D01*
X0086281Y0084972D01*
X0086465Y0084914D01*
X0086648Y0084851D01*
X0086829Y0084783D01*
X0087008Y0084712D01*
X0087186Y0084635D01*
X0087362Y0084555D01*
X0087535Y0084470D01*
X0087707Y0084381D01*
X0087876Y0084288D01*
X0088043Y0084191D01*
X0088208Y0084089D01*
X0088370Y0083984D01*
X0088529Y0083875D01*
X0088686Y0083761D01*
X0088839Y0083644D01*
X0088990Y0083524D01*
X0089138Y0083399D01*
X0089283Y0083271D01*
X0089424Y0083140D01*
X0089563Y0083005D01*
X0089698Y0082866D01*
X0089829Y0082725D01*
X0089957Y0082580D01*
X0090082Y0082432D01*
X0090202Y0082281D01*
X0090319Y0082128D01*
X0090433Y0081971D01*
X0090542Y0081812D01*
X0090647Y0081650D01*
X0090749Y0081485D01*
X0090846Y0081318D01*
X0090939Y0081149D01*
X0091028Y0080977D01*
X0091113Y0080804D01*
X0091193Y0080628D01*
X0091270Y0080450D01*
X0091341Y0080271D01*
X0091409Y0080090D01*
X0091472Y0079907D01*
X0091530Y0079723D01*
X0091584Y0079537D01*
X0091633Y0079350D01*
X0091678Y0079162D01*
X0091718Y0078973D01*
X0091753Y0078783D01*
X0091784Y0078592D01*
X0091810Y0078401D01*
X0091831Y0078209D01*
X0091848Y0078016D01*
X0091860Y0077823D01*
X0091867Y0077630D01*
X0091869Y0077437D01*
X0091867Y0077244D01*
X0091860Y0077051D01*
X0091848Y0076858D01*
X0091831Y0076665D01*
X0091810Y0076473D01*
X0091784Y0076282D01*
X0091753Y0076091D01*
X0091718Y0075901D01*
X0091678Y0075712D01*
X0091633Y0075524D01*
X0091584Y0075337D01*
X0091530Y0075151D01*
X0091472Y0074967D01*
X0091409Y0074784D01*
X0091341Y0074603D01*
X0091270Y0074424D01*
X0091193Y0074246D01*
X0091113Y0074070D01*
X0091028Y0073897D01*
X0090939Y0073725D01*
X0090846Y0073556D01*
X0090749Y0073389D01*
X0090647Y0073224D01*
X0090542Y0073062D01*
X0090433Y0072903D01*
X0090319Y0072746D01*
X0090202Y0072593D01*
X0090082Y0072442D01*
X0089957Y0072294D01*
X0089829Y0072149D01*
X0089698Y0072008D01*
X0089563Y0071869D01*
X0089424Y0071734D01*
X0089283Y0071603D01*
X0089138Y0071475D01*
X0088990Y0071350D01*
X0088839Y0071230D01*
X0088686Y0071113D01*
X0088529Y0070999D01*
X0088370Y0070890D01*
X0088208Y0070785D01*
X0088043Y0070683D01*
X0087876Y0070586D01*
X0087707Y0070493D01*
X0087535Y0070404D01*
X0087362Y0070319D01*
X0087186Y0070239D01*
X0087008Y0070162D01*
X0086829Y0070091D01*
X0086648Y0070023D01*
X0086465Y0069960D01*
X0086281Y0069902D01*
X0086095Y0069848D01*
X0085908Y0069799D01*
X0085720Y0069754D01*
X0085531Y0069714D01*
X0085341Y0069679D01*
X0085150Y0069648D01*
X0084959Y0069622D01*
X0084767Y0069601D01*
X0084574Y0069584D01*
X0084381Y0069572D01*
X0084188Y0069565D01*
X0083995Y0069563D01*
X0083802Y0069565D01*
X0083609Y0069572D01*
X0083416Y0069584D01*
X0083223Y0069601D01*
X0083031Y0069622D01*
X0082840Y0069648D01*
X0082649Y0069679D01*
X0082459Y0069714D01*
X0082270Y0069754D01*
X0082082Y0069799D01*
X0081895Y0069848D01*
X0081709Y0069902D01*
X0081525Y0069960D01*
X0081342Y0070023D01*
X0081161Y0070091D01*
X0080982Y0070162D01*
X0080804Y0070239D01*
X0080628Y0070319D01*
X0080455Y0070404D01*
X0080283Y0070493D01*
X0080114Y0070586D01*
X0079947Y0070683D01*
X0079782Y0070785D01*
X0079620Y0070890D01*
X0079461Y0070999D01*
X0079304Y0071113D01*
X0079151Y0071230D01*
X0079000Y0071350D01*
X0078852Y0071475D01*
X0078707Y0071603D01*
X0078566Y0071734D01*
X0078427Y0071869D01*
X0078292Y0072008D01*
X0078161Y0072149D01*
X0078033Y0072294D01*
X0077908Y0072442D01*
X0077788Y0072593D01*
X0077671Y0072746D01*
X0077557Y0072903D01*
X0077448Y0073062D01*
X0077343Y0073224D01*
X0077241Y0073389D01*
X0077144Y0073556D01*
X0077051Y0073725D01*
X0076962Y0073897D01*
X0076877Y0074070D01*
X0076797Y0074246D01*
X0076720Y0074424D01*
X0076649Y0074603D01*
X0076581Y0074784D01*
X0076518Y0074967D01*
X0076460Y0075151D01*
X0076406Y0075337D01*
X0076357Y0075524D01*
X0076312Y0075712D01*
X0076272Y0075901D01*
X0076237Y0076091D01*
X0076206Y0076282D01*
X0076180Y0076473D01*
X0076159Y0076665D01*
X0076142Y0076858D01*
X0076130Y0077051D01*
X0076123Y0077244D01*
X0076121Y0077437D01*
X0099743Y0097122D02*
X0123759Y0097122D01*
X0099743Y0097122D02*
X0099362Y0097127D01*
X0098982Y0097140D01*
X0098602Y0097163D01*
X0098223Y0097196D01*
X0097845Y0097237D01*
X0097468Y0097287D01*
X0097092Y0097347D01*
X0096717Y0097415D01*
X0096345Y0097493D01*
X0095974Y0097580D01*
X0095606Y0097675D01*
X0095240Y0097780D01*
X0094877Y0097893D01*
X0094516Y0098015D01*
X0094159Y0098145D01*
X0093805Y0098285D01*
X0093454Y0098432D01*
X0093107Y0098589D01*
X0092764Y0098753D01*
X0092425Y0098926D01*
X0092090Y0099107D01*
X0091759Y0099296D01*
X0091434Y0099493D01*
X0091113Y0099697D01*
X0090797Y0099910D01*
X0090487Y0100130D01*
X0090181Y0100357D01*
X0089882Y0100592D01*
X0089588Y0100834D01*
X0089300Y0101082D01*
X0089018Y0101338D01*
X0088743Y0101601D01*
X0088474Y0101870D01*
X0088211Y0102145D01*
X0087955Y0102427D01*
X0087707Y0102715D01*
X0087465Y0103009D01*
X0087230Y0103308D01*
X0087003Y0103614D01*
X0086783Y0103924D01*
X0086570Y0104240D01*
X0086366Y0104561D01*
X0086169Y0104886D01*
X0085980Y0105217D01*
X0085799Y0105552D01*
X0085626Y0105891D01*
X0085462Y0106234D01*
X0085305Y0106581D01*
X0085158Y0106932D01*
X0085018Y0107286D01*
X0084888Y0107643D01*
X0084766Y0108004D01*
X0084653Y0108367D01*
X0084548Y0108733D01*
X0084453Y0109101D01*
X0084366Y0109472D01*
X0084288Y0109844D01*
X0084220Y0110219D01*
X0084160Y0110595D01*
X0084110Y0110972D01*
X0084069Y0111350D01*
X0084036Y0111729D01*
X0084013Y0112109D01*
X0084000Y0112489D01*
X0083995Y0112870D01*
X0083995Y0136886D01*
X0083995Y0195154D02*
X0083995Y0219169D01*
X0084000Y0219550D01*
X0084013Y0219930D01*
X0084036Y0220310D01*
X0084069Y0220689D01*
X0084110Y0221067D01*
X0084160Y0221444D01*
X0084220Y0221820D01*
X0084288Y0222195D01*
X0084366Y0222567D01*
X0084453Y0222938D01*
X0084548Y0223306D01*
X0084653Y0223672D01*
X0084766Y0224035D01*
X0084888Y0224396D01*
X0085018Y0224753D01*
X0085158Y0225107D01*
X0085305Y0225458D01*
X0085462Y0225805D01*
X0085626Y0226148D01*
X0085799Y0226487D01*
X0085980Y0226822D01*
X0086169Y0227153D01*
X0086366Y0227478D01*
X0086570Y0227799D01*
X0086783Y0228115D01*
X0087003Y0228425D01*
X0087230Y0228731D01*
X0087465Y0229030D01*
X0087707Y0229324D01*
X0087955Y0229612D01*
X0088211Y0229894D01*
X0088474Y0230169D01*
X0088743Y0230438D01*
X0089018Y0230701D01*
X0089300Y0230957D01*
X0089588Y0231205D01*
X0089882Y0231447D01*
X0090181Y0231682D01*
X0090487Y0231909D01*
X0090797Y0232129D01*
X0091113Y0232342D01*
X0091434Y0232546D01*
X0091759Y0232743D01*
X0092090Y0232932D01*
X0092425Y0233113D01*
X0092764Y0233286D01*
X0093107Y0233450D01*
X0093454Y0233607D01*
X0093805Y0233754D01*
X0094159Y0233894D01*
X0094516Y0234024D01*
X0094877Y0234146D01*
X0095240Y0234259D01*
X0095606Y0234364D01*
X0095974Y0234459D01*
X0096345Y0234546D01*
X0096717Y0234624D01*
X0097092Y0234692D01*
X0097468Y0234752D01*
X0097845Y0234802D01*
X0098223Y0234843D01*
X0098602Y0234876D01*
X0098982Y0234899D01*
X0099362Y0234912D01*
X0099743Y0234917D01*
X0123759Y0234917D01*
X0123759Y0274287D02*
X0099743Y0274287D01*
X0099362Y0274292D01*
X0098982Y0274305D01*
X0098602Y0274328D01*
X0098223Y0274361D01*
X0097845Y0274402D01*
X0097468Y0274452D01*
X0097092Y0274512D01*
X0096717Y0274580D01*
X0096345Y0274658D01*
X0095974Y0274745D01*
X0095606Y0274840D01*
X0095240Y0274945D01*
X0094877Y0275058D01*
X0094516Y0275180D01*
X0094159Y0275310D01*
X0093805Y0275450D01*
X0093454Y0275597D01*
X0093107Y0275754D01*
X0092764Y0275918D01*
X0092425Y0276091D01*
X0092090Y0276272D01*
X0091759Y0276461D01*
X0091434Y0276658D01*
X0091113Y0276862D01*
X0090797Y0277075D01*
X0090487Y0277295D01*
X0090181Y0277522D01*
X0089882Y0277757D01*
X0089588Y0277999D01*
X0089300Y0278247D01*
X0089018Y0278503D01*
X0088743Y0278766D01*
X0088474Y0279035D01*
X0088211Y0279310D01*
X0087955Y0279592D01*
X0087707Y0279880D01*
X0087465Y0280174D01*
X0087230Y0280473D01*
X0087003Y0280779D01*
X0086783Y0281089D01*
X0086570Y0281405D01*
X0086366Y0281726D01*
X0086169Y0282051D01*
X0085980Y0282382D01*
X0085799Y0282717D01*
X0085626Y0283056D01*
X0085462Y0283399D01*
X0085305Y0283746D01*
X0085158Y0284097D01*
X0085018Y0284451D01*
X0084888Y0284808D01*
X0084766Y0285169D01*
X0084653Y0285532D01*
X0084548Y0285898D01*
X0084453Y0286266D01*
X0084366Y0286637D01*
X0084288Y0287009D01*
X0084220Y0287384D01*
X0084160Y0287760D01*
X0084110Y0288137D01*
X0084069Y0288515D01*
X0084036Y0288894D01*
X0084013Y0289274D01*
X0084000Y0289654D01*
X0083995Y0290035D01*
X0083995Y0314051D01*
X0083995Y0372319D02*
X0083995Y0396335D01*
X0084000Y0396716D01*
X0084013Y0397096D01*
X0084036Y0397476D01*
X0084069Y0397855D01*
X0084110Y0398233D01*
X0084160Y0398610D01*
X0084220Y0398986D01*
X0084288Y0399361D01*
X0084366Y0399733D01*
X0084453Y0400104D01*
X0084548Y0400472D01*
X0084653Y0400838D01*
X0084766Y0401201D01*
X0084888Y0401562D01*
X0085018Y0401919D01*
X0085158Y0402273D01*
X0085305Y0402624D01*
X0085462Y0402971D01*
X0085626Y0403314D01*
X0085799Y0403653D01*
X0085980Y0403988D01*
X0086169Y0404319D01*
X0086366Y0404644D01*
X0086570Y0404965D01*
X0086783Y0405281D01*
X0087003Y0405591D01*
X0087230Y0405897D01*
X0087465Y0406196D01*
X0087707Y0406490D01*
X0087955Y0406778D01*
X0088211Y0407060D01*
X0088474Y0407335D01*
X0088743Y0407604D01*
X0089018Y0407867D01*
X0089300Y0408123D01*
X0089588Y0408371D01*
X0089882Y0408613D01*
X0090181Y0408848D01*
X0090487Y0409075D01*
X0090797Y0409295D01*
X0091113Y0409508D01*
X0091434Y0409712D01*
X0091759Y0409909D01*
X0092090Y0410098D01*
X0092425Y0410279D01*
X0092764Y0410452D01*
X0093107Y0410616D01*
X0093454Y0410773D01*
X0093805Y0410920D01*
X0094159Y0411060D01*
X0094516Y0411190D01*
X0094877Y0411312D01*
X0095240Y0411425D01*
X0095606Y0411530D01*
X0095974Y0411625D01*
X0096345Y0411712D01*
X0096717Y0411790D01*
X0097092Y0411858D01*
X0097468Y0411918D01*
X0097845Y0411968D01*
X0098223Y0412009D01*
X0098602Y0412042D01*
X0098982Y0412065D01*
X0099362Y0412078D01*
X0099743Y0412083D01*
X0123759Y0412083D01*
X0076121Y0431768D02*
X0076123Y0431961D01*
X0076130Y0432154D01*
X0076142Y0432347D01*
X0076159Y0432540D01*
X0076180Y0432732D01*
X0076206Y0432923D01*
X0076237Y0433114D01*
X0076272Y0433304D01*
X0076312Y0433493D01*
X0076357Y0433681D01*
X0076406Y0433868D01*
X0076460Y0434054D01*
X0076518Y0434238D01*
X0076581Y0434421D01*
X0076649Y0434602D01*
X0076720Y0434781D01*
X0076797Y0434959D01*
X0076877Y0435135D01*
X0076962Y0435308D01*
X0077051Y0435480D01*
X0077144Y0435649D01*
X0077241Y0435816D01*
X0077343Y0435981D01*
X0077448Y0436143D01*
X0077557Y0436302D01*
X0077671Y0436459D01*
X0077788Y0436612D01*
X0077908Y0436763D01*
X0078033Y0436911D01*
X0078161Y0437056D01*
X0078292Y0437197D01*
X0078427Y0437336D01*
X0078566Y0437471D01*
X0078707Y0437602D01*
X0078852Y0437730D01*
X0079000Y0437855D01*
X0079151Y0437975D01*
X0079304Y0438092D01*
X0079461Y0438206D01*
X0079620Y0438315D01*
X0079782Y0438420D01*
X0079947Y0438522D01*
X0080114Y0438619D01*
X0080283Y0438712D01*
X0080455Y0438801D01*
X0080628Y0438886D01*
X0080804Y0438966D01*
X0080982Y0439043D01*
X0081161Y0439114D01*
X0081342Y0439182D01*
X0081525Y0439245D01*
X0081709Y0439303D01*
X0081895Y0439357D01*
X0082082Y0439406D01*
X0082270Y0439451D01*
X0082459Y0439491D01*
X0082649Y0439526D01*
X0082840Y0439557D01*
X0083031Y0439583D01*
X0083223Y0439604D01*
X0083416Y0439621D01*
X0083609Y0439633D01*
X0083802Y0439640D01*
X0083995Y0439642D01*
X0084188Y0439640D01*
X0084381Y0439633D01*
X0084574Y0439621D01*
X0084767Y0439604D01*
X0084959Y0439583D01*
X0085150Y0439557D01*
X0085341Y0439526D01*
X0085531Y0439491D01*
X0085720Y0439451D01*
X0085908Y0439406D01*
X0086095Y0439357D01*
X0086281Y0439303D01*
X0086465Y0439245D01*
X0086648Y0439182D01*
X0086829Y0439114D01*
X0087008Y0439043D01*
X0087186Y0438966D01*
X0087362Y0438886D01*
X0087535Y0438801D01*
X0087707Y0438712D01*
X0087876Y0438619D01*
X0088043Y0438522D01*
X0088208Y0438420D01*
X0088370Y0438315D01*
X0088529Y0438206D01*
X0088686Y0438092D01*
X0088839Y0437975D01*
X0088990Y0437855D01*
X0089138Y0437730D01*
X0089283Y0437602D01*
X0089424Y0437471D01*
X0089563Y0437336D01*
X0089698Y0437197D01*
X0089829Y0437056D01*
X0089957Y0436911D01*
X0090082Y0436763D01*
X0090202Y0436612D01*
X0090319Y0436459D01*
X0090433Y0436302D01*
X0090542Y0436143D01*
X0090647Y0435981D01*
X0090749Y0435816D01*
X0090846Y0435649D01*
X0090939Y0435480D01*
X0091028Y0435308D01*
X0091113Y0435135D01*
X0091193Y0434959D01*
X0091270Y0434781D01*
X0091341Y0434602D01*
X0091409Y0434421D01*
X0091472Y0434238D01*
X0091530Y0434054D01*
X0091584Y0433868D01*
X0091633Y0433681D01*
X0091678Y0433493D01*
X0091718Y0433304D01*
X0091753Y0433114D01*
X0091784Y0432923D01*
X0091810Y0432732D01*
X0091831Y0432540D01*
X0091848Y0432347D01*
X0091860Y0432154D01*
X0091867Y0431961D01*
X0091869Y0431768D01*
X0091867Y0431575D01*
X0091860Y0431382D01*
X0091848Y0431189D01*
X0091831Y0430996D01*
X0091810Y0430804D01*
X0091784Y0430613D01*
X0091753Y0430422D01*
X0091718Y0430232D01*
X0091678Y0430043D01*
X0091633Y0429855D01*
X0091584Y0429668D01*
X0091530Y0429482D01*
X0091472Y0429298D01*
X0091409Y0429115D01*
X0091341Y0428934D01*
X0091270Y0428755D01*
X0091193Y0428577D01*
X0091113Y0428401D01*
X0091028Y0428228D01*
X0090939Y0428056D01*
X0090846Y0427887D01*
X0090749Y0427720D01*
X0090647Y0427555D01*
X0090542Y0427393D01*
X0090433Y0427234D01*
X0090319Y0427077D01*
X0090202Y0426924D01*
X0090082Y0426773D01*
X0089957Y0426625D01*
X0089829Y0426480D01*
X0089698Y0426339D01*
X0089563Y0426200D01*
X0089424Y0426065D01*
X0089283Y0425934D01*
X0089138Y0425806D01*
X0088990Y0425681D01*
X0088839Y0425561D01*
X0088686Y0425444D01*
X0088529Y0425330D01*
X0088370Y0425221D01*
X0088208Y0425116D01*
X0088043Y0425014D01*
X0087876Y0424917D01*
X0087707Y0424824D01*
X0087535Y0424735D01*
X0087362Y0424650D01*
X0087186Y0424570D01*
X0087008Y0424493D01*
X0086829Y0424422D01*
X0086648Y0424354D01*
X0086465Y0424291D01*
X0086281Y0424233D01*
X0086095Y0424179D01*
X0085908Y0424130D01*
X0085720Y0424085D01*
X0085531Y0424045D01*
X0085341Y0424010D01*
X0085150Y0423979D01*
X0084959Y0423953D01*
X0084767Y0423932D01*
X0084574Y0423915D01*
X0084381Y0423903D01*
X0084188Y0423896D01*
X0083995Y0423894D01*
X0083802Y0423896D01*
X0083609Y0423903D01*
X0083416Y0423915D01*
X0083223Y0423932D01*
X0083031Y0423953D01*
X0082840Y0423979D01*
X0082649Y0424010D01*
X0082459Y0424045D01*
X0082270Y0424085D01*
X0082082Y0424130D01*
X0081895Y0424179D01*
X0081709Y0424233D01*
X0081525Y0424291D01*
X0081342Y0424354D01*
X0081161Y0424422D01*
X0080982Y0424493D01*
X0080804Y0424570D01*
X0080628Y0424650D01*
X0080455Y0424735D01*
X0080283Y0424824D01*
X0080114Y0424917D01*
X0079947Y0425014D01*
X0079782Y0425116D01*
X0079620Y0425221D01*
X0079461Y0425330D01*
X0079304Y0425444D01*
X0079151Y0425561D01*
X0079000Y0425681D01*
X0078852Y0425806D01*
X0078707Y0425934D01*
X0078566Y0426065D01*
X0078427Y0426200D01*
X0078292Y0426339D01*
X0078161Y0426480D01*
X0078033Y0426625D01*
X0077908Y0426773D01*
X0077788Y0426924D01*
X0077671Y0427077D01*
X0077557Y0427234D01*
X0077448Y0427393D01*
X0077343Y0427555D01*
X0077241Y0427720D01*
X0077144Y0427887D01*
X0077051Y0428056D01*
X0076962Y0428228D01*
X0076877Y0428401D01*
X0076797Y0428577D01*
X0076720Y0428755D01*
X0076649Y0428934D01*
X0076581Y0429115D01*
X0076518Y0429298D01*
X0076460Y0429482D01*
X0076406Y0429668D01*
X0076357Y0429855D01*
X0076312Y0430043D01*
X0076272Y0430232D01*
X0076237Y0430422D01*
X0076206Y0430613D01*
X0076180Y0430804D01*
X0076159Y0430996D01*
X0076142Y0431189D01*
X0076130Y0431382D01*
X0076123Y0431575D01*
X0076121Y0431768D01*
X0170216Y0412083D02*
X0194231Y0412083D01*
X0194612Y0412078D01*
X0194992Y0412065D01*
X0195372Y0412042D01*
X0195751Y0412009D01*
X0196129Y0411968D01*
X0196506Y0411918D01*
X0196882Y0411858D01*
X0197257Y0411790D01*
X0197629Y0411712D01*
X0198000Y0411625D01*
X0198368Y0411530D01*
X0198734Y0411425D01*
X0199097Y0411312D01*
X0199458Y0411190D01*
X0199815Y0411060D01*
X0200169Y0410920D01*
X0200520Y0410773D01*
X0200867Y0410616D01*
X0201210Y0410452D01*
X0201549Y0410279D01*
X0201884Y0410098D01*
X0202215Y0409909D01*
X0202540Y0409712D01*
X0202861Y0409508D01*
X0203177Y0409295D01*
X0203487Y0409075D01*
X0203793Y0408848D01*
X0204092Y0408613D01*
X0204386Y0408371D01*
X0204674Y0408123D01*
X0204956Y0407867D01*
X0205231Y0407604D01*
X0205500Y0407335D01*
X0205763Y0407060D01*
X0206019Y0406778D01*
X0206267Y0406490D01*
X0206509Y0406196D01*
X0206744Y0405897D01*
X0206971Y0405591D01*
X0207191Y0405281D01*
X0207404Y0404965D01*
X0207608Y0404644D01*
X0207805Y0404319D01*
X0207994Y0403988D01*
X0208175Y0403653D01*
X0208348Y0403314D01*
X0208512Y0402971D01*
X0208669Y0402624D01*
X0208816Y0402273D01*
X0208956Y0401919D01*
X0209086Y0401562D01*
X0209208Y0401201D01*
X0209321Y0400838D01*
X0209426Y0400472D01*
X0209521Y0400104D01*
X0209608Y0399733D01*
X0209686Y0399361D01*
X0209754Y0398986D01*
X0209814Y0398610D01*
X0209864Y0398233D01*
X0209905Y0397855D01*
X0209938Y0397476D01*
X0209961Y0397096D01*
X0209974Y0396716D01*
X0209979Y0396335D01*
X0209980Y0396335D02*
X0209980Y0372319D01*
X0217854Y0372319D02*
X0217854Y0396335D01*
X0217859Y0396716D01*
X0217872Y0397096D01*
X0217895Y0397476D01*
X0217928Y0397855D01*
X0217969Y0398233D01*
X0218019Y0398610D01*
X0218079Y0398986D01*
X0218147Y0399361D01*
X0218225Y0399733D01*
X0218312Y0400104D01*
X0218407Y0400472D01*
X0218512Y0400838D01*
X0218625Y0401201D01*
X0218747Y0401562D01*
X0218877Y0401919D01*
X0219017Y0402273D01*
X0219164Y0402624D01*
X0219321Y0402971D01*
X0219485Y0403314D01*
X0219658Y0403653D01*
X0219839Y0403988D01*
X0220028Y0404319D01*
X0220225Y0404644D01*
X0220429Y0404965D01*
X0220642Y0405281D01*
X0220862Y0405591D01*
X0221089Y0405897D01*
X0221324Y0406196D01*
X0221566Y0406490D01*
X0221814Y0406778D01*
X0222070Y0407060D01*
X0222333Y0407335D01*
X0222602Y0407604D01*
X0222877Y0407867D01*
X0223159Y0408123D01*
X0223447Y0408371D01*
X0223741Y0408613D01*
X0224040Y0408848D01*
X0224346Y0409075D01*
X0224656Y0409295D01*
X0224972Y0409508D01*
X0225293Y0409712D01*
X0225618Y0409909D01*
X0225949Y0410098D01*
X0226284Y0410279D01*
X0226623Y0410452D01*
X0226966Y0410616D01*
X0227313Y0410773D01*
X0227664Y0410920D01*
X0228018Y0411060D01*
X0228375Y0411190D01*
X0228736Y0411312D01*
X0229099Y0411425D01*
X0229465Y0411530D01*
X0229833Y0411625D01*
X0230204Y0411712D01*
X0230576Y0411790D01*
X0230951Y0411858D01*
X0231327Y0411918D01*
X0231704Y0411968D01*
X0232082Y0412009D01*
X0232461Y0412042D01*
X0232841Y0412065D01*
X0233221Y0412078D01*
X0233602Y0412083D01*
X0257617Y0412083D01*
X0304074Y0412083D02*
X0328090Y0412083D01*
X0328471Y0412078D01*
X0328851Y0412065D01*
X0329231Y0412042D01*
X0329610Y0412009D01*
X0329988Y0411968D01*
X0330365Y0411918D01*
X0330741Y0411858D01*
X0331116Y0411790D01*
X0331488Y0411712D01*
X0331859Y0411625D01*
X0332227Y0411530D01*
X0332593Y0411425D01*
X0332956Y0411312D01*
X0333317Y0411190D01*
X0333674Y0411060D01*
X0334028Y0410920D01*
X0334379Y0410773D01*
X0334726Y0410616D01*
X0335069Y0410452D01*
X0335408Y0410279D01*
X0335743Y0410098D01*
X0336074Y0409909D01*
X0336399Y0409712D01*
X0336720Y0409508D01*
X0337036Y0409295D01*
X0337346Y0409075D01*
X0337652Y0408848D01*
X0337951Y0408613D01*
X0338245Y0408371D01*
X0338533Y0408123D01*
X0338815Y0407867D01*
X0339090Y0407604D01*
X0339359Y0407335D01*
X0339622Y0407060D01*
X0339878Y0406778D01*
X0340126Y0406490D01*
X0340368Y0406196D01*
X0340603Y0405897D01*
X0340830Y0405591D01*
X0341050Y0405281D01*
X0341263Y0404965D01*
X0341467Y0404644D01*
X0341664Y0404319D01*
X0341853Y0403988D01*
X0342034Y0403653D01*
X0342207Y0403314D01*
X0342371Y0402971D01*
X0342528Y0402624D01*
X0342675Y0402273D01*
X0342815Y0401919D01*
X0342945Y0401562D01*
X0343067Y0401201D01*
X0343180Y0400838D01*
X0343285Y0400472D01*
X0343380Y0400104D01*
X0343467Y0399733D01*
X0343545Y0399361D01*
X0343613Y0398986D01*
X0343673Y0398610D01*
X0343723Y0398233D01*
X0343764Y0397855D01*
X0343797Y0397476D01*
X0343820Y0397096D01*
X0343833Y0396716D01*
X0343838Y0396335D01*
X0343838Y0372319D01*
X0351712Y0372319D02*
X0351712Y0396335D01*
X0351717Y0396716D01*
X0351730Y0397096D01*
X0351753Y0397476D01*
X0351786Y0397855D01*
X0351827Y0398233D01*
X0351877Y0398610D01*
X0351937Y0398986D01*
X0352005Y0399361D01*
X0352083Y0399733D01*
X0352170Y0400104D01*
X0352265Y0400472D01*
X0352370Y0400838D01*
X0352483Y0401201D01*
X0352605Y0401562D01*
X0352735Y0401919D01*
X0352875Y0402273D01*
X0353022Y0402624D01*
X0353179Y0402971D01*
X0353343Y0403314D01*
X0353516Y0403653D01*
X0353697Y0403988D01*
X0353886Y0404319D01*
X0354083Y0404644D01*
X0354287Y0404965D01*
X0354500Y0405281D01*
X0354720Y0405591D01*
X0354947Y0405897D01*
X0355182Y0406196D01*
X0355424Y0406490D01*
X0355672Y0406778D01*
X0355928Y0407060D01*
X0356191Y0407335D01*
X0356460Y0407604D01*
X0356735Y0407867D01*
X0357017Y0408123D01*
X0357305Y0408371D01*
X0357599Y0408613D01*
X0357898Y0408848D01*
X0358204Y0409075D01*
X0358514Y0409295D01*
X0358830Y0409508D01*
X0359151Y0409712D01*
X0359476Y0409909D01*
X0359807Y0410098D01*
X0360142Y0410279D01*
X0360481Y0410452D01*
X0360824Y0410616D01*
X0361171Y0410773D01*
X0361522Y0410920D01*
X0361876Y0411060D01*
X0362233Y0411190D01*
X0362594Y0411312D01*
X0362957Y0411425D01*
X0363323Y0411530D01*
X0363691Y0411625D01*
X0364062Y0411712D01*
X0364434Y0411790D01*
X0364809Y0411858D01*
X0365185Y0411918D01*
X0365562Y0411968D01*
X0365940Y0412009D01*
X0366319Y0412042D01*
X0366699Y0412065D01*
X0367079Y0412078D01*
X0367460Y0412083D01*
X0391476Y0412083D01*
X0437932Y0412083D02*
X0461948Y0412083D01*
X0462329Y0412078D01*
X0462709Y0412065D01*
X0463089Y0412042D01*
X0463468Y0412009D01*
X0463846Y0411968D01*
X0464223Y0411918D01*
X0464599Y0411858D01*
X0464974Y0411790D01*
X0465346Y0411712D01*
X0465717Y0411625D01*
X0466085Y0411530D01*
X0466451Y0411425D01*
X0466814Y0411312D01*
X0467175Y0411190D01*
X0467532Y0411060D01*
X0467886Y0410920D01*
X0468237Y0410773D01*
X0468584Y0410616D01*
X0468927Y0410452D01*
X0469266Y0410279D01*
X0469601Y0410098D01*
X0469932Y0409909D01*
X0470257Y0409712D01*
X0470578Y0409508D01*
X0470894Y0409295D01*
X0471204Y0409075D01*
X0471510Y0408848D01*
X0471809Y0408613D01*
X0472103Y0408371D01*
X0472391Y0408123D01*
X0472673Y0407867D01*
X0472948Y0407604D01*
X0473217Y0407335D01*
X0473480Y0407060D01*
X0473736Y0406778D01*
X0473984Y0406490D01*
X0474226Y0406196D01*
X0474461Y0405897D01*
X0474688Y0405591D01*
X0474908Y0405281D01*
X0475121Y0404965D01*
X0475325Y0404644D01*
X0475522Y0404319D01*
X0475711Y0403988D01*
X0475892Y0403653D01*
X0476065Y0403314D01*
X0476229Y0402971D01*
X0476386Y0402624D01*
X0476533Y0402273D01*
X0476673Y0401919D01*
X0476803Y0401562D01*
X0476925Y0401201D01*
X0477038Y0400838D01*
X0477143Y0400472D01*
X0477238Y0400104D01*
X0477325Y0399733D01*
X0477403Y0399361D01*
X0477471Y0398986D01*
X0477531Y0398610D01*
X0477581Y0398233D01*
X0477622Y0397855D01*
X0477655Y0397476D01*
X0477678Y0397096D01*
X0477691Y0396716D01*
X0477696Y0396335D01*
X0477696Y0372319D01*
X0477696Y0314051D02*
X0477696Y0290035D01*
X0477691Y0289654D01*
X0477678Y0289274D01*
X0477655Y0288894D01*
X0477622Y0288515D01*
X0477581Y0288137D01*
X0477531Y0287760D01*
X0477471Y0287384D01*
X0477403Y0287009D01*
X0477325Y0286637D01*
X0477238Y0286266D01*
X0477143Y0285898D01*
X0477038Y0285532D01*
X0476925Y0285169D01*
X0476803Y0284808D01*
X0476673Y0284451D01*
X0476533Y0284097D01*
X0476386Y0283746D01*
X0476229Y0283399D01*
X0476065Y0283056D01*
X0475892Y0282717D01*
X0475711Y0282382D01*
X0475522Y0282051D01*
X0475325Y0281726D01*
X0475121Y0281405D01*
X0474908Y0281089D01*
X0474688Y0280779D01*
X0474461Y0280473D01*
X0474226Y0280174D01*
X0473984Y0279880D01*
X0473736Y0279592D01*
X0473480Y0279310D01*
X0473217Y0279035D01*
X0472948Y0278766D01*
X0472673Y0278503D01*
X0472391Y0278247D01*
X0472103Y0277999D01*
X0471809Y0277757D01*
X0471510Y0277522D01*
X0471204Y0277295D01*
X0470894Y0277075D01*
X0470578Y0276862D01*
X0470257Y0276658D01*
X0469932Y0276461D01*
X0469601Y0276272D01*
X0469266Y0276091D01*
X0468927Y0275918D01*
X0468584Y0275754D01*
X0468237Y0275597D01*
X0467886Y0275450D01*
X0467532Y0275310D01*
X0467175Y0275180D01*
X0466814Y0275058D01*
X0466451Y0274945D01*
X0466085Y0274840D01*
X0465717Y0274745D01*
X0465346Y0274658D01*
X0464974Y0274580D01*
X0464599Y0274512D01*
X0464223Y0274452D01*
X0463846Y0274402D01*
X0463468Y0274361D01*
X0463089Y0274328D01*
X0462709Y0274305D01*
X0462329Y0274292D01*
X0461948Y0274287D01*
X0437932Y0274287D01*
X0437932Y0234917D02*
X0461948Y0234917D01*
X0462329Y0234912D01*
X0462709Y0234899D01*
X0463089Y0234876D01*
X0463468Y0234843D01*
X0463846Y0234802D01*
X0464223Y0234752D01*
X0464599Y0234692D01*
X0464974Y0234624D01*
X0465346Y0234546D01*
X0465717Y0234459D01*
X0466085Y0234364D01*
X0466451Y0234259D01*
X0466814Y0234146D01*
X0467175Y0234024D01*
X0467532Y0233894D01*
X0467886Y0233754D01*
X0468237Y0233607D01*
X0468584Y0233450D01*
X0468927Y0233286D01*
X0469266Y0233113D01*
X0469601Y0232932D01*
X0469932Y0232743D01*
X0470257Y0232546D01*
X0470578Y0232342D01*
X0470894Y0232129D01*
X0471204Y0231909D01*
X0471510Y0231682D01*
X0471809Y0231447D01*
X0472103Y0231205D01*
X0472391Y0230957D01*
X0472673Y0230701D01*
X0472948Y0230438D01*
X0473217Y0230169D01*
X0473480Y0229894D01*
X0473736Y0229612D01*
X0473984Y0229324D01*
X0474226Y0229030D01*
X0474461Y0228731D01*
X0474688Y0228425D01*
X0474908Y0228115D01*
X0475121Y0227799D01*
X0475325Y0227478D01*
X0475522Y0227153D01*
X0475711Y0226822D01*
X0475892Y0226487D01*
X0476065Y0226148D01*
X0476229Y0225805D01*
X0476386Y0225458D01*
X0476533Y0225107D01*
X0476673Y0224753D01*
X0476803Y0224396D01*
X0476925Y0224035D01*
X0477038Y0223672D01*
X0477143Y0223306D01*
X0477238Y0222938D01*
X0477325Y0222567D01*
X0477403Y0222195D01*
X0477471Y0221820D01*
X0477531Y0221444D01*
X0477581Y0221067D01*
X0477622Y0220689D01*
X0477655Y0220310D01*
X0477678Y0219930D01*
X0477691Y0219550D01*
X0477696Y0219169D01*
X0477696Y0195154D01*
X0477696Y0136886D02*
X0477696Y0112870D01*
X0477691Y0112489D01*
X0477678Y0112109D01*
X0477655Y0111729D01*
X0477622Y0111350D01*
X0477581Y0110972D01*
X0477531Y0110595D01*
X0477471Y0110219D01*
X0477403Y0109844D01*
X0477325Y0109472D01*
X0477238Y0109101D01*
X0477143Y0108733D01*
X0477038Y0108367D01*
X0476925Y0108004D01*
X0476803Y0107643D01*
X0476673Y0107286D01*
X0476533Y0106932D01*
X0476386Y0106581D01*
X0476229Y0106234D01*
X0476065Y0105891D01*
X0475892Y0105552D01*
X0475711Y0105217D01*
X0475522Y0104886D01*
X0475325Y0104561D01*
X0475121Y0104240D01*
X0474908Y0103924D01*
X0474688Y0103614D01*
X0474461Y0103308D01*
X0474226Y0103009D01*
X0473984Y0102715D01*
X0473736Y0102427D01*
X0473480Y0102145D01*
X0473217Y0101870D01*
X0472948Y0101601D01*
X0472673Y0101338D01*
X0472391Y0101082D01*
X0472103Y0100834D01*
X0471809Y0100592D01*
X0471510Y0100357D01*
X0471204Y0100130D01*
X0470894Y0099910D01*
X0470578Y0099697D01*
X0470257Y0099493D01*
X0469932Y0099296D01*
X0469601Y0099107D01*
X0469266Y0098926D01*
X0468927Y0098753D01*
X0468584Y0098589D01*
X0468237Y0098432D01*
X0467886Y0098285D01*
X0467532Y0098145D01*
X0467175Y0098015D01*
X0466814Y0097893D01*
X0466451Y0097780D01*
X0466085Y0097675D01*
X0465717Y0097580D01*
X0465346Y0097493D01*
X0464974Y0097415D01*
X0464599Y0097347D01*
X0464223Y0097287D01*
X0463846Y0097237D01*
X0463468Y0097196D01*
X0463089Y0097163D01*
X0462709Y0097140D01*
X0462329Y0097127D01*
X0461948Y0097122D01*
X0437932Y0097122D01*
X0469822Y0077437D02*
X0469824Y0077630D01*
X0469831Y0077823D01*
X0469843Y0078016D01*
X0469860Y0078209D01*
X0469881Y0078401D01*
X0469907Y0078592D01*
X0469938Y0078783D01*
X0469973Y0078973D01*
X0470013Y0079162D01*
X0470058Y0079350D01*
X0470107Y0079537D01*
X0470161Y0079723D01*
X0470219Y0079907D01*
X0470282Y0080090D01*
X0470350Y0080271D01*
X0470421Y0080450D01*
X0470498Y0080628D01*
X0470578Y0080804D01*
X0470663Y0080977D01*
X0470752Y0081149D01*
X0470845Y0081318D01*
X0470942Y0081485D01*
X0471044Y0081650D01*
X0471149Y0081812D01*
X0471258Y0081971D01*
X0471372Y0082128D01*
X0471489Y0082281D01*
X0471609Y0082432D01*
X0471734Y0082580D01*
X0471862Y0082725D01*
X0471993Y0082866D01*
X0472128Y0083005D01*
X0472267Y0083140D01*
X0472408Y0083271D01*
X0472553Y0083399D01*
X0472701Y0083524D01*
X0472852Y0083644D01*
X0473005Y0083761D01*
X0473162Y0083875D01*
X0473321Y0083984D01*
X0473483Y0084089D01*
X0473648Y0084191D01*
X0473815Y0084288D01*
X0473984Y0084381D01*
X0474156Y0084470D01*
X0474329Y0084555D01*
X0474505Y0084635D01*
X0474683Y0084712D01*
X0474862Y0084783D01*
X0475043Y0084851D01*
X0475226Y0084914D01*
X0475410Y0084972D01*
X0475596Y0085026D01*
X0475783Y0085075D01*
X0475971Y0085120D01*
X0476160Y0085160D01*
X0476350Y0085195D01*
X0476541Y0085226D01*
X0476732Y0085252D01*
X0476924Y0085273D01*
X0477117Y0085290D01*
X0477310Y0085302D01*
X0477503Y0085309D01*
X0477696Y0085311D01*
X0477889Y0085309D01*
X0478082Y0085302D01*
X0478275Y0085290D01*
X0478468Y0085273D01*
X0478660Y0085252D01*
X0478851Y0085226D01*
X0479042Y0085195D01*
X0479232Y0085160D01*
X0479421Y0085120D01*
X0479609Y0085075D01*
X0479796Y0085026D01*
X0479982Y0084972D01*
X0480166Y0084914D01*
X0480349Y0084851D01*
X0480530Y0084783D01*
X0480709Y0084712D01*
X0480887Y0084635D01*
X0481063Y0084555D01*
X0481236Y0084470D01*
X0481408Y0084381D01*
X0481577Y0084288D01*
X0481744Y0084191D01*
X0481909Y0084089D01*
X0482071Y0083984D01*
X0482230Y0083875D01*
X0482387Y0083761D01*
X0482540Y0083644D01*
X0482691Y0083524D01*
X0482839Y0083399D01*
X0482984Y0083271D01*
X0483125Y0083140D01*
X0483264Y0083005D01*
X0483399Y0082866D01*
X0483530Y0082725D01*
X0483658Y0082580D01*
X0483783Y0082432D01*
X0483903Y0082281D01*
X0484020Y0082128D01*
X0484134Y0081971D01*
X0484243Y0081812D01*
X0484348Y0081650D01*
X0484450Y0081485D01*
X0484547Y0081318D01*
X0484640Y0081149D01*
X0484729Y0080977D01*
X0484814Y0080804D01*
X0484894Y0080628D01*
X0484971Y0080450D01*
X0485042Y0080271D01*
X0485110Y0080090D01*
X0485173Y0079907D01*
X0485231Y0079723D01*
X0485285Y0079537D01*
X0485334Y0079350D01*
X0485379Y0079162D01*
X0485419Y0078973D01*
X0485454Y0078783D01*
X0485485Y0078592D01*
X0485511Y0078401D01*
X0485532Y0078209D01*
X0485549Y0078016D01*
X0485561Y0077823D01*
X0485568Y0077630D01*
X0485570Y0077437D01*
X0485568Y0077244D01*
X0485561Y0077051D01*
X0485549Y0076858D01*
X0485532Y0076665D01*
X0485511Y0076473D01*
X0485485Y0076282D01*
X0485454Y0076091D01*
X0485419Y0075901D01*
X0485379Y0075712D01*
X0485334Y0075524D01*
X0485285Y0075337D01*
X0485231Y0075151D01*
X0485173Y0074967D01*
X0485110Y0074784D01*
X0485042Y0074603D01*
X0484971Y0074424D01*
X0484894Y0074246D01*
X0484814Y0074070D01*
X0484729Y0073897D01*
X0484640Y0073725D01*
X0484547Y0073556D01*
X0484450Y0073389D01*
X0484348Y0073224D01*
X0484243Y0073062D01*
X0484134Y0072903D01*
X0484020Y0072746D01*
X0483903Y0072593D01*
X0483783Y0072442D01*
X0483658Y0072294D01*
X0483530Y0072149D01*
X0483399Y0072008D01*
X0483264Y0071869D01*
X0483125Y0071734D01*
X0482984Y0071603D01*
X0482839Y0071475D01*
X0482691Y0071350D01*
X0482540Y0071230D01*
X0482387Y0071113D01*
X0482230Y0070999D01*
X0482071Y0070890D01*
X0481909Y0070785D01*
X0481744Y0070683D01*
X0481577Y0070586D01*
X0481408Y0070493D01*
X0481236Y0070404D01*
X0481063Y0070319D01*
X0480887Y0070239D01*
X0480709Y0070162D01*
X0480530Y0070091D01*
X0480349Y0070023D01*
X0480166Y0069960D01*
X0479982Y0069902D01*
X0479796Y0069848D01*
X0479609Y0069799D01*
X0479421Y0069754D01*
X0479232Y0069714D01*
X0479042Y0069679D01*
X0478851Y0069648D01*
X0478660Y0069622D01*
X0478468Y0069601D01*
X0478275Y0069584D01*
X0478082Y0069572D01*
X0477889Y0069565D01*
X0477696Y0069563D01*
X0477503Y0069565D01*
X0477310Y0069572D01*
X0477117Y0069584D01*
X0476924Y0069601D01*
X0476732Y0069622D01*
X0476541Y0069648D01*
X0476350Y0069679D01*
X0476160Y0069714D01*
X0475971Y0069754D01*
X0475783Y0069799D01*
X0475596Y0069848D01*
X0475410Y0069902D01*
X0475226Y0069960D01*
X0475043Y0070023D01*
X0474862Y0070091D01*
X0474683Y0070162D01*
X0474505Y0070239D01*
X0474329Y0070319D01*
X0474156Y0070404D01*
X0473984Y0070493D01*
X0473815Y0070586D01*
X0473648Y0070683D01*
X0473483Y0070785D01*
X0473321Y0070890D01*
X0473162Y0070999D01*
X0473005Y0071113D01*
X0472852Y0071230D01*
X0472701Y0071350D01*
X0472553Y0071475D01*
X0472408Y0071603D01*
X0472267Y0071734D01*
X0472128Y0071869D01*
X0471993Y0072008D01*
X0471862Y0072149D01*
X0471734Y0072294D01*
X0471609Y0072442D01*
X0471489Y0072593D01*
X0471372Y0072746D01*
X0471258Y0072903D01*
X0471149Y0073062D01*
X0471044Y0073224D01*
X0470942Y0073389D01*
X0470845Y0073556D01*
X0470752Y0073725D01*
X0470663Y0073897D01*
X0470578Y0074070D01*
X0470498Y0074246D01*
X0470421Y0074424D01*
X0470350Y0074603D01*
X0470282Y0074784D01*
X0470219Y0074967D01*
X0470161Y0075151D01*
X0470107Y0075337D01*
X0470058Y0075524D01*
X0470013Y0075712D01*
X0469973Y0075901D01*
X0469938Y0076091D01*
X0469907Y0076282D01*
X0469881Y0076473D01*
X0469860Y0076665D01*
X0469843Y0076858D01*
X0469831Y0077051D01*
X0469824Y0077244D01*
X0469822Y0077437D01*
X0391476Y0097122D02*
X0367460Y0097122D01*
X0367079Y0097127D01*
X0366699Y0097140D01*
X0366319Y0097163D01*
X0365940Y0097196D01*
X0365562Y0097237D01*
X0365185Y0097287D01*
X0364809Y0097347D01*
X0364434Y0097415D01*
X0364062Y0097493D01*
X0363691Y0097580D01*
X0363323Y0097675D01*
X0362957Y0097780D01*
X0362594Y0097893D01*
X0362233Y0098015D01*
X0361876Y0098145D01*
X0361522Y0098285D01*
X0361171Y0098432D01*
X0360824Y0098589D01*
X0360481Y0098753D01*
X0360142Y0098926D01*
X0359807Y0099107D01*
X0359476Y0099296D01*
X0359151Y0099493D01*
X0358830Y0099697D01*
X0358514Y0099910D01*
X0358204Y0100130D01*
X0357898Y0100357D01*
X0357599Y0100592D01*
X0357305Y0100834D01*
X0357017Y0101082D01*
X0356735Y0101338D01*
X0356460Y0101601D01*
X0356191Y0101870D01*
X0355928Y0102145D01*
X0355672Y0102427D01*
X0355424Y0102715D01*
X0355182Y0103009D01*
X0354947Y0103308D01*
X0354720Y0103614D01*
X0354500Y0103924D01*
X0354287Y0104240D01*
X0354083Y0104561D01*
X0353886Y0104886D01*
X0353697Y0105217D01*
X0353516Y0105552D01*
X0353343Y0105891D01*
X0353179Y0106234D01*
X0353022Y0106581D01*
X0352875Y0106932D01*
X0352735Y0107286D01*
X0352605Y0107643D01*
X0352483Y0108004D01*
X0352370Y0108367D01*
X0352265Y0108733D01*
X0352170Y0109101D01*
X0352083Y0109472D01*
X0352005Y0109844D01*
X0351937Y0110219D01*
X0351877Y0110595D01*
X0351827Y0110972D01*
X0351786Y0111350D01*
X0351753Y0111729D01*
X0351730Y0112109D01*
X0351717Y0112489D01*
X0351712Y0112870D01*
X0351712Y0136886D01*
X0343838Y0136886D02*
X0343838Y0112870D01*
X0343833Y0112489D01*
X0343820Y0112109D01*
X0343797Y0111729D01*
X0343764Y0111350D01*
X0343723Y0110972D01*
X0343673Y0110595D01*
X0343613Y0110219D01*
X0343545Y0109844D01*
X0343467Y0109472D01*
X0343380Y0109101D01*
X0343285Y0108733D01*
X0343180Y0108367D01*
X0343067Y0108004D01*
X0342945Y0107643D01*
X0342815Y0107286D01*
X0342675Y0106932D01*
X0342528Y0106581D01*
X0342371Y0106234D01*
X0342207Y0105891D01*
X0342034Y0105552D01*
X0341853Y0105217D01*
X0341664Y0104886D01*
X0341467Y0104561D01*
X0341263Y0104240D01*
X0341050Y0103924D01*
X0340830Y0103614D01*
X0340603Y0103308D01*
X0340368Y0103009D01*
X0340126Y0102715D01*
X0339878Y0102427D01*
X0339622Y0102145D01*
X0339359Y0101870D01*
X0339090Y0101601D01*
X0338815Y0101338D01*
X0338533Y0101082D01*
X0338245Y0100834D01*
X0337951Y0100592D01*
X0337652Y0100357D01*
X0337346Y0100130D01*
X0337036Y0099910D01*
X0336720Y0099697D01*
X0336399Y0099493D01*
X0336074Y0099296D01*
X0335743Y0099107D01*
X0335408Y0098926D01*
X0335069Y0098753D01*
X0334726Y0098589D01*
X0334379Y0098432D01*
X0334028Y0098285D01*
X0333674Y0098145D01*
X0333317Y0098015D01*
X0332956Y0097893D01*
X0332593Y0097780D01*
X0332227Y0097675D01*
X0331859Y0097580D01*
X0331488Y0097493D01*
X0331116Y0097415D01*
X0330741Y0097347D01*
X0330365Y0097287D01*
X0329988Y0097237D01*
X0329610Y0097196D01*
X0329231Y0097163D01*
X0328851Y0097140D01*
X0328471Y0097127D01*
X0328090Y0097122D01*
X0304074Y0097122D01*
X0257617Y0097122D02*
X0233602Y0097122D01*
X0233221Y0097127D01*
X0232841Y0097140D01*
X0232461Y0097163D01*
X0232082Y0097196D01*
X0231704Y0097237D01*
X0231327Y0097287D01*
X0230951Y0097347D01*
X0230576Y0097415D01*
X0230204Y0097493D01*
X0229833Y0097580D01*
X0229465Y0097675D01*
X0229099Y0097780D01*
X0228736Y0097893D01*
X0228375Y0098015D01*
X0228018Y0098145D01*
X0227664Y0098285D01*
X0227313Y0098432D01*
X0226966Y0098589D01*
X0226623Y0098753D01*
X0226284Y0098926D01*
X0225949Y0099107D01*
X0225618Y0099296D01*
X0225293Y0099493D01*
X0224972Y0099697D01*
X0224656Y0099910D01*
X0224346Y0100130D01*
X0224040Y0100357D01*
X0223741Y0100592D01*
X0223447Y0100834D01*
X0223159Y0101082D01*
X0222877Y0101338D01*
X0222602Y0101601D01*
X0222333Y0101870D01*
X0222070Y0102145D01*
X0221814Y0102427D01*
X0221566Y0102715D01*
X0221324Y0103009D01*
X0221089Y0103308D01*
X0220862Y0103614D01*
X0220642Y0103924D01*
X0220429Y0104240D01*
X0220225Y0104561D01*
X0220028Y0104886D01*
X0219839Y0105217D01*
X0219658Y0105552D01*
X0219485Y0105891D01*
X0219321Y0106234D01*
X0219164Y0106581D01*
X0219017Y0106932D01*
X0218877Y0107286D01*
X0218747Y0107643D01*
X0218625Y0108004D01*
X0218512Y0108367D01*
X0218407Y0108733D01*
X0218312Y0109101D01*
X0218225Y0109472D01*
X0218147Y0109844D01*
X0218079Y0110219D01*
X0218019Y0110595D01*
X0217969Y0110972D01*
X0217928Y0111350D01*
X0217895Y0111729D01*
X0217872Y0112109D01*
X0217859Y0112489D01*
X0217854Y0112870D01*
X0217854Y0136886D01*
X0209980Y0136886D02*
X0209980Y0112870D01*
X0209979Y0112870D02*
X0209974Y0112489D01*
X0209961Y0112109D01*
X0209938Y0111729D01*
X0209905Y0111350D01*
X0209864Y0110972D01*
X0209814Y0110595D01*
X0209754Y0110219D01*
X0209686Y0109844D01*
X0209608Y0109472D01*
X0209521Y0109101D01*
X0209426Y0108733D01*
X0209321Y0108367D01*
X0209208Y0108004D01*
X0209086Y0107643D01*
X0208956Y0107286D01*
X0208816Y0106932D01*
X0208669Y0106581D01*
X0208512Y0106234D01*
X0208348Y0105891D01*
X0208175Y0105552D01*
X0207994Y0105217D01*
X0207805Y0104886D01*
X0207608Y0104561D01*
X0207404Y0104240D01*
X0207191Y0103924D01*
X0206971Y0103614D01*
X0206744Y0103308D01*
X0206509Y0103009D01*
X0206267Y0102715D01*
X0206019Y0102427D01*
X0205763Y0102145D01*
X0205500Y0101870D01*
X0205231Y0101601D01*
X0204956Y0101338D01*
X0204674Y0101082D01*
X0204386Y0100834D01*
X0204092Y0100592D01*
X0203793Y0100357D01*
X0203487Y0100130D01*
X0203177Y0099910D01*
X0202861Y0099697D01*
X0202540Y0099493D01*
X0202215Y0099296D01*
X0201884Y0099107D01*
X0201549Y0098926D01*
X0201210Y0098753D01*
X0200867Y0098589D01*
X0200520Y0098432D01*
X0200169Y0098285D01*
X0199815Y0098145D01*
X0199458Y0098015D01*
X0199097Y0097893D01*
X0198734Y0097780D01*
X0198368Y0097675D01*
X0198000Y0097580D01*
X0197629Y0097493D01*
X0197257Y0097415D01*
X0196882Y0097347D01*
X0196506Y0097287D01*
X0196129Y0097237D01*
X0195751Y0097196D01*
X0195372Y0097163D01*
X0194992Y0097140D01*
X0194612Y0097127D01*
X0194231Y0097122D01*
X0170216Y0097122D01*
X0209980Y0195154D02*
X0209980Y0219169D01*
X0217854Y0219169D02*
X0217854Y0195154D01*
X0217854Y0219169D02*
X0217859Y0219550D01*
X0217872Y0219930D01*
X0217895Y0220310D01*
X0217928Y0220689D01*
X0217969Y0221067D01*
X0218019Y0221444D01*
X0218079Y0221820D01*
X0218147Y0222195D01*
X0218225Y0222567D01*
X0218312Y0222938D01*
X0218407Y0223306D01*
X0218512Y0223672D01*
X0218625Y0224035D01*
X0218747Y0224396D01*
X0218877Y0224753D01*
X0219017Y0225107D01*
X0219164Y0225458D01*
X0219321Y0225805D01*
X0219485Y0226148D01*
X0219658Y0226487D01*
X0219839Y0226822D01*
X0220028Y0227153D01*
X0220225Y0227478D01*
X0220429Y0227799D01*
X0220642Y0228115D01*
X0220862Y0228425D01*
X0221089Y0228731D01*
X0221324Y0229030D01*
X0221566Y0229324D01*
X0221814Y0229612D01*
X0222070Y0229894D01*
X0222333Y0230169D01*
X0222602Y0230438D01*
X0222877Y0230701D01*
X0223159Y0230957D01*
X0223447Y0231205D01*
X0223741Y0231447D01*
X0224040Y0231682D01*
X0224346Y0231909D01*
X0224656Y0232129D01*
X0224972Y0232342D01*
X0225293Y0232546D01*
X0225618Y0232743D01*
X0225949Y0232932D01*
X0226284Y0233113D01*
X0226623Y0233286D01*
X0226966Y0233450D01*
X0227313Y0233607D01*
X0227664Y0233754D01*
X0228018Y0233894D01*
X0228375Y0234024D01*
X0228736Y0234146D01*
X0229099Y0234259D01*
X0229465Y0234364D01*
X0229833Y0234459D01*
X0230204Y0234546D01*
X0230576Y0234624D01*
X0230951Y0234692D01*
X0231327Y0234752D01*
X0231704Y0234802D01*
X0232082Y0234843D01*
X0232461Y0234876D01*
X0232841Y0234899D01*
X0233221Y0234912D01*
X0233602Y0234917D01*
X0257617Y0234917D01*
X0257617Y0274287D02*
X0233602Y0274287D01*
X0233221Y0274292D01*
X0232841Y0274305D01*
X0232461Y0274328D01*
X0232082Y0274361D01*
X0231704Y0274402D01*
X0231327Y0274452D01*
X0230951Y0274512D01*
X0230576Y0274580D01*
X0230204Y0274658D01*
X0229833Y0274745D01*
X0229465Y0274840D01*
X0229099Y0274945D01*
X0228736Y0275058D01*
X0228375Y0275180D01*
X0228018Y0275310D01*
X0227664Y0275450D01*
X0227313Y0275597D01*
X0226966Y0275754D01*
X0226623Y0275918D01*
X0226284Y0276091D01*
X0225949Y0276272D01*
X0225618Y0276461D01*
X0225293Y0276658D01*
X0224972Y0276862D01*
X0224656Y0277075D01*
X0224346Y0277295D01*
X0224040Y0277522D01*
X0223741Y0277757D01*
X0223447Y0277999D01*
X0223159Y0278247D01*
X0222877Y0278503D01*
X0222602Y0278766D01*
X0222333Y0279035D01*
X0222070Y0279310D01*
X0221814Y0279592D01*
X0221566Y0279880D01*
X0221324Y0280174D01*
X0221089Y0280473D01*
X0220862Y0280779D01*
X0220642Y0281089D01*
X0220429Y0281405D01*
X0220225Y0281726D01*
X0220028Y0282051D01*
X0219839Y0282382D01*
X0219658Y0282717D01*
X0219485Y0283056D01*
X0219321Y0283399D01*
X0219164Y0283746D01*
X0219017Y0284097D01*
X0218877Y0284451D01*
X0218747Y0284808D01*
X0218625Y0285169D01*
X0218512Y0285532D01*
X0218407Y0285898D01*
X0218312Y0286266D01*
X0218225Y0286637D01*
X0218147Y0287009D01*
X0218079Y0287384D01*
X0218019Y0287760D01*
X0217969Y0288137D01*
X0217928Y0288515D01*
X0217895Y0288894D01*
X0217872Y0289274D01*
X0217859Y0289654D01*
X0217854Y0290035D01*
X0217854Y0314051D01*
X0209980Y0314051D02*
X0209980Y0290035D01*
X0209979Y0290035D02*
X0209974Y0289654D01*
X0209961Y0289274D01*
X0209938Y0288894D01*
X0209905Y0288515D01*
X0209864Y0288137D01*
X0209814Y0287760D01*
X0209754Y0287384D01*
X0209686Y0287009D01*
X0209608Y0286637D01*
X0209521Y0286266D01*
X0209426Y0285898D01*
X0209321Y0285532D01*
X0209208Y0285169D01*
X0209086Y0284808D01*
X0208956Y0284451D01*
X0208816Y0284097D01*
X0208669Y0283746D01*
X0208512Y0283399D01*
X0208348Y0283056D01*
X0208175Y0282717D01*
X0207994Y0282382D01*
X0207805Y0282051D01*
X0207608Y0281726D01*
X0207404Y0281405D01*
X0207191Y0281089D01*
X0206971Y0280779D01*
X0206744Y0280473D01*
X0206509Y0280174D01*
X0206267Y0279880D01*
X0206019Y0279592D01*
X0205763Y0279310D01*
X0205500Y0279035D01*
X0205231Y0278766D01*
X0204956Y0278503D01*
X0204674Y0278247D01*
X0204386Y0277999D01*
X0204092Y0277757D01*
X0203793Y0277522D01*
X0203487Y0277295D01*
X0203177Y0277075D01*
X0202861Y0276862D01*
X0202540Y0276658D01*
X0202215Y0276461D01*
X0201884Y0276272D01*
X0201549Y0276091D01*
X0201210Y0275918D01*
X0200867Y0275754D01*
X0200520Y0275597D01*
X0200169Y0275450D01*
X0199815Y0275310D01*
X0199458Y0275180D01*
X0199097Y0275058D01*
X0198734Y0274945D01*
X0198368Y0274840D01*
X0198000Y0274745D01*
X0197629Y0274658D01*
X0197257Y0274580D01*
X0196882Y0274512D01*
X0196506Y0274452D01*
X0196129Y0274402D01*
X0195751Y0274361D01*
X0195372Y0274328D01*
X0194992Y0274305D01*
X0194612Y0274292D01*
X0194231Y0274287D01*
X0170216Y0274287D01*
X0170216Y0234917D02*
X0194231Y0234917D01*
X0194612Y0234912D01*
X0194992Y0234899D01*
X0195372Y0234876D01*
X0195751Y0234843D01*
X0196129Y0234802D01*
X0196506Y0234752D01*
X0196882Y0234692D01*
X0197257Y0234624D01*
X0197629Y0234546D01*
X0198000Y0234459D01*
X0198368Y0234364D01*
X0198734Y0234259D01*
X0199097Y0234146D01*
X0199458Y0234024D01*
X0199815Y0233894D01*
X0200169Y0233754D01*
X0200520Y0233607D01*
X0200867Y0233450D01*
X0201210Y0233286D01*
X0201549Y0233113D01*
X0201884Y0232932D01*
X0202215Y0232743D01*
X0202540Y0232546D01*
X0202861Y0232342D01*
X0203177Y0232129D01*
X0203487Y0231909D01*
X0203793Y0231682D01*
X0204092Y0231447D01*
X0204386Y0231205D01*
X0204674Y0230957D01*
X0204956Y0230701D01*
X0205231Y0230438D01*
X0205500Y0230169D01*
X0205763Y0229894D01*
X0206019Y0229612D01*
X0206267Y0229324D01*
X0206509Y0229030D01*
X0206744Y0228731D01*
X0206971Y0228425D01*
X0207191Y0228115D01*
X0207404Y0227799D01*
X0207608Y0227478D01*
X0207805Y0227153D01*
X0207994Y0226822D01*
X0208175Y0226487D01*
X0208348Y0226148D01*
X0208512Y0225805D01*
X0208669Y0225458D01*
X0208816Y0225107D01*
X0208956Y0224753D01*
X0209086Y0224396D01*
X0209208Y0224035D01*
X0209321Y0223672D01*
X0209426Y0223306D01*
X0209521Y0222938D01*
X0209608Y0222567D01*
X0209686Y0222195D01*
X0209754Y0221820D01*
X0209814Y0221444D01*
X0209864Y0221067D01*
X0209905Y0220689D01*
X0209938Y0220310D01*
X0209961Y0219930D01*
X0209974Y0219550D01*
X0209979Y0219169D01*
X0304074Y0234917D02*
X0328090Y0234917D01*
X0328471Y0234912D01*
X0328851Y0234899D01*
X0329231Y0234876D01*
X0329610Y0234843D01*
X0329988Y0234802D01*
X0330365Y0234752D01*
X0330741Y0234692D01*
X0331116Y0234624D01*
X0331488Y0234546D01*
X0331859Y0234459D01*
X0332227Y0234364D01*
X0332593Y0234259D01*
X0332956Y0234146D01*
X0333317Y0234024D01*
X0333674Y0233894D01*
X0334028Y0233754D01*
X0334379Y0233607D01*
X0334726Y0233450D01*
X0335069Y0233286D01*
X0335408Y0233113D01*
X0335743Y0232932D01*
X0336074Y0232743D01*
X0336399Y0232546D01*
X0336720Y0232342D01*
X0337036Y0232129D01*
X0337346Y0231909D01*
X0337652Y0231682D01*
X0337951Y0231447D01*
X0338245Y0231205D01*
X0338533Y0230957D01*
X0338815Y0230701D01*
X0339090Y0230438D01*
X0339359Y0230169D01*
X0339622Y0229894D01*
X0339878Y0229612D01*
X0340126Y0229324D01*
X0340368Y0229030D01*
X0340603Y0228731D01*
X0340830Y0228425D01*
X0341050Y0228115D01*
X0341263Y0227799D01*
X0341467Y0227478D01*
X0341664Y0227153D01*
X0341853Y0226822D01*
X0342034Y0226487D01*
X0342207Y0226148D01*
X0342371Y0225805D01*
X0342528Y0225458D01*
X0342675Y0225107D01*
X0342815Y0224753D01*
X0342945Y0224396D01*
X0343067Y0224035D01*
X0343180Y0223672D01*
X0343285Y0223306D01*
X0343380Y0222938D01*
X0343467Y0222567D01*
X0343545Y0222195D01*
X0343613Y0221820D01*
X0343673Y0221444D01*
X0343723Y0221067D01*
X0343764Y0220689D01*
X0343797Y0220310D01*
X0343820Y0219930D01*
X0343833Y0219550D01*
X0343838Y0219169D01*
X0343838Y0195154D01*
X0351712Y0195154D02*
X0351712Y0219169D01*
X0351717Y0219550D01*
X0351730Y0219930D01*
X0351753Y0220310D01*
X0351786Y0220689D01*
X0351827Y0221067D01*
X0351877Y0221444D01*
X0351937Y0221820D01*
X0352005Y0222195D01*
X0352083Y0222567D01*
X0352170Y0222938D01*
X0352265Y0223306D01*
X0352370Y0223672D01*
X0352483Y0224035D01*
X0352605Y0224396D01*
X0352735Y0224753D01*
X0352875Y0225107D01*
X0353022Y0225458D01*
X0353179Y0225805D01*
X0353343Y0226148D01*
X0353516Y0226487D01*
X0353697Y0226822D01*
X0353886Y0227153D01*
X0354083Y0227478D01*
X0354287Y0227799D01*
X0354500Y0228115D01*
X0354720Y0228425D01*
X0354947Y0228731D01*
X0355182Y0229030D01*
X0355424Y0229324D01*
X0355672Y0229612D01*
X0355928Y0229894D01*
X0356191Y0230169D01*
X0356460Y0230438D01*
X0356735Y0230701D01*
X0357017Y0230957D01*
X0357305Y0231205D01*
X0357599Y0231447D01*
X0357898Y0231682D01*
X0358204Y0231909D01*
X0358514Y0232129D01*
X0358830Y0232342D01*
X0359151Y0232546D01*
X0359476Y0232743D01*
X0359807Y0232932D01*
X0360142Y0233113D01*
X0360481Y0233286D01*
X0360824Y0233450D01*
X0361171Y0233607D01*
X0361522Y0233754D01*
X0361876Y0233894D01*
X0362233Y0234024D01*
X0362594Y0234146D01*
X0362957Y0234259D01*
X0363323Y0234364D01*
X0363691Y0234459D01*
X0364062Y0234546D01*
X0364434Y0234624D01*
X0364809Y0234692D01*
X0365185Y0234752D01*
X0365562Y0234802D01*
X0365940Y0234843D01*
X0366319Y0234876D01*
X0366699Y0234899D01*
X0367079Y0234912D01*
X0367460Y0234917D01*
X0391476Y0234917D01*
X0391476Y0274287D02*
X0367460Y0274287D01*
X0367079Y0274292D01*
X0366699Y0274305D01*
X0366319Y0274328D01*
X0365940Y0274361D01*
X0365562Y0274402D01*
X0365185Y0274452D01*
X0364809Y0274512D01*
X0364434Y0274580D01*
X0364062Y0274658D01*
X0363691Y0274745D01*
X0363323Y0274840D01*
X0362957Y0274945D01*
X0362594Y0275058D01*
X0362233Y0275180D01*
X0361876Y0275310D01*
X0361522Y0275450D01*
X0361171Y0275597D01*
X0360824Y0275754D01*
X0360481Y0275918D01*
X0360142Y0276091D01*
X0359807Y0276272D01*
X0359476Y0276461D01*
X0359151Y0276658D01*
X0358830Y0276862D01*
X0358514Y0277075D01*
X0358204Y0277295D01*
X0357898Y0277522D01*
X0357599Y0277757D01*
X0357305Y0277999D01*
X0357017Y0278247D01*
X0356735Y0278503D01*
X0356460Y0278766D01*
X0356191Y0279035D01*
X0355928Y0279310D01*
X0355672Y0279592D01*
X0355424Y0279880D01*
X0355182Y0280174D01*
X0354947Y0280473D01*
X0354720Y0280779D01*
X0354500Y0281089D01*
X0354287Y0281405D01*
X0354083Y0281726D01*
X0353886Y0282051D01*
X0353697Y0282382D01*
X0353516Y0282717D01*
X0353343Y0283056D01*
X0353179Y0283399D01*
X0353022Y0283746D01*
X0352875Y0284097D01*
X0352735Y0284451D01*
X0352605Y0284808D01*
X0352483Y0285169D01*
X0352370Y0285532D01*
X0352265Y0285898D01*
X0352170Y0286266D01*
X0352083Y0286637D01*
X0352005Y0287009D01*
X0351937Y0287384D01*
X0351877Y0287760D01*
X0351827Y0288137D01*
X0351786Y0288515D01*
X0351753Y0288894D01*
X0351730Y0289274D01*
X0351717Y0289654D01*
X0351712Y0290035D01*
X0351712Y0314051D01*
X0343838Y0314051D02*
X0343838Y0290035D01*
X0343833Y0289654D01*
X0343820Y0289274D01*
X0343797Y0288894D01*
X0343764Y0288515D01*
X0343723Y0288137D01*
X0343673Y0287760D01*
X0343613Y0287384D01*
X0343545Y0287009D01*
X0343467Y0286637D01*
X0343380Y0286266D01*
X0343285Y0285898D01*
X0343180Y0285532D01*
X0343067Y0285169D01*
X0342945Y0284808D01*
X0342815Y0284451D01*
X0342675Y0284097D01*
X0342528Y0283746D01*
X0342371Y0283399D01*
X0342207Y0283056D01*
X0342034Y0282717D01*
X0341853Y0282382D01*
X0341664Y0282051D01*
X0341467Y0281726D01*
X0341263Y0281405D01*
X0341050Y0281089D01*
X0340830Y0280779D01*
X0340603Y0280473D01*
X0340368Y0280174D01*
X0340126Y0279880D01*
X0339878Y0279592D01*
X0339622Y0279310D01*
X0339359Y0279035D01*
X0339090Y0278766D01*
X0338815Y0278503D01*
X0338533Y0278247D01*
X0338245Y0277999D01*
X0337951Y0277757D01*
X0337652Y0277522D01*
X0337346Y0277295D01*
X0337036Y0277075D01*
X0336720Y0276862D01*
X0336399Y0276658D01*
X0336074Y0276461D01*
X0335743Y0276272D01*
X0335408Y0276091D01*
X0335069Y0275918D01*
X0334726Y0275754D01*
X0334379Y0275597D01*
X0334028Y0275450D01*
X0333674Y0275310D01*
X0333317Y0275180D01*
X0332956Y0275058D01*
X0332593Y0274945D01*
X0332227Y0274840D01*
X0331859Y0274745D01*
X0331488Y0274658D01*
X0331116Y0274580D01*
X0330741Y0274512D01*
X0330365Y0274452D01*
X0329988Y0274402D01*
X0329610Y0274361D01*
X0329231Y0274328D01*
X0328851Y0274305D01*
X0328471Y0274292D01*
X0328090Y0274287D01*
X0304074Y0274287D01*
X0469822Y0431768D02*
X0469824Y0431961D01*
X0469831Y0432154D01*
X0469843Y0432347D01*
X0469860Y0432540D01*
X0469881Y0432732D01*
X0469907Y0432923D01*
X0469938Y0433114D01*
X0469973Y0433304D01*
X0470013Y0433493D01*
X0470058Y0433681D01*
X0470107Y0433868D01*
X0470161Y0434054D01*
X0470219Y0434238D01*
X0470282Y0434421D01*
X0470350Y0434602D01*
X0470421Y0434781D01*
X0470498Y0434959D01*
X0470578Y0435135D01*
X0470663Y0435308D01*
X0470752Y0435480D01*
X0470845Y0435649D01*
X0470942Y0435816D01*
X0471044Y0435981D01*
X0471149Y0436143D01*
X0471258Y0436302D01*
X0471372Y0436459D01*
X0471489Y0436612D01*
X0471609Y0436763D01*
X0471734Y0436911D01*
X0471862Y0437056D01*
X0471993Y0437197D01*
X0472128Y0437336D01*
X0472267Y0437471D01*
X0472408Y0437602D01*
X0472553Y0437730D01*
X0472701Y0437855D01*
X0472852Y0437975D01*
X0473005Y0438092D01*
X0473162Y0438206D01*
X0473321Y0438315D01*
X0473483Y0438420D01*
X0473648Y0438522D01*
X0473815Y0438619D01*
X0473984Y0438712D01*
X0474156Y0438801D01*
X0474329Y0438886D01*
X0474505Y0438966D01*
X0474683Y0439043D01*
X0474862Y0439114D01*
X0475043Y0439182D01*
X0475226Y0439245D01*
X0475410Y0439303D01*
X0475596Y0439357D01*
X0475783Y0439406D01*
X0475971Y0439451D01*
X0476160Y0439491D01*
X0476350Y0439526D01*
X0476541Y0439557D01*
X0476732Y0439583D01*
X0476924Y0439604D01*
X0477117Y0439621D01*
X0477310Y0439633D01*
X0477503Y0439640D01*
X0477696Y0439642D01*
X0477889Y0439640D01*
X0478082Y0439633D01*
X0478275Y0439621D01*
X0478468Y0439604D01*
X0478660Y0439583D01*
X0478851Y0439557D01*
X0479042Y0439526D01*
X0479232Y0439491D01*
X0479421Y0439451D01*
X0479609Y0439406D01*
X0479796Y0439357D01*
X0479982Y0439303D01*
X0480166Y0439245D01*
X0480349Y0439182D01*
X0480530Y0439114D01*
X0480709Y0439043D01*
X0480887Y0438966D01*
X0481063Y0438886D01*
X0481236Y0438801D01*
X0481408Y0438712D01*
X0481577Y0438619D01*
X0481744Y0438522D01*
X0481909Y0438420D01*
X0482071Y0438315D01*
X0482230Y0438206D01*
X0482387Y0438092D01*
X0482540Y0437975D01*
X0482691Y0437855D01*
X0482839Y0437730D01*
X0482984Y0437602D01*
X0483125Y0437471D01*
X0483264Y0437336D01*
X0483399Y0437197D01*
X0483530Y0437056D01*
X0483658Y0436911D01*
X0483783Y0436763D01*
X0483903Y0436612D01*
X0484020Y0436459D01*
X0484134Y0436302D01*
X0484243Y0436143D01*
X0484348Y0435981D01*
X0484450Y0435816D01*
X0484547Y0435649D01*
X0484640Y0435480D01*
X0484729Y0435308D01*
X0484814Y0435135D01*
X0484894Y0434959D01*
X0484971Y0434781D01*
X0485042Y0434602D01*
X0485110Y0434421D01*
X0485173Y0434238D01*
X0485231Y0434054D01*
X0485285Y0433868D01*
X0485334Y0433681D01*
X0485379Y0433493D01*
X0485419Y0433304D01*
X0485454Y0433114D01*
X0485485Y0432923D01*
X0485511Y0432732D01*
X0485532Y0432540D01*
X0485549Y0432347D01*
X0485561Y0432154D01*
X0485568Y0431961D01*
X0485570Y0431768D01*
X0485568Y0431575D01*
X0485561Y0431382D01*
X0485549Y0431189D01*
X0485532Y0430996D01*
X0485511Y0430804D01*
X0485485Y0430613D01*
X0485454Y0430422D01*
X0485419Y0430232D01*
X0485379Y0430043D01*
X0485334Y0429855D01*
X0485285Y0429668D01*
X0485231Y0429482D01*
X0485173Y0429298D01*
X0485110Y0429115D01*
X0485042Y0428934D01*
X0484971Y0428755D01*
X0484894Y0428577D01*
X0484814Y0428401D01*
X0484729Y0428228D01*
X0484640Y0428056D01*
X0484547Y0427887D01*
X0484450Y0427720D01*
X0484348Y0427555D01*
X0484243Y0427393D01*
X0484134Y0427234D01*
X0484020Y0427077D01*
X0483903Y0426924D01*
X0483783Y0426773D01*
X0483658Y0426625D01*
X0483530Y0426480D01*
X0483399Y0426339D01*
X0483264Y0426200D01*
X0483125Y0426065D01*
X0482984Y0425934D01*
X0482839Y0425806D01*
X0482691Y0425681D01*
X0482540Y0425561D01*
X0482387Y0425444D01*
X0482230Y0425330D01*
X0482071Y0425221D01*
X0481909Y0425116D01*
X0481744Y0425014D01*
X0481577Y0424917D01*
X0481408Y0424824D01*
X0481236Y0424735D01*
X0481063Y0424650D01*
X0480887Y0424570D01*
X0480709Y0424493D01*
X0480530Y0424422D01*
X0480349Y0424354D01*
X0480166Y0424291D01*
X0479982Y0424233D01*
X0479796Y0424179D01*
X0479609Y0424130D01*
X0479421Y0424085D01*
X0479232Y0424045D01*
X0479042Y0424010D01*
X0478851Y0423979D01*
X0478660Y0423953D01*
X0478468Y0423932D01*
X0478275Y0423915D01*
X0478082Y0423903D01*
X0477889Y0423896D01*
X0477696Y0423894D01*
X0477503Y0423896D01*
X0477310Y0423903D01*
X0477117Y0423915D01*
X0476924Y0423932D01*
X0476732Y0423953D01*
X0476541Y0423979D01*
X0476350Y0424010D01*
X0476160Y0424045D01*
X0475971Y0424085D01*
X0475783Y0424130D01*
X0475596Y0424179D01*
X0475410Y0424233D01*
X0475226Y0424291D01*
X0475043Y0424354D01*
X0474862Y0424422D01*
X0474683Y0424493D01*
X0474505Y0424570D01*
X0474329Y0424650D01*
X0474156Y0424735D01*
X0473984Y0424824D01*
X0473815Y0424917D01*
X0473648Y0425014D01*
X0473483Y0425116D01*
X0473321Y0425221D01*
X0473162Y0425330D01*
X0473005Y0425444D01*
X0472852Y0425561D01*
X0472701Y0425681D01*
X0472553Y0425806D01*
X0472408Y0425934D01*
X0472267Y0426065D01*
X0472128Y0426200D01*
X0471993Y0426339D01*
X0471862Y0426480D01*
X0471734Y0426625D01*
X0471609Y0426773D01*
X0471489Y0426924D01*
X0471372Y0427077D01*
X0471258Y0427234D01*
X0471149Y0427393D01*
X0471044Y0427555D01*
X0470942Y0427720D01*
X0470845Y0427887D01*
X0470752Y0428056D01*
X0470663Y0428228D01*
X0470578Y0428401D01*
X0470498Y0428577D01*
X0470421Y0428755D01*
X0470350Y0428934D01*
X0470282Y0429115D01*
X0470219Y0429298D01*
X0470161Y0429482D01*
X0470107Y0429668D01*
X0470058Y0429855D01*
X0470013Y0430043D01*
X0469973Y0430232D01*
X0469938Y0430422D01*
X0469907Y0430613D01*
X0469881Y0430804D01*
X0469860Y0430996D01*
X0469843Y0431189D01*
X0469831Y0431382D01*
X0469824Y0431575D01*
X0469822Y0431768D01*
D11*
X0461948Y0416020D02*
X0441869Y0416020D01*
X0461948Y0416020D02*
X0462424Y0416014D01*
X0462899Y0415997D01*
X0463374Y0415968D01*
X0463848Y0415928D01*
X0464321Y0415876D01*
X0464792Y0415813D01*
X0465262Y0415739D01*
X0465730Y0415653D01*
X0466196Y0415556D01*
X0466659Y0415448D01*
X0467119Y0415329D01*
X0467577Y0415198D01*
X0468031Y0415057D01*
X0468482Y0414904D01*
X0468928Y0414741D01*
X0469371Y0414567D01*
X0469809Y0414382D01*
X0470243Y0414187D01*
X0470672Y0413981D01*
X0471096Y0413765D01*
X0471515Y0413539D01*
X0471928Y0413303D01*
X0472335Y0413057D01*
X0472736Y0412801D01*
X0473130Y0412535D01*
X0473519Y0412260D01*
X0473900Y0411976D01*
X0474274Y0411683D01*
X0474642Y0411381D01*
X0475002Y0411069D01*
X0475354Y0410750D01*
X0475698Y0410422D01*
X0476035Y0410085D01*
X0476363Y0409741D01*
X0476682Y0409389D01*
X0476994Y0409029D01*
X0477296Y0408661D01*
X0477589Y0408287D01*
X0477873Y0407906D01*
X0478148Y0407517D01*
X0478414Y0407123D01*
X0478670Y0406722D01*
X0478916Y0406315D01*
X0479152Y0405902D01*
X0479378Y0405483D01*
X0479594Y0405059D01*
X0479800Y0404630D01*
X0479995Y0404196D01*
X0480180Y0403758D01*
X0480354Y0403315D01*
X0480517Y0402869D01*
X0480670Y0402418D01*
X0480811Y0401964D01*
X0480942Y0401506D01*
X0481061Y0401046D01*
X0481169Y0400583D01*
X0481266Y0400117D01*
X0481352Y0399649D01*
X0481426Y0399179D01*
X0481489Y0398708D01*
X0481541Y0398235D01*
X0481581Y0397761D01*
X0481610Y0397286D01*
X0481627Y0396811D01*
X0481633Y0396335D01*
X0481633Y0376256D01*
X0481633Y0396335D02*
X0481633Y0290035D01*
X0481633Y0310114D01*
X0481633Y0290035D02*
X0481627Y0289559D01*
X0481610Y0289084D01*
X0481581Y0288609D01*
X0481541Y0288135D01*
X0481489Y0287662D01*
X0481426Y0287191D01*
X0481352Y0286721D01*
X0481266Y0286253D01*
X0481169Y0285787D01*
X0481061Y0285324D01*
X0480942Y0284864D01*
X0480811Y0284406D01*
X0480670Y0283952D01*
X0480517Y0283501D01*
X0480354Y0283055D01*
X0480180Y0282612D01*
X0479995Y0282174D01*
X0479800Y0281740D01*
X0479594Y0281311D01*
X0479378Y0280887D01*
X0479152Y0280468D01*
X0478916Y0280055D01*
X0478670Y0279648D01*
X0478414Y0279247D01*
X0478148Y0278853D01*
X0477873Y0278464D01*
X0477589Y0278083D01*
X0477296Y0277709D01*
X0476994Y0277341D01*
X0476682Y0276981D01*
X0476363Y0276629D01*
X0476035Y0276285D01*
X0475698Y0275948D01*
X0475354Y0275620D01*
X0475002Y0275301D01*
X0474642Y0274989D01*
X0474274Y0274687D01*
X0473900Y0274394D01*
X0473519Y0274110D01*
X0473130Y0273835D01*
X0472736Y0273569D01*
X0472335Y0273313D01*
X0471928Y0273067D01*
X0471515Y0272831D01*
X0471096Y0272605D01*
X0470672Y0272389D01*
X0470243Y0272183D01*
X0469809Y0271988D01*
X0469371Y0271803D01*
X0468928Y0271629D01*
X0468482Y0271466D01*
X0468031Y0271313D01*
X0467577Y0271172D01*
X0467119Y0271041D01*
X0466659Y0270922D01*
X0466196Y0270814D01*
X0465730Y0270717D01*
X0465262Y0270631D01*
X0464792Y0270557D01*
X0464321Y0270494D01*
X0463848Y0270442D01*
X0463374Y0270402D01*
X0462899Y0270373D01*
X0462424Y0270356D01*
X0461948Y0270350D01*
X0441869Y0270350D01*
X0441869Y0238854D02*
X0461948Y0238854D01*
X0462424Y0238848D01*
X0462899Y0238831D01*
X0463374Y0238802D01*
X0463848Y0238762D01*
X0464321Y0238710D01*
X0464792Y0238647D01*
X0465262Y0238573D01*
X0465730Y0238487D01*
X0466196Y0238390D01*
X0466659Y0238282D01*
X0467119Y0238163D01*
X0467577Y0238032D01*
X0468031Y0237891D01*
X0468482Y0237738D01*
X0468928Y0237575D01*
X0469371Y0237401D01*
X0469809Y0237216D01*
X0470243Y0237021D01*
X0470672Y0236815D01*
X0471096Y0236599D01*
X0471515Y0236373D01*
X0471928Y0236137D01*
X0472335Y0235891D01*
X0472736Y0235635D01*
X0473130Y0235369D01*
X0473519Y0235094D01*
X0473900Y0234810D01*
X0474274Y0234517D01*
X0474642Y0234215D01*
X0475002Y0233903D01*
X0475354Y0233584D01*
X0475698Y0233256D01*
X0476035Y0232919D01*
X0476363Y0232575D01*
X0476682Y0232223D01*
X0476994Y0231863D01*
X0477296Y0231495D01*
X0477589Y0231121D01*
X0477873Y0230740D01*
X0478148Y0230351D01*
X0478414Y0229957D01*
X0478670Y0229556D01*
X0478916Y0229149D01*
X0479152Y0228736D01*
X0479378Y0228317D01*
X0479594Y0227893D01*
X0479800Y0227464D01*
X0479995Y0227030D01*
X0480180Y0226592D01*
X0480354Y0226149D01*
X0480517Y0225703D01*
X0480670Y0225252D01*
X0480811Y0224798D01*
X0480942Y0224340D01*
X0481061Y0223880D01*
X0481169Y0223417D01*
X0481266Y0222951D01*
X0481352Y0222483D01*
X0481426Y0222013D01*
X0481489Y0221542D01*
X0481541Y0221069D01*
X0481581Y0220595D01*
X0481610Y0220120D01*
X0481627Y0219645D01*
X0481633Y0219169D01*
X0481633Y0199091D01*
X0481633Y0219169D02*
X0481633Y0112870D01*
X0481633Y0132949D01*
X0481633Y0112870D02*
X0481627Y0112394D01*
X0481610Y0111919D01*
X0481581Y0111444D01*
X0481541Y0110970D01*
X0481489Y0110497D01*
X0481426Y0110026D01*
X0481352Y0109556D01*
X0481266Y0109088D01*
X0481169Y0108622D01*
X0481061Y0108159D01*
X0480942Y0107699D01*
X0480811Y0107241D01*
X0480670Y0106787D01*
X0480517Y0106336D01*
X0480354Y0105890D01*
X0480180Y0105447D01*
X0479995Y0105009D01*
X0479800Y0104575D01*
X0479594Y0104146D01*
X0479378Y0103722D01*
X0479152Y0103303D01*
X0478916Y0102890D01*
X0478670Y0102483D01*
X0478414Y0102082D01*
X0478148Y0101688D01*
X0477873Y0101299D01*
X0477589Y0100918D01*
X0477296Y0100544D01*
X0476994Y0100176D01*
X0476682Y0099816D01*
X0476363Y0099464D01*
X0476035Y0099120D01*
X0475698Y0098783D01*
X0475354Y0098455D01*
X0475002Y0098136D01*
X0474642Y0097824D01*
X0474274Y0097522D01*
X0473900Y0097229D01*
X0473519Y0096945D01*
X0473130Y0096670D01*
X0472736Y0096404D01*
X0472335Y0096148D01*
X0471928Y0095902D01*
X0471515Y0095666D01*
X0471096Y0095440D01*
X0470672Y0095224D01*
X0470243Y0095018D01*
X0469809Y0094823D01*
X0469371Y0094638D01*
X0468928Y0094464D01*
X0468482Y0094301D01*
X0468031Y0094148D01*
X0467577Y0094007D01*
X0467119Y0093876D01*
X0466659Y0093757D01*
X0466196Y0093649D01*
X0465730Y0093552D01*
X0465262Y0093466D01*
X0464792Y0093392D01*
X0464321Y0093329D01*
X0463848Y0093277D01*
X0463374Y0093237D01*
X0462899Y0093208D01*
X0462424Y0093191D01*
X0461948Y0093185D01*
X0441869Y0093185D01*
X0387539Y0093185D02*
X0367460Y0093185D01*
X0366984Y0093191D01*
X0366509Y0093208D01*
X0366034Y0093237D01*
X0365560Y0093277D01*
X0365087Y0093329D01*
X0364616Y0093392D01*
X0364146Y0093466D01*
X0363678Y0093552D01*
X0363212Y0093649D01*
X0362749Y0093757D01*
X0362289Y0093876D01*
X0361831Y0094007D01*
X0361377Y0094148D01*
X0360926Y0094301D01*
X0360480Y0094464D01*
X0360037Y0094638D01*
X0359599Y0094823D01*
X0359165Y0095018D01*
X0358736Y0095224D01*
X0358312Y0095440D01*
X0357893Y0095666D01*
X0357480Y0095902D01*
X0357073Y0096148D01*
X0356672Y0096404D01*
X0356278Y0096670D01*
X0355889Y0096945D01*
X0355508Y0097229D01*
X0355134Y0097522D01*
X0354766Y0097824D01*
X0354406Y0098136D01*
X0354054Y0098455D01*
X0353710Y0098783D01*
X0353373Y0099120D01*
X0353045Y0099464D01*
X0352726Y0099816D01*
X0352414Y0100176D01*
X0352112Y0100544D01*
X0351819Y0100918D01*
X0351535Y0101299D01*
X0351260Y0101688D01*
X0350994Y0102082D01*
X0350738Y0102483D01*
X0350492Y0102890D01*
X0350256Y0103303D01*
X0350030Y0103722D01*
X0349814Y0104146D01*
X0349608Y0104575D01*
X0349413Y0105009D01*
X0349228Y0105447D01*
X0349054Y0105890D01*
X0348891Y0106336D01*
X0348738Y0106787D01*
X0348597Y0107241D01*
X0348466Y0107699D01*
X0348347Y0108159D01*
X0348239Y0108622D01*
X0348142Y0109088D01*
X0348056Y0109556D01*
X0347982Y0110026D01*
X0347919Y0110497D01*
X0347867Y0110970D01*
X0347827Y0111444D01*
X0347798Y0111919D01*
X0347781Y0112394D01*
X0347775Y0112870D01*
X0347775Y0132949D01*
X0347775Y0112870D01*
X0347775Y0219169D01*
X0347775Y0199091D01*
X0347775Y0219169D01*
X0347781Y0219645D01*
X0347798Y0220120D01*
X0347827Y0220595D01*
X0347867Y0221069D01*
X0347919Y0221542D01*
X0347982Y0222013D01*
X0348056Y0222483D01*
X0348142Y0222951D01*
X0348239Y0223417D01*
X0348347Y0223880D01*
X0348466Y0224340D01*
X0348597Y0224798D01*
X0348738Y0225252D01*
X0348891Y0225703D01*
X0349054Y0226149D01*
X0349228Y0226592D01*
X0349413Y0227030D01*
X0349608Y0227464D01*
X0349814Y0227893D01*
X0350030Y0228317D01*
X0350256Y0228736D01*
X0350492Y0229149D01*
X0350738Y0229556D01*
X0350994Y0229957D01*
X0351260Y0230351D01*
X0351535Y0230740D01*
X0351819Y0231121D01*
X0352112Y0231495D01*
X0352414Y0231863D01*
X0352726Y0232223D01*
X0353045Y0232575D01*
X0353373Y0232919D01*
X0353710Y0233256D01*
X0354054Y0233584D01*
X0354406Y0233903D01*
X0354766Y0234215D01*
X0355134Y0234517D01*
X0355508Y0234810D01*
X0355889Y0235094D01*
X0356278Y0235369D01*
X0356672Y0235635D01*
X0357073Y0235891D01*
X0357480Y0236137D01*
X0357893Y0236373D01*
X0358312Y0236599D01*
X0358736Y0236815D01*
X0359165Y0237021D01*
X0359599Y0237216D01*
X0360037Y0237401D01*
X0360480Y0237575D01*
X0360926Y0237738D01*
X0361377Y0237891D01*
X0361831Y0238032D01*
X0362289Y0238163D01*
X0362749Y0238282D01*
X0363212Y0238390D01*
X0363678Y0238487D01*
X0364146Y0238573D01*
X0364616Y0238647D01*
X0365087Y0238710D01*
X0365560Y0238762D01*
X0366034Y0238802D01*
X0366509Y0238831D01*
X0366984Y0238848D01*
X0367460Y0238854D01*
X0387539Y0238854D01*
X0387539Y0270350D02*
X0367460Y0270350D01*
X0366984Y0270356D01*
X0366509Y0270373D01*
X0366034Y0270402D01*
X0365560Y0270442D01*
X0365087Y0270494D01*
X0364616Y0270557D01*
X0364146Y0270631D01*
X0363678Y0270717D01*
X0363212Y0270814D01*
X0362749Y0270922D01*
X0362289Y0271041D01*
X0361831Y0271172D01*
X0361377Y0271313D01*
X0360926Y0271466D01*
X0360480Y0271629D01*
X0360037Y0271803D01*
X0359599Y0271988D01*
X0359165Y0272183D01*
X0358736Y0272389D01*
X0358312Y0272605D01*
X0357893Y0272831D01*
X0357480Y0273067D01*
X0357073Y0273313D01*
X0356672Y0273569D01*
X0356278Y0273835D01*
X0355889Y0274110D01*
X0355508Y0274394D01*
X0355134Y0274687D01*
X0354766Y0274989D01*
X0354406Y0275301D01*
X0354054Y0275620D01*
X0353710Y0275948D01*
X0353373Y0276285D01*
X0353045Y0276629D01*
X0352726Y0276981D01*
X0352414Y0277341D01*
X0352112Y0277709D01*
X0351819Y0278083D01*
X0351535Y0278464D01*
X0351260Y0278853D01*
X0350994Y0279247D01*
X0350738Y0279648D01*
X0350492Y0280055D01*
X0350256Y0280468D01*
X0350030Y0280887D01*
X0349814Y0281311D01*
X0349608Y0281740D01*
X0349413Y0282174D01*
X0349228Y0282612D01*
X0349054Y0283055D01*
X0348891Y0283501D01*
X0348738Y0283952D01*
X0348597Y0284406D01*
X0348466Y0284864D01*
X0348347Y0285324D01*
X0348239Y0285787D01*
X0348142Y0286253D01*
X0348056Y0286721D01*
X0347982Y0287191D01*
X0347919Y0287662D01*
X0347867Y0288135D01*
X0347827Y0288609D01*
X0347798Y0289084D01*
X0347781Y0289559D01*
X0347775Y0290035D01*
X0347775Y0310114D01*
X0347775Y0290035D01*
X0347775Y0396335D01*
X0347775Y0376256D01*
X0347775Y0396335D01*
X0347781Y0396811D01*
X0347798Y0397286D01*
X0347827Y0397761D01*
X0347867Y0398235D01*
X0347919Y0398708D01*
X0347982Y0399179D01*
X0348056Y0399649D01*
X0348142Y0400117D01*
X0348239Y0400583D01*
X0348347Y0401046D01*
X0348466Y0401506D01*
X0348597Y0401964D01*
X0348738Y0402418D01*
X0348891Y0402869D01*
X0349054Y0403315D01*
X0349228Y0403758D01*
X0349413Y0404196D01*
X0349608Y0404630D01*
X0349814Y0405059D01*
X0350030Y0405483D01*
X0350256Y0405902D01*
X0350492Y0406315D01*
X0350738Y0406722D01*
X0350994Y0407123D01*
X0351260Y0407517D01*
X0351535Y0407906D01*
X0351819Y0408287D01*
X0352112Y0408661D01*
X0352414Y0409029D01*
X0352726Y0409389D01*
X0353045Y0409741D01*
X0353373Y0410085D01*
X0353710Y0410422D01*
X0354054Y0410750D01*
X0354406Y0411069D01*
X0354766Y0411381D01*
X0355134Y0411683D01*
X0355508Y0411976D01*
X0355889Y0412260D01*
X0356278Y0412535D01*
X0356672Y0412801D01*
X0357073Y0413057D01*
X0357480Y0413303D01*
X0357893Y0413539D01*
X0358312Y0413765D01*
X0358736Y0413981D01*
X0359165Y0414187D01*
X0359599Y0414382D01*
X0360037Y0414567D01*
X0360480Y0414741D01*
X0360926Y0414904D01*
X0361377Y0415057D01*
X0361831Y0415198D01*
X0362289Y0415329D01*
X0362749Y0415448D01*
X0363212Y0415556D01*
X0363678Y0415653D01*
X0364146Y0415739D01*
X0364616Y0415813D01*
X0365087Y0415876D01*
X0365560Y0415928D01*
X0366034Y0415968D01*
X0366509Y0415997D01*
X0366984Y0416014D01*
X0367460Y0416020D01*
X0387539Y0416020D01*
X0328090Y0416020D02*
X0308011Y0416020D01*
X0328090Y0416020D02*
X0328566Y0416014D01*
X0329041Y0415997D01*
X0329516Y0415968D01*
X0329990Y0415928D01*
X0330463Y0415876D01*
X0330934Y0415813D01*
X0331404Y0415739D01*
X0331872Y0415653D01*
X0332338Y0415556D01*
X0332801Y0415448D01*
X0333261Y0415329D01*
X0333719Y0415198D01*
X0334173Y0415057D01*
X0334624Y0414904D01*
X0335070Y0414741D01*
X0335513Y0414567D01*
X0335951Y0414382D01*
X0336385Y0414187D01*
X0336814Y0413981D01*
X0337238Y0413765D01*
X0337657Y0413539D01*
X0338070Y0413303D01*
X0338477Y0413057D01*
X0338878Y0412801D01*
X0339272Y0412535D01*
X0339661Y0412260D01*
X0340042Y0411976D01*
X0340416Y0411683D01*
X0340784Y0411381D01*
X0341144Y0411069D01*
X0341496Y0410750D01*
X0341840Y0410422D01*
X0342177Y0410085D01*
X0342505Y0409741D01*
X0342824Y0409389D01*
X0343136Y0409029D01*
X0343438Y0408661D01*
X0343731Y0408287D01*
X0344015Y0407906D01*
X0344290Y0407517D01*
X0344556Y0407123D01*
X0344812Y0406722D01*
X0345058Y0406315D01*
X0345294Y0405902D01*
X0345520Y0405483D01*
X0345736Y0405059D01*
X0345942Y0404630D01*
X0346137Y0404196D01*
X0346322Y0403758D01*
X0346496Y0403315D01*
X0346659Y0402869D01*
X0346812Y0402418D01*
X0346953Y0401964D01*
X0347084Y0401506D01*
X0347203Y0401046D01*
X0347311Y0400583D01*
X0347408Y0400117D01*
X0347494Y0399649D01*
X0347568Y0399179D01*
X0347631Y0398708D01*
X0347683Y0398235D01*
X0347723Y0397761D01*
X0347752Y0397286D01*
X0347769Y0396811D01*
X0347775Y0396335D01*
X0253680Y0416020D02*
X0233602Y0416020D01*
X0233126Y0416014D01*
X0232651Y0415997D01*
X0232176Y0415968D01*
X0231702Y0415928D01*
X0231229Y0415876D01*
X0230758Y0415813D01*
X0230288Y0415739D01*
X0229820Y0415653D01*
X0229354Y0415556D01*
X0228891Y0415448D01*
X0228431Y0415329D01*
X0227973Y0415198D01*
X0227519Y0415057D01*
X0227068Y0414904D01*
X0226622Y0414741D01*
X0226179Y0414567D01*
X0225741Y0414382D01*
X0225307Y0414187D01*
X0224878Y0413981D01*
X0224454Y0413765D01*
X0224035Y0413539D01*
X0223622Y0413303D01*
X0223215Y0413057D01*
X0222814Y0412801D01*
X0222420Y0412535D01*
X0222031Y0412260D01*
X0221650Y0411976D01*
X0221276Y0411683D01*
X0220908Y0411381D01*
X0220548Y0411069D01*
X0220196Y0410750D01*
X0219852Y0410422D01*
X0219515Y0410085D01*
X0219187Y0409741D01*
X0218868Y0409389D01*
X0218556Y0409029D01*
X0218254Y0408661D01*
X0217961Y0408287D01*
X0217677Y0407906D01*
X0217402Y0407517D01*
X0217136Y0407123D01*
X0216880Y0406722D01*
X0216634Y0406315D01*
X0216398Y0405902D01*
X0216172Y0405483D01*
X0215956Y0405059D01*
X0215750Y0404630D01*
X0215555Y0404196D01*
X0215370Y0403758D01*
X0215196Y0403315D01*
X0215033Y0402869D01*
X0214880Y0402418D01*
X0214739Y0401964D01*
X0214608Y0401506D01*
X0214489Y0401046D01*
X0214381Y0400583D01*
X0214284Y0400117D01*
X0214198Y0399649D01*
X0214124Y0399179D01*
X0214061Y0398708D01*
X0214009Y0398235D01*
X0213969Y0397761D01*
X0213940Y0397286D01*
X0213923Y0396811D01*
X0213917Y0396335D01*
X0213917Y0376256D01*
X0213917Y0396335D01*
X0213917Y0290035D01*
X0213917Y0310114D01*
X0213917Y0290035D01*
X0213923Y0289559D01*
X0213940Y0289084D01*
X0213969Y0288609D01*
X0214009Y0288135D01*
X0214061Y0287662D01*
X0214124Y0287191D01*
X0214198Y0286721D01*
X0214284Y0286253D01*
X0214381Y0285787D01*
X0214489Y0285324D01*
X0214608Y0284864D01*
X0214739Y0284406D01*
X0214880Y0283952D01*
X0215033Y0283501D01*
X0215196Y0283055D01*
X0215370Y0282612D01*
X0215555Y0282174D01*
X0215750Y0281740D01*
X0215956Y0281311D01*
X0216172Y0280887D01*
X0216398Y0280468D01*
X0216634Y0280055D01*
X0216880Y0279648D01*
X0217136Y0279247D01*
X0217402Y0278853D01*
X0217677Y0278464D01*
X0217961Y0278083D01*
X0218254Y0277709D01*
X0218556Y0277341D01*
X0218868Y0276981D01*
X0219187Y0276629D01*
X0219515Y0276285D01*
X0219852Y0275948D01*
X0220196Y0275620D01*
X0220548Y0275301D01*
X0220908Y0274989D01*
X0221276Y0274687D01*
X0221650Y0274394D01*
X0222031Y0274110D01*
X0222420Y0273835D01*
X0222814Y0273569D01*
X0223215Y0273313D01*
X0223622Y0273067D01*
X0224035Y0272831D01*
X0224454Y0272605D01*
X0224878Y0272389D01*
X0225307Y0272183D01*
X0225741Y0271988D01*
X0226179Y0271803D01*
X0226622Y0271629D01*
X0227068Y0271466D01*
X0227519Y0271313D01*
X0227973Y0271172D01*
X0228431Y0271041D01*
X0228891Y0270922D01*
X0229354Y0270814D01*
X0229820Y0270717D01*
X0230288Y0270631D01*
X0230758Y0270557D01*
X0231229Y0270494D01*
X0231702Y0270442D01*
X0232176Y0270402D01*
X0232651Y0270373D01*
X0233126Y0270356D01*
X0233602Y0270350D01*
X0253680Y0270350D01*
X0253680Y0238854D02*
X0233602Y0238854D01*
X0233126Y0238848D01*
X0232651Y0238831D01*
X0232176Y0238802D01*
X0231702Y0238762D01*
X0231229Y0238710D01*
X0230758Y0238647D01*
X0230288Y0238573D01*
X0229820Y0238487D01*
X0229354Y0238390D01*
X0228891Y0238282D01*
X0228431Y0238163D01*
X0227973Y0238032D01*
X0227519Y0237891D01*
X0227068Y0237738D01*
X0226622Y0237575D01*
X0226179Y0237401D01*
X0225741Y0237216D01*
X0225307Y0237021D01*
X0224878Y0236815D01*
X0224454Y0236599D01*
X0224035Y0236373D01*
X0223622Y0236137D01*
X0223215Y0235891D01*
X0222814Y0235635D01*
X0222420Y0235369D01*
X0222031Y0235094D01*
X0221650Y0234810D01*
X0221276Y0234517D01*
X0220908Y0234215D01*
X0220548Y0233903D01*
X0220196Y0233584D01*
X0219852Y0233256D01*
X0219515Y0232919D01*
X0219187Y0232575D01*
X0218868Y0232223D01*
X0218556Y0231863D01*
X0218254Y0231495D01*
X0217961Y0231121D01*
X0217677Y0230740D01*
X0217402Y0230351D01*
X0217136Y0229957D01*
X0216880Y0229556D01*
X0216634Y0229149D01*
X0216398Y0228736D01*
X0216172Y0228317D01*
X0215956Y0227893D01*
X0215750Y0227464D01*
X0215555Y0227030D01*
X0215370Y0226592D01*
X0215196Y0226149D01*
X0215033Y0225703D01*
X0214880Y0225252D01*
X0214739Y0224798D01*
X0214608Y0224340D01*
X0214489Y0223880D01*
X0214381Y0223417D01*
X0214284Y0222951D01*
X0214198Y0222483D01*
X0214124Y0222013D01*
X0214061Y0221542D01*
X0214009Y0221069D01*
X0213969Y0220595D01*
X0213940Y0220120D01*
X0213923Y0219645D01*
X0213917Y0219169D01*
X0213917Y0199091D01*
X0213917Y0219169D01*
X0213917Y0112870D01*
X0213917Y0132949D01*
X0213917Y0112870D01*
X0213923Y0112394D01*
X0213940Y0111919D01*
X0213969Y0111444D01*
X0214009Y0110970D01*
X0214061Y0110497D01*
X0214124Y0110026D01*
X0214198Y0109556D01*
X0214284Y0109088D01*
X0214381Y0108622D01*
X0214489Y0108159D01*
X0214608Y0107699D01*
X0214739Y0107241D01*
X0214880Y0106787D01*
X0215033Y0106336D01*
X0215196Y0105890D01*
X0215370Y0105447D01*
X0215555Y0105009D01*
X0215750Y0104575D01*
X0215956Y0104146D01*
X0216172Y0103722D01*
X0216398Y0103303D01*
X0216634Y0102890D01*
X0216880Y0102483D01*
X0217136Y0102082D01*
X0217402Y0101688D01*
X0217677Y0101299D01*
X0217961Y0100918D01*
X0218254Y0100544D01*
X0218556Y0100176D01*
X0218868Y0099816D01*
X0219187Y0099464D01*
X0219515Y0099120D01*
X0219852Y0098783D01*
X0220196Y0098455D01*
X0220548Y0098136D01*
X0220908Y0097824D01*
X0221276Y0097522D01*
X0221650Y0097229D01*
X0222031Y0096945D01*
X0222420Y0096670D01*
X0222814Y0096404D01*
X0223215Y0096148D01*
X0223622Y0095902D01*
X0224035Y0095666D01*
X0224454Y0095440D01*
X0224878Y0095224D01*
X0225307Y0095018D01*
X0225741Y0094823D01*
X0226179Y0094638D01*
X0226622Y0094464D01*
X0227068Y0094301D01*
X0227519Y0094148D01*
X0227973Y0094007D01*
X0228431Y0093876D01*
X0228891Y0093757D01*
X0229354Y0093649D01*
X0229820Y0093552D01*
X0230288Y0093466D01*
X0230758Y0093392D01*
X0231229Y0093329D01*
X0231702Y0093277D01*
X0232176Y0093237D01*
X0232651Y0093208D01*
X0233126Y0093191D01*
X0233602Y0093185D01*
X0253680Y0093185D01*
X0308011Y0093185D02*
X0328090Y0093185D01*
X0328566Y0093191D01*
X0329041Y0093208D01*
X0329516Y0093237D01*
X0329990Y0093277D01*
X0330463Y0093329D01*
X0330934Y0093392D01*
X0331404Y0093466D01*
X0331872Y0093552D01*
X0332338Y0093649D01*
X0332801Y0093757D01*
X0333261Y0093876D01*
X0333719Y0094007D01*
X0334173Y0094148D01*
X0334624Y0094301D01*
X0335070Y0094464D01*
X0335513Y0094638D01*
X0335951Y0094823D01*
X0336385Y0095018D01*
X0336814Y0095224D01*
X0337238Y0095440D01*
X0337657Y0095666D01*
X0338070Y0095902D01*
X0338477Y0096148D01*
X0338878Y0096404D01*
X0339272Y0096670D01*
X0339661Y0096945D01*
X0340042Y0097229D01*
X0340416Y0097522D01*
X0340784Y0097824D01*
X0341144Y0098136D01*
X0341496Y0098455D01*
X0341840Y0098783D01*
X0342177Y0099120D01*
X0342505Y0099464D01*
X0342824Y0099816D01*
X0343136Y0100176D01*
X0343438Y0100544D01*
X0343731Y0100918D01*
X0344015Y0101299D01*
X0344290Y0101688D01*
X0344556Y0102082D01*
X0344812Y0102483D01*
X0345058Y0102890D01*
X0345294Y0103303D01*
X0345520Y0103722D01*
X0345736Y0104146D01*
X0345942Y0104575D01*
X0346137Y0105009D01*
X0346322Y0105447D01*
X0346496Y0105890D01*
X0346659Y0106336D01*
X0346812Y0106787D01*
X0346953Y0107241D01*
X0347084Y0107699D01*
X0347203Y0108159D01*
X0347311Y0108622D01*
X0347408Y0109088D01*
X0347494Y0109556D01*
X0347568Y0110026D01*
X0347631Y0110497D01*
X0347683Y0110970D01*
X0347723Y0111444D01*
X0347752Y0111919D01*
X0347769Y0112394D01*
X0347775Y0112870D01*
X0347775Y0219169D02*
X0347769Y0219645D01*
X0347752Y0220120D01*
X0347723Y0220595D01*
X0347683Y0221069D01*
X0347631Y0221542D01*
X0347568Y0222013D01*
X0347494Y0222483D01*
X0347408Y0222951D01*
X0347311Y0223417D01*
X0347203Y0223880D01*
X0347084Y0224340D01*
X0346953Y0224798D01*
X0346812Y0225252D01*
X0346659Y0225703D01*
X0346496Y0226149D01*
X0346322Y0226592D01*
X0346137Y0227030D01*
X0345942Y0227464D01*
X0345736Y0227893D01*
X0345520Y0228317D01*
X0345294Y0228736D01*
X0345058Y0229149D01*
X0344812Y0229556D01*
X0344556Y0229957D01*
X0344290Y0230351D01*
X0344015Y0230740D01*
X0343731Y0231121D01*
X0343438Y0231495D01*
X0343136Y0231863D01*
X0342824Y0232223D01*
X0342505Y0232575D01*
X0342177Y0232919D01*
X0341840Y0233256D01*
X0341496Y0233584D01*
X0341144Y0233903D01*
X0340784Y0234215D01*
X0340416Y0234517D01*
X0340042Y0234810D01*
X0339661Y0235094D01*
X0339272Y0235369D01*
X0338878Y0235635D01*
X0338477Y0235891D01*
X0338070Y0236137D01*
X0337657Y0236373D01*
X0337238Y0236599D01*
X0336814Y0236815D01*
X0336385Y0237021D01*
X0335951Y0237216D01*
X0335513Y0237401D01*
X0335070Y0237575D01*
X0334624Y0237738D01*
X0334173Y0237891D01*
X0333719Y0238032D01*
X0333261Y0238163D01*
X0332801Y0238282D01*
X0332338Y0238390D01*
X0331872Y0238487D01*
X0331404Y0238573D01*
X0330934Y0238647D01*
X0330463Y0238710D01*
X0329990Y0238762D01*
X0329516Y0238802D01*
X0329041Y0238831D01*
X0328566Y0238848D01*
X0328090Y0238854D01*
X0308011Y0238854D01*
X0308011Y0270350D02*
X0328090Y0270350D01*
X0328566Y0270356D01*
X0329041Y0270373D01*
X0329516Y0270402D01*
X0329990Y0270442D01*
X0330463Y0270494D01*
X0330934Y0270557D01*
X0331404Y0270631D01*
X0331872Y0270717D01*
X0332338Y0270814D01*
X0332801Y0270922D01*
X0333261Y0271041D01*
X0333719Y0271172D01*
X0334173Y0271313D01*
X0334624Y0271466D01*
X0335070Y0271629D01*
X0335513Y0271803D01*
X0335951Y0271988D01*
X0336385Y0272183D01*
X0336814Y0272389D01*
X0337238Y0272605D01*
X0337657Y0272831D01*
X0338070Y0273067D01*
X0338477Y0273313D01*
X0338878Y0273569D01*
X0339272Y0273835D01*
X0339661Y0274110D01*
X0340042Y0274394D01*
X0340416Y0274687D01*
X0340784Y0274989D01*
X0341144Y0275301D01*
X0341496Y0275620D01*
X0341840Y0275948D01*
X0342177Y0276285D01*
X0342505Y0276629D01*
X0342824Y0276981D01*
X0343136Y0277341D01*
X0343438Y0277709D01*
X0343731Y0278083D01*
X0344015Y0278464D01*
X0344290Y0278853D01*
X0344556Y0279247D01*
X0344812Y0279648D01*
X0345058Y0280055D01*
X0345294Y0280468D01*
X0345520Y0280887D01*
X0345736Y0281311D01*
X0345942Y0281740D01*
X0346137Y0282174D01*
X0346322Y0282612D01*
X0346496Y0283055D01*
X0346659Y0283501D01*
X0346812Y0283952D01*
X0346953Y0284406D01*
X0347084Y0284864D01*
X0347203Y0285324D01*
X0347311Y0285787D01*
X0347408Y0286253D01*
X0347494Y0286721D01*
X0347568Y0287191D01*
X0347631Y0287662D01*
X0347683Y0288135D01*
X0347723Y0288609D01*
X0347752Y0289084D01*
X0347769Y0289559D01*
X0347775Y0290035D01*
X0213916Y0290035D02*
X0213910Y0289559D01*
X0213893Y0289084D01*
X0213864Y0288609D01*
X0213824Y0288135D01*
X0213772Y0287662D01*
X0213709Y0287191D01*
X0213635Y0286721D01*
X0213549Y0286253D01*
X0213452Y0285787D01*
X0213344Y0285324D01*
X0213225Y0284864D01*
X0213094Y0284406D01*
X0212953Y0283952D01*
X0212800Y0283501D01*
X0212637Y0283055D01*
X0212463Y0282612D01*
X0212278Y0282174D01*
X0212083Y0281740D01*
X0211877Y0281311D01*
X0211661Y0280887D01*
X0211435Y0280468D01*
X0211199Y0280055D01*
X0210953Y0279648D01*
X0210697Y0279247D01*
X0210431Y0278853D01*
X0210156Y0278464D01*
X0209872Y0278083D01*
X0209579Y0277709D01*
X0209277Y0277341D01*
X0208965Y0276981D01*
X0208646Y0276629D01*
X0208318Y0276285D01*
X0207981Y0275948D01*
X0207637Y0275620D01*
X0207285Y0275301D01*
X0206925Y0274989D01*
X0206557Y0274687D01*
X0206183Y0274394D01*
X0205802Y0274110D01*
X0205413Y0273835D01*
X0205019Y0273569D01*
X0204618Y0273313D01*
X0204211Y0273067D01*
X0203798Y0272831D01*
X0203379Y0272605D01*
X0202955Y0272389D01*
X0202526Y0272183D01*
X0202092Y0271988D01*
X0201654Y0271803D01*
X0201211Y0271629D01*
X0200765Y0271466D01*
X0200314Y0271313D01*
X0199860Y0271172D01*
X0199402Y0271041D01*
X0198942Y0270922D01*
X0198479Y0270814D01*
X0198013Y0270717D01*
X0197545Y0270631D01*
X0197075Y0270557D01*
X0196604Y0270494D01*
X0196131Y0270442D01*
X0195657Y0270402D01*
X0195182Y0270373D01*
X0194707Y0270356D01*
X0194231Y0270350D01*
X0174153Y0270350D01*
X0174153Y0238854D02*
X0194231Y0238854D01*
X0194707Y0238848D01*
X0195182Y0238831D01*
X0195657Y0238802D01*
X0196131Y0238762D01*
X0196604Y0238710D01*
X0197075Y0238647D01*
X0197545Y0238573D01*
X0198013Y0238487D01*
X0198479Y0238390D01*
X0198942Y0238282D01*
X0199402Y0238163D01*
X0199860Y0238032D01*
X0200314Y0237891D01*
X0200765Y0237738D01*
X0201211Y0237575D01*
X0201654Y0237401D01*
X0202092Y0237216D01*
X0202526Y0237021D01*
X0202955Y0236815D01*
X0203379Y0236599D01*
X0203798Y0236373D01*
X0204211Y0236137D01*
X0204618Y0235891D01*
X0205019Y0235635D01*
X0205413Y0235369D01*
X0205802Y0235094D01*
X0206183Y0234810D01*
X0206557Y0234517D01*
X0206925Y0234215D01*
X0207285Y0233903D01*
X0207637Y0233584D01*
X0207981Y0233256D01*
X0208318Y0232919D01*
X0208646Y0232575D01*
X0208965Y0232223D01*
X0209277Y0231863D01*
X0209579Y0231495D01*
X0209872Y0231121D01*
X0210156Y0230740D01*
X0210431Y0230351D01*
X0210697Y0229957D01*
X0210953Y0229556D01*
X0211199Y0229149D01*
X0211435Y0228736D01*
X0211661Y0228317D01*
X0211877Y0227893D01*
X0212083Y0227464D01*
X0212278Y0227030D01*
X0212463Y0226592D01*
X0212637Y0226149D01*
X0212800Y0225703D01*
X0212953Y0225252D01*
X0213094Y0224798D01*
X0213225Y0224340D01*
X0213344Y0223880D01*
X0213452Y0223417D01*
X0213549Y0222951D01*
X0213635Y0222483D01*
X0213709Y0222013D01*
X0213772Y0221542D01*
X0213824Y0221069D01*
X0213864Y0220595D01*
X0213893Y0220120D01*
X0213910Y0219645D01*
X0213916Y0219169D01*
X0119822Y0238854D02*
X0099743Y0238854D01*
X0099267Y0238848D01*
X0098792Y0238831D01*
X0098317Y0238802D01*
X0097843Y0238762D01*
X0097370Y0238710D01*
X0096899Y0238647D01*
X0096429Y0238573D01*
X0095961Y0238487D01*
X0095495Y0238390D01*
X0095032Y0238282D01*
X0094572Y0238163D01*
X0094114Y0238032D01*
X0093660Y0237891D01*
X0093209Y0237738D01*
X0092763Y0237575D01*
X0092320Y0237401D01*
X0091882Y0237216D01*
X0091448Y0237021D01*
X0091019Y0236815D01*
X0090595Y0236599D01*
X0090176Y0236373D01*
X0089763Y0236137D01*
X0089356Y0235891D01*
X0088955Y0235635D01*
X0088561Y0235369D01*
X0088172Y0235094D01*
X0087791Y0234810D01*
X0087417Y0234517D01*
X0087049Y0234215D01*
X0086689Y0233903D01*
X0086337Y0233584D01*
X0085993Y0233256D01*
X0085656Y0232919D01*
X0085328Y0232575D01*
X0085009Y0232223D01*
X0084697Y0231863D01*
X0084395Y0231495D01*
X0084102Y0231121D01*
X0083818Y0230740D01*
X0083543Y0230351D01*
X0083277Y0229957D01*
X0083021Y0229556D01*
X0082775Y0229149D01*
X0082539Y0228736D01*
X0082313Y0228317D01*
X0082097Y0227893D01*
X0081891Y0227464D01*
X0081696Y0227030D01*
X0081511Y0226592D01*
X0081337Y0226149D01*
X0081174Y0225703D01*
X0081021Y0225252D01*
X0080880Y0224798D01*
X0080749Y0224340D01*
X0080630Y0223880D01*
X0080522Y0223417D01*
X0080425Y0222951D01*
X0080339Y0222483D01*
X0080265Y0222013D01*
X0080202Y0221542D01*
X0080150Y0221069D01*
X0080110Y0220595D01*
X0080081Y0220120D01*
X0080064Y0219645D01*
X0080058Y0219169D01*
X0080058Y0199091D01*
X0080058Y0219169D02*
X0080058Y0112870D01*
X0080058Y0132949D01*
X0080058Y0112870D02*
X0080064Y0112394D01*
X0080081Y0111919D01*
X0080110Y0111444D01*
X0080150Y0110970D01*
X0080202Y0110497D01*
X0080265Y0110026D01*
X0080339Y0109556D01*
X0080425Y0109088D01*
X0080522Y0108622D01*
X0080630Y0108159D01*
X0080749Y0107699D01*
X0080880Y0107241D01*
X0081021Y0106787D01*
X0081174Y0106336D01*
X0081337Y0105890D01*
X0081511Y0105447D01*
X0081696Y0105009D01*
X0081891Y0104575D01*
X0082097Y0104146D01*
X0082313Y0103722D01*
X0082539Y0103303D01*
X0082775Y0102890D01*
X0083021Y0102483D01*
X0083277Y0102082D01*
X0083543Y0101688D01*
X0083818Y0101299D01*
X0084102Y0100918D01*
X0084395Y0100544D01*
X0084697Y0100176D01*
X0085009Y0099816D01*
X0085328Y0099464D01*
X0085656Y0099120D01*
X0085993Y0098783D01*
X0086337Y0098455D01*
X0086689Y0098136D01*
X0087049Y0097824D01*
X0087417Y0097522D01*
X0087791Y0097229D01*
X0088172Y0096945D01*
X0088561Y0096670D01*
X0088955Y0096404D01*
X0089356Y0096148D01*
X0089763Y0095902D01*
X0090176Y0095666D01*
X0090595Y0095440D01*
X0091019Y0095224D01*
X0091448Y0095018D01*
X0091882Y0094823D01*
X0092320Y0094638D01*
X0092763Y0094464D01*
X0093209Y0094301D01*
X0093660Y0094148D01*
X0094114Y0094007D01*
X0094572Y0093876D01*
X0095032Y0093757D01*
X0095495Y0093649D01*
X0095961Y0093552D01*
X0096429Y0093466D01*
X0096899Y0093392D01*
X0097370Y0093329D01*
X0097843Y0093277D01*
X0098317Y0093237D01*
X0098792Y0093208D01*
X0099267Y0093191D01*
X0099743Y0093185D01*
X0119822Y0093185D01*
X0174153Y0093185D02*
X0194231Y0093185D01*
X0194707Y0093191D01*
X0195182Y0093208D01*
X0195657Y0093237D01*
X0196131Y0093277D01*
X0196604Y0093329D01*
X0197075Y0093392D01*
X0197545Y0093466D01*
X0198013Y0093552D01*
X0198479Y0093649D01*
X0198942Y0093757D01*
X0199402Y0093876D01*
X0199860Y0094007D01*
X0200314Y0094148D01*
X0200765Y0094301D01*
X0201211Y0094464D01*
X0201654Y0094638D01*
X0202092Y0094823D01*
X0202526Y0095018D01*
X0202955Y0095224D01*
X0203379Y0095440D01*
X0203798Y0095666D01*
X0204211Y0095902D01*
X0204618Y0096148D01*
X0205019Y0096404D01*
X0205413Y0096670D01*
X0205802Y0096945D01*
X0206183Y0097229D01*
X0206557Y0097522D01*
X0206925Y0097824D01*
X0207285Y0098136D01*
X0207637Y0098455D01*
X0207981Y0098783D01*
X0208318Y0099120D01*
X0208646Y0099464D01*
X0208965Y0099816D01*
X0209277Y0100176D01*
X0209579Y0100544D01*
X0209872Y0100918D01*
X0210156Y0101299D01*
X0210431Y0101688D01*
X0210697Y0102082D01*
X0210953Y0102483D01*
X0211199Y0102890D01*
X0211435Y0103303D01*
X0211661Y0103722D01*
X0211877Y0104146D01*
X0212083Y0104575D01*
X0212278Y0105009D01*
X0212463Y0105447D01*
X0212637Y0105890D01*
X0212800Y0106336D01*
X0212953Y0106787D01*
X0213094Y0107241D01*
X0213225Y0107699D01*
X0213344Y0108159D01*
X0213452Y0108622D01*
X0213549Y0109088D01*
X0213635Y0109556D01*
X0213709Y0110026D01*
X0213772Y0110497D01*
X0213824Y0110970D01*
X0213864Y0111444D01*
X0213893Y0111919D01*
X0213910Y0112394D01*
X0213916Y0112870D01*
X0119822Y0270350D02*
X0099743Y0270350D01*
X0099267Y0270356D01*
X0098792Y0270373D01*
X0098317Y0270402D01*
X0097843Y0270442D01*
X0097370Y0270494D01*
X0096899Y0270557D01*
X0096429Y0270631D01*
X0095961Y0270717D01*
X0095495Y0270814D01*
X0095032Y0270922D01*
X0094572Y0271041D01*
X0094114Y0271172D01*
X0093660Y0271313D01*
X0093209Y0271466D01*
X0092763Y0271629D01*
X0092320Y0271803D01*
X0091882Y0271988D01*
X0091448Y0272183D01*
X0091019Y0272389D01*
X0090595Y0272605D01*
X0090176Y0272831D01*
X0089763Y0273067D01*
X0089356Y0273313D01*
X0088955Y0273569D01*
X0088561Y0273835D01*
X0088172Y0274110D01*
X0087791Y0274394D01*
X0087417Y0274687D01*
X0087049Y0274989D01*
X0086689Y0275301D01*
X0086337Y0275620D01*
X0085993Y0275948D01*
X0085656Y0276285D01*
X0085328Y0276629D01*
X0085009Y0276981D01*
X0084697Y0277341D01*
X0084395Y0277709D01*
X0084102Y0278083D01*
X0083818Y0278464D01*
X0083543Y0278853D01*
X0083277Y0279247D01*
X0083021Y0279648D01*
X0082775Y0280055D01*
X0082539Y0280468D01*
X0082313Y0280887D01*
X0082097Y0281311D01*
X0081891Y0281740D01*
X0081696Y0282174D01*
X0081511Y0282612D01*
X0081337Y0283055D01*
X0081174Y0283501D01*
X0081021Y0283952D01*
X0080880Y0284406D01*
X0080749Y0284864D01*
X0080630Y0285324D01*
X0080522Y0285787D01*
X0080425Y0286253D01*
X0080339Y0286721D01*
X0080265Y0287191D01*
X0080202Y0287662D01*
X0080150Y0288135D01*
X0080110Y0288609D01*
X0080081Y0289084D01*
X0080064Y0289559D01*
X0080058Y0290035D01*
X0080058Y0310114D01*
X0080058Y0290035D02*
X0080058Y0396335D01*
X0080058Y0376256D01*
X0080058Y0396335D02*
X0080064Y0396811D01*
X0080081Y0397286D01*
X0080110Y0397761D01*
X0080150Y0398235D01*
X0080202Y0398708D01*
X0080265Y0399179D01*
X0080339Y0399649D01*
X0080425Y0400117D01*
X0080522Y0400583D01*
X0080630Y0401046D01*
X0080749Y0401506D01*
X0080880Y0401964D01*
X0081021Y0402418D01*
X0081174Y0402869D01*
X0081337Y0403315D01*
X0081511Y0403758D01*
X0081696Y0404196D01*
X0081891Y0404630D01*
X0082097Y0405059D01*
X0082313Y0405483D01*
X0082539Y0405902D01*
X0082775Y0406315D01*
X0083021Y0406722D01*
X0083277Y0407123D01*
X0083543Y0407517D01*
X0083818Y0407906D01*
X0084102Y0408287D01*
X0084395Y0408661D01*
X0084697Y0409029D01*
X0085009Y0409389D01*
X0085328Y0409741D01*
X0085656Y0410085D01*
X0085993Y0410422D01*
X0086337Y0410750D01*
X0086689Y0411069D01*
X0087049Y0411381D01*
X0087417Y0411683D01*
X0087791Y0411976D01*
X0088172Y0412260D01*
X0088561Y0412535D01*
X0088955Y0412801D01*
X0089356Y0413057D01*
X0089763Y0413303D01*
X0090176Y0413539D01*
X0090595Y0413765D01*
X0091019Y0413981D01*
X0091448Y0414187D01*
X0091882Y0414382D01*
X0092320Y0414567D01*
X0092763Y0414741D01*
X0093209Y0414904D01*
X0093660Y0415057D01*
X0094114Y0415198D01*
X0094572Y0415329D01*
X0095032Y0415448D01*
X0095495Y0415556D01*
X0095961Y0415653D01*
X0096429Y0415739D01*
X0096899Y0415813D01*
X0097370Y0415876D01*
X0097843Y0415928D01*
X0098317Y0415968D01*
X0098792Y0415997D01*
X0099267Y0416014D01*
X0099743Y0416020D01*
X0119822Y0416020D01*
X0174153Y0416020D02*
X0194231Y0416020D01*
X0194707Y0416014D01*
X0195182Y0415997D01*
X0195657Y0415968D01*
X0196131Y0415928D01*
X0196604Y0415876D01*
X0197075Y0415813D01*
X0197545Y0415739D01*
X0198013Y0415653D01*
X0198479Y0415556D01*
X0198942Y0415448D01*
X0199402Y0415329D01*
X0199860Y0415198D01*
X0200314Y0415057D01*
X0200765Y0414904D01*
X0201211Y0414741D01*
X0201654Y0414567D01*
X0202092Y0414382D01*
X0202526Y0414187D01*
X0202955Y0413981D01*
X0203379Y0413765D01*
X0203798Y0413539D01*
X0204211Y0413303D01*
X0204618Y0413057D01*
X0205019Y0412801D01*
X0205413Y0412535D01*
X0205802Y0412260D01*
X0206183Y0411976D01*
X0206557Y0411683D01*
X0206925Y0411381D01*
X0207285Y0411069D01*
X0207637Y0410750D01*
X0207981Y0410422D01*
X0208318Y0410085D01*
X0208646Y0409741D01*
X0208965Y0409389D01*
X0209277Y0409029D01*
X0209579Y0408661D01*
X0209872Y0408287D01*
X0210156Y0407906D01*
X0210431Y0407517D01*
X0210697Y0407123D01*
X0210953Y0406722D01*
X0211199Y0406315D01*
X0211435Y0405902D01*
X0211661Y0405483D01*
X0211877Y0405059D01*
X0212083Y0404630D01*
X0212278Y0404196D01*
X0212463Y0403758D01*
X0212637Y0403315D01*
X0212800Y0402869D01*
X0212953Y0402418D01*
X0213094Y0401964D01*
X0213225Y0401506D01*
X0213344Y0401046D01*
X0213452Y0400583D01*
X0213549Y0400117D01*
X0213635Y0399649D01*
X0213709Y0399179D01*
X0213772Y0398708D01*
X0213824Y0398235D01*
X0213864Y0397761D01*
X0213893Y0397286D01*
X0213910Y0396811D01*
X0213916Y0396335D01*
D12*
X0064310Y0412083D02*
X0505255Y0412083D01*
X0505255Y0274287D02*
X0064310Y0274287D01*
X0064310Y0234917D02*
X0505255Y0234917D01*
X0505255Y0097122D02*
X0064310Y0097122D01*
D13*
X0202106Y0211295D02*
X0202106Y0219169D01*
X0335964Y0219169D02*
X0335964Y0211295D01*
X0469822Y0211295D02*
X0469822Y0219169D01*
X0469822Y0388461D02*
X0469822Y0396335D01*
X0335964Y0396335D02*
X0335964Y0388461D01*
X0202106Y0388461D02*
X0202106Y0396335D01*
D14*
X0165885Y0288067D02*
X0128483Y0288067D01*
X0262342Y0288067D02*
X0299743Y0288067D01*
X0396200Y0288067D02*
X0433602Y0288067D01*
X0433602Y0110902D02*
X0396200Y0110902D01*
X0299743Y0110902D02*
X0262342Y0110902D01*
X0165885Y0110902D02*
X0128483Y0110902D01*
M02*
