G75*
%MOIN*%
%OFA0B0*%
%FSLAX25Y25*%
%IPPOS*%
%LPD*%
%AMOC8*
5,1,8,0,0,1.08239X$1,22.5*
%
%ADD10C,0.00787*%
%ADD11C,0.01575*%
%ADD12R,0.05118X0.06693*%
%ADD13C,0.01969*%
%ADD14C,0.01181*%
%ADD15R,0.06299X0.10236*%
%ADD16R,0.02362X0.02362*%
%ADD17R,0.01181X0.01181*%
D10*
X0152106Y0162870D02*
X0152106Y0173106D01*
X0158405Y0173106D01*
X0158405Y0162870D01*
X0152106Y0162870D01*
X0173365Y0166020D02*
X0174153Y0166020D01*
X0174153Y0167988D02*
X0173365Y0167988D01*
X0173365Y0169957D02*
X0174153Y0169957D01*
X0178877Y0169957D02*
X0179665Y0169957D01*
X0179665Y0166020D02*
X0178877Y0166020D01*
X0178877Y0180193D02*
X0179665Y0180193D01*
X0179665Y0184130D02*
X0178877Y0184130D01*
X0174153Y0184130D02*
X0173365Y0184130D01*
X0173365Y0182161D02*
X0174153Y0182161D01*
X0174153Y0180193D02*
X0173365Y0180193D01*
X0173562Y0150075D02*
X0173562Y0146138D01*
X0175531Y0146138D02*
X0175531Y0150075D01*
X0177499Y0150075D02*
X0177499Y0146138D01*
X0179468Y0146138D02*
X0179468Y0150075D01*
X0181436Y0150075D02*
X0181436Y0146138D01*
X0183405Y0146138D02*
X0183405Y0150075D01*
X0185373Y0150075D02*
X0185373Y0146138D01*
X0187342Y0146138D02*
X0187342Y0150075D01*
X0189310Y0150075D02*
X0189310Y0146138D01*
X0191279Y0146138D02*
X0191279Y0150075D01*
X0348956Y0162870D02*
X0348956Y0173106D01*
X0355255Y0173106D01*
X0355255Y0162870D01*
X0348956Y0162870D01*
X0370216Y0166020D02*
X0371003Y0166020D01*
X0371003Y0167988D02*
X0370216Y0167988D01*
X0370216Y0169957D02*
X0371003Y0169957D01*
X0375728Y0169957D02*
X0376515Y0169957D01*
X0376515Y0166020D02*
X0375728Y0166020D01*
X0375728Y0180193D02*
X0376515Y0180193D01*
X0376515Y0184130D02*
X0375728Y0184130D01*
X0371003Y0184130D02*
X0370216Y0184130D01*
X0370216Y0182161D02*
X0371003Y0182161D01*
X0371003Y0180193D02*
X0370216Y0180193D01*
X0370413Y0150075D02*
X0370413Y0146138D01*
X0372381Y0146138D02*
X0372381Y0150075D01*
X0374350Y0150075D02*
X0374350Y0146138D01*
X0376318Y0146138D02*
X0376318Y0150075D01*
X0378287Y0150075D02*
X0378287Y0146138D01*
X0380255Y0146138D02*
X0380255Y0150075D01*
X0382224Y0150075D02*
X0382224Y0146138D01*
X0384192Y0146138D02*
X0384192Y0150075D01*
X0386161Y0150075D02*
X0386161Y0146138D01*
X0388129Y0146138D02*
X0388129Y0150075D01*
X0388129Y0323303D02*
X0388129Y0327240D01*
X0386161Y0327240D02*
X0386161Y0323303D01*
X0384192Y0323303D02*
X0384192Y0327240D01*
X0382224Y0327240D02*
X0382224Y0323303D01*
X0380255Y0323303D02*
X0380255Y0327240D01*
X0378287Y0327240D02*
X0378287Y0323303D01*
X0376318Y0323303D02*
X0376318Y0327240D01*
X0374350Y0327240D02*
X0374350Y0323303D01*
X0372381Y0323303D02*
X0372381Y0327240D01*
X0370413Y0327240D02*
X0370413Y0323303D01*
X0370216Y0343185D02*
X0371003Y0343185D01*
X0371003Y0345154D02*
X0370216Y0345154D01*
X0370216Y0347122D02*
X0371003Y0347122D01*
X0375728Y0347122D02*
X0376515Y0347122D01*
X0376515Y0343185D02*
X0375728Y0343185D01*
X0375728Y0357358D02*
X0376515Y0357358D01*
X0376515Y0361295D02*
X0375728Y0361295D01*
X0371003Y0361295D02*
X0370216Y0361295D01*
X0370216Y0359327D02*
X0371003Y0359327D01*
X0371003Y0357358D02*
X0370216Y0357358D01*
X0355255Y0350272D02*
X0355255Y0340035D01*
X0348956Y0340035D01*
X0348956Y0350272D01*
X0355255Y0350272D01*
X0191279Y0327240D02*
X0191279Y0323303D01*
X0189310Y0323303D02*
X0189310Y0327240D01*
X0187342Y0327240D02*
X0187342Y0323303D01*
X0185373Y0323303D02*
X0185373Y0327240D01*
X0183405Y0327240D02*
X0183405Y0323303D01*
X0181436Y0323303D02*
X0181436Y0327240D01*
X0179468Y0327240D02*
X0179468Y0323303D01*
X0177499Y0323303D02*
X0177499Y0327240D01*
X0175531Y0327240D02*
X0175531Y0323303D01*
X0173562Y0323303D02*
X0173562Y0327240D01*
X0173365Y0343185D02*
X0174153Y0343185D01*
X0174153Y0345154D02*
X0173365Y0345154D01*
X0173365Y0347122D02*
X0174153Y0347122D01*
X0178877Y0347122D02*
X0179665Y0347122D01*
X0179665Y0343185D02*
X0178877Y0343185D01*
X0178877Y0357358D02*
X0179665Y0357358D01*
X0179665Y0361295D02*
X0178877Y0361295D01*
X0174153Y0361295D02*
X0173365Y0361295D01*
X0173365Y0359327D02*
X0174153Y0359327D01*
X0174153Y0357358D02*
X0173365Y0357358D01*
X0158405Y0350272D02*
X0158405Y0340035D01*
X0152106Y0340035D01*
X0152106Y0350272D01*
X0158405Y0350272D01*
D11*
X0163326Y0137870D02*
X0163326Y0131177D01*
X0168444Y0131177D01*
X0168444Y0137870D01*
X0163326Y0137870D01*
X0185964Y0153815D02*
X0185964Y0154602D01*
X0186751Y0154602D01*
X0186751Y0153815D01*
X0185964Y0153815D01*
X0190688Y0153815D02*
X0190688Y0154602D01*
X0191476Y0154602D01*
X0191476Y0153815D01*
X0190688Y0153815D01*
X0190688Y0160902D02*
X0190688Y0161689D01*
X0191476Y0161689D01*
X0191476Y0160902D01*
X0190688Y0160902D01*
X0186751Y0160902D02*
X0185964Y0160902D01*
X0185964Y0161689D01*
X0186751Y0161689D01*
X0186751Y0160902D01*
X0179271Y0174681D02*
X0179271Y0175469D01*
X0178483Y0175469D01*
X0178483Y0174681D01*
X0179271Y0174681D01*
X0174546Y0174681D02*
X0174546Y0175469D01*
X0173759Y0175469D01*
X0173759Y0174681D01*
X0174546Y0174681D01*
X0174546Y0188854D02*
X0174546Y0189642D01*
X0173759Y0189642D01*
X0173759Y0188854D01*
X0174546Y0188854D01*
X0178483Y0188854D02*
X0178483Y0189642D01*
X0179271Y0189642D01*
X0179271Y0188854D01*
X0178483Y0188854D01*
X0158011Y0181768D02*
X0158011Y0180980D01*
X0157224Y0180980D01*
X0157224Y0181768D01*
X0158011Y0181768D01*
X0153287Y0181768D02*
X0153287Y0180980D01*
X0152499Y0180980D01*
X0152499Y0181768D01*
X0153287Y0181768D01*
X0145609Y0189445D02*
X0145609Y0191413D01*
X0143641Y0191413D01*
X0143641Y0189445D01*
X0145609Y0189445D01*
X0138523Y0189445D02*
X0138523Y0191413D01*
X0136554Y0191413D01*
X0136554Y0189445D01*
X0138523Y0189445D01*
X0138523Y0196138D02*
X0138523Y0198500D01*
X0137735Y0198500D01*
X0137735Y0196138D01*
X0138523Y0196138D01*
X0142854Y0196138D02*
X0142854Y0198500D01*
X0143641Y0198500D01*
X0143641Y0196138D01*
X0142854Y0196138D01*
X0142854Y0203618D02*
X0142854Y0205980D01*
X0143641Y0205980D01*
X0143641Y0203618D01*
X0142854Y0203618D01*
X0138523Y0203618D02*
X0138523Y0205980D01*
X0137735Y0205980D01*
X0137735Y0203618D01*
X0138523Y0203618D01*
X0138523Y0210311D02*
X0136554Y0210311D01*
X0136554Y0212280D01*
X0138523Y0212280D01*
X0138523Y0210311D01*
X0143641Y0210311D02*
X0143641Y0212280D01*
X0145609Y0212280D01*
X0145609Y0210311D01*
X0143641Y0210311D01*
X0141476Y0180193D02*
X0141476Y0179406D01*
X0140688Y0179406D01*
X0140688Y0180193D01*
X0141476Y0180193D01*
X0141476Y0175469D02*
X0141476Y0174681D01*
X0140688Y0174681D01*
X0140688Y0175469D01*
X0141476Y0175469D01*
X0136751Y0175469D02*
X0136751Y0174681D01*
X0135964Y0174681D01*
X0135964Y0175469D01*
X0136751Y0175469D01*
X0136751Y0179406D02*
X0135964Y0179406D01*
X0135964Y0180193D01*
X0136751Y0180193D01*
X0136751Y0179406D01*
X0136751Y0170744D02*
X0136751Y0169957D01*
X0135964Y0169957D01*
X0135964Y0170744D01*
X0136751Y0170744D01*
X0140688Y0170744D02*
X0140688Y0169957D01*
X0141476Y0169957D01*
X0141476Y0170744D01*
X0140688Y0170744D01*
X0140688Y0166020D02*
X0140688Y0165232D01*
X0141476Y0165232D01*
X0141476Y0166020D01*
X0140688Y0166020D01*
X0136751Y0166020D02*
X0136751Y0165232D01*
X0135964Y0165232D01*
X0135964Y0166020D01*
X0136751Y0166020D01*
X0136751Y0161295D02*
X0136751Y0160508D01*
X0135964Y0160508D01*
X0135964Y0161295D01*
X0136751Y0161295D01*
X0140688Y0161295D02*
X0140688Y0160508D01*
X0141476Y0160508D01*
X0141476Y0161295D01*
X0140688Y0161295D01*
X0140688Y0156571D02*
X0140688Y0155783D01*
X0141476Y0155783D01*
X0141476Y0156571D01*
X0140688Y0156571D01*
X0136751Y0156571D02*
X0136751Y0155783D01*
X0135964Y0155783D01*
X0135964Y0156571D01*
X0136751Y0156571D01*
X0196397Y0137870D02*
X0196397Y0131177D01*
X0201515Y0131177D01*
X0201515Y0137870D01*
X0196397Y0137870D01*
X0211948Y0196335D02*
X0211948Y0197122D01*
X0212735Y0197122D01*
X0212735Y0196335D01*
X0211948Y0196335D01*
X0216672Y0196335D02*
X0216672Y0197122D01*
X0217460Y0197122D01*
X0217460Y0196335D01*
X0216672Y0196335D01*
X0333405Y0191413D02*
X0333405Y0189445D01*
X0335373Y0189445D01*
X0335373Y0191413D01*
X0333405Y0191413D01*
X0334586Y0196138D02*
X0334586Y0198500D01*
X0335373Y0198500D01*
X0335373Y0196138D01*
X0334586Y0196138D01*
X0339704Y0196138D02*
X0339704Y0198500D01*
X0340491Y0198500D01*
X0340491Y0196138D01*
X0339704Y0196138D01*
X0340491Y0191413D02*
X0340491Y0189445D01*
X0342460Y0189445D01*
X0342460Y0191413D01*
X0340491Y0191413D01*
X0340491Y0203618D02*
X0340491Y0205980D01*
X0339704Y0205980D01*
X0339704Y0203618D01*
X0340491Y0203618D01*
X0335373Y0203618D02*
X0335373Y0205980D01*
X0334586Y0205980D01*
X0334586Y0203618D01*
X0335373Y0203618D01*
X0335373Y0210311D02*
X0333405Y0210311D01*
X0333405Y0212280D01*
X0335373Y0212280D01*
X0335373Y0210311D01*
X0340491Y0210311D02*
X0340491Y0212280D01*
X0342460Y0212280D01*
X0342460Y0210311D01*
X0340491Y0210311D01*
X0349350Y0181768D02*
X0350137Y0181768D01*
X0350137Y0180980D01*
X0349350Y0180980D01*
X0349350Y0181768D01*
X0354074Y0181768D02*
X0354074Y0180980D01*
X0354861Y0180980D01*
X0354861Y0181768D01*
X0354074Y0181768D01*
X0338326Y0180193D02*
X0338326Y0179406D01*
X0337539Y0179406D01*
X0337539Y0180193D01*
X0338326Y0180193D01*
X0333602Y0180193D02*
X0333602Y0179406D01*
X0332814Y0179406D01*
X0332814Y0180193D01*
X0333602Y0180193D01*
X0333602Y0175469D02*
X0333602Y0174681D01*
X0332814Y0174681D01*
X0332814Y0175469D01*
X0333602Y0175469D01*
X0337539Y0175469D02*
X0337539Y0174681D01*
X0338326Y0174681D01*
X0338326Y0175469D01*
X0337539Y0175469D01*
X0337539Y0170744D02*
X0337539Y0169957D01*
X0338326Y0169957D01*
X0338326Y0170744D01*
X0337539Y0170744D01*
X0333602Y0170744D02*
X0333602Y0169957D01*
X0332814Y0169957D01*
X0332814Y0170744D01*
X0333602Y0170744D01*
X0333602Y0166020D02*
X0333602Y0165232D01*
X0332814Y0165232D01*
X0332814Y0166020D01*
X0333602Y0166020D01*
X0337539Y0166020D02*
X0337539Y0165232D01*
X0338326Y0165232D01*
X0338326Y0166020D01*
X0337539Y0166020D01*
X0337539Y0161295D02*
X0337539Y0160508D01*
X0338326Y0160508D01*
X0338326Y0161295D01*
X0337539Y0161295D01*
X0333602Y0161295D02*
X0333602Y0160508D01*
X0332814Y0160508D01*
X0332814Y0161295D01*
X0333602Y0161295D01*
X0333602Y0156571D02*
X0333602Y0155783D01*
X0332814Y0155783D01*
X0332814Y0156571D01*
X0333602Y0156571D01*
X0337539Y0156571D02*
X0337539Y0155783D01*
X0338326Y0155783D01*
X0338326Y0156571D01*
X0337539Y0156571D01*
X0360176Y0137870D02*
X0360176Y0131177D01*
X0365294Y0131177D01*
X0365294Y0137870D01*
X0360176Y0137870D01*
X0382814Y0153815D02*
X0382814Y0154602D01*
X0383602Y0154602D01*
X0383602Y0153815D01*
X0382814Y0153815D01*
X0387539Y0153815D02*
X0387539Y0154602D01*
X0388326Y0154602D01*
X0388326Y0153815D01*
X0387539Y0153815D01*
X0387539Y0160902D02*
X0387539Y0161689D01*
X0388326Y0161689D01*
X0388326Y0160902D01*
X0387539Y0160902D01*
X0383602Y0160902D02*
X0382814Y0160902D01*
X0382814Y0161689D01*
X0383602Y0161689D01*
X0383602Y0160902D01*
X0376121Y0174681D02*
X0376121Y0175469D01*
X0375334Y0175469D01*
X0375334Y0174681D01*
X0376121Y0174681D01*
X0371397Y0174681D02*
X0371397Y0175469D01*
X0370609Y0175469D01*
X0370609Y0174681D01*
X0371397Y0174681D01*
X0371397Y0188854D02*
X0371397Y0189642D01*
X0370609Y0189642D01*
X0370609Y0188854D01*
X0371397Y0188854D01*
X0375334Y0188854D02*
X0375334Y0189642D01*
X0376121Y0189642D01*
X0376121Y0188854D01*
X0375334Y0188854D01*
X0408798Y0196335D02*
X0408798Y0197122D01*
X0409586Y0197122D01*
X0409586Y0196335D01*
X0408798Y0196335D01*
X0413523Y0196335D02*
X0413523Y0197122D01*
X0414310Y0197122D01*
X0414310Y0196335D01*
X0413523Y0196335D01*
X0398365Y0137870D02*
X0393247Y0137870D01*
X0393247Y0131177D01*
X0398365Y0131177D01*
X0398365Y0137870D01*
X0398365Y0308343D02*
X0393247Y0308343D01*
X0393247Y0315035D01*
X0398365Y0315035D01*
X0398365Y0308343D01*
X0388326Y0330980D02*
X0387539Y0330980D01*
X0387539Y0331768D01*
X0388326Y0331768D01*
X0388326Y0330980D01*
X0383602Y0330980D02*
X0382814Y0330980D01*
X0382814Y0331768D01*
X0383602Y0331768D01*
X0383602Y0330980D01*
X0383602Y0338067D02*
X0382814Y0338067D01*
X0382814Y0338854D01*
X0383602Y0338854D01*
X0383602Y0338067D01*
X0387539Y0338067D02*
X0387539Y0338854D01*
X0388326Y0338854D01*
X0388326Y0338067D01*
X0387539Y0338067D01*
X0376121Y0351846D02*
X0376121Y0352634D01*
X0375334Y0352634D01*
X0375334Y0351846D01*
X0376121Y0351846D01*
X0371397Y0351846D02*
X0371397Y0352634D01*
X0370609Y0352634D01*
X0370609Y0351846D01*
X0371397Y0351846D01*
X0371397Y0366020D02*
X0371397Y0366807D01*
X0370609Y0366807D01*
X0370609Y0366020D01*
X0371397Y0366020D01*
X0375334Y0366020D02*
X0375334Y0366807D01*
X0376121Y0366807D01*
X0376121Y0366020D01*
X0375334Y0366020D01*
X0354861Y0358933D02*
X0354861Y0358146D01*
X0354074Y0358146D01*
X0354074Y0358933D01*
X0354861Y0358933D01*
X0350137Y0358933D02*
X0350137Y0358146D01*
X0349350Y0358146D01*
X0349350Y0358933D01*
X0350137Y0358933D01*
X0342460Y0366610D02*
X0342460Y0368579D01*
X0340491Y0368579D01*
X0340491Y0366610D01*
X0342460Y0366610D01*
X0335373Y0366610D02*
X0335373Y0368579D01*
X0333405Y0368579D01*
X0333405Y0366610D01*
X0335373Y0366610D01*
X0335373Y0373303D02*
X0335373Y0375665D01*
X0334586Y0375665D01*
X0334586Y0373303D01*
X0335373Y0373303D01*
X0339704Y0373303D02*
X0339704Y0375665D01*
X0340491Y0375665D01*
X0340491Y0373303D01*
X0339704Y0373303D01*
X0339704Y0380783D02*
X0339704Y0383146D01*
X0340491Y0383146D01*
X0340491Y0380783D01*
X0339704Y0380783D01*
X0335373Y0380783D02*
X0335373Y0383146D01*
X0334586Y0383146D01*
X0334586Y0380783D01*
X0335373Y0380783D01*
X0335373Y0387476D02*
X0333405Y0387476D01*
X0333405Y0389445D01*
X0335373Y0389445D01*
X0335373Y0387476D01*
X0340491Y0387476D02*
X0340491Y0389445D01*
X0342460Y0389445D01*
X0342460Y0387476D01*
X0340491Y0387476D01*
X0338326Y0357358D02*
X0338326Y0356571D01*
X0337539Y0356571D01*
X0337539Y0357358D01*
X0338326Y0357358D01*
X0338326Y0352634D02*
X0338326Y0351846D01*
X0337539Y0351846D01*
X0337539Y0352634D01*
X0338326Y0352634D01*
X0333602Y0352634D02*
X0333602Y0351846D01*
X0332814Y0351846D01*
X0332814Y0352634D01*
X0333602Y0352634D01*
X0333602Y0356571D02*
X0332814Y0356571D01*
X0332814Y0357358D01*
X0333602Y0357358D01*
X0333602Y0356571D01*
X0333602Y0347909D02*
X0333602Y0347122D01*
X0332814Y0347122D01*
X0332814Y0347909D01*
X0333602Y0347909D01*
X0337539Y0347909D02*
X0337539Y0347122D01*
X0338326Y0347122D01*
X0338326Y0347909D01*
X0337539Y0347909D01*
X0337539Y0343185D02*
X0337539Y0342398D01*
X0338326Y0342398D01*
X0338326Y0343185D01*
X0337539Y0343185D01*
X0333602Y0343185D02*
X0333602Y0342398D01*
X0332814Y0342398D01*
X0332814Y0343185D01*
X0333602Y0343185D01*
X0333602Y0338461D02*
X0333602Y0337673D01*
X0332814Y0337673D01*
X0332814Y0338461D01*
X0333602Y0338461D01*
X0337539Y0338461D02*
X0337539Y0337673D01*
X0338326Y0337673D01*
X0338326Y0338461D01*
X0337539Y0338461D01*
X0337539Y0333736D02*
X0337539Y0332949D01*
X0338326Y0332949D01*
X0338326Y0333736D01*
X0337539Y0333736D01*
X0333602Y0333736D02*
X0333602Y0332949D01*
X0332814Y0332949D01*
X0332814Y0333736D01*
X0333602Y0333736D01*
X0360176Y0315035D02*
X0360176Y0308343D01*
X0365294Y0308343D01*
X0365294Y0315035D01*
X0360176Y0315035D01*
X0408798Y0373500D02*
X0408798Y0374287D01*
X0409586Y0374287D01*
X0409586Y0373500D01*
X0408798Y0373500D01*
X0413523Y0373500D02*
X0413523Y0374287D01*
X0414310Y0374287D01*
X0414310Y0373500D01*
X0413523Y0373500D01*
X0217460Y0373500D02*
X0217460Y0374287D01*
X0216672Y0374287D01*
X0216672Y0373500D01*
X0217460Y0373500D01*
X0212735Y0373500D02*
X0212735Y0374287D01*
X0211948Y0374287D01*
X0211948Y0373500D01*
X0212735Y0373500D01*
X0179271Y0366807D02*
X0179271Y0366020D01*
X0178483Y0366020D01*
X0178483Y0366807D01*
X0179271Y0366807D01*
X0174546Y0366807D02*
X0174546Y0366020D01*
X0173759Y0366020D01*
X0173759Y0366807D01*
X0174546Y0366807D01*
X0174546Y0352634D02*
X0174546Y0351846D01*
X0173759Y0351846D01*
X0173759Y0352634D01*
X0174546Y0352634D01*
X0178483Y0352634D02*
X0179271Y0352634D01*
X0179271Y0351846D01*
X0178483Y0351846D01*
X0178483Y0352634D01*
X0185964Y0338854D02*
X0185964Y0338067D01*
X0186751Y0338067D01*
X0186751Y0338854D01*
X0185964Y0338854D01*
X0190688Y0338854D02*
X0190688Y0338067D01*
X0191476Y0338067D01*
X0191476Y0338854D01*
X0190688Y0338854D01*
X0190688Y0331768D02*
X0190688Y0330980D01*
X0191476Y0330980D01*
X0191476Y0331768D01*
X0190688Y0331768D01*
X0186751Y0331768D02*
X0186751Y0330980D01*
X0185964Y0330980D01*
X0185964Y0331768D01*
X0186751Y0331768D01*
X0196397Y0315035D02*
X0196397Y0308343D01*
X0201515Y0308343D01*
X0201515Y0315035D01*
X0196397Y0315035D01*
X0168444Y0315035D02*
X0168444Y0308343D01*
X0163326Y0308343D01*
X0163326Y0315035D01*
X0168444Y0315035D01*
X0141476Y0332949D02*
X0140688Y0332949D01*
X0140688Y0333736D01*
X0141476Y0333736D01*
X0141476Y0332949D01*
X0141476Y0337673D02*
X0140688Y0337673D01*
X0140688Y0338461D01*
X0141476Y0338461D01*
X0141476Y0337673D01*
X0141476Y0342398D02*
X0140688Y0342398D01*
X0140688Y0343185D01*
X0141476Y0343185D01*
X0141476Y0342398D01*
X0141476Y0347122D02*
X0140688Y0347122D01*
X0140688Y0347909D01*
X0141476Y0347909D01*
X0141476Y0347122D01*
X0141476Y0351846D02*
X0140688Y0351846D01*
X0140688Y0352634D01*
X0141476Y0352634D01*
X0141476Y0351846D01*
X0136751Y0351846D02*
X0135964Y0351846D01*
X0135964Y0352634D01*
X0136751Y0352634D01*
X0136751Y0351846D01*
X0136751Y0347909D02*
X0136751Y0347122D01*
X0135964Y0347122D01*
X0135964Y0347909D01*
X0136751Y0347909D01*
X0136751Y0343185D02*
X0136751Y0342398D01*
X0135964Y0342398D01*
X0135964Y0343185D01*
X0136751Y0343185D01*
X0136751Y0338461D02*
X0136751Y0337673D01*
X0135964Y0337673D01*
X0135964Y0338461D01*
X0136751Y0338461D01*
X0136751Y0333736D02*
X0136751Y0332949D01*
X0135964Y0332949D01*
X0135964Y0333736D01*
X0136751Y0333736D01*
X0136751Y0356571D02*
X0135964Y0356571D01*
X0135964Y0357358D01*
X0136751Y0357358D01*
X0136751Y0356571D01*
X0140688Y0356571D02*
X0140688Y0357358D01*
X0141476Y0357358D01*
X0141476Y0356571D01*
X0140688Y0356571D01*
X0138523Y0366610D02*
X0136554Y0366610D01*
X0136554Y0368579D01*
X0138523Y0368579D01*
X0138523Y0366610D01*
X0143641Y0366610D02*
X0143641Y0368579D01*
X0145609Y0368579D01*
X0145609Y0366610D01*
X0143641Y0366610D01*
X0143641Y0373303D02*
X0143641Y0375665D01*
X0142854Y0375665D01*
X0142854Y0373303D01*
X0143641Y0373303D01*
X0138523Y0373303D02*
X0138523Y0375665D01*
X0137735Y0375665D01*
X0137735Y0373303D01*
X0138523Y0373303D01*
X0138523Y0380783D02*
X0138523Y0383146D01*
X0137735Y0383146D01*
X0137735Y0380783D01*
X0138523Y0380783D01*
X0142854Y0380783D02*
X0142854Y0383146D01*
X0143641Y0383146D01*
X0143641Y0380783D01*
X0142854Y0380783D01*
X0143641Y0387476D02*
X0143641Y0389445D01*
X0145609Y0389445D01*
X0145609Y0387476D01*
X0143641Y0387476D01*
X0138523Y0387476D02*
X0136554Y0387476D01*
X0136554Y0389445D01*
X0138523Y0389445D01*
X0138523Y0387476D01*
X0152499Y0358933D02*
X0153287Y0358933D01*
X0153287Y0358146D01*
X0152499Y0358146D01*
X0152499Y0358933D01*
X0157224Y0358933D02*
X0157224Y0358146D01*
X0158011Y0358146D01*
X0158011Y0358933D01*
X0157224Y0358933D01*
D12*
X0165885Y0311689D03*
X0198956Y0311689D03*
X0362735Y0311689D03*
X0395806Y0311689D03*
X0395806Y0134524D03*
X0362735Y0134524D03*
X0198956Y0134524D03*
X0165885Y0134524D03*
D13*
X0191869Y0176236D02*
X0198169Y0176236D01*
X0198169Y0181236D02*
X0191869Y0181236D01*
X0191869Y0186236D02*
X0198169Y0186236D01*
X0198169Y0191236D02*
X0191869Y0191236D01*
X0213917Y0191236D02*
X0220216Y0191236D01*
X0220216Y0186236D02*
X0213917Y0186236D01*
X0213917Y0181236D02*
X0220216Y0181236D01*
X0220216Y0176236D02*
X0213917Y0176236D01*
X0388720Y0176236D02*
X0395019Y0176236D01*
X0395019Y0181236D02*
X0388720Y0181236D01*
X0388720Y0186236D02*
X0395019Y0186236D01*
X0395019Y0191236D02*
X0388720Y0191236D01*
X0410767Y0191236D02*
X0417066Y0191236D01*
X0417066Y0186236D02*
X0410767Y0186236D01*
X0410767Y0181236D02*
X0417066Y0181236D01*
X0417066Y0176236D02*
X0410767Y0176236D01*
X0410767Y0353402D02*
X0417066Y0353402D01*
X0417066Y0358402D02*
X0410767Y0358402D01*
X0410767Y0363402D02*
X0417066Y0363402D01*
X0417066Y0368402D02*
X0410767Y0368402D01*
X0395019Y0368402D02*
X0388720Y0368402D01*
X0388720Y0363402D02*
X0395019Y0363402D01*
X0395019Y0358402D02*
X0388720Y0358402D01*
X0388720Y0353402D02*
X0395019Y0353402D01*
X0220216Y0353402D02*
X0213917Y0353402D01*
X0213917Y0358402D02*
X0220216Y0358402D01*
X0220216Y0363402D02*
X0213917Y0363402D01*
X0213917Y0368402D02*
X0220216Y0368402D01*
X0198169Y0368402D02*
X0191869Y0368402D01*
X0191869Y0363402D02*
X0198169Y0363402D01*
X0198169Y0358402D02*
X0191869Y0358402D01*
X0191869Y0353402D02*
X0198169Y0353402D01*
D14*
X0162932Y0352043D02*
X0161357Y0352043D01*
X0161357Y0350075D02*
X0162932Y0350075D01*
X0162932Y0348106D02*
X0161357Y0348106D01*
X0161357Y0346138D02*
X0162932Y0346138D01*
X0162932Y0344169D02*
X0161357Y0344169D01*
X0161357Y0342201D02*
X0162932Y0342201D01*
X0162932Y0340232D02*
X0161357Y0340232D01*
X0161357Y0338264D02*
X0162932Y0338264D01*
X0158208Y0337083D02*
X0158208Y0335508D01*
X0152302Y0335508D02*
X0152302Y0337083D01*
X0149153Y0338264D02*
X0147578Y0338264D01*
X0147578Y0340232D02*
X0149153Y0340232D01*
X0149153Y0342201D02*
X0147578Y0342201D01*
X0147578Y0344169D02*
X0149153Y0344169D01*
X0149153Y0346138D02*
X0147578Y0346138D01*
X0147578Y0348106D02*
X0149153Y0348106D01*
X0149153Y0350075D02*
X0147578Y0350075D01*
X0147578Y0352043D02*
X0149153Y0352043D01*
X0152302Y0353224D02*
X0152302Y0354799D01*
X0158208Y0354799D02*
X0158208Y0353224D01*
X0344428Y0352043D02*
X0346003Y0352043D01*
X0346003Y0350075D02*
X0344428Y0350075D01*
X0344428Y0348106D02*
X0346003Y0348106D01*
X0346003Y0346138D02*
X0344428Y0346138D01*
X0344428Y0344169D02*
X0346003Y0344169D01*
X0346003Y0342201D02*
X0344428Y0342201D01*
X0344428Y0340232D02*
X0346003Y0340232D01*
X0346003Y0338264D02*
X0344428Y0338264D01*
X0349153Y0337083D02*
X0349153Y0335508D01*
X0355058Y0335508D02*
X0355058Y0337083D01*
X0358208Y0338264D02*
X0359783Y0338264D01*
X0359783Y0340232D02*
X0358208Y0340232D01*
X0358208Y0342201D02*
X0359783Y0342201D01*
X0359783Y0344169D02*
X0358208Y0344169D01*
X0358208Y0346138D02*
X0359783Y0346138D01*
X0359783Y0348106D02*
X0358208Y0348106D01*
X0358208Y0350075D02*
X0359783Y0350075D01*
X0359783Y0352043D02*
X0358208Y0352043D01*
X0355058Y0353224D02*
X0355058Y0354799D01*
X0349153Y0354799D02*
X0349153Y0353224D01*
X0349153Y0177634D02*
X0349153Y0176059D01*
X0346003Y0174878D02*
X0344428Y0174878D01*
X0344428Y0172909D02*
X0346003Y0172909D01*
X0346003Y0170941D02*
X0344428Y0170941D01*
X0344428Y0168972D02*
X0346003Y0168972D01*
X0346003Y0167004D02*
X0344428Y0167004D01*
X0344428Y0165035D02*
X0346003Y0165035D01*
X0346003Y0163067D02*
X0344428Y0163067D01*
X0344428Y0161098D02*
X0346003Y0161098D01*
X0349153Y0159917D02*
X0349153Y0158343D01*
X0355058Y0158343D02*
X0355058Y0159917D01*
X0358208Y0161098D02*
X0359783Y0161098D01*
X0359783Y0163067D02*
X0358208Y0163067D01*
X0358208Y0165035D02*
X0359783Y0165035D01*
X0359783Y0167004D02*
X0358208Y0167004D01*
X0358208Y0168972D02*
X0359783Y0168972D01*
X0359783Y0170941D02*
X0358208Y0170941D01*
X0358208Y0172909D02*
X0359783Y0172909D01*
X0359783Y0174878D02*
X0358208Y0174878D01*
X0355058Y0176059D02*
X0355058Y0177634D01*
X0162932Y0174878D02*
X0161357Y0174878D01*
X0161357Y0172909D02*
X0162932Y0172909D01*
X0162932Y0170941D02*
X0161357Y0170941D01*
X0161357Y0168972D02*
X0162932Y0168972D01*
X0162932Y0167004D02*
X0161357Y0167004D01*
X0161357Y0165035D02*
X0162932Y0165035D01*
X0162932Y0163067D02*
X0161357Y0163067D01*
X0161357Y0161098D02*
X0162932Y0161098D01*
X0158208Y0159917D02*
X0158208Y0158343D01*
X0152302Y0158343D02*
X0152302Y0159917D01*
X0149153Y0161098D02*
X0147578Y0161098D01*
X0147578Y0163067D02*
X0149153Y0163067D01*
X0149153Y0165035D02*
X0147578Y0165035D01*
X0147578Y0167004D02*
X0149153Y0167004D01*
X0149153Y0168972D02*
X0147578Y0168972D01*
X0147578Y0170941D02*
X0149153Y0170941D01*
X0149153Y0172909D02*
X0147578Y0172909D01*
X0147578Y0174878D02*
X0149153Y0174878D01*
X0152302Y0176059D02*
X0152302Y0177634D01*
X0158208Y0177634D02*
X0158208Y0176059D01*
D15*
X0155255Y0167988D03*
X0155255Y0345154D03*
X0352106Y0345154D03*
X0352106Y0167988D03*
D16*
X0341476Y0190429D03*
X0334389Y0190429D03*
X0334389Y0211295D03*
X0341476Y0211295D03*
X0341476Y0367594D03*
X0334389Y0367594D03*
X0334389Y0388461D03*
X0341476Y0388461D03*
X0144625Y0388461D03*
X0137539Y0388461D03*
X0137539Y0367594D03*
X0144625Y0367594D03*
X0144625Y0211295D03*
X0137539Y0211295D03*
X0137539Y0190429D03*
X0144625Y0190429D03*
D17*
X0141082Y0179799D03*
X0141082Y0175075D03*
X0136357Y0175075D03*
X0136357Y0179799D03*
X0136357Y0170350D03*
X0136357Y0165626D03*
X0136357Y0160902D03*
X0136357Y0156177D03*
X0141082Y0156177D03*
X0141082Y0160902D03*
X0141082Y0165626D03*
X0141082Y0170350D03*
X0152893Y0181374D03*
X0157617Y0181374D03*
X0174153Y0175075D03*
X0178877Y0175075D03*
X0178877Y0189248D03*
X0174153Y0189248D03*
X0186357Y0161295D03*
X0191082Y0161295D03*
X0191082Y0154209D03*
X0186357Y0154209D03*
X0212342Y0196728D03*
X0217066Y0196728D03*
X0333208Y0179799D03*
X0333208Y0175075D03*
X0337932Y0175075D03*
X0337932Y0179799D03*
X0337932Y0170350D03*
X0337932Y0165626D03*
X0333208Y0165626D03*
X0333208Y0170350D03*
X0333208Y0160902D03*
X0337932Y0160902D03*
X0337932Y0156177D03*
X0333208Y0156177D03*
X0349743Y0181374D03*
X0354468Y0181374D03*
X0371003Y0175075D03*
X0375728Y0175075D03*
X0375728Y0189248D03*
X0371003Y0189248D03*
X0383208Y0161295D03*
X0387932Y0161295D03*
X0387932Y0154209D03*
X0383208Y0154209D03*
X0409192Y0196728D03*
X0413917Y0196728D03*
X0387932Y0331374D03*
X0383208Y0331374D03*
X0383208Y0338461D03*
X0387932Y0338461D03*
X0375728Y0352240D03*
X0371003Y0352240D03*
X0371003Y0366413D03*
X0375728Y0366413D03*
X0354468Y0358539D03*
X0349743Y0358539D03*
X0337932Y0356965D03*
X0333208Y0356965D03*
X0333208Y0352240D03*
X0333208Y0347516D03*
X0337932Y0347516D03*
X0337932Y0352240D03*
X0337932Y0342791D03*
X0337932Y0338067D03*
X0333208Y0338067D03*
X0333208Y0342791D03*
X0333208Y0333343D03*
X0337932Y0333343D03*
X0409192Y0373894D03*
X0413917Y0373894D03*
X0217066Y0373894D03*
X0212342Y0373894D03*
X0178877Y0366413D03*
X0174153Y0366413D03*
X0174153Y0352240D03*
X0178877Y0352240D03*
X0186357Y0338461D03*
X0191082Y0338461D03*
X0191082Y0331374D03*
X0186357Y0331374D03*
X0157617Y0358539D03*
X0152893Y0358539D03*
X0141082Y0356965D03*
X0136357Y0356965D03*
X0136357Y0352240D03*
X0136357Y0347516D03*
X0136357Y0342791D03*
X0136357Y0338067D03*
X0136357Y0333343D03*
X0141082Y0333343D03*
X0141082Y0338067D03*
X0141082Y0342791D03*
X0141082Y0347516D03*
X0141082Y0352240D03*
M02*
