%
M48
M72
T01C0.01181
T02C0.03150
T03C0.15748
%
T01
X123759Y138067
X137932Y152634
X135570Y158933
X134783Y162870
X128483Y156571
X123759Y164051
X123759Y167988
X123759Y171925
X113129Y169957
X112735Y160902
X101712Y160902
X101712Y165626
X101712Y170350
X101712Y175075
X102106Y186886
X99743Y186886
X117854Y181374
X129271Y181374
X135570Y182161
X135570Y175075
X135570Y171138
X134783Y167988
X141082Y163264
X147381Y164445
X150924Y164839
X153287Y171138
X146594Y175075
X146594Y189248
X168247Y179406
X175728Y180980
X173365Y196728
X184783Y196728
X158798Y161295
X158798Y154209
X150924Y157752
X235570Y160902
X235570Y165626
X235570Y170350
X235570Y175075
X246987Y169957
X246594Y160902
X257617Y164051
X257617Y167988
X257617Y171925
X263129Y181374
X269428Y182161
X269428Y175075
X269428Y171138
X268641Y167988
X274940Y163264
X268641Y162870
X269428Y158933
X262342Y156571
X271791Y152634
X284783Y157752
X284783Y164839
X281239Y164445
X287145Y171138
X280452Y175075
X280452Y189248
X302106Y179406
X309586Y180980
X307224Y196728
X318641Y196728
X292657Y161295
X292657Y154209
X257617Y138067
X251712Y181374
X235964Y186886
X233602Y186886
X367460Y186886
X369822Y186886
X369428Y175075
X369428Y170350
X369428Y165626
X369428Y160902
X380452Y160902
X380846Y169957
X391476Y171925
X391476Y167988
X391476Y164051
X396200Y156571
X403287Y158933
X402499Y162870
X408798Y163264
X415098Y164445
X418641Y164839
X421003Y171138
X414310Y175075
X403287Y175075
X403287Y171138
X402499Y167988
X396987Y181374
X403287Y182161
X414310Y189248
X435964Y179406
X443444Y180980
X441082Y196728
X452499Y196728
X426515Y161295
X426515Y154209
X418641Y157752
X405649Y152634
X391476Y138067
X385570Y181374
X391476Y315232
X405649Y329799
X396200Y333736
X403287Y336098
X402499Y340035
X402499Y345154
X403287Y348303
X403287Y352240
X403287Y359327
X396987Y358539
X385570Y358539
X391476Y349091
X391476Y345154
X391476Y341217
X380452Y338067
X380846Y347122
X369428Y347516
X369428Y352240
X369428Y342791
X369428Y338067
X369822Y364051
X367460Y364051
X408798Y340429
X415098Y341610
X418641Y342004
X421003Y348303
X414310Y352240
X414310Y366413
X435964Y356571
X443444Y358146
X441082Y373894
X452499Y373894
X426515Y338461
X426515Y331374
X418641Y334917
X318641Y373894
X307224Y373894
X309586Y358146
X302106Y356571
X287145Y348303
X284783Y342004
X281239Y341610
X274940Y340429
X268641Y340035
X269428Y336098
X262342Y333736
X257617Y341217
X257617Y345154
X257617Y349091
X246987Y347122
X246594Y338067
X235570Y338067
X235570Y342791
X235570Y347516
X235570Y352240
X235964Y364051
X233602Y364051
X251712Y358539
X263129Y358539
X269428Y359327
X269428Y352240
X269428Y348303
X268641Y345154
X280452Y352240
X280452Y366413
X292657Y338461
X292657Y331374
X284783Y334917
X271791Y329799
X257617Y315232
X184783Y373894
X173365Y373894
X175728Y358146
X168247Y356571
X153287Y348303
X150924Y342004
X147381Y341610
X141082Y340429
X135570Y336098
X134783Y340035
X134783Y345154
X135570Y348303
X135570Y352240
X135570Y359327
X129271Y358539
X117854Y358539
X123759Y349091
X123759Y345154
X123759Y341217
X128483Y333736
X137932Y329799
X150924Y334917
X158798Y331374
X158798Y338461
X146594Y352240
X146594Y366413
X113129Y347122
X112735Y338067
X101712Y338067
X101712Y342791
X101712Y347516
X101712Y352240
X102106Y364051
X99743Y364051
X123759Y315232
T02
X91987Y318185
X91987Y308185
X91987Y328185
X91987Y338185
X91987Y348185
X91987Y358185
X91987Y368185
X91987Y378185
X201987Y378185
X201987Y368185
X201987Y358185
X201987Y348185
X201987Y338185
X201987Y328185
X201987Y318185
X201987Y308185
X225846Y308185
X225846Y318185
X225846Y328185
X225846Y338185
X225846Y348185
X225846Y358185
X225846Y368185
X225846Y378185
X335846Y378185
X335846Y368185
X335846Y358185
X335846Y348185
X335846Y338185
X335846Y328185
X335846Y318185
X335846Y308185
X359704Y308185
X359704Y318185
X359704Y328185
X359704Y338185
X359704Y348185
X359704Y358185
X359704Y368185
X359704Y378185
X469704Y378185
X469704Y368185
X469704Y358185
X469704Y348185
X469704Y338185
X469704Y328185
X469704Y318185
X469704Y308185
X469704Y201020
X469704Y191020
X469704Y181020
X469704Y171020
X469704Y161020
X469704Y151020
X469704Y141020
X469704Y131020
X359704Y131020
X359704Y141020
X359704Y151020
X359704Y161020
X359704Y171020
X359704Y181020
X359704Y191020
X359704Y201020
X335846Y201020
X335846Y191020
X335846Y181020
X335846Y171020
X335846Y161020
X335846Y151020
X335846Y141020
X335846Y131020
X225846Y131020
X225846Y141020
X225846Y151020
X225846Y161020
X225846Y171020
X225846Y181020
X225846Y191020
X225846Y201020
X201987Y201020
X201987Y191020
X201987Y181020
X201987Y171020
X201987Y161020
X201987Y151020
X201987Y141020
X201987Y131020
X91987Y131020
X91987Y141020
X91987Y151020
X91987Y161020
X91987Y171020
X91987Y181020
X91987Y191020
X91987Y201020
T03
X83995Y77437
X477696Y77437
X477696Y431768
X83995Y431768
M30
