G75*
%MOIN*%
%OFA0B0*%
%FSLAX25Y25*%
%IPPOS*%
%LPD*%
%AMOC8*
5,1,8,0,0,1.08239X$1,22.5*
%
%ADD10C,0.16548*%
%ADD11OC8,0.06706*%
D10*
X0083995Y0077437D03*
X0477696Y0077437D03*
X0477696Y0431768D03*
X0083995Y0431768D03*
D11*
X0091987Y0378185D03*
X0091987Y0368185D03*
X0091987Y0358185D03*
X0091987Y0348185D03*
X0091987Y0338185D03*
X0091987Y0328185D03*
X0091987Y0318185D03*
X0091987Y0308185D03*
X0201987Y0308185D03*
X0201987Y0318185D03*
X0201987Y0328185D03*
X0201987Y0338185D03*
X0201987Y0348185D03*
X0201987Y0358185D03*
X0201987Y0368185D03*
X0201987Y0378185D03*
X0225846Y0378185D03*
X0225846Y0368185D03*
X0225846Y0358185D03*
X0225846Y0348185D03*
X0225846Y0338185D03*
X0225846Y0328185D03*
X0225846Y0318185D03*
X0225846Y0308185D03*
X0335846Y0308185D03*
X0335846Y0318185D03*
X0335846Y0328185D03*
X0335846Y0338185D03*
X0335846Y0348185D03*
X0335846Y0358185D03*
X0335846Y0368185D03*
X0335846Y0378185D03*
X0359704Y0378185D03*
X0359704Y0368185D03*
X0359704Y0358185D03*
X0359704Y0348185D03*
X0359704Y0338185D03*
X0359704Y0328185D03*
X0359704Y0318185D03*
X0359704Y0308185D03*
X0469704Y0308185D03*
X0469704Y0318185D03*
X0469704Y0328185D03*
X0469704Y0338185D03*
X0469704Y0348185D03*
X0469704Y0358185D03*
X0469704Y0368185D03*
X0469704Y0378185D03*
X0469704Y0201020D03*
X0469704Y0191020D03*
X0469704Y0181020D03*
X0469704Y0171020D03*
X0469704Y0161020D03*
X0469704Y0151020D03*
X0469704Y0141020D03*
X0469704Y0131020D03*
X0359704Y0131020D03*
X0359704Y0141020D03*
X0359704Y0151020D03*
X0359704Y0161020D03*
X0359704Y0171020D03*
X0359704Y0181020D03*
X0359704Y0191020D03*
X0359704Y0201020D03*
X0335846Y0201020D03*
X0335846Y0191020D03*
X0335846Y0181020D03*
X0335846Y0171020D03*
X0335846Y0161020D03*
X0335846Y0151020D03*
X0335846Y0141020D03*
X0335846Y0131020D03*
X0225846Y0131020D03*
X0225846Y0141020D03*
X0225846Y0151020D03*
X0225846Y0161020D03*
X0225846Y0171020D03*
X0225846Y0181020D03*
X0225846Y0191020D03*
X0225846Y0201020D03*
X0201987Y0201020D03*
X0201987Y0191020D03*
X0201987Y0181020D03*
X0201987Y0171020D03*
X0201987Y0161020D03*
X0201987Y0151020D03*
X0201987Y0141020D03*
X0201987Y0131020D03*
X0091987Y0131020D03*
X0091987Y0141020D03*
X0091987Y0151020D03*
X0091987Y0161020D03*
X0091987Y0171020D03*
X0091987Y0181020D03*
X0091987Y0191020D03*
X0091987Y0201020D03*
M02*
