G75*
%MOIN*%
%OFA0B0*%
%FSLAX25Y25*%
%IPPOS*%
%LPD*%
%AMOC8*
5,1,8,0,0,1.08239X$1,22.5*
%
%ADD10C,0.00787*%
%ADD11C,0.01575*%
%ADD12R,0.05118X0.06693*%
%ADD13C,0.01969*%
%ADD14C,0.01181*%
%ADD15R,0.06299X0.10236*%
%ADD16R,0.02362X0.02362*%
%ADD17R,0.01181X0.01181*%
D10*
X0150924Y0162870D02*
X0150924Y0173106D01*
X0157224Y0173106D01*
X0157224Y0162870D01*
X0150924Y0162870D01*
X0177302Y0172713D02*
X0178090Y0172713D01*
X0178090Y0174681D02*
X0177302Y0174681D01*
X0177302Y0176650D02*
X0178090Y0176650D01*
X0182814Y0176650D02*
X0183602Y0176650D01*
X0183602Y0172713D02*
X0182814Y0172713D01*
X0182814Y0186886D02*
X0183602Y0186886D01*
X0183602Y0190823D02*
X0182814Y0190823D01*
X0178090Y0190823D02*
X0177302Y0190823D01*
X0177302Y0188854D02*
X0178090Y0188854D01*
X0178090Y0186886D02*
X0177302Y0186886D01*
X0177499Y0150075D02*
X0177499Y0146138D01*
X0179468Y0146138D02*
X0179468Y0150075D01*
X0181436Y0150075D02*
X0181436Y0146138D01*
X0183405Y0146138D02*
X0183405Y0150075D01*
X0185373Y0150075D02*
X0185373Y0146138D01*
X0187342Y0146138D02*
X0187342Y0150075D01*
X0189310Y0150075D02*
X0189310Y0146138D01*
X0191279Y0146138D02*
X0191279Y0150075D01*
X0193247Y0150075D02*
X0193247Y0146138D01*
X0195216Y0146138D02*
X0195216Y0150075D01*
X0355649Y0162870D02*
X0355649Y0173106D01*
X0361948Y0173106D01*
X0361948Y0162870D01*
X0355649Y0162870D01*
X0382027Y0172713D02*
X0382814Y0172713D01*
X0382814Y0174681D02*
X0382027Y0174681D01*
X0382027Y0176650D02*
X0382814Y0176650D01*
X0387539Y0176650D02*
X0388326Y0176650D01*
X0388326Y0172713D02*
X0387539Y0172713D01*
X0387539Y0186886D02*
X0388326Y0186886D01*
X0388326Y0190823D02*
X0387539Y0190823D01*
X0382814Y0190823D02*
X0382027Y0190823D01*
X0382027Y0188854D02*
X0382814Y0188854D01*
X0382814Y0186886D02*
X0382027Y0186886D01*
X0382224Y0150075D02*
X0382224Y0146138D01*
X0384192Y0146138D02*
X0384192Y0150075D01*
X0386161Y0150075D02*
X0386161Y0146138D01*
X0388129Y0146138D02*
X0388129Y0150075D01*
X0390098Y0150075D02*
X0390098Y0146138D01*
X0392066Y0146138D02*
X0392066Y0150075D01*
X0394035Y0150075D02*
X0394035Y0146138D01*
X0396003Y0146138D02*
X0396003Y0150075D01*
X0397972Y0150075D02*
X0397972Y0146138D01*
X0399940Y0146138D02*
X0399940Y0150075D01*
X0399940Y0323303D02*
X0399940Y0327240D01*
X0397972Y0327240D02*
X0397972Y0323303D01*
X0396003Y0323303D02*
X0396003Y0327240D01*
X0394035Y0327240D02*
X0394035Y0323303D01*
X0392066Y0323303D02*
X0392066Y0327240D01*
X0390098Y0327240D02*
X0390098Y0323303D01*
X0388129Y0323303D02*
X0388129Y0327240D01*
X0386161Y0327240D02*
X0386161Y0323303D01*
X0384192Y0323303D02*
X0384192Y0327240D01*
X0382224Y0327240D02*
X0382224Y0323303D01*
X0361948Y0340035D02*
X0355649Y0340035D01*
X0355649Y0350272D01*
X0361948Y0350272D01*
X0361948Y0340035D01*
X0382027Y0349878D02*
X0382814Y0349878D01*
X0382814Y0351846D02*
X0382027Y0351846D01*
X0382027Y0353815D02*
X0382814Y0353815D01*
X0387539Y0353815D02*
X0388326Y0353815D01*
X0388326Y0349878D02*
X0387539Y0349878D01*
X0387539Y0364051D02*
X0388326Y0364051D01*
X0388326Y0367988D02*
X0387539Y0367988D01*
X0382814Y0367988D02*
X0382027Y0367988D01*
X0382027Y0366020D02*
X0382814Y0366020D01*
X0382814Y0364051D02*
X0382027Y0364051D01*
X0195216Y0327240D02*
X0195216Y0323303D01*
X0193247Y0323303D02*
X0193247Y0327240D01*
X0191279Y0327240D02*
X0191279Y0323303D01*
X0189310Y0323303D02*
X0189310Y0327240D01*
X0187342Y0327240D02*
X0187342Y0323303D01*
X0185373Y0323303D02*
X0185373Y0327240D01*
X0183405Y0327240D02*
X0183405Y0323303D01*
X0181436Y0323303D02*
X0181436Y0327240D01*
X0179468Y0327240D02*
X0179468Y0323303D01*
X0177499Y0323303D02*
X0177499Y0327240D01*
X0157224Y0340035D02*
X0150924Y0340035D01*
X0150924Y0350272D01*
X0157224Y0350272D01*
X0157224Y0340035D01*
X0177302Y0349878D02*
X0178090Y0349878D01*
X0178090Y0351846D02*
X0177302Y0351846D01*
X0177302Y0353815D02*
X0178090Y0353815D01*
X0182814Y0353815D02*
X0183602Y0353815D01*
X0183602Y0349878D02*
X0182814Y0349878D01*
X0182814Y0364051D02*
X0183602Y0364051D01*
X0183602Y0367988D02*
X0182814Y0367988D01*
X0178090Y0367988D02*
X0177302Y0367988D01*
X0177302Y0366020D02*
X0178090Y0366020D01*
X0178090Y0364051D02*
X0177302Y0364051D01*
D11*
X0167263Y0137870D02*
X0167263Y0131177D01*
X0172381Y0131177D01*
X0172381Y0137870D01*
X0167263Y0137870D01*
X0189901Y0153815D02*
X0189901Y0154602D01*
X0190688Y0154602D01*
X0190688Y0153815D01*
X0189901Y0153815D01*
X0194625Y0153815D02*
X0194625Y0154602D01*
X0195413Y0154602D01*
X0195413Y0153815D01*
X0194625Y0153815D01*
X0194625Y0160902D02*
X0194625Y0161689D01*
X0195413Y0161689D01*
X0195413Y0160902D01*
X0194625Y0160902D01*
X0190688Y0160902D02*
X0189901Y0160902D01*
X0189901Y0161689D01*
X0190688Y0161689D01*
X0190688Y0160902D01*
X0183208Y0181374D02*
X0183208Y0182161D01*
X0182420Y0182161D01*
X0182420Y0181374D01*
X0183208Y0181374D01*
X0178483Y0181374D02*
X0178483Y0182161D01*
X0177696Y0182161D01*
X0177696Y0181374D01*
X0178483Y0181374D01*
X0178483Y0195547D02*
X0178483Y0196335D01*
X0177696Y0196335D01*
X0177696Y0195547D01*
X0178483Y0195547D01*
X0182420Y0195547D02*
X0182420Y0196335D01*
X0183208Y0196335D01*
X0183208Y0195547D01*
X0182420Y0195547D01*
X0156830Y0181768D02*
X0156830Y0180980D01*
X0156043Y0180980D01*
X0156043Y0181768D01*
X0156830Y0181768D01*
X0152106Y0181768D02*
X0152106Y0180980D01*
X0151318Y0180980D01*
X0151318Y0181768D01*
X0152106Y0181768D01*
X0144428Y0189445D02*
X0144428Y0191413D01*
X0142460Y0191413D01*
X0142460Y0189445D01*
X0144428Y0189445D01*
X0137342Y0189445D02*
X0137342Y0191413D01*
X0135373Y0191413D01*
X0135373Y0189445D01*
X0137342Y0189445D01*
X0137342Y0196138D02*
X0137342Y0198500D01*
X0136554Y0198500D01*
X0136554Y0196138D01*
X0137342Y0196138D01*
X0141672Y0196138D02*
X0141672Y0198500D01*
X0142460Y0198500D01*
X0142460Y0196138D01*
X0141672Y0196138D01*
X0141672Y0203618D02*
X0141672Y0205980D01*
X0142460Y0205980D01*
X0142460Y0203618D01*
X0141672Y0203618D01*
X0137342Y0203618D02*
X0137342Y0205980D01*
X0136554Y0205980D01*
X0136554Y0203618D01*
X0137342Y0203618D01*
X0137342Y0210311D02*
X0135373Y0210311D01*
X0135373Y0212280D01*
X0137342Y0212280D01*
X0137342Y0210311D01*
X0142460Y0210311D02*
X0142460Y0212280D01*
X0144428Y0212280D01*
X0144428Y0210311D01*
X0142460Y0210311D01*
X0140294Y0180193D02*
X0139507Y0180193D01*
X0139507Y0179406D01*
X0140294Y0179406D01*
X0140294Y0180193D01*
X0135570Y0180193D02*
X0135570Y0179406D01*
X0134783Y0179406D01*
X0134783Y0180193D01*
X0135570Y0180193D01*
X0135570Y0175469D02*
X0135570Y0174681D01*
X0134783Y0174681D01*
X0134783Y0175469D01*
X0135570Y0175469D01*
X0139507Y0175469D02*
X0139507Y0174681D01*
X0140294Y0174681D01*
X0140294Y0175469D01*
X0139507Y0175469D01*
X0139507Y0170744D02*
X0139507Y0169957D01*
X0140294Y0169957D01*
X0140294Y0170744D01*
X0139507Y0170744D01*
X0135570Y0170744D02*
X0135570Y0169957D01*
X0134783Y0169957D01*
X0134783Y0170744D01*
X0135570Y0170744D01*
X0135570Y0166020D02*
X0135570Y0165232D01*
X0134783Y0165232D01*
X0134783Y0166020D01*
X0135570Y0166020D01*
X0139507Y0166020D02*
X0139507Y0165232D01*
X0140294Y0165232D01*
X0140294Y0166020D01*
X0139507Y0166020D01*
X0139507Y0161295D02*
X0139507Y0160508D01*
X0140294Y0160508D01*
X0140294Y0161295D01*
X0139507Y0161295D01*
X0135570Y0161295D02*
X0135570Y0160508D01*
X0134783Y0160508D01*
X0134783Y0161295D01*
X0135570Y0161295D01*
X0135570Y0156571D02*
X0135570Y0155783D01*
X0134783Y0155783D01*
X0134783Y0156571D01*
X0135570Y0156571D01*
X0139507Y0156571D02*
X0139507Y0155783D01*
X0140294Y0155783D01*
X0140294Y0156571D01*
X0139507Y0156571D01*
X0200334Y0137870D02*
X0200334Y0131177D01*
X0205452Y0131177D01*
X0205452Y0137870D01*
X0200334Y0137870D01*
X0215885Y0196335D02*
X0215885Y0197122D01*
X0216672Y0197122D01*
X0216672Y0196335D01*
X0215885Y0196335D01*
X0220609Y0196335D02*
X0220609Y0197122D01*
X0221397Y0197122D01*
X0221397Y0196335D01*
X0220609Y0196335D01*
X0340098Y0191413D02*
X0340098Y0189445D01*
X0342066Y0189445D01*
X0342066Y0191413D01*
X0340098Y0191413D01*
X0341279Y0196138D02*
X0341279Y0198500D01*
X0342066Y0198500D01*
X0342066Y0196138D01*
X0341279Y0196138D01*
X0346397Y0196138D02*
X0346397Y0198500D01*
X0347184Y0198500D01*
X0347184Y0196138D01*
X0346397Y0196138D01*
X0347184Y0191413D02*
X0347184Y0189445D01*
X0349153Y0189445D01*
X0349153Y0191413D01*
X0347184Y0191413D01*
X0347184Y0203618D02*
X0346397Y0203618D01*
X0346397Y0205980D01*
X0347184Y0205980D01*
X0347184Y0203618D01*
X0342066Y0203618D02*
X0342066Y0205980D01*
X0341279Y0205980D01*
X0341279Y0203618D01*
X0342066Y0203618D01*
X0342066Y0210311D02*
X0340098Y0210311D01*
X0340098Y0212280D01*
X0342066Y0212280D01*
X0342066Y0210311D01*
X0347184Y0210311D02*
X0347184Y0212280D01*
X0349153Y0212280D01*
X0349153Y0210311D01*
X0347184Y0210311D01*
X0356043Y0181768D02*
X0356830Y0181768D01*
X0356830Y0180980D01*
X0356043Y0180980D01*
X0356043Y0181768D01*
X0360767Y0181768D02*
X0360767Y0180980D01*
X0361554Y0180980D01*
X0361554Y0181768D01*
X0360767Y0181768D01*
X0345019Y0180193D02*
X0345019Y0179406D01*
X0344231Y0179406D01*
X0344231Y0180193D01*
X0345019Y0180193D01*
X0345019Y0175469D02*
X0345019Y0174681D01*
X0344231Y0174681D01*
X0344231Y0175469D01*
X0345019Y0175469D01*
X0340294Y0175469D02*
X0340294Y0174681D01*
X0339507Y0174681D01*
X0339507Y0175469D01*
X0340294Y0175469D01*
X0340294Y0179406D02*
X0339507Y0179406D01*
X0339507Y0180193D01*
X0340294Y0180193D01*
X0340294Y0179406D01*
X0340294Y0170744D02*
X0340294Y0169957D01*
X0339507Y0169957D01*
X0339507Y0170744D01*
X0340294Y0170744D01*
X0344231Y0170744D02*
X0344231Y0169957D01*
X0345019Y0169957D01*
X0345019Y0170744D01*
X0344231Y0170744D01*
X0344231Y0166020D02*
X0344231Y0165232D01*
X0345019Y0165232D01*
X0345019Y0166020D01*
X0344231Y0166020D01*
X0340294Y0166020D02*
X0340294Y0165232D01*
X0339507Y0165232D01*
X0339507Y0166020D01*
X0340294Y0166020D01*
X0340294Y0161295D02*
X0340294Y0160508D01*
X0339507Y0160508D01*
X0339507Y0161295D01*
X0340294Y0161295D01*
X0344231Y0161295D02*
X0344231Y0160508D01*
X0345019Y0160508D01*
X0345019Y0161295D01*
X0344231Y0161295D01*
X0344231Y0156571D02*
X0344231Y0155783D01*
X0345019Y0155783D01*
X0345019Y0156571D01*
X0344231Y0156571D01*
X0340294Y0156571D02*
X0340294Y0155783D01*
X0339507Y0155783D01*
X0339507Y0156571D01*
X0340294Y0156571D01*
X0371987Y0137870D02*
X0371987Y0131177D01*
X0377106Y0131177D01*
X0377106Y0137870D01*
X0371987Y0137870D01*
X0394625Y0153815D02*
X0394625Y0154602D01*
X0395413Y0154602D01*
X0395413Y0153815D01*
X0394625Y0153815D01*
X0399350Y0153815D02*
X0399350Y0154602D01*
X0400137Y0154602D01*
X0400137Y0153815D01*
X0399350Y0153815D01*
X0399350Y0160902D02*
X0399350Y0161689D01*
X0400137Y0161689D01*
X0400137Y0160902D01*
X0399350Y0160902D01*
X0395413Y0160902D02*
X0394625Y0160902D01*
X0394625Y0161689D01*
X0395413Y0161689D01*
X0395413Y0160902D01*
X0387932Y0181374D02*
X0387932Y0182161D01*
X0387145Y0182161D01*
X0387145Y0181374D01*
X0387932Y0181374D01*
X0383208Y0181374D02*
X0383208Y0182161D01*
X0382420Y0182161D01*
X0382420Y0181374D01*
X0383208Y0181374D01*
X0383208Y0195547D02*
X0382420Y0195547D01*
X0382420Y0196335D01*
X0383208Y0196335D01*
X0383208Y0195547D01*
X0387145Y0195547D02*
X0387145Y0196335D01*
X0387932Y0196335D01*
X0387932Y0195547D01*
X0387145Y0195547D01*
X0420609Y0196335D02*
X0420609Y0197122D01*
X0421397Y0197122D01*
X0421397Y0196335D01*
X0420609Y0196335D01*
X0425334Y0196335D02*
X0425334Y0197122D01*
X0426121Y0197122D01*
X0426121Y0196335D01*
X0425334Y0196335D01*
X0410176Y0137870D02*
X0405058Y0137870D01*
X0405058Y0131177D01*
X0410176Y0131177D01*
X0410176Y0137870D01*
X0410176Y0308343D02*
X0405058Y0308343D01*
X0405058Y0315035D01*
X0410176Y0315035D01*
X0410176Y0308343D01*
X0400137Y0330980D02*
X0399350Y0330980D01*
X0399350Y0331768D01*
X0400137Y0331768D01*
X0400137Y0330980D01*
X0395413Y0330980D02*
X0394625Y0330980D01*
X0394625Y0331768D01*
X0395413Y0331768D01*
X0395413Y0330980D01*
X0395413Y0338067D02*
X0394625Y0338067D01*
X0394625Y0338854D01*
X0395413Y0338854D01*
X0395413Y0338067D01*
X0399350Y0338067D02*
X0399350Y0338854D01*
X0400137Y0338854D01*
X0400137Y0338067D01*
X0399350Y0338067D01*
X0387932Y0358539D02*
X0387932Y0359327D01*
X0387145Y0359327D01*
X0387145Y0358539D01*
X0387932Y0358539D01*
X0383208Y0358539D02*
X0383208Y0359327D01*
X0382420Y0359327D01*
X0382420Y0358539D01*
X0383208Y0358539D01*
X0383208Y0372713D02*
X0382420Y0372713D01*
X0382420Y0373500D01*
X0383208Y0373500D01*
X0383208Y0372713D01*
X0387145Y0372713D02*
X0387145Y0373500D01*
X0387932Y0373500D01*
X0387932Y0372713D01*
X0387145Y0372713D01*
X0361554Y0358933D02*
X0361554Y0358146D01*
X0360767Y0358146D01*
X0360767Y0358933D01*
X0361554Y0358933D01*
X0356830Y0358933D02*
X0356830Y0358146D01*
X0356043Y0358146D01*
X0356043Y0358933D01*
X0356830Y0358933D01*
X0349153Y0366610D02*
X0347184Y0366610D01*
X0347184Y0368579D01*
X0349153Y0368579D01*
X0349153Y0366610D01*
X0342066Y0366610D02*
X0342066Y0368579D01*
X0340098Y0368579D01*
X0340098Y0366610D01*
X0342066Y0366610D01*
X0342066Y0373303D02*
X0341279Y0373303D01*
X0341279Y0375665D01*
X0342066Y0375665D01*
X0342066Y0373303D01*
X0346397Y0373303D02*
X0346397Y0375665D01*
X0347184Y0375665D01*
X0347184Y0373303D01*
X0346397Y0373303D01*
X0346397Y0380783D02*
X0346397Y0383146D01*
X0347184Y0383146D01*
X0347184Y0380783D01*
X0346397Y0380783D01*
X0342066Y0380783D02*
X0342066Y0383146D01*
X0341279Y0383146D01*
X0341279Y0380783D01*
X0342066Y0380783D01*
X0342066Y0387476D02*
X0340098Y0387476D01*
X0340098Y0389445D01*
X0342066Y0389445D01*
X0342066Y0387476D01*
X0347184Y0387476D02*
X0347184Y0389445D01*
X0349153Y0389445D01*
X0349153Y0387476D01*
X0347184Y0387476D01*
X0345019Y0357358D02*
X0345019Y0356571D01*
X0344231Y0356571D01*
X0344231Y0357358D01*
X0345019Y0357358D01*
X0345019Y0352634D02*
X0345019Y0351846D01*
X0344231Y0351846D01*
X0344231Y0352634D01*
X0345019Y0352634D01*
X0340294Y0352634D02*
X0340294Y0351846D01*
X0339507Y0351846D01*
X0339507Y0352634D01*
X0340294Y0352634D01*
X0340294Y0356571D02*
X0339507Y0356571D01*
X0339507Y0357358D01*
X0340294Y0357358D01*
X0340294Y0356571D01*
X0340294Y0347909D02*
X0340294Y0347122D01*
X0339507Y0347122D01*
X0339507Y0347909D01*
X0340294Y0347909D01*
X0344231Y0347909D02*
X0344231Y0347122D01*
X0345019Y0347122D01*
X0345019Y0347909D01*
X0344231Y0347909D01*
X0344231Y0343185D02*
X0344231Y0342398D01*
X0345019Y0342398D01*
X0345019Y0343185D01*
X0344231Y0343185D01*
X0340294Y0343185D02*
X0340294Y0342398D01*
X0339507Y0342398D01*
X0339507Y0343185D01*
X0340294Y0343185D01*
X0340294Y0338461D02*
X0340294Y0337673D01*
X0339507Y0337673D01*
X0339507Y0338461D01*
X0340294Y0338461D01*
X0344231Y0338461D02*
X0344231Y0337673D01*
X0345019Y0337673D01*
X0345019Y0338461D01*
X0344231Y0338461D01*
X0344231Y0333736D02*
X0344231Y0332949D01*
X0345019Y0332949D01*
X0345019Y0333736D01*
X0344231Y0333736D01*
X0340294Y0333736D02*
X0340294Y0332949D01*
X0339507Y0332949D01*
X0339507Y0333736D01*
X0340294Y0333736D01*
X0371987Y0315035D02*
X0371987Y0308343D01*
X0377106Y0308343D01*
X0377106Y0315035D01*
X0371987Y0315035D01*
X0420609Y0373500D02*
X0420609Y0374287D01*
X0421397Y0374287D01*
X0421397Y0373500D01*
X0420609Y0373500D01*
X0425334Y0373500D02*
X0425334Y0374287D01*
X0426121Y0374287D01*
X0426121Y0373500D01*
X0425334Y0373500D01*
X0221397Y0373500D02*
X0221397Y0374287D01*
X0220609Y0374287D01*
X0220609Y0373500D01*
X0221397Y0373500D01*
X0216672Y0373500D02*
X0216672Y0374287D01*
X0215885Y0374287D01*
X0215885Y0373500D01*
X0216672Y0373500D01*
X0183208Y0373500D02*
X0183208Y0372713D01*
X0182420Y0372713D01*
X0182420Y0373500D01*
X0183208Y0373500D01*
X0178483Y0373500D02*
X0178483Y0372713D01*
X0177696Y0372713D01*
X0177696Y0373500D01*
X0178483Y0373500D01*
X0178483Y0359327D02*
X0178483Y0358539D01*
X0177696Y0358539D01*
X0177696Y0359327D01*
X0178483Y0359327D01*
X0182420Y0359327D02*
X0183208Y0359327D01*
X0183208Y0358539D01*
X0182420Y0358539D01*
X0182420Y0359327D01*
X0189901Y0338854D02*
X0189901Y0338067D01*
X0190688Y0338067D01*
X0190688Y0338854D01*
X0189901Y0338854D01*
X0194625Y0338854D02*
X0194625Y0338067D01*
X0195413Y0338067D01*
X0195413Y0338854D01*
X0194625Y0338854D01*
X0194625Y0331768D02*
X0194625Y0330980D01*
X0195413Y0330980D01*
X0195413Y0331768D01*
X0194625Y0331768D01*
X0190688Y0331768D02*
X0190688Y0330980D01*
X0189901Y0330980D01*
X0189901Y0331768D01*
X0190688Y0331768D01*
X0200334Y0315035D02*
X0200334Y0308343D01*
X0205452Y0308343D01*
X0205452Y0315035D01*
X0200334Y0315035D01*
X0172381Y0315035D02*
X0172381Y0308343D01*
X0167263Y0308343D01*
X0167263Y0315035D01*
X0172381Y0315035D01*
X0140294Y0332949D02*
X0139507Y0332949D01*
X0139507Y0333736D01*
X0140294Y0333736D01*
X0140294Y0332949D01*
X0135570Y0332949D02*
X0134783Y0332949D01*
X0134783Y0333736D01*
X0135570Y0333736D01*
X0135570Y0332949D01*
X0135570Y0337673D02*
X0134783Y0337673D01*
X0134783Y0338461D01*
X0135570Y0338461D01*
X0135570Y0337673D01*
X0139507Y0337673D02*
X0139507Y0338461D01*
X0140294Y0338461D01*
X0140294Y0337673D01*
X0139507Y0337673D01*
X0139507Y0342398D02*
X0139507Y0343185D01*
X0140294Y0343185D01*
X0140294Y0342398D01*
X0139507Y0342398D01*
X0135570Y0342398D02*
X0134783Y0342398D01*
X0134783Y0343185D01*
X0135570Y0343185D01*
X0135570Y0342398D01*
X0135570Y0347122D02*
X0134783Y0347122D01*
X0134783Y0347909D01*
X0135570Y0347909D01*
X0135570Y0347122D01*
X0139507Y0347122D02*
X0139507Y0347909D01*
X0140294Y0347909D01*
X0140294Y0347122D01*
X0139507Y0347122D01*
X0139507Y0351846D02*
X0139507Y0352634D01*
X0140294Y0352634D01*
X0140294Y0351846D01*
X0139507Y0351846D01*
X0135570Y0351846D02*
X0134783Y0351846D01*
X0134783Y0352634D01*
X0135570Y0352634D01*
X0135570Y0351846D01*
X0135570Y0356571D02*
X0134783Y0356571D01*
X0134783Y0357358D01*
X0135570Y0357358D01*
X0135570Y0356571D01*
X0139507Y0356571D02*
X0139507Y0357358D01*
X0140294Y0357358D01*
X0140294Y0356571D01*
X0139507Y0356571D01*
X0137342Y0366610D02*
X0135373Y0366610D01*
X0135373Y0368579D01*
X0137342Y0368579D01*
X0137342Y0366610D01*
X0142460Y0366610D02*
X0142460Y0368579D01*
X0144428Y0368579D01*
X0144428Y0366610D01*
X0142460Y0366610D01*
X0142460Y0373303D02*
X0142460Y0375665D01*
X0141672Y0375665D01*
X0141672Y0373303D01*
X0142460Y0373303D01*
X0137342Y0373303D02*
X0137342Y0375665D01*
X0136554Y0375665D01*
X0136554Y0373303D01*
X0137342Y0373303D01*
X0137342Y0380783D02*
X0137342Y0383146D01*
X0136554Y0383146D01*
X0136554Y0380783D01*
X0137342Y0380783D01*
X0141672Y0380783D02*
X0141672Y0383146D01*
X0142460Y0383146D01*
X0142460Y0380783D01*
X0141672Y0380783D01*
X0142460Y0387476D02*
X0142460Y0389445D01*
X0144428Y0389445D01*
X0144428Y0387476D01*
X0142460Y0387476D01*
X0137342Y0387476D02*
X0135373Y0387476D01*
X0135373Y0389445D01*
X0137342Y0389445D01*
X0137342Y0387476D01*
X0151318Y0358933D02*
X0152106Y0358933D01*
X0152106Y0358146D01*
X0151318Y0358146D01*
X0151318Y0358933D01*
X0156043Y0358933D02*
X0156043Y0358146D01*
X0156830Y0358146D01*
X0156830Y0358933D01*
X0156043Y0358933D01*
D12*
X0169822Y0311689D03*
X0202893Y0311689D03*
X0374546Y0311689D03*
X0407617Y0311689D03*
X0407617Y0134524D03*
X0374546Y0134524D03*
X0202893Y0134524D03*
X0169822Y0134524D03*
D13*
X0195806Y0176236D02*
X0202106Y0176236D01*
X0202106Y0181236D02*
X0195806Y0181236D01*
X0195806Y0186236D02*
X0202106Y0186236D01*
X0202106Y0191236D02*
X0195806Y0191236D01*
X0217854Y0191236D02*
X0224153Y0191236D01*
X0224153Y0186236D02*
X0217854Y0186236D01*
X0217854Y0181236D02*
X0224153Y0181236D01*
X0224153Y0176236D02*
X0217854Y0176236D01*
X0400531Y0176236D02*
X0406830Y0176236D01*
X0406830Y0181236D02*
X0400531Y0181236D01*
X0400531Y0186236D02*
X0406830Y0186236D01*
X0406830Y0191236D02*
X0400531Y0191236D01*
X0422578Y0191236D02*
X0428877Y0191236D01*
X0428877Y0186236D02*
X0422578Y0186236D01*
X0422578Y0181236D02*
X0428877Y0181236D01*
X0428877Y0176236D02*
X0422578Y0176236D01*
X0422578Y0353402D02*
X0428877Y0353402D01*
X0428877Y0358402D02*
X0422578Y0358402D01*
X0422578Y0363402D02*
X0428877Y0363402D01*
X0428877Y0368402D02*
X0422578Y0368402D01*
X0406830Y0368402D02*
X0400531Y0368402D01*
X0400531Y0363402D02*
X0406830Y0363402D01*
X0406830Y0358402D02*
X0400531Y0358402D01*
X0400531Y0353402D02*
X0406830Y0353402D01*
X0224153Y0353402D02*
X0217854Y0353402D01*
X0217854Y0358402D02*
X0224153Y0358402D01*
X0224153Y0363402D02*
X0217854Y0363402D01*
X0217854Y0368402D02*
X0224153Y0368402D01*
X0202106Y0368402D02*
X0195806Y0368402D01*
X0195806Y0363402D02*
X0202106Y0363402D01*
X0202106Y0358402D02*
X0195806Y0358402D01*
X0195806Y0353402D02*
X0202106Y0353402D01*
D14*
X0161751Y0352043D02*
X0160176Y0352043D01*
X0160176Y0350075D02*
X0161751Y0350075D01*
X0161751Y0348106D02*
X0160176Y0348106D01*
X0160176Y0346138D02*
X0161751Y0346138D01*
X0161751Y0344169D02*
X0160176Y0344169D01*
X0160176Y0342201D02*
X0161751Y0342201D01*
X0161751Y0340232D02*
X0160176Y0340232D01*
X0160176Y0338264D02*
X0161751Y0338264D01*
X0157027Y0337083D02*
X0157027Y0335508D01*
X0151121Y0335508D02*
X0151121Y0337083D01*
X0147972Y0338264D02*
X0146397Y0338264D01*
X0146397Y0340232D02*
X0147972Y0340232D01*
X0147972Y0342201D02*
X0146397Y0342201D01*
X0146397Y0344169D02*
X0147972Y0344169D01*
X0147972Y0346138D02*
X0146397Y0346138D01*
X0146397Y0348106D02*
X0147972Y0348106D01*
X0147972Y0350075D02*
X0146397Y0350075D01*
X0146397Y0352043D02*
X0147972Y0352043D01*
X0151121Y0353224D02*
X0151121Y0354799D01*
X0157027Y0354799D02*
X0157027Y0353224D01*
X0157027Y0177634D02*
X0157027Y0176059D01*
X0160176Y0174878D02*
X0161751Y0174878D01*
X0161751Y0172909D02*
X0160176Y0172909D01*
X0160176Y0170941D02*
X0161751Y0170941D01*
X0161751Y0168972D02*
X0160176Y0168972D01*
X0160176Y0167004D02*
X0161751Y0167004D01*
X0161751Y0165035D02*
X0160176Y0165035D01*
X0160176Y0163067D02*
X0161751Y0163067D01*
X0161751Y0161098D02*
X0160176Y0161098D01*
X0157027Y0159917D02*
X0157027Y0158343D01*
X0151121Y0158343D02*
X0151121Y0159917D01*
X0147972Y0161098D02*
X0146397Y0161098D01*
X0146397Y0163067D02*
X0147972Y0163067D01*
X0147972Y0165035D02*
X0146397Y0165035D01*
X0146397Y0167004D02*
X0147972Y0167004D01*
X0147972Y0168972D02*
X0146397Y0168972D01*
X0146397Y0170941D02*
X0147972Y0170941D01*
X0147972Y0172909D02*
X0146397Y0172909D01*
X0146397Y0174878D02*
X0147972Y0174878D01*
X0151121Y0176059D02*
X0151121Y0177634D01*
X0351121Y0174878D02*
X0352696Y0174878D01*
X0352696Y0172909D02*
X0351121Y0172909D01*
X0351121Y0170941D02*
X0352696Y0170941D01*
X0352696Y0168972D02*
X0351121Y0168972D01*
X0351121Y0167004D02*
X0352696Y0167004D01*
X0352696Y0165035D02*
X0351121Y0165035D01*
X0351121Y0163067D02*
X0352696Y0163067D01*
X0352696Y0161098D02*
X0351121Y0161098D01*
X0355846Y0159917D02*
X0355846Y0158343D01*
X0361751Y0158343D02*
X0361751Y0159917D01*
X0364901Y0161098D02*
X0366476Y0161098D01*
X0366476Y0163067D02*
X0364901Y0163067D01*
X0364901Y0165035D02*
X0366476Y0165035D01*
X0366476Y0167004D02*
X0364901Y0167004D01*
X0364901Y0168972D02*
X0366476Y0168972D01*
X0366476Y0170941D02*
X0364901Y0170941D01*
X0364901Y0172909D02*
X0366476Y0172909D01*
X0366476Y0174878D02*
X0364901Y0174878D01*
X0361751Y0176059D02*
X0361751Y0177634D01*
X0355846Y0177634D02*
X0355846Y0176059D01*
X0355846Y0335508D02*
X0355846Y0337083D01*
X0352696Y0338264D02*
X0351121Y0338264D01*
X0351121Y0340232D02*
X0352696Y0340232D01*
X0352696Y0342201D02*
X0351121Y0342201D01*
X0351121Y0344169D02*
X0352696Y0344169D01*
X0352696Y0346138D02*
X0351121Y0346138D01*
X0351121Y0348106D02*
X0352696Y0348106D01*
X0352696Y0350075D02*
X0351121Y0350075D01*
X0351121Y0352043D02*
X0352696Y0352043D01*
X0355846Y0353224D02*
X0355846Y0354799D01*
X0361751Y0354799D02*
X0361751Y0353224D01*
X0364901Y0352043D02*
X0366476Y0352043D01*
X0366476Y0350075D02*
X0364901Y0350075D01*
X0364901Y0348106D02*
X0366476Y0348106D01*
X0366476Y0346138D02*
X0364901Y0346138D01*
X0364901Y0344169D02*
X0366476Y0344169D01*
X0366476Y0342201D02*
X0364901Y0342201D01*
X0364901Y0340232D02*
X0366476Y0340232D01*
X0366476Y0338264D02*
X0364901Y0338264D01*
X0361751Y0337083D02*
X0361751Y0335508D01*
D15*
X0358798Y0345154D03*
X0358798Y0167988D03*
X0154074Y0167988D03*
X0154074Y0345154D03*
D16*
X0143444Y0367594D03*
X0136357Y0367594D03*
X0136357Y0388461D03*
X0143444Y0388461D03*
X0143444Y0211295D03*
X0136357Y0211295D03*
X0136357Y0190429D03*
X0143444Y0190429D03*
X0341082Y0190429D03*
X0348169Y0190429D03*
X0348169Y0211295D03*
X0341082Y0211295D03*
X0341082Y0367594D03*
X0348169Y0367594D03*
X0348169Y0388461D03*
X0341082Y0388461D03*
D17*
X0356436Y0358539D03*
X0361161Y0358539D03*
X0344625Y0356965D03*
X0339901Y0356965D03*
X0339901Y0352240D03*
X0344625Y0352240D03*
X0344625Y0347516D03*
X0339901Y0347516D03*
X0339901Y0342791D03*
X0339901Y0338067D03*
X0344625Y0338067D03*
X0344625Y0342791D03*
X0344625Y0333343D03*
X0339901Y0333343D03*
X0382814Y0358933D03*
X0387539Y0358933D03*
X0387539Y0373106D03*
X0382814Y0373106D03*
X0395019Y0338461D03*
X0399743Y0338461D03*
X0399743Y0331374D03*
X0395019Y0331374D03*
X0421003Y0373894D03*
X0425728Y0373894D03*
X0425728Y0196728D03*
X0421003Y0196728D03*
X0387539Y0195941D03*
X0382814Y0195941D03*
X0382814Y0181768D03*
X0387539Y0181768D03*
X0395019Y0161295D03*
X0399743Y0161295D03*
X0399743Y0154209D03*
X0395019Y0154209D03*
X0361161Y0181374D03*
X0356436Y0181374D03*
X0344625Y0179799D03*
X0344625Y0175075D03*
X0339901Y0175075D03*
X0339901Y0179799D03*
X0339901Y0170350D03*
X0339901Y0165626D03*
X0344625Y0165626D03*
X0344625Y0170350D03*
X0344625Y0160902D03*
X0339901Y0160902D03*
X0339901Y0156177D03*
X0344625Y0156177D03*
X0221003Y0196728D03*
X0216279Y0196728D03*
X0182814Y0195941D03*
X0178090Y0195941D03*
X0178090Y0181768D03*
X0182814Y0181768D03*
X0190294Y0161295D03*
X0195019Y0161295D03*
X0195019Y0154209D03*
X0190294Y0154209D03*
X0156436Y0181374D03*
X0151712Y0181374D03*
X0139901Y0179799D03*
X0139901Y0175075D03*
X0139901Y0170350D03*
X0139901Y0165626D03*
X0139901Y0160902D03*
X0135176Y0160902D03*
X0135176Y0165626D03*
X0135176Y0170350D03*
X0135176Y0175075D03*
X0135176Y0179799D03*
X0135176Y0156177D03*
X0139901Y0156177D03*
X0139901Y0333343D03*
X0139901Y0338067D03*
X0139901Y0342791D03*
X0135176Y0342791D03*
X0135176Y0338067D03*
X0135176Y0333343D03*
X0135176Y0347516D03*
X0135176Y0352240D03*
X0135176Y0356965D03*
X0139901Y0356965D03*
X0139901Y0352240D03*
X0139901Y0347516D03*
X0151712Y0358539D03*
X0156436Y0358539D03*
X0178090Y0358933D03*
X0182814Y0358933D03*
X0182814Y0373106D03*
X0178090Y0373106D03*
X0216279Y0373894D03*
X0221003Y0373894D03*
X0195019Y0338461D03*
X0190294Y0338461D03*
X0190294Y0331374D03*
X0195019Y0331374D03*
M02*
