G75*
%MOIN*%
%OFA0B0*%
%FSLAX25Y25*%
%IPPOS*%
%LPD*%
%AMOC8*
5,1,8,0,0,1.08239X$1,22.5*
%
%ADD10OC8,0.05906*%
%ADD11C,0.02362*%
%ADD12C,0.00787*%
%ADD13C,0.03150*%
%ADD14C,0.03937*%
%ADD15C,0.01181*%
D10*
X0117420Y0131020D03*
X0117420Y0141020D03*
X0117420Y0151020D03*
X0117420Y0161020D03*
X0117420Y0171020D03*
X0117420Y0181020D03*
X0117420Y0191020D03*
X0117420Y0201020D03*
X0117420Y0308185D03*
X0117420Y0318185D03*
X0117420Y0328185D03*
X0117420Y0338185D03*
X0117420Y0348185D03*
X0117420Y0358185D03*
X0117420Y0368185D03*
X0117420Y0378185D03*
X0247420Y0378185D03*
X0247420Y0368185D03*
X0247420Y0358185D03*
X0247420Y0348185D03*
X0247420Y0338185D03*
X0247420Y0328185D03*
X0247420Y0318185D03*
X0247420Y0308185D03*
X0314271Y0308185D03*
X0314271Y0318185D03*
X0314271Y0328185D03*
X0314271Y0338185D03*
X0314271Y0348185D03*
X0314271Y0358185D03*
X0314271Y0368185D03*
X0314271Y0378185D03*
X0444271Y0378185D03*
X0444271Y0368185D03*
X0444271Y0358185D03*
X0444271Y0348185D03*
X0444271Y0338185D03*
X0444271Y0328185D03*
X0444271Y0318185D03*
X0444271Y0308185D03*
X0444271Y0201020D03*
X0444271Y0191020D03*
X0444271Y0181020D03*
X0444271Y0171020D03*
X0444271Y0161020D03*
X0444271Y0151020D03*
X0444271Y0141020D03*
X0444271Y0131020D03*
X0314271Y0131020D03*
X0314271Y0141020D03*
X0314271Y0151020D03*
X0314271Y0161020D03*
X0314271Y0171020D03*
X0314271Y0181020D03*
X0314271Y0191020D03*
X0314271Y0201020D03*
X0247420Y0201020D03*
X0247420Y0191020D03*
X0247420Y0181020D03*
X0247420Y0171020D03*
X0247420Y0161020D03*
X0247420Y0151020D03*
X0247420Y0141020D03*
X0247420Y0131020D03*
D11*
X0194231Y0154209D03*
X0194231Y0161295D03*
X0186357Y0157752D03*
X0180058Y0161689D03*
X0176515Y0163264D03*
X0170216Y0162870D03*
X0171003Y0158933D03*
X0173365Y0152634D03*
X0159980Y0156571D03*
X0155255Y0164051D03*
X0155255Y0167988D03*
X0155255Y0171925D03*
X0144625Y0169957D03*
X0144231Y0160902D03*
X0133208Y0160902D03*
X0133208Y0165626D03*
X0133208Y0170350D03*
X0133208Y0175075D03*
X0135176Y0186886D03*
X0137539Y0186886D03*
X0149350Y0181374D03*
X0160767Y0181374D03*
X0171003Y0182161D03*
X0169428Y0175075D03*
X0171003Y0171138D03*
X0170216Y0167988D03*
X0182027Y0175075D03*
X0186357Y0180193D03*
X0182027Y0189248D03*
X0189113Y0190823D03*
X0208798Y0196728D03*
X0220216Y0196728D03*
X0211161Y0178618D03*
X0186357Y0164839D03*
X0159192Y0138067D03*
X0330058Y0160902D03*
X0330058Y0165626D03*
X0330058Y0170350D03*
X0330058Y0175075D03*
X0341476Y0169957D03*
X0341082Y0160902D03*
X0352106Y0164051D03*
X0352106Y0167988D03*
X0352106Y0171925D03*
X0357617Y0181374D03*
X0367854Y0182161D03*
X0366279Y0175075D03*
X0367854Y0171138D03*
X0367066Y0167988D03*
X0373365Y0163264D03*
X0376909Y0161689D03*
X0383208Y0164839D03*
X0383208Y0157752D03*
X0391082Y0161295D03*
X0391082Y0154209D03*
X0370216Y0152634D03*
X0367854Y0158933D03*
X0367066Y0162870D03*
X0356830Y0156571D03*
X0356043Y0138067D03*
X0378877Y0175075D03*
X0383208Y0180193D03*
X0378877Y0189248D03*
X0385964Y0190823D03*
X0405649Y0196728D03*
X0417066Y0196728D03*
X0408011Y0178618D03*
X0346200Y0181374D03*
X0334389Y0186886D03*
X0332027Y0186886D03*
X0356043Y0315232D03*
X0370216Y0329799D03*
X0367854Y0336098D03*
X0367066Y0340035D03*
X0367066Y0345154D03*
X0367854Y0348303D03*
X0366279Y0352240D03*
X0367854Y0359327D03*
X0357617Y0358539D03*
X0346200Y0358539D03*
X0352106Y0349091D03*
X0352106Y0345154D03*
X0352106Y0341217D03*
X0356830Y0333736D03*
X0341082Y0338067D03*
X0341476Y0347122D03*
X0330058Y0347516D03*
X0330058Y0352240D03*
X0330058Y0342791D03*
X0330058Y0338067D03*
X0332027Y0364051D03*
X0334389Y0364051D03*
X0373365Y0340429D03*
X0376909Y0338854D03*
X0383208Y0342004D03*
X0383208Y0334917D03*
X0391082Y0331374D03*
X0391082Y0338461D03*
X0378877Y0352240D03*
X0383208Y0357358D03*
X0378877Y0366413D03*
X0385964Y0367988D03*
X0405649Y0373894D03*
X0417066Y0373894D03*
X0408011Y0355783D03*
X0220216Y0373894D03*
X0208798Y0373894D03*
X0211161Y0355783D03*
X0194231Y0338461D03*
X0194231Y0331374D03*
X0186357Y0334917D03*
X0180058Y0338854D03*
X0176515Y0340429D03*
X0170216Y0340035D03*
X0171003Y0336098D03*
X0173365Y0329799D03*
X0159980Y0333736D03*
X0155255Y0341217D03*
X0155255Y0345154D03*
X0155255Y0349091D03*
X0144625Y0347122D03*
X0144231Y0338067D03*
X0133208Y0338067D03*
X0133208Y0342791D03*
X0133208Y0347516D03*
X0133208Y0352240D03*
X0135176Y0364051D03*
X0137539Y0364051D03*
X0149350Y0358539D03*
X0160767Y0358539D03*
X0171003Y0359327D03*
X0169428Y0352240D03*
X0171003Y0348303D03*
X0170216Y0345154D03*
X0182027Y0352240D03*
X0186357Y0357358D03*
X0182027Y0366413D03*
X0189113Y0367988D03*
X0186357Y0342004D03*
X0159192Y0315232D03*
D12*
X0131633Y0114803D02*
X0131633Y0099484D01*
X0233208Y0099484D01*
X0233208Y0114803D01*
X0234403Y0118480D01*
X0234403Y0118480D01*
X0236675Y0121608D01*
X0236675Y0121608D01*
X0236675Y0121608D01*
X0239803Y0123880D01*
X0239803Y0123880D01*
X0243480Y0125075D01*
X0258798Y0125075D01*
X0258798Y0206965D01*
X0243480Y0206965D01*
X0239803Y0208159D01*
X0239803Y0208159D01*
X0236675Y0210432D01*
X0236675Y0210432D01*
X0234403Y0213559D01*
X0234403Y0213559D01*
X0233208Y0217236D01*
X0233208Y0232555D01*
X0131633Y0232555D01*
X0131633Y0219332D01*
X0131633Y0217236D01*
X0130438Y0213559D01*
X0130438Y0213559D01*
X0128166Y0210432D01*
X0128166Y0210432D01*
X0128166Y0210432D01*
X0125038Y0208159D01*
X0125038Y0208159D01*
X0121361Y0206965D01*
X0106043Y0206965D01*
X0106043Y0125075D01*
X0121361Y0125075D01*
X0125038Y0123880D01*
X0125038Y0123880D01*
X0128166Y0121608D01*
X0128166Y0121608D01*
X0128166Y0121608D01*
X0130438Y0118480D01*
X0130438Y0118480D01*
X0131633Y0114803D01*
X0131529Y0115124D02*
X0157569Y0115124D01*
X0157575Y0115139D02*
X0156436Y0112390D01*
X0156436Y0109414D01*
X0157575Y0106664D01*
X0159679Y0104560D01*
X0162429Y0103421D01*
X0202806Y0103421D01*
X0205555Y0104560D01*
X0207660Y0106664D01*
X0208798Y0109414D01*
X0208798Y0112390D01*
X0207660Y0115139D01*
X0205555Y0117243D01*
X0202806Y0118382D01*
X0162429Y0118382D01*
X0159679Y0117243D01*
X0157575Y0115139D01*
X0157243Y0114338D02*
X0131633Y0114338D01*
X0131633Y0113552D02*
X0156918Y0113552D01*
X0156592Y0112766D02*
X0131633Y0112766D01*
X0131633Y0111980D02*
X0156436Y0111980D01*
X0156436Y0111194D02*
X0131633Y0111194D01*
X0131633Y0110408D02*
X0156436Y0110408D01*
X0156436Y0109622D02*
X0131633Y0109622D01*
X0131633Y0108836D02*
X0156675Y0108836D01*
X0157001Y0108050D02*
X0131633Y0108050D01*
X0131633Y0107264D02*
X0157326Y0107264D01*
X0157761Y0106479D02*
X0131633Y0106479D01*
X0131633Y0105693D02*
X0158547Y0105693D01*
X0159333Y0104907D02*
X0131633Y0104907D01*
X0131633Y0104121D02*
X0160740Y0104121D01*
X0158346Y0115910D02*
X0131274Y0115910D01*
X0131018Y0116695D02*
X0159132Y0116695D01*
X0160255Y0117481D02*
X0130763Y0117481D01*
X0130507Y0118267D02*
X0162152Y0118267D01*
X0138934Y0137280D02*
X0133388Y0137280D01*
X0121318Y0149349D01*
X0121357Y0149389D01*
X0121357Y0152650D01*
X0119051Y0154957D01*
X0115790Y0154957D01*
X0113483Y0152650D01*
X0113483Y0149389D01*
X0115790Y0147083D01*
X0119051Y0147083D01*
X0119091Y0147122D01*
X0131296Y0134917D01*
X0125750Y0134917D01*
X0121318Y0139349D01*
X0121357Y0139389D01*
X0121357Y0142650D01*
X0119051Y0144957D01*
X0115790Y0144957D01*
X0113483Y0142650D01*
X0113483Y0139389D01*
X0115790Y0137083D01*
X0119051Y0137083D01*
X0119091Y0137122D01*
X0123658Y0132555D01*
X0121357Y0132555D01*
X0121357Y0132650D01*
X0119051Y0134957D01*
X0115790Y0134957D01*
X0113483Y0132650D01*
X0113483Y0129389D01*
X0115790Y0127083D01*
X0119051Y0127083D01*
X0121357Y0129389D01*
X0121357Y0129406D01*
X0243483Y0129406D01*
X0243483Y0129389D01*
X0245790Y0127083D01*
X0249051Y0127083D01*
X0251357Y0129389D01*
X0251357Y0132650D01*
X0249051Y0134957D01*
X0245790Y0134957D01*
X0243483Y0132650D01*
X0243483Y0132555D01*
X0240947Y0132555D01*
X0245632Y0137240D01*
X0245790Y0137083D01*
X0249051Y0137083D01*
X0251357Y0139389D01*
X0251357Y0142650D01*
X0249051Y0144957D01*
X0245790Y0144957D01*
X0243483Y0142650D01*
X0243483Y0139546D01*
X0238855Y0134917D01*
X0233466Y0134917D01*
X0245711Y0147162D01*
X0245790Y0147083D01*
X0249051Y0147083D01*
X0251357Y0149389D01*
X0251357Y0152650D01*
X0249051Y0154957D01*
X0245790Y0154957D01*
X0243483Y0152650D01*
X0243483Y0149389D01*
X0243484Y0149389D01*
X0231374Y0137280D01*
X0225592Y0137280D01*
X0245593Y0157280D01*
X0245790Y0157083D01*
X0249051Y0157083D01*
X0251357Y0159389D01*
X0251357Y0162650D01*
X0249051Y0164957D01*
X0245790Y0164957D01*
X0243483Y0162650D01*
X0243483Y0159625D01*
X0223500Y0139642D01*
X0218112Y0139642D01*
X0245671Y0167201D01*
X0245790Y0167083D01*
X0249051Y0167083D01*
X0251357Y0169389D01*
X0251357Y0172650D01*
X0249051Y0174957D01*
X0245790Y0174957D01*
X0243483Y0172650D01*
X0243483Y0169467D01*
X0216020Y0142004D01*
X0210238Y0142004D01*
X0245553Y0177319D01*
X0245790Y0177083D01*
X0249051Y0177083D01*
X0251357Y0179389D01*
X0251357Y0182650D01*
X0249051Y0184957D01*
X0245790Y0184957D01*
X0243483Y0182650D01*
X0243483Y0179703D01*
X0208146Y0144366D01*
X0142915Y0144366D01*
X0131239Y0156042D01*
X0131239Y0169428D01*
X0121318Y0179349D01*
X0121357Y0179389D01*
X0121357Y0182650D01*
X0119051Y0184957D01*
X0115790Y0184957D01*
X0113483Y0182650D01*
X0113483Y0179389D01*
X0115790Y0177083D01*
X0119051Y0177083D01*
X0119091Y0177122D01*
X0128090Y0168123D01*
X0128090Y0162341D01*
X0121200Y0169231D01*
X0121357Y0169389D01*
X0121357Y0172650D01*
X0119051Y0174957D01*
X0115790Y0174957D01*
X0113483Y0172650D01*
X0113483Y0169389D01*
X0115790Y0167083D01*
X0118894Y0167083D01*
X0126121Y0159856D01*
X0126121Y0154546D01*
X0121318Y0159349D01*
X0121357Y0159389D01*
X0121357Y0162650D01*
X0119051Y0164957D01*
X0115790Y0164957D01*
X0113483Y0162650D01*
X0113483Y0159389D01*
X0115790Y0157083D01*
X0119051Y0157083D01*
X0119091Y0157122D01*
X0138934Y0137280D01*
X0138298Y0137915D02*
X0132752Y0137915D01*
X0131966Y0138701D02*
X0137512Y0138701D01*
X0136726Y0139487D02*
X0131180Y0139487D01*
X0130394Y0140273D02*
X0135940Y0140273D01*
X0135154Y0141059D02*
X0129609Y0141059D01*
X0128823Y0141845D02*
X0134368Y0141845D01*
X0133582Y0142631D02*
X0128037Y0142631D01*
X0127251Y0143416D02*
X0132797Y0143416D01*
X0132011Y0144202D02*
X0126465Y0144202D01*
X0125679Y0144988D02*
X0131225Y0144988D01*
X0130439Y0145774D02*
X0124893Y0145774D01*
X0124107Y0146560D02*
X0129653Y0146560D01*
X0128867Y0147346D02*
X0123321Y0147346D01*
X0122535Y0148132D02*
X0128081Y0148132D01*
X0127295Y0148918D02*
X0121749Y0148918D01*
X0121357Y0149704D02*
X0126509Y0149704D01*
X0125723Y0150490D02*
X0121357Y0150490D01*
X0121357Y0151276D02*
X0124937Y0151276D01*
X0124152Y0152062D02*
X0121357Y0152062D01*
X0121160Y0152847D02*
X0123366Y0152847D01*
X0122580Y0153633D02*
X0120375Y0153633D01*
X0119589Y0154419D02*
X0121794Y0154419D01*
X0121008Y0155205D02*
X0106043Y0155205D01*
X0106043Y0154419D02*
X0115252Y0154419D01*
X0114466Y0153633D02*
X0106043Y0153633D01*
X0106043Y0152847D02*
X0113680Y0152847D01*
X0113483Y0152062D02*
X0106043Y0152062D01*
X0106043Y0151276D02*
X0113483Y0151276D01*
X0113483Y0150490D02*
X0106043Y0150490D01*
X0106043Y0149704D02*
X0113483Y0149704D01*
X0113955Y0148918D02*
X0106043Y0148918D01*
X0106043Y0148132D02*
X0114740Y0148132D01*
X0115526Y0147346D02*
X0106043Y0147346D01*
X0106043Y0146560D02*
X0119653Y0146560D01*
X0120439Y0145774D02*
X0106043Y0145774D01*
X0106043Y0144988D02*
X0121225Y0144988D01*
X0122011Y0144202D02*
X0119806Y0144202D01*
X0120591Y0143416D02*
X0122797Y0143416D01*
X0123582Y0142631D02*
X0121357Y0142631D01*
X0121357Y0141845D02*
X0124368Y0141845D01*
X0125154Y0141059D02*
X0121357Y0141059D01*
X0121357Y0140273D02*
X0125940Y0140273D01*
X0126726Y0139487D02*
X0121357Y0139487D01*
X0121966Y0138701D02*
X0127512Y0138701D01*
X0128298Y0137915D02*
X0122752Y0137915D01*
X0123538Y0137129D02*
X0129084Y0137129D01*
X0129870Y0136343D02*
X0124324Y0136343D01*
X0125110Y0135557D02*
X0130656Y0135557D01*
X0123013Y0133200D02*
X0120808Y0133200D01*
X0120022Y0133986D02*
X0122228Y0133986D01*
X0121442Y0134771D02*
X0119236Y0134771D01*
X0120656Y0135557D02*
X0106043Y0135557D01*
X0106043Y0134771D02*
X0115604Y0134771D01*
X0114819Y0133986D02*
X0106043Y0133986D01*
X0106043Y0133200D02*
X0114033Y0133200D01*
X0113483Y0132414D02*
X0106043Y0132414D01*
X0106043Y0131628D02*
X0113483Y0131628D01*
X0113483Y0130842D02*
X0106043Y0130842D01*
X0106043Y0130056D02*
X0113483Y0130056D01*
X0113602Y0129270D02*
X0106043Y0129270D01*
X0106043Y0128484D02*
X0114388Y0128484D01*
X0115174Y0127698D02*
X0106043Y0127698D01*
X0106043Y0126912D02*
X0258798Y0126912D01*
X0258798Y0126126D02*
X0106043Y0126126D01*
X0106043Y0125340D02*
X0258798Y0125340D01*
X0258798Y0127698D02*
X0249667Y0127698D01*
X0250453Y0128484D02*
X0258798Y0128484D01*
X0258798Y0129270D02*
X0251239Y0129270D01*
X0251357Y0130056D02*
X0258798Y0130056D01*
X0258798Y0130842D02*
X0251357Y0130842D01*
X0251357Y0131628D02*
X0258798Y0131628D01*
X0258798Y0132414D02*
X0251357Y0132414D01*
X0250808Y0133200D02*
X0258798Y0133200D01*
X0258798Y0133986D02*
X0250022Y0133986D01*
X0249236Y0134771D02*
X0258798Y0134771D01*
X0258798Y0135557D02*
X0243949Y0135557D01*
X0243163Y0134771D02*
X0245604Y0134771D01*
X0244819Y0133986D02*
X0242377Y0133986D01*
X0241591Y0133200D02*
X0244033Y0133200D01*
X0244735Y0136343D02*
X0258798Y0136343D01*
X0258798Y0137129D02*
X0249098Y0137129D01*
X0249884Y0137915D02*
X0258798Y0137915D01*
X0258798Y0138701D02*
X0250670Y0138701D01*
X0251357Y0139487D02*
X0258798Y0139487D01*
X0258798Y0140273D02*
X0251357Y0140273D01*
X0251357Y0141059D02*
X0258798Y0141059D01*
X0258798Y0141845D02*
X0251357Y0141845D01*
X0251357Y0142631D02*
X0258798Y0142631D01*
X0258798Y0143416D02*
X0250591Y0143416D01*
X0249806Y0144202D02*
X0258798Y0144202D01*
X0258798Y0144988D02*
X0243537Y0144988D01*
X0242752Y0144202D02*
X0245035Y0144202D01*
X0244250Y0143416D02*
X0241966Y0143416D01*
X0241180Y0142631D02*
X0243483Y0142631D01*
X0243483Y0141845D02*
X0240394Y0141845D01*
X0239608Y0141059D02*
X0243483Y0141059D01*
X0243483Y0140273D02*
X0238822Y0140273D01*
X0238036Y0139487D02*
X0243424Y0139487D01*
X0242638Y0138701D02*
X0237250Y0138701D01*
X0236464Y0137915D02*
X0241853Y0137915D01*
X0241067Y0137129D02*
X0235678Y0137129D01*
X0234892Y0136343D02*
X0240281Y0136343D01*
X0239495Y0135557D02*
X0234106Y0135557D01*
X0232010Y0137915D02*
X0226228Y0137915D01*
X0227014Y0138701D02*
X0232796Y0138701D01*
X0233582Y0139487D02*
X0227800Y0139487D01*
X0228586Y0140273D02*
X0234368Y0140273D01*
X0235154Y0141059D02*
X0229372Y0141059D01*
X0230158Y0141845D02*
X0235940Y0141845D01*
X0236726Y0142631D02*
X0230943Y0142631D01*
X0231729Y0143416D02*
X0237511Y0143416D01*
X0238297Y0144202D02*
X0232515Y0144202D01*
X0233301Y0144988D02*
X0239083Y0144988D01*
X0239869Y0145774D02*
X0234087Y0145774D01*
X0234873Y0146560D02*
X0240655Y0146560D01*
X0241441Y0147346D02*
X0235659Y0147346D01*
X0236445Y0148132D02*
X0242227Y0148132D01*
X0243013Y0148918D02*
X0237231Y0148918D01*
X0238017Y0149704D02*
X0243483Y0149704D01*
X0243483Y0150490D02*
X0238803Y0150490D01*
X0239589Y0151276D02*
X0243483Y0151276D01*
X0243483Y0152062D02*
X0240374Y0152062D01*
X0241160Y0152847D02*
X0243680Y0152847D01*
X0244466Y0153633D02*
X0241946Y0153633D01*
X0242732Y0154419D02*
X0245252Y0154419D01*
X0244304Y0155991D02*
X0258798Y0155991D01*
X0258798Y0155205D02*
X0243518Y0155205D01*
X0245090Y0156777D02*
X0258798Y0156777D01*
X0258798Y0157563D02*
X0249531Y0157563D01*
X0250317Y0158349D02*
X0258798Y0158349D01*
X0258798Y0159135D02*
X0251103Y0159135D01*
X0251357Y0159921D02*
X0258798Y0159921D01*
X0258798Y0160707D02*
X0251357Y0160707D01*
X0251357Y0161492D02*
X0258798Y0161492D01*
X0258798Y0162278D02*
X0251357Y0162278D01*
X0250944Y0163064D02*
X0258798Y0163064D01*
X0258798Y0163850D02*
X0250158Y0163850D01*
X0249372Y0164636D02*
X0258798Y0164636D01*
X0258798Y0165422D02*
X0243892Y0165422D01*
X0243107Y0164636D02*
X0245469Y0164636D01*
X0244683Y0163850D02*
X0242321Y0163850D01*
X0241535Y0163064D02*
X0243897Y0163064D01*
X0243483Y0162278D02*
X0240749Y0162278D01*
X0239963Y0161492D02*
X0243483Y0161492D01*
X0243483Y0160707D02*
X0239177Y0160707D01*
X0238391Y0159921D02*
X0243483Y0159921D01*
X0242993Y0159135D02*
X0237605Y0159135D01*
X0236819Y0158349D02*
X0242208Y0158349D01*
X0241422Y0157563D02*
X0236033Y0157563D01*
X0235247Y0156777D02*
X0240636Y0156777D01*
X0239850Y0155991D02*
X0234461Y0155991D01*
X0233676Y0155205D02*
X0239064Y0155205D01*
X0238278Y0154419D02*
X0232890Y0154419D01*
X0232104Y0153633D02*
X0237492Y0153633D01*
X0236706Y0152847D02*
X0231318Y0152847D01*
X0230532Y0152062D02*
X0235920Y0152062D01*
X0235134Y0151276D02*
X0229746Y0151276D01*
X0228960Y0150490D02*
X0234348Y0150490D01*
X0233562Y0149704D02*
X0228174Y0149704D01*
X0227388Y0148918D02*
X0232777Y0148918D01*
X0231991Y0148132D02*
X0226602Y0148132D01*
X0225816Y0147346D02*
X0231205Y0147346D01*
X0230419Y0146560D02*
X0225031Y0146560D01*
X0224245Y0145774D02*
X0229633Y0145774D01*
X0228847Y0144988D02*
X0223459Y0144988D01*
X0222673Y0144202D02*
X0228061Y0144202D01*
X0227275Y0143416D02*
X0221887Y0143416D01*
X0221101Y0142631D02*
X0226489Y0142631D01*
X0225703Y0141845D02*
X0220315Y0141845D01*
X0219529Y0141059D02*
X0224917Y0141059D01*
X0224132Y0140273D02*
X0218743Y0140273D01*
X0216647Y0142631D02*
X0210865Y0142631D01*
X0211651Y0143416D02*
X0217433Y0143416D01*
X0218219Y0144202D02*
X0212437Y0144202D01*
X0213222Y0144988D02*
X0219005Y0144988D01*
X0219790Y0145774D02*
X0214008Y0145774D01*
X0214794Y0146560D02*
X0220576Y0146560D01*
X0221362Y0147346D02*
X0215580Y0147346D01*
X0216366Y0148132D02*
X0222148Y0148132D01*
X0222934Y0148918D02*
X0217152Y0148918D01*
X0217938Y0149704D02*
X0223720Y0149704D01*
X0224506Y0150490D02*
X0218724Y0150490D01*
X0219510Y0151276D02*
X0225292Y0151276D01*
X0226078Y0152062D02*
X0220296Y0152062D01*
X0221082Y0152847D02*
X0226864Y0152847D01*
X0227650Y0153633D02*
X0221868Y0153633D01*
X0222653Y0154419D02*
X0228435Y0154419D01*
X0229221Y0155205D02*
X0223439Y0155205D01*
X0224225Y0155991D02*
X0230007Y0155991D01*
X0230793Y0156777D02*
X0225011Y0156777D01*
X0225797Y0157563D02*
X0231579Y0157563D01*
X0232365Y0158349D02*
X0226583Y0158349D01*
X0227369Y0159135D02*
X0233151Y0159135D01*
X0233937Y0159921D02*
X0228155Y0159921D01*
X0228941Y0160707D02*
X0234723Y0160707D01*
X0235509Y0161492D02*
X0229727Y0161492D01*
X0230513Y0162278D02*
X0236295Y0162278D01*
X0237081Y0163064D02*
X0231298Y0163064D01*
X0232084Y0163850D02*
X0237866Y0163850D01*
X0238652Y0164636D02*
X0232870Y0164636D01*
X0233656Y0165422D02*
X0239438Y0165422D01*
X0240224Y0166208D02*
X0234442Y0166208D01*
X0235228Y0166994D02*
X0241010Y0166994D01*
X0241796Y0167780D02*
X0236014Y0167780D01*
X0236800Y0168566D02*
X0242582Y0168566D01*
X0243368Y0169352D02*
X0237586Y0169352D01*
X0238372Y0170138D02*
X0243483Y0170138D01*
X0243483Y0170923D02*
X0239158Y0170923D01*
X0239944Y0171709D02*
X0243483Y0171709D01*
X0243483Y0172495D02*
X0240729Y0172495D01*
X0241515Y0173281D02*
X0244114Y0173281D01*
X0244900Y0174067D02*
X0242301Y0174067D01*
X0243087Y0174853D02*
X0245686Y0174853D01*
X0244659Y0176425D02*
X0258798Y0176425D01*
X0258798Y0177211D02*
X0249179Y0177211D01*
X0249965Y0177997D02*
X0258798Y0177997D01*
X0258798Y0178783D02*
X0250751Y0178783D01*
X0251357Y0179568D02*
X0258798Y0179568D01*
X0258798Y0180354D02*
X0251357Y0180354D01*
X0251357Y0181140D02*
X0258798Y0181140D01*
X0258798Y0181926D02*
X0251357Y0181926D01*
X0251296Y0182712D02*
X0258798Y0182712D01*
X0258798Y0183498D02*
X0250510Y0183498D01*
X0249724Y0184284D02*
X0258798Y0184284D01*
X0258798Y0185070D02*
X0219955Y0185070D01*
X0220741Y0185856D02*
X0258798Y0185856D01*
X0258798Y0186642D02*
X0221527Y0186642D01*
X0222313Y0187428D02*
X0244866Y0187428D01*
X0245620Y0186673D02*
X0243074Y0189219D01*
X0243074Y0190626D01*
X0247027Y0190626D01*
X0247814Y0190626D01*
X0247814Y0186673D01*
X0249221Y0186673D01*
X0251767Y0189219D01*
X0251767Y0190626D01*
X0247814Y0190626D01*
X0247814Y0191413D01*
X0251767Y0191413D01*
X0251767Y0192820D01*
X0249221Y0195366D01*
X0247814Y0195366D01*
X0247814Y0191413D01*
X0247027Y0191413D01*
X0247027Y0190626D01*
X0247027Y0186673D01*
X0245620Y0186673D01*
X0247027Y0187428D02*
X0247814Y0187428D01*
X0247814Y0188214D02*
X0247027Y0188214D01*
X0247027Y0188999D02*
X0247814Y0188999D01*
X0247814Y0189785D02*
X0247027Y0189785D01*
X0247027Y0190571D02*
X0247814Y0190571D01*
X0247814Y0191357D02*
X0258798Y0191357D01*
X0258798Y0190571D02*
X0251767Y0190571D01*
X0251767Y0189785D02*
X0258798Y0189785D01*
X0258798Y0188999D02*
X0251547Y0188999D01*
X0250761Y0188214D02*
X0258798Y0188214D01*
X0258798Y0187428D02*
X0249975Y0187428D01*
X0247027Y0191357D02*
X0222775Y0191357D01*
X0222775Y0190571D02*
X0243074Y0190571D01*
X0243074Y0189785D02*
X0222775Y0189785D01*
X0222775Y0188999D02*
X0243294Y0188999D01*
X0244080Y0188214D02*
X0222775Y0188214D01*
X0222775Y0187890D02*
X0222775Y0200449D01*
X0221968Y0201256D01*
X0131456Y0201256D01*
X0130649Y0200449D01*
X0130649Y0172929D01*
X0131456Y0172122D01*
X0168925Y0172122D01*
X0168838Y0172035D01*
X0168838Y0170241D01*
X0169122Y0169957D01*
X0168050Y0168885D01*
X0168050Y0167091D01*
X0168838Y0166304D01*
X0168838Y0164554D01*
X0168050Y0163767D01*
X0168050Y0161973D01*
X0169319Y0160705D01*
X0169713Y0160705D01*
X0169319Y0160311D01*
X0166062Y0160311D01*
X0164901Y0161472D01*
X0164094Y0162280D01*
X0145916Y0162280D01*
X0145128Y0163067D01*
X0143335Y0163067D01*
X0142066Y0161798D01*
X0142066Y0160005D01*
X0143335Y0158736D01*
X0145128Y0158736D01*
X0145916Y0159524D01*
X0162952Y0159524D01*
X0164527Y0157949D01*
X0161664Y0157949D01*
X0160876Y0158736D01*
X0159083Y0158736D01*
X0157814Y0157468D01*
X0157814Y0155674D01*
X0159083Y0154406D01*
X0160876Y0154406D01*
X0161664Y0155193D01*
X0168858Y0155193D01*
X0171200Y0152850D01*
X0171200Y0151737D01*
X0172468Y0150469D01*
X0174262Y0150469D01*
X0175050Y0151256D01*
X0189684Y0151256D01*
X0191259Y0152831D01*
X0192066Y0153638D01*
X0192066Y0162693D01*
X0206613Y0177240D01*
X0209476Y0177240D01*
X0210264Y0176453D01*
X0212058Y0176453D01*
X0213326Y0177721D01*
X0213326Y0179515D01*
X0212845Y0179996D01*
X0214881Y0179996D01*
X0215688Y0180803D01*
X0222775Y0187890D01*
X0221397Y0188461D02*
X0214310Y0181374D01*
X0206830Y0181374D01*
X0189507Y0164051D01*
X0189507Y0164031D01*
X0189310Y0163835D01*
X0189310Y0154779D01*
X0189133Y0154602D01*
X0180846Y0154602D01*
X0180846Y0159524D01*
X0180955Y0159524D01*
X0182224Y0160792D01*
X0182224Y0162586D01*
X0180955Y0163854D01*
X0180846Y0163854D01*
X0180846Y0164839D01*
X0175924Y0169760D01*
X0188503Y0169760D01*
X0190491Y0171748D01*
X0190491Y0189139D01*
X0191279Y0189926D01*
X0191279Y0191720D01*
X0190010Y0192988D01*
X0188216Y0192988D01*
X0186948Y0191720D01*
X0186948Y0189926D01*
X0187735Y0189139D01*
X0187735Y0181877D01*
X0187254Y0182358D01*
X0186141Y0182358D01*
X0184960Y0183539D01*
X0172687Y0183539D01*
X0171900Y0184327D01*
X0170106Y0184327D01*
X0168838Y0183058D01*
X0168838Y0181264D01*
X0170106Y0179996D01*
X0171900Y0179996D01*
X0172687Y0180783D01*
X0183818Y0180783D01*
X0184192Y0180410D01*
X0184192Y0179296D01*
X0185461Y0178028D01*
X0187254Y0178028D01*
X0187735Y0178509D01*
X0187735Y0172890D01*
X0187362Y0172516D01*
X0173169Y0172516D01*
X0172184Y0173500D01*
X0171473Y0173500D01*
X0171598Y0173625D01*
X0171987Y0174566D01*
X0171987Y0175584D01*
X0171598Y0176524D01*
X0170878Y0177244D01*
X0169937Y0177634D01*
X0168919Y0177634D01*
X0167979Y0177244D01*
X0166010Y0175276D01*
X0164234Y0173500D01*
X0156743Y0173500D01*
X0156152Y0174091D01*
X0154358Y0174091D01*
X0153843Y0173576D01*
X0152302Y0175117D01*
X0152302Y0181961D01*
X0151853Y0183047D01*
X0151022Y0183877D01*
X0149937Y0184327D01*
X0148762Y0184327D01*
X0147677Y0183877D01*
X0146846Y0183047D01*
X0146397Y0181961D01*
X0146397Y0175117D01*
X0144780Y0173500D01*
X0132027Y0173500D01*
X0132027Y0199878D01*
X0205573Y0199878D01*
X0206239Y0199212D01*
X0206239Y0196219D01*
X0206629Y0195279D01*
X0207349Y0194559D01*
X0208289Y0194169D01*
X0209307Y0194169D01*
X0210248Y0194559D01*
X0210968Y0195279D01*
X0211357Y0196219D01*
X0211357Y0199212D01*
X0212024Y0199878D01*
X0221397Y0199878D01*
X0221397Y0188461D01*
X0221150Y0188214D02*
X0190491Y0188214D01*
X0190491Y0188999D02*
X0221397Y0188999D01*
X0221397Y0189785D02*
X0191138Y0189785D01*
X0191279Y0190571D02*
X0221397Y0190571D01*
X0221397Y0191357D02*
X0191279Y0191357D01*
X0190855Y0192143D02*
X0221397Y0192143D01*
X0221397Y0192929D02*
X0190069Y0192929D01*
X0188157Y0192929D02*
X0132027Y0192929D01*
X0132027Y0193715D02*
X0221397Y0193715D01*
X0221397Y0194501D02*
X0210108Y0194501D01*
X0210971Y0195287D02*
X0221397Y0195287D01*
X0221397Y0196073D02*
X0211297Y0196073D01*
X0211357Y0196859D02*
X0221397Y0196859D01*
X0221397Y0197644D02*
X0211357Y0197644D01*
X0211357Y0198430D02*
X0221397Y0198430D01*
X0221397Y0199216D02*
X0211362Y0199216D01*
X0206235Y0199216D02*
X0132027Y0199216D01*
X0132027Y0198430D02*
X0206239Y0198430D01*
X0206239Y0197644D02*
X0132027Y0197644D01*
X0132027Y0196859D02*
X0206239Y0196859D01*
X0206300Y0196073D02*
X0132027Y0196073D01*
X0132027Y0195287D02*
X0206626Y0195287D01*
X0207489Y0194501D02*
X0132027Y0194501D01*
X0130649Y0194501D02*
X0120086Y0194501D01*
X0119300Y0195287D02*
X0130649Y0195287D01*
X0130649Y0196073D02*
X0106043Y0196073D01*
X0106043Y0196859D02*
X0130649Y0196859D01*
X0130649Y0197644D02*
X0119613Y0197644D01*
X0119051Y0197083D02*
X0121357Y0199389D01*
X0121357Y0202650D01*
X0119051Y0204957D01*
X0115790Y0204957D01*
X0113483Y0202650D01*
X0113483Y0199389D01*
X0115790Y0197083D01*
X0119051Y0197083D01*
X0119221Y0195366D02*
X0117814Y0195366D01*
X0117814Y0191413D01*
X0121767Y0191413D01*
X0121767Y0192820D01*
X0119221Y0195366D01*
X0117814Y0195287D02*
X0117027Y0195287D01*
X0117027Y0195366D02*
X0115620Y0195366D01*
X0113074Y0192820D01*
X0113074Y0191413D01*
X0117027Y0191413D01*
X0117027Y0190626D01*
X0117814Y0190626D01*
X0117814Y0186673D01*
X0119221Y0186673D01*
X0121767Y0189219D01*
X0121767Y0190626D01*
X0117814Y0190626D01*
X0117814Y0191413D01*
X0117027Y0191413D01*
X0117027Y0195366D01*
X0117027Y0194501D02*
X0117814Y0194501D01*
X0117814Y0193715D02*
X0117027Y0193715D01*
X0117027Y0192929D02*
X0117814Y0192929D01*
X0117814Y0192143D02*
X0117027Y0192143D01*
X0117027Y0191357D02*
X0106043Y0191357D01*
X0106043Y0190571D02*
X0113074Y0190571D01*
X0113074Y0190626D02*
X0113074Y0189219D01*
X0115620Y0186673D01*
X0117027Y0186673D01*
X0117027Y0190626D01*
X0113074Y0190626D01*
X0113074Y0189785D02*
X0106043Y0189785D01*
X0106043Y0188999D02*
X0113294Y0188999D01*
X0114080Y0188214D02*
X0106043Y0188214D01*
X0106043Y0187428D02*
X0114866Y0187428D01*
X0117027Y0187428D02*
X0117814Y0187428D01*
X0117814Y0188214D02*
X0117027Y0188214D01*
X0117027Y0188999D02*
X0117814Y0188999D01*
X0117814Y0189785D02*
X0117027Y0189785D01*
X0117027Y0190571D02*
X0117814Y0190571D01*
X0117814Y0191357D02*
X0130649Y0191357D01*
X0130649Y0190571D02*
X0121767Y0190571D01*
X0121767Y0189785D02*
X0130649Y0189785D01*
X0130649Y0188999D02*
X0121547Y0188999D01*
X0120761Y0188214D02*
X0130649Y0188214D01*
X0130649Y0187428D02*
X0119975Y0187428D01*
X0119724Y0184284D02*
X0130649Y0184284D01*
X0130649Y0185070D02*
X0106043Y0185070D01*
X0106043Y0185856D02*
X0130649Y0185856D01*
X0130649Y0186642D02*
X0106043Y0186642D01*
X0106043Y0184284D02*
X0115117Y0184284D01*
X0114331Y0183498D02*
X0106043Y0183498D01*
X0106043Y0182712D02*
X0113545Y0182712D01*
X0113483Y0181926D02*
X0106043Y0181926D01*
X0106043Y0181140D02*
X0113483Y0181140D01*
X0113483Y0180354D02*
X0106043Y0180354D01*
X0106043Y0179568D02*
X0113483Y0179568D01*
X0114090Y0178783D02*
X0106043Y0178783D01*
X0106043Y0177997D02*
X0114876Y0177997D01*
X0115662Y0177211D02*
X0106043Y0177211D01*
X0106043Y0176425D02*
X0119788Y0176425D01*
X0120574Y0175639D02*
X0106043Y0175639D01*
X0106043Y0174853D02*
X0115686Y0174853D01*
X0114900Y0174067D02*
X0106043Y0174067D01*
X0106043Y0173281D02*
X0114114Y0173281D01*
X0113483Y0172495D02*
X0106043Y0172495D01*
X0106043Y0171709D02*
X0113483Y0171709D01*
X0113483Y0170923D02*
X0106043Y0170923D01*
X0106043Y0170138D02*
X0113483Y0170138D01*
X0113521Y0169352D02*
X0106043Y0169352D01*
X0106043Y0168566D02*
X0114307Y0168566D01*
X0115093Y0167780D02*
X0106043Y0167780D01*
X0106043Y0166994D02*
X0118983Y0166994D01*
X0119769Y0166208D02*
X0106043Y0166208D01*
X0106043Y0165422D02*
X0120555Y0165422D01*
X0121341Y0164636D02*
X0119372Y0164636D01*
X0120158Y0163850D02*
X0122127Y0163850D01*
X0122913Y0163064D02*
X0120944Y0163064D01*
X0121357Y0162278D02*
X0123698Y0162278D01*
X0124484Y0161492D02*
X0121357Y0161492D01*
X0121357Y0160707D02*
X0125270Y0160707D01*
X0126056Y0159921D02*
X0121357Y0159921D01*
X0121533Y0159135D02*
X0126121Y0159135D01*
X0126121Y0158349D02*
X0122318Y0158349D01*
X0123104Y0157563D02*
X0126121Y0157563D01*
X0126121Y0156777D02*
X0123890Y0156777D01*
X0124676Y0155991D02*
X0126121Y0155991D01*
X0126121Y0155205D02*
X0125462Y0155205D01*
X0120222Y0155991D02*
X0106043Y0155991D01*
X0106043Y0156777D02*
X0119436Y0156777D01*
X0115309Y0157563D02*
X0106043Y0157563D01*
X0106043Y0158349D02*
X0114524Y0158349D01*
X0113738Y0159135D02*
X0106043Y0159135D01*
X0106043Y0159921D02*
X0113483Y0159921D01*
X0113483Y0160707D02*
X0106043Y0160707D01*
X0106043Y0161492D02*
X0113483Y0161492D01*
X0113483Y0162278D02*
X0106043Y0162278D01*
X0106043Y0163064D02*
X0113897Y0163064D01*
X0114683Y0163850D02*
X0106043Y0163850D01*
X0106043Y0164636D02*
X0115469Y0164636D01*
X0121320Y0169352D02*
X0126861Y0169352D01*
X0126076Y0170138D02*
X0121357Y0170138D01*
X0121357Y0170923D02*
X0125290Y0170923D01*
X0124504Y0171709D02*
X0121357Y0171709D01*
X0121357Y0172495D02*
X0123718Y0172495D01*
X0122932Y0173281D02*
X0120727Y0173281D01*
X0119941Y0174067D02*
X0122146Y0174067D01*
X0121360Y0174853D02*
X0119155Y0174853D01*
X0122671Y0177997D02*
X0130649Y0177997D01*
X0130649Y0178783D02*
X0121885Y0178783D01*
X0121357Y0179568D02*
X0130649Y0179568D01*
X0130649Y0180354D02*
X0121357Y0180354D01*
X0121357Y0181140D02*
X0130649Y0181140D01*
X0130649Y0181926D02*
X0121357Y0181926D01*
X0121296Y0182712D02*
X0130649Y0182712D01*
X0130649Y0183498D02*
X0120510Y0183498D01*
X0123457Y0177211D02*
X0130649Y0177211D01*
X0130649Y0176425D02*
X0124242Y0176425D01*
X0125028Y0175639D02*
X0130649Y0175639D01*
X0130649Y0174853D02*
X0125814Y0174853D01*
X0126600Y0174067D02*
X0130649Y0174067D01*
X0130649Y0173281D02*
X0127386Y0173281D01*
X0128172Y0172495D02*
X0131083Y0172495D01*
X0132027Y0174067D02*
X0145347Y0174067D01*
X0146133Y0174853D02*
X0132027Y0174853D01*
X0132027Y0175639D02*
X0146397Y0175639D01*
X0146397Y0176425D02*
X0132027Y0176425D01*
X0132027Y0177211D02*
X0146397Y0177211D01*
X0146397Y0177997D02*
X0132027Y0177997D01*
X0132027Y0178783D02*
X0146397Y0178783D01*
X0146397Y0179568D02*
X0132027Y0179568D01*
X0132027Y0180354D02*
X0146397Y0180354D01*
X0146397Y0181140D02*
X0132027Y0181140D01*
X0132027Y0181926D02*
X0146397Y0181926D01*
X0146708Y0182712D02*
X0132027Y0182712D01*
X0132027Y0183498D02*
X0147298Y0183498D01*
X0148659Y0184284D02*
X0132027Y0184284D01*
X0132027Y0185070D02*
X0187735Y0185070D01*
X0187735Y0185856D02*
X0132027Y0185856D01*
X0132027Y0186642D02*
X0187735Y0186642D01*
X0187735Y0187428D02*
X0132027Y0187428D01*
X0132027Y0188214D02*
X0187735Y0188214D01*
X0187735Y0188999D02*
X0132027Y0188999D01*
X0132027Y0189785D02*
X0187089Y0189785D01*
X0186948Y0190571D02*
X0132027Y0190571D01*
X0132027Y0191357D02*
X0186948Y0191357D01*
X0187371Y0192143D02*
X0132027Y0192143D01*
X0130649Y0192143D02*
X0121767Y0192143D01*
X0121658Y0192929D02*
X0130649Y0192929D01*
X0130649Y0193715D02*
X0120872Y0193715D01*
X0120399Y0198430D02*
X0130649Y0198430D01*
X0130649Y0199216D02*
X0121185Y0199216D01*
X0121357Y0200002D02*
X0130649Y0200002D01*
X0130988Y0200788D02*
X0121357Y0200788D01*
X0121357Y0201574D02*
X0243483Y0201574D01*
X0243483Y0200788D02*
X0222435Y0200788D01*
X0222775Y0200002D02*
X0243483Y0200002D01*
X0243483Y0199389D02*
X0245790Y0197083D01*
X0249051Y0197083D01*
X0251357Y0199389D01*
X0251357Y0202650D01*
X0249051Y0204957D01*
X0245790Y0204957D01*
X0243483Y0202650D01*
X0243483Y0199389D01*
X0243656Y0199216D02*
X0222775Y0199216D01*
X0222775Y0198430D02*
X0244442Y0198430D01*
X0245228Y0197644D02*
X0222775Y0197644D01*
X0222775Y0196859D02*
X0258798Y0196859D01*
X0258798Y0197644D02*
X0249613Y0197644D01*
X0250399Y0198430D02*
X0258798Y0198430D01*
X0258798Y0199216D02*
X0251185Y0199216D01*
X0251357Y0200002D02*
X0258798Y0200002D01*
X0258798Y0200788D02*
X0251357Y0200788D01*
X0251357Y0201574D02*
X0258798Y0201574D01*
X0258798Y0202360D02*
X0251357Y0202360D01*
X0250862Y0203146D02*
X0258798Y0203146D01*
X0258798Y0203932D02*
X0250076Y0203932D01*
X0249290Y0204718D02*
X0258798Y0204718D01*
X0258798Y0205504D02*
X0106043Y0205504D01*
X0106043Y0206290D02*
X0258798Y0206290D01*
X0258798Y0196073D02*
X0222775Y0196073D01*
X0222775Y0195287D02*
X0245541Y0195287D01*
X0245620Y0195366D02*
X0243074Y0192820D01*
X0243074Y0191413D01*
X0247027Y0191413D01*
X0247027Y0195366D01*
X0245620Y0195366D01*
X0244755Y0194501D02*
X0222775Y0194501D01*
X0222775Y0193715D02*
X0243969Y0193715D01*
X0243183Y0192929D02*
X0222775Y0192929D01*
X0222775Y0192143D02*
X0243074Y0192143D01*
X0247027Y0192143D02*
X0247814Y0192143D01*
X0247814Y0192929D02*
X0247027Y0192929D01*
X0247027Y0193715D02*
X0247814Y0193715D01*
X0247814Y0194501D02*
X0247027Y0194501D01*
X0247027Y0195287D02*
X0247814Y0195287D01*
X0249300Y0195287D02*
X0258798Y0195287D01*
X0258798Y0194501D02*
X0250086Y0194501D01*
X0250872Y0193715D02*
X0258798Y0193715D01*
X0258798Y0192929D02*
X0251658Y0192929D01*
X0251767Y0192143D02*
X0258798Y0192143D01*
X0245117Y0184284D02*
X0219169Y0184284D01*
X0218383Y0183498D02*
X0244331Y0183498D01*
X0243545Y0182712D02*
X0217597Y0182712D01*
X0216811Y0181926D02*
X0243483Y0181926D01*
X0243483Y0181140D02*
X0216025Y0181140D01*
X0215239Y0180354D02*
X0243483Y0180354D01*
X0243348Y0179568D02*
X0213273Y0179568D01*
X0213326Y0178783D02*
X0242563Y0178783D01*
X0241777Y0177997D02*
X0213326Y0177997D01*
X0212816Y0177211D02*
X0240991Y0177211D01*
X0240205Y0176425D02*
X0205798Y0176425D01*
X0206584Y0177211D02*
X0209506Y0177211D01*
X0211161Y0178618D02*
X0206043Y0178618D01*
X0190688Y0163264D01*
X0190688Y0154209D01*
X0189113Y0152634D01*
X0173365Y0152634D01*
X0169428Y0156571D01*
X0159980Y0156571D01*
X0157814Y0156777D02*
X0131239Y0156777D01*
X0131239Y0157563D02*
X0157909Y0157563D01*
X0158695Y0158349D02*
X0131239Y0158349D01*
X0131239Y0159135D02*
X0142936Y0159135D01*
X0142150Y0159921D02*
X0131239Y0159921D01*
X0131239Y0160707D02*
X0142066Y0160707D01*
X0142066Y0161492D02*
X0131239Y0161492D01*
X0131239Y0162278D02*
X0142546Y0162278D01*
X0143332Y0163064D02*
X0131239Y0163064D01*
X0131239Y0163850D02*
X0168134Y0163850D01*
X0168050Y0163064D02*
X0145131Y0163064D01*
X0144231Y0160902D02*
X0163523Y0160902D01*
X0165491Y0158933D01*
X0171003Y0158933D01*
X0177302Y0158933D01*
X0180058Y0161689D01*
X0177893Y0161492D02*
X0171900Y0161492D01*
X0171900Y0161098D02*
X0171506Y0161098D01*
X0172381Y0161973D01*
X0172381Y0163767D01*
X0171594Y0164554D01*
X0171594Y0166304D01*
X0172381Y0167091D01*
X0172381Y0168885D01*
X0172097Y0169169D01*
X0172687Y0169760D01*
X0173976Y0169760D01*
X0179468Y0164268D01*
X0179468Y0163854D01*
X0179161Y0163854D01*
X0177893Y0162586D01*
X0177893Y0161472D01*
X0176732Y0160311D01*
X0172687Y0160311D01*
X0171900Y0161098D01*
X0172292Y0160707D02*
X0177127Y0160707D01*
X0177893Y0162278D02*
X0172381Y0162278D01*
X0172381Y0163064D02*
X0178371Y0163064D01*
X0179157Y0163850D02*
X0172298Y0163850D01*
X0171594Y0164636D02*
X0179099Y0164636D01*
X0178313Y0165422D02*
X0171594Y0165422D01*
X0171594Y0166208D02*
X0177528Y0166208D01*
X0176742Y0166994D02*
X0172284Y0166994D01*
X0172381Y0167780D02*
X0175956Y0167780D01*
X0175170Y0168566D02*
X0172381Y0168566D01*
X0172279Y0169352D02*
X0174384Y0169352D01*
X0176333Y0169352D02*
X0194808Y0169352D01*
X0195593Y0170138D02*
X0188881Y0170138D01*
X0189667Y0170923D02*
X0196379Y0170923D01*
X0197165Y0171709D02*
X0190453Y0171709D01*
X0190491Y0172495D02*
X0197951Y0172495D01*
X0198737Y0173281D02*
X0190491Y0173281D01*
X0190491Y0174067D02*
X0199523Y0174067D01*
X0200309Y0174853D02*
X0190491Y0174853D01*
X0190491Y0175639D02*
X0201095Y0175639D01*
X0201881Y0176425D02*
X0190491Y0176425D01*
X0190491Y0177211D02*
X0202667Y0177211D01*
X0203453Y0177997D02*
X0190491Y0177997D01*
X0190491Y0178783D02*
X0204238Y0178783D01*
X0205024Y0179568D02*
X0190491Y0179568D01*
X0190491Y0180354D02*
X0205810Y0180354D01*
X0206596Y0181140D02*
X0190491Y0181140D01*
X0190491Y0181926D02*
X0214862Y0181926D01*
X0215648Y0182712D02*
X0190491Y0182712D01*
X0190491Y0183498D02*
X0216434Y0183498D01*
X0217220Y0184284D02*
X0190491Y0184284D01*
X0190491Y0185070D02*
X0218006Y0185070D01*
X0218792Y0185856D02*
X0190491Y0185856D01*
X0190491Y0186642D02*
X0219578Y0186642D01*
X0220364Y0187428D02*
X0190491Y0187428D01*
X0189113Y0190823D02*
X0189113Y0172319D01*
X0187932Y0171138D01*
X0171003Y0171138D01*
X0168838Y0170923D02*
X0129744Y0170923D01*
X0130530Y0170138D02*
X0168941Y0170138D01*
X0168517Y0169352D02*
X0131239Y0169352D01*
X0131239Y0168566D02*
X0168050Y0168566D01*
X0168050Y0167780D02*
X0131239Y0167780D01*
X0131239Y0166994D02*
X0168148Y0166994D01*
X0168838Y0166208D02*
X0131239Y0166208D01*
X0131239Y0165422D02*
X0168838Y0165422D01*
X0168838Y0164636D02*
X0131239Y0164636D01*
X0128090Y0164636D02*
X0125795Y0164636D01*
X0126581Y0163850D02*
X0128090Y0163850D01*
X0128090Y0163064D02*
X0127367Y0163064D01*
X0128090Y0165422D02*
X0125009Y0165422D01*
X0124223Y0166208D02*
X0128090Y0166208D01*
X0128090Y0166994D02*
X0123437Y0166994D01*
X0122651Y0167780D02*
X0128090Y0167780D01*
X0127647Y0168566D02*
X0121865Y0168566D01*
X0128958Y0171709D02*
X0168838Y0171709D01*
X0171781Y0174067D02*
X0187735Y0174067D01*
X0187735Y0173281D02*
X0172403Y0173281D01*
X0171987Y0174853D02*
X0187735Y0174853D01*
X0187735Y0175639D02*
X0171965Y0175639D01*
X0171639Y0176425D02*
X0187735Y0176425D01*
X0187735Y0177211D02*
X0170911Y0177211D01*
X0167945Y0177211D02*
X0152302Y0177211D01*
X0152302Y0177997D02*
X0187735Y0177997D01*
X0186357Y0180193D02*
X0184389Y0182161D01*
X0171003Y0182161D01*
X0168838Y0181926D02*
X0152302Y0181926D01*
X0152302Y0181140D02*
X0168962Y0181140D01*
X0169748Y0180354D02*
X0152302Y0180354D01*
X0152302Y0179568D02*
X0184192Y0179568D01*
X0184192Y0180354D02*
X0172258Y0180354D01*
X0171943Y0184284D02*
X0187735Y0184284D01*
X0187735Y0183498D02*
X0185001Y0183498D01*
X0185787Y0182712D02*
X0187735Y0182712D01*
X0187735Y0181926D02*
X0187686Y0181926D01*
X0184706Y0178783D02*
X0152302Y0178783D01*
X0152302Y0176425D02*
X0167159Y0176425D01*
X0166373Y0175639D02*
X0152302Y0175639D01*
X0152566Y0174853D02*
X0165587Y0174853D01*
X0166010Y0175276D02*
X0166010Y0175276D01*
X0164802Y0174067D02*
X0156175Y0174067D01*
X0154335Y0174067D02*
X0153352Y0174067D01*
X0151991Y0182712D02*
X0168838Y0182712D01*
X0169277Y0183498D02*
X0151401Y0183498D01*
X0150040Y0184284D02*
X0170063Y0184284D01*
X0170216Y0167988D02*
X0170216Y0162870D01*
X0168531Y0161492D02*
X0164881Y0161492D01*
X0165667Y0160707D02*
X0169317Y0160707D01*
X0168050Y0162278D02*
X0164095Y0162278D01*
X0163341Y0159135D02*
X0145527Y0159135D01*
X0136792Y0150490D02*
X0172447Y0150490D01*
X0171661Y0151276D02*
X0136006Y0151276D01*
X0135220Y0152062D02*
X0171200Y0152062D01*
X0171200Y0152847D02*
X0134434Y0152847D01*
X0133648Y0153633D02*
X0170417Y0153633D01*
X0169631Y0154419D02*
X0160890Y0154419D01*
X0159069Y0154419D02*
X0132862Y0154419D01*
X0132076Y0155205D02*
X0158283Y0155205D01*
X0157814Y0155991D02*
X0131290Y0155991D01*
X0137578Y0149704D02*
X0213484Y0149704D01*
X0214270Y0150490D02*
X0174283Y0150490D01*
X0180846Y0155205D02*
X0189310Y0155205D01*
X0189310Y0155991D02*
X0180846Y0155991D01*
X0180846Y0156777D02*
X0189310Y0156777D01*
X0189310Y0157563D02*
X0180846Y0157563D01*
X0180846Y0158349D02*
X0189310Y0158349D01*
X0189310Y0159135D02*
X0180846Y0159135D01*
X0181352Y0159921D02*
X0189310Y0159921D01*
X0189310Y0160707D02*
X0182138Y0160707D01*
X0182224Y0161492D02*
X0189310Y0161492D01*
X0189310Y0162278D02*
X0182224Y0162278D01*
X0181745Y0163064D02*
X0189310Y0163064D01*
X0189326Y0163850D02*
X0180959Y0163850D01*
X0180846Y0164636D02*
X0190092Y0164636D01*
X0190878Y0165422D02*
X0180262Y0165422D01*
X0179476Y0166208D02*
X0191664Y0166208D01*
X0192450Y0166994D02*
X0178690Y0166994D01*
X0177904Y0167780D02*
X0193236Y0167780D01*
X0194022Y0168566D02*
X0177119Y0168566D01*
X0164127Y0158349D02*
X0161264Y0158349D01*
X0142293Y0144988D02*
X0208768Y0144988D01*
X0209554Y0145774D02*
X0141507Y0145774D01*
X0140721Y0146560D02*
X0210340Y0146560D01*
X0211126Y0147346D02*
X0139935Y0147346D01*
X0139149Y0148132D02*
X0211912Y0148132D01*
X0212698Y0148918D02*
X0138364Y0148918D01*
X0119870Y0136343D02*
X0106043Y0136343D01*
X0106043Y0137129D02*
X0115743Y0137129D01*
X0114957Y0137915D02*
X0106043Y0137915D01*
X0106043Y0138701D02*
X0114171Y0138701D01*
X0113483Y0139487D02*
X0106043Y0139487D01*
X0106043Y0140273D02*
X0113483Y0140273D01*
X0113483Y0141059D02*
X0106043Y0141059D01*
X0106043Y0141845D02*
X0113483Y0141845D01*
X0113483Y0142631D02*
X0106043Y0142631D01*
X0106043Y0143416D02*
X0114250Y0143416D01*
X0115035Y0144202D02*
X0106043Y0144202D01*
X0121239Y0129270D02*
X0243602Y0129270D01*
X0244388Y0128484D02*
X0120453Y0128484D01*
X0119667Y0127698D02*
X0245174Y0127698D01*
X0241878Y0124555D02*
X0122962Y0124555D01*
X0125192Y0123769D02*
X0239649Y0123769D01*
X0238568Y0122983D02*
X0126273Y0122983D01*
X0127355Y0122197D02*
X0237486Y0122197D01*
X0236532Y0121411D02*
X0128309Y0121411D01*
X0128880Y0120625D02*
X0235961Y0120625D01*
X0235390Y0119839D02*
X0129451Y0119839D01*
X0130022Y0119053D02*
X0234819Y0119053D01*
X0234333Y0118267D02*
X0203083Y0118267D01*
X0204980Y0117481D02*
X0234078Y0117481D01*
X0233823Y0116695D02*
X0206103Y0116695D01*
X0206889Y0115910D02*
X0233567Y0115910D01*
X0233312Y0115124D02*
X0207666Y0115124D01*
X0207991Y0114338D02*
X0233208Y0114338D01*
X0233208Y0113552D02*
X0208317Y0113552D01*
X0208643Y0112766D02*
X0233208Y0112766D01*
X0233208Y0111980D02*
X0208798Y0111980D01*
X0208798Y0111194D02*
X0233208Y0111194D01*
X0233208Y0110408D02*
X0208798Y0110408D01*
X0208798Y0109622D02*
X0233208Y0109622D01*
X0233208Y0108836D02*
X0208559Y0108836D01*
X0208234Y0108050D02*
X0233208Y0108050D01*
X0233208Y0107264D02*
X0207908Y0107264D01*
X0207474Y0106479D02*
X0233208Y0106479D01*
X0233208Y0105693D02*
X0206688Y0105693D01*
X0205902Y0104907D02*
X0233208Y0104907D01*
X0233208Y0104121D02*
X0204495Y0104121D01*
X0233208Y0103335D02*
X0131633Y0103335D01*
X0131633Y0102549D02*
X0233208Y0102549D01*
X0233208Y0101763D02*
X0131633Y0101763D01*
X0131633Y0100977D02*
X0233208Y0100977D01*
X0233208Y0100191D02*
X0131633Y0100191D01*
X0189704Y0151276D02*
X0215056Y0151276D01*
X0215841Y0152062D02*
X0190490Y0152062D01*
X0191276Y0152847D02*
X0216627Y0152847D01*
X0217413Y0153633D02*
X0192062Y0153633D01*
X0192066Y0154419D02*
X0218199Y0154419D01*
X0218985Y0155205D02*
X0192066Y0155205D01*
X0192066Y0155991D02*
X0219771Y0155991D01*
X0220557Y0156777D02*
X0192066Y0156777D01*
X0192066Y0157563D02*
X0221343Y0157563D01*
X0222129Y0158349D02*
X0192066Y0158349D01*
X0192066Y0159135D02*
X0222915Y0159135D01*
X0223701Y0159921D02*
X0192066Y0159921D01*
X0192066Y0160707D02*
X0224487Y0160707D01*
X0225272Y0161492D02*
X0192066Y0161492D01*
X0192066Y0162278D02*
X0226058Y0162278D01*
X0226844Y0163064D02*
X0192437Y0163064D01*
X0193223Y0163850D02*
X0227630Y0163850D01*
X0228416Y0164636D02*
X0194009Y0164636D01*
X0194795Y0165422D02*
X0229202Y0165422D01*
X0229988Y0166208D02*
X0195581Y0166208D01*
X0196367Y0166994D02*
X0230774Y0166994D01*
X0231560Y0167780D02*
X0197153Y0167780D01*
X0197939Y0168566D02*
X0232346Y0168566D01*
X0233132Y0169352D02*
X0198725Y0169352D01*
X0199511Y0170138D02*
X0233917Y0170138D01*
X0234703Y0170923D02*
X0200297Y0170923D01*
X0201082Y0171709D02*
X0235489Y0171709D01*
X0236275Y0172495D02*
X0201868Y0172495D01*
X0202654Y0173281D02*
X0237061Y0173281D01*
X0237847Y0174067D02*
X0203440Y0174067D01*
X0204226Y0174853D02*
X0238633Y0174853D01*
X0239419Y0175639D02*
X0205012Y0175639D01*
X0238049Y0209433D02*
X0126792Y0209433D01*
X0127873Y0210219D02*
X0236968Y0210219D01*
X0236675Y0210432D02*
X0236675Y0210432D01*
X0236258Y0211005D02*
X0128582Y0211005D01*
X0129153Y0211791D02*
X0235687Y0211791D01*
X0235116Y0212577D02*
X0129724Y0212577D01*
X0130295Y0213363D02*
X0234545Y0213363D01*
X0234211Y0214149D02*
X0130630Y0214149D01*
X0130885Y0214935D02*
X0233956Y0214935D01*
X0233700Y0215720D02*
X0131141Y0215720D01*
X0131396Y0216506D02*
X0233445Y0216506D01*
X0233208Y0217292D02*
X0131633Y0217292D01*
X0131633Y0218078D02*
X0233208Y0218078D01*
X0233208Y0218864D02*
X0131633Y0218864D01*
X0131633Y0219650D02*
X0233208Y0219650D01*
X0233208Y0220436D02*
X0131633Y0220436D01*
X0131633Y0221222D02*
X0233208Y0221222D01*
X0233208Y0222008D02*
X0131633Y0222008D01*
X0131633Y0222794D02*
X0233208Y0222794D01*
X0233208Y0223580D02*
X0131633Y0223580D01*
X0131633Y0224366D02*
X0233208Y0224366D01*
X0233208Y0225151D02*
X0131633Y0225151D01*
X0131633Y0225937D02*
X0233208Y0225937D01*
X0233208Y0226723D02*
X0131633Y0226723D01*
X0131633Y0227509D02*
X0233208Y0227509D01*
X0233208Y0228295D02*
X0131633Y0228295D01*
X0131633Y0229081D02*
X0233208Y0229081D01*
X0233208Y0229867D02*
X0131633Y0229867D01*
X0131633Y0230653D02*
X0233208Y0230653D01*
X0233208Y0231439D02*
X0131633Y0231439D01*
X0131633Y0232225D02*
X0233208Y0232225D01*
X0239131Y0208647D02*
X0125710Y0208647D01*
X0124121Y0207861D02*
X0240720Y0207861D01*
X0243138Y0207075D02*
X0121703Y0207075D01*
X0119290Y0204718D02*
X0245551Y0204718D01*
X0244765Y0203932D02*
X0120076Y0203932D01*
X0120862Y0203146D02*
X0243979Y0203146D01*
X0243483Y0202360D02*
X0121357Y0202360D01*
X0115551Y0204718D02*
X0106043Y0204718D01*
X0106043Y0203932D02*
X0114765Y0203932D01*
X0113979Y0203146D02*
X0106043Y0203146D01*
X0106043Y0202360D02*
X0113483Y0202360D01*
X0113483Y0201574D02*
X0106043Y0201574D01*
X0106043Y0200788D02*
X0113483Y0200788D01*
X0113483Y0200002D02*
X0106043Y0200002D01*
X0106043Y0199216D02*
X0113656Y0199216D01*
X0114442Y0198430D02*
X0106043Y0198430D01*
X0106043Y0197644D02*
X0115228Y0197644D01*
X0115541Y0195287D02*
X0106043Y0195287D01*
X0106043Y0194501D02*
X0114755Y0194501D01*
X0113969Y0193715D02*
X0106043Y0193715D01*
X0106043Y0192929D02*
X0113183Y0192929D01*
X0113074Y0192143D02*
X0106043Y0192143D01*
X0131633Y0276650D02*
X0131633Y0291968D01*
X0130438Y0295645D01*
X0128166Y0298773D01*
X0128166Y0298773D01*
X0125038Y0301045D01*
X0121361Y0302240D01*
X0106043Y0302240D01*
X0106043Y0384130D01*
X0121361Y0384130D01*
X0125038Y0385325D01*
X0125038Y0385325D01*
X0128166Y0387597D01*
X0128166Y0387597D01*
X0128166Y0387597D01*
X0130438Y0390725D01*
X0131633Y0394402D01*
X0131633Y0396498D01*
X0131633Y0409720D01*
X0233208Y0409720D01*
X0233208Y0394402D01*
X0234403Y0390725D01*
X0236675Y0387597D01*
X0239803Y0385325D01*
X0239803Y0385325D01*
X0243480Y0384130D01*
X0258798Y0384130D01*
X0258798Y0302240D01*
X0243480Y0302240D01*
X0239803Y0301045D01*
X0236675Y0298773D01*
X0234403Y0295645D01*
X0233208Y0291968D01*
X0233208Y0276650D01*
X0131633Y0276650D01*
X0131633Y0277022D02*
X0233208Y0277022D01*
X0233208Y0277808D02*
X0131633Y0277808D01*
X0131633Y0278593D02*
X0233208Y0278593D01*
X0233208Y0279379D02*
X0131633Y0279379D01*
X0131633Y0280165D02*
X0233208Y0280165D01*
X0233208Y0280951D02*
X0203686Y0280951D01*
X0202806Y0280587D02*
X0205555Y0281725D01*
X0207660Y0283830D01*
X0208798Y0286579D01*
X0208798Y0289555D01*
X0207660Y0292304D01*
X0205555Y0294408D01*
X0202806Y0295547D01*
X0162429Y0295547D01*
X0159679Y0294408D01*
X0157575Y0292304D01*
X0156436Y0289555D01*
X0156436Y0286579D01*
X0157575Y0283830D01*
X0159679Y0281725D01*
X0162429Y0280587D01*
X0202806Y0280587D01*
X0205567Y0281737D02*
X0233208Y0281737D01*
X0233208Y0282523D02*
X0206353Y0282523D01*
X0207139Y0283309D02*
X0233208Y0283309D01*
X0233208Y0284095D02*
X0207769Y0284095D01*
X0208095Y0284881D02*
X0233208Y0284881D01*
X0233208Y0285667D02*
X0208421Y0285667D01*
X0208746Y0286453D02*
X0233208Y0286453D01*
X0233208Y0287239D02*
X0208798Y0287239D01*
X0208798Y0288024D02*
X0233208Y0288024D01*
X0233208Y0288810D02*
X0208798Y0288810D01*
X0208781Y0289596D02*
X0233208Y0289596D01*
X0233208Y0290382D02*
X0208456Y0290382D01*
X0208130Y0291168D02*
X0233208Y0291168D01*
X0233208Y0291954D02*
X0207805Y0291954D01*
X0207224Y0292740D02*
X0233459Y0292740D01*
X0233714Y0293526D02*
X0206438Y0293526D01*
X0205652Y0294312D02*
X0233969Y0294312D01*
X0234225Y0295098D02*
X0203891Y0295098D01*
X0225592Y0314445D02*
X0245593Y0334445D01*
X0245790Y0334248D01*
X0249051Y0334248D01*
X0251357Y0336554D01*
X0251357Y0339816D01*
X0249051Y0342122D01*
X0245790Y0342122D01*
X0243483Y0339816D01*
X0243483Y0336790D01*
X0223500Y0316807D01*
X0218112Y0316807D01*
X0245671Y0344366D01*
X0245790Y0344248D01*
X0249051Y0344248D01*
X0251357Y0346554D01*
X0251357Y0349816D01*
X0249051Y0352122D01*
X0245790Y0352122D01*
X0243483Y0349816D01*
X0243483Y0346633D01*
X0216020Y0319169D01*
X0210238Y0319169D01*
X0245553Y0354484D01*
X0245790Y0354248D01*
X0249051Y0354248D01*
X0251357Y0356554D01*
X0251357Y0359816D01*
X0249051Y0362122D01*
X0245790Y0362122D01*
X0243483Y0359816D01*
X0243483Y0356869D01*
X0208146Y0321531D01*
X0142915Y0321531D01*
X0131239Y0333207D01*
X0131239Y0346593D01*
X0121318Y0356515D01*
X0121357Y0356554D01*
X0121357Y0359816D01*
X0119051Y0362122D01*
X0115790Y0362122D01*
X0113483Y0359816D01*
X0113483Y0356554D01*
X0115790Y0354248D01*
X0119051Y0354248D01*
X0119091Y0354288D01*
X0128090Y0345289D01*
X0128090Y0339507D01*
X0121200Y0346397D01*
X0121357Y0346554D01*
X0121357Y0349816D01*
X0119051Y0352122D01*
X0115790Y0352122D01*
X0113483Y0349816D01*
X0113483Y0346554D01*
X0115790Y0344248D01*
X0118894Y0344248D01*
X0126121Y0337021D01*
X0126121Y0331711D01*
X0121318Y0336515D01*
X0121357Y0336554D01*
X0121357Y0339816D01*
X0119051Y0342122D01*
X0115790Y0342122D01*
X0113483Y0339816D01*
X0113483Y0336554D01*
X0115790Y0334248D01*
X0119051Y0334248D01*
X0119091Y0334288D01*
X0138934Y0314445D01*
X0133388Y0314445D01*
X0121318Y0326515D01*
X0121357Y0326554D01*
X0121357Y0329816D01*
X0119051Y0332122D01*
X0115790Y0332122D01*
X0113483Y0329816D01*
X0113483Y0326554D01*
X0115790Y0324248D01*
X0119051Y0324248D01*
X0119091Y0324288D01*
X0131296Y0312083D01*
X0125750Y0312083D01*
X0121318Y0316515D01*
X0121357Y0316554D01*
X0121357Y0319816D01*
X0119051Y0322122D01*
X0115790Y0322122D01*
X0113483Y0319816D01*
X0113483Y0316554D01*
X0115790Y0314248D01*
X0119051Y0314248D01*
X0119091Y0314288D01*
X0123658Y0309720D01*
X0121357Y0309720D01*
X0121357Y0309816D01*
X0119051Y0312122D01*
X0115790Y0312122D01*
X0113483Y0309816D01*
X0113483Y0306554D01*
X0115790Y0304248D01*
X0119051Y0304248D01*
X0121357Y0306554D01*
X0121357Y0306571D01*
X0243483Y0306571D01*
X0243483Y0306554D01*
X0245790Y0304248D01*
X0249051Y0304248D01*
X0251357Y0306554D01*
X0251357Y0309816D01*
X0249051Y0312122D01*
X0245790Y0312122D01*
X0243483Y0309816D01*
X0243483Y0309720D01*
X0240947Y0309720D01*
X0245632Y0314406D01*
X0245790Y0314248D01*
X0249051Y0314248D01*
X0251357Y0316554D01*
X0251357Y0319816D01*
X0249051Y0322122D01*
X0245790Y0322122D01*
X0243483Y0319816D01*
X0243483Y0316711D01*
X0238855Y0312083D01*
X0233466Y0312083D01*
X0233602Y0312218D01*
X0245711Y0324327D01*
X0245790Y0324248D01*
X0249051Y0324248D01*
X0251357Y0326554D01*
X0251357Y0329816D01*
X0249051Y0332122D01*
X0245790Y0332122D01*
X0243483Y0329816D01*
X0243483Y0326554D01*
X0243484Y0326554D01*
X0231374Y0314445D01*
X0225592Y0314445D01*
X0225893Y0314745D02*
X0231675Y0314745D01*
X0232461Y0315531D02*
X0226679Y0315531D01*
X0227465Y0316317D02*
X0233247Y0316317D01*
X0234033Y0317103D02*
X0228251Y0317103D01*
X0229037Y0317889D02*
X0234819Y0317889D01*
X0235605Y0318675D02*
X0229823Y0318675D01*
X0230609Y0319461D02*
X0236391Y0319461D01*
X0237176Y0320247D02*
X0231394Y0320247D01*
X0232180Y0321033D02*
X0237962Y0321033D01*
X0238748Y0321819D02*
X0232966Y0321819D01*
X0233752Y0322605D02*
X0239534Y0322605D01*
X0240320Y0323391D02*
X0234538Y0323391D01*
X0235324Y0324176D02*
X0241106Y0324176D01*
X0241892Y0324962D02*
X0236110Y0324962D01*
X0236896Y0325748D02*
X0242678Y0325748D01*
X0243464Y0326534D02*
X0237682Y0326534D01*
X0238468Y0327320D02*
X0243483Y0327320D01*
X0243483Y0328106D02*
X0239254Y0328106D01*
X0240039Y0328892D02*
X0243483Y0328892D01*
X0243483Y0329678D02*
X0240825Y0329678D01*
X0241611Y0330464D02*
X0244131Y0330464D01*
X0244917Y0331250D02*
X0242397Y0331250D01*
X0243183Y0332036D02*
X0245703Y0332036D01*
X0244755Y0333607D02*
X0258798Y0333607D01*
X0258798Y0332821D02*
X0243969Y0332821D01*
X0245541Y0334393D02*
X0245644Y0334393D01*
X0243444Y0336751D02*
X0238056Y0336751D01*
X0237270Y0335965D02*
X0242659Y0335965D01*
X0241873Y0335179D02*
X0236484Y0335179D01*
X0235698Y0334393D02*
X0241087Y0334393D01*
X0240301Y0333607D02*
X0234912Y0333607D01*
X0234127Y0332821D02*
X0239515Y0332821D01*
X0238729Y0332036D02*
X0233341Y0332036D01*
X0232555Y0331250D02*
X0237943Y0331250D01*
X0237157Y0330464D02*
X0231769Y0330464D01*
X0230983Y0329678D02*
X0236371Y0329678D01*
X0235585Y0328892D02*
X0230197Y0328892D01*
X0229411Y0328106D02*
X0234799Y0328106D01*
X0234013Y0327320D02*
X0228625Y0327320D01*
X0227839Y0326534D02*
X0233228Y0326534D01*
X0232442Y0325748D02*
X0227053Y0325748D01*
X0226267Y0324962D02*
X0231656Y0324962D01*
X0230870Y0324176D02*
X0225481Y0324176D01*
X0224696Y0323391D02*
X0230084Y0323391D01*
X0229298Y0322605D02*
X0223910Y0322605D01*
X0223124Y0321819D02*
X0228512Y0321819D01*
X0227726Y0321033D02*
X0222338Y0321033D01*
X0221552Y0320247D02*
X0226940Y0320247D01*
X0226154Y0319461D02*
X0220766Y0319461D01*
X0219980Y0318675D02*
X0225368Y0318675D01*
X0224583Y0317889D02*
X0219194Y0317889D01*
X0218408Y0317103D02*
X0223797Y0317103D01*
X0218670Y0321819D02*
X0212888Y0321819D01*
X0213673Y0322605D02*
X0219455Y0322605D01*
X0220241Y0323391D02*
X0214459Y0323391D01*
X0215245Y0324176D02*
X0221027Y0324176D01*
X0221813Y0324962D02*
X0216031Y0324962D01*
X0216817Y0325748D02*
X0222599Y0325748D01*
X0223385Y0326534D02*
X0217603Y0326534D01*
X0218389Y0327320D02*
X0224171Y0327320D01*
X0224957Y0328106D02*
X0219175Y0328106D01*
X0219961Y0328892D02*
X0225743Y0328892D01*
X0226529Y0329678D02*
X0220747Y0329678D01*
X0221533Y0330464D02*
X0227315Y0330464D01*
X0228101Y0331250D02*
X0222318Y0331250D01*
X0223104Y0332036D02*
X0228886Y0332036D01*
X0229672Y0332821D02*
X0223890Y0332821D01*
X0224676Y0333607D02*
X0230458Y0333607D01*
X0231244Y0334393D02*
X0225462Y0334393D01*
X0226248Y0335179D02*
X0232030Y0335179D01*
X0232816Y0335965D02*
X0227034Y0335965D01*
X0227820Y0336751D02*
X0233602Y0336751D01*
X0234388Y0337537D02*
X0228606Y0337537D01*
X0229392Y0338323D02*
X0235174Y0338323D01*
X0235960Y0339109D02*
X0230178Y0339109D01*
X0230964Y0339895D02*
X0236746Y0339895D01*
X0237531Y0340681D02*
X0231749Y0340681D01*
X0232535Y0341467D02*
X0238317Y0341467D01*
X0239103Y0342252D02*
X0233321Y0342252D01*
X0234107Y0343038D02*
X0239889Y0343038D01*
X0240675Y0343824D02*
X0234893Y0343824D01*
X0235679Y0344610D02*
X0241461Y0344610D01*
X0242247Y0345396D02*
X0236465Y0345396D01*
X0237251Y0346182D02*
X0243033Y0346182D01*
X0243483Y0346968D02*
X0238037Y0346968D01*
X0238823Y0347754D02*
X0243483Y0347754D01*
X0243483Y0348540D02*
X0239609Y0348540D01*
X0240394Y0349326D02*
X0243483Y0349326D01*
X0243779Y0350112D02*
X0241180Y0350112D01*
X0241966Y0350897D02*
X0244565Y0350897D01*
X0245351Y0351683D02*
X0242752Y0351683D01*
X0243538Y0352469D02*
X0258798Y0352469D01*
X0258798Y0351683D02*
X0249490Y0351683D01*
X0250276Y0350897D02*
X0258798Y0350897D01*
X0258798Y0350112D02*
X0251062Y0350112D01*
X0251357Y0349326D02*
X0258798Y0349326D01*
X0258798Y0348540D02*
X0251357Y0348540D01*
X0251357Y0347754D02*
X0258798Y0347754D01*
X0258798Y0346968D02*
X0251357Y0346968D01*
X0250985Y0346182D02*
X0258798Y0346182D01*
X0258798Y0345396D02*
X0250199Y0345396D01*
X0249413Y0344610D02*
X0258798Y0344610D01*
X0258798Y0343824D02*
X0245129Y0343824D01*
X0244343Y0343038D02*
X0258798Y0343038D01*
X0258798Y0342252D02*
X0243557Y0342252D01*
X0242772Y0341467D02*
X0245134Y0341467D01*
X0244348Y0340681D02*
X0241986Y0340681D01*
X0241200Y0339895D02*
X0243562Y0339895D01*
X0243483Y0339109D02*
X0240414Y0339109D01*
X0239628Y0338323D02*
X0243483Y0338323D01*
X0243483Y0337537D02*
X0238842Y0337537D01*
X0231225Y0344610D02*
X0196818Y0344610D01*
X0196032Y0343824D02*
X0230439Y0343824D01*
X0229653Y0343038D02*
X0195246Y0343038D01*
X0194460Y0342252D02*
X0228867Y0342252D01*
X0228081Y0341467D02*
X0193674Y0341467D01*
X0192888Y0340681D02*
X0227295Y0340681D01*
X0226509Y0339895D02*
X0192102Y0339895D01*
X0192066Y0339858D02*
X0206613Y0354406D01*
X0209476Y0354406D01*
X0210264Y0353618D01*
X0212058Y0353618D01*
X0213326Y0354887D01*
X0213326Y0356680D01*
X0212845Y0357161D01*
X0214881Y0357161D01*
X0215688Y0357969D01*
X0222775Y0365055D01*
X0222775Y0377614D01*
X0221968Y0378421D01*
X0131456Y0378421D01*
X0130649Y0377614D01*
X0130649Y0350095D01*
X0131456Y0349287D01*
X0168925Y0349287D01*
X0168838Y0349200D01*
X0168838Y0347406D01*
X0169122Y0347122D01*
X0168050Y0346050D01*
X0168050Y0344257D01*
X0168838Y0343469D01*
X0168838Y0341720D01*
X0168050Y0340932D01*
X0168050Y0339139D01*
X0169319Y0337870D01*
X0169713Y0337870D01*
X0169319Y0337476D01*
X0166062Y0337476D01*
X0164901Y0338638D01*
X0164094Y0339445D01*
X0145916Y0339445D01*
X0145128Y0340232D01*
X0143335Y0340232D01*
X0142066Y0338964D01*
X0142066Y0337170D01*
X0143335Y0335902D01*
X0145128Y0335902D01*
X0145916Y0336689D01*
X0162952Y0336689D01*
X0164113Y0335528D01*
X0164527Y0335114D01*
X0161664Y0335114D01*
X0160876Y0335902D01*
X0159083Y0335902D01*
X0157814Y0334633D01*
X0157814Y0332839D01*
X0159083Y0331571D01*
X0160876Y0331571D01*
X0161664Y0332358D01*
X0168858Y0332358D01*
X0171200Y0330016D01*
X0171200Y0328902D01*
X0172468Y0327634D01*
X0174262Y0327634D01*
X0175050Y0328421D01*
X0189684Y0328421D01*
X0192066Y0330803D01*
X0192066Y0339858D01*
X0192066Y0339109D02*
X0225723Y0339109D01*
X0224937Y0338323D02*
X0192066Y0338323D01*
X0192066Y0337537D02*
X0224152Y0337537D01*
X0223366Y0336751D02*
X0192066Y0336751D01*
X0192066Y0335965D02*
X0222580Y0335965D01*
X0221794Y0335179D02*
X0192066Y0335179D01*
X0192066Y0334393D02*
X0221008Y0334393D01*
X0220222Y0333607D02*
X0192066Y0333607D01*
X0192066Y0332821D02*
X0219436Y0332821D01*
X0218650Y0332036D02*
X0192066Y0332036D01*
X0192066Y0331250D02*
X0217864Y0331250D01*
X0217078Y0330464D02*
X0191727Y0330464D01*
X0190941Y0329678D02*
X0216292Y0329678D01*
X0215507Y0328892D02*
X0190155Y0328892D01*
X0189113Y0329799D02*
X0190688Y0331374D01*
X0190688Y0340429D01*
X0206043Y0355783D01*
X0211161Y0355783D01*
X0213326Y0355613D02*
X0242228Y0355613D01*
X0243013Y0356399D02*
X0213326Y0356399D01*
X0213266Y0354827D02*
X0241442Y0354827D01*
X0240656Y0354041D02*
X0212481Y0354041D01*
X0209841Y0354041D02*
X0206249Y0354041D01*
X0205463Y0353255D02*
X0239870Y0353255D01*
X0239084Y0352469D02*
X0204677Y0352469D01*
X0203891Y0351683D02*
X0238298Y0351683D01*
X0237512Y0350897D02*
X0203105Y0350897D01*
X0202319Y0350112D02*
X0236726Y0350112D01*
X0235940Y0349326D02*
X0201533Y0349326D01*
X0200748Y0348540D02*
X0235154Y0348540D01*
X0234368Y0347754D02*
X0199962Y0347754D01*
X0199176Y0346968D02*
X0233583Y0346968D01*
X0232797Y0346182D02*
X0198390Y0346182D01*
X0197604Y0345396D02*
X0232011Y0345396D01*
X0244324Y0353255D02*
X0258798Y0353255D01*
X0258798Y0354041D02*
X0245110Y0354041D01*
X0243483Y0357185D02*
X0214904Y0357185D01*
X0215690Y0357971D02*
X0243483Y0357971D01*
X0243483Y0358757D02*
X0216476Y0358757D01*
X0217262Y0359543D02*
X0243483Y0359543D01*
X0243996Y0360328D02*
X0218048Y0360328D01*
X0218834Y0361114D02*
X0244782Y0361114D01*
X0245568Y0361900D02*
X0219620Y0361900D01*
X0220406Y0362686D02*
X0258798Y0362686D01*
X0258798Y0361900D02*
X0249273Y0361900D01*
X0250059Y0361114D02*
X0258798Y0361114D01*
X0258798Y0360328D02*
X0250845Y0360328D01*
X0251357Y0359543D02*
X0258798Y0359543D01*
X0258798Y0358757D02*
X0251357Y0358757D01*
X0251357Y0357971D02*
X0258798Y0357971D01*
X0258798Y0357185D02*
X0251357Y0357185D01*
X0251202Y0356399D02*
X0258798Y0356399D01*
X0258798Y0355613D02*
X0250416Y0355613D01*
X0249630Y0354827D02*
X0258798Y0354827D01*
X0258798Y0363472D02*
X0221192Y0363472D01*
X0221978Y0364258D02*
X0245201Y0364258D01*
X0245620Y0363839D02*
X0243074Y0366385D01*
X0243074Y0367791D01*
X0247027Y0367791D01*
X0247814Y0367791D01*
X0247814Y0363839D01*
X0249221Y0363839D01*
X0251767Y0366385D01*
X0251767Y0367791D01*
X0247814Y0367791D01*
X0247814Y0368579D01*
X0247027Y0368579D01*
X0247027Y0372531D01*
X0245620Y0372531D01*
X0243074Y0369985D01*
X0243074Y0368579D01*
X0247027Y0368579D01*
X0247027Y0367791D01*
X0247027Y0363839D01*
X0245620Y0363839D01*
X0247027Y0364258D02*
X0247814Y0364258D01*
X0247814Y0365044D02*
X0247027Y0365044D01*
X0247027Y0365830D02*
X0247814Y0365830D01*
X0247814Y0366616D02*
X0247027Y0366616D01*
X0247027Y0367402D02*
X0247814Y0367402D01*
X0247814Y0368188D02*
X0258798Y0368188D01*
X0258798Y0368973D02*
X0251767Y0368973D01*
X0251767Y0368579D02*
X0251767Y0369985D01*
X0249221Y0372531D01*
X0247814Y0372531D01*
X0247814Y0368579D01*
X0251767Y0368579D01*
X0251767Y0367402D02*
X0258798Y0367402D01*
X0258798Y0366616D02*
X0251767Y0366616D01*
X0251212Y0365830D02*
X0258798Y0365830D01*
X0258798Y0365044D02*
X0250426Y0365044D01*
X0249640Y0364258D02*
X0258798Y0364258D01*
X0258798Y0369759D02*
X0251767Y0369759D01*
X0251207Y0370545D02*
X0258798Y0370545D01*
X0258798Y0371331D02*
X0250421Y0371331D01*
X0249635Y0372117D02*
X0258798Y0372117D01*
X0258798Y0372903D02*
X0222775Y0372903D01*
X0222775Y0372117D02*
X0245206Y0372117D01*
X0244420Y0371331D02*
X0222775Y0371331D01*
X0222775Y0370545D02*
X0243634Y0370545D01*
X0243074Y0369759D02*
X0222775Y0369759D01*
X0222775Y0368973D02*
X0243074Y0368973D01*
X0243074Y0367402D02*
X0222775Y0367402D01*
X0222775Y0368188D02*
X0247027Y0368188D01*
X0247027Y0368973D02*
X0247814Y0368973D01*
X0247814Y0369759D02*
X0247027Y0369759D01*
X0247027Y0370545D02*
X0247814Y0370545D01*
X0247814Y0371331D02*
X0247027Y0371331D01*
X0247027Y0372117D02*
X0247814Y0372117D01*
X0249051Y0374248D02*
X0245790Y0374248D01*
X0243483Y0376554D01*
X0243483Y0379816D01*
X0245790Y0382122D01*
X0249051Y0382122D01*
X0251357Y0379816D01*
X0251357Y0376554D01*
X0249051Y0374248D01*
X0249278Y0374475D02*
X0258798Y0374475D01*
X0258798Y0375261D02*
X0250064Y0375261D01*
X0250850Y0376047D02*
X0258798Y0376047D01*
X0258798Y0376833D02*
X0251357Y0376833D01*
X0251357Y0377619D02*
X0258798Y0377619D01*
X0258798Y0378404D02*
X0251357Y0378404D01*
X0251357Y0379190D02*
X0258798Y0379190D01*
X0258798Y0379976D02*
X0251197Y0379976D01*
X0250411Y0380762D02*
X0258798Y0380762D01*
X0258798Y0381548D02*
X0249625Y0381548D01*
X0245216Y0381548D02*
X0119625Y0381548D01*
X0119051Y0382122D02*
X0121357Y0379816D01*
X0121357Y0376554D01*
X0119051Y0374248D01*
X0115790Y0374248D01*
X0113483Y0376554D01*
X0113483Y0379816D01*
X0115790Y0382122D01*
X0119051Y0382122D01*
X0120411Y0380762D02*
X0244430Y0380762D01*
X0243644Y0379976D02*
X0121197Y0379976D01*
X0121357Y0379190D02*
X0243483Y0379190D01*
X0243483Y0378404D02*
X0221984Y0378404D01*
X0222770Y0377619D02*
X0243483Y0377619D01*
X0243483Y0376833D02*
X0222775Y0376833D01*
X0222775Y0376047D02*
X0243991Y0376047D01*
X0244777Y0375261D02*
X0222775Y0375261D01*
X0222775Y0374475D02*
X0245563Y0374475D01*
X0243074Y0366616D02*
X0222775Y0366616D01*
X0222775Y0365830D02*
X0243629Y0365830D01*
X0244415Y0365044D02*
X0222763Y0365044D01*
X0221397Y0365626D02*
X0214310Y0358539D01*
X0206830Y0358539D01*
X0189507Y0341217D01*
X0189507Y0341197D01*
X0189310Y0341000D01*
X0189310Y0331945D01*
X0189133Y0331768D01*
X0180846Y0331768D01*
X0180846Y0336689D01*
X0180955Y0336689D01*
X0182224Y0337957D01*
X0182224Y0339751D01*
X0180955Y0341020D01*
X0180846Y0341020D01*
X0180846Y0342004D01*
X0175924Y0346925D01*
X0188503Y0346925D01*
X0190491Y0348913D01*
X0190491Y0366304D01*
X0191279Y0367091D01*
X0191279Y0368885D01*
X0190010Y0370154D01*
X0188216Y0370154D01*
X0186948Y0368885D01*
X0186948Y0367091D01*
X0187735Y0366304D01*
X0187735Y0359043D01*
X0187254Y0359524D01*
X0186141Y0359524D01*
X0184960Y0360705D01*
X0172687Y0360705D01*
X0171900Y0361492D01*
X0170106Y0361492D01*
X0168838Y0360224D01*
X0168838Y0358430D01*
X0170106Y0357161D01*
X0171900Y0357161D01*
X0172687Y0357949D01*
X0183818Y0357949D01*
X0184192Y0357575D01*
X0184192Y0356461D01*
X0185461Y0355193D01*
X0187254Y0355193D01*
X0187735Y0355674D01*
X0187735Y0350055D01*
X0187362Y0349681D01*
X0173169Y0349681D01*
X0172184Y0350665D01*
X0171473Y0350665D01*
X0171598Y0350791D01*
X0171987Y0351731D01*
X0171987Y0352749D01*
X0171598Y0353690D01*
X0170878Y0354410D01*
X0169937Y0354799D01*
X0168919Y0354799D01*
X0167979Y0354410D01*
X0166010Y0352441D01*
X0164234Y0350665D01*
X0156743Y0350665D01*
X0156152Y0351256D01*
X0154358Y0351256D01*
X0153843Y0350741D01*
X0152302Y0352282D01*
X0152302Y0359127D01*
X0151853Y0360212D01*
X0151022Y0361043D01*
X0149937Y0361492D01*
X0148762Y0361492D01*
X0147677Y0361043D01*
X0146846Y0360212D01*
X0146397Y0359127D01*
X0146397Y0352282D01*
X0144780Y0350665D01*
X0132027Y0350665D01*
X0132027Y0377043D01*
X0205573Y0377043D01*
X0206239Y0376377D01*
X0206239Y0373385D01*
X0206629Y0372444D01*
X0207349Y0371724D01*
X0208289Y0371335D01*
X0209307Y0371335D01*
X0210248Y0371724D01*
X0210968Y0372444D01*
X0211357Y0373385D01*
X0211357Y0376377D01*
X0212024Y0377043D01*
X0221397Y0377043D01*
X0221397Y0365626D01*
X0221397Y0365830D02*
X0190491Y0365830D01*
X0190491Y0365044D02*
X0220815Y0365044D01*
X0220029Y0364258D02*
X0190491Y0364258D01*
X0190491Y0363472D02*
X0219243Y0363472D01*
X0218457Y0362686D02*
X0190491Y0362686D01*
X0190491Y0361900D02*
X0217671Y0361900D01*
X0216885Y0361114D02*
X0190491Y0361114D01*
X0190491Y0360328D02*
X0216099Y0360328D01*
X0215313Y0359543D02*
X0190491Y0359543D01*
X0190491Y0358757D02*
X0214527Y0358757D01*
X0221397Y0366616D02*
X0190803Y0366616D01*
X0191279Y0367402D02*
X0221397Y0367402D01*
X0221397Y0368188D02*
X0191279Y0368188D01*
X0191190Y0368973D02*
X0221397Y0368973D01*
X0221397Y0369759D02*
X0190404Y0369759D01*
X0189113Y0367988D02*
X0189113Y0349484D01*
X0187932Y0348303D01*
X0171003Y0348303D01*
X0172687Y0346925D02*
X0172097Y0346335D01*
X0172381Y0346050D01*
X0172381Y0344257D01*
X0171594Y0343469D01*
X0171594Y0341720D01*
X0172381Y0340932D01*
X0172381Y0339139D01*
X0171506Y0338264D01*
X0171900Y0338264D01*
X0172687Y0337476D01*
X0176732Y0337476D01*
X0177893Y0338638D01*
X0177893Y0339751D01*
X0179161Y0341020D01*
X0179468Y0341020D01*
X0179468Y0341433D01*
X0173976Y0346925D01*
X0172687Y0346925D01*
X0172250Y0346182D02*
X0174719Y0346182D01*
X0175505Y0345396D02*
X0172381Y0345396D01*
X0172381Y0344610D02*
X0176291Y0344610D01*
X0177077Y0343824D02*
X0171949Y0343824D01*
X0171594Y0343038D02*
X0177863Y0343038D01*
X0178648Y0342252D02*
X0171594Y0342252D01*
X0171847Y0341467D02*
X0179434Y0341467D01*
X0178822Y0340681D02*
X0172381Y0340681D01*
X0172381Y0339895D02*
X0178036Y0339895D01*
X0177893Y0339109D02*
X0172351Y0339109D01*
X0171565Y0338323D02*
X0177578Y0338323D01*
X0176792Y0337537D02*
X0172627Y0337537D01*
X0171003Y0336098D02*
X0177302Y0336098D01*
X0180058Y0338854D01*
X0182224Y0339109D02*
X0189310Y0339109D01*
X0189310Y0339895D02*
X0182080Y0339895D01*
X0181294Y0340681D02*
X0189310Y0340681D01*
X0189757Y0341467D02*
X0180846Y0341467D01*
X0180597Y0342252D02*
X0190543Y0342252D01*
X0191329Y0343038D02*
X0179811Y0343038D01*
X0179025Y0343824D02*
X0192115Y0343824D01*
X0192901Y0344610D02*
X0178239Y0344610D01*
X0177454Y0345396D02*
X0193687Y0345396D01*
X0194473Y0346182D02*
X0176668Y0346182D01*
X0172738Y0350112D02*
X0187735Y0350112D01*
X0187735Y0350897D02*
X0171642Y0350897D01*
X0171968Y0351683D02*
X0187735Y0351683D01*
X0187735Y0352469D02*
X0171987Y0352469D01*
X0171778Y0353255D02*
X0187735Y0353255D01*
X0187735Y0354041D02*
X0171246Y0354041D01*
X0171923Y0357185D02*
X0184192Y0357185D01*
X0184255Y0356399D02*
X0152302Y0356399D01*
X0152302Y0357185D02*
X0170083Y0357185D01*
X0169297Y0357971D02*
X0152302Y0357971D01*
X0152302Y0358757D02*
X0168838Y0358757D01*
X0168838Y0359543D02*
X0152130Y0359543D01*
X0151736Y0360328D02*
X0168943Y0360328D01*
X0169728Y0361114D02*
X0150849Y0361114D01*
X0147850Y0361114D02*
X0132027Y0361114D01*
X0132027Y0360328D02*
X0146963Y0360328D01*
X0146569Y0359543D02*
X0132027Y0359543D01*
X0132027Y0358757D02*
X0146397Y0358757D01*
X0146397Y0357971D02*
X0132027Y0357971D01*
X0132027Y0357185D02*
X0146397Y0357185D01*
X0146397Y0356399D02*
X0132027Y0356399D01*
X0132027Y0355613D02*
X0146397Y0355613D01*
X0146397Y0354827D02*
X0132027Y0354827D01*
X0132027Y0354041D02*
X0146397Y0354041D01*
X0146397Y0353255D02*
X0132027Y0353255D01*
X0132027Y0352469D02*
X0146397Y0352469D01*
X0145798Y0351683D02*
X0132027Y0351683D01*
X0132027Y0350897D02*
X0145012Y0350897D01*
X0152302Y0352469D02*
X0166038Y0352469D01*
X0166010Y0352441D02*
X0166010Y0352441D01*
X0165253Y0351683D02*
X0152901Y0351683D01*
X0153687Y0350897D02*
X0154000Y0350897D01*
X0156510Y0350897D02*
X0164467Y0350897D01*
X0166824Y0353255D02*
X0152302Y0353255D01*
X0152302Y0354041D02*
X0167610Y0354041D01*
X0171003Y0359327D02*
X0184389Y0359327D01*
X0186357Y0357358D01*
X0185041Y0355613D02*
X0152302Y0355613D01*
X0152302Y0354827D02*
X0187735Y0354827D01*
X0187735Y0355613D02*
X0187674Y0355613D01*
X0190491Y0355613D02*
X0203904Y0355613D01*
X0204689Y0356399D02*
X0190491Y0356399D01*
X0190491Y0357185D02*
X0205475Y0357185D01*
X0206261Y0357971D02*
X0190491Y0357971D01*
X0190491Y0354827D02*
X0203118Y0354827D01*
X0202332Y0354041D02*
X0190491Y0354041D01*
X0190491Y0353255D02*
X0201546Y0353255D01*
X0200760Y0352469D02*
X0190491Y0352469D01*
X0190491Y0351683D02*
X0199974Y0351683D01*
X0199188Y0350897D02*
X0190491Y0350897D01*
X0190491Y0350112D02*
X0198402Y0350112D01*
X0197616Y0349326D02*
X0190491Y0349326D01*
X0190118Y0348540D02*
X0196830Y0348540D01*
X0196044Y0347754D02*
X0189332Y0347754D01*
X0188546Y0346968D02*
X0195258Y0346968D01*
X0189310Y0338323D02*
X0182224Y0338323D01*
X0181803Y0337537D02*
X0189310Y0337537D01*
X0189310Y0336751D02*
X0181017Y0336751D01*
X0180846Y0335965D02*
X0189310Y0335965D01*
X0189310Y0335179D02*
X0180846Y0335179D01*
X0180846Y0334393D02*
X0189310Y0334393D01*
X0189310Y0333607D02*
X0180846Y0333607D01*
X0180846Y0332821D02*
X0189310Y0332821D01*
X0189310Y0332036D02*
X0180846Y0332036D01*
X0174734Y0328106D02*
X0214721Y0328106D01*
X0213935Y0327320D02*
X0137127Y0327320D01*
X0137913Y0326534D02*
X0213149Y0326534D01*
X0212363Y0325748D02*
X0138699Y0325748D01*
X0139484Y0324962D02*
X0211577Y0324962D01*
X0210791Y0324176D02*
X0140270Y0324176D01*
X0141056Y0323391D02*
X0210005Y0323391D01*
X0209219Y0322605D02*
X0141842Y0322605D01*
X0142628Y0321819D02*
X0208433Y0321819D01*
X0210530Y0319461D02*
X0216312Y0319461D01*
X0217098Y0320247D02*
X0211316Y0320247D01*
X0212102Y0321033D02*
X0217884Y0321033D01*
X0233772Y0312388D02*
X0239160Y0312388D01*
X0239946Y0313174D02*
X0234557Y0313174D01*
X0235343Y0313960D02*
X0240732Y0313960D01*
X0241518Y0314745D02*
X0236129Y0314745D01*
X0236915Y0315531D02*
X0242304Y0315531D01*
X0243089Y0316317D02*
X0237701Y0316317D01*
X0238487Y0317103D02*
X0243483Y0317103D01*
X0243483Y0317889D02*
X0239273Y0317889D01*
X0240059Y0318675D02*
X0243483Y0318675D01*
X0243483Y0319461D02*
X0240845Y0319461D01*
X0241631Y0320247D02*
X0243915Y0320247D01*
X0244700Y0321033D02*
X0242417Y0321033D01*
X0243202Y0321819D02*
X0245486Y0321819D01*
X0243988Y0322605D02*
X0258798Y0322605D01*
X0258798Y0323391D02*
X0244774Y0323391D01*
X0245560Y0324176D02*
X0258798Y0324176D01*
X0258798Y0324962D02*
X0249766Y0324962D01*
X0250551Y0325748D02*
X0258798Y0325748D01*
X0258798Y0326534D02*
X0251337Y0326534D01*
X0251357Y0327320D02*
X0258798Y0327320D01*
X0258798Y0328106D02*
X0251357Y0328106D01*
X0251357Y0328892D02*
X0258798Y0328892D01*
X0258798Y0329678D02*
X0251357Y0329678D01*
X0250710Y0330464D02*
X0258798Y0330464D01*
X0258798Y0331250D02*
X0249924Y0331250D01*
X0249138Y0332036D02*
X0258798Y0332036D01*
X0258798Y0334393D02*
X0249196Y0334393D01*
X0249982Y0335179D02*
X0258798Y0335179D01*
X0258798Y0335965D02*
X0250768Y0335965D01*
X0251357Y0336751D02*
X0258798Y0336751D01*
X0258798Y0337537D02*
X0251357Y0337537D01*
X0251357Y0338323D02*
X0258798Y0338323D01*
X0258798Y0339109D02*
X0251357Y0339109D01*
X0251279Y0339895D02*
X0258798Y0339895D01*
X0258798Y0340681D02*
X0250493Y0340681D01*
X0249707Y0341467D02*
X0258798Y0341467D01*
X0258798Y0321819D02*
X0249355Y0321819D01*
X0250140Y0321033D02*
X0258798Y0321033D01*
X0258798Y0320247D02*
X0250926Y0320247D01*
X0251357Y0319461D02*
X0258798Y0319461D01*
X0258798Y0318675D02*
X0251357Y0318675D01*
X0251357Y0317889D02*
X0258798Y0317889D01*
X0258798Y0317103D02*
X0251357Y0317103D01*
X0251120Y0316317D02*
X0258798Y0316317D01*
X0258798Y0315531D02*
X0250335Y0315531D01*
X0249549Y0314745D02*
X0258798Y0314745D01*
X0258798Y0313960D02*
X0245186Y0313960D01*
X0244400Y0313174D02*
X0258798Y0313174D01*
X0258798Y0312388D02*
X0243614Y0312388D01*
X0242828Y0311602D02*
X0245270Y0311602D01*
X0244484Y0310816D02*
X0242042Y0310816D01*
X0241256Y0310030D02*
X0243698Y0310030D01*
X0243937Y0306100D02*
X0120904Y0306100D01*
X0120118Y0305315D02*
X0244723Y0305315D01*
X0245509Y0304529D02*
X0119332Y0304529D01*
X0121575Y0302171D02*
X0243266Y0302171D01*
X0240848Y0301385D02*
X0123993Y0301385D01*
X0125038Y0301045D02*
X0125038Y0301045D01*
X0125653Y0300599D02*
X0239188Y0300599D01*
X0239803Y0301045D02*
X0239803Y0301045D01*
X0238107Y0299813D02*
X0126734Y0299813D01*
X0127816Y0299027D02*
X0237025Y0299027D01*
X0236675Y0298773D02*
X0236675Y0298773D01*
X0236675Y0298773D01*
X0236289Y0298241D02*
X0128552Y0298241D01*
X0128166Y0298773D02*
X0128166Y0298773D01*
X0129123Y0297455D02*
X0235718Y0297455D01*
X0235147Y0296669D02*
X0129694Y0296669D01*
X0130265Y0295884D02*
X0234576Y0295884D01*
X0234403Y0295645D02*
X0234403Y0295645D01*
X0249332Y0304529D02*
X0258798Y0304529D01*
X0258798Y0305315D02*
X0250118Y0305315D01*
X0250904Y0306100D02*
X0258798Y0306100D01*
X0258798Y0306886D02*
X0251357Y0306886D01*
X0251357Y0307672D02*
X0258798Y0307672D01*
X0258798Y0308458D02*
X0251357Y0308458D01*
X0251357Y0309244D02*
X0258798Y0309244D01*
X0258798Y0310030D02*
X0251143Y0310030D01*
X0250357Y0310816D02*
X0258798Y0310816D01*
X0258798Y0311602D02*
X0249571Y0311602D01*
X0258798Y0303743D02*
X0106043Y0303743D01*
X0106043Y0304529D02*
X0115509Y0304529D01*
X0114723Y0305315D02*
X0106043Y0305315D01*
X0106043Y0306100D02*
X0113937Y0306100D01*
X0113483Y0306886D02*
X0106043Y0306886D01*
X0106043Y0307672D02*
X0113483Y0307672D01*
X0113483Y0308458D02*
X0106043Y0308458D01*
X0106043Y0309244D02*
X0113483Y0309244D01*
X0113698Y0310030D02*
X0106043Y0310030D01*
X0106043Y0310816D02*
X0114484Y0310816D01*
X0115270Y0311602D02*
X0106043Y0311602D01*
X0106043Y0312388D02*
X0120991Y0312388D01*
X0121777Y0311602D02*
X0119571Y0311602D01*
X0120357Y0310816D02*
X0122562Y0310816D01*
X0123348Y0310030D02*
X0121143Y0310030D01*
X0120205Y0313174D02*
X0106043Y0313174D01*
X0106043Y0313960D02*
X0119419Y0313960D01*
X0121515Y0316317D02*
X0127061Y0316317D01*
X0127847Y0315531D02*
X0122301Y0315531D01*
X0123087Y0314745D02*
X0128633Y0314745D01*
X0129419Y0313960D02*
X0123873Y0313960D01*
X0124659Y0313174D02*
X0130205Y0313174D01*
X0130991Y0312388D02*
X0125445Y0312388D01*
X0126275Y0317103D02*
X0121357Y0317103D01*
X0121357Y0317889D02*
X0125489Y0317889D01*
X0124703Y0318675D02*
X0121357Y0318675D01*
X0121357Y0319461D02*
X0123917Y0319461D01*
X0123132Y0320247D02*
X0120926Y0320247D01*
X0120140Y0321033D02*
X0122346Y0321033D01*
X0121560Y0321819D02*
X0119355Y0321819D01*
X0120774Y0322605D02*
X0106043Y0322605D01*
X0106043Y0323391D02*
X0119988Y0323391D01*
X0119202Y0324176D02*
X0106043Y0324176D01*
X0106043Y0324962D02*
X0115075Y0324962D01*
X0114289Y0325748D02*
X0106043Y0325748D01*
X0106043Y0326534D02*
X0113504Y0326534D01*
X0113483Y0327320D02*
X0106043Y0327320D01*
X0106043Y0328106D02*
X0113483Y0328106D01*
X0113483Y0328892D02*
X0106043Y0328892D01*
X0106043Y0329678D02*
X0113483Y0329678D01*
X0114131Y0330464D02*
X0106043Y0330464D01*
X0106043Y0331250D02*
X0114917Y0331250D01*
X0115703Y0332036D02*
X0106043Y0332036D01*
X0106043Y0332821D02*
X0120557Y0332821D01*
X0121343Y0332036D02*
X0119138Y0332036D01*
X0119924Y0331250D02*
X0122129Y0331250D01*
X0122915Y0330464D02*
X0120710Y0330464D01*
X0121357Y0329678D02*
X0123701Y0329678D01*
X0124486Y0328892D02*
X0121357Y0328892D01*
X0121357Y0328106D02*
X0125272Y0328106D01*
X0126058Y0327320D02*
X0121357Y0327320D01*
X0121337Y0326534D02*
X0126844Y0326534D01*
X0127630Y0325748D02*
X0122084Y0325748D01*
X0122870Y0324962D02*
X0128416Y0324962D01*
X0129202Y0324176D02*
X0123656Y0324176D01*
X0124442Y0323391D02*
X0129988Y0323391D01*
X0130774Y0322605D02*
X0125228Y0322605D01*
X0126014Y0321819D02*
X0131560Y0321819D01*
X0132346Y0321033D02*
X0126800Y0321033D01*
X0127586Y0320247D02*
X0133132Y0320247D01*
X0133917Y0319461D02*
X0128372Y0319461D01*
X0129158Y0318675D02*
X0134703Y0318675D01*
X0135489Y0317889D02*
X0129943Y0317889D01*
X0130729Y0317103D02*
X0136275Y0317103D01*
X0137061Y0316317D02*
X0131515Y0316317D01*
X0132301Y0315531D02*
X0137847Y0315531D01*
X0138633Y0314745D02*
X0133087Y0314745D01*
X0136341Y0328106D02*
X0171996Y0328106D01*
X0171210Y0328892D02*
X0135555Y0328892D01*
X0134769Y0329678D02*
X0171200Y0329678D01*
X0170752Y0330464D02*
X0133983Y0330464D01*
X0133197Y0331250D02*
X0169966Y0331250D01*
X0169180Y0332036D02*
X0161341Y0332036D01*
X0159980Y0333736D02*
X0169428Y0333736D01*
X0173365Y0329799D01*
X0189113Y0329799D01*
X0171003Y0336098D02*
X0165491Y0336098D01*
X0163523Y0338067D01*
X0144231Y0338067D01*
X0142066Y0338323D02*
X0131239Y0338323D01*
X0131239Y0339109D02*
X0142211Y0339109D01*
X0142997Y0339895D02*
X0131239Y0339895D01*
X0131239Y0340681D02*
X0168050Y0340681D01*
X0168050Y0339895D02*
X0145466Y0339895D01*
X0145192Y0335965D02*
X0163676Y0335965D01*
X0164462Y0335179D02*
X0161599Y0335179D01*
X0158360Y0335179D02*
X0131239Y0335179D01*
X0131239Y0334393D02*
X0157814Y0334393D01*
X0157814Y0333607D02*
X0131239Y0333607D01*
X0131625Y0332821D02*
X0157832Y0332821D01*
X0158618Y0332036D02*
X0132411Y0332036D01*
X0131239Y0335965D02*
X0143271Y0335965D01*
X0142485Y0336751D02*
X0131239Y0336751D01*
X0131239Y0337537D02*
X0142066Y0337537D01*
X0131239Y0341467D02*
X0168585Y0341467D01*
X0168838Y0342252D02*
X0131239Y0342252D01*
X0131239Y0343038D02*
X0168838Y0343038D01*
X0168483Y0343824D02*
X0131239Y0343824D01*
X0131239Y0344610D02*
X0168050Y0344610D01*
X0168050Y0345396D02*
X0131239Y0345396D01*
X0131239Y0346182D02*
X0168182Y0346182D01*
X0168968Y0346968D02*
X0130865Y0346968D01*
X0130079Y0347754D02*
X0168838Y0347754D01*
X0168838Y0348540D02*
X0129293Y0348540D01*
X0128507Y0349326D02*
X0131418Y0349326D01*
X0130649Y0350112D02*
X0127721Y0350112D01*
X0126935Y0350897D02*
X0130649Y0350897D01*
X0130649Y0351683D02*
X0126149Y0351683D01*
X0125363Y0352469D02*
X0130649Y0352469D01*
X0130649Y0353255D02*
X0124577Y0353255D01*
X0123791Y0354041D02*
X0130649Y0354041D01*
X0130649Y0354827D02*
X0123006Y0354827D01*
X0122220Y0355613D02*
X0130649Y0355613D01*
X0130649Y0356399D02*
X0121434Y0356399D01*
X0121357Y0357185D02*
X0130649Y0357185D01*
X0130649Y0357971D02*
X0121357Y0357971D01*
X0121357Y0358757D02*
X0130649Y0358757D01*
X0130649Y0359543D02*
X0121357Y0359543D01*
X0120845Y0360328D02*
X0130649Y0360328D01*
X0130649Y0361114D02*
X0120059Y0361114D01*
X0119273Y0361900D02*
X0130649Y0361900D01*
X0130649Y0362686D02*
X0106043Y0362686D01*
X0106043Y0361900D02*
X0115568Y0361900D01*
X0114782Y0361114D02*
X0106043Y0361114D01*
X0106043Y0360328D02*
X0113996Y0360328D01*
X0113483Y0359543D02*
X0106043Y0359543D01*
X0106043Y0358757D02*
X0113483Y0358757D01*
X0113483Y0357971D02*
X0106043Y0357971D01*
X0106043Y0357185D02*
X0113483Y0357185D01*
X0113639Y0356399D02*
X0106043Y0356399D01*
X0106043Y0355613D02*
X0114425Y0355613D01*
X0115211Y0354827D02*
X0106043Y0354827D01*
X0106043Y0354041D02*
X0119337Y0354041D01*
X0120123Y0353255D02*
X0106043Y0353255D01*
X0106043Y0352469D02*
X0120909Y0352469D01*
X0121695Y0351683D02*
X0119490Y0351683D01*
X0120276Y0350897D02*
X0122481Y0350897D01*
X0123267Y0350112D02*
X0121062Y0350112D01*
X0121357Y0349326D02*
X0124053Y0349326D01*
X0124839Y0348540D02*
X0121357Y0348540D01*
X0121357Y0347754D02*
X0125625Y0347754D01*
X0126410Y0346968D02*
X0121357Y0346968D01*
X0121414Y0346182D02*
X0127196Y0346182D01*
X0127982Y0345396D02*
X0122200Y0345396D01*
X0122986Y0344610D02*
X0128090Y0344610D01*
X0128090Y0343824D02*
X0123772Y0343824D01*
X0124558Y0343038D02*
X0128090Y0343038D01*
X0128090Y0342252D02*
X0125344Y0342252D01*
X0126130Y0341467D02*
X0128090Y0341467D01*
X0128090Y0340681D02*
X0126916Y0340681D01*
X0127702Y0339895D02*
X0128090Y0339895D01*
X0125605Y0337537D02*
X0121357Y0337537D01*
X0121357Y0338323D02*
X0124819Y0338323D01*
X0124033Y0339109D02*
X0121357Y0339109D01*
X0121279Y0339895D02*
X0123247Y0339895D01*
X0122462Y0340681D02*
X0120493Y0340681D01*
X0119707Y0341467D02*
X0121676Y0341467D01*
X0120890Y0342252D02*
X0106043Y0342252D01*
X0106043Y0341467D02*
X0115134Y0341467D01*
X0114348Y0340681D02*
X0106043Y0340681D01*
X0106043Y0339895D02*
X0113562Y0339895D01*
X0113483Y0339109D02*
X0106043Y0339109D01*
X0106043Y0338323D02*
X0113483Y0338323D01*
X0113483Y0337537D02*
X0106043Y0337537D01*
X0106043Y0336751D02*
X0113483Y0336751D01*
X0114073Y0335965D02*
X0106043Y0335965D01*
X0106043Y0335179D02*
X0114859Y0335179D01*
X0115644Y0334393D02*
X0106043Y0334393D01*
X0106043Y0333607D02*
X0119771Y0333607D01*
X0121867Y0335965D02*
X0126121Y0335965D01*
X0126121Y0335179D02*
X0122653Y0335179D01*
X0123439Y0334393D02*
X0126121Y0334393D01*
X0126121Y0333607D02*
X0124225Y0333607D01*
X0125011Y0332821D02*
X0126121Y0332821D01*
X0126121Y0332036D02*
X0125797Y0332036D01*
X0126121Y0336751D02*
X0121357Y0336751D01*
X0120104Y0343038D02*
X0106043Y0343038D01*
X0106043Y0343824D02*
X0119318Y0343824D01*
X0115428Y0344610D02*
X0106043Y0344610D01*
X0106043Y0345396D02*
X0114642Y0345396D01*
X0113856Y0346182D02*
X0106043Y0346182D01*
X0106043Y0346968D02*
X0113483Y0346968D01*
X0113483Y0347754D02*
X0106043Y0347754D01*
X0106043Y0348540D02*
X0113483Y0348540D01*
X0113483Y0349326D02*
X0106043Y0349326D01*
X0106043Y0350112D02*
X0113779Y0350112D01*
X0114565Y0350897D02*
X0106043Y0350897D01*
X0106043Y0351683D02*
X0115351Y0351683D01*
X0115620Y0363839D02*
X0113074Y0366385D01*
X0113074Y0367791D01*
X0117027Y0367791D01*
X0117814Y0367791D01*
X0117814Y0363839D01*
X0119221Y0363839D01*
X0121767Y0366385D01*
X0121767Y0367791D01*
X0117814Y0367791D01*
X0117814Y0368579D01*
X0117027Y0368579D01*
X0117027Y0372531D01*
X0115620Y0372531D01*
X0113074Y0369985D01*
X0113074Y0368579D01*
X0117027Y0368579D01*
X0117027Y0367791D01*
X0117027Y0363839D01*
X0115620Y0363839D01*
X0115201Y0364258D02*
X0106043Y0364258D01*
X0106043Y0365044D02*
X0114415Y0365044D01*
X0113629Y0365830D02*
X0106043Y0365830D01*
X0106043Y0366616D02*
X0113074Y0366616D01*
X0113074Y0367402D02*
X0106043Y0367402D01*
X0106043Y0368188D02*
X0117027Y0368188D01*
X0117027Y0368973D02*
X0117814Y0368973D01*
X0117814Y0368579D02*
X0117814Y0372531D01*
X0119221Y0372531D01*
X0121767Y0369985D01*
X0121767Y0368579D01*
X0117814Y0368579D01*
X0117814Y0368188D02*
X0130649Y0368188D01*
X0130649Y0368973D02*
X0121767Y0368973D01*
X0121767Y0369759D02*
X0130649Y0369759D01*
X0130649Y0370545D02*
X0121207Y0370545D01*
X0120421Y0371331D02*
X0130649Y0371331D01*
X0130649Y0372117D02*
X0119635Y0372117D01*
X0117814Y0372117D02*
X0117027Y0372117D01*
X0117027Y0371331D02*
X0117814Y0371331D01*
X0117814Y0370545D02*
X0117027Y0370545D01*
X0117027Y0369759D02*
X0117814Y0369759D01*
X0117814Y0367402D02*
X0117027Y0367402D01*
X0117027Y0366616D02*
X0117814Y0366616D01*
X0117814Y0365830D02*
X0117027Y0365830D01*
X0117027Y0365044D02*
X0117814Y0365044D01*
X0117814Y0364258D02*
X0117027Y0364258D01*
X0119640Y0364258D02*
X0130649Y0364258D01*
X0130649Y0365044D02*
X0120426Y0365044D01*
X0121212Y0365830D02*
X0130649Y0365830D01*
X0130649Y0366616D02*
X0121767Y0366616D01*
X0121767Y0367402D02*
X0130649Y0367402D01*
X0132027Y0367402D02*
X0186948Y0367402D01*
X0186948Y0368188D02*
X0132027Y0368188D01*
X0132027Y0368973D02*
X0187036Y0368973D01*
X0187822Y0369759D02*
X0132027Y0369759D01*
X0132027Y0370545D02*
X0221397Y0370545D01*
X0221397Y0371331D02*
X0132027Y0371331D01*
X0132027Y0372117D02*
X0206956Y0372117D01*
X0206439Y0372903D02*
X0132027Y0372903D01*
X0132027Y0373689D02*
X0206239Y0373689D01*
X0206239Y0374475D02*
X0132027Y0374475D01*
X0132027Y0375261D02*
X0206239Y0375261D01*
X0206239Y0376047D02*
X0132027Y0376047D01*
X0132027Y0376833D02*
X0205784Y0376833D01*
X0211357Y0376047D02*
X0221397Y0376047D01*
X0221397Y0376833D02*
X0211813Y0376833D01*
X0211357Y0375261D02*
X0221397Y0375261D01*
X0221397Y0374475D02*
X0211357Y0374475D01*
X0211357Y0373689D02*
X0221397Y0373689D01*
X0221397Y0372903D02*
X0211158Y0372903D01*
X0210641Y0372117D02*
X0221397Y0372117D01*
X0222775Y0373689D02*
X0258798Y0373689D01*
X0258798Y0382334D02*
X0106043Y0382334D01*
X0106043Y0383120D02*
X0258798Y0383120D01*
X0258798Y0383906D02*
X0106043Y0383906D01*
X0106043Y0381548D02*
X0115216Y0381548D01*
X0114430Y0380762D02*
X0106043Y0380762D01*
X0106043Y0379976D02*
X0113644Y0379976D01*
X0113483Y0379190D02*
X0106043Y0379190D01*
X0106043Y0378404D02*
X0113483Y0378404D01*
X0113483Y0377619D02*
X0106043Y0377619D01*
X0106043Y0376833D02*
X0113483Y0376833D01*
X0113991Y0376047D02*
X0106043Y0376047D01*
X0106043Y0375261D02*
X0114777Y0375261D01*
X0115563Y0374475D02*
X0106043Y0374475D01*
X0106043Y0373689D02*
X0130649Y0373689D01*
X0130649Y0374475D02*
X0119278Y0374475D01*
X0120064Y0375261D02*
X0130649Y0375261D01*
X0130649Y0376047D02*
X0120850Y0376047D01*
X0121357Y0376833D02*
X0130649Y0376833D01*
X0130653Y0377619D02*
X0121357Y0377619D01*
X0121357Y0378404D02*
X0131439Y0378404D01*
X0130649Y0372903D02*
X0106043Y0372903D01*
X0106043Y0372117D02*
X0115206Y0372117D01*
X0114420Y0371331D02*
X0106043Y0371331D01*
X0106043Y0370545D02*
X0113634Y0370545D01*
X0113074Y0369759D02*
X0106043Y0369759D01*
X0106043Y0368973D02*
X0113074Y0368973D01*
X0106043Y0363472D02*
X0130649Y0363472D01*
X0132027Y0363472D02*
X0187735Y0363472D01*
X0187735Y0362686D02*
X0132027Y0362686D01*
X0132027Y0361900D02*
X0187735Y0361900D01*
X0187735Y0361114D02*
X0172278Y0361114D01*
X0185336Y0360328D02*
X0187735Y0360328D01*
X0187735Y0359543D02*
X0186122Y0359543D01*
X0187735Y0364258D02*
X0132027Y0364258D01*
X0132027Y0365044D02*
X0187735Y0365044D01*
X0187735Y0365830D02*
X0132027Y0365830D01*
X0132027Y0366616D02*
X0187424Y0366616D01*
X0170216Y0345154D02*
X0170216Y0340035D01*
X0168866Y0338323D02*
X0165216Y0338323D01*
X0166002Y0337537D02*
X0169379Y0337537D01*
X0168080Y0339109D02*
X0164430Y0339109D01*
X0161343Y0295098D02*
X0130616Y0295098D01*
X0130438Y0295645D02*
X0130438Y0295645D01*
X0130872Y0294312D02*
X0159583Y0294312D01*
X0158797Y0293526D02*
X0131127Y0293526D01*
X0131382Y0292740D02*
X0158011Y0292740D01*
X0157430Y0291954D02*
X0131633Y0291954D01*
X0131633Y0291168D02*
X0157104Y0291168D01*
X0156779Y0290382D02*
X0131633Y0290382D01*
X0131633Y0289596D02*
X0156453Y0289596D01*
X0156436Y0288810D02*
X0131633Y0288810D01*
X0131633Y0288024D02*
X0156436Y0288024D01*
X0156436Y0287239D02*
X0131633Y0287239D01*
X0131633Y0286453D02*
X0156489Y0286453D01*
X0156814Y0285667D02*
X0131633Y0285667D01*
X0131633Y0284881D02*
X0157140Y0284881D01*
X0157465Y0284095D02*
X0131633Y0284095D01*
X0131633Y0283309D02*
X0158096Y0283309D01*
X0158882Y0282523D02*
X0131633Y0282523D01*
X0131633Y0281737D02*
X0159668Y0281737D01*
X0161548Y0280951D02*
X0131633Y0280951D01*
X0106043Y0302957D02*
X0258798Y0302957D01*
X0302893Y0302957D02*
X0455649Y0302957D01*
X0455649Y0302240D02*
X0440330Y0302240D01*
X0436653Y0301045D01*
X0433525Y0298773D01*
X0431253Y0295645D01*
X0430058Y0291968D01*
X0430058Y0276650D01*
X0328483Y0276650D01*
X0328483Y0291968D01*
X0327289Y0295645D01*
X0327289Y0295645D01*
X0325016Y0298773D01*
X0321889Y0301045D01*
X0321889Y0301045D01*
X0318212Y0302240D01*
X0302893Y0302240D01*
X0302893Y0384130D01*
X0318212Y0384130D01*
X0321889Y0385325D01*
X0325016Y0387597D01*
X0325016Y0387597D01*
X0327289Y0390725D01*
X0328483Y0394402D01*
X0328483Y0396498D01*
X0328483Y0409720D01*
X0430058Y0409720D01*
X0430058Y0394402D01*
X0431253Y0390725D01*
X0431253Y0390725D01*
X0433525Y0387597D01*
X0433525Y0387597D01*
X0433525Y0387597D01*
X0436653Y0385325D01*
X0440330Y0384130D01*
X0455649Y0384130D01*
X0455649Y0302240D01*
X0455649Y0303743D02*
X0302893Y0303743D01*
X0302893Y0304529D02*
X0312360Y0304529D01*
X0312640Y0304248D02*
X0315902Y0304248D01*
X0318208Y0306554D01*
X0318208Y0306571D01*
X0440334Y0306571D01*
X0440334Y0306554D01*
X0442640Y0304248D01*
X0445902Y0304248D01*
X0448208Y0306554D01*
X0448208Y0309816D01*
X0445902Y0312122D01*
X0442640Y0312122D01*
X0440334Y0309816D01*
X0440334Y0309720D01*
X0437797Y0309720D01*
X0442482Y0314406D01*
X0442640Y0314248D01*
X0445902Y0314248D01*
X0448208Y0316554D01*
X0448208Y0319816D01*
X0445902Y0322122D01*
X0442640Y0322122D01*
X0440334Y0319816D01*
X0440334Y0316711D01*
X0435705Y0312083D01*
X0430317Y0312083D01*
X0430452Y0312218D01*
X0442561Y0324327D01*
X0442640Y0324248D01*
X0445902Y0324248D01*
X0448208Y0326554D01*
X0448208Y0329816D01*
X0445902Y0332122D01*
X0442640Y0332122D01*
X0440334Y0329816D01*
X0440334Y0326554D01*
X0428225Y0314445D01*
X0422443Y0314445D01*
X0442443Y0334445D01*
X0442640Y0334248D01*
X0445902Y0334248D01*
X0448208Y0336554D01*
X0448208Y0339816D01*
X0445902Y0342122D01*
X0442640Y0342122D01*
X0440334Y0339816D01*
X0440334Y0336790D01*
X0420351Y0316807D01*
X0414963Y0316807D01*
X0442522Y0344366D01*
X0442640Y0344248D01*
X0445902Y0344248D01*
X0448208Y0346554D01*
X0448208Y0349816D01*
X0445902Y0352122D01*
X0442640Y0352122D01*
X0440334Y0349816D01*
X0440334Y0346633D01*
X0412871Y0319169D01*
X0407088Y0319169D01*
X0442404Y0354484D01*
X0442640Y0354248D01*
X0445902Y0354248D01*
X0448208Y0356554D01*
X0448208Y0359816D01*
X0445902Y0362122D01*
X0442640Y0362122D01*
X0440334Y0359816D01*
X0440334Y0356869D01*
X0404997Y0321531D01*
X0339766Y0321531D01*
X0328090Y0333207D01*
X0328090Y0346593D01*
X0318168Y0356515D01*
X0318208Y0356554D01*
X0318208Y0359816D01*
X0315902Y0362122D01*
X0312640Y0362122D01*
X0310334Y0359816D01*
X0310334Y0356554D01*
X0312640Y0354248D01*
X0315902Y0354248D01*
X0315941Y0354288D01*
X0324940Y0345289D01*
X0324940Y0339507D01*
X0318050Y0346397D01*
X0318208Y0346554D01*
X0318208Y0349816D01*
X0315902Y0352122D01*
X0312640Y0352122D01*
X0310334Y0349816D01*
X0310334Y0346554D01*
X0312640Y0344248D01*
X0315745Y0344248D01*
X0322972Y0337021D01*
X0322972Y0331711D01*
X0318168Y0336515D01*
X0318208Y0336554D01*
X0318208Y0339816D01*
X0315902Y0342122D01*
X0312640Y0342122D01*
X0310334Y0339816D01*
X0310334Y0336554D01*
X0312640Y0334248D01*
X0315902Y0334248D01*
X0315941Y0334288D01*
X0335784Y0314445D01*
X0330238Y0314445D01*
X0318168Y0326515D01*
X0318208Y0326554D01*
X0318208Y0329816D01*
X0315902Y0332122D01*
X0312640Y0332122D01*
X0310334Y0329816D01*
X0310334Y0326554D01*
X0312640Y0324248D01*
X0315902Y0324248D01*
X0315941Y0324288D01*
X0328146Y0312083D01*
X0322600Y0312083D01*
X0318168Y0316515D01*
X0318208Y0316554D01*
X0318208Y0319816D01*
X0315902Y0322122D01*
X0312640Y0322122D01*
X0310334Y0319816D01*
X0310334Y0316554D01*
X0312640Y0314248D01*
X0315902Y0314248D01*
X0315941Y0314288D01*
X0320373Y0309856D01*
X0320373Y0309856D01*
X0320508Y0309720D01*
X0318208Y0309720D01*
X0318208Y0309816D01*
X0315902Y0312122D01*
X0312640Y0312122D01*
X0310334Y0309816D01*
X0310334Y0306554D01*
X0312640Y0304248D01*
X0311574Y0305315D02*
X0302893Y0305315D01*
X0302893Y0306100D02*
X0310788Y0306100D01*
X0310334Y0306886D02*
X0302893Y0306886D01*
X0302893Y0307672D02*
X0310334Y0307672D01*
X0310334Y0308458D02*
X0302893Y0308458D01*
X0302893Y0309244D02*
X0310334Y0309244D01*
X0310548Y0310030D02*
X0302893Y0310030D01*
X0302893Y0310816D02*
X0311334Y0310816D01*
X0312120Y0311602D02*
X0302893Y0311602D01*
X0302893Y0312388D02*
X0317841Y0312388D01*
X0317055Y0313174D02*
X0302893Y0313174D01*
X0302893Y0313960D02*
X0316269Y0313960D01*
X0316422Y0311602D02*
X0318627Y0311602D01*
X0319413Y0310816D02*
X0317208Y0310816D01*
X0317994Y0310030D02*
X0320199Y0310030D01*
X0322295Y0312388D02*
X0327841Y0312388D01*
X0327055Y0313174D02*
X0321509Y0313174D01*
X0320723Y0313960D02*
X0326269Y0313960D01*
X0325483Y0314745D02*
X0319938Y0314745D01*
X0319152Y0315531D02*
X0324697Y0315531D01*
X0323911Y0316317D02*
X0318366Y0316317D01*
X0318208Y0317103D02*
X0323126Y0317103D01*
X0322340Y0317889D02*
X0318208Y0317889D01*
X0318208Y0318675D02*
X0321554Y0318675D01*
X0320768Y0319461D02*
X0318208Y0319461D01*
X0317777Y0320247D02*
X0319982Y0320247D01*
X0319196Y0321033D02*
X0316991Y0321033D01*
X0316205Y0321819D02*
X0318410Y0321819D01*
X0317624Y0322605D02*
X0302893Y0322605D01*
X0302893Y0323391D02*
X0316838Y0323391D01*
X0316052Y0324176D02*
X0302893Y0324176D01*
X0302893Y0324962D02*
X0311926Y0324962D01*
X0311140Y0325748D02*
X0302893Y0325748D01*
X0302893Y0326534D02*
X0310354Y0326534D01*
X0310334Y0327320D02*
X0302893Y0327320D01*
X0302893Y0328106D02*
X0310334Y0328106D01*
X0310334Y0328892D02*
X0302893Y0328892D01*
X0302893Y0329678D02*
X0310334Y0329678D01*
X0310982Y0330464D02*
X0302893Y0330464D01*
X0302893Y0331250D02*
X0311768Y0331250D01*
X0312554Y0332036D02*
X0302893Y0332036D01*
X0302893Y0332821D02*
X0317407Y0332821D01*
X0318193Y0332036D02*
X0315988Y0332036D01*
X0316774Y0331250D02*
X0318979Y0331250D01*
X0319765Y0330464D02*
X0317560Y0330464D01*
X0318208Y0329678D02*
X0320551Y0329678D01*
X0321337Y0328892D02*
X0318208Y0328892D01*
X0318208Y0328106D02*
X0322123Y0328106D01*
X0322909Y0327320D02*
X0318208Y0327320D01*
X0318188Y0326534D02*
X0323695Y0326534D01*
X0324481Y0325748D02*
X0318935Y0325748D01*
X0319721Y0324962D02*
X0325266Y0324962D01*
X0326052Y0324176D02*
X0320507Y0324176D01*
X0321292Y0323391D02*
X0326838Y0323391D01*
X0327624Y0322605D02*
X0322078Y0322605D01*
X0322864Y0321819D02*
X0328410Y0321819D01*
X0329196Y0321033D02*
X0323650Y0321033D01*
X0324436Y0320247D02*
X0329982Y0320247D01*
X0330768Y0319461D02*
X0325222Y0319461D01*
X0326008Y0318675D02*
X0331554Y0318675D01*
X0332340Y0317889D02*
X0326794Y0317889D01*
X0327580Y0317103D02*
X0333126Y0317103D01*
X0333911Y0316317D02*
X0328366Y0316317D01*
X0329152Y0315531D02*
X0334697Y0315531D01*
X0335483Y0314745D02*
X0329938Y0314745D01*
X0337907Y0323391D02*
X0406856Y0323391D01*
X0407641Y0324176D02*
X0337121Y0324176D01*
X0336335Y0324962D02*
X0408427Y0324962D01*
X0409213Y0325748D02*
X0335549Y0325748D01*
X0334763Y0326534D02*
X0409999Y0326534D01*
X0410785Y0327320D02*
X0333977Y0327320D01*
X0333191Y0328106D02*
X0368847Y0328106D01*
X0369319Y0327634D02*
X0371113Y0327634D01*
X0371900Y0328421D01*
X0386535Y0328421D01*
X0387342Y0329228D01*
X0387342Y0329228D01*
X0388109Y0329996D01*
X0388109Y0329996D01*
X0388917Y0330803D01*
X0388917Y0339858D01*
X0403464Y0354406D01*
X0406327Y0354406D01*
X0407114Y0353618D01*
X0408908Y0353618D01*
X0410176Y0354887D01*
X0410176Y0356680D01*
X0409695Y0357161D01*
X0411731Y0357161D01*
X0412539Y0357969D01*
X0419625Y0365055D01*
X0419625Y0377614D01*
X0418818Y0378421D01*
X0328306Y0378421D01*
X0327499Y0377614D01*
X0327499Y0350095D01*
X0328306Y0349287D01*
X0365776Y0349287D01*
X0365688Y0349200D01*
X0365688Y0347406D01*
X0365972Y0347122D01*
X0364901Y0346050D01*
X0364901Y0344257D01*
X0365688Y0343469D01*
X0365688Y0341720D01*
X0364901Y0340932D01*
X0364901Y0339139D01*
X0366169Y0337870D01*
X0366563Y0337870D01*
X0366169Y0337476D01*
X0362912Y0337476D01*
X0361751Y0338638D01*
X0360944Y0339445D01*
X0342766Y0339445D01*
X0341979Y0340232D01*
X0340185Y0340232D01*
X0338917Y0338964D01*
X0338917Y0337170D01*
X0340185Y0335902D01*
X0341979Y0335902D01*
X0342766Y0336689D01*
X0359802Y0336689D01*
X0360964Y0335528D01*
X0361377Y0335114D01*
X0358514Y0335114D01*
X0357727Y0335902D01*
X0355933Y0335902D01*
X0354665Y0334633D01*
X0354665Y0332839D01*
X0355933Y0331571D01*
X0357727Y0331571D01*
X0358514Y0332358D01*
X0365708Y0332358D01*
X0368050Y0330016D01*
X0368050Y0328902D01*
X0369319Y0327634D01*
X0368061Y0328892D02*
X0332405Y0328892D01*
X0331619Y0329678D02*
X0368050Y0329678D01*
X0367602Y0330464D02*
X0330833Y0330464D01*
X0330048Y0331250D02*
X0366817Y0331250D01*
X0366031Y0332036D02*
X0358192Y0332036D01*
X0356830Y0333736D02*
X0366279Y0333736D01*
X0370216Y0329799D01*
X0385964Y0329799D01*
X0387539Y0331374D01*
X0387539Y0340429D01*
X0402893Y0355783D01*
X0408011Y0355783D01*
X0410176Y0355613D02*
X0439078Y0355613D01*
X0439864Y0356399D02*
X0410176Y0356399D01*
X0410117Y0354827D02*
X0438292Y0354827D01*
X0437506Y0354041D02*
X0409331Y0354041D01*
X0406691Y0354041D02*
X0403099Y0354041D01*
X0402313Y0353255D02*
X0436720Y0353255D01*
X0435934Y0352469D02*
X0401527Y0352469D01*
X0400742Y0351683D02*
X0435148Y0351683D01*
X0434362Y0350897D02*
X0399956Y0350897D01*
X0399170Y0350112D02*
X0433577Y0350112D01*
X0432791Y0349326D02*
X0398384Y0349326D01*
X0397598Y0348540D02*
X0432005Y0348540D01*
X0431219Y0347754D02*
X0396812Y0347754D01*
X0396026Y0346968D02*
X0430433Y0346968D01*
X0429647Y0346182D02*
X0395240Y0346182D01*
X0394454Y0345396D02*
X0428861Y0345396D01*
X0428075Y0344610D02*
X0393668Y0344610D01*
X0392882Y0343824D02*
X0427289Y0343824D01*
X0426503Y0343038D02*
X0392097Y0343038D01*
X0391311Y0342252D02*
X0425717Y0342252D01*
X0424932Y0341467D02*
X0390525Y0341467D01*
X0389739Y0340681D02*
X0424146Y0340681D01*
X0423360Y0339895D02*
X0388953Y0339895D01*
X0388917Y0339109D02*
X0422574Y0339109D01*
X0421788Y0338323D02*
X0388917Y0338323D01*
X0388917Y0337537D02*
X0421002Y0337537D01*
X0420216Y0336751D02*
X0388917Y0336751D01*
X0388917Y0335965D02*
X0419430Y0335965D01*
X0418644Y0335179D02*
X0388917Y0335179D01*
X0388917Y0334393D02*
X0417858Y0334393D01*
X0417072Y0333607D02*
X0388917Y0333607D01*
X0388917Y0332821D02*
X0416287Y0332821D01*
X0415501Y0332036D02*
X0388917Y0332036D01*
X0388917Y0331250D02*
X0414715Y0331250D01*
X0413929Y0330464D02*
X0388577Y0330464D01*
X0387791Y0329678D02*
X0413143Y0329678D01*
X0412357Y0328892D02*
X0387005Y0328892D01*
X0385984Y0331768D02*
X0377696Y0331768D01*
X0377696Y0336689D01*
X0377806Y0336689D01*
X0379074Y0337957D01*
X0379074Y0339751D01*
X0377806Y0341020D01*
X0377696Y0341020D01*
X0377696Y0342004D01*
X0372775Y0346925D01*
X0385353Y0346925D01*
X0387342Y0348913D01*
X0387342Y0366304D01*
X0388129Y0367091D01*
X0388129Y0368885D01*
X0386861Y0370154D01*
X0385067Y0370154D01*
X0383798Y0368885D01*
X0383798Y0367091D01*
X0384586Y0366304D01*
X0384586Y0359043D01*
X0384105Y0359524D01*
X0382991Y0359524D01*
X0381810Y0360705D01*
X0369538Y0360705D01*
X0368750Y0361492D01*
X0366957Y0361492D01*
X0365688Y0360224D01*
X0365688Y0358430D01*
X0366957Y0357161D01*
X0368750Y0357161D01*
X0369538Y0357949D01*
X0380669Y0357949D01*
X0381043Y0357575D01*
X0381043Y0356461D01*
X0382311Y0355193D01*
X0384105Y0355193D01*
X0384586Y0355674D01*
X0384586Y0350055D01*
X0384212Y0349681D01*
X0370019Y0349681D01*
X0369035Y0350665D01*
X0368323Y0350665D01*
X0368448Y0350791D01*
X0368838Y0351731D01*
X0368838Y0352749D01*
X0368448Y0353690D01*
X0367728Y0354410D01*
X0366788Y0354799D01*
X0365770Y0354799D01*
X0364829Y0354410D01*
X0362141Y0351721D01*
X0361085Y0350665D01*
X0353593Y0350665D01*
X0353002Y0351256D01*
X0351209Y0351256D01*
X0350694Y0350741D01*
X0349153Y0352282D01*
X0349153Y0359127D01*
X0348703Y0360212D01*
X0347873Y0361043D01*
X0346787Y0361492D01*
X0345613Y0361492D01*
X0344527Y0361043D01*
X0343697Y0360212D01*
X0343247Y0359127D01*
X0343247Y0352282D01*
X0341630Y0350665D01*
X0328877Y0350665D01*
X0328877Y0377043D01*
X0402423Y0377043D01*
X0403090Y0376377D01*
X0403090Y0373385D01*
X0403479Y0372444D01*
X0404199Y0371724D01*
X0405140Y0371335D01*
X0406158Y0371335D01*
X0407098Y0371724D01*
X0407818Y0372444D01*
X0408208Y0373385D01*
X0408208Y0376377D01*
X0408874Y0377043D01*
X0418247Y0377043D01*
X0418247Y0365626D01*
X0411161Y0358539D01*
X0403680Y0358539D01*
X0386357Y0341217D01*
X0386357Y0341197D01*
X0386161Y0341000D01*
X0386161Y0331945D01*
X0385984Y0331768D01*
X0386161Y0332036D02*
X0377696Y0332036D01*
X0377696Y0332821D02*
X0386161Y0332821D01*
X0386161Y0333607D02*
X0377696Y0333607D01*
X0377696Y0334393D02*
X0386161Y0334393D01*
X0386161Y0335179D02*
X0377696Y0335179D01*
X0377696Y0335965D02*
X0386161Y0335965D01*
X0386161Y0336751D02*
X0377868Y0336751D01*
X0378654Y0337537D02*
X0386161Y0337537D01*
X0386161Y0338323D02*
X0379074Y0338323D01*
X0379074Y0339109D02*
X0386161Y0339109D01*
X0386161Y0339895D02*
X0378931Y0339895D01*
X0378145Y0340681D02*
X0386161Y0340681D01*
X0386607Y0341467D02*
X0377696Y0341467D01*
X0377448Y0342252D02*
X0387393Y0342252D01*
X0388179Y0343038D02*
X0376662Y0343038D01*
X0375876Y0343824D02*
X0388965Y0343824D01*
X0389751Y0344610D02*
X0375090Y0344610D01*
X0374304Y0345396D02*
X0390537Y0345396D01*
X0391323Y0346182D02*
X0373518Y0346182D01*
X0372355Y0345396D02*
X0369231Y0345396D01*
X0369231Y0346050D02*
X0368947Y0346335D01*
X0369538Y0346925D01*
X0370826Y0346925D01*
X0376318Y0341433D01*
X0376318Y0341020D01*
X0376012Y0341020D01*
X0374743Y0339751D01*
X0374743Y0338638D01*
X0373582Y0337476D01*
X0369538Y0337476D01*
X0368750Y0338264D01*
X0368357Y0338264D01*
X0369231Y0339139D01*
X0369231Y0340932D01*
X0368444Y0341720D01*
X0368444Y0343469D01*
X0369231Y0344257D01*
X0369231Y0346050D01*
X0369100Y0346182D02*
X0371569Y0346182D01*
X0373141Y0344610D02*
X0369231Y0344610D01*
X0368799Y0343824D02*
X0373927Y0343824D01*
X0374713Y0343038D02*
X0368444Y0343038D01*
X0368444Y0342252D02*
X0375499Y0342252D01*
X0376285Y0341467D02*
X0368697Y0341467D01*
X0369231Y0340681D02*
X0375673Y0340681D01*
X0374887Y0339895D02*
X0369231Y0339895D01*
X0369202Y0339109D02*
X0374743Y0339109D01*
X0374428Y0338323D02*
X0368416Y0338323D01*
X0369477Y0337537D02*
X0373643Y0337537D01*
X0374153Y0336098D02*
X0376909Y0338854D01*
X0374153Y0336098D02*
X0367854Y0336098D01*
X0362342Y0336098D01*
X0360373Y0338067D01*
X0341082Y0338067D01*
X0338917Y0338323D02*
X0328090Y0338323D01*
X0328090Y0339109D02*
X0339061Y0339109D01*
X0339847Y0339895D02*
X0328090Y0339895D01*
X0328090Y0340681D02*
X0364901Y0340681D01*
X0364901Y0339895D02*
X0342316Y0339895D01*
X0342042Y0335965D02*
X0360526Y0335965D01*
X0361312Y0335179D02*
X0358449Y0335179D01*
X0355211Y0335179D02*
X0328090Y0335179D01*
X0328090Y0334393D02*
X0354665Y0334393D01*
X0354665Y0333607D02*
X0328090Y0333607D01*
X0328476Y0332821D02*
X0354682Y0332821D01*
X0355468Y0332036D02*
X0329262Y0332036D01*
X0328090Y0335965D02*
X0340121Y0335965D01*
X0339335Y0336751D02*
X0328090Y0336751D01*
X0328090Y0337537D02*
X0338917Y0337537D01*
X0328090Y0341467D02*
X0365435Y0341467D01*
X0365688Y0342252D02*
X0328090Y0342252D01*
X0328090Y0343038D02*
X0365688Y0343038D01*
X0365333Y0343824D02*
X0328090Y0343824D01*
X0328090Y0344610D02*
X0364901Y0344610D01*
X0364901Y0345396D02*
X0328090Y0345396D01*
X0328090Y0346182D02*
X0365032Y0346182D01*
X0365818Y0346968D02*
X0327715Y0346968D01*
X0326929Y0347754D02*
X0365688Y0347754D01*
X0365688Y0348540D02*
X0326143Y0348540D01*
X0325357Y0349326D02*
X0328268Y0349326D01*
X0327499Y0350112D02*
X0324571Y0350112D01*
X0323786Y0350897D02*
X0327499Y0350897D01*
X0327499Y0351683D02*
X0323000Y0351683D01*
X0322214Y0352469D02*
X0327499Y0352469D01*
X0327499Y0353255D02*
X0321428Y0353255D01*
X0320642Y0354041D02*
X0327499Y0354041D01*
X0327499Y0354827D02*
X0319856Y0354827D01*
X0319070Y0355613D02*
X0327499Y0355613D01*
X0327499Y0356399D02*
X0318284Y0356399D01*
X0318208Y0357185D02*
X0327499Y0357185D01*
X0327499Y0357971D02*
X0318208Y0357971D01*
X0318208Y0358757D02*
X0327499Y0358757D01*
X0327499Y0359543D02*
X0318208Y0359543D01*
X0317695Y0360328D02*
X0327499Y0360328D01*
X0327499Y0361114D02*
X0316909Y0361114D01*
X0316123Y0361900D02*
X0327499Y0361900D01*
X0327499Y0362686D02*
X0302893Y0362686D01*
X0302893Y0361900D02*
X0312418Y0361900D01*
X0311632Y0361114D02*
X0302893Y0361114D01*
X0302893Y0360328D02*
X0310847Y0360328D01*
X0310334Y0359543D02*
X0302893Y0359543D01*
X0302893Y0358757D02*
X0310334Y0358757D01*
X0310334Y0357971D02*
X0302893Y0357971D01*
X0302893Y0357185D02*
X0310334Y0357185D01*
X0310489Y0356399D02*
X0302893Y0356399D01*
X0302893Y0355613D02*
X0311275Y0355613D01*
X0312061Y0354827D02*
X0302893Y0354827D01*
X0302893Y0354041D02*
X0316188Y0354041D01*
X0316974Y0353255D02*
X0302893Y0353255D01*
X0302893Y0352469D02*
X0317759Y0352469D01*
X0318545Y0351683D02*
X0316340Y0351683D01*
X0317126Y0350897D02*
X0319331Y0350897D01*
X0320117Y0350112D02*
X0317912Y0350112D01*
X0318208Y0349326D02*
X0320903Y0349326D01*
X0321689Y0348540D02*
X0318208Y0348540D01*
X0318208Y0347754D02*
X0322475Y0347754D01*
X0323261Y0346968D02*
X0318208Y0346968D01*
X0318265Y0346182D02*
X0324047Y0346182D01*
X0324833Y0345396D02*
X0319051Y0345396D01*
X0319837Y0344610D02*
X0324940Y0344610D01*
X0324940Y0343824D02*
X0320623Y0343824D01*
X0321408Y0343038D02*
X0324940Y0343038D01*
X0324940Y0342252D02*
X0322194Y0342252D01*
X0322980Y0341467D02*
X0324940Y0341467D01*
X0324940Y0340681D02*
X0323766Y0340681D01*
X0324552Y0339895D02*
X0324940Y0339895D01*
X0322456Y0337537D02*
X0318208Y0337537D01*
X0318208Y0338323D02*
X0321670Y0338323D01*
X0320884Y0339109D02*
X0318208Y0339109D01*
X0318129Y0339895D02*
X0320098Y0339895D01*
X0319312Y0340681D02*
X0317343Y0340681D01*
X0316557Y0341467D02*
X0318526Y0341467D01*
X0317740Y0342252D02*
X0302893Y0342252D01*
X0302893Y0341467D02*
X0311985Y0341467D01*
X0311199Y0340681D02*
X0302893Y0340681D01*
X0302893Y0339895D02*
X0310413Y0339895D01*
X0310334Y0339109D02*
X0302893Y0339109D01*
X0302893Y0338323D02*
X0310334Y0338323D01*
X0310334Y0337537D02*
X0302893Y0337537D01*
X0302893Y0336751D02*
X0310334Y0336751D01*
X0310923Y0335965D02*
X0302893Y0335965D01*
X0302893Y0335179D02*
X0311709Y0335179D01*
X0312495Y0334393D02*
X0302893Y0334393D01*
X0302893Y0333607D02*
X0316621Y0333607D01*
X0318718Y0335965D02*
X0322972Y0335965D01*
X0322972Y0335179D02*
X0319504Y0335179D01*
X0320290Y0334393D02*
X0322972Y0334393D01*
X0322972Y0333607D02*
X0321076Y0333607D01*
X0321862Y0332821D02*
X0322972Y0332821D01*
X0322972Y0332036D02*
X0322647Y0332036D01*
X0322972Y0336751D02*
X0318208Y0336751D01*
X0316954Y0343038D02*
X0302893Y0343038D01*
X0302893Y0343824D02*
X0316168Y0343824D01*
X0312278Y0344610D02*
X0302893Y0344610D01*
X0302893Y0345396D02*
X0311492Y0345396D01*
X0310706Y0346182D02*
X0302893Y0346182D01*
X0302893Y0346968D02*
X0310334Y0346968D01*
X0310334Y0347754D02*
X0302893Y0347754D01*
X0302893Y0348540D02*
X0310334Y0348540D01*
X0310334Y0349326D02*
X0302893Y0349326D01*
X0302893Y0350112D02*
X0310630Y0350112D01*
X0311416Y0350897D02*
X0302893Y0350897D01*
X0302893Y0351683D02*
X0312201Y0351683D01*
X0312471Y0363839D02*
X0309924Y0366385D01*
X0309924Y0367791D01*
X0313877Y0367791D01*
X0314665Y0367791D01*
X0314665Y0368579D01*
X0318617Y0368579D01*
X0318617Y0369985D01*
X0316071Y0372531D01*
X0314665Y0372531D01*
X0314665Y0368579D01*
X0313877Y0368579D01*
X0313877Y0372531D01*
X0312471Y0372531D01*
X0309924Y0369985D01*
X0309924Y0368579D01*
X0313877Y0368579D01*
X0313877Y0367791D01*
X0313877Y0363839D01*
X0312471Y0363839D01*
X0312051Y0364258D02*
X0302893Y0364258D01*
X0302893Y0365044D02*
X0311265Y0365044D01*
X0310479Y0365830D02*
X0302893Y0365830D01*
X0302893Y0366616D02*
X0309924Y0366616D01*
X0309924Y0367402D02*
X0302893Y0367402D01*
X0302893Y0368188D02*
X0313877Y0368188D01*
X0313877Y0368973D02*
X0314665Y0368973D01*
X0314665Y0368188D02*
X0327499Y0368188D01*
X0327499Y0368973D02*
X0318617Y0368973D01*
X0318617Y0369759D02*
X0327499Y0369759D01*
X0327499Y0370545D02*
X0318057Y0370545D01*
X0317271Y0371331D02*
X0327499Y0371331D01*
X0327499Y0372117D02*
X0316486Y0372117D01*
X0314665Y0372117D02*
X0313877Y0372117D01*
X0313877Y0371331D02*
X0314665Y0371331D01*
X0314665Y0370545D02*
X0313877Y0370545D01*
X0313877Y0369759D02*
X0314665Y0369759D01*
X0314665Y0367791D02*
X0318617Y0367791D01*
X0318617Y0366385D01*
X0316071Y0363839D01*
X0314665Y0363839D01*
X0314665Y0367791D01*
X0314665Y0367402D02*
X0313877Y0367402D01*
X0313877Y0366616D02*
X0314665Y0366616D01*
X0314665Y0365830D02*
X0313877Y0365830D01*
X0313877Y0365044D02*
X0314665Y0365044D01*
X0314665Y0364258D02*
X0313877Y0364258D01*
X0316491Y0364258D02*
X0327499Y0364258D01*
X0327499Y0365044D02*
X0317277Y0365044D01*
X0318062Y0365830D02*
X0327499Y0365830D01*
X0327499Y0366616D02*
X0318617Y0366616D01*
X0318617Y0367402D02*
X0327499Y0367402D01*
X0328877Y0367402D02*
X0383798Y0367402D01*
X0383798Y0368188D02*
X0328877Y0368188D01*
X0328877Y0368973D02*
X0383887Y0368973D01*
X0384673Y0369759D02*
X0328877Y0369759D01*
X0328877Y0370545D02*
X0418247Y0370545D01*
X0418247Y0369759D02*
X0387255Y0369759D01*
X0388041Y0368973D02*
X0418247Y0368973D01*
X0418247Y0368188D02*
X0388129Y0368188D01*
X0388129Y0367402D02*
X0418247Y0367402D01*
X0418247Y0366616D02*
X0387654Y0366616D01*
X0387342Y0365830D02*
X0418247Y0365830D01*
X0417665Y0365044D02*
X0387342Y0365044D01*
X0387342Y0364258D02*
X0416879Y0364258D01*
X0416093Y0363472D02*
X0387342Y0363472D01*
X0387342Y0362686D02*
X0415307Y0362686D01*
X0414522Y0361900D02*
X0387342Y0361900D01*
X0387342Y0361114D02*
X0413736Y0361114D01*
X0412950Y0360328D02*
X0387342Y0360328D01*
X0387342Y0359543D02*
X0412164Y0359543D01*
X0411378Y0358757D02*
X0387342Y0358757D01*
X0387342Y0357971D02*
X0403112Y0357971D01*
X0402326Y0357185D02*
X0387342Y0357185D01*
X0387342Y0356399D02*
X0401540Y0356399D01*
X0400754Y0355613D02*
X0387342Y0355613D01*
X0387342Y0354827D02*
X0399968Y0354827D01*
X0399182Y0354041D02*
X0387342Y0354041D01*
X0387342Y0353255D02*
X0398396Y0353255D01*
X0397610Y0352469D02*
X0387342Y0352469D01*
X0387342Y0351683D02*
X0396824Y0351683D01*
X0396038Y0350897D02*
X0387342Y0350897D01*
X0387342Y0350112D02*
X0395253Y0350112D01*
X0394467Y0349326D02*
X0387342Y0349326D01*
X0386968Y0348540D02*
X0393681Y0348540D01*
X0392895Y0347754D02*
X0386182Y0347754D01*
X0385396Y0346968D02*
X0392109Y0346968D01*
X0385964Y0349484D02*
X0384783Y0348303D01*
X0367854Y0348303D01*
X0369588Y0350112D02*
X0384586Y0350112D01*
X0384586Y0350897D02*
X0368492Y0350897D01*
X0368818Y0351683D02*
X0384586Y0351683D01*
X0384586Y0352469D02*
X0368838Y0352469D01*
X0368628Y0353255D02*
X0384586Y0353255D01*
X0384586Y0354041D02*
X0368097Y0354041D01*
X0368774Y0357185D02*
X0381043Y0357185D01*
X0381105Y0356399D02*
X0349153Y0356399D01*
X0349153Y0357185D02*
X0366933Y0357185D01*
X0366147Y0357971D02*
X0349153Y0357971D01*
X0349153Y0358757D02*
X0365688Y0358757D01*
X0365688Y0359543D02*
X0348981Y0359543D01*
X0348587Y0360328D02*
X0365793Y0360328D01*
X0366579Y0361114D02*
X0347699Y0361114D01*
X0344701Y0361114D02*
X0328877Y0361114D01*
X0328877Y0360328D02*
X0343813Y0360328D01*
X0343419Y0359543D02*
X0328877Y0359543D01*
X0328877Y0358757D02*
X0343247Y0358757D01*
X0343247Y0357971D02*
X0328877Y0357971D01*
X0328877Y0357185D02*
X0343247Y0357185D01*
X0343247Y0356399D02*
X0328877Y0356399D01*
X0328877Y0355613D02*
X0343247Y0355613D01*
X0343247Y0354827D02*
X0328877Y0354827D01*
X0328877Y0354041D02*
X0343247Y0354041D01*
X0343247Y0353255D02*
X0328877Y0353255D01*
X0328877Y0352469D02*
X0343247Y0352469D01*
X0342649Y0351683D02*
X0328877Y0351683D01*
X0328877Y0350897D02*
X0341863Y0350897D01*
X0349153Y0352469D02*
X0362889Y0352469D01*
X0362141Y0351721D02*
X0362141Y0351721D01*
X0362103Y0351683D02*
X0349751Y0351683D01*
X0350537Y0350897D02*
X0350850Y0350897D01*
X0353361Y0350897D02*
X0361317Y0350897D01*
X0363675Y0353255D02*
X0349153Y0353255D01*
X0349153Y0354041D02*
X0364461Y0354041D01*
X0367854Y0359327D02*
X0381239Y0359327D01*
X0383208Y0357358D01*
X0384525Y0355613D02*
X0384586Y0355613D01*
X0384586Y0354827D02*
X0349153Y0354827D01*
X0349153Y0355613D02*
X0381891Y0355613D01*
X0382972Y0359543D02*
X0384586Y0359543D01*
X0384586Y0360328D02*
X0382186Y0360328D01*
X0384586Y0361114D02*
X0369128Y0361114D01*
X0384586Y0361900D02*
X0328877Y0361900D01*
X0328877Y0362686D02*
X0384586Y0362686D01*
X0384586Y0363472D02*
X0328877Y0363472D01*
X0328877Y0364258D02*
X0384586Y0364258D01*
X0384586Y0365044D02*
X0328877Y0365044D01*
X0328877Y0365830D02*
X0384586Y0365830D01*
X0384274Y0366616D02*
X0328877Y0366616D01*
X0327499Y0363472D02*
X0302893Y0363472D01*
X0302893Y0368973D02*
X0309924Y0368973D01*
X0309924Y0369759D02*
X0302893Y0369759D01*
X0302893Y0370545D02*
X0310484Y0370545D01*
X0311270Y0371331D02*
X0302893Y0371331D01*
X0302893Y0372117D02*
X0312056Y0372117D01*
X0312640Y0374248D02*
X0315902Y0374248D01*
X0318208Y0376554D01*
X0318208Y0379816D01*
X0315902Y0382122D01*
X0312640Y0382122D01*
X0310334Y0379816D01*
X0310334Y0376554D01*
X0312640Y0374248D01*
X0312413Y0374475D02*
X0302893Y0374475D01*
X0302893Y0375261D02*
X0311627Y0375261D01*
X0310841Y0376047D02*
X0302893Y0376047D01*
X0302893Y0376833D02*
X0310334Y0376833D01*
X0310334Y0377619D02*
X0302893Y0377619D01*
X0302893Y0378404D02*
X0310334Y0378404D01*
X0310334Y0379190D02*
X0302893Y0379190D01*
X0302893Y0379976D02*
X0310494Y0379976D01*
X0311280Y0380762D02*
X0302893Y0380762D01*
X0302893Y0381548D02*
X0312066Y0381548D01*
X0316476Y0381548D02*
X0442066Y0381548D01*
X0442640Y0382122D02*
X0440334Y0379816D01*
X0440334Y0376554D01*
X0442640Y0374248D01*
X0445902Y0374248D01*
X0448208Y0376554D01*
X0448208Y0379816D01*
X0445902Y0382122D01*
X0442640Y0382122D01*
X0441280Y0380762D02*
X0317261Y0380762D01*
X0318047Y0379976D02*
X0440494Y0379976D01*
X0440334Y0379190D02*
X0318208Y0379190D01*
X0318208Y0378404D02*
X0328290Y0378404D01*
X0327504Y0377619D02*
X0318208Y0377619D01*
X0318208Y0376833D02*
X0327499Y0376833D01*
X0327499Y0376047D02*
X0317700Y0376047D01*
X0316914Y0375261D02*
X0327499Y0375261D01*
X0327499Y0374475D02*
X0316128Y0374475D01*
X0319941Y0384692D02*
X0438601Y0384692D01*
X0436653Y0385325D02*
X0436653Y0385325D01*
X0436442Y0385478D02*
X0322099Y0385478D01*
X0321889Y0385325D02*
X0321889Y0385325D01*
X0323181Y0386264D02*
X0435361Y0386264D01*
X0434279Y0387049D02*
X0324263Y0387049D01*
X0325016Y0387597D02*
X0325016Y0387597D01*
X0325190Y0387835D02*
X0433352Y0387835D01*
X0432781Y0388621D02*
X0325761Y0388621D01*
X0326332Y0389407D02*
X0432210Y0389407D01*
X0431639Y0390193D02*
X0326903Y0390193D01*
X0327289Y0390725D02*
X0327289Y0390725D01*
X0327371Y0390979D02*
X0431170Y0390979D01*
X0430915Y0391765D02*
X0327627Y0391765D01*
X0327882Y0392551D02*
X0430660Y0392551D01*
X0430404Y0393337D02*
X0328137Y0393337D01*
X0328393Y0394123D02*
X0430149Y0394123D01*
X0430058Y0394909D02*
X0328483Y0394909D01*
X0328483Y0395695D02*
X0430058Y0395695D01*
X0430058Y0396480D02*
X0328483Y0396480D01*
X0328483Y0397266D02*
X0430058Y0397266D01*
X0430058Y0398052D02*
X0328483Y0398052D01*
X0328483Y0398838D02*
X0430058Y0398838D01*
X0430058Y0399624D02*
X0328483Y0399624D01*
X0328483Y0400410D02*
X0430058Y0400410D01*
X0430058Y0401196D02*
X0328483Y0401196D01*
X0328483Y0401982D02*
X0430058Y0401982D01*
X0430058Y0402768D02*
X0328483Y0402768D01*
X0328483Y0403554D02*
X0430058Y0403554D01*
X0430058Y0404340D02*
X0328483Y0404340D01*
X0328483Y0405125D02*
X0430058Y0405125D01*
X0430058Y0405911D02*
X0328483Y0405911D01*
X0328483Y0406697D02*
X0430058Y0406697D01*
X0430058Y0407483D02*
X0328483Y0407483D01*
X0328483Y0408269D02*
X0430058Y0408269D01*
X0430058Y0409055D02*
X0328483Y0409055D01*
X0302893Y0383906D02*
X0455649Y0383906D01*
X0455649Y0383120D02*
X0302893Y0383120D01*
X0302893Y0382334D02*
X0455649Y0382334D01*
X0455649Y0381548D02*
X0446476Y0381548D01*
X0447261Y0380762D02*
X0455649Y0380762D01*
X0455649Y0379976D02*
X0448047Y0379976D01*
X0448208Y0379190D02*
X0455649Y0379190D01*
X0455649Y0378404D02*
X0448208Y0378404D01*
X0448208Y0377619D02*
X0455649Y0377619D01*
X0455649Y0376833D02*
X0448208Y0376833D01*
X0447700Y0376047D02*
X0455649Y0376047D01*
X0455649Y0375261D02*
X0446914Y0375261D01*
X0446128Y0374475D02*
X0455649Y0374475D01*
X0455649Y0373689D02*
X0419625Y0373689D01*
X0419625Y0374475D02*
X0442413Y0374475D01*
X0441627Y0375261D02*
X0419625Y0375261D01*
X0419625Y0376047D02*
X0440841Y0376047D01*
X0440334Y0376833D02*
X0419625Y0376833D01*
X0419621Y0377619D02*
X0440334Y0377619D01*
X0440334Y0378404D02*
X0418835Y0378404D01*
X0418247Y0376833D02*
X0408663Y0376833D01*
X0408208Y0376047D02*
X0418247Y0376047D01*
X0418247Y0375261D02*
X0408208Y0375261D01*
X0408208Y0374475D02*
X0418247Y0374475D01*
X0418247Y0373689D02*
X0408208Y0373689D01*
X0408008Y0372903D02*
X0418247Y0372903D01*
X0418247Y0372117D02*
X0407491Y0372117D01*
X0403806Y0372117D02*
X0328877Y0372117D01*
X0328877Y0371331D02*
X0418247Y0371331D01*
X0419625Y0371331D02*
X0441270Y0371331D01*
X0440484Y0370545D02*
X0419625Y0370545D01*
X0419625Y0369759D02*
X0439924Y0369759D01*
X0439924Y0369985D02*
X0439924Y0368579D01*
X0443877Y0368579D01*
X0443877Y0372531D01*
X0442471Y0372531D01*
X0439924Y0369985D01*
X0439924Y0368973D02*
X0419625Y0368973D01*
X0419625Y0368188D02*
X0443877Y0368188D01*
X0443877Y0368579D02*
X0443877Y0367791D01*
X0444665Y0367791D01*
X0444665Y0368579D01*
X0448617Y0368579D01*
X0448617Y0369985D01*
X0446071Y0372531D01*
X0444665Y0372531D01*
X0444665Y0368579D01*
X0443877Y0368579D01*
X0443877Y0368973D02*
X0444665Y0368973D01*
X0444665Y0368188D02*
X0455649Y0368188D01*
X0455649Y0368973D02*
X0448617Y0368973D01*
X0448617Y0369759D02*
X0455649Y0369759D01*
X0455649Y0370545D02*
X0448057Y0370545D01*
X0447271Y0371331D02*
X0455649Y0371331D01*
X0455649Y0372117D02*
X0446486Y0372117D01*
X0444665Y0372117D02*
X0443877Y0372117D01*
X0443877Y0371331D02*
X0444665Y0371331D01*
X0444665Y0370545D02*
X0443877Y0370545D01*
X0443877Y0369759D02*
X0444665Y0369759D01*
X0444665Y0367791D02*
X0448617Y0367791D01*
X0448617Y0366385D01*
X0446071Y0363839D01*
X0444665Y0363839D01*
X0444665Y0367791D01*
X0444665Y0367402D02*
X0443877Y0367402D01*
X0443877Y0367791D02*
X0443877Y0363839D01*
X0442471Y0363839D01*
X0439924Y0366385D01*
X0439924Y0367791D01*
X0443877Y0367791D01*
X0443877Y0366616D02*
X0444665Y0366616D01*
X0444665Y0365830D02*
X0443877Y0365830D01*
X0443877Y0365044D02*
X0444665Y0365044D01*
X0444665Y0364258D02*
X0443877Y0364258D01*
X0442051Y0364258D02*
X0418828Y0364258D01*
X0419614Y0365044D02*
X0441265Y0365044D01*
X0440479Y0365830D02*
X0419625Y0365830D01*
X0419625Y0366616D02*
X0439924Y0366616D01*
X0439924Y0367402D02*
X0419625Y0367402D01*
X0418042Y0363472D02*
X0455649Y0363472D01*
X0455649Y0362686D02*
X0417256Y0362686D01*
X0416470Y0361900D02*
X0442418Y0361900D01*
X0441632Y0361114D02*
X0415684Y0361114D01*
X0414898Y0360328D02*
X0440847Y0360328D01*
X0440334Y0359543D02*
X0414112Y0359543D01*
X0413327Y0358757D02*
X0440334Y0358757D01*
X0440334Y0357971D02*
X0412541Y0357971D01*
X0411755Y0357185D02*
X0440334Y0357185D01*
X0441960Y0354041D02*
X0455649Y0354041D01*
X0455649Y0353255D02*
X0441174Y0353255D01*
X0440389Y0352469D02*
X0455649Y0352469D01*
X0455649Y0351683D02*
X0446340Y0351683D01*
X0447126Y0350897D02*
X0455649Y0350897D01*
X0455649Y0350112D02*
X0447912Y0350112D01*
X0448208Y0349326D02*
X0455649Y0349326D01*
X0455649Y0348540D02*
X0448208Y0348540D01*
X0448208Y0347754D02*
X0455649Y0347754D01*
X0455649Y0346968D02*
X0448208Y0346968D01*
X0447836Y0346182D02*
X0455649Y0346182D01*
X0455649Y0345396D02*
X0447050Y0345396D01*
X0446264Y0344610D02*
X0455649Y0344610D01*
X0455649Y0343824D02*
X0441980Y0343824D01*
X0441194Y0343038D02*
X0455649Y0343038D01*
X0455649Y0342252D02*
X0440408Y0342252D01*
X0439622Y0341467D02*
X0441985Y0341467D01*
X0441199Y0340681D02*
X0438836Y0340681D01*
X0438050Y0339895D02*
X0440413Y0339895D01*
X0440334Y0339109D02*
X0437264Y0339109D01*
X0436478Y0338323D02*
X0440334Y0338323D01*
X0440334Y0337537D02*
X0435692Y0337537D01*
X0434906Y0336751D02*
X0440295Y0336751D01*
X0439509Y0335965D02*
X0434121Y0335965D01*
X0433335Y0335179D02*
X0438723Y0335179D01*
X0437937Y0334393D02*
X0432549Y0334393D01*
X0431763Y0333607D02*
X0437151Y0333607D01*
X0436365Y0332821D02*
X0430977Y0332821D01*
X0430191Y0332036D02*
X0435579Y0332036D01*
X0434793Y0331250D02*
X0429405Y0331250D01*
X0428619Y0330464D02*
X0434008Y0330464D01*
X0433222Y0329678D02*
X0427833Y0329678D01*
X0427047Y0328892D02*
X0432436Y0328892D01*
X0431650Y0328106D02*
X0426261Y0328106D01*
X0425476Y0327320D02*
X0430864Y0327320D01*
X0430078Y0326534D02*
X0424690Y0326534D01*
X0423904Y0325748D02*
X0429292Y0325748D01*
X0428506Y0324962D02*
X0423118Y0324962D01*
X0422332Y0324176D02*
X0427720Y0324176D01*
X0426934Y0323391D02*
X0421546Y0323391D01*
X0420760Y0322605D02*
X0426148Y0322605D01*
X0425362Y0321819D02*
X0419974Y0321819D01*
X0419188Y0321033D02*
X0424577Y0321033D01*
X0423791Y0320247D02*
X0418402Y0320247D01*
X0417616Y0319461D02*
X0423005Y0319461D01*
X0422219Y0318675D02*
X0416830Y0318675D01*
X0416045Y0317889D02*
X0421433Y0317889D01*
X0420647Y0317103D02*
X0415259Y0317103D01*
X0413162Y0319461D02*
X0407380Y0319461D01*
X0408166Y0320247D02*
X0413948Y0320247D01*
X0414734Y0321033D02*
X0408952Y0321033D01*
X0409738Y0321819D02*
X0415520Y0321819D01*
X0416306Y0322605D02*
X0410524Y0322605D01*
X0411310Y0323391D02*
X0417092Y0323391D01*
X0417878Y0324176D02*
X0412096Y0324176D01*
X0412882Y0324962D02*
X0418664Y0324962D01*
X0419450Y0325748D02*
X0413667Y0325748D01*
X0414453Y0326534D02*
X0420235Y0326534D01*
X0421021Y0327320D02*
X0415239Y0327320D01*
X0416025Y0328106D02*
X0421807Y0328106D01*
X0422593Y0328892D02*
X0416811Y0328892D01*
X0417597Y0329678D02*
X0423379Y0329678D01*
X0424165Y0330464D02*
X0418383Y0330464D01*
X0419169Y0331250D02*
X0424951Y0331250D01*
X0425737Y0332036D02*
X0419955Y0332036D01*
X0420741Y0332821D02*
X0426523Y0332821D01*
X0427309Y0333607D02*
X0421527Y0333607D01*
X0422313Y0334393D02*
X0428095Y0334393D01*
X0428880Y0335179D02*
X0423098Y0335179D01*
X0423884Y0335965D02*
X0429666Y0335965D01*
X0430452Y0336751D02*
X0424670Y0336751D01*
X0425456Y0337537D02*
X0431238Y0337537D01*
X0432024Y0338323D02*
X0426242Y0338323D01*
X0427028Y0339109D02*
X0432810Y0339109D01*
X0433596Y0339895D02*
X0427814Y0339895D01*
X0428600Y0340681D02*
X0434382Y0340681D01*
X0435168Y0341467D02*
X0429386Y0341467D01*
X0430172Y0342252D02*
X0435954Y0342252D01*
X0436740Y0343038D02*
X0430958Y0343038D01*
X0431743Y0343824D02*
X0437526Y0343824D01*
X0438311Y0344610D02*
X0432529Y0344610D01*
X0433315Y0345396D02*
X0439097Y0345396D01*
X0439883Y0346182D02*
X0434101Y0346182D01*
X0434887Y0346968D02*
X0440334Y0346968D01*
X0440334Y0347754D02*
X0435673Y0347754D01*
X0436459Y0348540D02*
X0440334Y0348540D01*
X0440334Y0349326D02*
X0437245Y0349326D01*
X0438031Y0350112D02*
X0440630Y0350112D01*
X0441416Y0350897D02*
X0438817Y0350897D01*
X0439603Y0351683D02*
X0442201Y0351683D01*
X0446481Y0354827D02*
X0455649Y0354827D01*
X0455649Y0355613D02*
X0447267Y0355613D01*
X0448052Y0356399D02*
X0455649Y0356399D01*
X0455649Y0357185D02*
X0448208Y0357185D01*
X0448208Y0357971D02*
X0455649Y0357971D01*
X0455649Y0358757D02*
X0448208Y0358757D01*
X0448208Y0359543D02*
X0455649Y0359543D01*
X0455649Y0360328D02*
X0447695Y0360328D01*
X0446909Y0361114D02*
X0455649Y0361114D01*
X0455649Y0361900D02*
X0446123Y0361900D01*
X0446491Y0364258D02*
X0455649Y0364258D01*
X0455649Y0365044D02*
X0447277Y0365044D01*
X0448062Y0365830D02*
X0455649Y0365830D01*
X0455649Y0366616D02*
X0448617Y0366616D01*
X0448617Y0367402D02*
X0455649Y0367402D01*
X0455649Y0372903D02*
X0419625Y0372903D01*
X0419625Y0372117D02*
X0442056Y0372117D01*
X0446557Y0341467D02*
X0455649Y0341467D01*
X0455649Y0340681D02*
X0447343Y0340681D01*
X0448129Y0339895D02*
X0455649Y0339895D01*
X0455649Y0339109D02*
X0448208Y0339109D01*
X0448208Y0338323D02*
X0455649Y0338323D01*
X0455649Y0337537D02*
X0448208Y0337537D01*
X0448208Y0336751D02*
X0455649Y0336751D01*
X0455649Y0335965D02*
X0447619Y0335965D01*
X0446833Y0335179D02*
X0455649Y0335179D01*
X0455649Y0334393D02*
X0446047Y0334393D01*
X0445988Y0332036D02*
X0455649Y0332036D01*
X0455649Y0332821D02*
X0440819Y0332821D01*
X0440034Y0332036D02*
X0442554Y0332036D01*
X0441768Y0331250D02*
X0439248Y0331250D01*
X0438462Y0330464D02*
X0440982Y0330464D01*
X0440334Y0329678D02*
X0437676Y0329678D01*
X0436890Y0328892D02*
X0440334Y0328892D01*
X0440334Y0328106D02*
X0436104Y0328106D01*
X0435318Y0327320D02*
X0440334Y0327320D01*
X0440334Y0326554D02*
X0440334Y0326554D01*
X0440314Y0326534D02*
X0434532Y0326534D01*
X0433746Y0325748D02*
X0439528Y0325748D01*
X0438742Y0324962D02*
X0432960Y0324962D01*
X0432174Y0324176D02*
X0437956Y0324176D01*
X0437171Y0323391D02*
X0431388Y0323391D01*
X0430603Y0322605D02*
X0436385Y0322605D01*
X0435599Y0321819D02*
X0429817Y0321819D01*
X0429031Y0321033D02*
X0434813Y0321033D01*
X0434027Y0320247D02*
X0428245Y0320247D01*
X0427459Y0319461D02*
X0433241Y0319461D01*
X0432455Y0318675D02*
X0426673Y0318675D01*
X0425887Y0317889D02*
X0431669Y0317889D01*
X0430883Y0317103D02*
X0425101Y0317103D01*
X0424315Y0316317D02*
X0430097Y0316317D01*
X0429311Y0315531D02*
X0423529Y0315531D01*
X0422743Y0314745D02*
X0428525Y0314745D01*
X0430622Y0312388D02*
X0436010Y0312388D01*
X0436796Y0313174D02*
X0431408Y0313174D01*
X0432194Y0313960D02*
X0437582Y0313960D01*
X0438368Y0314745D02*
X0432980Y0314745D01*
X0433766Y0315531D02*
X0439154Y0315531D01*
X0439940Y0316317D02*
X0434552Y0316317D01*
X0435337Y0317103D02*
X0440334Y0317103D01*
X0440334Y0317889D02*
X0436123Y0317889D01*
X0436909Y0318675D02*
X0440334Y0318675D01*
X0440334Y0319461D02*
X0437695Y0319461D01*
X0438481Y0320247D02*
X0440765Y0320247D01*
X0441551Y0321033D02*
X0439267Y0321033D01*
X0440053Y0321819D02*
X0442337Y0321819D01*
X0440839Y0322605D02*
X0455649Y0322605D01*
X0455649Y0323391D02*
X0441625Y0323391D01*
X0442411Y0324176D02*
X0455649Y0324176D01*
X0455649Y0324962D02*
X0446616Y0324962D01*
X0447402Y0325748D02*
X0455649Y0325748D01*
X0455649Y0326534D02*
X0448188Y0326534D01*
X0448208Y0327320D02*
X0455649Y0327320D01*
X0455649Y0328106D02*
X0448208Y0328106D01*
X0448208Y0328892D02*
X0455649Y0328892D01*
X0455649Y0329678D02*
X0448208Y0329678D01*
X0447560Y0330464D02*
X0455649Y0330464D01*
X0455649Y0331250D02*
X0446774Y0331250D01*
X0442495Y0334393D02*
X0442391Y0334393D01*
X0441605Y0333607D02*
X0455649Y0333607D01*
X0455649Y0321819D02*
X0446205Y0321819D01*
X0446991Y0321033D02*
X0455649Y0321033D01*
X0455649Y0320247D02*
X0447777Y0320247D01*
X0448208Y0319461D02*
X0455649Y0319461D01*
X0455649Y0318675D02*
X0448208Y0318675D01*
X0448208Y0317889D02*
X0455649Y0317889D01*
X0455649Y0317103D02*
X0448208Y0317103D01*
X0447971Y0316317D02*
X0455649Y0316317D01*
X0455649Y0315531D02*
X0447185Y0315531D01*
X0446399Y0314745D02*
X0455649Y0314745D01*
X0455649Y0313960D02*
X0442036Y0313960D01*
X0441250Y0313174D02*
X0455649Y0313174D01*
X0455649Y0312388D02*
X0440464Y0312388D01*
X0439679Y0311602D02*
X0442120Y0311602D01*
X0441334Y0310816D02*
X0438893Y0310816D01*
X0438107Y0310030D02*
X0440548Y0310030D01*
X0440788Y0306100D02*
X0317754Y0306100D01*
X0316968Y0305315D02*
X0441574Y0305315D01*
X0442360Y0304529D02*
X0316182Y0304529D01*
X0318425Y0302171D02*
X0440117Y0302171D01*
X0437698Y0301385D02*
X0320844Y0301385D01*
X0322503Y0300599D02*
X0436039Y0300599D01*
X0436653Y0301045D02*
X0436653Y0301045D01*
X0434957Y0299813D02*
X0323585Y0299813D01*
X0324666Y0299027D02*
X0433875Y0299027D01*
X0433525Y0298773D02*
X0433525Y0298773D01*
X0433525Y0298773D01*
X0433139Y0298241D02*
X0325403Y0298241D01*
X0325016Y0298773D02*
X0325016Y0298773D01*
X0325016Y0298773D01*
X0325974Y0297455D02*
X0432568Y0297455D01*
X0431997Y0296669D02*
X0326545Y0296669D01*
X0327116Y0295884D02*
X0431426Y0295884D01*
X0431253Y0295645D02*
X0431253Y0295645D01*
X0431075Y0295098D02*
X0400742Y0295098D01*
X0399656Y0295547D02*
X0402406Y0294408D01*
X0404510Y0292304D01*
X0405649Y0289555D01*
X0405649Y0286579D01*
X0404510Y0283830D01*
X0402406Y0281725D01*
X0399656Y0280587D01*
X0359279Y0280587D01*
X0356530Y0281725D01*
X0354425Y0283830D01*
X0353287Y0286579D01*
X0353287Y0289555D01*
X0354425Y0292304D01*
X0356530Y0294408D01*
X0359279Y0295547D01*
X0399656Y0295547D01*
X0402502Y0294312D02*
X0430820Y0294312D01*
X0430564Y0293526D02*
X0403288Y0293526D01*
X0404074Y0292740D02*
X0430309Y0292740D01*
X0430058Y0291954D02*
X0404655Y0291954D01*
X0404981Y0291168D02*
X0430058Y0291168D01*
X0430058Y0290382D02*
X0405306Y0290382D01*
X0405632Y0289596D02*
X0430058Y0289596D01*
X0430058Y0288810D02*
X0405649Y0288810D01*
X0405649Y0288024D02*
X0430058Y0288024D01*
X0430058Y0287239D02*
X0405649Y0287239D01*
X0405596Y0286453D02*
X0430058Y0286453D01*
X0430058Y0285667D02*
X0405271Y0285667D01*
X0404945Y0284881D02*
X0430058Y0284881D01*
X0430058Y0284095D02*
X0404620Y0284095D01*
X0403989Y0283309D02*
X0430058Y0283309D01*
X0430058Y0282523D02*
X0403203Y0282523D01*
X0402417Y0281737D02*
X0430058Y0281737D01*
X0430058Y0280951D02*
X0400537Y0280951D01*
X0430058Y0280165D02*
X0328483Y0280165D01*
X0328483Y0279379D02*
X0430058Y0279379D01*
X0430058Y0278593D02*
X0328483Y0278593D01*
X0328483Y0277808D02*
X0430058Y0277808D01*
X0430058Y0277022D02*
X0328483Y0277022D01*
X0328483Y0280951D02*
X0358399Y0280951D01*
X0356518Y0281737D02*
X0328483Y0281737D01*
X0328483Y0282523D02*
X0355732Y0282523D01*
X0354946Y0283309D02*
X0328483Y0283309D01*
X0328483Y0284095D02*
X0354316Y0284095D01*
X0353990Y0284881D02*
X0328483Y0284881D01*
X0328483Y0285667D02*
X0353664Y0285667D01*
X0353339Y0286453D02*
X0328483Y0286453D01*
X0328483Y0287239D02*
X0353287Y0287239D01*
X0353287Y0288024D02*
X0328483Y0288024D01*
X0328483Y0288810D02*
X0353287Y0288810D01*
X0353304Y0289596D02*
X0328483Y0289596D01*
X0328483Y0290382D02*
X0353629Y0290382D01*
X0353955Y0291168D02*
X0328483Y0291168D01*
X0328483Y0291954D02*
X0354280Y0291954D01*
X0354861Y0292740D02*
X0328233Y0292740D01*
X0327977Y0293526D02*
X0355647Y0293526D01*
X0356433Y0294312D02*
X0327722Y0294312D01*
X0327467Y0295098D02*
X0358194Y0295098D01*
X0339478Y0321819D02*
X0405284Y0321819D01*
X0406070Y0322605D02*
X0338693Y0322605D01*
X0312337Y0321819D02*
X0302893Y0321819D01*
X0302893Y0321033D02*
X0311551Y0321033D01*
X0310765Y0320247D02*
X0302893Y0320247D01*
X0302893Y0319461D02*
X0310334Y0319461D01*
X0310334Y0318675D02*
X0302893Y0318675D01*
X0302893Y0317889D02*
X0310334Y0317889D01*
X0310334Y0317103D02*
X0302893Y0317103D01*
X0302893Y0316317D02*
X0310571Y0316317D01*
X0311357Y0315531D02*
X0302893Y0315531D01*
X0302893Y0314745D02*
X0312143Y0314745D01*
X0361280Y0339109D02*
X0364931Y0339109D01*
X0365716Y0338323D02*
X0362066Y0338323D01*
X0362852Y0337537D02*
X0366230Y0337537D01*
X0367066Y0340035D02*
X0367066Y0345154D01*
X0371585Y0328106D02*
X0411571Y0328106D01*
X0385964Y0349484D02*
X0385964Y0367988D01*
X0403289Y0372903D02*
X0328877Y0372903D01*
X0328877Y0373689D02*
X0403090Y0373689D01*
X0403090Y0374475D02*
X0328877Y0374475D01*
X0328877Y0375261D02*
X0403090Y0375261D01*
X0403090Y0376047D02*
X0328877Y0376047D01*
X0328877Y0376833D02*
X0402634Y0376833D01*
X0446422Y0311602D02*
X0455649Y0311602D01*
X0455649Y0310816D02*
X0447208Y0310816D01*
X0447994Y0310030D02*
X0455649Y0310030D01*
X0455649Y0309244D02*
X0448208Y0309244D01*
X0448208Y0308458D02*
X0455649Y0308458D01*
X0455649Y0307672D02*
X0448208Y0307672D01*
X0448208Y0306886D02*
X0455649Y0306886D01*
X0455649Y0306100D02*
X0447754Y0306100D01*
X0446968Y0305315D02*
X0455649Y0305315D01*
X0455649Y0304529D02*
X0446182Y0304529D01*
X0430058Y0232555D02*
X0430058Y0217236D01*
X0431253Y0213559D01*
X0433525Y0210432D01*
X0433525Y0210432D01*
X0433525Y0210432D01*
X0436653Y0208159D01*
X0440330Y0206965D01*
X0455649Y0206965D01*
X0455649Y0125075D01*
X0440330Y0125075D01*
X0440330Y0125075D01*
X0436653Y0123880D01*
X0433525Y0121608D01*
X0431253Y0118480D01*
X0430058Y0114803D01*
X0430058Y0099484D01*
X0328483Y0099484D01*
X0328483Y0114803D01*
X0327289Y0118480D01*
X0325016Y0121608D01*
X0321889Y0123880D01*
X0318212Y0125075D01*
X0302893Y0125075D01*
X0302893Y0206965D01*
X0318212Y0206965D01*
X0321889Y0208159D01*
X0325016Y0210432D01*
X0327289Y0213559D01*
X0327289Y0213559D01*
X0328483Y0217236D01*
X0328483Y0219332D01*
X0328483Y0232555D01*
X0430058Y0232555D01*
X0430058Y0232225D02*
X0328483Y0232225D01*
X0328483Y0231439D02*
X0430058Y0231439D01*
X0430058Y0230653D02*
X0328483Y0230653D01*
X0328483Y0229867D02*
X0430058Y0229867D01*
X0430058Y0229081D02*
X0328483Y0229081D01*
X0328483Y0228295D02*
X0430058Y0228295D01*
X0430058Y0227509D02*
X0328483Y0227509D01*
X0328483Y0226723D02*
X0430058Y0226723D01*
X0430058Y0225937D02*
X0328483Y0225937D01*
X0328483Y0225151D02*
X0430058Y0225151D01*
X0430058Y0224366D02*
X0328483Y0224366D01*
X0328483Y0223580D02*
X0430058Y0223580D01*
X0430058Y0222794D02*
X0328483Y0222794D01*
X0328483Y0222008D02*
X0430058Y0222008D01*
X0430058Y0221222D02*
X0328483Y0221222D01*
X0328483Y0220436D02*
X0430058Y0220436D01*
X0430058Y0219650D02*
X0328483Y0219650D01*
X0328483Y0218864D02*
X0430058Y0218864D01*
X0430058Y0218078D02*
X0328483Y0218078D01*
X0328483Y0217292D02*
X0430058Y0217292D01*
X0430295Y0216506D02*
X0328246Y0216506D01*
X0327991Y0215720D02*
X0430551Y0215720D01*
X0430806Y0214935D02*
X0327736Y0214935D01*
X0327480Y0214149D02*
X0431061Y0214149D01*
X0431253Y0213559D02*
X0431253Y0213559D01*
X0431396Y0213363D02*
X0327146Y0213363D01*
X0326575Y0212577D02*
X0431967Y0212577D01*
X0432538Y0211791D02*
X0326004Y0211791D01*
X0325433Y0211005D02*
X0433109Y0211005D01*
X0433818Y0210219D02*
X0324724Y0210219D01*
X0325016Y0210432D02*
X0325016Y0210432D01*
X0325016Y0210432D01*
X0323642Y0209433D02*
X0434900Y0209433D01*
X0435981Y0208647D02*
X0322560Y0208647D01*
X0321889Y0208159D02*
X0321889Y0208159D01*
X0320972Y0207861D02*
X0437570Y0207861D01*
X0436653Y0208159D02*
X0436653Y0208159D01*
X0439989Y0207075D02*
X0318553Y0207075D01*
X0316141Y0204718D02*
X0442401Y0204718D01*
X0442640Y0204957D02*
X0440334Y0202650D01*
X0440334Y0199389D01*
X0442640Y0197083D01*
X0445902Y0197083D01*
X0448208Y0199389D01*
X0448208Y0202650D01*
X0445902Y0204957D01*
X0442640Y0204957D01*
X0441615Y0203932D02*
X0316927Y0203932D01*
X0317712Y0203146D02*
X0440829Y0203146D01*
X0440334Y0202360D02*
X0318208Y0202360D01*
X0318208Y0202650D02*
X0315902Y0204957D01*
X0312640Y0204957D01*
X0310334Y0202650D01*
X0310334Y0199389D01*
X0312640Y0197083D01*
X0315902Y0197083D01*
X0318208Y0199389D01*
X0318208Y0202650D01*
X0318208Y0201574D02*
X0440334Y0201574D01*
X0440334Y0200788D02*
X0419286Y0200788D01*
X0419625Y0200449D02*
X0418818Y0201256D01*
X0328306Y0201256D01*
X0327499Y0200449D01*
X0327499Y0172929D01*
X0328306Y0172122D01*
X0365776Y0172122D01*
X0365688Y0172035D01*
X0365688Y0170241D01*
X0365972Y0169957D01*
X0364901Y0168885D01*
X0364901Y0167091D01*
X0365688Y0166304D01*
X0365688Y0164554D01*
X0364901Y0163767D01*
X0364901Y0161973D01*
X0366169Y0160705D01*
X0366563Y0160705D01*
X0366169Y0160311D01*
X0362912Y0160311D01*
X0361751Y0161472D01*
X0360944Y0162280D01*
X0342766Y0162280D01*
X0341979Y0163067D01*
X0340185Y0163067D01*
X0338917Y0161798D01*
X0338917Y0160005D01*
X0340185Y0158736D01*
X0341979Y0158736D01*
X0342766Y0159524D01*
X0359802Y0159524D01*
X0360964Y0158362D01*
X0361377Y0157949D01*
X0358514Y0157949D01*
X0357727Y0158736D01*
X0355933Y0158736D01*
X0354665Y0157468D01*
X0354665Y0155674D01*
X0355933Y0154406D01*
X0357727Y0154406D01*
X0358514Y0155193D01*
X0365708Y0155193D01*
X0368050Y0152850D01*
X0368050Y0151737D01*
X0369319Y0150469D01*
X0371113Y0150469D01*
X0371900Y0151256D01*
X0386535Y0151256D01*
X0388109Y0152831D01*
X0388917Y0153638D01*
X0388917Y0162693D01*
X0403464Y0177240D01*
X0406327Y0177240D01*
X0407114Y0176453D01*
X0408908Y0176453D01*
X0410176Y0177721D01*
X0410176Y0179515D01*
X0409695Y0179996D01*
X0411731Y0179996D01*
X0412539Y0180803D01*
X0419625Y0187890D01*
X0419625Y0200449D01*
X0419625Y0200002D02*
X0440334Y0200002D01*
X0440506Y0199216D02*
X0419625Y0199216D01*
X0419625Y0198430D02*
X0441292Y0198430D01*
X0442078Y0197644D02*
X0419625Y0197644D01*
X0419625Y0196859D02*
X0455649Y0196859D01*
X0455649Y0197644D02*
X0446463Y0197644D01*
X0447249Y0198430D02*
X0455649Y0198430D01*
X0455649Y0199216D02*
X0448035Y0199216D01*
X0448208Y0200002D02*
X0455649Y0200002D01*
X0455649Y0200788D02*
X0448208Y0200788D01*
X0448208Y0201574D02*
X0455649Y0201574D01*
X0455649Y0202360D02*
X0448208Y0202360D01*
X0447712Y0203146D02*
X0455649Y0203146D01*
X0455649Y0203932D02*
X0446927Y0203932D01*
X0446141Y0204718D02*
X0455649Y0204718D01*
X0455649Y0205504D02*
X0302893Y0205504D01*
X0302893Y0206290D02*
X0455649Y0206290D01*
X0455649Y0196073D02*
X0419625Y0196073D01*
X0419625Y0195287D02*
X0442391Y0195287D01*
X0442471Y0195366D02*
X0439924Y0192820D01*
X0439924Y0191413D01*
X0443877Y0191413D01*
X0443877Y0190626D01*
X0439924Y0190626D01*
X0439924Y0189219D01*
X0442471Y0186673D01*
X0443877Y0186673D01*
X0443877Y0190626D01*
X0444665Y0190626D01*
X0444665Y0191413D01*
X0448617Y0191413D01*
X0448617Y0192820D01*
X0446071Y0195366D01*
X0444665Y0195366D01*
X0444665Y0191413D01*
X0443877Y0191413D01*
X0443877Y0195366D01*
X0442471Y0195366D01*
X0441605Y0194501D02*
X0419625Y0194501D01*
X0419625Y0193715D02*
X0440819Y0193715D01*
X0440033Y0192929D02*
X0419625Y0192929D01*
X0419625Y0192143D02*
X0439924Y0192143D01*
X0439924Y0190571D02*
X0419625Y0190571D01*
X0419625Y0189785D02*
X0439924Y0189785D01*
X0440144Y0188999D02*
X0419625Y0188999D01*
X0419625Y0188214D02*
X0440930Y0188214D01*
X0441716Y0187428D02*
X0419163Y0187428D01*
X0418377Y0186642D02*
X0455649Y0186642D01*
X0455649Y0187428D02*
X0446826Y0187428D01*
X0446071Y0186673D02*
X0448617Y0189219D01*
X0448617Y0190626D01*
X0444665Y0190626D01*
X0444665Y0186673D01*
X0446071Y0186673D01*
X0444665Y0187428D02*
X0443877Y0187428D01*
X0443877Y0188214D02*
X0444665Y0188214D01*
X0444665Y0188999D02*
X0443877Y0188999D01*
X0443877Y0189785D02*
X0444665Y0189785D01*
X0444665Y0190571D02*
X0443877Y0190571D01*
X0443877Y0191357D02*
X0419625Y0191357D01*
X0418247Y0191357D02*
X0388129Y0191357D01*
X0388129Y0191720D02*
X0386861Y0192988D01*
X0385067Y0192988D01*
X0383798Y0191720D01*
X0383798Y0189926D01*
X0384586Y0189139D01*
X0384586Y0181877D01*
X0384105Y0182358D01*
X0382991Y0182358D01*
X0381810Y0183539D01*
X0369538Y0183539D01*
X0368750Y0184327D01*
X0366957Y0184327D01*
X0365688Y0183058D01*
X0365688Y0181264D01*
X0366957Y0179996D01*
X0368750Y0179996D01*
X0369538Y0180783D01*
X0380669Y0180783D01*
X0381043Y0180410D01*
X0381043Y0179296D01*
X0382311Y0178028D01*
X0384105Y0178028D01*
X0384586Y0178509D01*
X0384586Y0172890D01*
X0384212Y0172516D01*
X0370019Y0172516D01*
X0369035Y0173500D01*
X0368323Y0173500D01*
X0368448Y0173625D01*
X0368838Y0174566D01*
X0368838Y0175584D01*
X0368448Y0176524D01*
X0367728Y0177244D01*
X0366788Y0177634D01*
X0365770Y0177634D01*
X0364829Y0177244D01*
X0362861Y0175276D01*
X0362861Y0175276D01*
X0361085Y0173500D01*
X0353593Y0173500D01*
X0353002Y0174091D01*
X0351209Y0174091D01*
X0350694Y0173576D01*
X0349153Y0175117D01*
X0349153Y0181961D01*
X0348703Y0183047D01*
X0347873Y0183877D01*
X0346787Y0184327D01*
X0345613Y0184327D01*
X0344527Y0183877D01*
X0343697Y0183047D01*
X0343247Y0181961D01*
X0343247Y0175117D01*
X0341630Y0173500D01*
X0328877Y0173500D01*
X0328877Y0199878D01*
X0402423Y0199878D01*
X0403090Y0199212D01*
X0403090Y0196219D01*
X0403479Y0195279D01*
X0404199Y0194559D01*
X0405140Y0194169D01*
X0406158Y0194169D01*
X0407098Y0194559D01*
X0407818Y0195279D01*
X0408208Y0196219D01*
X0408208Y0199212D01*
X0408874Y0199878D01*
X0418247Y0199878D01*
X0418247Y0188461D01*
X0411161Y0181374D01*
X0403680Y0181374D01*
X0386357Y0164051D01*
X0386357Y0164031D01*
X0386161Y0163835D01*
X0386161Y0154779D01*
X0385984Y0154602D01*
X0377696Y0154602D01*
X0377696Y0159524D01*
X0377806Y0159524D01*
X0379074Y0160792D01*
X0379074Y0162586D01*
X0377806Y0163854D01*
X0377696Y0163854D01*
X0377696Y0164839D01*
X0372775Y0169760D01*
X0385353Y0169760D01*
X0387342Y0171748D01*
X0387342Y0189139D01*
X0388129Y0189926D01*
X0388129Y0191720D01*
X0387706Y0192143D02*
X0418247Y0192143D01*
X0418247Y0192929D02*
X0386920Y0192929D01*
X0385008Y0192929D02*
X0328877Y0192929D01*
X0328877Y0193715D02*
X0418247Y0193715D01*
X0418247Y0194501D02*
X0406958Y0194501D01*
X0407822Y0195287D02*
X0418247Y0195287D01*
X0418247Y0196073D02*
X0408147Y0196073D01*
X0408208Y0196859D02*
X0418247Y0196859D01*
X0418247Y0197644D02*
X0408208Y0197644D01*
X0408208Y0198430D02*
X0418247Y0198430D01*
X0418247Y0199216D02*
X0408212Y0199216D01*
X0403085Y0199216D02*
X0328877Y0199216D01*
X0328877Y0198430D02*
X0403090Y0198430D01*
X0403090Y0197644D02*
X0328877Y0197644D01*
X0328877Y0196859D02*
X0403090Y0196859D01*
X0403151Y0196073D02*
X0328877Y0196073D01*
X0328877Y0195287D02*
X0403476Y0195287D01*
X0404339Y0194501D02*
X0328877Y0194501D01*
X0327499Y0194501D02*
X0316937Y0194501D01*
X0317722Y0193715D02*
X0327499Y0193715D01*
X0327499Y0192929D02*
X0318508Y0192929D01*
X0318617Y0192820D02*
X0316071Y0195366D01*
X0314665Y0195366D01*
X0314665Y0191413D01*
X0318617Y0191413D01*
X0318617Y0192820D01*
X0318617Y0192143D02*
X0327499Y0192143D01*
X0327499Y0191357D02*
X0314665Y0191357D01*
X0314665Y0191413D02*
X0314665Y0190626D01*
X0318617Y0190626D01*
X0318617Y0189219D01*
X0316071Y0186673D01*
X0314665Y0186673D01*
X0314665Y0190626D01*
X0313877Y0190626D01*
X0309924Y0190626D01*
X0309924Y0189219D01*
X0312471Y0186673D01*
X0313877Y0186673D01*
X0313877Y0190626D01*
X0313877Y0191413D01*
X0309924Y0191413D01*
X0309924Y0192820D01*
X0312471Y0195366D01*
X0313877Y0195366D01*
X0313877Y0191413D01*
X0314665Y0191413D01*
X0314665Y0192143D02*
X0313877Y0192143D01*
X0313877Y0191357D02*
X0302893Y0191357D01*
X0302893Y0190571D02*
X0309924Y0190571D01*
X0309924Y0189785D02*
X0302893Y0189785D01*
X0302893Y0188999D02*
X0310144Y0188999D01*
X0310930Y0188214D02*
X0302893Y0188214D01*
X0302893Y0187428D02*
X0311716Y0187428D01*
X0313877Y0187428D02*
X0314665Y0187428D01*
X0314665Y0188214D02*
X0313877Y0188214D01*
X0313877Y0188999D02*
X0314665Y0188999D01*
X0314665Y0189785D02*
X0313877Y0189785D01*
X0313877Y0190571D02*
X0314665Y0190571D01*
X0314665Y0192929D02*
X0313877Y0192929D01*
X0313877Y0193715D02*
X0314665Y0193715D01*
X0314665Y0194501D02*
X0313877Y0194501D01*
X0313877Y0195287D02*
X0314665Y0195287D01*
X0316151Y0195287D02*
X0327499Y0195287D01*
X0327499Y0196073D02*
X0302893Y0196073D01*
X0302893Y0196859D02*
X0327499Y0196859D01*
X0327499Y0197644D02*
X0316463Y0197644D01*
X0317249Y0198430D02*
X0327499Y0198430D01*
X0327499Y0199216D02*
X0318035Y0199216D01*
X0318208Y0200002D02*
X0327499Y0200002D01*
X0327839Y0200788D02*
X0318208Y0200788D01*
X0312078Y0197644D02*
X0302893Y0197644D01*
X0302893Y0198430D02*
X0311292Y0198430D01*
X0310506Y0199216D02*
X0302893Y0199216D01*
X0302893Y0200002D02*
X0310334Y0200002D01*
X0310334Y0200788D02*
X0302893Y0200788D01*
X0302893Y0201574D02*
X0310334Y0201574D01*
X0310334Y0202360D02*
X0302893Y0202360D01*
X0302893Y0203146D02*
X0310829Y0203146D01*
X0311615Y0203932D02*
X0302893Y0203932D01*
X0302893Y0204718D02*
X0312401Y0204718D01*
X0312391Y0195287D02*
X0302893Y0195287D01*
X0302893Y0194501D02*
X0311605Y0194501D01*
X0310819Y0193715D02*
X0302893Y0193715D01*
X0302893Y0192929D02*
X0310033Y0192929D01*
X0309924Y0192143D02*
X0302893Y0192143D01*
X0302893Y0186642D02*
X0327499Y0186642D01*
X0327499Y0187428D02*
X0316826Y0187428D01*
X0317611Y0188214D02*
X0327499Y0188214D01*
X0327499Y0188999D02*
X0318397Y0188999D01*
X0318617Y0189785D02*
X0327499Y0189785D01*
X0327499Y0190571D02*
X0318617Y0190571D01*
X0315902Y0184957D02*
X0312640Y0184957D01*
X0310334Y0182650D01*
X0310334Y0179389D01*
X0312640Y0177083D01*
X0315902Y0177083D01*
X0315941Y0177122D01*
X0324940Y0168123D01*
X0324940Y0162341D01*
X0318050Y0169231D01*
X0318208Y0169389D01*
X0318208Y0172650D01*
X0315902Y0174957D01*
X0312640Y0174957D01*
X0310334Y0172650D01*
X0310334Y0169389D01*
X0312640Y0167083D01*
X0315745Y0167083D01*
X0322972Y0159856D01*
X0322972Y0154546D01*
X0318168Y0159349D01*
X0318208Y0159389D01*
X0318208Y0162650D01*
X0315902Y0164957D01*
X0312640Y0164957D01*
X0310334Y0162650D01*
X0310334Y0159389D01*
X0312640Y0157083D01*
X0315902Y0157083D01*
X0315941Y0157122D01*
X0335784Y0137280D01*
X0330238Y0137280D01*
X0318168Y0149349D01*
X0318208Y0149389D01*
X0318208Y0152650D01*
X0315902Y0154957D01*
X0312640Y0154957D01*
X0310334Y0152650D01*
X0310334Y0149389D01*
X0312640Y0147083D01*
X0315902Y0147083D01*
X0315941Y0147122D01*
X0328146Y0134917D01*
X0322600Y0134917D01*
X0318168Y0139349D01*
X0318208Y0139389D01*
X0318208Y0142650D01*
X0315902Y0144957D01*
X0312640Y0144957D01*
X0310334Y0142650D01*
X0310334Y0139389D01*
X0312640Y0137083D01*
X0315902Y0137083D01*
X0315941Y0137122D01*
X0320508Y0132555D01*
X0318208Y0132555D01*
X0318208Y0132650D01*
X0315902Y0134957D01*
X0312640Y0134957D01*
X0310334Y0132650D01*
X0310334Y0129389D01*
X0312640Y0127083D01*
X0315902Y0127083D01*
X0318208Y0129389D01*
X0318208Y0129406D01*
X0440334Y0129406D01*
X0440334Y0129389D01*
X0442640Y0127083D01*
X0445902Y0127083D01*
X0448208Y0129389D01*
X0448208Y0132650D01*
X0445902Y0134957D01*
X0442640Y0134957D01*
X0440334Y0132650D01*
X0440334Y0132555D01*
X0437797Y0132555D01*
X0442482Y0137240D01*
X0442640Y0137083D01*
X0445902Y0137083D01*
X0448208Y0139389D01*
X0448208Y0142650D01*
X0445902Y0144957D01*
X0442640Y0144957D01*
X0440334Y0142650D01*
X0440334Y0139546D01*
X0435705Y0134917D01*
X0430317Y0134917D01*
X0430452Y0135052D01*
X0442561Y0147162D01*
X0442640Y0147083D01*
X0445902Y0147083D01*
X0448208Y0149389D01*
X0448208Y0152650D01*
X0445902Y0154957D01*
X0442640Y0154957D01*
X0440334Y0152650D01*
X0440334Y0149389D01*
X0440334Y0149389D01*
X0428225Y0137280D01*
X0422443Y0137280D01*
X0442443Y0157280D01*
X0442640Y0157083D01*
X0445902Y0157083D01*
X0448208Y0159389D01*
X0448208Y0162650D01*
X0445902Y0164957D01*
X0442640Y0164957D01*
X0440334Y0162650D01*
X0440334Y0159625D01*
X0420351Y0139642D01*
X0414963Y0139642D01*
X0442522Y0167201D01*
X0442640Y0167083D01*
X0445902Y0167083D01*
X0448208Y0169389D01*
X0448208Y0172650D01*
X0445902Y0174957D01*
X0442640Y0174957D01*
X0440334Y0172650D01*
X0440334Y0169467D01*
X0412871Y0142004D01*
X0407088Y0142004D01*
X0442404Y0177319D01*
X0442640Y0177083D01*
X0445902Y0177083D01*
X0448208Y0179389D01*
X0448208Y0182650D01*
X0445902Y0184957D01*
X0442640Y0184957D01*
X0440334Y0182650D01*
X0440334Y0179703D01*
X0404997Y0144366D01*
X0339766Y0144366D01*
X0328090Y0156042D01*
X0328090Y0169428D01*
X0318168Y0179349D01*
X0318208Y0179389D01*
X0318208Y0182650D01*
X0315902Y0184957D01*
X0316574Y0184284D02*
X0327499Y0184284D01*
X0327499Y0185070D02*
X0302893Y0185070D01*
X0302893Y0185856D02*
X0327499Y0185856D01*
X0328877Y0185856D02*
X0384586Y0185856D01*
X0384586Y0186642D02*
X0328877Y0186642D01*
X0328877Y0187428D02*
X0384586Y0187428D01*
X0384586Y0188214D02*
X0328877Y0188214D01*
X0328877Y0188999D02*
X0384586Y0188999D01*
X0383939Y0189785D02*
X0328877Y0189785D01*
X0328877Y0190571D02*
X0383798Y0190571D01*
X0383798Y0191357D02*
X0328877Y0191357D01*
X0328877Y0192143D02*
X0384222Y0192143D01*
X0385964Y0190823D02*
X0385964Y0172319D01*
X0384783Y0171138D01*
X0367854Y0171138D01*
X0369538Y0169760D02*
X0370826Y0169760D01*
X0376318Y0164268D01*
X0376318Y0163854D01*
X0376012Y0163854D01*
X0374743Y0162586D01*
X0374743Y0161472D01*
X0373582Y0160311D01*
X0369538Y0160311D01*
X0368750Y0161098D01*
X0368357Y0161098D01*
X0369231Y0161973D01*
X0369231Y0163767D01*
X0368444Y0164554D01*
X0368444Y0166304D01*
X0369231Y0167091D01*
X0369231Y0168885D01*
X0368947Y0169169D01*
X0369538Y0169760D01*
X0369130Y0169352D02*
X0371234Y0169352D01*
X0372020Y0168566D02*
X0369231Y0168566D01*
X0369231Y0167780D02*
X0372806Y0167780D01*
X0373592Y0166994D02*
X0369134Y0166994D01*
X0368444Y0166208D02*
X0374378Y0166208D01*
X0375164Y0165422D02*
X0368444Y0165422D01*
X0368444Y0164636D02*
X0375950Y0164636D01*
X0376008Y0163850D02*
X0369148Y0163850D01*
X0369231Y0163064D02*
X0375222Y0163064D01*
X0374743Y0162278D02*
X0369231Y0162278D01*
X0368751Y0161492D02*
X0374743Y0161492D01*
X0373978Y0160707D02*
X0369142Y0160707D01*
X0367854Y0158933D02*
X0362342Y0158933D01*
X0360373Y0160902D01*
X0341082Y0160902D01*
X0338917Y0160707D02*
X0328090Y0160707D01*
X0328090Y0161492D02*
X0338917Y0161492D01*
X0339396Y0162278D02*
X0328090Y0162278D01*
X0328090Y0163064D02*
X0340182Y0163064D01*
X0341981Y0163064D02*
X0364901Y0163064D01*
X0364901Y0162278D02*
X0360945Y0162278D01*
X0361731Y0161492D02*
X0365381Y0161492D01*
X0366167Y0160707D02*
X0362517Y0160707D01*
X0360191Y0159135D02*
X0342377Y0159135D01*
X0339786Y0159135D02*
X0328090Y0159135D01*
X0328090Y0159921D02*
X0339001Y0159921D01*
X0329713Y0154419D02*
X0355919Y0154419D01*
X0355133Y0155205D02*
X0328927Y0155205D01*
X0328141Y0155991D02*
X0354665Y0155991D01*
X0354665Y0156777D02*
X0328090Y0156777D01*
X0328090Y0157563D02*
X0354760Y0157563D01*
X0355546Y0158349D02*
X0328090Y0158349D01*
X0322972Y0158349D02*
X0319169Y0158349D01*
X0318383Y0159135D02*
X0322972Y0159135D01*
X0322907Y0159921D02*
X0318208Y0159921D01*
X0318208Y0160707D02*
X0322121Y0160707D01*
X0321335Y0161492D02*
X0318208Y0161492D01*
X0318208Y0162278D02*
X0320549Y0162278D01*
X0319763Y0163064D02*
X0317794Y0163064D01*
X0317008Y0163850D02*
X0318977Y0163850D01*
X0318191Y0164636D02*
X0316222Y0164636D01*
X0317405Y0165422D02*
X0302893Y0165422D01*
X0302893Y0164636D02*
X0312320Y0164636D01*
X0311534Y0163850D02*
X0302893Y0163850D01*
X0302893Y0163064D02*
X0310748Y0163064D01*
X0310334Y0162278D02*
X0302893Y0162278D01*
X0302893Y0161492D02*
X0310334Y0161492D01*
X0310334Y0160707D02*
X0302893Y0160707D01*
X0302893Y0159921D02*
X0310334Y0159921D01*
X0310588Y0159135D02*
X0302893Y0159135D01*
X0302893Y0158349D02*
X0311374Y0158349D01*
X0312160Y0157563D02*
X0302893Y0157563D01*
X0302893Y0156777D02*
X0316286Y0156777D01*
X0317072Y0155991D02*
X0302893Y0155991D01*
X0302893Y0155205D02*
X0317858Y0155205D01*
X0318644Y0154419D02*
X0316439Y0154419D01*
X0317225Y0153633D02*
X0319430Y0153633D01*
X0320216Y0152847D02*
X0318011Y0152847D01*
X0318208Y0152062D02*
X0321002Y0152062D01*
X0321788Y0151276D02*
X0318208Y0151276D01*
X0318208Y0150490D02*
X0322574Y0150490D01*
X0323360Y0149704D02*
X0318208Y0149704D01*
X0318600Y0148918D02*
X0324146Y0148918D01*
X0324931Y0148132D02*
X0319386Y0148132D01*
X0320172Y0147346D02*
X0325717Y0147346D01*
X0326503Y0146560D02*
X0320958Y0146560D01*
X0321743Y0145774D02*
X0327289Y0145774D01*
X0328075Y0144988D02*
X0322529Y0144988D01*
X0323315Y0144202D02*
X0328861Y0144202D01*
X0329647Y0143416D02*
X0324101Y0143416D01*
X0324887Y0142631D02*
X0330433Y0142631D01*
X0331219Y0141845D02*
X0325673Y0141845D01*
X0326459Y0141059D02*
X0332005Y0141059D01*
X0332791Y0140273D02*
X0327245Y0140273D01*
X0328031Y0139487D02*
X0333577Y0139487D01*
X0334362Y0138701D02*
X0328817Y0138701D01*
X0329603Y0137915D02*
X0335148Y0137915D01*
X0327506Y0135557D02*
X0321960Y0135557D01*
X0321174Y0136343D02*
X0326720Y0136343D01*
X0325934Y0137129D02*
X0320388Y0137129D01*
X0319603Y0137915D02*
X0325148Y0137915D01*
X0324362Y0138701D02*
X0318817Y0138701D01*
X0318208Y0139487D02*
X0323577Y0139487D01*
X0322791Y0140273D02*
X0318208Y0140273D01*
X0318208Y0141059D02*
X0322005Y0141059D01*
X0321219Y0141845D02*
X0318208Y0141845D01*
X0318208Y0142631D02*
X0320433Y0142631D01*
X0319647Y0143416D02*
X0317442Y0143416D01*
X0316656Y0144202D02*
X0318861Y0144202D01*
X0318075Y0144988D02*
X0302893Y0144988D01*
X0302893Y0144202D02*
X0311886Y0144202D01*
X0311100Y0143416D02*
X0302893Y0143416D01*
X0302893Y0142631D02*
X0310334Y0142631D01*
X0310334Y0141845D02*
X0302893Y0141845D01*
X0302893Y0141059D02*
X0310334Y0141059D01*
X0310334Y0140273D02*
X0302893Y0140273D01*
X0302893Y0139487D02*
X0310334Y0139487D01*
X0311022Y0138701D02*
X0302893Y0138701D01*
X0302893Y0137915D02*
X0311808Y0137915D01*
X0312594Y0137129D02*
X0302893Y0137129D01*
X0302893Y0136343D02*
X0316720Y0136343D01*
X0317506Y0135557D02*
X0302893Y0135557D01*
X0302893Y0134771D02*
X0312455Y0134771D01*
X0311669Y0133986D02*
X0302893Y0133986D01*
X0302893Y0133200D02*
X0310883Y0133200D01*
X0310334Y0132414D02*
X0302893Y0132414D01*
X0302893Y0131628D02*
X0310334Y0131628D01*
X0310334Y0130842D02*
X0302893Y0130842D01*
X0302893Y0130056D02*
X0310334Y0130056D01*
X0310453Y0129270D02*
X0302893Y0129270D01*
X0302893Y0128484D02*
X0311239Y0128484D01*
X0312025Y0127698D02*
X0302893Y0127698D01*
X0302893Y0126912D02*
X0455649Y0126912D01*
X0455649Y0126126D02*
X0302893Y0126126D01*
X0302893Y0125340D02*
X0455649Y0125340D01*
X0455649Y0127698D02*
X0446517Y0127698D01*
X0447303Y0128484D02*
X0455649Y0128484D01*
X0455649Y0129270D02*
X0448089Y0129270D01*
X0448208Y0130056D02*
X0455649Y0130056D01*
X0455649Y0130842D02*
X0448208Y0130842D01*
X0448208Y0131628D02*
X0455649Y0131628D01*
X0455649Y0132414D02*
X0448208Y0132414D01*
X0447659Y0133200D02*
X0455649Y0133200D01*
X0455649Y0133986D02*
X0446873Y0133986D01*
X0446087Y0134771D02*
X0455649Y0134771D01*
X0455649Y0135557D02*
X0440799Y0135557D01*
X0440013Y0134771D02*
X0442455Y0134771D01*
X0441669Y0133986D02*
X0439228Y0133986D01*
X0438442Y0133200D02*
X0440883Y0133200D01*
X0441585Y0136343D02*
X0455649Y0136343D01*
X0455649Y0137129D02*
X0445948Y0137129D01*
X0446734Y0137915D02*
X0455649Y0137915D01*
X0455649Y0138701D02*
X0447520Y0138701D01*
X0448208Y0139487D02*
X0455649Y0139487D01*
X0455649Y0140273D02*
X0448208Y0140273D01*
X0448208Y0141059D02*
X0455649Y0141059D01*
X0455649Y0141845D02*
X0448208Y0141845D01*
X0448208Y0142631D02*
X0455649Y0142631D01*
X0455649Y0143416D02*
X0447442Y0143416D01*
X0446656Y0144202D02*
X0455649Y0144202D01*
X0455649Y0144988D02*
X0440388Y0144988D01*
X0439602Y0144202D02*
X0441886Y0144202D01*
X0441100Y0143416D02*
X0438816Y0143416D01*
X0438030Y0142631D02*
X0440334Y0142631D01*
X0440334Y0141845D02*
X0437244Y0141845D01*
X0436458Y0141059D02*
X0440334Y0141059D01*
X0440334Y0140273D02*
X0435672Y0140273D01*
X0434886Y0139487D02*
X0440275Y0139487D01*
X0439489Y0138701D02*
X0434101Y0138701D01*
X0433315Y0137915D02*
X0438703Y0137915D01*
X0437917Y0137129D02*
X0432529Y0137129D01*
X0431743Y0136343D02*
X0437131Y0136343D01*
X0436345Y0135557D02*
X0430957Y0135557D01*
X0428860Y0137915D02*
X0423078Y0137915D01*
X0423864Y0138701D02*
X0429646Y0138701D01*
X0430432Y0139487D02*
X0424650Y0139487D01*
X0425436Y0140273D02*
X0431218Y0140273D01*
X0432004Y0141059D02*
X0426222Y0141059D01*
X0427008Y0141845D02*
X0432790Y0141845D01*
X0433576Y0142631D02*
X0427794Y0142631D01*
X0428580Y0143416D02*
X0434362Y0143416D01*
X0435148Y0144202D02*
X0429366Y0144202D01*
X0430152Y0144988D02*
X0435934Y0144988D01*
X0436720Y0145774D02*
X0430938Y0145774D01*
X0431723Y0146560D02*
X0437505Y0146560D01*
X0438291Y0147346D02*
X0432509Y0147346D01*
X0433295Y0148132D02*
X0439077Y0148132D01*
X0439863Y0148918D02*
X0434081Y0148918D01*
X0434867Y0149704D02*
X0440334Y0149704D01*
X0440334Y0150490D02*
X0435653Y0150490D01*
X0436439Y0151276D02*
X0440334Y0151276D01*
X0440334Y0152062D02*
X0437225Y0152062D01*
X0438011Y0152847D02*
X0440531Y0152847D01*
X0441317Y0153633D02*
X0438797Y0153633D01*
X0439583Y0154419D02*
X0442103Y0154419D01*
X0441154Y0155991D02*
X0455649Y0155991D01*
X0455649Y0155205D02*
X0440368Y0155205D01*
X0441940Y0156777D02*
X0455649Y0156777D01*
X0455649Y0157563D02*
X0446382Y0157563D01*
X0447168Y0158349D02*
X0455649Y0158349D01*
X0455649Y0159135D02*
X0447954Y0159135D01*
X0448208Y0159921D02*
X0455649Y0159921D01*
X0455649Y0160707D02*
X0448208Y0160707D01*
X0448208Y0161492D02*
X0455649Y0161492D01*
X0455649Y0162278D02*
X0448208Y0162278D01*
X0447794Y0163064D02*
X0455649Y0163064D01*
X0455649Y0163850D02*
X0447008Y0163850D01*
X0446222Y0164636D02*
X0455649Y0164636D01*
X0455649Y0165422D02*
X0440743Y0165422D01*
X0441529Y0166208D02*
X0455649Y0166208D01*
X0455649Y0166994D02*
X0442315Y0166994D01*
X0442320Y0164636D02*
X0439957Y0164636D01*
X0439171Y0163850D02*
X0441534Y0163850D01*
X0440748Y0163064D02*
X0438385Y0163064D01*
X0437599Y0162278D02*
X0440334Y0162278D01*
X0440334Y0161492D02*
X0436813Y0161492D01*
X0436027Y0160707D02*
X0440334Y0160707D01*
X0440334Y0159921D02*
X0435241Y0159921D01*
X0434456Y0159135D02*
X0439844Y0159135D01*
X0439058Y0158349D02*
X0433670Y0158349D01*
X0432884Y0157563D02*
X0438272Y0157563D01*
X0437486Y0156777D02*
X0432098Y0156777D01*
X0431312Y0155991D02*
X0436700Y0155991D01*
X0435914Y0155205D02*
X0430526Y0155205D01*
X0429740Y0154419D02*
X0435128Y0154419D01*
X0434342Y0153633D02*
X0428954Y0153633D01*
X0428168Y0152847D02*
X0433557Y0152847D01*
X0432771Y0152062D02*
X0427382Y0152062D01*
X0426596Y0151276D02*
X0431985Y0151276D01*
X0431199Y0150490D02*
X0425810Y0150490D01*
X0425025Y0149704D02*
X0430413Y0149704D01*
X0429627Y0148918D02*
X0424239Y0148918D01*
X0423453Y0148132D02*
X0428841Y0148132D01*
X0428055Y0147346D02*
X0422667Y0147346D01*
X0421881Y0146560D02*
X0427269Y0146560D01*
X0426483Y0145774D02*
X0421095Y0145774D01*
X0420309Y0144988D02*
X0425697Y0144988D01*
X0424912Y0144202D02*
X0419523Y0144202D01*
X0418737Y0143416D02*
X0424126Y0143416D01*
X0423340Y0142631D02*
X0417951Y0142631D01*
X0417165Y0141845D02*
X0422554Y0141845D01*
X0421768Y0141059D02*
X0416380Y0141059D01*
X0415594Y0140273D02*
X0420982Y0140273D01*
X0415855Y0144988D02*
X0410073Y0144988D01*
X0409287Y0144202D02*
X0415069Y0144202D01*
X0414283Y0143416D02*
X0408501Y0143416D01*
X0407715Y0142631D02*
X0413497Y0142631D01*
X0410859Y0145774D02*
X0416641Y0145774D01*
X0417427Y0146560D02*
X0411645Y0146560D01*
X0412431Y0147346D02*
X0418213Y0147346D01*
X0418999Y0148132D02*
X0413217Y0148132D01*
X0414002Y0148918D02*
X0419784Y0148918D01*
X0420570Y0149704D02*
X0414788Y0149704D01*
X0415574Y0150490D02*
X0421356Y0150490D01*
X0422142Y0151276D02*
X0416360Y0151276D01*
X0417146Y0152062D02*
X0422928Y0152062D01*
X0423714Y0152847D02*
X0417932Y0152847D01*
X0418718Y0153633D02*
X0424500Y0153633D01*
X0425286Y0154419D02*
X0419504Y0154419D01*
X0420290Y0155205D02*
X0426072Y0155205D01*
X0426858Y0155991D02*
X0421076Y0155991D01*
X0421862Y0156777D02*
X0427644Y0156777D01*
X0428430Y0157563D02*
X0422647Y0157563D01*
X0423433Y0158349D02*
X0429215Y0158349D01*
X0430001Y0159135D02*
X0424219Y0159135D01*
X0425005Y0159921D02*
X0430787Y0159921D01*
X0431573Y0160707D02*
X0425791Y0160707D01*
X0426577Y0161492D02*
X0432359Y0161492D01*
X0433145Y0162278D02*
X0427363Y0162278D01*
X0428149Y0163064D02*
X0433931Y0163064D01*
X0434717Y0163850D02*
X0428935Y0163850D01*
X0429721Y0164636D02*
X0435503Y0164636D01*
X0436289Y0165422D02*
X0430507Y0165422D01*
X0431293Y0166208D02*
X0437075Y0166208D01*
X0437860Y0166994D02*
X0432078Y0166994D01*
X0432864Y0167780D02*
X0438646Y0167780D01*
X0439432Y0168566D02*
X0433650Y0168566D01*
X0434436Y0169352D02*
X0440218Y0169352D01*
X0440334Y0170138D02*
X0435222Y0170138D01*
X0436008Y0170923D02*
X0440334Y0170923D01*
X0440334Y0171709D02*
X0436794Y0171709D01*
X0437580Y0172495D02*
X0440334Y0172495D01*
X0440965Y0173281D02*
X0438366Y0173281D01*
X0439152Y0174067D02*
X0441751Y0174067D01*
X0442536Y0174853D02*
X0439938Y0174853D01*
X0440723Y0175639D02*
X0455649Y0175639D01*
X0455649Y0176425D02*
X0441509Y0176425D01*
X0442295Y0177211D02*
X0442512Y0177211D01*
X0440199Y0179568D02*
X0410123Y0179568D01*
X0410176Y0178783D02*
X0439413Y0178783D01*
X0438627Y0177997D02*
X0410176Y0177997D01*
X0409666Y0177211D02*
X0437841Y0177211D01*
X0437055Y0176425D02*
X0402648Y0176425D01*
X0401862Y0175639D02*
X0436269Y0175639D01*
X0435483Y0174853D02*
X0401077Y0174853D01*
X0400291Y0174067D02*
X0434697Y0174067D01*
X0433912Y0173281D02*
X0399505Y0173281D01*
X0398719Y0172495D02*
X0433126Y0172495D01*
X0432340Y0171709D02*
X0397933Y0171709D01*
X0397147Y0170923D02*
X0431554Y0170923D01*
X0430768Y0170138D02*
X0396361Y0170138D01*
X0395575Y0169352D02*
X0429982Y0169352D01*
X0429196Y0168566D02*
X0394789Y0168566D01*
X0394003Y0167780D02*
X0428410Y0167780D01*
X0427624Y0166994D02*
X0393217Y0166994D01*
X0392431Y0166208D02*
X0426838Y0166208D01*
X0426052Y0165422D02*
X0391646Y0165422D01*
X0390860Y0164636D02*
X0425267Y0164636D01*
X0424481Y0163850D02*
X0390074Y0163850D01*
X0389288Y0163064D02*
X0423695Y0163064D01*
X0422909Y0162278D02*
X0388917Y0162278D01*
X0388917Y0161492D02*
X0422123Y0161492D01*
X0421337Y0160707D02*
X0388917Y0160707D01*
X0388917Y0159921D02*
X0420551Y0159921D01*
X0419765Y0159135D02*
X0388917Y0159135D01*
X0388917Y0158349D02*
X0418979Y0158349D01*
X0418193Y0157563D02*
X0388917Y0157563D01*
X0388917Y0156777D02*
X0417407Y0156777D01*
X0416621Y0155991D02*
X0388917Y0155991D01*
X0388917Y0155205D02*
X0415836Y0155205D01*
X0415050Y0154419D02*
X0388917Y0154419D01*
X0388912Y0153633D02*
X0414264Y0153633D01*
X0413478Y0152847D02*
X0388126Y0152847D01*
X0387340Y0152062D02*
X0412692Y0152062D01*
X0411906Y0151276D02*
X0386554Y0151276D01*
X0385964Y0152634D02*
X0387539Y0154209D01*
X0387539Y0163264D01*
X0402893Y0178618D01*
X0408011Y0178618D01*
X0406356Y0177211D02*
X0403434Y0177211D01*
X0401089Y0178783D02*
X0387342Y0178783D01*
X0387342Y0179568D02*
X0401875Y0179568D01*
X0402661Y0180354D02*
X0387342Y0180354D01*
X0387342Y0181140D02*
X0403447Y0181140D01*
X0400303Y0177997D02*
X0387342Y0177997D01*
X0387342Y0177211D02*
X0399517Y0177211D01*
X0398731Y0176425D02*
X0387342Y0176425D01*
X0387342Y0175639D02*
X0397945Y0175639D01*
X0397159Y0174853D02*
X0387342Y0174853D01*
X0387342Y0174067D02*
X0396373Y0174067D01*
X0395587Y0173281D02*
X0387342Y0173281D01*
X0387342Y0172495D02*
X0394802Y0172495D01*
X0394016Y0171709D02*
X0387303Y0171709D01*
X0386517Y0170923D02*
X0393230Y0170923D01*
X0392444Y0170138D02*
X0385731Y0170138D01*
X0384586Y0173281D02*
X0369253Y0173281D01*
X0368631Y0174067D02*
X0384586Y0174067D01*
X0384586Y0174853D02*
X0368838Y0174853D01*
X0368815Y0175639D02*
X0384586Y0175639D01*
X0384586Y0176425D02*
X0368489Y0176425D01*
X0367762Y0177211D02*
X0384586Y0177211D01*
X0384586Y0177997D02*
X0349153Y0177997D01*
X0349153Y0178783D02*
X0381556Y0178783D01*
X0381043Y0179568D02*
X0349153Y0179568D01*
X0349153Y0180354D02*
X0366598Y0180354D01*
X0365812Y0181140D02*
X0349153Y0181140D01*
X0349153Y0181926D02*
X0365688Y0181926D01*
X0365688Y0182712D02*
X0348842Y0182712D01*
X0348252Y0183498D02*
X0366128Y0183498D01*
X0366914Y0184284D02*
X0346891Y0184284D01*
X0345509Y0184284D02*
X0328877Y0184284D01*
X0328877Y0185070D02*
X0384586Y0185070D01*
X0384586Y0184284D02*
X0368793Y0184284D01*
X0367854Y0182161D02*
X0381239Y0182161D01*
X0383208Y0180193D01*
X0381043Y0180354D02*
X0369109Y0180354D01*
X0364796Y0177211D02*
X0349153Y0177211D01*
X0349153Y0176425D02*
X0364010Y0176425D01*
X0363224Y0175639D02*
X0349153Y0175639D01*
X0349417Y0174853D02*
X0362438Y0174853D01*
X0361652Y0174067D02*
X0353026Y0174067D01*
X0351185Y0174067D02*
X0350202Y0174067D01*
X0343247Y0175639D02*
X0328877Y0175639D01*
X0328877Y0176425D02*
X0343247Y0176425D01*
X0343247Y0177211D02*
X0328877Y0177211D01*
X0328877Y0177997D02*
X0343247Y0177997D01*
X0343247Y0178783D02*
X0328877Y0178783D01*
X0328877Y0179568D02*
X0343247Y0179568D01*
X0343247Y0180354D02*
X0328877Y0180354D01*
X0328877Y0181140D02*
X0343247Y0181140D01*
X0343247Y0181926D02*
X0328877Y0181926D01*
X0328877Y0182712D02*
X0343558Y0182712D01*
X0344148Y0183498D02*
X0328877Y0183498D01*
X0327499Y0183498D02*
X0317360Y0183498D01*
X0318146Y0182712D02*
X0327499Y0182712D01*
X0327499Y0181926D02*
X0318208Y0181926D01*
X0318208Y0181140D02*
X0327499Y0181140D01*
X0327499Y0180354D02*
X0318208Y0180354D01*
X0318208Y0179568D02*
X0327499Y0179568D01*
X0327499Y0178783D02*
X0318735Y0178783D01*
X0319521Y0177997D02*
X0327499Y0177997D01*
X0327499Y0177211D02*
X0320307Y0177211D01*
X0321093Y0176425D02*
X0327499Y0176425D01*
X0327499Y0175639D02*
X0321879Y0175639D01*
X0322665Y0174853D02*
X0327499Y0174853D01*
X0327499Y0174067D02*
X0323451Y0174067D01*
X0324236Y0173281D02*
X0327499Y0173281D01*
X0327933Y0172495D02*
X0325022Y0172495D01*
X0325808Y0171709D02*
X0365688Y0171709D01*
X0365688Y0170923D02*
X0326594Y0170923D01*
X0327380Y0170138D02*
X0365792Y0170138D01*
X0365367Y0169352D02*
X0328090Y0169352D01*
X0328090Y0168566D02*
X0364901Y0168566D01*
X0364901Y0167780D02*
X0328090Y0167780D01*
X0328090Y0166994D02*
X0364998Y0166994D01*
X0365688Y0166208D02*
X0328090Y0166208D01*
X0328090Y0165422D02*
X0365688Y0165422D01*
X0365688Y0164636D02*
X0328090Y0164636D01*
X0328090Y0163850D02*
X0364984Y0163850D01*
X0367066Y0162870D02*
X0367066Y0167988D01*
X0373183Y0169352D02*
X0391658Y0169352D01*
X0390872Y0168566D02*
X0373969Y0168566D01*
X0374755Y0167780D02*
X0390086Y0167780D01*
X0389300Y0166994D02*
X0375541Y0166994D01*
X0376327Y0166208D02*
X0388514Y0166208D01*
X0387728Y0165422D02*
X0377113Y0165422D01*
X0377696Y0164636D02*
X0386942Y0164636D01*
X0386176Y0163850D02*
X0377810Y0163850D01*
X0378596Y0163064D02*
X0386161Y0163064D01*
X0386161Y0162278D02*
X0379074Y0162278D01*
X0379074Y0161492D02*
X0386161Y0161492D01*
X0386161Y0160707D02*
X0378989Y0160707D01*
X0378203Y0159921D02*
X0386161Y0159921D01*
X0386161Y0159135D02*
X0377696Y0159135D01*
X0377696Y0158349D02*
X0386161Y0158349D01*
X0386161Y0157563D02*
X0377696Y0157563D01*
X0377696Y0156777D02*
X0386161Y0156777D01*
X0386161Y0155991D02*
X0377696Y0155991D01*
X0377696Y0155205D02*
X0386161Y0155205D01*
X0385964Y0152634D02*
X0370216Y0152634D01*
X0366279Y0156571D01*
X0356830Y0156571D01*
X0358114Y0158349D02*
X0360977Y0158349D01*
X0357741Y0154419D02*
X0366482Y0154419D01*
X0367268Y0153633D02*
X0330498Y0153633D01*
X0331284Y0152847D02*
X0368050Y0152847D01*
X0368050Y0152062D02*
X0332070Y0152062D01*
X0332856Y0151276D02*
X0368512Y0151276D01*
X0369298Y0150490D02*
X0333642Y0150490D01*
X0334428Y0149704D02*
X0410334Y0149704D01*
X0411120Y0150490D02*
X0371134Y0150490D01*
X0374153Y0158933D02*
X0367854Y0158933D01*
X0374153Y0158933D02*
X0376909Y0161689D01*
X0384537Y0181926D02*
X0384586Y0181926D01*
X0384586Y0182712D02*
X0382637Y0182712D01*
X0381851Y0183498D02*
X0384586Y0183498D01*
X0387342Y0183498D02*
X0413285Y0183498D01*
X0414071Y0184284D02*
X0387342Y0184284D01*
X0387342Y0185070D02*
X0414856Y0185070D01*
X0415642Y0185856D02*
X0387342Y0185856D01*
X0387342Y0186642D02*
X0416428Y0186642D01*
X0417214Y0187428D02*
X0387342Y0187428D01*
X0387342Y0188214D02*
X0418000Y0188214D01*
X0418247Y0188999D02*
X0387342Y0188999D01*
X0387989Y0189785D02*
X0418247Y0189785D01*
X0418247Y0190571D02*
X0388129Y0190571D01*
X0387342Y0182712D02*
X0412499Y0182712D01*
X0411713Y0181926D02*
X0387342Y0181926D01*
X0412090Y0180354D02*
X0440334Y0180354D01*
X0440334Y0181140D02*
X0412876Y0181140D01*
X0413662Y0181926D02*
X0440334Y0181926D01*
X0440396Y0182712D02*
X0414447Y0182712D01*
X0415233Y0183498D02*
X0441181Y0183498D01*
X0441967Y0184284D02*
X0416019Y0184284D01*
X0416805Y0185070D02*
X0455649Y0185070D01*
X0455649Y0185856D02*
X0417591Y0185856D01*
X0443877Y0192143D02*
X0444665Y0192143D01*
X0444665Y0191357D02*
X0455649Y0191357D01*
X0455649Y0190571D02*
X0448617Y0190571D01*
X0448617Y0189785D02*
X0455649Y0189785D01*
X0455649Y0188999D02*
X0448397Y0188999D01*
X0447611Y0188214D02*
X0455649Y0188214D01*
X0455649Y0192143D02*
X0448617Y0192143D01*
X0448508Y0192929D02*
X0455649Y0192929D01*
X0455649Y0193715D02*
X0447722Y0193715D01*
X0446937Y0194501D02*
X0455649Y0194501D01*
X0455649Y0195287D02*
X0446151Y0195287D01*
X0444665Y0195287D02*
X0443877Y0195287D01*
X0443877Y0194501D02*
X0444665Y0194501D01*
X0444665Y0193715D02*
X0443877Y0193715D01*
X0443877Y0192929D02*
X0444665Y0192929D01*
X0446574Y0184284D02*
X0455649Y0184284D01*
X0455649Y0183498D02*
X0447360Y0183498D01*
X0448146Y0182712D02*
X0455649Y0182712D01*
X0455649Y0181926D02*
X0448208Y0181926D01*
X0448208Y0181140D02*
X0455649Y0181140D01*
X0455649Y0180354D02*
X0448208Y0180354D01*
X0448208Y0179568D02*
X0455649Y0179568D01*
X0455649Y0178783D02*
X0447601Y0178783D01*
X0446816Y0177997D02*
X0455649Y0177997D01*
X0455649Y0177211D02*
X0446030Y0177211D01*
X0446005Y0174853D02*
X0455649Y0174853D01*
X0455649Y0174067D02*
X0446791Y0174067D01*
X0447577Y0173281D02*
X0455649Y0173281D01*
X0455649Y0172495D02*
X0448208Y0172495D01*
X0448208Y0171709D02*
X0455649Y0171709D01*
X0455649Y0170923D02*
X0448208Y0170923D01*
X0448208Y0170138D02*
X0455649Y0170138D01*
X0455649Y0169352D02*
X0448171Y0169352D01*
X0447385Y0168566D02*
X0455649Y0168566D01*
X0455649Y0167780D02*
X0446599Y0167780D01*
X0446439Y0154419D02*
X0455649Y0154419D01*
X0455649Y0153633D02*
X0447225Y0153633D01*
X0448011Y0152847D02*
X0455649Y0152847D01*
X0455649Y0152062D02*
X0448208Y0152062D01*
X0448208Y0151276D02*
X0455649Y0151276D01*
X0455649Y0150490D02*
X0448208Y0150490D01*
X0448208Y0149704D02*
X0455649Y0149704D01*
X0455649Y0148918D02*
X0447737Y0148918D01*
X0446951Y0148132D02*
X0455649Y0148132D01*
X0455649Y0147346D02*
X0446165Y0147346D01*
X0441960Y0146560D02*
X0455649Y0146560D01*
X0455649Y0145774D02*
X0441174Y0145774D01*
X0442371Y0137129D02*
X0442594Y0137129D01*
X0440453Y0129270D02*
X0318089Y0129270D01*
X0317303Y0128484D02*
X0441239Y0128484D01*
X0442025Y0127698D02*
X0316517Y0127698D01*
X0319813Y0124555D02*
X0438729Y0124555D01*
X0436500Y0123769D02*
X0322042Y0123769D01*
X0323124Y0122983D02*
X0435418Y0122983D01*
X0434336Y0122197D02*
X0324205Y0122197D01*
X0325016Y0121608D02*
X0325016Y0121608D01*
X0325159Y0121411D02*
X0433382Y0121411D01*
X0433525Y0121608D02*
X0433525Y0121608D01*
X0432811Y0120625D02*
X0325730Y0120625D01*
X0326301Y0119839D02*
X0432240Y0119839D01*
X0431669Y0119053D02*
X0326872Y0119053D01*
X0327358Y0118267D02*
X0359002Y0118267D01*
X0359279Y0118382D02*
X0356530Y0117243D01*
X0354425Y0115139D01*
X0353287Y0112390D01*
X0353287Y0109414D01*
X0354425Y0106664D01*
X0356530Y0104560D01*
X0359279Y0103421D01*
X0399656Y0103421D01*
X0402406Y0104560D01*
X0404510Y0106664D01*
X0405649Y0109414D01*
X0405649Y0112390D01*
X0404510Y0115139D01*
X0402406Y0117243D01*
X0399656Y0118382D01*
X0359279Y0118382D01*
X0357105Y0117481D02*
X0327613Y0117481D01*
X0327869Y0116695D02*
X0355982Y0116695D01*
X0355196Y0115910D02*
X0328124Y0115910D01*
X0328379Y0115124D02*
X0354419Y0115124D01*
X0354094Y0114338D02*
X0328483Y0114338D01*
X0328483Y0114803D02*
X0328483Y0114803D01*
X0328483Y0113552D02*
X0353768Y0113552D01*
X0353443Y0112766D02*
X0328483Y0112766D01*
X0328483Y0111980D02*
X0353287Y0111980D01*
X0353287Y0111194D02*
X0328483Y0111194D01*
X0328483Y0110408D02*
X0353287Y0110408D01*
X0353287Y0109622D02*
X0328483Y0109622D01*
X0328483Y0108836D02*
X0353526Y0108836D01*
X0353851Y0108050D02*
X0328483Y0108050D01*
X0328483Y0107264D02*
X0354177Y0107264D01*
X0354611Y0106479D02*
X0328483Y0106479D01*
X0328483Y0105693D02*
X0355397Y0105693D01*
X0356183Y0104907D02*
X0328483Y0104907D01*
X0328483Y0104121D02*
X0357590Y0104121D01*
X0328483Y0103335D02*
X0430058Y0103335D01*
X0430058Y0104121D02*
X0401345Y0104121D01*
X0402752Y0104907D02*
X0430058Y0104907D01*
X0430058Y0105693D02*
X0403538Y0105693D01*
X0404324Y0106479D02*
X0430058Y0106479D01*
X0430058Y0107264D02*
X0404759Y0107264D01*
X0405084Y0108050D02*
X0430058Y0108050D01*
X0430058Y0108836D02*
X0405410Y0108836D01*
X0405649Y0109622D02*
X0430058Y0109622D01*
X0430058Y0110408D02*
X0405649Y0110408D01*
X0405649Y0111194D02*
X0430058Y0111194D01*
X0430058Y0111980D02*
X0405649Y0111980D01*
X0405493Y0112766D02*
X0430058Y0112766D01*
X0430058Y0113552D02*
X0405167Y0113552D01*
X0404842Y0114338D02*
X0430058Y0114338D01*
X0430162Y0115124D02*
X0404516Y0115124D01*
X0403739Y0115910D02*
X0430418Y0115910D01*
X0430673Y0116695D02*
X0402953Y0116695D01*
X0401831Y0117481D02*
X0430928Y0117481D01*
X0431184Y0118267D02*
X0399933Y0118267D01*
X0405619Y0144988D02*
X0339144Y0144988D01*
X0338358Y0145774D02*
X0406405Y0145774D01*
X0407191Y0146560D02*
X0337572Y0146560D01*
X0336786Y0147346D02*
X0407976Y0147346D01*
X0408762Y0148132D02*
X0336000Y0148132D01*
X0335214Y0148918D02*
X0409548Y0148918D01*
X0430058Y0102549D02*
X0328483Y0102549D01*
X0328483Y0101763D02*
X0430058Y0101763D01*
X0430058Y0100977D02*
X0328483Y0100977D01*
X0328483Y0100191D02*
X0430058Y0100191D01*
X0342983Y0174853D02*
X0328877Y0174853D01*
X0328877Y0174067D02*
X0342198Y0174067D01*
X0324940Y0167780D02*
X0319502Y0167780D01*
X0320288Y0166994D02*
X0324940Y0166994D01*
X0324940Y0166208D02*
X0321073Y0166208D01*
X0321859Y0165422D02*
X0324940Y0165422D01*
X0324940Y0164636D02*
X0322645Y0164636D01*
X0323431Y0163850D02*
X0324940Y0163850D01*
X0324940Y0163064D02*
X0324217Y0163064D01*
X0324498Y0168566D02*
X0318716Y0168566D01*
X0318171Y0169352D02*
X0323712Y0169352D01*
X0322926Y0170138D02*
X0318208Y0170138D01*
X0318208Y0170923D02*
X0322140Y0170923D01*
X0321354Y0171709D02*
X0318208Y0171709D01*
X0318208Y0172495D02*
X0320568Y0172495D01*
X0319782Y0173281D02*
X0317577Y0173281D01*
X0316791Y0174067D02*
X0318996Y0174067D01*
X0318210Y0174853D02*
X0316005Y0174853D01*
X0317425Y0175639D02*
X0302893Y0175639D01*
X0302893Y0176425D02*
X0316639Y0176425D01*
X0312512Y0177211D02*
X0302893Y0177211D01*
X0302893Y0177997D02*
X0311726Y0177997D01*
X0310940Y0178783D02*
X0302893Y0178783D01*
X0302893Y0179568D02*
X0310334Y0179568D01*
X0310334Y0180354D02*
X0302893Y0180354D01*
X0302893Y0181140D02*
X0310334Y0181140D01*
X0310334Y0181926D02*
X0302893Y0181926D01*
X0302893Y0182712D02*
X0310396Y0182712D01*
X0311181Y0183498D02*
X0302893Y0183498D01*
X0302893Y0184284D02*
X0311967Y0184284D01*
X0312536Y0174853D02*
X0302893Y0174853D01*
X0302893Y0174067D02*
X0311751Y0174067D01*
X0310965Y0173281D02*
X0302893Y0173281D01*
X0302893Y0172495D02*
X0310334Y0172495D01*
X0310334Y0171709D02*
X0302893Y0171709D01*
X0302893Y0170923D02*
X0310334Y0170923D01*
X0310334Y0170138D02*
X0302893Y0170138D01*
X0302893Y0169352D02*
X0310371Y0169352D01*
X0311157Y0168566D02*
X0302893Y0168566D01*
X0302893Y0167780D02*
X0311943Y0167780D01*
X0315833Y0166994D02*
X0302893Y0166994D01*
X0302893Y0166208D02*
X0316619Y0166208D01*
X0319955Y0157563D02*
X0322972Y0157563D01*
X0322972Y0156777D02*
X0320741Y0156777D01*
X0321527Y0155991D02*
X0322972Y0155991D01*
X0322972Y0155205D02*
X0322312Y0155205D01*
X0312103Y0154419D02*
X0302893Y0154419D01*
X0302893Y0153633D02*
X0311317Y0153633D01*
X0310531Y0152847D02*
X0302893Y0152847D01*
X0302893Y0152062D02*
X0310334Y0152062D01*
X0310334Y0151276D02*
X0302893Y0151276D01*
X0302893Y0150490D02*
X0310334Y0150490D01*
X0310334Y0149704D02*
X0302893Y0149704D01*
X0302893Y0148918D02*
X0310805Y0148918D01*
X0311591Y0148132D02*
X0302893Y0148132D01*
X0302893Y0147346D02*
X0312377Y0147346D01*
X0316503Y0146560D02*
X0302893Y0146560D01*
X0302893Y0145774D02*
X0317289Y0145774D01*
X0318292Y0134771D02*
X0316087Y0134771D01*
X0316873Y0133986D02*
X0319078Y0133986D01*
X0319864Y0133200D02*
X0317659Y0133200D01*
X0258798Y0145774D02*
X0244323Y0145774D01*
X0245109Y0146560D02*
X0258798Y0146560D01*
X0258798Y0147346D02*
X0249315Y0147346D01*
X0250100Y0148132D02*
X0258798Y0148132D01*
X0258798Y0148918D02*
X0250886Y0148918D01*
X0251357Y0149704D02*
X0258798Y0149704D01*
X0258798Y0150490D02*
X0251357Y0150490D01*
X0251357Y0151276D02*
X0258798Y0151276D01*
X0258798Y0152062D02*
X0251357Y0152062D01*
X0251160Y0152847D02*
X0258798Y0152847D01*
X0258798Y0153633D02*
X0250375Y0153633D01*
X0249589Y0154419D02*
X0258798Y0154419D01*
X0258798Y0166208D02*
X0244678Y0166208D01*
X0245464Y0166994D02*
X0258798Y0166994D01*
X0258798Y0167780D02*
X0249748Y0167780D01*
X0250534Y0168566D02*
X0258798Y0168566D01*
X0258798Y0169352D02*
X0251320Y0169352D01*
X0251357Y0170138D02*
X0258798Y0170138D01*
X0258798Y0170923D02*
X0251357Y0170923D01*
X0251357Y0171709D02*
X0258798Y0171709D01*
X0258798Y0172495D02*
X0251357Y0172495D01*
X0250727Y0173281D02*
X0258798Y0173281D01*
X0258798Y0174067D02*
X0249941Y0174067D01*
X0249155Y0174853D02*
X0258798Y0174853D01*
X0258798Y0175639D02*
X0243873Y0175639D01*
X0245445Y0177211D02*
X0245662Y0177211D01*
X0245521Y0137129D02*
X0245743Y0137129D01*
X0115292Y0314745D02*
X0106043Y0314745D01*
X0106043Y0315531D02*
X0114506Y0315531D01*
X0113720Y0316317D02*
X0106043Y0316317D01*
X0106043Y0317103D02*
X0113483Y0317103D01*
X0113483Y0317889D02*
X0106043Y0317889D01*
X0106043Y0318675D02*
X0113483Y0318675D01*
X0113483Y0319461D02*
X0106043Y0319461D01*
X0106043Y0320247D02*
X0113915Y0320247D01*
X0114700Y0321033D02*
X0106043Y0321033D01*
X0106043Y0321819D02*
X0115486Y0321819D01*
X0123090Y0384692D02*
X0241750Y0384692D01*
X0239592Y0385478D02*
X0125249Y0385478D01*
X0126331Y0386264D02*
X0238510Y0386264D01*
X0237429Y0387049D02*
X0127412Y0387049D01*
X0128339Y0387835D02*
X0236502Y0387835D01*
X0236675Y0387597D02*
X0236675Y0387597D01*
X0235931Y0388621D02*
X0128910Y0388621D01*
X0129481Y0389407D02*
X0235360Y0389407D01*
X0234789Y0390193D02*
X0130052Y0390193D01*
X0130438Y0390725D02*
X0130438Y0390725D01*
X0130521Y0390979D02*
X0234320Y0390979D01*
X0234403Y0390725D02*
X0234403Y0390725D01*
X0234065Y0391765D02*
X0130776Y0391765D01*
X0131032Y0392551D02*
X0233809Y0392551D01*
X0233554Y0393337D02*
X0131287Y0393337D01*
X0131542Y0394123D02*
X0233298Y0394123D01*
X0233208Y0394909D02*
X0131633Y0394909D01*
X0131633Y0395695D02*
X0233208Y0395695D01*
X0233208Y0396480D02*
X0131633Y0396480D01*
X0131633Y0397266D02*
X0233208Y0397266D01*
X0233208Y0398052D02*
X0131633Y0398052D01*
X0131633Y0398838D02*
X0233208Y0398838D01*
X0233208Y0399624D02*
X0131633Y0399624D01*
X0131633Y0400410D02*
X0233208Y0400410D01*
X0233208Y0401196D02*
X0131633Y0401196D01*
X0131633Y0401982D02*
X0233208Y0401982D01*
X0233208Y0402768D02*
X0131633Y0402768D01*
X0131633Y0403554D02*
X0233208Y0403554D01*
X0233208Y0404340D02*
X0131633Y0404340D01*
X0131633Y0405125D02*
X0233208Y0405125D01*
X0233208Y0405911D02*
X0131633Y0405911D01*
X0131633Y0406697D02*
X0233208Y0406697D01*
X0233208Y0407483D02*
X0131633Y0407483D01*
X0131633Y0408269D02*
X0233208Y0408269D01*
X0233208Y0409055D02*
X0131633Y0409055D01*
X0302893Y0373689D02*
X0327499Y0373689D01*
X0327499Y0372903D02*
X0302893Y0372903D01*
D13*
X0362342Y0348303D02*
X0364310Y0350272D01*
X0364310Y0348697D01*
X0364310Y0350272D02*
X0366279Y0352240D01*
X0391082Y0338461D02*
X0391082Y0331374D01*
X0391082Y0327831D01*
X0405649Y0373894D02*
X0405649Y0377437D01*
X0408798Y0380587D01*
X0405649Y0380587D02*
X0405649Y0377437D01*
X0402499Y0380587D01*
X0402499Y0203421D02*
X0405649Y0200272D01*
X0408798Y0203421D01*
X0405649Y0203421D02*
X0405649Y0200272D01*
X0405649Y0196728D01*
X0391082Y0161295D02*
X0391082Y0154209D01*
X0391082Y0150665D01*
X0366279Y0175075D02*
X0364310Y0173106D01*
X0362342Y0171138D01*
X0364310Y0171531D02*
X0364310Y0173106D01*
X0211948Y0203421D02*
X0208798Y0200272D01*
X0205649Y0203421D01*
X0208798Y0203421D02*
X0208798Y0200272D01*
X0208798Y0196728D01*
X0194231Y0161295D02*
X0194231Y0154209D01*
X0194231Y0150665D01*
X0167460Y0171531D02*
X0167460Y0173106D01*
X0165491Y0171138D01*
X0167460Y0173106D02*
X0169428Y0175075D01*
X0194231Y0327831D02*
X0194231Y0331374D01*
X0194231Y0338461D01*
X0169428Y0352240D02*
X0167460Y0350272D01*
X0165491Y0348303D01*
X0167460Y0348697D02*
X0167460Y0350272D01*
X0205649Y0380587D02*
X0208798Y0377437D01*
X0211948Y0380587D01*
X0208798Y0380587D02*
X0208798Y0377437D01*
X0208798Y0373894D01*
D14*
X0155255Y0345154D02*
X0149350Y0351059D01*
X0145413Y0347122D01*
X0144625Y0347122D01*
X0149350Y0351059D02*
X0149350Y0358539D01*
X0341476Y0347122D02*
X0342263Y0347122D01*
X0346200Y0351059D01*
X0352106Y0345154D01*
X0346200Y0351059D02*
X0346200Y0358539D01*
X0346200Y0181374D02*
X0346200Y0173894D01*
X0342263Y0169957D01*
X0341476Y0169957D01*
X0346200Y0173894D02*
X0352106Y0167988D01*
X0155255Y0167988D02*
X0149350Y0173894D01*
X0145413Y0169957D01*
X0144625Y0169957D01*
X0149350Y0173894D02*
X0149350Y0181374D01*
D15*
X0129665Y0168776D02*
X0117420Y0181020D01*
X0117420Y0171020D02*
X0117420Y0170783D01*
X0127696Y0160508D01*
X0127696Y0154209D01*
X0141476Y0140429D01*
X0216672Y0140429D01*
X0247263Y0171020D01*
X0247420Y0171020D01*
X0247420Y0181020D02*
X0247027Y0181020D01*
X0208798Y0142791D01*
X0142263Y0142791D01*
X0129665Y0155390D01*
X0129665Y0168776D01*
X0117420Y0161020D02*
X0140373Y0138067D01*
X0159192Y0138067D01*
X0224153Y0138067D01*
X0247106Y0161020D01*
X0247420Y0161020D01*
X0247420Y0151020D02*
X0247342Y0151020D01*
X0232027Y0135705D01*
X0132735Y0135705D01*
X0117420Y0151020D01*
X0117420Y0141020D02*
X0125098Y0133343D01*
X0239507Y0133343D01*
X0247184Y0141020D01*
X0247420Y0141020D01*
X0247420Y0131020D02*
X0247381Y0130980D01*
X0117460Y0130980D01*
X0117420Y0131020D01*
X0117460Y0308146D02*
X0117420Y0308185D01*
X0117460Y0308146D02*
X0247381Y0308146D01*
X0247420Y0308185D01*
X0239507Y0310508D02*
X0247184Y0318185D01*
X0247420Y0318185D01*
X0247420Y0328185D02*
X0247342Y0328185D01*
X0232027Y0312870D01*
X0132735Y0312870D01*
X0117420Y0328185D01*
X0117420Y0318185D02*
X0125098Y0310508D01*
X0239507Y0310508D01*
X0224153Y0315232D02*
X0247106Y0338185D01*
X0247420Y0338185D01*
X0247420Y0348185D02*
X0247263Y0348185D01*
X0216672Y0317594D01*
X0141476Y0317594D01*
X0127696Y0331374D01*
X0127696Y0337673D01*
X0117420Y0347949D01*
X0117420Y0348185D01*
X0117420Y0338185D02*
X0140373Y0315232D01*
X0159192Y0315232D01*
X0224153Y0315232D01*
X0208798Y0319957D02*
X0247027Y0358185D01*
X0247420Y0358185D01*
X0208798Y0319957D02*
X0142263Y0319957D01*
X0129665Y0332555D01*
X0129665Y0345941D01*
X0117420Y0358185D01*
X0314271Y0358185D02*
X0326515Y0345941D01*
X0326515Y0332555D01*
X0339113Y0319957D01*
X0405649Y0319957D01*
X0443877Y0358185D01*
X0444271Y0358185D01*
X0444271Y0348185D02*
X0444113Y0348185D01*
X0413523Y0317594D01*
X0338326Y0317594D01*
X0324546Y0331374D01*
X0324546Y0337673D01*
X0314271Y0347949D01*
X0314271Y0348185D01*
X0314271Y0338185D02*
X0337224Y0315232D01*
X0356043Y0315232D01*
X0421003Y0315232D01*
X0443956Y0338185D01*
X0444271Y0338185D01*
X0444271Y0328185D02*
X0444192Y0328185D01*
X0428877Y0312870D01*
X0329586Y0312870D01*
X0314271Y0328185D01*
X0314271Y0318185D02*
X0321948Y0310508D01*
X0436357Y0310508D01*
X0444035Y0318185D01*
X0444271Y0318185D01*
X0444271Y0308185D02*
X0444231Y0308146D01*
X0314310Y0308146D01*
X0314271Y0308185D01*
X0314271Y0181020D02*
X0326515Y0168776D01*
X0326515Y0155390D01*
X0339113Y0142791D01*
X0405649Y0142791D01*
X0443877Y0181020D01*
X0444271Y0181020D01*
X0444271Y0171020D02*
X0444113Y0171020D01*
X0413523Y0140429D01*
X0338326Y0140429D01*
X0324546Y0154209D01*
X0324546Y0160508D01*
X0314271Y0170783D01*
X0314271Y0171020D01*
X0314271Y0161020D02*
X0337224Y0138067D01*
X0356043Y0138067D01*
X0421003Y0138067D01*
X0443956Y0161020D01*
X0444271Y0161020D01*
X0444271Y0151020D02*
X0444192Y0151020D01*
X0428877Y0135705D01*
X0329586Y0135705D01*
X0314271Y0151020D01*
X0314271Y0141020D02*
X0321948Y0133343D01*
X0436357Y0133343D01*
X0444035Y0141020D01*
X0444271Y0141020D01*
X0444271Y0131020D02*
X0444231Y0130980D01*
X0314310Y0130980D01*
X0314271Y0131020D01*
M02*
