G75*
%MOIN*%
%OFA0B0*%
%FSLAX25Y25*%
%IPPOS*%
%LPD*%
%AMOC8*
5,1,8,0,0,1.08239X$1,22.5*
%
%ADD10C,0.00787*%
D10*
X0061357Y0119524D02*
X0061357Y0287024D01*
X0311357Y0287024D01*
X0311357Y0119524D01*
X0213857Y0119524D01*
X0158857Y0119524D01*
X0158857Y0102024D01*
X0213857Y0102024D01*
X0213857Y0119524D01*
X0266082Y0119524D02*
X0266082Y0287024D01*
X0516082Y0287024D01*
X0516082Y0119524D01*
X0418582Y0119524D01*
X0363582Y0119524D01*
X0363582Y0102024D01*
X0418582Y0102024D01*
X0418582Y0119524D01*
X0363582Y0119524D02*
X0266082Y0119524D01*
X0158857Y0119524D02*
X0061357Y0119524D01*
X0158857Y0279189D02*
X0158857Y0296689D01*
X0061357Y0296689D01*
X0061357Y0464189D01*
X0311357Y0464189D01*
X0311357Y0296689D01*
X0213857Y0296689D01*
X0158857Y0296689D01*
X0158857Y0279189D02*
X0213857Y0279189D01*
X0213857Y0296689D01*
X0266082Y0296689D02*
X0266082Y0464189D01*
X0516082Y0464189D01*
X0516082Y0296689D01*
X0418582Y0296689D01*
X0363582Y0296689D01*
X0363582Y0279189D01*
X0418582Y0279189D01*
X0418582Y0296689D01*
X0363582Y0296689D02*
X0266082Y0296689D01*
M02*
