G75*
%MOIN*%
%OFA0B0*%
%FSLAX25Y25*%
%IPPOS*%
%LPD*%
%AMOC8*
5,1,8,0,0,1.08239X$1,22.5*
%
%ADD10C,0.16548*%
%ADD11R,0.01575X0.05512*%
%ADD12R,0.07480X0.09055*%
%ADD13OC8,0.06706*%
%ADD14R,0.09055X0.02756*%
%ADD15R,0.09055X0.02559*%
%ADD16R,0.02362X0.01575*%
%ADD17R,0.01575X0.03150*%
%ADD18R,0.03150X0.01575*%
%ADD19R,0.08674X0.12611*%
%ADD20R,0.03150X0.04724*%
%ADD21R,0.04331X0.04331*%
%ADD22R,0.03150X0.03150*%
%ADD23C,0.04737*%
%ADD24R,0.15748X0.15748*%
D10*
X0083995Y0077437D03*
X0477696Y0077437D03*
X0477696Y0431768D03*
X0083995Y0431768D03*
D11*
X0138129Y0325272D03*
X0140098Y0325272D03*
X0142066Y0325272D03*
X0144035Y0325272D03*
X0146003Y0325272D03*
X0147972Y0325272D03*
X0149940Y0325272D03*
X0151909Y0325272D03*
X0153877Y0325272D03*
X0155846Y0325272D03*
X0271987Y0325272D03*
X0273956Y0325272D03*
X0275924Y0325272D03*
X0277893Y0325272D03*
X0279861Y0325272D03*
X0281830Y0325272D03*
X0283798Y0325272D03*
X0285767Y0325272D03*
X0287735Y0325272D03*
X0289704Y0325272D03*
X0405846Y0325272D03*
X0407814Y0325272D03*
X0409783Y0325272D03*
X0411751Y0325272D03*
X0413720Y0325272D03*
X0415688Y0325272D03*
X0417657Y0325272D03*
X0419625Y0325272D03*
X0421594Y0325272D03*
X0423562Y0325272D03*
X0423562Y0148106D03*
X0421594Y0148106D03*
X0419625Y0148106D03*
X0417657Y0148106D03*
X0415688Y0148106D03*
X0413720Y0148106D03*
X0411751Y0148106D03*
X0409783Y0148106D03*
X0407814Y0148106D03*
X0405846Y0148106D03*
X0289704Y0148106D03*
X0287735Y0148106D03*
X0285767Y0148106D03*
X0283798Y0148106D03*
X0281830Y0148106D03*
X0279861Y0148106D03*
X0277893Y0148106D03*
X0275924Y0148106D03*
X0273956Y0148106D03*
X0271987Y0148106D03*
X0155846Y0148106D03*
X0153877Y0148106D03*
X0151909Y0148106D03*
X0149940Y0148106D03*
X0147972Y0148106D03*
X0146003Y0148106D03*
X0144035Y0148106D03*
X0142066Y0148106D03*
X0140098Y0148106D03*
X0138129Y0148106D03*
D12*
X0130452Y0134524D03*
X0163523Y0134524D03*
X0264310Y0134524D03*
X0297381Y0134524D03*
X0398169Y0134524D03*
X0431239Y0134524D03*
X0431239Y0311689D03*
X0398169Y0311689D03*
X0297381Y0311689D03*
X0264310Y0311689D03*
X0163523Y0311689D03*
X0130452Y0311689D03*
D13*
X0091987Y0308185D03*
X0091987Y0318185D03*
X0091987Y0328185D03*
X0091987Y0338185D03*
X0091987Y0348185D03*
X0091987Y0358185D03*
X0091987Y0368185D03*
X0091987Y0378185D03*
X0201987Y0378185D03*
X0201987Y0368185D03*
X0201987Y0358185D03*
X0201987Y0348185D03*
X0201987Y0338185D03*
X0201987Y0328185D03*
X0201987Y0318185D03*
X0201987Y0308185D03*
X0225846Y0308185D03*
X0225846Y0318185D03*
X0225846Y0328185D03*
X0225846Y0338185D03*
X0225846Y0348185D03*
X0225846Y0358185D03*
X0225846Y0368185D03*
X0225846Y0378185D03*
X0335846Y0378185D03*
X0335846Y0368185D03*
X0335846Y0358185D03*
X0335846Y0348185D03*
X0335846Y0338185D03*
X0335846Y0328185D03*
X0335846Y0318185D03*
X0335846Y0308185D03*
X0359704Y0308185D03*
X0359704Y0318185D03*
X0359704Y0328185D03*
X0359704Y0338185D03*
X0359704Y0348185D03*
X0359704Y0358185D03*
X0359704Y0368185D03*
X0359704Y0378185D03*
X0469704Y0378185D03*
X0469704Y0368185D03*
X0469704Y0358185D03*
X0469704Y0348185D03*
X0469704Y0338185D03*
X0469704Y0328185D03*
X0469704Y0318185D03*
X0469704Y0308185D03*
X0469704Y0201020D03*
X0469704Y0191020D03*
X0469704Y0181020D03*
X0469704Y0171020D03*
X0469704Y0161020D03*
X0469704Y0151020D03*
X0469704Y0141020D03*
X0469704Y0131020D03*
X0359704Y0131020D03*
X0359704Y0141020D03*
X0359704Y0151020D03*
X0359704Y0161020D03*
X0359704Y0171020D03*
X0359704Y0181020D03*
X0359704Y0191020D03*
X0359704Y0201020D03*
X0335846Y0201020D03*
X0335846Y0191020D03*
X0335846Y0181020D03*
X0335846Y0171020D03*
X0335846Y0161020D03*
X0335846Y0151020D03*
X0335846Y0141020D03*
X0335846Y0131020D03*
X0225846Y0131020D03*
X0225846Y0141020D03*
X0225846Y0151020D03*
X0225846Y0161020D03*
X0225846Y0171020D03*
X0225846Y0181020D03*
X0225846Y0191020D03*
X0225846Y0201020D03*
X0201987Y0201020D03*
X0201987Y0191020D03*
X0201987Y0181020D03*
X0201987Y0171020D03*
X0201987Y0161020D03*
X0201987Y0151020D03*
X0201987Y0141020D03*
X0201987Y0131020D03*
X0091987Y0131020D03*
X0091987Y0141020D03*
X0091987Y0151020D03*
X0091987Y0161020D03*
X0091987Y0171020D03*
X0091987Y0181020D03*
X0091987Y0191020D03*
X0091987Y0201020D03*
D14*
X0159586Y0191217D03*
X0159586Y0176256D03*
X0181633Y0176256D03*
X0181633Y0191217D03*
X0293444Y0191217D03*
X0293444Y0176256D03*
X0315491Y0176256D03*
X0315491Y0191217D03*
X0427302Y0191217D03*
X0427302Y0176256D03*
X0449350Y0176256D03*
X0449350Y0191217D03*
X0449350Y0353421D03*
X0449350Y0368382D03*
X0427302Y0368382D03*
X0427302Y0353421D03*
X0315491Y0353421D03*
X0315491Y0368382D03*
X0293444Y0368382D03*
X0293444Y0353421D03*
X0181633Y0353421D03*
X0181633Y0368382D03*
X0159586Y0368382D03*
X0159586Y0353421D03*
D15*
X0159586Y0358441D03*
X0159586Y0363362D03*
X0181633Y0363362D03*
X0181633Y0358441D03*
X0293444Y0358441D03*
X0293444Y0363362D03*
X0315491Y0363362D03*
X0315491Y0358441D03*
X0427302Y0358441D03*
X0427302Y0363362D03*
X0449350Y0363362D03*
X0449350Y0358441D03*
X0449350Y0186197D03*
X0449350Y0181276D03*
X0427302Y0181276D03*
X0427302Y0186197D03*
X0315491Y0186197D03*
X0315491Y0181276D03*
X0293444Y0181276D03*
X0293444Y0186197D03*
X0181633Y0186197D03*
X0181633Y0181276D03*
X0159586Y0181276D03*
X0159586Y0186197D03*
D16*
X0143838Y0184130D03*
X0143838Y0180193D03*
X0138326Y0180193D03*
X0138326Y0182161D03*
X0138326Y0184130D03*
X0138326Y0169957D03*
X0138326Y0167988D03*
X0138326Y0166020D03*
X0143838Y0166020D03*
X0143838Y0169957D03*
X0272184Y0169957D03*
X0272184Y0167988D03*
X0272184Y0166020D03*
X0277696Y0166020D03*
X0277696Y0169957D03*
X0277696Y0180193D03*
X0277696Y0184130D03*
X0272184Y0184130D03*
X0272184Y0182161D03*
X0272184Y0180193D03*
X0406043Y0180193D03*
X0406043Y0182161D03*
X0406043Y0184130D03*
X0411554Y0184130D03*
X0411554Y0180193D03*
X0411554Y0169957D03*
X0411554Y0166020D03*
X0406043Y0166020D03*
X0406043Y0167988D03*
X0406043Y0169957D03*
X0406043Y0343185D03*
X0406043Y0345154D03*
X0406043Y0347122D03*
X0411554Y0347122D03*
X0411554Y0343185D03*
X0411554Y0357358D03*
X0411554Y0361295D03*
X0406043Y0361295D03*
X0406043Y0359327D03*
X0406043Y0357358D03*
X0277696Y0357358D03*
X0277696Y0361295D03*
X0272184Y0361295D03*
X0272184Y0359327D03*
X0272184Y0357358D03*
X0272184Y0347122D03*
X0272184Y0345154D03*
X0272184Y0343185D03*
X0277696Y0343185D03*
X0277696Y0347122D03*
X0143838Y0347122D03*
X0143838Y0343185D03*
X0138326Y0343185D03*
X0138326Y0345154D03*
X0138326Y0347122D03*
X0138326Y0357358D03*
X0138326Y0359327D03*
X0138326Y0361295D03*
X0143838Y0361295D03*
X0143838Y0357358D03*
D17*
X0126712Y0354012D03*
X0120806Y0354012D03*
X0120806Y0336295D03*
X0126712Y0336295D03*
X0254665Y0336295D03*
X0260570Y0336295D03*
X0260570Y0354012D03*
X0254665Y0354012D03*
X0388523Y0354012D03*
X0394428Y0354012D03*
X0394428Y0336295D03*
X0388523Y0336295D03*
X0388523Y0176846D03*
X0394428Y0176846D03*
X0394428Y0159130D03*
X0388523Y0159130D03*
X0260570Y0159130D03*
X0254665Y0159130D03*
X0254665Y0176846D03*
X0260570Y0176846D03*
X0126712Y0176846D03*
X0120806Y0176846D03*
X0120806Y0159130D03*
X0126712Y0159130D03*
D18*
X0130649Y0161098D03*
X0130649Y0163067D03*
X0130649Y0165035D03*
X0130649Y0167004D03*
X0130649Y0168972D03*
X0130649Y0170941D03*
X0130649Y0172909D03*
X0130649Y0174878D03*
X0116869Y0174878D03*
X0116869Y0172909D03*
X0116869Y0170941D03*
X0116869Y0168972D03*
X0116869Y0167004D03*
X0116869Y0165035D03*
X0116869Y0163067D03*
X0116869Y0161098D03*
X0250728Y0161098D03*
X0250728Y0163067D03*
X0250728Y0165035D03*
X0250728Y0167004D03*
X0250728Y0168972D03*
X0250728Y0170941D03*
X0250728Y0172909D03*
X0250728Y0174878D03*
X0264507Y0174878D03*
X0264507Y0172909D03*
X0264507Y0170941D03*
X0264507Y0168972D03*
X0264507Y0167004D03*
X0264507Y0165035D03*
X0264507Y0163067D03*
X0264507Y0161098D03*
X0384586Y0161098D03*
X0384586Y0163067D03*
X0384586Y0165035D03*
X0384586Y0167004D03*
X0384586Y0168972D03*
X0384586Y0170941D03*
X0384586Y0172909D03*
X0384586Y0174878D03*
X0398365Y0174878D03*
X0398365Y0172909D03*
X0398365Y0170941D03*
X0398365Y0168972D03*
X0398365Y0167004D03*
X0398365Y0165035D03*
X0398365Y0163067D03*
X0398365Y0161098D03*
X0398365Y0338264D03*
X0398365Y0340232D03*
X0398365Y0342201D03*
X0398365Y0344169D03*
X0398365Y0346138D03*
X0398365Y0348106D03*
X0398365Y0350075D03*
X0398365Y0352043D03*
X0384586Y0352043D03*
X0384586Y0350075D03*
X0384586Y0348106D03*
X0384586Y0346138D03*
X0384586Y0344169D03*
X0384586Y0342201D03*
X0384586Y0340232D03*
X0384586Y0338264D03*
X0264507Y0338264D03*
X0264507Y0340232D03*
X0264507Y0342201D03*
X0264507Y0344169D03*
X0264507Y0346138D03*
X0264507Y0348106D03*
X0264507Y0350075D03*
X0264507Y0352043D03*
X0250728Y0352043D03*
X0250728Y0350075D03*
X0250728Y0348106D03*
X0250728Y0346138D03*
X0250728Y0344169D03*
X0250728Y0342201D03*
X0250728Y0340232D03*
X0250728Y0338264D03*
X0130649Y0338264D03*
X0130649Y0340232D03*
X0130649Y0342201D03*
X0130649Y0344169D03*
X0130649Y0346138D03*
X0130649Y0348106D03*
X0130649Y0350075D03*
X0130649Y0352043D03*
X0116869Y0352043D03*
X0116869Y0350075D03*
X0116869Y0348106D03*
X0116869Y0346138D03*
X0116869Y0344169D03*
X0116869Y0342201D03*
X0116869Y0340232D03*
X0116869Y0338264D03*
D19*
X0123759Y0345154D03*
X0257617Y0345154D03*
X0391476Y0345154D03*
X0391476Y0167988D03*
X0257617Y0167988D03*
X0123759Y0167988D03*
D20*
X0107814Y0197319D03*
X0102696Y0197319D03*
X0102696Y0204799D03*
X0107814Y0204799D03*
X0236554Y0204799D03*
X0241672Y0204799D03*
X0241672Y0197319D03*
X0236554Y0197319D03*
X0370413Y0197319D03*
X0375531Y0197319D03*
X0375531Y0204799D03*
X0370413Y0204799D03*
X0370413Y0374484D03*
X0375531Y0374484D03*
X0375531Y0381965D03*
X0370413Y0381965D03*
X0241672Y0381965D03*
X0236554Y0381965D03*
X0236554Y0374484D03*
X0241672Y0374484D03*
X0107814Y0374484D03*
X0102696Y0374484D03*
X0102696Y0381965D03*
X0107814Y0381965D03*
D21*
X0109192Y0388461D03*
X0102106Y0388461D03*
X0102106Y0367594D03*
X0109192Y0367594D03*
X0235964Y0367594D03*
X0243050Y0367594D03*
X0243050Y0388461D03*
X0235964Y0388461D03*
X0369822Y0388461D03*
X0376909Y0388461D03*
X0376909Y0367594D03*
X0369822Y0367594D03*
X0369822Y0211295D03*
X0376909Y0211295D03*
X0376909Y0190429D03*
X0369822Y0190429D03*
X0243050Y0190429D03*
X0235964Y0190429D03*
X0235964Y0211295D03*
X0243050Y0211295D03*
X0109192Y0211295D03*
X0102106Y0211295D03*
X0102106Y0190429D03*
X0109192Y0190429D03*
D22*
X0109586Y0179799D03*
X0109586Y0175075D03*
X0104861Y0175075D03*
X0104861Y0179799D03*
X0104861Y0170350D03*
X0104861Y0165626D03*
X0104861Y0160902D03*
X0109586Y0160902D03*
X0109586Y0165626D03*
X0109586Y0170350D03*
X0121397Y0181374D03*
X0126121Y0181374D03*
X0138720Y0175075D03*
X0143444Y0175075D03*
X0143444Y0189248D03*
X0138720Y0189248D03*
X0150924Y0161295D03*
X0155649Y0161295D03*
X0155649Y0154209D03*
X0150924Y0154209D03*
X0109586Y0156177D03*
X0104861Y0156177D03*
X0176909Y0196728D03*
X0181633Y0196728D03*
X0238720Y0179799D03*
X0243444Y0179799D03*
X0243444Y0175075D03*
X0238720Y0175075D03*
X0238720Y0170350D03*
X0238720Y0165626D03*
X0243444Y0165626D03*
X0243444Y0170350D03*
X0243444Y0160902D03*
X0238720Y0160902D03*
X0238720Y0156177D03*
X0243444Y0156177D03*
X0255255Y0181374D03*
X0259980Y0181374D03*
X0272578Y0175075D03*
X0277302Y0175075D03*
X0277302Y0189248D03*
X0272578Y0189248D03*
X0284783Y0161295D03*
X0289507Y0161295D03*
X0289507Y0154209D03*
X0284783Y0154209D03*
X0310767Y0196728D03*
X0315491Y0196728D03*
X0372578Y0179799D03*
X0372578Y0175075D03*
X0377302Y0175075D03*
X0377302Y0179799D03*
X0377302Y0170350D03*
X0377302Y0165626D03*
X0372578Y0165626D03*
X0372578Y0170350D03*
X0372578Y0160902D03*
X0377302Y0160902D03*
X0377302Y0156177D03*
X0372578Y0156177D03*
X0389113Y0181374D03*
X0393838Y0181374D03*
X0406436Y0175075D03*
X0411161Y0175075D03*
X0411161Y0189248D03*
X0406436Y0189248D03*
X0418641Y0161295D03*
X0423365Y0161295D03*
X0423365Y0154209D03*
X0418641Y0154209D03*
X0444625Y0196728D03*
X0449350Y0196728D03*
X0423365Y0331374D03*
X0418641Y0331374D03*
X0418641Y0338461D03*
X0423365Y0338461D03*
X0411161Y0352240D03*
X0406436Y0352240D03*
X0393838Y0358539D03*
X0389113Y0358539D03*
X0377302Y0356965D03*
X0372578Y0356965D03*
X0372578Y0352240D03*
X0372578Y0347516D03*
X0377302Y0347516D03*
X0377302Y0352240D03*
X0377302Y0342791D03*
X0372578Y0342791D03*
X0372578Y0338067D03*
X0377302Y0338067D03*
X0377302Y0333343D03*
X0372578Y0333343D03*
X0406436Y0366413D03*
X0411161Y0366413D03*
X0444625Y0373894D03*
X0449350Y0373894D03*
X0315491Y0373894D03*
X0310767Y0373894D03*
X0277302Y0366413D03*
X0272578Y0366413D03*
X0259980Y0358539D03*
X0255255Y0358539D03*
X0243444Y0356965D03*
X0238720Y0356965D03*
X0238720Y0352240D03*
X0243444Y0352240D03*
X0243444Y0347516D03*
X0238720Y0347516D03*
X0238720Y0342791D03*
X0238720Y0338067D03*
X0243444Y0338067D03*
X0243444Y0342791D03*
X0243444Y0333343D03*
X0238720Y0333343D03*
X0272578Y0352240D03*
X0277302Y0352240D03*
X0284783Y0338461D03*
X0289507Y0338461D03*
X0289507Y0331374D03*
X0284783Y0331374D03*
X0181633Y0373894D03*
X0176909Y0373894D03*
X0143444Y0366413D03*
X0138720Y0366413D03*
X0126121Y0358539D03*
X0121397Y0358539D03*
X0109586Y0356965D03*
X0104861Y0356965D03*
X0104861Y0352240D03*
X0104861Y0347516D03*
X0104861Y0342791D03*
X0104861Y0338067D03*
X0104861Y0333343D03*
X0109586Y0333343D03*
X0109586Y0338067D03*
X0109586Y0342791D03*
X0109586Y0347516D03*
X0109586Y0352240D03*
X0138720Y0352240D03*
X0143444Y0352240D03*
X0150924Y0338461D03*
X0155649Y0338461D03*
X0155649Y0331374D03*
X0150924Y0331374D03*
D23*
X0123365Y0431768D03*
X0123365Y0077437D03*
X0418641Y0077437D03*
D24*
X0418641Y0077437D03*
X0123365Y0077437D03*
X0123365Y0431768D03*
M02*
