G75*
%MOIN*%
%OFA0B0*%
%FSLAX25Y25*%
%IPPOS*%
%LPD*%
%AMOC8*
5,1,8,0,0,1.08239X$1,22.5*
%
%ADD10C,0.13398*%
%ADD11OC8,0.06706*%
D10*
X0119428Y0112870D03*
X0119428Y0219169D03*
X0119428Y0290035D03*
X0119428Y0396335D03*
X0245413Y0396335D03*
X0316279Y0396335D03*
X0316279Y0290035D03*
X0245413Y0290035D03*
X0245413Y0219169D03*
X0316279Y0219169D03*
X0316279Y0112870D03*
X0245413Y0112870D03*
X0442263Y0112870D03*
X0442263Y0219169D03*
X0442263Y0290035D03*
X0442263Y0396335D03*
D11*
X0444271Y0378185D03*
X0444271Y0368185D03*
X0444271Y0358185D03*
X0444271Y0348185D03*
X0444271Y0338185D03*
X0444271Y0328185D03*
X0444271Y0318185D03*
X0444271Y0308185D03*
X0444271Y0201020D03*
X0444271Y0191020D03*
X0444271Y0181020D03*
X0444271Y0171020D03*
X0444271Y0161020D03*
X0444271Y0151020D03*
X0444271Y0141020D03*
X0444271Y0131020D03*
X0314271Y0131020D03*
X0314271Y0141020D03*
X0314271Y0151020D03*
X0314271Y0161020D03*
X0314271Y0171020D03*
X0314271Y0181020D03*
X0314271Y0191020D03*
X0314271Y0201020D03*
X0247420Y0201020D03*
X0247420Y0191020D03*
X0247420Y0181020D03*
X0247420Y0171020D03*
X0247420Y0161020D03*
X0247420Y0151020D03*
X0247420Y0141020D03*
X0247420Y0131020D03*
X0117420Y0131020D03*
X0117420Y0141020D03*
X0117420Y0151020D03*
X0117420Y0161020D03*
X0117420Y0171020D03*
X0117420Y0181020D03*
X0117420Y0191020D03*
X0117420Y0201020D03*
X0117420Y0308185D03*
X0117420Y0318185D03*
X0117420Y0328185D03*
X0117420Y0338185D03*
X0117420Y0348185D03*
X0117420Y0358185D03*
X0117420Y0368185D03*
X0117420Y0378185D03*
X0247420Y0378185D03*
X0247420Y0368185D03*
X0247420Y0358185D03*
X0247420Y0348185D03*
X0247420Y0338185D03*
X0247420Y0328185D03*
X0247420Y0318185D03*
X0247420Y0308185D03*
X0314271Y0308185D03*
X0314271Y0318185D03*
X0314271Y0328185D03*
X0314271Y0338185D03*
X0314271Y0348185D03*
X0314271Y0358185D03*
X0314271Y0368185D03*
X0314271Y0378185D03*
M02*
